M48
; DRILL file {KiCad 9.0.2} date 2026-05-29T08:24:13+0700
; FORMAT={-:-/ absolute / inch / decimal}
; #@! TF.CreationDate,2026-05-29T08:24:13+07:00
; #@! TF.GenerationSoftware,Kicad,Pcbnew,9.0.2
; #@! TF.FileFunction,Plated,1,4,PTH
FMAT,2
INCH
; #@! TA.AperFunction,Plated,PTH,ViaDrill
T1C0.0197
; #@! TA.AperFunction,Plated,PTH,ViaDrill
T2C0.0300
; #@! TA.AperFunction,Plated,PTH,ComponentDrill
T3C0.0315
; #@! TA.AperFunction,Plated,PTH,ComponentDrill
T4C0.0394
; #@! TA.AperFunction,Plated,PTH,ComponentDrill
T5C0.0400
; #@! TA.AperFunction,Plated,PTH,ComponentDrill
T6C0.0472
; #@! TA.AperFunction,Plated,PTH,ComponentDrill
T7C0.1260
%
G90
G05
T1
X7.7559Y-2.4134
X7.7559Y-2.6134
X7.7559Y-2.7728
X7.7559Y-2.9728
X7.7559Y-3.1728
X7.7559Y-3.3728
X7.7559Y-3.5728
X7.7559Y-3.7728
X7.7559Y-3.9728
X7.7559Y-4.1728
X7.7559Y-4.3728
X7.8051Y-5.002
X7.811Y-1.4724
X7.9587Y-3.6988
X7.9803Y-2.9488
X8.0039Y-3.6732
X8.0173Y-3.0827
X8.0236Y-2.9764
X8.0236Y-3.1378
X8.0669Y-5.8622
X8.0748Y-3.6102
X8.1102Y-3.6457
X8.1417Y-5.1929
X8.1772Y-2.2735
X8.1772Y-2.3916
X8.1772Y-2.5097
X8.1772Y-3.1297
X8.1772Y-3.2478
X8.1772Y-3.3659
X8.2953Y-2.2735
X8.2953Y-2.3916
X8.2953Y-2.5097
X8.2953Y-3.1297
X8.2953Y-3.2478
X8.2953Y-3.3659
X8.3839Y-4.7146
X8.4134Y-2.2735
X8.4134Y-2.3916
X8.4134Y-2.5097
X8.4134Y-3.1297
X8.4134Y-3.2478
X8.4134Y-3.3659
X8.4157Y-4.7503
X8.4193Y-4.9862
X8.4331Y-3.9705
X8.4547Y-4.9547
X8.4849Y-3.9678
X8.5197Y-5.6654
X8.5197Y-5.7126
X8.5787Y-4.6299
X8.5925Y-4.4744
X8.6161Y-3.4921
X8.6161Y-3.6181
X8.6417Y-5.7165
X8.6457Y-5.6693
X8.6752Y-4.9154
X8.6811Y-1.2126
X8.7087Y-2.9724
X8.752Y-2.372
X8.7559Y-2.9488
X8.7697Y-4.9705
X8.7835Y-5.0236
X8.7929Y-3.1417
X8.814Y-5.1054
X8.817Y-3.0765
X8.8386Y-5.2579
X8.8388Y-3.6535
X8.8583Y-5.1378
X8.8661Y-5.4331
X8.8788Y-5.3954
X8.8898Y-3.6654
X8.8917Y-5.2677
X8.9213Y-5.5866
X8.9409Y-2.2795
X8.9409Y-2.3976
X8.9409Y-2.5157
X8.9413Y-3.1306
X8.9413Y-3.2487
X8.9413Y-3.3668
X8.9488Y-5.6339
X8.9665Y-5.6929
X8.9665Y-5.7717
X8.9665Y-5.8504
X8.9705Y-3.6713
X8.9803Y-4.6811
X9.001Y-4.558
X9.0039Y-4.6417
X9.0039Y-5.0669
X9.0079Y-5.8996
X9.0118Y-5.3228
X9.0118Y-5.6299
X9.0276Y-5.252
X9.0305Y-4.1539
X9.0354Y-5.3543
X9.0394Y-4.6654
X9.0433Y-5.2087
X9.0472Y-5.1378
X9.0591Y-2.2795
X9.0591Y-2.3976
X9.0591Y-2.5157
X9.0591Y-5.3898
X9.0594Y-3.1306
X9.0594Y-3.2487
X9.0594Y-3.3668
X9.063Y-4.8858
X9.0735Y-4.4883
X9.0748Y-5.252
X9.0748Y-5.6299
X9.0827Y-5.4291
X9.0866Y-4.6693
X9.1063Y-5.4803
X9.1094Y-5.2214
X9.1122Y-5.9075
X9.122Y-4.867
X9.1299Y-4.2441
X9.1299Y-4.7992
X9.1299Y-5.1614
X9.1299Y-5.4213
X9.1339Y-4.4883
X9.1339Y-5.0
X9.1384Y-4.6755
X9.1575Y-5.2047
X9.1652Y-4.3318
X9.166Y-4.1804
X9.1732Y-5.1457
X9.1772Y-2.2795
X9.1772Y-2.3976
X9.1772Y-2.5157
X9.1776Y-3.1306
X9.1776Y-3.2487
X9.1776Y-3.3668
X9.1862Y-4.4883
X9.189Y-3.6713
X9.189Y-3.9665
X9.2008Y-4.6772
X9.2106Y-5.8976
X9.2118Y-5.8146
X9.2165Y-4.5276
X9.2165Y-4.9291
X9.2323Y-4.6339
X9.2361Y-4.4805
X9.252Y-4.3661
X9.254Y-5.2701
X9.2621Y-5.4272
X9.2625Y-5.3839
X9.2638Y-4.6755
X9.2638Y-5.3307
X9.2656Y-5.0311
X9.2677Y-5.185
X9.2776Y-5.7815
X9.2776Y-5.8602
X9.2992Y-5.1457
X9.318Y-5.437
X9.3192Y-4.4883
X9.3307Y-4.626
X9.3346Y-5.5905
X9.3346Y-4.5276
X9.3371Y-5.3363
X9.3465Y-5.252
X9.3465Y-5.4725
X9.3485Y-4.6753
X9.3584Y-4.3275
X9.3611Y-4.3677
X9.3687Y-5.0776
X9.3762Y-4.6139
X9.378Y-5.5472
X9.378Y-5.6337
X9.3799Y-4.5143
X9.3799Y-3.1476
X9.3866Y-4.8819
X9.3898Y-2.2972
X9.3898Y-5.122
X9.3898Y-5.5866
X9.3937Y-4.7917
X9.4232Y-3.1772
X9.4252Y-4.6496
X9.4331Y-4.4843
X9.437Y-1.2126
X9.4529Y-5.122
X9.4685Y-5.2205
X9.4803Y-4.6772
X9.4843Y-5.2598
X9.4882Y-3.6142
X9.4971Y-5.4382
X9.5157Y-2.9488
X9.5236Y-3.6654
X9.5433Y-3.626
X9.5551Y-2.9803
X9.5945Y-4.7244
X9.5984Y-5.4252
X9.6378Y-4.752
X9.6457Y-5.4331
X9.6732Y-4.9606
X9.685Y-4.4291
X9.7047Y-2.2756
X9.7047Y-2.3937
X9.7047Y-2.5118
X9.7047Y-3.1297
X9.7047Y-3.2478
X9.7047Y-3.3659
X9.7283Y-4.9567
X9.7402Y-4.8543
X9.7795Y-4.8543
X9.7874Y-5.7638
X9.815Y-5.7992
X9.8228Y-2.2756
X9.8228Y-2.3937
X9.8228Y-2.5118
X9.8228Y-3.1297
X9.8228Y-3.2478
X9.8228Y-3.3659
X9.8543Y-5.0945
X9.8583Y-4.8189
X9.8583Y-4.9449
X9.9409Y-2.2756
X9.9409Y-2.3937
X9.9409Y-2.5118
X9.9409Y-3.1297
X9.9409Y-3.2478
X9.9409Y-3.3659
X10.185Y-3.126
X10.2205Y-3.0984
X10.3091Y-2.3642
X10.3091Y-2.5642
X10.3091Y-2.7642
X10.3091Y-2.9642
X10.3091Y-3.1642
X10.3091Y-3.3642
X10.3091Y-3.5642
X10.3091Y-3.7642
X10.3091Y-3.9642
X10.3091Y-4.1406
X10.3091Y-4.3406
X10.3091Y-4.5406
X10.3091Y-4.7406
X10.3091Y-4.9406
X10.3091Y-5.1406
X10.3091Y-5.3406
X10.3091Y-5.5406
X10.3091Y-5.7406
X10.311Y-1.5858
X10.311Y-1.7858
X10.311Y-1.9858
X10.311Y-2.1858
T2
X8.6398Y-4.5079
X8.9803Y-4.1378
X9.626Y-4.4528
T3
X8.3583Y-6.0079
X8.437Y-6.0079
X8.5157Y-6.0079
X8.5945Y-6.0079
X8.6732Y-6.0079
X8.752Y-6.0079
X8.9213Y-6.0079
X9.0Y-6.0079
X9.0787Y-6.0079
X9.1575Y-6.0079
X9.2362Y-6.0079
X9.315Y-6.0079
X9.4843Y-5.9646
X9.563Y-5.9646
X9.6417Y-5.9646
X9.7205Y-5.9646
X9.7992Y-5.9646
X9.878Y-5.9646
X9.9567Y-5.9646
T4
X7.9488Y-5.9646
X8.0276Y-5.9646
X8.1063Y-5.9646
X8.185Y-5.9646
T5
X9.9803Y-5.6323
X9.9803Y-5.7323
X9.9803Y-5.8323
T6
X8.2972Y-1.3642
X8.2972Y-1.6594
X9.0551Y-1.3642
X9.0551Y-1.6594
X9.813Y-1.3642
X9.813Y-1.6594
T7
X7.8031Y-1.2638
X7.8189Y-5.7717
X7.9016Y-1.9764
X8.2988Y-2.9171
X9.061Y-2.9173
X9.0787Y-3.8189
X9.8264Y-2.9173
X10.2677Y-5.9764
X10.2679Y-1.2644
M30
