%TF.GenerationSoftware,KiCad,Pcbnew,9.0.2*%
%TF.CreationDate,2026-05-18T19:02:33+07:00*%
%TF.ProjectId,after-remap,61667465-722d-4726-956d-61702e6b6963,A*%
%TF.SameCoordinates,Original*%
%TF.FileFunction,Paste,Bot*%
%TF.FilePolarity,Positive*%
%FSLAX46Y46*%
G04 Gerber Fmt 4.6, Leading zero omitted, Abs format (unit mm)*
G04 Created by KiCad (PCBNEW 9.0.2) date 2026-05-18 19:02:33*
%MOMM*%
%LPD*%
G01*
G04 APERTURE LIST*
G04 Aperture macros list*
%AMRotRect*
0 Rectangle, with rotation*
0 The origin of the aperture is its center*
0 $1 length*
0 $2 width*
0 $3 Rotation angle, in degrees counterclockwise*
0 Add horizontal line*
21,1,$1,$2,0,0,$3*%
%AMFreePoly0*
4,1,62,-4.004454,1.465081,-3.194448,1.455073,-3.159277,1.439993,-3.145066,1.405077,-3.145066,-0.544893,-2.845067,-0.544893,-2.845067,1.405077,-2.830422,1.440432,-2.795067,1.455077,-1.995068,1.455077,-1.959713,1.440432,-1.945068,1.405077,-1.945068,-0.544893,-1.645069,-0.544893,-1.645069,1.405077,-1.630424,1.440432,-1.595069,1.455077,-0.795071,1.455077,-0.759716,1.440432,-0.745071,1.405077,
-0.745071,-0.544893,-0.445072,-0.544893,-0.445072,1.405077,-0.430427,1.440432,-0.395072,1.455077,0.404927,1.455077,0.440282,1.440432,0.454927,1.405077,0.454927,-0.544893,0.754926,-0.544893,0.754926,1.405077,0.769571,1.440432,0.804926,1.455077,1.604924,1.455077,1.640279,1.440432,1.654924,1.405077,1.654924,-0.544893,1.954924,-0.544893,1.954924,1.405077,1.969569,1.440432,
2.004924,1.455077,2.804922,1.455077,2.840277,1.440432,2.854922,1.405077,2.854922,-0.544919,3.154921,-0.544919,3.154921,1.405077,3.169566,1.440432,3.204921,1.455077,4.004920,1.455077,4.040275,1.440432,4.054920,1.405077,4.054920,-1.404925,4.040275,-1.440280,4.004920,-1.454925,-4.005072,-1.454925,-4.040427,-1.440280,-4.055072,-1.404925,-4.055072,1.415085,-4.040427,1.450440,
-4.005072,1.465085,-4.004454,1.465081,-4.004454,1.465081,$1*%
%AMFreePoly1*
4,1,32,4.885282,4.035499,4.899927,4.000144,4.899927,0.300152,4.885282,0.264797,4.849927,0.250152,4.199928,0.250152,4.199928,-2.549842,5.049926,-2.549842,5.085281,-2.564487,5.099926,-2.599842,5.099926,-3.999840,5.085281,-4.035195,5.049926,-4.049840,-5.050053,-4.049840,-5.085408,-4.035195,-5.100053,-3.999840,-5.100053,-2.630050,-5.100130,-2.629865,-5.100053,-2.629679,-5.100053,-2.599842,
-5.085408,-2.564487,-5.050053,-2.549842,-4.200055,-2.549842,-4.200055,0.250152,-4.850054,0.250152,-4.885409,0.264797,-4.900054,0.300152,-4.900054,4.000144,-4.885409,4.035499,-4.850054,4.050144,4.849927,4.050144,4.885282,4.035499,4.885282,4.035499,$1*%
G04 Aperture macros list end*
%ADD10R,1.900000X2.376000*%
%ADD11R,2.376000X1.900000*%
%ADD12R,5.400000X2.010000*%
%ADD13R,0.800000X0.800000*%
%ADD14R,4.000000X5.000000*%
%ADD15R,0.950000X1.150000*%
%ADD16R,0.900000X0.800000*%
%ADD17RotRect,0.800000X0.900000X225.000000*%
%ADD18R,1.485000X1.728000*%
%ADD19R,0.800000X0.900000*%
%ADD20R,0.864000X0.806000*%
%ADD21R,0.806000X0.864000*%
%ADD22R,2.465000X1.050000*%
%ADD23R,2.465000X3.540000*%
%ADD24R,2.100000X1.800000*%
%ADD25R,0.800000X2.800000*%
%ADD26FreePoly0,180.000000*%
%ADD27FreePoly1,180.000000*%
%ADD28R,2.690000X0.890000*%
%ADD29R,2.690000X5.710000*%
%ADD30R,1.600000X1.200000*%
G04 APERTURE END LIST*
D10*
%TO.C,C25*%
X81700000Y-124100000D03*
X77900000Y-124100000D03*
%TD*%
D11*
%TO.C,C33*%
X83000000Y-116400000D03*
X83000000Y-120200000D03*
%TD*%
D12*
%TO.C,C51*%
X110490000Y-120436000D03*
X110490000Y-115276000D03*
%TD*%
D13*
%TO.C,D1*%
X111887000Y-123990000D03*
X111887000Y-122390000D03*
%TD*%
%TO.C,D2*%
X110450000Y-124000000D03*
X110450000Y-122400000D03*
%TD*%
%TO.C,D3*%
X109050000Y-124000000D03*
X109050000Y-122400000D03*
%TD*%
D14*
%TO.C,P4*%
X81661000Y-108077000D03*
%TD*%
%TO.C,P5*%
X97536000Y-105664000D03*
%TD*%
D15*
%TO.C,D5*%
X112053000Y-133096000D03*
X108673000Y-133096000D03*
%TD*%
D16*
%TO.C,C2*%
X83700000Y-126400000D03*
X83700000Y-127800000D03*
%TD*%
D17*
%TO.C,C3*%
X112508975Y-128791025D03*
X111519025Y-129780975D03*
%TD*%
D16*
%TO.C,C4*%
X81788000Y-133666000D03*
X81788000Y-135066000D03*
%TD*%
%TO.C,C5*%
X92500000Y-132526000D03*
X92500000Y-131126000D03*
%TD*%
%TO.C,C6*%
X91100000Y-132500000D03*
X91100000Y-131100000D03*
%TD*%
%TO.C,C7*%
X86350000Y-132500000D03*
X86350000Y-131100000D03*
%TD*%
D18*
%TO.C,C9*%
X102610000Y-116300000D03*
X105790000Y-116300000D03*
%TD*%
D16*
%TO.C,C14*%
X96012000Y-124141000D03*
X96012000Y-125541000D03*
%TD*%
D19*
%TO.C,C15*%
X96836000Y-130810000D03*
X98236000Y-130810000D03*
%TD*%
D16*
%TO.C,C16*%
X107600000Y-126700000D03*
X107600000Y-125300000D03*
%TD*%
%TO.C,C17*%
X97663000Y-125541000D03*
X97663000Y-124141000D03*
%TD*%
D19*
%TO.C,C18*%
X100265000Y-121285000D03*
X101665000Y-121285000D03*
%TD*%
D16*
%TO.C,C20*%
X105918000Y-123509000D03*
X105918000Y-122109000D03*
%TD*%
%TO.C,C24*%
X85090000Y-123636000D03*
X85090000Y-122236000D03*
%TD*%
D19*
%TO.C,C31*%
X103313000Y-133858000D03*
X104713000Y-133858000D03*
%TD*%
%TO.C,C32*%
X95188000Y-135763000D03*
X93788000Y-135763000D03*
%TD*%
%TO.C,C38*%
X101030000Y-130810000D03*
X99630000Y-130810000D03*
%TD*%
D18*
%TO.C,C40*%
X105598000Y-111760000D03*
X108778000Y-111760000D03*
%TD*%
%TO.C,C43*%
X92390000Y-112268000D03*
X95570000Y-112268000D03*
%TD*%
%TO.C,C44*%
X94549000Y-116205000D03*
X97729000Y-116205000D03*
%TD*%
%TO.C,C49*%
X94549000Y-118618000D03*
X97729000Y-118618000D03*
%TD*%
D16*
%TO.C,C52*%
X107442000Y-123509000D03*
X107442000Y-122109000D03*
%TD*%
D20*
%TO.C,R3*%
X85200000Y-125350000D03*
X85200000Y-126850000D03*
%TD*%
%TO.C,R4*%
X85200000Y-129750000D03*
X85200000Y-128250000D03*
%TD*%
%TO.C,R5*%
X106426000Y-131584000D03*
X106426000Y-133084000D03*
%TD*%
%TO.C,R7*%
X83312000Y-135116000D03*
X83312000Y-133616000D03*
%TD*%
%TO.C,R8*%
X86360000Y-135116000D03*
X86360000Y-133616000D03*
%TD*%
%TO.C,R9*%
X89408000Y-135116000D03*
X89408000Y-133616000D03*
%TD*%
%TO.C,R10*%
X92456000Y-135116000D03*
X92456000Y-133616000D03*
%TD*%
%TO.C,R11*%
X90932000Y-135116000D03*
X90932000Y-133616000D03*
%TD*%
%TO.C,R12*%
X87884000Y-135116000D03*
X87884000Y-133616000D03*
%TD*%
%TO.C,R13*%
X84836000Y-135116000D03*
X84836000Y-133616000D03*
%TD*%
D21*
%TO.C,R21*%
X93484000Y-121666000D03*
X94984000Y-121666000D03*
%TD*%
D20*
%TO.C,R22*%
X109100000Y-125250000D03*
X109100000Y-126750000D03*
%TD*%
D21*
%TO.C,R23*%
X87515000Y-128524000D03*
X89015000Y-128524000D03*
%TD*%
%TO.C,R24*%
X93450000Y-128050000D03*
X91950000Y-128050000D03*
%TD*%
%TO.C,R26*%
X87515000Y-127000000D03*
X89015000Y-127000000D03*
%TD*%
%TO.C,R27*%
X93450000Y-126550000D03*
X91950000Y-126550000D03*
%TD*%
%TO.C,R29*%
X114796000Y-103124000D03*
X113296000Y-103124000D03*
%TD*%
D20*
%TO.C,R30*%
X104394000Y-96889000D03*
X104394000Y-95389000D03*
%TD*%
D21*
%TO.C,R32*%
X87500000Y-125450000D03*
X89000000Y-125450000D03*
%TD*%
%TO.C,R33*%
X93450000Y-125050000D03*
X91950000Y-125050000D03*
%TD*%
D20*
%TO.C,R35*%
X104394000Y-100596000D03*
X104394000Y-102096000D03*
%TD*%
%TO.C,R36*%
X104394000Y-98056000D03*
X104394000Y-99556000D03*
%TD*%
%TO.C,R37*%
X112100000Y-125250000D03*
X112100000Y-126750000D03*
%TD*%
%TO.C,R38*%
X110600000Y-125250000D03*
X110600000Y-126750000D03*
%TD*%
%TO.C,R43*%
X91186000Y-100088000D03*
X91186000Y-101588000D03*
%TD*%
%TO.C,R46*%
X91186000Y-97294000D03*
X91186000Y-98794000D03*
%TD*%
D21*
%TO.C,R402*%
X83300000Y-132200000D03*
X81800000Y-132200000D03*
%TD*%
D22*
%TO.C,U2*%
X86040000Y-120664000D03*
X86040000Y-118364000D03*
X86040000Y-116064000D03*
D23*
X91760000Y-118364000D03*
%TD*%
D19*
%TO.C,C26*%
X100265000Y-119888000D03*
X101665000Y-119888000D03*
%TD*%
D24*
%TO.C,D4*%
X89395000Y-113030000D03*
X84595000Y-113030000D03*
%TD*%
D25*
%TO.C,Q4*%
X102011600Y-99657600D03*
D26*
X97211600Y-99657600D03*
D27*
X97801600Y-91797600D03*
%TD*%
D28*
%TO.C,R53*%
X102440000Y-109960000D03*
X107360000Y-109960000D03*
D29*
X102440000Y-105780000D03*
X107360000Y-105780000D03*
%TD*%
D30*
%TO.C,X2*%
X96933000Y-132200000D03*
X100933000Y-132200000D03*
X100933000Y-134600000D03*
X96933000Y-134600000D03*
%TD*%
D28*
%TO.C,R54*%
X88140000Y-109460000D03*
X93060000Y-109460000D03*
D29*
X88140000Y-105280000D03*
X93060000Y-105280000D03*
%TD*%
D25*
%TO.C,Q2*%
X114833300Y-99657600D03*
D26*
X110033300Y-99657600D03*
D27*
X110623300Y-91797600D03*
%TD*%
D25*
%TO.C,Q6*%
X89111600Y-99657600D03*
D26*
X84311600Y-99657600D03*
D27*
X84901600Y-91797600D03*
%TD*%
M02*
