%TF.GenerationSoftware,KiCad,Pcbnew,9.0.2*%
%TF.CreationDate,2026-05-18T19:02:33+07:00*%
%TF.ProjectId,after-remap,61667465-722d-4726-956d-61702e6b6963,A*%
%TF.SameCoordinates,Original*%
%TF.FileFunction,Copper,L2,Inr*%
%TF.FilePolarity,Positive*%
%FSLAX46Y46*%
G04 Gerber Fmt 4.6, Leading zero omitted, Abs format (unit mm)*
G04 Created by KiCad (PCBNEW 9.0.2) date 2026-05-18 19:02:33*
%MOMM*%
%LPD*%
G01*
G04 APERTURE LIST*
%TA.AperFunction,ComponentPad*%
%ADD10C,4.064000*%
%TD*%
%TA.AperFunction,ComponentPad*%
%ADD11O,1.524000X3.048000*%
%TD*%
%TA.AperFunction,ComponentPad*%
%ADD12R,1.200000X1.500000*%
%TD*%
%TA.AperFunction,ComponentPad*%
%ADD13O,1.200000X1.500000*%
%TD*%
%TA.AperFunction,ComponentPad*%
%ADD14R,1.500000X1.200000*%
%TD*%
%TA.AperFunction,ComponentPad*%
%ADD15O,1.500000X1.200000*%
%TD*%
%TA.AperFunction,ComponentPad*%
%ADD16O,1.600000X1.600000*%
%TD*%
%TA.AperFunction,ComponentPad*%
%ADD17R,1.400000X1.200000*%
%TD*%
%TA.AperFunction,ComponentPad*%
%ADD18O,1.400000X1.200000*%
%TD*%
%TA.AperFunction,ViaPad*%
%ADD19C,0.800000*%
%TD*%
%TA.AperFunction,ViaPad*%
%ADD20C,1.524000*%
%TD*%
%TA.AperFunction,ViaPad*%
%ADD21C,0.889000*%
%TD*%
%TA.AperFunction,Conductor*%
%ADD22C,1.016000*%
%TD*%
%TA.AperFunction,Conductor*%
%ADD23C,1.270000*%
%TD*%
%TA.AperFunction,Conductor*%
%ADD24C,0.635000*%
%TD*%
%TA.AperFunction,Conductor*%
%ADD25C,0.304800*%
%TD*%
%TA.AperFunction,Conductor*%
%ADD26C,0.254000*%
%TD*%
G04 APERTURE END LIST*
D10*
%TO.N,N/C*%
%TO.C,1PIN*%
X92000000Y-83000000D03*
%TD*%
%TO.N,N/C*%
%TO.C,1PIN*%
X103500000Y-83000000D03*
%TD*%
D11*
%TO.N,Net-(K1-P1)*%
%TO.C,K1*%
X108712000Y-136398000D03*
%TO.N,+5V*%
X111252000Y-136398000D03*
%TO.N,GND*%
X113792000Y-136398000D03*
%TD*%
D12*
%TO.N,+5V*%
%TO.C,P1*%
X82100000Y-137200000D03*
D13*
%TO.N,/Filters/TEMP_MOTOR*%
X84100000Y-137200000D03*
%TO.N,/Filters/HALL1_IN*%
X86100000Y-137200000D03*
%TO.N,/Filters/HALL2_IN*%
X88100000Y-137200000D03*
%TO.N,/Filters/HALL3_IN*%
X90100000Y-137200000D03*
%TO.N,GND*%
X92100000Y-137200000D03*
%TD*%
D14*
%TO.N,VCC*%
%TO.C,P2*%
X114300000Y-122300000D03*
D15*
%TO.N,SWCLK*%
X114300000Y-124300000D03*
%TO.N,GND*%
X114300000Y-126300000D03*
%TO.N,SWDIO*%
X114300000Y-128300000D03*
%TO.N,NRST*%
X114300000Y-130300000D03*
%TO.N,unconnected-(P2-Pad6)*%
X114300000Y-132300000D03*
%TD*%
D16*
%TO.N,GND*%
%TO.C,P101*%
X80450000Y-119726000D03*
%TO.N,/CAN bus transceiver/CANL*%
X80450000Y-117726000D03*
%TO.N,/CAN bus transceiver/CANH*%
X80450000Y-115726000D03*
%TO.N,+5V*%
X80450000Y-113726000D03*
%TD*%
D10*
%TO.N,N/C*%
%TO.C,1PIN*%
X114853396Y-142000000D03*
%TD*%
%TO.N,N/C*%
%TO.C,1PIN*%
X79600000Y-142000000D03*
%TD*%
D17*
%TO.N,+5V*%
%TO.C,P3*%
X114300000Y-118014000D03*
D18*
%TO.N,VCC*%
X114300000Y-116014000D03*
%TO.N,GND*%
X114300000Y-114014000D03*
%TO.N,/SCK_ADC_EXT*%
X114300000Y-112014000D03*
%TO.N,/TX_SDA*%
X114300000Y-110014000D03*
%TO.N,/RX_SCL_MOSI*%
X114300000Y-108014000D03*
%TO.N,/MISO_RX_SCL*%
X114300000Y-106014000D03*
%TD*%
D19*
%TO.N,+5V*%
X88900000Y-118800000D03*
X85979000Y-114935000D03*
X88900000Y-117729000D03*
%TO.N,GND*%
X80600000Y-121900000D03*
D20*
X94996000Y-106299000D03*
D19*
X98552000Y-116840000D03*
X91823218Y-122684218D03*
X84928238Y-131104499D03*
X97028000Y-123063000D03*
D20*
X93472000Y-104775000D03*
D19*
X103759000Y-115189000D03*
D20*
X93472000Y-103251000D03*
D19*
X90255293Y-131671345D03*
X103709331Y-113221584D03*
X98512630Y-135586518D03*
X93321003Y-128553294D03*
D21*
X90551000Y-110490012D03*
D19*
X88138000Y-131699000D03*
X81800000Y-112800000D03*
X101473000Y-118237000D03*
X102870000Y-132842000D03*
X99314000Y-117475000D03*
X86268066Y-125950927D03*
D20*
X94996000Y-103251000D03*
D19*
X110871000Y-119380000D03*
X109900000Y-121800000D03*
D20*
X93472000Y-106299000D03*
D19*
X107817006Y-124617006D03*
D20*
X94996000Y-104775000D03*
D19*
X110871000Y-118364000D03*
%TO.N,NRST*%
X99187000Y-132731485D03*
X93731054Y-137799200D03*
%TO.N,SWCLK*%
X96901000Y-127635000D03*
%TO.N,SWDIO*%
X98171000Y-128143000D03*
%TO.N,VCC*%
X91200000Y-119400000D03*
X98552000Y-122301000D03*
X106044996Y-126432893D03*
X107200501Y-135762249D03*
X108979757Y-127640505D03*
X92850000Y-129600000D03*
X95850000Y-126400000D03*
X95656236Y-137367266D03*
X112394988Y-131318000D03*
%TO.N,V_SUPPLY*%
X111049589Y-110692411D03*
D20*
X80010000Y-107188000D03*
X80010000Y-110744000D03*
X83566000Y-105410000D03*
D19*
X116078000Y-100330000D03*
X111125000Y-113411000D03*
D21*
X100200000Y-97500000D03*
X97800000Y-97500000D03*
D19*
X93980000Y-113411000D03*
D21*
X84900000Y-97500000D03*
D20*
X81788000Y-108966000D03*
X81788000Y-110744000D03*
D21*
X113000000Y-97500000D03*
D19*
X116100000Y-101300000D03*
X116078000Y-99314000D03*
D21*
X110600000Y-97500000D03*
D20*
X81788000Y-105410000D03*
D21*
X108200000Y-97500000D03*
D19*
X83900000Y-125300000D03*
D21*
X82500000Y-97500000D03*
X95400000Y-97500000D03*
X87300000Y-97500000D03*
D20*
X83566000Y-110744000D03*
D19*
X96647000Y-114046000D03*
D20*
X80010000Y-108966000D03*
X81788000Y-107188000D03*
X80010000Y-105410000D03*
X83566000Y-108966000D03*
X83566000Y-107188000D03*
D19*
%TO.N,/MCU/AN_IN*%
X101600000Y-138085820D03*
X83993947Y-129106053D03*
%TO.N,/MCU/SERVO*%
X104310799Y-130643738D03*
%TO.N,/MCU/SENS1*%
X107061000Y-137287000D03*
X91300000Y-128250000D03*
%TO.N,/MCU/SENS2*%
X90932000Y-126492000D03*
X105792150Y-136142850D03*
%TO.N,/Mosfet driver/M_H1*%
X99012291Y-113211397D03*
D21*
X114808000Y-81915000D03*
D19*
%TO.N,/Mosfet driver/M_L1*%
X100441730Y-113235361D03*
X112483130Y-104116822D03*
%TO.N,/MCU/SENS3*%
X103632000Y-138085820D03*
X91440000Y-124587000D03*
%TO.N,/Mosfet driver/M_H2*%
X105537509Y-102507217D03*
D21*
X104394000Y-91694000D03*
D19*
%TO.N,/Mosfet driver/M_L2*%
X102596601Y-113245201D03*
D21*
X103937763Y-101968280D03*
%TO.N,/Mosfet driver/M_H3*%
X91313000Y-90170000D03*
D19*
X107051383Y-113293617D03*
D21*
%TO.N,/Mosfet driver/M_L3*%
X91000000Y-102300000D03*
D19*
X105383273Y-109569220D03*
%TO.N,/Mosfet driver/SH1_A*%
X90703146Y-109479094D03*
X105264351Y-105868904D03*
%TO.N,/Mosfet driver/SH1_B*%
X105266323Y-104825601D03*
X90100000Y-108700000D03*
%TO.N,/Mosfet driver/SH2_A*%
X111506000Y-104902000D03*
%TO.N,/Mosfet driver/SH2_B*%
X110906033Y-106443107D03*
%TO.N,/MCU/DC_CAL*%
X105181969Y-125258511D03*
X100505015Y-118375283D03*
%TO.N,/MCU/L3*%
X105090994Y-126647361D03*
X107061000Y-118237000D03*
%TO.N,/MCU/L2*%
X104643484Y-127516758D03*
X104902000Y-118364000D03*
%TO.N,/MCU/L1*%
X103885996Y-118364000D03*
X103632000Y-127889000D03*
%TO.N,/MCU/EN_GATE*%
X100203000Y-127635000D03*
X102489000Y-118364000D03*
%TO.N,/MCU/FAULT*%
X96300000Y-117800000D03*
X96520000Y-129413000D03*
%TO.N,/MCU/H1*%
X100584000Y-126619000D03*
X103378000Y-121412000D03*
%TO.N,/MCU/USB_DP*%
X98850000Y-126650000D03*
X90200000Y-127300000D03*
%TO.N,/Filters/HALL3_OUT*%
X93859398Y-129369533D03*
%TO.N,/Filters/HALL2_OUT*%
X93605312Y-132700000D03*
%TO.N,/Filters/HALL1_OUT*%
X89535104Y-132529118D03*
%TO.N,/CAN bus transceiver/CANH*%
X88292526Y-129652290D03*
X88100000Y-123900000D03*
%TO.N,/MCU/LED_GREEN*%
X109474000Y-130556000D03*
%TO.N,/MCU/LED_RED*%
X109849234Y-129387867D03*
%TO.N,Net-(U1-VCAP1)*%
X108286870Y-128330435D03*
%TO.N,Net-(U1-VCAP2)*%
X97350000Y-126600000D03*
%TO.N,Net-(U3-GVDD)*%
X100831698Y-122555000D03*
%TO.N,Net-(U3-DVDD)*%
X105537000Y-121539000D03*
X100132231Y-123334253D03*
%TO.N,Net-(D4-K)*%
X91948000Y-114935000D03*
X90805000Y-114935000D03*
D21*
%TO.N,/Power MOSFETS/Q1-s_Q2-d*%
X107820000Y-87100000D03*
X108826932Y-91181601D03*
D19*
X99750000Y-110000000D03*
D20*
X107696000Y-81534000D03*
D21*
X106624000Y-87100000D03*
X110022932Y-91181601D03*
X107630932Y-91181601D03*
X110212000Y-87100000D03*
X112414932Y-91181601D03*
X111408000Y-87100000D03*
D19*
X86741000Y-125095000D03*
D21*
X113800000Y-87100000D03*
X109016000Y-87100000D03*
D20*
X111252000Y-81534000D03*
D21*
X106434932Y-91181601D03*
X111218932Y-91181601D03*
D20*
X109474000Y-81534000D03*
D21*
X113610932Y-91181601D03*
X112604000Y-87100000D03*
%TO.N,/Power MOSFETS/Q3-s_Q4-d*%
X96036300Y-91192644D03*
X101025368Y-87100000D03*
X96225368Y-87100000D03*
X93825368Y-87100000D03*
X94836300Y-91192644D03*
X98436300Y-91192644D03*
D19*
X105410000Y-103632000D03*
D21*
X99636300Y-91192644D03*
X93636300Y-91192644D03*
X95025368Y-87100000D03*
X97425368Y-87100000D03*
D20*
X99441000Y-81534000D03*
D19*
X91200000Y-123600000D03*
D21*
X97236300Y-91192644D03*
X98625368Y-87100000D03*
X99825368Y-87100000D03*
D20*
X97790000Y-81534000D03*
D21*
X100836300Y-91192644D03*
D20*
X96139000Y-81534000D03*
D21*
%TO.N,/Power MOSFETS/Q5-s_Q6-d*%
X86919163Y-87100000D03*
X88119163Y-87100000D03*
X84341138Y-91192644D03*
X84519163Y-87100000D03*
D20*
X83312000Y-81534000D03*
D21*
X82119163Y-87100000D03*
X91440000Y-86868000D03*
X83319163Y-87100000D03*
X85719163Y-87100000D03*
D20*
X86868000Y-81534000D03*
D21*
X80741138Y-91192644D03*
D19*
X104500000Y-104000266D03*
D20*
X85090000Y-81534000D03*
D21*
X81941138Y-91192644D03*
D19*
X86500000Y-128267478D03*
D21*
X87941138Y-91192644D03*
X86741138Y-91192644D03*
X83141138Y-91192644D03*
X85541138Y-91192644D03*
X80919163Y-87100000D03*
D19*
%TO.N,/TX_SDA*%
X102489000Y-128156220D03*
X103632000Y-132207000D03*
%TO.N,/SCK_ADC_EXT*%
X104775000Y-132588000D03*
%TO.N,/MISO_RX_SCL*%
X103377992Y-130937000D03*
%TO.N,/RX_SCL_MOSI*%
X101473000Y-128578582D03*
%TO.N,/Power MOSFETS/Q2-s*%
X101473000Y-113284000D03*
D21*
X108003411Y-103725057D03*
D19*
%TO.N,Net-(U3-RT_CLK)*%
X94615000Y-120523000D03*
D21*
%TO.N,/Power MOSFETS/Q6-s*%
X91440000Y-91313000D03*
D19*
X105291353Y-106846343D03*
%TO.N,Net-(U401-Rs)*%
X84900000Y-132600000D03*
%TO.N,Net-(D6-A)*%
X78400000Y-127000000D03*
X78400000Y-135500000D03*
%TO.N,/MCU/X2-1*%
X97028000Y-133350000D03*
%TO.N,/MCU/X2-2*%
X99374925Y-134191906D03*
%TD*%
D22*
%TO.N,+5V*%
X114300000Y-119634000D02*
X115824000Y-121158000D01*
X115824000Y-121158000D02*
X115824000Y-132969000D01*
X115824000Y-132969000D02*
X114935000Y-133858000D01*
X114935000Y-133858000D02*
X112395000Y-133858000D01*
X112395000Y-133858000D02*
X111252000Y-135001000D01*
X111252000Y-135001000D02*
X111252000Y-136398000D01*
D23*
X82103522Y-135303522D02*
X82098740Y-135298740D01*
X82098740Y-122117260D02*
X86487000Y-117729000D01*
X86487000Y-117729000D02*
X88900000Y-117729000D01*
D22*
X114300000Y-118031260D02*
X114300000Y-119634000D01*
D23*
X82098740Y-137200000D02*
X82103522Y-135303522D01*
D24*
X88900000Y-117729000D02*
X88900000Y-118800000D01*
D23*
X82098740Y-135298740D02*
X82098740Y-122117260D01*
%TO.N,GND*%
X93472000Y-104775000D02*
X93472000Y-106299000D01*
D25*
%TO.N,VCC*%
X108979757Y-127640505D02*
X109290505Y-127640505D01*
X107200501Y-135196564D02*
X111079065Y-131318000D01*
X111079065Y-131318000D02*
X111829303Y-131318000D01*
X99580201Y-123894886D02*
X98552000Y-122866685D01*
X95319315Y-126365000D02*
X94303315Y-127381000D01*
X99345799Y-128048899D02*
X99345799Y-127349201D01*
X96971019Y-130423679D02*
X99345799Y-128048899D01*
X108979757Y-127640505D02*
X109135117Y-127485145D01*
X99580201Y-127114799D02*
X99580201Y-123894886D01*
X92329000Y-128143000D02*
X92329000Y-129079000D01*
X112394988Y-130744988D02*
X112394988Y-131318000D01*
X109135117Y-127485145D02*
X109135117Y-127417623D01*
X93673679Y-130423679D02*
X96971019Y-130423679D01*
X95850000Y-126400000D02*
X95319315Y-126365000D01*
X92329000Y-129079000D02*
X92850000Y-129600000D01*
X93091000Y-127381000D02*
X92329000Y-128143000D01*
X94303315Y-127381000D02*
X93091000Y-127381000D01*
X109290505Y-127640505D02*
X112394988Y-130744988D01*
X109135117Y-127417623D02*
X114300000Y-122252740D01*
X98552000Y-122866685D02*
X98552000Y-122301000D01*
X107200501Y-135762249D02*
X107200501Y-135196564D01*
X99345799Y-127349201D02*
X99580201Y-127114799D01*
X111829303Y-131318000D02*
X112394988Y-131318000D01*
X92850000Y-129600000D02*
X93673679Y-130423679D01*
D22*
%TO.N,V_SUPPLY*%
X116100000Y-103991000D02*
X115570000Y-104521000D01*
X100457000Y-116586000D02*
X97917000Y-114046000D01*
X111125000Y-109914983D02*
X111125000Y-111453556D01*
X115570000Y-104521000D02*
X113792000Y-104521000D01*
X111049589Y-110692411D02*
X111049589Y-111258096D01*
X108458000Y-116586000D02*
X100457000Y-116586000D01*
X111125000Y-111453556D02*
X111125000Y-113411000D01*
X116078000Y-100330000D02*
X116078000Y-101278000D01*
X116078000Y-99314000D02*
X116078000Y-100330000D01*
X111125000Y-110051315D02*
X111125000Y-109914983D01*
X111125000Y-113919000D02*
X108458000Y-116586000D01*
X112903000Y-105410000D02*
X112903000Y-107315000D01*
X111125000Y-113411000D02*
X111125000Y-113919000D01*
X111049589Y-110126726D02*
X111125000Y-110051315D01*
X116078000Y-101278000D02*
X116100000Y-101300000D01*
X112903000Y-107315000D02*
X111125000Y-109093000D01*
X111125000Y-109093000D02*
X111125000Y-109914983D01*
X111049589Y-110692411D02*
X111049589Y-110126726D01*
X116100000Y-101300000D02*
X116100000Y-103991000D01*
X111049589Y-111258096D02*
X111125000Y-111333507D01*
X113792000Y-104521000D02*
X112903000Y-105410000D01*
X111125000Y-111333507D02*
X111125000Y-111453556D01*
X97917000Y-114046000D02*
X96647000Y-114046000D01*
D26*
%TO.N,/MCU/AN_IN*%
X83993947Y-129106053D02*
X89617476Y-134729582D01*
X101600000Y-137423521D02*
X101600000Y-138085820D01*
X89617476Y-134729582D02*
X98906061Y-134729582D01*
X98906061Y-134729582D02*
X101600000Y-137423521D01*
%TO.N,/MCU/SENS1*%
X105793921Y-135130921D02*
X106496951Y-135833951D01*
X106496951Y-136722951D02*
X107061000Y-137287000D01*
X106496951Y-135833951D02*
X106496951Y-136722951D01*
X91300000Y-128250000D02*
X91300000Y-129099990D01*
X93080898Y-130880888D02*
X99614559Y-130880888D01*
X91300000Y-129099990D02*
X93080898Y-130880888D01*
X103864592Y-135130921D02*
X105793921Y-135130921D01*
X99614559Y-130880888D02*
X103864592Y-135130921D01*
%TO.N,/MCU/SENS2*%
X92902038Y-131312698D02*
X99435698Y-131312698D01*
X99435698Y-131312698D02*
X104265850Y-136142850D01*
X89281000Y-127691660D02*
X92902038Y-131312698D01*
X89789000Y-126492000D02*
X89281000Y-127000000D01*
X90932000Y-126492000D02*
X89789000Y-126492000D01*
X89281000Y-127000000D02*
X89281000Y-127691660D01*
X104265850Y-136142850D02*
X105792150Y-136142850D01*
D24*
%TO.N,/Mosfet driver/M_H1*%
X105029000Y-113157000D02*
X105029000Y-113792000D01*
X109340699Y-113544301D02*
X109340699Y-104167660D01*
X100082688Y-112141000D02*
X104013000Y-112141000D01*
X106172000Y-114935000D02*
X107950000Y-114935000D01*
X104013000Y-112141000D02*
X105029000Y-113157000D01*
X99012291Y-113211397D02*
X100082688Y-112141000D01*
X109340699Y-104167660D02*
X114808000Y-98700359D01*
X114808000Y-82543617D02*
X114808000Y-81915000D01*
X107950000Y-114935000D02*
X109340699Y-113544301D01*
X114808000Y-98700359D02*
X114808000Y-82543617D01*
X105029000Y-113792000D02*
X106172000Y-114935000D01*
D26*
%TO.N,/MCU/SENS3*%
X88773000Y-127794320D02*
X92723180Y-131744500D01*
X103632000Y-136133379D02*
X103632000Y-138085820D01*
X91440000Y-124587000D02*
X90874315Y-124587000D01*
X92723180Y-131744500D02*
X99243121Y-131744500D01*
X99243121Y-131744500D02*
X103632000Y-136133379D01*
X90874315Y-124587000D02*
X88773000Y-126688315D01*
X88773000Y-126688315D02*
X88773000Y-127794320D01*
D24*
%TO.N,/Mosfet driver/M_H2*%
X104394000Y-91694000D02*
X104400000Y-91700000D01*
X104400000Y-93400000D02*
X105537509Y-94537509D01*
X105537509Y-94537509D02*
X105537509Y-102507217D01*
X104400000Y-91700000D02*
X104400000Y-93400000D01*
%TO.N,/Mosfet driver/M_H3*%
X107051383Y-112948429D02*
X107051383Y-113293617D01*
X91313000Y-90170000D02*
X90684383Y-90170000D01*
X90000000Y-90854383D02*
X90000000Y-105621029D01*
X90000000Y-105621029D02*
X92074971Y-107696000D01*
X92074971Y-107696000D02*
X101798954Y-107696000D01*
X101798954Y-107696000D02*
X107051383Y-112948429D01*
X90684383Y-90170000D02*
X90000000Y-90854383D01*
%TO.N,/Mosfet driver/M_L3*%
X91000000Y-102300000D02*
X91319000Y-101981000D01*
X91319000Y-101981000D02*
X97795053Y-101981000D01*
X97795053Y-101981000D02*
X105383273Y-109569220D01*
D26*
%TO.N,/MCU/DC_CAL*%
X107569000Y-122871480D02*
X107569000Y-120015000D01*
X100782414Y-117532199D02*
X100505015Y-117809598D01*
X107569000Y-120015000D02*
X105086199Y-117532199D01*
X105181969Y-125258511D02*
X107569000Y-122871480D01*
X105086199Y-117532199D02*
X100782414Y-117532199D01*
X100505015Y-117809598D02*
X100505015Y-118375283D01*
%TO.N,/MCU/L3*%
X107061000Y-118237000D02*
X108331000Y-119507000D01*
X108331000Y-119507000D02*
X108331000Y-123106245D01*
X108331000Y-123106245D02*
X105090994Y-126346251D01*
X105090994Y-126346251D02*
X105090994Y-126647361D01*
%TO.N,/MCU/L2*%
X104243485Y-125153889D02*
X104243485Y-127116759D01*
X104243485Y-127116759D02*
X104643484Y-127516758D01*
X104902000Y-118364000D02*
X106934000Y-120396000D01*
X106934000Y-122463374D02*
X104243485Y-125153889D01*
X106934000Y-120396000D02*
X106934000Y-122463374D01*
%TO.N,/MCU/L1*%
X106426000Y-120904004D02*
X104285995Y-118763999D01*
X103632000Y-124714000D02*
X106426000Y-121920000D01*
X103632000Y-127889000D02*
X103632000Y-124714000D01*
X104285995Y-118763999D02*
X103885996Y-118364000D01*
X106426000Y-121920000D02*
X106426000Y-120904004D01*
%TO.N,/MCU/EN_GATE*%
X104394000Y-122174000D02*
X102108000Y-124460000D01*
X100735328Y-127635000D02*
X100203000Y-127635000D01*
X102108000Y-124460000D02*
X102108000Y-126262328D01*
X104394000Y-120269000D02*
X104394000Y-122174000D01*
X102489000Y-118364000D02*
X104394000Y-120269000D01*
X102108000Y-126262328D02*
X100735328Y-127635000D01*
%TO.N,/MCU/H1*%
X100584000Y-126053315D02*
X100584000Y-126619000D01*
X103378000Y-121412000D02*
X100584000Y-124206000D01*
X100584000Y-124206000D02*
X100584000Y-126053315D01*
%TO.N,/MCU/USB_DP*%
X98850000Y-126650000D02*
X97917000Y-125603000D01*
X97917000Y-125603000D02*
X93599000Y-125603000D01*
X93599000Y-125603000D02*
X92200000Y-127002000D01*
X91900000Y-127300000D02*
X92200000Y-127000000D01*
X92200000Y-127000000D02*
X92200000Y-127002000D01*
X90200000Y-127300000D02*
X91900000Y-127300000D01*
%TO.N,/CAN bus transceiver/CANH*%
X88292526Y-129652290D02*
X88292526Y-124092526D01*
X88292526Y-124092526D02*
X88100000Y-123900000D01*
D24*
%TO.N,/Power MOSFETS/Q1-s_Q2-d*%
X89154000Y-87346000D02*
X89154000Y-106172000D01*
X99750000Y-110000000D02*
X99259988Y-110490012D01*
D26*
X94869000Y-112995851D02*
X97374851Y-110490000D01*
D24*
X93472000Y-110490000D02*
X97374851Y-110490000D01*
D26*
X86741000Y-124005000D02*
X87683909Y-123062091D01*
X89179249Y-123062091D02*
X94869000Y-117372340D01*
D24*
X89154000Y-106172000D02*
X93472000Y-110490000D01*
X99259988Y-110490012D02*
X98367327Y-110490012D01*
X97374851Y-110490000D02*
X98679000Y-110490000D01*
D26*
X87683909Y-123062091D02*
X89179249Y-123062091D01*
X94869000Y-117372340D02*
X94869000Y-112995851D01*
D24*
X105776000Y-85710000D02*
X90790000Y-85710000D01*
X107630932Y-87758326D02*
X107630932Y-87564932D01*
D26*
X86741000Y-125095000D02*
X86741000Y-124005000D01*
D24*
X90790000Y-85710000D02*
X89154000Y-87346000D01*
X107630932Y-87564932D02*
X105776000Y-85710000D01*
D26*
%TO.N,/Power MOSFETS/Q3-s_Q4-d*%
X97396311Y-111391689D02*
X104406689Y-111391689D01*
X104406689Y-111391689D02*
X106172000Y-113157000D01*
X95377000Y-117729000D02*
X95377000Y-113411000D01*
D24*
X106159825Y-103632000D02*
X105594140Y-103632000D01*
X100833048Y-87722720D02*
X102010328Y-88900000D01*
X107100000Y-94700000D02*
X107100000Y-102691825D01*
X102900000Y-88900000D02*
X104753200Y-90753200D01*
D26*
X105994139Y-104031999D02*
X105594140Y-103632000D01*
X91200000Y-123600000D02*
X90800001Y-123200001D01*
D24*
X104783693Y-90753200D02*
X105200000Y-91169507D01*
X105500000Y-93100000D02*
X107100000Y-94700000D01*
D26*
X108077000Y-106114860D02*
X105994139Y-104031999D01*
X106172000Y-113157000D02*
X106172000Y-113792000D01*
D24*
X107100000Y-102691825D02*
X106159825Y-103632000D01*
X102010328Y-88900000D02*
X102900000Y-88900000D01*
X106159825Y-103632000D02*
X105410000Y-103632000D01*
X105200000Y-91169507D02*
X105200000Y-91200000D01*
X105200000Y-91200000D02*
X105500000Y-91500000D01*
X104753200Y-90753200D02*
X104783693Y-90753200D01*
D26*
X106553000Y-114173000D02*
X107442000Y-114173000D01*
X106172000Y-113792000D02*
X106553000Y-114173000D01*
X90800001Y-122305999D02*
X95377000Y-117729000D01*
D24*
X99633048Y-87722720D02*
X100833048Y-87722720D01*
D26*
X90800001Y-123200001D02*
X90800001Y-122305999D01*
X107442000Y-114173000D02*
X108077000Y-113538000D01*
X95377000Y-113411000D02*
X97396311Y-111391689D01*
D24*
X105500000Y-91500000D02*
X105500000Y-93100000D01*
D26*
X108077000Y-113538000D02*
X108077000Y-106114860D01*
D24*
%TO.N,/Power MOSFETS/Q5-s_Q6-d*%
X92583000Y-88011000D02*
X92583000Y-97917000D01*
X91440000Y-86868000D02*
X92583000Y-88011000D01*
X92583000Y-97917000D02*
X94107000Y-99441000D01*
X104100001Y-103600267D02*
X104500000Y-104000266D01*
X94107000Y-99441000D02*
X99940734Y-99441000D01*
X99940734Y-99441000D02*
X104100001Y-103600267D01*
D26*
%TO.N,/TX_SDA*%
X100711000Y-129540000D02*
X104545328Y-129540000D01*
X103378000Y-132207000D02*
X103632000Y-132207000D01*
X101224779Y-127756221D02*
X100711000Y-128270000D01*
X102089001Y-127756221D02*
X101224779Y-127756221D01*
X104545328Y-129540000D02*
X112471189Y-121614139D01*
X112471189Y-110924593D02*
X113380762Y-110015020D01*
X100711000Y-129032000D02*
X100711000Y-129540000D01*
X113380762Y-110015020D02*
X114300000Y-110015020D01*
X112471189Y-121614139D02*
X112471189Y-110924593D01*
X102489000Y-128156220D02*
X102089001Y-127756221D01*
X100711000Y-128270000D02*
X100711000Y-129032000D01*
X100711000Y-129540000D02*
X103378000Y-132207000D01*
%TO.N,/SCK_ADC_EXT*%
X113256431Y-122074569D02*
X113256431Y-113060109D01*
X113256431Y-113060109D02*
X114300000Y-112016540D01*
X105587811Y-129743189D02*
X113256431Y-122074569D01*
X104775000Y-132588000D02*
X105587811Y-131775189D01*
X105587811Y-131775189D02*
X105587811Y-129743189D01*
%TO.N,/MISO_RX_SCL*%
X115316000Y-107030520D02*
X115316000Y-110412126D01*
X115316000Y-110412126D02*
X114730126Y-110998000D01*
X113905434Y-110998000D02*
X112903000Y-112000434D01*
X112903000Y-112000434D02*
X112903000Y-121793000D01*
X103905003Y-131464011D02*
X103777991Y-131336999D01*
X114300000Y-106014520D02*
X115316000Y-107030520D01*
X114730126Y-110998000D02*
X113905434Y-110998000D01*
X103777991Y-131336999D02*
X103377992Y-130937000D01*
X105156000Y-130867685D02*
X104559674Y-131464011D01*
X104559674Y-131464011D02*
X103905003Y-131464011D01*
X105156000Y-129540000D02*
X105156000Y-130867685D01*
X112903000Y-121793000D02*
X105156000Y-129540000D01*
%TO.N,/RX_SCL_MOSI*%
X112014000Y-110299500D02*
X113650001Y-108663499D01*
X101473000Y-128578582D02*
X101872999Y-128978581D01*
X104496075Y-128978581D02*
X112014000Y-121460656D01*
X101872999Y-128978581D02*
X104496075Y-128978581D01*
X113650001Y-108663499D02*
X114300000Y-108013500D01*
X112014000Y-121460656D02*
X112014000Y-110299500D01*
D24*
%TO.N,/Power MOSFETS/Q6-s*%
X93535500Y-100520500D02*
X98399825Y-100520500D01*
X91440000Y-98425000D02*
X93535500Y-100520500D01*
X98399825Y-100520500D02*
X104725668Y-106846343D01*
X104725668Y-106846343D02*
X105291353Y-106846343D01*
X91440000Y-91313000D02*
X91440000Y-98425000D01*
%TD*%
%TA.AperFunction,Conductor*%
%TO.N,/Power MOSFETS/Q5-s_Q6-d*%
G36*
X88334121Y-80220502D02*
G01*
X88380614Y-80274158D01*
X88392000Y-80326500D01*
X88392000Y-85725000D01*
X89661880Y-85725000D01*
X89730001Y-85745002D01*
X89776494Y-85798658D01*
X89786598Y-85868932D01*
X89757104Y-85933512D01*
X89750975Y-85940095D01*
X88802784Y-86888286D01*
X88749535Y-86941534D01*
X88696287Y-86994782D01*
X88696283Y-86994787D01*
X88620983Y-87125211D01*
X88620980Y-87125218D01*
X88582000Y-87270696D01*
X88582000Y-99374000D01*
X88561998Y-99442121D01*
X88508342Y-99488614D01*
X88456000Y-99500000D01*
X78626000Y-99500000D01*
X78557879Y-99479998D01*
X78511386Y-99426342D01*
X78500000Y-99374000D01*
X78500000Y-97431152D01*
X81801000Y-97431152D01*
X81801000Y-97568847D01*
X81812806Y-97628198D01*
X81827862Y-97703891D01*
X81880554Y-97831101D01*
X81919561Y-97889479D01*
X81957050Y-97945585D01*
X81957055Y-97945591D01*
X82054408Y-98042944D01*
X82054414Y-98042949D01*
X82168899Y-98119446D01*
X82296109Y-98172138D01*
X82431155Y-98199000D01*
X82431156Y-98199000D01*
X82568844Y-98199000D01*
X82568845Y-98199000D01*
X82703891Y-98172138D01*
X82831101Y-98119446D01*
X82945586Y-98042949D01*
X83042949Y-97945586D01*
X83119446Y-97831101D01*
X83172138Y-97703891D01*
X83199000Y-97568845D01*
X83199000Y-97431155D01*
X83198999Y-97431152D01*
X84201000Y-97431152D01*
X84201000Y-97568847D01*
X84212806Y-97628198D01*
X84227862Y-97703891D01*
X84280554Y-97831101D01*
X84319561Y-97889479D01*
X84357050Y-97945585D01*
X84357055Y-97945591D01*
X84454408Y-98042944D01*
X84454414Y-98042949D01*
X84568899Y-98119446D01*
X84696109Y-98172138D01*
X84831155Y-98199000D01*
X84831156Y-98199000D01*
X84968844Y-98199000D01*
X84968845Y-98199000D01*
X85103891Y-98172138D01*
X85231101Y-98119446D01*
X85345586Y-98042949D01*
X85442949Y-97945586D01*
X85519446Y-97831101D01*
X85572138Y-97703891D01*
X85599000Y-97568845D01*
X85599000Y-97431155D01*
X85598999Y-97431152D01*
X86601000Y-97431152D01*
X86601000Y-97568847D01*
X86612806Y-97628198D01*
X86627862Y-97703891D01*
X86680554Y-97831101D01*
X86719561Y-97889479D01*
X86757050Y-97945585D01*
X86757055Y-97945591D01*
X86854408Y-98042944D01*
X86854414Y-98042949D01*
X86968899Y-98119446D01*
X87096109Y-98172138D01*
X87231155Y-98199000D01*
X87231156Y-98199000D01*
X87368844Y-98199000D01*
X87368845Y-98199000D01*
X87503891Y-98172138D01*
X87631101Y-98119446D01*
X87745586Y-98042949D01*
X87842949Y-97945586D01*
X87919446Y-97831101D01*
X87972138Y-97703891D01*
X87999000Y-97568845D01*
X87999000Y-97431155D01*
X87972138Y-97296109D01*
X87919446Y-97168899D01*
X87842949Y-97054414D01*
X87842944Y-97054408D01*
X87745591Y-96957055D01*
X87745585Y-96957050D01*
X87707597Y-96931667D01*
X87631101Y-96880554D01*
X87503891Y-96827862D01*
X87368847Y-96801000D01*
X87368845Y-96801000D01*
X87231155Y-96801000D01*
X87231152Y-96801000D01*
X87096108Y-96827862D01*
X87096103Y-96827864D01*
X86968899Y-96880554D01*
X86854414Y-96957050D01*
X86854408Y-96957055D01*
X86757055Y-97054408D01*
X86757050Y-97054414D01*
X86680554Y-97168899D01*
X86627864Y-97296103D01*
X86627862Y-97296108D01*
X86601000Y-97431152D01*
X85598999Y-97431152D01*
X85572138Y-97296109D01*
X85519446Y-97168899D01*
X85442949Y-97054414D01*
X85442944Y-97054408D01*
X85345591Y-96957055D01*
X85345585Y-96957050D01*
X85307597Y-96931667D01*
X85231101Y-96880554D01*
X85103891Y-96827862D01*
X84968847Y-96801000D01*
X84968845Y-96801000D01*
X84831155Y-96801000D01*
X84831152Y-96801000D01*
X84696108Y-96827862D01*
X84696103Y-96827864D01*
X84568899Y-96880554D01*
X84454414Y-96957050D01*
X84454408Y-96957055D01*
X84357055Y-97054408D01*
X84357050Y-97054414D01*
X84280554Y-97168899D01*
X84227864Y-97296103D01*
X84227862Y-97296108D01*
X84201000Y-97431152D01*
X83198999Y-97431152D01*
X83172138Y-97296109D01*
X83119446Y-97168899D01*
X83042949Y-97054414D01*
X83042944Y-97054408D01*
X82945591Y-96957055D01*
X82945585Y-96957050D01*
X82907597Y-96931667D01*
X82831101Y-96880554D01*
X82703891Y-96827862D01*
X82568847Y-96801000D01*
X82568845Y-96801000D01*
X82431155Y-96801000D01*
X82431152Y-96801000D01*
X82296108Y-96827862D01*
X82296103Y-96827864D01*
X82168899Y-96880554D01*
X82054414Y-96957050D01*
X82054408Y-96957055D01*
X81957055Y-97054408D01*
X81957050Y-97054414D01*
X81880554Y-97168899D01*
X81827864Y-97296103D01*
X81827862Y-97296108D01*
X81801000Y-97431152D01*
X78500000Y-97431152D01*
X78500000Y-80326500D01*
X78520002Y-80258379D01*
X78573658Y-80211886D01*
X78626000Y-80200500D01*
X88266000Y-80200500D01*
X88334121Y-80220502D01*
G37*
%TD.AperFunction*%
%TA.AperFunction,Conductor*%
G36*
X91254476Y-86302002D02*
G01*
X91300969Y-86355658D01*
X91312355Y-86408119D01*
X91309574Y-89354700D01*
X91289508Y-89422802D01*
X91235808Y-89469244D01*
X91208156Y-89478160D01*
X91109108Y-89497862D01*
X91109103Y-89497864D01*
X90981896Y-89550555D01*
X90942671Y-89576765D01*
X90874918Y-89597980D01*
X90872669Y-89598000D01*
X90609078Y-89598000D01*
X90531118Y-89618889D01*
X90463601Y-89636980D01*
X90463594Y-89636983D01*
X90414203Y-89665500D01*
X90333170Y-89712283D01*
X90333160Y-89712291D01*
X89941095Y-90104357D01*
X89878783Y-90138383D01*
X89807968Y-90133318D01*
X89751132Y-90090771D01*
X89726321Y-90024251D01*
X89726000Y-90015262D01*
X89726000Y-87635120D01*
X89746002Y-87566999D01*
X89762905Y-87546025D01*
X90990025Y-86318905D01*
X91017393Y-86303960D01*
X91043622Y-86287104D01*
X91049920Y-86286198D01*
X91052337Y-86284879D01*
X91079120Y-86282000D01*
X91186355Y-86282000D01*
X91254476Y-86302002D01*
G37*
%TD.AperFunction*%
%TD*%
%TA.AperFunction,Conductor*%
%TO.N,/Power MOSFETS/Q3-s_Q4-d*%
G36*
X104209121Y-86302002D02*
G01*
X104255614Y-86355658D01*
X104267000Y-86408000D01*
X104267000Y-90905821D01*
X104246998Y-90973942D01*
X104193342Y-91020435D01*
X104189219Y-91022229D01*
X104062903Y-91074551D01*
X104062899Y-91074553D01*
X103948414Y-91151050D01*
X103948408Y-91151055D01*
X103851055Y-91248408D01*
X103851050Y-91248414D01*
X103774554Y-91362899D01*
X103721864Y-91490103D01*
X103721862Y-91490108D01*
X103695000Y-91625152D01*
X103695000Y-91762847D01*
X103721862Y-91897891D01*
X103721864Y-91897896D01*
X103774553Y-92025100D01*
X103806765Y-92073307D01*
X103827980Y-92141060D01*
X103828000Y-92143310D01*
X103828000Y-93475305D01*
X103856535Y-93581800D01*
X103866980Y-93620781D01*
X103866983Y-93620788D01*
X103942283Y-93751212D01*
X103942285Y-93751214D01*
X103942286Y-93751216D01*
X104230096Y-94039026D01*
X104264120Y-94101337D01*
X104267000Y-94128120D01*
X104267000Y-96267000D01*
X104246998Y-96335121D01*
X104193342Y-96381614D01*
X104141000Y-96393000D01*
X98932999Y-96393000D01*
X98321124Y-96899378D01*
X98255892Y-96927400D01*
X98185865Y-96915706D01*
X98170789Y-96907073D01*
X98131101Y-96880554D01*
X98003891Y-96827862D01*
X97868847Y-96801000D01*
X97868845Y-96801000D01*
X97731155Y-96801000D01*
X97731152Y-96801000D01*
X97596108Y-96827862D01*
X97596103Y-96827864D01*
X97468899Y-96880554D01*
X97354414Y-96957050D01*
X97354408Y-96957055D01*
X97257055Y-97054408D01*
X97257050Y-97054414D01*
X97180554Y-97168899D01*
X97127864Y-97296103D01*
X97127862Y-97296108D01*
X97101000Y-97431152D01*
X97101000Y-97568847D01*
X97127862Y-97703891D01*
X97127864Y-97703896D01*
X97148709Y-97754220D01*
X97156298Y-97824809D01*
X97124519Y-97888296D01*
X97112634Y-97899508D01*
X95976124Y-98840070D01*
X95910891Y-98868092D01*
X95895790Y-98869000D01*
X94396120Y-98869000D01*
X94327999Y-98848998D01*
X94307025Y-98832095D01*
X93191905Y-97716975D01*
X93176960Y-97689606D01*
X93160104Y-97663378D01*
X93159198Y-97657079D01*
X93157879Y-97654663D01*
X93155000Y-97627880D01*
X93155000Y-97431152D01*
X94701000Y-97431152D01*
X94701000Y-97568847D01*
X94723124Y-97680070D01*
X94727862Y-97703891D01*
X94780554Y-97831101D01*
X94827034Y-97900663D01*
X94857050Y-97945585D01*
X94857055Y-97945591D01*
X94954408Y-98042944D01*
X94954414Y-98042949D01*
X95068899Y-98119446D01*
X95196109Y-98172138D01*
X95331155Y-98199000D01*
X95331156Y-98199000D01*
X95468844Y-98199000D01*
X95468845Y-98199000D01*
X95603891Y-98172138D01*
X95731101Y-98119446D01*
X95845586Y-98042949D01*
X95942949Y-97945586D01*
X96019446Y-97831101D01*
X96072138Y-97703891D01*
X96099000Y-97568845D01*
X96099000Y-97431155D01*
X96072138Y-97296109D01*
X96019446Y-97168899D01*
X95942949Y-97054414D01*
X95942944Y-97054408D01*
X95845591Y-96957055D01*
X95845585Y-96957050D01*
X95770789Y-96907073D01*
X95731101Y-96880554D01*
X95603891Y-96827862D01*
X95468847Y-96801000D01*
X95468845Y-96801000D01*
X95331155Y-96801000D01*
X95331152Y-96801000D01*
X95196108Y-96827862D01*
X95196103Y-96827864D01*
X95068899Y-96880554D01*
X94954414Y-96957050D01*
X94954408Y-96957055D01*
X94857055Y-97054408D01*
X94857050Y-97054414D01*
X94780554Y-97168899D01*
X94727864Y-97296103D01*
X94727862Y-97296108D01*
X94701000Y-97431152D01*
X93155000Y-97431152D01*
X93155000Y-87935696D01*
X93155000Y-87935695D01*
X93116019Y-87790216D01*
X93040714Y-87659784D01*
X92934216Y-87553286D01*
X92155825Y-86774895D01*
X92121799Y-86712583D01*
X92121364Y-86710495D01*
X92112138Y-86664109D01*
X92059446Y-86536899D01*
X92020092Y-86478002D01*
X91998877Y-86410249D01*
X92017660Y-86341782D01*
X92070477Y-86294339D01*
X92124857Y-86282000D01*
X104141000Y-86282000D01*
X104209121Y-86302002D01*
G37*
%TD.AperFunction*%
%TA.AperFunction,Conductor*%
G36*
X100526121Y-80220502D02*
G01*
X100572614Y-80274158D01*
X100584000Y-80326500D01*
X100584000Y-85012000D01*
X100563998Y-85080121D01*
X100510342Y-85126614D01*
X100458000Y-85138000D01*
X94995000Y-85138000D01*
X94926879Y-85117998D01*
X94880386Y-85064342D01*
X94869000Y-85012000D01*
X94869000Y-80326500D01*
X94889002Y-80258379D01*
X94942658Y-80211886D01*
X94995000Y-80200500D01*
X100458000Y-80200500D01*
X100526121Y-80220502D01*
G37*
%TD.AperFunction*%
%TD*%
%TA.AperFunction,Conductor*%
%TO.N,/Power MOSFETS/Q1-s_Q2-d*%
G36*
X116942121Y-80220502D02*
G01*
X116988614Y-80274158D01*
X117000000Y-80326500D01*
X117000000Y-98913953D01*
X116979998Y-98982074D01*
X116926342Y-99028567D01*
X116856068Y-99038671D01*
X116791488Y-99009177D01*
X116757592Y-98962173D01*
X116753718Y-98952822D01*
X116753718Y-98952821D01*
X116723757Y-98907981D01*
X116670272Y-98827935D01*
X116564065Y-98721728D01*
X116439179Y-98638282D01*
X116300414Y-98580803D01*
X116153103Y-98551500D01*
X116153100Y-98551500D01*
X116002900Y-98551500D01*
X116002896Y-98551500D01*
X115855585Y-98580803D01*
X115855584Y-98580804D01*
X115716819Y-98638283D01*
X115591939Y-98721725D01*
X115587156Y-98725651D01*
X115585598Y-98723753D01*
X115532783Y-98752594D01*
X115461968Y-98747529D01*
X115405132Y-98704982D01*
X115380321Y-98638462D01*
X115380000Y-98629473D01*
X115380000Y-82355330D01*
X115400002Y-82287209D01*
X115401236Y-82285327D01*
X115427444Y-82246104D01*
X115427444Y-82246103D01*
X115427446Y-82246101D01*
X115480138Y-82118891D01*
X115507000Y-81983845D01*
X115507000Y-81846155D01*
X115480138Y-81711109D01*
X115427446Y-81583899D01*
X115350949Y-81469414D01*
X115350944Y-81469408D01*
X115253591Y-81372055D01*
X115253585Y-81372050D01*
X115215597Y-81346667D01*
X115139101Y-81295554D01*
X115011891Y-81242862D01*
X114876847Y-81216000D01*
X114876845Y-81216000D01*
X114739155Y-81216000D01*
X114739152Y-81216000D01*
X114604108Y-81242862D01*
X114604103Y-81242864D01*
X114476899Y-81295554D01*
X114362414Y-81372050D01*
X114362408Y-81372055D01*
X114265055Y-81469408D01*
X114265050Y-81469414D01*
X114188554Y-81583899D01*
X114135864Y-81711103D01*
X114135862Y-81711108D01*
X114109000Y-81846152D01*
X114109000Y-81983847D01*
X114135862Y-82118891D01*
X114135864Y-82118896D01*
X114188555Y-82246104D01*
X114214764Y-82285327D01*
X114235980Y-82353079D01*
X114236000Y-82355330D01*
X114236000Y-98411236D01*
X114215998Y-98479357D01*
X114199095Y-98500332D01*
X113624181Y-99075245D01*
X113561869Y-99109270D01*
X113491053Y-99104205D01*
X113444192Y-99073409D01*
X112805154Y-98407744D01*
X112772409Y-98344751D01*
X112778917Y-98274054D01*
X112822615Y-98218098D01*
X112889628Y-98194650D01*
X112920632Y-98196907D01*
X112923195Y-98197416D01*
X112931155Y-98199000D01*
X112931156Y-98199000D01*
X113068844Y-98199000D01*
X113068845Y-98199000D01*
X113203891Y-98172138D01*
X113331101Y-98119446D01*
X113445586Y-98042949D01*
X113542949Y-97945586D01*
X113619446Y-97831101D01*
X113672138Y-97703891D01*
X113699000Y-97568845D01*
X113699000Y-97431155D01*
X113672138Y-97296109D01*
X113619446Y-97168899D01*
X113542949Y-97054414D01*
X113542944Y-97054408D01*
X113445591Y-96957055D01*
X113445585Y-96957050D01*
X113407597Y-96931667D01*
X113331101Y-96880554D01*
X113203891Y-96827862D01*
X113068847Y-96801000D01*
X113068845Y-96801000D01*
X112931155Y-96801000D01*
X112931152Y-96801000D01*
X112796108Y-96827862D01*
X112796103Y-96827864D01*
X112668899Y-96880554D01*
X112554414Y-96957050D01*
X112554408Y-96957055D01*
X112457055Y-97054408D01*
X112457050Y-97054414D01*
X112380554Y-97168899D01*
X112327864Y-97296103D01*
X112327862Y-97296108D01*
X112301000Y-97431152D01*
X112301000Y-97569391D01*
X112280998Y-97637512D01*
X112227342Y-97684005D01*
X112157068Y-97694109D01*
X112092488Y-97664615D01*
X112084105Y-97656650D01*
X110871000Y-96393000D01*
X107798000Y-96393000D01*
X107729879Y-96372998D01*
X107683386Y-96319342D01*
X107672000Y-96267000D01*
X107672000Y-94624696D01*
X107672000Y-94624695D01*
X107633019Y-94479216D01*
X107557714Y-94348784D01*
X107451216Y-94242286D01*
X106108905Y-92899975D01*
X106074879Y-92837663D01*
X106072000Y-92810880D01*
X106072000Y-91424695D01*
X106061157Y-91384230D01*
X106033019Y-91279216D01*
X105957714Y-91148784D01*
X105711087Y-90902157D01*
X105703706Y-90894105D01*
X105696600Y-90885643D01*
X105657714Y-90818291D01*
X105551216Y-90711793D01*
X105134909Y-90295486D01*
X105134907Y-90295485D01*
X105134905Y-90295483D01*
X105077125Y-90262124D01*
X105051030Y-90242100D01*
X104684905Y-89875975D01*
X104650879Y-89813663D01*
X104648000Y-89786880D01*
X104648000Y-85851000D01*
X104668002Y-85782879D01*
X104721658Y-85736386D01*
X104774000Y-85725000D01*
X106680000Y-85725000D01*
X106680000Y-80326500D01*
X106700002Y-80258379D01*
X106753658Y-80211886D01*
X106806000Y-80200500D01*
X116874000Y-80200500D01*
X116942121Y-80220502D01*
G37*
%TD.AperFunction*%
%TD*%
%TA.AperFunction,Conductor*%
%TO.N,GND*%
G36*
X95700121Y-102827002D02*
G01*
X95746614Y-102880658D01*
X95758000Y-102933000D01*
X95758000Y-106744000D01*
X95737998Y-106812121D01*
X95684342Y-106858614D01*
X95632000Y-106870000D01*
X92836000Y-106870000D01*
X92767879Y-106849998D01*
X92721386Y-106796342D01*
X92710000Y-106744000D01*
X92710000Y-102933000D01*
X92730002Y-102864879D01*
X92783658Y-102818386D01*
X92836000Y-102807000D01*
X95632000Y-102807000D01*
X95700121Y-102827002D01*
G37*
%TD.AperFunction*%
%TD*%
%TA.AperFunction,Conductor*%
%TO.N,GND*%
G36*
X116941857Y-110020147D02*
G01*
X116988483Y-110073687D01*
X117000000Y-110126314D01*
X117000000Y-138874000D01*
X116979998Y-138942121D01*
X116926342Y-138988614D01*
X116874000Y-139000000D01*
X77026500Y-139000000D01*
X76958379Y-138979998D01*
X76911886Y-138926342D01*
X76900500Y-138874000D01*
X76900500Y-137285365D01*
X81209022Y-137285365D01*
X81242771Y-137457300D01*
X81242798Y-137457366D01*
X81243289Y-137459951D01*
X81243252Y-137460326D01*
X81245500Y-137483453D01*
X81245500Y-137975063D01*
X81245501Y-137975073D01*
X81260265Y-138049300D01*
X81316516Y-138133484D01*
X81400697Y-138189733D01*
X81400699Y-138189734D01*
X81474933Y-138204500D01*
X82725066Y-138204499D01*
X82725069Y-138204498D01*
X82725073Y-138204498D01*
X82774326Y-138194701D01*
X82799301Y-138189734D01*
X82883484Y-138133484D01*
X82939734Y-138049301D01*
X82954500Y-137975067D01*
X82954499Y-137468723D01*
X82956983Y-137443831D01*
X82957535Y-137441094D01*
X82988016Y-137289851D01*
X82988833Y-136965836D01*
X83245500Y-136965836D01*
X83245500Y-137434163D01*
X83278338Y-137599249D01*
X83278340Y-137599254D01*
X83298823Y-137648704D01*
X83342752Y-137754758D01*
X83436266Y-137894712D01*
X83555288Y-138013734D01*
X83695242Y-138107248D01*
X83850751Y-138171662D01*
X84015839Y-138204500D01*
X84015840Y-138204500D01*
X84184160Y-138204500D01*
X84184161Y-138204500D01*
X84349249Y-138171662D01*
X84504758Y-138107248D01*
X84644712Y-138013734D01*
X84763734Y-137894712D01*
X84857248Y-137754758D01*
X84921662Y-137599249D01*
X84954500Y-137434161D01*
X84954500Y-136965839D01*
X84954499Y-136965836D01*
X85245500Y-136965836D01*
X85245500Y-137434163D01*
X85278338Y-137599249D01*
X85278340Y-137599254D01*
X85298823Y-137648704D01*
X85342752Y-137754758D01*
X85436266Y-137894712D01*
X85555288Y-138013734D01*
X85695242Y-138107248D01*
X85850751Y-138171662D01*
X86015839Y-138204500D01*
X86015840Y-138204500D01*
X86184160Y-138204500D01*
X86184161Y-138204500D01*
X86349249Y-138171662D01*
X86504758Y-138107248D01*
X86644712Y-138013734D01*
X86763734Y-137894712D01*
X86857248Y-137754758D01*
X86921662Y-137599249D01*
X86954500Y-137434161D01*
X86954500Y-136965839D01*
X86954499Y-136965836D01*
X87245500Y-136965836D01*
X87245500Y-137434163D01*
X87278338Y-137599249D01*
X87278340Y-137599254D01*
X87298823Y-137648704D01*
X87342752Y-137754758D01*
X87436266Y-137894712D01*
X87555288Y-138013734D01*
X87695242Y-138107248D01*
X87850751Y-138171662D01*
X88015839Y-138204500D01*
X88015840Y-138204500D01*
X88184160Y-138204500D01*
X88184161Y-138204500D01*
X88349249Y-138171662D01*
X88504758Y-138107248D01*
X88644712Y-138013734D01*
X88763734Y-137894712D01*
X88857248Y-137754758D01*
X88921662Y-137599249D01*
X88954500Y-137434161D01*
X88954500Y-136965839D01*
X88954499Y-136965836D01*
X89245500Y-136965836D01*
X89245500Y-137434163D01*
X89278338Y-137599249D01*
X89278340Y-137599254D01*
X89298823Y-137648704D01*
X89342752Y-137754758D01*
X89436266Y-137894712D01*
X89555288Y-138013734D01*
X89695242Y-138107248D01*
X89850751Y-138171662D01*
X90015839Y-138204500D01*
X90015840Y-138204500D01*
X90184160Y-138204500D01*
X90184161Y-138204500D01*
X90349249Y-138171662D01*
X90504758Y-138107248D01*
X90644712Y-138013734D01*
X90763734Y-137894712D01*
X90857248Y-137754758D01*
X90921662Y-137599249D01*
X90954500Y-137434161D01*
X90954500Y-136970888D01*
X91296800Y-136970888D01*
X91296800Y-137041250D01*
X91729774Y-137041250D01*
X91727259Y-137045606D01*
X91700000Y-137147339D01*
X91700000Y-137252661D01*
X91727259Y-137354394D01*
X91729774Y-137358750D01*
X91296800Y-137358750D01*
X91296800Y-137429111D01*
X91327667Y-137584285D01*
X91327668Y-137584288D01*
X91388214Y-137730458D01*
X91476111Y-137862005D01*
X91476116Y-137862012D01*
X91587987Y-137973883D01*
X91587994Y-137973888D01*
X91719541Y-138061785D01*
X91865711Y-138122331D01*
X91865714Y-138122332D01*
X91941250Y-138137357D01*
X91941250Y-137570226D01*
X91945606Y-137572741D01*
X92047339Y-137600000D01*
X92152661Y-137600000D01*
X92254394Y-137572741D01*
X92258750Y-137570226D01*
X92258750Y-138137356D01*
X92334285Y-138122332D01*
X92334288Y-138122331D01*
X92480458Y-138061785D01*
X92612005Y-137973888D01*
X92612012Y-137973883D01*
X92723883Y-137862012D01*
X92723888Y-137862005D01*
X92811785Y-137730458D01*
X92834642Y-137675278D01*
X92879190Y-137619997D01*
X92946553Y-137597576D01*
X93015345Y-137615134D01*
X93063723Y-137667096D01*
X93075096Y-137728547D01*
X93076554Y-137728547D01*
X93076554Y-137863665D01*
X93093186Y-137947277D01*
X93101706Y-137990111D01*
X93151043Y-138109222D01*
X93195996Y-138176499D01*
X93222670Y-138216419D01*
X93222675Y-138216425D01*
X93313828Y-138307578D01*
X93313834Y-138307583D01*
X93421032Y-138379211D01*
X93540143Y-138428548D01*
X93666591Y-138453700D01*
X93666592Y-138453700D01*
X93795516Y-138453700D01*
X93795517Y-138453700D01*
X93921965Y-138428548D01*
X94041076Y-138379211D01*
X94148274Y-138307583D01*
X94239437Y-138216420D01*
X94311065Y-138109222D01*
X94360402Y-137990111D01*
X94385554Y-137863663D01*
X94385554Y-137734737D01*
X94360402Y-137608289D01*
X94311065Y-137489178D01*
X94239437Y-137381980D01*
X94239432Y-137381974D01*
X94160258Y-137302800D01*
X95001736Y-137302800D01*
X95001736Y-137431731D01*
X95018081Y-137513903D01*
X95026888Y-137558177D01*
X95076225Y-137677288D01*
X95114610Y-137734734D01*
X95147852Y-137784485D01*
X95147857Y-137784491D01*
X95239010Y-137875644D01*
X95239016Y-137875649D01*
X95346214Y-137947277D01*
X95465325Y-137996614D01*
X95591773Y-138021766D01*
X95591774Y-138021766D01*
X95720698Y-138021766D01*
X95720699Y-138021766D01*
X95847147Y-137996614D01*
X95966258Y-137947277D01*
X96073456Y-137875649D01*
X96164619Y-137784486D01*
X96236247Y-137677288D01*
X96285584Y-137558177D01*
X96310736Y-137431729D01*
X96310736Y-137302803D01*
X96285584Y-137176355D01*
X96236247Y-137057244D01*
X96164619Y-136950046D01*
X96164614Y-136950040D01*
X96073461Y-136858887D01*
X96073455Y-136858882D01*
X96009912Y-136816424D01*
X95966258Y-136787255D01*
X95847147Y-136737918D01*
X95720701Y-136712766D01*
X95720699Y-136712766D01*
X95591773Y-136712766D01*
X95591770Y-136712766D01*
X95465324Y-136737918D01*
X95465319Y-136737920D01*
X95346214Y-136787255D01*
X95239016Y-136858882D01*
X95239010Y-136858887D01*
X95147857Y-136950040D01*
X95147852Y-136950046D01*
X95076225Y-137057244D01*
X95026890Y-137176349D01*
X95026888Y-137176354D01*
X95001736Y-137302800D01*
X94160258Y-137302800D01*
X94148279Y-137290821D01*
X94148273Y-137290816D01*
X94112703Y-137267049D01*
X94041076Y-137219189D01*
X93921965Y-137169852D01*
X93795519Y-137144700D01*
X93795517Y-137144700D01*
X93666591Y-137144700D01*
X93666588Y-137144700D01*
X93540142Y-137169852D01*
X93540137Y-137169854D01*
X93421032Y-137219189D01*
X93313834Y-137290816D01*
X93313828Y-137290821D01*
X93222675Y-137381974D01*
X93222670Y-137381980D01*
X93151043Y-137489177D01*
X93140801Y-137513903D01*
X93096251Y-137569183D01*
X93028887Y-137591602D01*
X92960096Y-137574042D01*
X92911719Y-137522079D01*
X92899115Y-137452210D01*
X92900815Y-137441094D01*
X92903200Y-137429107D01*
X92903200Y-137358750D01*
X92470226Y-137358750D01*
X92472741Y-137354394D01*
X92500000Y-137252661D01*
X92500000Y-137147339D01*
X92472741Y-137045606D01*
X92470226Y-137041250D01*
X92903200Y-137041250D01*
X92903200Y-136970891D01*
X92903199Y-136970888D01*
X92872332Y-136815714D01*
X92872331Y-136815711D01*
X92811785Y-136669541D01*
X92723888Y-136537994D01*
X92723883Y-136537987D01*
X92612012Y-136426116D01*
X92612005Y-136426111D01*
X92480458Y-136338214D01*
X92334284Y-136277667D01*
X92258750Y-136262641D01*
X92258750Y-136829773D01*
X92254394Y-136827259D01*
X92152661Y-136800000D01*
X92047339Y-136800000D01*
X91945606Y-136827259D01*
X91941250Y-136829773D01*
X91941250Y-136262641D01*
X91865715Y-136277667D01*
X91719541Y-136338214D01*
X91587994Y-136426111D01*
X91587987Y-136426116D01*
X91476116Y-136537987D01*
X91476111Y-136537994D01*
X91388214Y-136669541D01*
X91327668Y-136815711D01*
X91327667Y-136815714D01*
X91296800Y-136970888D01*
X90954500Y-136970888D01*
X90954500Y-136965839D01*
X90921662Y-136800751D01*
X90857248Y-136645242D01*
X90763734Y-136505288D01*
X90644712Y-136386266D01*
X90504758Y-136292752D01*
X90349249Y-136228338D01*
X90184163Y-136195500D01*
X90184161Y-136195500D01*
X90015839Y-136195500D01*
X90015836Y-136195500D01*
X89850750Y-136228338D01*
X89850745Y-136228340D01*
X89695241Y-136292752D01*
X89555292Y-136386263D01*
X89555285Y-136386268D01*
X89436268Y-136505285D01*
X89436263Y-136505292D01*
X89342752Y-136645241D01*
X89278340Y-136800745D01*
X89278338Y-136800750D01*
X89245500Y-136965836D01*
X88954499Y-136965836D01*
X88921662Y-136800751D01*
X88857248Y-136645242D01*
X88763734Y-136505288D01*
X88644712Y-136386266D01*
X88504758Y-136292752D01*
X88349249Y-136228338D01*
X88184163Y-136195500D01*
X88184161Y-136195500D01*
X88015839Y-136195500D01*
X88015836Y-136195500D01*
X87850750Y-136228338D01*
X87850745Y-136228340D01*
X87695241Y-136292752D01*
X87555292Y-136386263D01*
X87555285Y-136386268D01*
X87436268Y-136505285D01*
X87436263Y-136505292D01*
X87342752Y-136645241D01*
X87278340Y-136800745D01*
X87278338Y-136800750D01*
X87245500Y-136965836D01*
X86954499Y-136965836D01*
X86921662Y-136800751D01*
X86857248Y-136645242D01*
X86763734Y-136505288D01*
X86644712Y-136386266D01*
X86504758Y-136292752D01*
X86349249Y-136228338D01*
X86184163Y-136195500D01*
X86184161Y-136195500D01*
X86015839Y-136195500D01*
X86015836Y-136195500D01*
X85850750Y-136228338D01*
X85850745Y-136228340D01*
X85695241Y-136292752D01*
X85555292Y-136386263D01*
X85555285Y-136386268D01*
X85436268Y-136505285D01*
X85436263Y-136505292D01*
X85342752Y-136645241D01*
X85278340Y-136800745D01*
X85278338Y-136800750D01*
X85245500Y-136965836D01*
X84954499Y-136965836D01*
X84921662Y-136800751D01*
X84857248Y-136645242D01*
X84763734Y-136505288D01*
X84644712Y-136386266D01*
X84504758Y-136292752D01*
X84349249Y-136228338D01*
X84184163Y-136195500D01*
X84184161Y-136195500D01*
X84015839Y-136195500D01*
X84015836Y-136195500D01*
X83850750Y-136228338D01*
X83850745Y-136228340D01*
X83695241Y-136292752D01*
X83555292Y-136386263D01*
X83555285Y-136386268D01*
X83436268Y-136505285D01*
X83436263Y-136505292D01*
X83342752Y-136645241D01*
X83278340Y-136800745D01*
X83278338Y-136800750D01*
X83245500Y-136965836D01*
X82988833Y-136965836D01*
X82992782Y-135399416D01*
X82993022Y-135394700D01*
X82993022Y-135304610D01*
X82993083Y-135280451D01*
X82993240Y-135218157D01*
X82993238Y-135218149D01*
X82993098Y-135216679D01*
X82993098Y-135216675D01*
X82993027Y-135215942D01*
X82993022Y-135215916D01*
X82993022Y-135215914D01*
X82990661Y-135204044D01*
X82988240Y-135179462D01*
X82988240Y-132535534D01*
X84245500Y-132535534D01*
X84245500Y-132664465D01*
X84266490Y-132769989D01*
X84270652Y-132790911D01*
X84319989Y-132910022D01*
X84344254Y-132946337D01*
X84391616Y-133017219D01*
X84391621Y-133017225D01*
X84482774Y-133108378D01*
X84482780Y-133108383D01*
X84589978Y-133180011D01*
X84709089Y-133229348D01*
X84835537Y-133254500D01*
X84835538Y-133254500D01*
X84964462Y-133254500D01*
X84964463Y-133254500D01*
X85090911Y-133229348D01*
X85210022Y-133180011D01*
X85317220Y-133108383D01*
X85408383Y-133017220D01*
X85480011Y-132910022D01*
X85529348Y-132790911D01*
X85554500Y-132664463D01*
X85554500Y-132535537D01*
X85529348Y-132409089D01*
X85480011Y-132289978D01*
X85408383Y-132182780D01*
X85408378Y-132182774D01*
X85317225Y-132091621D01*
X85317219Y-132091616D01*
X85256060Y-132050751D01*
X85210022Y-132019989D01*
X85090911Y-131970652D01*
X84964465Y-131945500D01*
X84964463Y-131945500D01*
X84835537Y-131945500D01*
X84835534Y-131945500D01*
X84709088Y-131970652D01*
X84709083Y-131970654D01*
X84589978Y-132019989D01*
X84482780Y-132091616D01*
X84482774Y-132091621D01*
X84391621Y-132182774D01*
X84391616Y-132182780D01*
X84319989Y-132289978D01*
X84270654Y-132409083D01*
X84270652Y-132409088D01*
X84245500Y-132535534D01*
X82988240Y-132535534D01*
X82988240Y-128203012D01*
X85845500Y-128203012D01*
X85845500Y-128331943D01*
X85856764Y-128388569D01*
X85870652Y-128458389D01*
X85919989Y-128577500D01*
X85933469Y-128597674D01*
X85991616Y-128684697D01*
X85991621Y-128684703D01*
X86082774Y-128775856D01*
X86082780Y-128775861D01*
X86189978Y-128847489D01*
X86309089Y-128896826D01*
X86435537Y-128921978D01*
X86435538Y-128921978D01*
X86564462Y-128921978D01*
X86564463Y-128921978D01*
X86690911Y-128896826D01*
X86810022Y-128847489D01*
X86917220Y-128775861D01*
X87008383Y-128684698D01*
X87080011Y-128577500D01*
X87129348Y-128458389D01*
X87154500Y-128331941D01*
X87154500Y-128203015D01*
X87129348Y-128076567D01*
X87080011Y-127957456D01*
X87008383Y-127850258D01*
X87008378Y-127850252D01*
X86917225Y-127759099D01*
X86917219Y-127759094D01*
X86854550Y-127717220D01*
X86810022Y-127687467D01*
X86690911Y-127638130D01*
X86673245Y-127634616D01*
X86564465Y-127612978D01*
X86564463Y-127612978D01*
X86435537Y-127612978D01*
X86435534Y-127612978D01*
X86309088Y-127638130D01*
X86309083Y-127638132D01*
X86189978Y-127687467D01*
X86082780Y-127759094D01*
X86082774Y-127759099D01*
X85991621Y-127850252D01*
X85991616Y-127850258D01*
X85919989Y-127957456D01*
X85870654Y-128076561D01*
X85870652Y-128076566D01*
X85845500Y-128203012D01*
X82988240Y-128203012D01*
X82988240Y-125235534D01*
X83245500Y-125235534D01*
X83245500Y-125364465D01*
X83257943Y-125427017D01*
X83270652Y-125490911D01*
X83319989Y-125610022D01*
X83348199Y-125652241D01*
X83391616Y-125717219D01*
X83391621Y-125717225D01*
X83482774Y-125808378D01*
X83482780Y-125808383D01*
X83589978Y-125880011D01*
X83709089Y-125929348D01*
X83835537Y-125954500D01*
X83835538Y-125954500D01*
X83964462Y-125954500D01*
X83964463Y-125954500D01*
X84090911Y-125929348D01*
X84210022Y-125880011D01*
X84317220Y-125808383D01*
X84408383Y-125717220D01*
X84480011Y-125610022D01*
X84529348Y-125490911D01*
X84554500Y-125364463D01*
X84554500Y-125235537D01*
X84529348Y-125109089D01*
X84480011Y-124989978D01*
X84408383Y-124882780D01*
X84408378Y-124882774D01*
X84317225Y-124791621D01*
X84317219Y-124791616D01*
X84281649Y-124767849D01*
X84210022Y-124719989D01*
X84090911Y-124670652D01*
X84056338Y-124663775D01*
X83964465Y-124645500D01*
X83964463Y-124645500D01*
X83835537Y-124645500D01*
X83835534Y-124645500D01*
X83709088Y-124670652D01*
X83709083Y-124670654D01*
X83589978Y-124719989D01*
X83482780Y-124791616D01*
X83482774Y-124791621D01*
X83391621Y-124882774D01*
X83391616Y-124882780D01*
X83319989Y-124989978D01*
X83270654Y-125109083D01*
X83270652Y-125109088D01*
X83245500Y-125235534D01*
X82988240Y-125235534D01*
X82988240Y-122537893D01*
X83008242Y-122469772D01*
X83025145Y-122448798D01*
X86818538Y-118655405D01*
X86880850Y-118621379D01*
X86907633Y-118618500D01*
X88119500Y-118618500D01*
X88187621Y-118638502D01*
X88234114Y-118692158D01*
X88245500Y-118744500D01*
X88245500Y-118864465D01*
X88250309Y-118888641D01*
X88270652Y-118990911D01*
X88319989Y-119110022D01*
X88367849Y-119181649D01*
X88391616Y-119217219D01*
X88391621Y-119217225D01*
X88482774Y-119308378D01*
X88482780Y-119308383D01*
X88589978Y-119380011D01*
X88709089Y-119429348D01*
X88835537Y-119454500D01*
X88835538Y-119454500D01*
X88964462Y-119454500D01*
X88964463Y-119454500D01*
X89090911Y-119429348D01*
X89210022Y-119380011D01*
X89317220Y-119308383D01*
X89408383Y-119217220D01*
X89480011Y-119110022D01*
X89529348Y-118990911D01*
X89554500Y-118864463D01*
X89554500Y-118735537D01*
X89529348Y-118609089D01*
X89487904Y-118509035D01*
X89480316Y-118438446D01*
X89512095Y-118374959D01*
X89515163Y-118371779D01*
X89590920Y-118296023D01*
X89688265Y-118150336D01*
X89755317Y-117988458D01*
X89789500Y-117816608D01*
X89789500Y-117641392D01*
X89755317Y-117469542D01*
X89688265Y-117307664D01*
X89590920Y-117161977D01*
X89467023Y-117038080D01*
X89321336Y-116940735D01*
X89159458Y-116873683D01*
X88987610Y-116839500D01*
X88987608Y-116839500D01*
X86574609Y-116839500D01*
X86399392Y-116839500D01*
X86399389Y-116839500D01*
X86227541Y-116873683D01*
X86227536Y-116873685D01*
X86065664Y-116940735D01*
X85919981Y-117038077D01*
X85919974Y-117038082D01*
X81407822Y-121550234D01*
X81407817Y-121550241D01*
X81310475Y-121695924D01*
X81243425Y-121857796D01*
X81243423Y-121857801D01*
X81209240Y-122029649D01*
X81209240Y-135386355D01*
X81211300Y-135396707D01*
X81213721Y-135421605D01*
X81212742Y-135810021D01*
X81209022Y-137285365D01*
X76900500Y-137285365D01*
X76900500Y-135435534D01*
X77745500Y-135435534D01*
X77745500Y-135564465D01*
X77770652Y-135690911D01*
X77819989Y-135810022D01*
X77867849Y-135881649D01*
X77891616Y-135917219D01*
X77891621Y-135917225D01*
X77982774Y-136008378D01*
X77982780Y-136008383D01*
X78089978Y-136080011D01*
X78209089Y-136129348D01*
X78335537Y-136154500D01*
X78335538Y-136154500D01*
X78464462Y-136154500D01*
X78464463Y-136154500D01*
X78590911Y-136129348D01*
X78710022Y-136080011D01*
X78817220Y-136008383D01*
X78908383Y-135917220D01*
X78980011Y-135810022D01*
X79029348Y-135690911D01*
X79054500Y-135564463D01*
X79054500Y-135435537D01*
X79029348Y-135309089D01*
X78980011Y-135189978D01*
X78908383Y-135082780D01*
X78908378Y-135082774D01*
X78817225Y-134991621D01*
X78817219Y-134991616D01*
X78750033Y-134946724D01*
X78710022Y-134919989D01*
X78590911Y-134870652D01*
X78464465Y-134845500D01*
X78464463Y-134845500D01*
X78335537Y-134845500D01*
X78335534Y-134845500D01*
X78209088Y-134870652D01*
X78209083Y-134870654D01*
X78089978Y-134919989D01*
X77982780Y-134991616D01*
X77982774Y-134991621D01*
X77891621Y-135082774D01*
X77891616Y-135082780D01*
X77819989Y-135189978D01*
X77770654Y-135309083D01*
X77770652Y-135309088D01*
X77745500Y-135435534D01*
X76900500Y-135435534D01*
X76900500Y-129427017D01*
X79281100Y-129427017D01*
X79281100Y-129565383D01*
X79311692Y-129679554D01*
X79316913Y-129699040D01*
X79386092Y-129818861D01*
X79386100Y-129818871D01*
X79483928Y-129916699D01*
X79483933Y-129916703D01*
X79483935Y-129916705D01*
X79483936Y-129916706D01*
X79483938Y-129916707D01*
X79603759Y-129985886D01*
X79603761Y-129985886D01*
X79603764Y-129985888D01*
X79737417Y-130021700D01*
X79737419Y-130021700D01*
X79875781Y-130021700D01*
X79875783Y-130021700D01*
X80009436Y-129985888D01*
X80009439Y-129985886D01*
X80009440Y-129985886D01*
X80088373Y-129940314D01*
X80129265Y-129916705D01*
X80227105Y-129818865D01*
X80275293Y-129735400D01*
X80296286Y-129699040D01*
X80296286Y-129699039D01*
X80296288Y-129699036D01*
X80332100Y-129565383D01*
X80332100Y-129427017D01*
X80296288Y-129293364D01*
X80296286Y-129293361D01*
X80296286Y-129293359D01*
X80227107Y-129173538D01*
X80227099Y-129173528D01*
X80129271Y-129075700D01*
X80129261Y-129075692D01*
X80009440Y-129006513D01*
X79969361Y-128995774D01*
X79875783Y-128970700D01*
X79737417Y-128970700D01*
X79655617Y-128992617D01*
X79603759Y-129006513D01*
X79483938Y-129075692D01*
X79483928Y-129075700D01*
X79386100Y-129173528D01*
X79386092Y-129173538D01*
X79316913Y-129293359D01*
X79300914Y-129353068D01*
X79281100Y-129427017D01*
X76900500Y-129427017D01*
X76900500Y-126935534D01*
X77745500Y-126935534D01*
X77745500Y-127064465D01*
X77753205Y-127103199D01*
X77770652Y-127190911D01*
X77819989Y-127310022D01*
X77849855Y-127354719D01*
X77891616Y-127417219D01*
X77891621Y-127417225D01*
X77982774Y-127508378D01*
X77982780Y-127508383D01*
X78089978Y-127580011D01*
X78209089Y-127629348D01*
X78335537Y-127654500D01*
X78335538Y-127654500D01*
X78464462Y-127654500D01*
X78464463Y-127654500D01*
X78590911Y-127629348D01*
X78710022Y-127580011D01*
X78817220Y-127508383D01*
X78908383Y-127417220D01*
X78980011Y-127310022D01*
X79029348Y-127190911D01*
X79054500Y-127064463D01*
X79054500Y-126935537D01*
X79029348Y-126809089D01*
X78980011Y-126689978D01*
X78908383Y-126582780D01*
X78908378Y-126582774D01*
X78817225Y-126491621D01*
X78817219Y-126491616D01*
X78776581Y-126464463D01*
X78710022Y-126419989D01*
X78590911Y-126370652D01*
X78464465Y-126345500D01*
X78464463Y-126345500D01*
X78335537Y-126345500D01*
X78335534Y-126345500D01*
X78209088Y-126370652D01*
X78209083Y-126370654D01*
X78089978Y-126419989D01*
X77982780Y-126491616D01*
X77982774Y-126491621D01*
X77891621Y-126582774D01*
X77891616Y-126582780D01*
X77819989Y-126689978D01*
X77770654Y-126809083D01*
X77770652Y-126809088D01*
X77745500Y-126935534D01*
X76900500Y-126935534D01*
X76900500Y-125427017D01*
X79281100Y-125427017D01*
X79281100Y-125565383D01*
X79310769Y-125676111D01*
X79316913Y-125699040D01*
X79386092Y-125818861D01*
X79386100Y-125818871D01*
X79483928Y-125916699D01*
X79483933Y-125916703D01*
X79483935Y-125916705D01*
X79483936Y-125916706D01*
X79483938Y-125916707D01*
X79603759Y-125985886D01*
X79603761Y-125985886D01*
X79603764Y-125985888D01*
X79737417Y-126021700D01*
X79737419Y-126021700D01*
X79875781Y-126021700D01*
X79875783Y-126021700D01*
X80009436Y-125985888D01*
X80009439Y-125985886D01*
X80009440Y-125985886D01*
X80069350Y-125951296D01*
X80129265Y-125916705D01*
X80227105Y-125818865D01*
X80296288Y-125699036D01*
X80332100Y-125565383D01*
X80332100Y-125427017D01*
X80296288Y-125293364D01*
X80296286Y-125293361D01*
X80296286Y-125293359D01*
X80227107Y-125173538D01*
X80227099Y-125173528D01*
X80129271Y-125075700D01*
X80129261Y-125075692D01*
X80009440Y-125006513D01*
X79993649Y-125002282D01*
X79875783Y-124970700D01*
X79737417Y-124970700D01*
X79665470Y-124989978D01*
X79603759Y-125006513D01*
X79483938Y-125075692D01*
X79483928Y-125075700D01*
X79386100Y-125173528D01*
X79386092Y-125173538D01*
X79316913Y-125293359D01*
X79312000Y-125311696D01*
X79281100Y-125427017D01*
X76900500Y-125427017D01*
X76900500Y-113622138D01*
X79395500Y-113622138D01*
X79395500Y-113829861D01*
X79417110Y-113938499D01*
X79436024Y-114033586D01*
X79515514Y-114225493D01*
X79588070Y-114334080D01*
X79630916Y-114398203D01*
X79630921Y-114398209D01*
X79777790Y-114545078D01*
X79777793Y-114545080D01*
X79777796Y-114545083D01*
X79862995Y-114602011D01*
X79891764Y-114621235D01*
X79937292Y-114675712D01*
X79946139Y-114746156D01*
X79915498Y-114810199D01*
X79891764Y-114830765D01*
X79777797Y-114906916D01*
X79777790Y-114906921D01*
X79630921Y-115053790D01*
X79630916Y-115053796D01*
X79515514Y-115226507D01*
X79436026Y-115418408D01*
X79436024Y-115418413D01*
X79395500Y-115622138D01*
X79395500Y-115829861D01*
X79436024Y-116033586D01*
X79515514Y-116225493D01*
X79592623Y-116340895D01*
X79630916Y-116398203D01*
X79630921Y-116398209D01*
X79777790Y-116545078D01*
X79777793Y-116545080D01*
X79777796Y-116545083D01*
X79862995Y-116602011D01*
X79891764Y-116621235D01*
X79937292Y-116675712D01*
X79946139Y-116746156D01*
X79915498Y-116810199D01*
X79891764Y-116830765D01*
X79777797Y-116906916D01*
X79777790Y-116906921D01*
X79630921Y-117053790D01*
X79630916Y-117053796D01*
X79515514Y-117226507D01*
X79436026Y-117418408D01*
X79436024Y-117418413D01*
X79395500Y-117622138D01*
X79395500Y-117829861D01*
X79418681Y-117946399D01*
X79436024Y-118033586D01*
X79515514Y-118225493D01*
X79562641Y-118296023D01*
X79630916Y-118398203D01*
X79630921Y-118398209D01*
X79777790Y-118545078D01*
X79777796Y-118545083D01*
X79887578Y-118618438D01*
X79937933Y-118652084D01*
X79983461Y-118706561D01*
X79992309Y-118777004D01*
X79961667Y-118841048D01*
X79937933Y-118861614D01*
X79810498Y-118946763D01*
X79810492Y-118946768D01*
X79670768Y-119086492D01*
X79670763Y-119086498D01*
X79560976Y-119250807D01*
X79485352Y-119433377D01*
X79485351Y-119433379D01*
X79458723Y-119567249D01*
X79458723Y-119567250D01*
X79974899Y-119567250D01*
X79950000Y-119660174D01*
X79950000Y-119791826D01*
X79974899Y-119884750D01*
X79458723Y-119884750D01*
X79485351Y-120018620D01*
X79485352Y-120018622D01*
X79560976Y-120201192D01*
X79670763Y-120365501D01*
X79670768Y-120365507D01*
X79810492Y-120505231D01*
X79810498Y-120505236D01*
X79974807Y-120615024D01*
X79974811Y-120615026D01*
X80157370Y-120690646D01*
X80291249Y-120717276D01*
X80291250Y-120717276D01*
X80291250Y-120201100D01*
X80384174Y-120226000D01*
X80515826Y-120226000D01*
X80608750Y-120201100D01*
X80608750Y-120717276D01*
X80742629Y-120690646D01*
X80925188Y-120615026D01*
X80925192Y-120615024D01*
X81089501Y-120505236D01*
X81089507Y-120505231D01*
X81229231Y-120365507D01*
X81229236Y-120365501D01*
X81339023Y-120201192D01*
X81414647Y-120018622D01*
X81414648Y-120018620D01*
X81441277Y-119884750D01*
X80925101Y-119884750D01*
X80950000Y-119791826D01*
X80950000Y-119660174D01*
X80925101Y-119567250D01*
X81441277Y-119567250D01*
X81441276Y-119567249D01*
X81414648Y-119433379D01*
X81414647Y-119433377D01*
X81339023Y-119250807D01*
X81229236Y-119086498D01*
X81229231Y-119086492D01*
X81089507Y-118946768D01*
X81089501Y-118946763D01*
X80962066Y-118861614D01*
X80916538Y-118807137D01*
X80907690Y-118736694D01*
X80938331Y-118672650D01*
X80962061Y-118652087D01*
X81122204Y-118545083D01*
X81269083Y-118398204D01*
X81384486Y-118225493D01*
X81463976Y-118033586D01*
X81504500Y-117829859D01*
X81504500Y-117622141D01*
X81463976Y-117418414D01*
X81384486Y-117226507D01*
X81269083Y-117053796D01*
X81269078Y-117053790D01*
X81122209Y-116906921D01*
X81122203Y-116906916D01*
X81015564Y-116835662D01*
X81008234Y-116830763D01*
X80962707Y-116776288D01*
X80953859Y-116705845D01*
X80984501Y-116641801D01*
X81008232Y-116621236D01*
X81122204Y-116545083D01*
X81269083Y-116398204D01*
X81384486Y-116225493D01*
X81463976Y-116033586D01*
X81504500Y-115829859D01*
X81504500Y-115622141D01*
X81463976Y-115418414D01*
X81384486Y-115226507D01*
X81269083Y-115053796D01*
X81269078Y-115053790D01*
X81174486Y-114959198D01*
X81174481Y-114959194D01*
X81122204Y-114906917D01*
X81067754Y-114870534D01*
X85324500Y-114870534D01*
X85324500Y-114870537D01*
X85324500Y-114999463D01*
X85349652Y-115125911D01*
X85398989Y-115245022D01*
X85402147Y-115249748D01*
X85470616Y-115352219D01*
X85470621Y-115352225D01*
X85561774Y-115443378D01*
X85561780Y-115443383D01*
X85668978Y-115515011D01*
X85788089Y-115564348D01*
X85914537Y-115589500D01*
X85914538Y-115589500D01*
X86043462Y-115589500D01*
X86043463Y-115589500D01*
X86169911Y-115564348D01*
X86289022Y-115515011D01*
X86396220Y-115443383D01*
X86487383Y-115352220D01*
X86559011Y-115245022D01*
X86608348Y-115125911D01*
X86633500Y-114999463D01*
X86633500Y-114870537D01*
X86633499Y-114870534D01*
X90150500Y-114870534D01*
X90150500Y-114870537D01*
X90150500Y-114999463D01*
X90175652Y-115125911D01*
X90224989Y-115245022D01*
X90228147Y-115249748D01*
X90296616Y-115352219D01*
X90296621Y-115352225D01*
X90387774Y-115443378D01*
X90387780Y-115443383D01*
X90494978Y-115515011D01*
X90614089Y-115564348D01*
X90740537Y-115589500D01*
X90740538Y-115589500D01*
X90869462Y-115589500D01*
X90869463Y-115589500D01*
X90995911Y-115564348D01*
X91115022Y-115515011D01*
X91222220Y-115443383D01*
X91247195Y-115418408D01*
X91287405Y-115378199D01*
X91349717Y-115344173D01*
X91420532Y-115349238D01*
X91465595Y-115378199D01*
X91530774Y-115443378D01*
X91530780Y-115443383D01*
X91637978Y-115515011D01*
X91757089Y-115564348D01*
X91883537Y-115589500D01*
X91883538Y-115589500D01*
X92012462Y-115589500D01*
X92012463Y-115589500D01*
X92138911Y-115564348D01*
X92258022Y-115515011D01*
X92365220Y-115443383D01*
X92456383Y-115352220D01*
X92528011Y-115245022D01*
X92577348Y-115125911D01*
X92602500Y-114999463D01*
X92602500Y-114870537D01*
X92577348Y-114744089D01*
X92528011Y-114624978D01*
X92456383Y-114517780D01*
X92456378Y-114517774D01*
X92365225Y-114426621D01*
X92365219Y-114426616D01*
X92305542Y-114386741D01*
X92258022Y-114354989D01*
X92138911Y-114305652D01*
X92012465Y-114280500D01*
X92012463Y-114280500D01*
X91883537Y-114280500D01*
X91883534Y-114280500D01*
X91757088Y-114305652D01*
X91757083Y-114305654D01*
X91637978Y-114354989D01*
X91530780Y-114426616D01*
X91530774Y-114426621D01*
X91465595Y-114491801D01*
X91403283Y-114525827D01*
X91332468Y-114520762D01*
X91287405Y-114491801D01*
X91222225Y-114426621D01*
X91222219Y-114426616D01*
X91162542Y-114386741D01*
X91115022Y-114354989D01*
X90995911Y-114305652D01*
X90869465Y-114280500D01*
X90869463Y-114280500D01*
X90740537Y-114280500D01*
X90740534Y-114280500D01*
X90614088Y-114305652D01*
X90614083Y-114305654D01*
X90494978Y-114354989D01*
X90387780Y-114426616D01*
X90387774Y-114426621D01*
X90296621Y-114517774D01*
X90296616Y-114517780D01*
X90224989Y-114624978D01*
X90175654Y-114744083D01*
X90175652Y-114744088D01*
X90150500Y-114870534D01*
X86633499Y-114870534D01*
X86608348Y-114744089D01*
X86559011Y-114624978D01*
X86487383Y-114517780D01*
X86487378Y-114517774D01*
X86396225Y-114426621D01*
X86396219Y-114426616D01*
X86336542Y-114386741D01*
X86289022Y-114354989D01*
X86169911Y-114305652D01*
X86043465Y-114280500D01*
X86043463Y-114280500D01*
X85914537Y-114280500D01*
X85914534Y-114280500D01*
X85788088Y-114305652D01*
X85788083Y-114305654D01*
X85668978Y-114354989D01*
X85561780Y-114426616D01*
X85561774Y-114426621D01*
X85470621Y-114517774D01*
X85470616Y-114517780D01*
X85398989Y-114624978D01*
X85349654Y-114744083D01*
X85349652Y-114744088D01*
X85324500Y-114870534D01*
X81067754Y-114870534D01*
X81004704Y-114828405D01*
X81001343Y-114825816D01*
X80982861Y-114800404D01*
X80962707Y-114776288D01*
X80962160Y-114771940D01*
X80959585Y-114768399D01*
X80957776Y-114737033D01*
X80953859Y-114705845D01*
X80955750Y-114701892D01*
X80955498Y-114697520D01*
X80970937Y-114670149D01*
X80984501Y-114641801D01*
X80989250Y-114637685D01*
X80990380Y-114635683D01*
X80993406Y-114634084D01*
X81008232Y-114621236D01*
X81122204Y-114545083D01*
X81269083Y-114398204D01*
X81384486Y-114225493D01*
X81463976Y-114033586D01*
X81504500Y-113829859D01*
X81504500Y-113622141D01*
X81463976Y-113418414D01*
X81384486Y-113226507D01*
X81269083Y-113053796D01*
X81269078Y-113053790D01*
X81122209Y-112906921D01*
X81122203Y-112906916D01*
X81034923Y-112848597D01*
X80949493Y-112791514D01*
X80757586Y-112712024D01*
X80712285Y-112703013D01*
X80553861Y-112671500D01*
X80553859Y-112671500D01*
X80346141Y-112671500D01*
X80346138Y-112671500D01*
X80142413Y-112712024D01*
X80142408Y-112712026D01*
X79950507Y-112791514D01*
X79777796Y-112906916D01*
X79777790Y-112906921D01*
X79630921Y-113053790D01*
X79630916Y-113053796D01*
X79515514Y-113226507D01*
X79436026Y-113418408D01*
X79436024Y-113418413D01*
X79395500Y-113622138D01*
X76900500Y-113622138D01*
X76900500Y-110225437D01*
X76920502Y-110157316D01*
X76974158Y-110110823D01*
X77026184Y-110099437D01*
X78989877Y-110094552D01*
X79058043Y-110114384D01*
X79104669Y-110167924D01*
X79114948Y-110238172D01*
X79106595Y-110268769D01*
X79032565Y-110447494D01*
X79032564Y-110447497D01*
X78993500Y-110643880D01*
X78993500Y-110844119D01*
X79026470Y-111009868D01*
X79032564Y-111040502D01*
X79109190Y-111225493D01*
X79218148Y-111388561D01*
X79220434Y-111391982D01*
X79220439Y-111391988D01*
X79362011Y-111533560D01*
X79362017Y-111533565D01*
X79362019Y-111533567D01*
X79528507Y-111644810D01*
X79713498Y-111721436D01*
X79909884Y-111760500D01*
X80110116Y-111760500D01*
X80306502Y-111721436D01*
X80491493Y-111644810D01*
X80657981Y-111533567D01*
X80799567Y-111391981D01*
X80799574Y-111391969D01*
X80801591Y-111389513D01*
X80802987Y-111388561D01*
X80803945Y-111387604D01*
X80804126Y-111387785D01*
X80860264Y-111349537D01*
X80931235Y-111347628D01*
X80991971Y-111384392D01*
X80996409Y-111389513D01*
X80998429Y-111391975D01*
X80998433Y-111391981D01*
X80998437Y-111391985D01*
X80998442Y-111391991D01*
X81140011Y-111533560D01*
X81140017Y-111533565D01*
X81140019Y-111533567D01*
X81306507Y-111644810D01*
X81491498Y-111721436D01*
X81687884Y-111760500D01*
X81888116Y-111760500D01*
X82084502Y-111721436D01*
X82269493Y-111644810D01*
X82435981Y-111533567D01*
X82577567Y-111391981D01*
X82577574Y-111391969D01*
X82579591Y-111389513D01*
X82580987Y-111388561D01*
X82581945Y-111387604D01*
X82582126Y-111387785D01*
X82638264Y-111349537D01*
X82709235Y-111347628D01*
X82769971Y-111384392D01*
X82774409Y-111389513D01*
X82776429Y-111391975D01*
X82776433Y-111391981D01*
X82776437Y-111391985D01*
X82776442Y-111391991D01*
X82918011Y-111533560D01*
X82918017Y-111533565D01*
X82918019Y-111533567D01*
X83084507Y-111644810D01*
X83269498Y-111721436D01*
X83465884Y-111760500D01*
X83666116Y-111760500D01*
X83862502Y-111721436D01*
X84047493Y-111644810D01*
X84213981Y-111533567D01*
X84355567Y-111391981D01*
X84466810Y-111225493D01*
X84543436Y-111040502D01*
X84582500Y-110844116D01*
X84582500Y-110643884D01*
X84543436Y-110447498D01*
X84466810Y-110262507D01*
X84466809Y-110262506D01*
X84464441Y-110256788D01*
X84466589Y-110255898D01*
X84454228Y-110196544D01*
X84479628Y-110130246D01*
X84536838Y-110088205D01*
X84579503Y-110080648D01*
X90384899Y-110066206D01*
X90433421Y-110075796D01*
X90440704Y-110078813D01*
X90512227Y-110108439D01*
X90512228Y-110108439D01*
X90512235Y-110108442D01*
X90638683Y-110133594D01*
X90638684Y-110133594D01*
X90767608Y-110133594D01*
X90767609Y-110133594D01*
X90894057Y-110108442D01*
X90976713Y-110074204D01*
X91024612Y-110064615D01*
X92182302Y-110061735D01*
X92250471Y-110081568D01*
X92271705Y-110098636D01*
X93120783Y-110947714D01*
X93120784Y-110947715D01*
X93120786Y-110947716D01*
X93251211Y-111023017D01*
X93251213Y-111023017D01*
X93251216Y-111023019D01*
X93396694Y-111062000D01*
X93396695Y-111062000D01*
X95959138Y-111062000D01*
X96027259Y-111082002D01*
X96073752Y-111135658D01*
X96083856Y-111205932D01*
X96054362Y-111270512D01*
X96048236Y-111277092D01*
X95791768Y-111533560D01*
X94622880Y-112702446D01*
X94622873Y-112702454D01*
X94563724Y-112761604D01*
X94521769Y-112834272D01*
X94516745Y-112840823D01*
X94494464Y-112857098D01*
X94474502Y-112876133D01*
X94466224Y-112877728D01*
X94459416Y-112882702D01*
X94431873Y-112884348D01*
X94404788Y-112889568D01*
X94396130Y-112886484D01*
X94388545Y-112886938D01*
X94373170Y-112878308D01*
X94346765Y-112868904D01*
X94290022Y-112830989D01*
X94170911Y-112781652D01*
X94140571Y-112775617D01*
X94044465Y-112756500D01*
X94044463Y-112756500D01*
X93915537Y-112756500D01*
X93915534Y-112756500D01*
X93789088Y-112781652D01*
X93789083Y-112781654D01*
X93669978Y-112830989D01*
X93562780Y-112902616D01*
X93562774Y-112902621D01*
X93471621Y-112993774D01*
X93471616Y-112993780D01*
X93399989Y-113100978D01*
X93350654Y-113220083D01*
X93350652Y-113220088D01*
X93325500Y-113346534D01*
X93325500Y-113475465D01*
X93341335Y-113555070D01*
X93350652Y-113601911D01*
X93399989Y-113721022D01*
X93424273Y-113757365D01*
X93471616Y-113828219D01*
X93471621Y-113828225D01*
X93562774Y-113919378D01*
X93562780Y-113919383D01*
X93669978Y-113991011D01*
X93789089Y-114040348D01*
X93915537Y-114065500D01*
X93915538Y-114065500D01*
X94044462Y-114065500D01*
X94044463Y-114065500D01*
X94170911Y-114040348D01*
X94290022Y-113991011D01*
X94291492Y-113990028D01*
X94292379Y-113989750D01*
X94295479Y-113988094D01*
X94295793Y-113988681D01*
X94359242Y-113968809D01*
X94427711Y-113987588D01*
X94475157Y-114040402D01*
X94487500Y-114094789D01*
X94487500Y-117162127D01*
X94467498Y-117230248D01*
X94450595Y-117251222D01*
X92053143Y-119648673D01*
X91990831Y-119682699D01*
X91920015Y-119677634D01*
X91863180Y-119635087D01*
X91838369Y-119568567D01*
X91840468Y-119535004D01*
X91854500Y-119464463D01*
X91854500Y-119335537D01*
X91829348Y-119209089D01*
X91780011Y-119089978D01*
X91708383Y-118982780D01*
X91708378Y-118982774D01*
X91617225Y-118891621D01*
X91617219Y-118891616D01*
X91576581Y-118864463D01*
X91510022Y-118819989D01*
X91390911Y-118770652D01*
X91264465Y-118745500D01*
X91264463Y-118745500D01*
X91135537Y-118745500D01*
X91135534Y-118745500D01*
X91009088Y-118770652D01*
X91009083Y-118770654D01*
X90889978Y-118819989D01*
X90782780Y-118891616D01*
X90782774Y-118891621D01*
X90691621Y-118982774D01*
X90691616Y-118982780D01*
X90619989Y-119089978D01*
X90570654Y-119209083D01*
X90570652Y-119209088D01*
X90545500Y-119335534D01*
X90545500Y-119464465D01*
X90570652Y-119590911D01*
X90619989Y-119710022D01*
X90667250Y-119780753D01*
X90691616Y-119817219D01*
X90691621Y-119817225D01*
X90782774Y-119908378D01*
X90782780Y-119908383D01*
X90889978Y-119980011D01*
X91009089Y-120029348D01*
X91135537Y-120054500D01*
X91135538Y-120054500D01*
X91264462Y-120054500D01*
X91264463Y-120054500D01*
X91334999Y-120040469D01*
X91405709Y-120046796D01*
X91461777Y-120090350D01*
X91485397Y-120157302D01*
X91469071Y-120226396D01*
X91448673Y-120253143D01*
X89058131Y-122643686D01*
X88995819Y-122677711D01*
X88969036Y-122680591D01*
X87741868Y-122680591D01*
X87741852Y-122680590D01*
X87734134Y-122680590D01*
X87633684Y-122680590D01*
X87585170Y-122693589D01*
X87536654Y-122706589D01*
X87449665Y-122756812D01*
X87449659Y-122756817D01*
X87186488Y-123019989D01*
X86506753Y-123699724D01*
X86471239Y-123735238D01*
X86435725Y-123770751D01*
X86435721Y-123770756D01*
X86385500Y-123857741D01*
X86359500Y-123954776D01*
X86359500Y-124498706D01*
X86339498Y-124566827D01*
X86322595Y-124587801D01*
X86232621Y-124677774D01*
X86232616Y-124677780D01*
X86160989Y-124784978D01*
X86111654Y-124904083D01*
X86111652Y-124904088D01*
X86086500Y-125030534D01*
X86086500Y-125159465D01*
X86102818Y-125241499D01*
X86111652Y-125285911D01*
X86160989Y-125405022D01*
X86208849Y-125476649D01*
X86232616Y-125512219D01*
X86232621Y-125512225D01*
X86323774Y-125603378D01*
X86323780Y-125603383D01*
X86430978Y-125675011D01*
X86550089Y-125724348D01*
X86676537Y-125749500D01*
X86676538Y-125749500D01*
X86805462Y-125749500D01*
X86805463Y-125749500D01*
X86931911Y-125724348D01*
X87051022Y-125675011D01*
X87158220Y-125603383D01*
X87249383Y-125512220D01*
X87321011Y-125405022D01*
X87370348Y-125285911D01*
X87395500Y-125159463D01*
X87395500Y-125030537D01*
X87370348Y-124904089D01*
X87321011Y-124784978D01*
X87249383Y-124677780D01*
X87249378Y-124677774D01*
X87159405Y-124587801D01*
X87125379Y-124525489D01*
X87122500Y-124498706D01*
X87122500Y-124215213D01*
X87131283Y-124185297D01*
X87137912Y-124154828D01*
X87141726Y-124149731D01*
X87142502Y-124147092D01*
X87159399Y-124126123D01*
X87258171Y-124027351D01*
X87320479Y-123993329D01*
X87391295Y-123998393D01*
X87448131Y-124040940D01*
X87467908Y-124085281D01*
X87468858Y-124084994D01*
X87470651Y-124090906D01*
X87470652Y-124090911D01*
X87519989Y-124210022D01*
X87564726Y-124276975D01*
X87591616Y-124317219D01*
X87591621Y-124317225D01*
X87682774Y-124408378D01*
X87682780Y-124408383D01*
X87789976Y-124480010D01*
X87789977Y-124480010D01*
X87789978Y-124480011D01*
X87833245Y-124497932D01*
X87888523Y-124542477D01*
X87910946Y-124609840D01*
X87911026Y-124614340D01*
X87911026Y-129055996D01*
X87891024Y-129124117D01*
X87874121Y-129145091D01*
X87784147Y-129235064D01*
X87784142Y-129235070D01*
X87712515Y-129342268D01*
X87663180Y-129461373D01*
X87663178Y-129461378D01*
X87638026Y-129587824D01*
X87638026Y-129716755D01*
X87651950Y-129786753D01*
X87663178Y-129843201D01*
X87712515Y-129962312D01*
X87741907Y-130006300D01*
X87784142Y-130069509D01*
X87784147Y-130069515D01*
X87875300Y-130160668D01*
X87875306Y-130160673D01*
X87982504Y-130232301D01*
X88101615Y-130281638D01*
X88228063Y-130306790D01*
X88228064Y-130306790D01*
X88356988Y-130306790D01*
X88356989Y-130306790D01*
X88483437Y-130281638D01*
X88602548Y-130232301D01*
X88709746Y-130160673D01*
X88800909Y-130069510D01*
X88872537Y-129962312D01*
X88921874Y-129843201D01*
X88947026Y-129716753D01*
X88947026Y-129587827D01*
X88921874Y-129461379D01*
X88872537Y-129342268D01*
X88800909Y-129235070D01*
X88800904Y-129235064D01*
X88710931Y-129145091D01*
X88676905Y-129082779D01*
X88674026Y-129055996D01*
X88674026Y-128539059D01*
X88694028Y-128470938D01*
X88747684Y-128424445D01*
X88817958Y-128414341D01*
X88882538Y-128443835D01*
X88889121Y-128449964D01*
X92417904Y-131978747D01*
X92488933Y-132049776D01*
X92488934Y-132049777D01*
X92488936Y-132049778D01*
X92575921Y-132099999D01*
X92575923Y-132099999D01*
X92575926Y-132100001D01*
X92672955Y-132126000D01*
X92965956Y-132126000D01*
X93034077Y-132146002D01*
X93080570Y-132199658D01*
X93090674Y-132269932D01*
X93070721Y-132322002D01*
X93025301Y-132389977D01*
X92975966Y-132509083D01*
X92975964Y-132509088D01*
X92950812Y-132635534D01*
X92950812Y-132764465D01*
X92966773Y-132844707D01*
X92975964Y-132890911D01*
X93025301Y-133010022D01*
X93056857Y-133057248D01*
X93096928Y-133117219D01*
X93096933Y-133117225D01*
X93188086Y-133208378D01*
X93188092Y-133208383D01*
X93295290Y-133280011D01*
X93414401Y-133329348D01*
X93540849Y-133354500D01*
X93540850Y-133354500D01*
X93669774Y-133354500D01*
X93669775Y-133354500D01*
X93796223Y-133329348D01*
X93902000Y-133285534D01*
X96373500Y-133285534D01*
X96373500Y-133414465D01*
X96383572Y-133465098D01*
X96398652Y-133540911D01*
X96447989Y-133660022D01*
X96463692Y-133683523D01*
X96519616Y-133767219D01*
X96519621Y-133767225D01*
X96610774Y-133858378D01*
X96610780Y-133858383D01*
X96717978Y-133930011D01*
X96837089Y-133979348D01*
X96963537Y-134004500D01*
X96963538Y-134004500D01*
X97092462Y-134004500D01*
X97092463Y-134004500D01*
X97218911Y-133979348D01*
X97338022Y-133930011D01*
X97445220Y-133858383D01*
X97536383Y-133767220D01*
X97608011Y-133660022D01*
X97657348Y-133540911D01*
X97682500Y-133414463D01*
X97682500Y-133285537D01*
X97657348Y-133159089D01*
X97608011Y-133039978D01*
X97536383Y-132932780D01*
X97536378Y-132932774D01*
X97445225Y-132841621D01*
X97445219Y-132841616D01*
X97369341Y-132790916D01*
X97338022Y-132769989D01*
X97218911Y-132720652D01*
X97192397Y-132715378D01*
X97092465Y-132695500D01*
X97092463Y-132695500D01*
X96963537Y-132695500D01*
X96963534Y-132695500D01*
X96837088Y-132720652D01*
X96837083Y-132720654D01*
X96717978Y-132769989D01*
X96610780Y-132841616D01*
X96610774Y-132841621D01*
X96519621Y-132932774D01*
X96519616Y-132932780D01*
X96447989Y-133039978D01*
X96398654Y-133159083D01*
X96398652Y-133159088D01*
X96373500Y-133285534D01*
X93902000Y-133285534D01*
X93915334Y-133280011D01*
X94022532Y-133208383D01*
X94022537Y-133208378D01*
X94040664Y-133190252D01*
X94113690Y-133117225D01*
X94113695Y-133117220D01*
X94185323Y-133010022D01*
X94234660Y-132890911D01*
X94259812Y-132764463D01*
X94259812Y-132635537D01*
X94234660Y-132509089D01*
X94185323Y-132389978D01*
X94166824Y-132362292D01*
X94139903Y-132322002D01*
X94118688Y-132254249D01*
X94137471Y-132185782D01*
X94190289Y-132138339D01*
X94244668Y-132126000D01*
X98568682Y-132126000D01*
X98636803Y-132146002D01*
X98683296Y-132199658D01*
X98693400Y-132269932D01*
X98673447Y-132322002D01*
X98606989Y-132421463D01*
X98557654Y-132540568D01*
X98557652Y-132540573D01*
X98532500Y-132667019D01*
X98532500Y-132795950D01*
X98552804Y-132898022D01*
X98557652Y-132922396D01*
X98606989Y-133041507D01*
X98652172Y-133109128D01*
X98678616Y-133148704D01*
X98678621Y-133148710D01*
X98769774Y-133239863D01*
X98769780Y-133239868D01*
X98876978Y-133311496D01*
X98996089Y-133360833D01*
X99044672Y-133370496D01*
X99107581Y-133403403D01*
X99142713Y-133465098D01*
X99138913Y-133535993D01*
X99097388Y-133593579D01*
X99068316Y-133610481D01*
X99064903Y-133611894D01*
X98957705Y-133683522D01*
X98957699Y-133683527D01*
X98866546Y-133774680D01*
X98866541Y-133774686D01*
X98794914Y-133881884D01*
X98745579Y-134000989D01*
X98745577Y-134000994D01*
X98720425Y-134127440D01*
X98720425Y-134222082D01*
X98700423Y-134290203D01*
X98646767Y-134336696D01*
X98594425Y-134348082D01*
X89827689Y-134348082D01*
X89759568Y-134328080D01*
X89738594Y-134311177D01*
X87892069Y-132464652D01*
X88880604Y-132464652D01*
X88880604Y-132593583D01*
X88895212Y-132667019D01*
X88905756Y-132720029D01*
X88955093Y-132839140D01*
X88970033Y-132861499D01*
X89026720Y-132946337D01*
X89026725Y-132946343D01*
X89117878Y-133037496D01*
X89117884Y-133037501D01*
X89225082Y-133109129D01*
X89344193Y-133158466D01*
X89470641Y-133183618D01*
X89470642Y-133183618D01*
X89599566Y-133183618D01*
X89599567Y-133183618D01*
X89726015Y-133158466D01*
X89845126Y-133109129D01*
X89952324Y-133037501D01*
X90043487Y-132946338D01*
X90115115Y-132839140D01*
X90164452Y-132720029D01*
X90189604Y-132593581D01*
X90189604Y-132464655D01*
X90164452Y-132338207D01*
X90115115Y-132219096D01*
X90043487Y-132111898D01*
X90043482Y-132111892D01*
X89952329Y-132020739D01*
X89952323Y-132020734D01*
X89889485Y-131978747D01*
X89845126Y-131949107D01*
X89726015Y-131899770D01*
X89711979Y-131896978D01*
X89599569Y-131874618D01*
X89599567Y-131874618D01*
X89470641Y-131874618D01*
X89470638Y-131874618D01*
X89344192Y-131899770D01*
X89344187Y-131899772D01*
X89225082Y-131949107D01*
X89117884Y-132020734D01*
X89117878Y-132020739D01*
X89026725Y-132111892D01*
X89026720Y-132111898D01*
X88955093Y-132219096D01*
X88905758Y-132338201D01*
X88905756Y-132338206D01*
X88880604Y-132464652D01*
X87892069Y-132464652D01*
X84685352Y-129257935D01*
X84651326Y-129195623D01*
X84648447Y-129168840D01*
X84648447Y-129041591D01*
X84648446Y-129041587D01*
X84645914Y-129028856D01*
X84623295Y-128915142D01*
X84573958Y-128796031D01*
X84502330Y-128688833D01*
X84502325Y-128688827D01*
X84411172Y-128597674D01*
X84411166Y-128597669D01*
X84355127Y-128560225D01*
X84303969Y-128526042D01*
X84184858Y-128476705D01*
X84058412Y-128451553D01*
X84058410Y-128451553D01*
X83929484Y-128451553D01*
X83929481Y-128451553D01*
X83803035Y-128476705D01*
X83803030Y-128476707D01*
X83683925Y-128526042D01*
X83576727Y-128597669D01*
X83576721Y-128597674D01*
X83485568Y-128688827D01*
X83485563Y-128688833D01*
X83413936Y-128796031D01*
X83364601Y-128915136D01*
X83364599Y-128915141D01*
X83339447Y-129041587D01*
X83339447Y-129170518D01*
X83356836Y-129257935D01*
X83364599Y-129296964D01*
X83413936Y-129416075D01*
X83461796Y-129487702D01*
X83485563Y-129523272D01*
X83485568Y-129523278D01*
X83576721Y-129614431D01*
X83576727Y-129614436D01*
X83683925Y-129686064D01*
X83803036Y-129735401D01*
X83929484Y-129760553D01*
X83929485Y-129760553D01*
X84056734Y-129760553D01*
X84124855Y-129780555D01*
X84145829Y-129797458D01*
X89312200Y-134963829D01*
X89383229Y-135034858D01*
X89383230Y-135034859D01*
X89383232Y-135034860D01*
X89470217Y-135085081D01*
X89470219Y-135085081D01*
X89470222Y-135085083D01*
X89567251Y-135111082D01*
X98695848Y-135111082D01*
X98763969Y-135131084D01*
X98784943Y-135147987D01*
X101109491Y-137472535D01*
X101143517Y-137534847D01*
X101138452Y-137605662D01*
X101109491Y-137650725D01*
X101091621Y-137668594D01*
X101091616Y-137668600D01*
X101019989Y-137775798D01*
X100970654Y-137894903D01*
X100970652Y-137894908D01*
X100945500Y-138021354D01*
X100945500Y-138150285D01*
X100950715Y-138176500D01*
X100970652Y-138276731D01*
X101019989Y-138395842D01*
X101041841Y-138428545D01*
X101091616Y-138503039D01*
X101091621Y-138503045D01*
X101182774Y-138594198D01*
X101182780Y-138594203D01*
X101289978Y-138665831D01*
X101409089Y-138715168D01*
X101535537Y-138740320D01*
X101535538Y-138740320D01*
X101664462Y-138740320D01*
X101664463Y-138740320D01*
X101790911Y-138715168D01*
X101910022Y-138665831D01*
X102017220Y-138594203D01*
X102108383Y-138503040D01*
X102180011Y-138395842D01*
X102229348Y-138276731D01*
X102254500Y-138150283D01*
X102254500Y-138021357D01*
X102229348Y-137894909D01*
X102180011Y-137775798D01*
X102108383Y-137668600D01*
X102108378Y-137668594D01*
X102018405Y-137578621D01*
X101984379Y-137516309D01*
X101981500Y-137489526D01*
X101981500Y-137373297D01*
X101975650Y-137351465D01*
X101955501Y-137276267D01*
X101955499Y-137276264D01*
X101955499Y-137276262D01*
X101905278Y-137189277D01*
X101905274Y-137189272D01*
X101885854Y-137169852D01*
X101834247Y-137118245D01*
X99675400Y-134959398D01*
X99641374Y-134897086D01*
X99646439Y-134826271D01*
X99688986Y-134769435D01*
X99694479Y-134765547D01*
X99792145Y-134700289D01*
X99883308Y-134609126D01*
X99954936Y-134501928D01*
X100004273Y-134382817D01*
X100029425Y-134256369D01*
X100029425Y-134127443D01*
X100004273Y-134000995D01*
X99954936Y-133881884D01*
X99883308Y-133774686D01*
X99883303Y-133774680D01*
X99792150Y-133683527D01*
X99792144Y-133683522D01*
X99756574Y-133659755D01*
X99684947Y-133611895D01*
X99565836Y-133562558D01*
X99517250Y-133552893D01*
X99454342Y-133519986D01*
X99419211Y-133458290D01*
X99423012Y-133387395D01*
X99464538Y-133329810D01*
X99493617Y-133312906D01*
X99497022Y-133311496D01*
X99604220Y-133239868D01*
X99695383Y-133148705D01*
X99767011Y-133041507D01*
X99767015Y-133041495D01*
X99768291Y-133039111D01*
X99769294Y-133038089D01*
X99770450Y-133036360D01*
X99770778Y-133036579D01*
X99818043Y-132988463D01*
X99887279Y-132972752D01*
X99954019Y-132996967D01*
X99968509Y-133009411D01*
X103213595Y-136254497D01*
X103247621Y-136316809D01*
X103250500Y-136343592D01*
X103250500Y-137489526D01*
X103230498Y-137557647D01*
X103213595Y-137578621D01*
X103123621Y-137668594D01*
X103123616Y-137668600D01*
X103051989Y-137775798D01*
X103002654Y-137894903D01*
X103002652Y-137894908D01*
X102977500Y-138021354D01*
X102977500Y-138150285D01*
X102982715Y-138176500D01*
X103002652Y-138276731D01*
X103051989Y-138395842D01*
X103073841Y-138428545D01*
X103123616Y-138503039D01*
X103123621Y-138503045D01*
X103214774Y-138594198D01*
X103214780Y-138594203D01*
X103321978Y-138665831D01*
X103441089Y-138715168D01*
X103567537Y-138740320D01*
X103567538Y-138740320D01*
X103696462Y-138740320D01*
X103696463Y-138740320D01*
X103822911Y-138715168D01*
X103942022Y-138665831D01*
X104049220Y-138594203D01*
X104140383Y-138503040D01*
X104212011Y-138395842D01*
X104261348Y-138276731D01*
X104286500Y-138150283D01*
X104286500Y-138021357D01*
X104261348Y-137894909D01*
X104212011Y-137775798D01*
X104140383Y-137668600D01*
X104140378Y-137668594D01*
X104050405Y-137578621D01*
X104016379Y-137516309D01*
X104013500Y-137489526D01*
X104013500Y-136634396D01*
X104033502Y-136566275D01*
X104087158Y-136519782D01*
X104157432Y-136509678D01*
X104172098Y-136512686D01*
X104215625Y-136524350D01*
X105195856Y-136524350D01*
X105263977Y-136544352D01*
X105284951Y-136561255D01*
X105374924Y-136651228D01*
X105374930Y-136651233D01*
X105482128Y-136722861D01*
X105601239Y-136772198D01*
X105727687Y-136797350D01*
X105727688Y-136797350D01*
X105856612Y-136797350D01*
X105856613Y-136797350D01*
X105983061Y-136772198D01*
X105983063Y-136772196D01*
X105989131Y-136770990D01*
X105989500Y-136772845D01*
X106051655Y-136772286D01*
X106111724Y-136810131D01*
X106132957Y-136843627D01*
X106136582Y-136852039D01*
X106141450Y-136870205D01*
X106149452Y-136884065D01*
X106191675Y-136957198D01*
X106369596Y-137135119D01*
X106403620Y-137197429D01*
X106406500Y-137224213D01*
X106406500Y-137351465D01*
X106428154Y-137460326D01*
X106431652Y-137477911D01*
X106480989Y-137597022D01*
X106527811Y-137667096D01*
X106552616Y-137704219D01*
X106552621Y-137704225D01*
X106643774Y-137795378D01*
X106643780Y-137795383D01*
X106750978Y-137867011D01*
X106870089Y-137916348D01*
X106996537Y-137941500D01*
X106996538Y-137941500D01*
X107125462Y-137941500D01*
X107125463Y-137941500D01*
X107251911Y-137916348D01*
X107371022Y-137867011D01*
X107478220Y-137795383D01*
X107569383Y-137704220D01*
X107569384Y-137704217D01*
X107569387Y-137704215D01*
X107606478Y-137648704D01*
X107660954Y-137603176D01*
X107731397Y-137594327D01*
X107795442Y-137624968D01*
X107816005Y-137648700D01*
X107922433Y-137807981D01*
X107922434Y-137807982D01*
X107922439Y-137807988D01*
X108064011Y-137949560D01*
X108064017Y-137949565D01*
X108064019Y-137949567D01*
X108230507Y-138060810D01*
X108415498Y-138137436D01*
X108611884Y-138176500D01*
X108812116Y-138176500D01*
X109008502Y-138137436D01*
X109193493Y-138060810D01*
X109359981Y-137949567D01*
X109501567Y-137807981D01*
X109612810Y-137641493D01*
X109689436Y-137456502D01*
X109728500Y-137260116D01*
X109728500Y-135535884D01*
X109689436Y-135339498D01*
X109612810Y-135154507D01*
X109501567Y-134988019D01*
X109501565Y-134988017D01*
X109501560Y-134988011D01*
X109359988Y-134846439D01*
X109359982Y-134846434D01*
X109359981Y-134846433D01*
X109193493Y-134735190D01*
X109017524Y-134662301D01*
X109008505Y-134658565D01*
X109008502Y-134658564D01*
X108812119Y-134619500D01*
X108812116Y-134619500D01*
X108657198Y-134619500D01*
X108589077Y-134599498D01*
X108542584Y-134545842D01*
X108532480Y-134475568D01*
X108561974Y-134410988D01*
X108568103Y-134404405D01*
X109755161Y-133217348D01*
X111210704Y-131761805D01*
X111273016Y-131727779D01*
X111299799Y-131724900D01*
X111775734Y-131724900D01*
X111824094Y-131724900D01*
X111892215Y-131744902D01*
X111913189Y-131761805D01*
X111977762Y-131826378D01*
X111977768Y-131826383D01*
X112084966Y-131898011D01*
X112204077Y-131947348D01*
X112330525Y-131972500D01*
X112330526Y-131972500D01*
X112459450Y-131972500D01*
X112459451Y-131972500D01*
X112585899Y-131947348D01*
X112705010Y-131898011D01*
X112812208Y-131826383D01*
X112903371Y-131735220D01*
X112974999Y-131628022D01*
X113024336Y-131508911D01*
X113049488Y-131382463D01*
X113049488Y-131253537D01*
X113024336Y-131127089D01*
X112974999Y-131007978D01*
X112903371Y-130900780D01*
X112903366Y-130900774D01*
X112838793Y-130836201D01*
X112804767Y-130773889D01*
X112801888Y-130747106D01*
X112801888Y-130691418D01*
X112801887Y-130691416D01*
X112797093Y-130673522D01*
X112797093Y-130673521D01*
X112774159Y-130587933D01*
X112774158Y-130587932D01*
X112774158Y-130587930D01*
X112720589Y-130495145D01*
X112720586Y-130495142D01*
X112720583Y-130495138D01*
X109765908Y-127540463D01*
X109731882Y-127478151D01*
X109736947Y-127407336D01*
X109765906Y-127362275D01*
X113096933Y-124031248D01*
X113159243Y-123997224D01*
X113230058Y-124002289D01*
X113286894Y-124044836D01*
X113311705Y-124111356D01*
X113309605Y-124144926D01*
X113295500Y-124215833D01*
X113295500Y-124384163D01*
X113328338Y-124549249D01*
X113328340Y-124549254D01*
X113370676Y-124651461D01*
X113392752Y-124704758D01*
X113486266Y-124844712D01*
X113605288Y-124963734D01*
X113745242Y-125057248D01*
X113900751Y-125121662D01*
X114065839Y-125154500D01*
X114065840Y-125154500D01*
X114534160Y-125154500D01*
X114534161Y-125154500D01*
X114699249Y-125121662D01*
X114854758Y-125057248D01*
X114865497Y-125050072D01*
X114933247Y-125028856D01*
X115001715Y-125047637D01*
X115049160Y-125100453D01*
X115061500Y-125154836D01*
X115061500Y-125506861D01*
X115041498Y-125574982D01*
X114987842Y-125621475D01*
X114917568Y-125631579D01*
X114865500Y-125611627D01*
X114830461Y-125588215D01*
X114830458Y-125588214D01*
X114684288Y-125527668D01*
X114684285Y-125527667D01*
X114529111Y-125496800D01*
X114458750Y-125496800D01*
X114458750Y-125929773D01*
X114454394Y-125927259D01*
X114352661Y-125900000D01*
X114247339Y-125900000D01*
X114145606Y-125927259D01*
X114141250Y-125929773D01*
X114141250Y-125496800D01*
X114070888Y-125496800D01*
X113915714Y-125527667D01*
X113915711Y-125527668D01*
X113769541Y-125588214D01*
X113637994Y-125676111D01*
X113637987Y-125676116D01*
X113526116Y-125787987D01*
X113526111Y-125787994D01*
X113438214Y-125919541D01*
X113377668Y-126065711D01*
X113377667Y-126065714D01*
X113362642Y-126141250D01*
X113929774Y-126141250D01*
X113927259Y-126145606D01*
X113900000Y-126247339D01*
X113900000Y-126352661D01*
X113927259Y-126454394D01*
X113929774Y-126458750D01*
X113362642Y-126458750D01*
X113377667Y-126534285D01*
X113377668Y-126534288D01*
X113438214Y-126680458D01*
X113526111Y-126812005D01*
X113526116Y-126812012D01*
X113637987Y-126923883D01*
X113637994Y-126923888D01*
X113769541Y-127011785D01*
X113915711Y-127072331D01*
X113915714Y-127072332D01*
X114070888Y-127103199D01*
X114070892Y-127103200D01*
X114141250Y-127103200D01*
X114141250Y-126670226D01*
X114145606Y-126672741D01*
X114247339Y-126700000D01*
X114352661Y-126700000D01*
X114454394Y-126672741D01*
X114458750Y-126670226D01*
X114458750Y-127103200D01*
X114529108Y-127103200D01*
X114529111Y-127103199D01*
X114684285Y-127072332D01*
X114684288Y-127072331D01*
X114830457Y-127011785D01*
X114865498Y-126988373D01*
X114933251Y-126967158D01*
X115001718Y-126985941D01*
X115049161Y-127038758D01*
X115061500Y-127093138D01*
X115061500Y-127445163D01*
X115041498Y-127513284D01*
X114987842Y-127559777D01*
X114917568Y-127569881D01*
X114865500Y-127549929D01*
X114854761Y-127542753D01*
X114854758Y-127542752D01*
X114699254Y-127478340D01*
X114699249Y-127478338D01*
X114534163Y-127445500D01*
X114534161Y-127445500D01*
X114065839Y-127445500D01*
X114065836Y-127445500D01*
X113900750Y-127478338D01*
X113900745Y-127478340D01*
X113745241Y-127542752D01*
X113605292Y-127636263D01*
X113605285Y-127636268D01*
X113486268Y-127755285D01*
X113486263Y-127755292D01*
X113392752Y-127895241D01*
X113328340Y-128050745D01*
X113328338Y-128050750D01*
X113295500Y-128215836D01*
X113295500Y-128384163D01*
X113328338Y-128549249D01*
X113328340Y-128549254D01*
X113340040Y-128577500D01*
X113392752Y-128704758D01*
X113486266Y-128844712D01*
X113605288Y-128963734D01*
X113745242Y-129057248D01*
X113900751Y-129121662D01*
X114065839Y-129154500D01*
X114065840Y-129154500D01*
X114534160Y-129154500D01*
X114534161Y-129154500D01*
X114699249Y-129121662D01*
X114854758Y-129057248D01*
X114865497Y-129050072D01*
X114933247Y-129028856D01*
X115001715Y-129047637D01*
X115049160Y-129100453D01*
X115061500Y-129154836D01*
X115061500Y-129445163D01*
X115041498Y-129513284D01*
X114987842Y-129559777D01*
X114917568Y-129569881D01*
X114865500Y-129549929D01*
X114854761Y-129542753D01*
X114854758Y-129542752D01*
X114699254Y-129478340D01*
X114699249Y-129478338D01*
X114534163Y-129445500D01*
X114534161Y-129445500D01*
X114065839Y-129445500D01*
X114065836Y-129445500D01*
X113900750Y-129478338D01*
X113900745Y-129478340D01*
X113745241Y-129542752D01*
X113605292Y-129636263D01*
X113605285Y-129636268D01*
X113486268Y-129755285D01*
X113486263Y-129755292D01*
X113392752Y-129895241D01*
X113328340Y-130050745D01*
X113328338Y-130050750D01*
X113295500Y-130215836D01*
X113295500Y-130384163D01*
X113317575Y-130495138D01*
X113328338Y-130549249D01*
X113392752Y-130704758D01*
X113486266Y-130844712D01*
X113605288Y-130963734D01*
X113745242Y-131057248D01*
X113900751Y-131121662D01*
X114065839Y-131154500D01*
X114065840Y-131154500D01*
X114534160Y-131154500D01*
X114534161Y-131154500D01*
X114699249Y-131121662D01*
X114854758Y-131057248D01*
X114865497Y-131050072D01*
X114933247Y-131028856D01*
X115001715Y-131047637D01*
X115049160Y-131100453D01*
X115061500Y-131154836D01*
X115061500Y-131445163D01*
X115041498Y-131513284D01*
X114987842Y-131559777D01*
X114917568Y-131569881D01*
X114865500Y-131549929D01*
X114854761Y-131542753D01*
X114854758Y-131542752D01*
X114699254Y-131478340D01*
X114699249Y-131478338D01*
X114534163Y-131445500D01*
X114534161Y-131445500D01*
X114065839Y-131445500D01*
X114065836Y-131445500D01*
X113900750Y-131478338D01*
X113900745Y-131478340D01*
X113745241Y-131542752D01*
X113605292Y-131636263D01*
X113605285Y-131636268D01*
X113486268Y-131755285D01*
X113486263Y-131755292D01*
X113392752Y-131895241D01*
X113328340Y-132050745D01*
X113328338Y-132050750D01*
X113295500Y-132215836D01*
X113295500Y-132384163D01*
X113328338Y-132549249D01*
X113328340Y-132549254D01*
X113376060Y-132664461D01*
X113392752Y-132704758D01*
X113486266Y-132844712D01*
X113486268Y-132844714D01*
X113521959Y-132880405D01*
X113555985Y-132942717D01*
X113550920Y-133013532D01*
X113508373Y-133070368D01*
X113441853Y-133095179D01*
X113432864Y-133095500D01*
X112319899Y-133095500D01*
X112188377Y-133121662D01*
X112188376Y-133121661D01*
X112172591Y-133124802D01*
X112172588Y-133124802D01*
X112172587Y-133124803D01*
X112172585Y-133124803D01*
X112172581Y-133124805D01*
X112033822Y-133182281D01*
X111908934Y-133265727D01*
X111908930Y-133265730D01*
X110659730Y-134514930D01*
X110659727Y-134514934D01*
X110639076Y-134545842D01*
X110589192Y-134620500D01*
X110576282Y-134639821D01*
X110553775Y-134694158D01*
X110518805Y-134778582D01*
X110518803Y-134778585D01*
X110488292Y-134931971D01*
X110485755Y-134931466D01*
X110465169Y-134982403D01*
X110465872Y-134982873D01*
X110463615Y-134986250D01*
X110463379Y-134986835D01*
X110462477Y-134987952D01*
X110351190Y-135154507D01*
X110274565Y-135339494D01*
X110274564Y-135339497D01*
X110235500Y-135535880D01*
X110235500Y-137260119D01*
X110274564Y-137456502D01*
X110274565Y-137456505D01*
X110288098Y-137489177D01*
X110351190Y-137641493D01*
X110462433Y-137807981D01*
X110462434Y-137807982D01*
X110462439Y-137807988D01*
X110604011Y-137949560D01*
X110604017Y-137949565D01*
X110604019Y-137949567D01*
X110770507Y-138060810D01*
X110955498Y-138137436D01*
X111151884Y-138176500D01*
X111352116Y-138176500D01*
X111548502Y-138137436D01*
X111733493Y-138060810D01*
X111899981Y-137949567D01*
X112041567Y-137807981D01*
X112152810Y-137641493D01*
X112229436Y-137456502D01*
X112268500Y-137260116D01*
X112268500Y-135535884D01*
X112229436Y-135339498D01*
X112229434Y-135339494D01*
X112229432Y-135339486D01*
X112192064Y-135249274D01*
X112184474Y-135178685D01*
X112216252Y-135115197D01*
X112219346Y-135111990D01*
X112673934Y-134657404D01*
X112736246Y-134623379D01*
X112763029Y-134620500D01*
X113159123Y-134620500D01*
X113227244Y-134640502D01*
X113273737Y-134694158D01*
X113283841Y-134764432D01*
X113254347Y-134829012D01*
X113229124Y-134851265D01*
X113176729Y-134886273D01*
X113176718Y-134886282D01*
X113042282Y-135020718D01*
X113042277Y-135020725D01*
X112936651Y-135178805D01*
X112863894Y-135354456D01*
X112863892Y-135354461D01*
X112826800Y-135540933D01*
X112826800Y-136239250D01*
X113308616Y-136239250D01*
X113284000Y-136331120D01*
X113284000Y-136464880D01*
X113308616Y-136556750D01*
X112826800Y-136556750D01*
X112826800Y-137255066D01*
X112863892Y-137441538D01*
X112863894Y-137441543D01*
X112936651Y-137617194D01*
X113042277Y-137775274D01*
X113042282Y-137775281D01*
X113176718Y-137909717D01*
X113176725Y-137909722D01*
X113334805Y-138015348D01*
X113510456Y-138088105D01*
X113510461Y-138088107D01*
X113633250Y-138112531D01*
X113633250Y-136881383D01*
X113725120Y-136906000D01*
X113858880Y-136906000D01*
X113950750Y-136881383D01*
X113950750Y-138112530D01*
X114073538Y-138088107D01*
X114073543Y-138088105D01*
X114249194Y-138015348D01*
X114407274Y-137909722D01*
X114407281Y-137909717D01*
X114541717Y-137775281D01*
X114541722Y-137775274D01*
X114647348Y-137617194D01*
X114720105Y-137441543D01*
X114720107Y-137441538D01*
X114757199Y-137255066D01*
X114757200Y-137255062D01*
X114757200Y-136556750D01*
X114275384Y-136556750D01*
X114300000Y-136464880D01*
X114300000Y-136331120D01*
X114275384Y-136239250D01*
X114757200Y-136239250D01*
X114757200Y-135540937D01*
X114757199Y-135540933D01*
X114720107Y-135354461D01*
X114720105Y-135354456D01*
X114647348Y-135178805D01*
X114541722Y-135020725D01*
X114541717Y-135020718D01*
X114407281Y-134886282D01*
X114407270Y-134886273D01*
X114354876Y-134851265D01*
X114309348Y-134796789D01*
X114300499Y-134726346D01*
X114331140Y-134662301D01*
X114391542Y-134624990D01*
X114424877Y-134620500D01*
X115010100Y-134620500D01*
X115157413Y-134591197D01*
X115296179Y-134533718D01*
X115324290Y-134514935D01*
X115421065Y-134450273D01*
X116416273Y-133455065D01*
X116499718Y-133330179D01*
X116557197Y-133191413D01*
X116586500Y-133044100D01*
X116586500Y-132893900D01*
X116586500Y-121082900D01*
X116557197Y-120935587D01*
X116499718Y-120796821D01*
X116472944Y-120756751D01*
X116416272Y-120671934D01*
X116416271Y-120671933D01*
X116416268Y-120671929D01*
X115099405Y-119355066D01*
X115065379Y-119292754D01*
X115062500Y-119265971D01*
X115062500Y-118945671D01*
X115082502Y-118877550D01*
X115118495Y-118840908D01*
X115183484Y-118797484D01*
X115239734Y-118713301D01*
X115254500Y-118639067D01*
X115254499Y-117388934D01*
X115254498Y-117388931D01*
X115254498Y-117388926D01*
X115239734Y-117314699D01*
X115235033Y-117307664D01*
X115183484Y-117230516D01*
X115183083Y-117230248D01*
X115099302Y-117174266D01*
X115025069Y-117159500D01*
X115025067Y-117159500D01*
X113763931Y-117159500D01*
X113695810Y-117139498D01*
X113649317Y-117085842D01*
X113637931Y-117033500D01*
X113637931Y-116894660D01*
X113657933Y-116826539D01*
X113711589Y-116780046D01*
X113781863Y-116769942D01*
X113812148Y-116778250D01*
X113950751Y-116835662D01*
X114115839Y-116868500D01*
X114115840Y-116868500D01*
X114484160Y-116868500D01*
X114484161Y-116868500D01*
X114649249Y-116835662D01*
X114804758Y-116771248D01*
X114944712Y-116677734D01*
X115063734Y-116558712D01*
X115157248Y-116418758D01*
X115221662Y-116263249D01*
X115254500Y-116098161D01*
X115254500Y-115929839D01*
X115221662Y-115764751D01*
X115157248Y-115609242D01*
X115063734Y-115469288D01*
X114944712Y-115350266D01*
X114804758Y-115256752D01*
X114649249Y-115192338D01*
X114484163Y-115159500D01*
X114484161Y-115159500D01*
X114115839Y-115159500D01*
X114115836Y-115159500D01*
X113950750Y-115192338D01*
X113950744Y-115192340D01*
X113812149Y-115249748D01*
X113741559Y-115257337D01*
X113678072Y-115225557D01*
X113641845Y-115164499D01*
X113637931Y-115133339D01*
X113637931Y-114838931D01*
X113657933Y-114770810D01*
X113711589Y-114724317D01*
X113781863Y-114714213D01*
X113813357Y-114724541D01*
X113813823Y-114723417D01*
X113965711Y-114786331D01*
X113965714Y-114786332D01*
X114120888Y-114817199D01*
X114120892Y-114817200D01*
X114141250Y-114817200D01*
X114141250Y-114384226D01*
X114145606Y-114386741D01*
X114247339Y-114414000D01*
X114352661Y-114414000D01*
X114454394Y-114386741D01*
X114458750Y-114384226D01*
X114458750Y-114817200D01*
X114479108Y-114817200D01*
X114479111Y-114817199D01*
X114634285Y-114786332D01*
X114634288Y-114786331D01*
X114780458Y-114725785D01*
X114912005Y-114637888D01*
X114912012Y-114637883D01*
X115023883Y-114526012D01*
X115023888Y-114526005D01*
X115111785Y-114394458D01*
X115172331Y-114248288D01*
X115172332Y-114248285D01*
X115187358Y-114172750D01*
X114670226Y-114172750D01*
X114672741Y-114168394D01*
X114700000Y-114066661D01*
X114700000Y-113961339D01*
X114672741Y-113859606D01*
X114670226Y-113855250D01*
X115187357Y-113855250D01*
X115172332Y-113779714D01*
X115172331Y-113779711D01*
X115111785Y-113633541D01*
X115023888Y-113501994D01*
X115023883Y-113501987D01*
X114912012Y-113390116D01*
X114912005Y-113390111D01*
X114780458Y-113302214D01*
X114634288Y-113241668D01*
X114634285Y-113241667D01*
X114479111Y-113210800D01*
X114458750Y-113210800D01*
X114458750Y-113643773D01*
X114454394Y-113641259D01*
X114352661Y-113614000D01*
X114247339Y-113614000D01*
X114145606Y-113641259D01*
X114141250Y-113643773D01*
X114141250Y-113210800D01*
X114120888Y-113210800D01*
X113965714Y-113241667D01*
X113965707Y-113241669D01*
X113951199Y-113247679D01*
X113939814Y-113248902D01*
X113929766Y-113254390D01*
X113905149Y-113252629D01*
X113880609Y-113255268D01*
X113870370Y-113250142D01*
X113858950Y-113249326D01*
X113839192Y-113234535D01*
X113817123Y-113223488D01*
X113811280Y-113213641D01*
X113802114Y-113206779D01*
X113793488Y-113183654D01*
X113780896Y-113162430D01*
X113781304Y-113150987D01*
X113777303Y-113140259D01*
X113782549Y-113116142D01*
X113783430Y-113091478D01*
X113790351Y-113080272D01*
X113792394Y-113070885D01*
X113813884Y-113042177D01*
X113961222Y-112894838D01*
X114023532Y-112860815D01*
X114074897Y-112860356D01*
X114115839Y-112868500D01*
X114484160Y-112868500D01*
X114484161Y-112868500D01*
X114649249Y-112835662D01*
X114804758Y-112771248D01*
X114944712Y-112677734D01*
X115063734Y-112558712D01*
X115157248Y-112418758D01*
X115221662Y-112263249D01*
X115254500Y-112098161D01*
X115254500Y-111929839D01*
X115221662Y-111764751D01*
X115157248Y-111609242D01*
X115063734Y-111469288D01*
X115020142Y-111425696D01*
X114986116Y-111363384D01*
X114991181Y-111292569D01*
X115020140Y-111247508D01*
X115035402Y-111232247D01*
X115621276Y-110646373D01*
X115671502Y-110559379D01*
X115697500Y-110462351D01*
X115697500Y-110361901D01*
X115697500Y-110128927D01*
X115717502Y-110060806D01*
X115771158Y-110014313D01*
X115823185Y-110002927D01*
X116873687Y-110000314D01*
X116941857Y-110020147D01*
G37*
%TD.AperFunction*%
%TA.AperFunction,Conductor*%
G36*
X99879822Y-128206220D02*
G01*
X99892978Y-128215011D01*
X100012089Y-128264348D01*
X100138537Y-128289500D01*
X100138538Y-128289500D01*
X100203500Y-128289500D01*
X100271621Y-128309502D01*
X100318114Y-128363158D01*
X100329500Y-128415500D01*
X100329500Y-129590223D01*
X100329499Y-129590223D01*
X100355500Y-129687258D01*
X100383296Y-129735401D01*
X100395800Y-129757058D01*
X100405724Y-129774247D01*
X100405725Y-129774248D01*
X100405729Y-129774253D01*
X102968985Y-132337507D01*
X102999037Y-132392543D01*
X103000857Y-132391992D01*
X103002653Y-132397914D01*
X103007282Y-132409089D01*
X103051989Y-132517022D01*
X103073523Y-132549249D01*
X103123616Y-132624219D01*
X103123621Y-132624225D01*
X103214774Y-132715378D01*
X103214780Y-132715383D01*
X103321978Y-132787011D01*
X103441089Y-132836348D01*
X103567537Y-132861500D01*
X103567538Y-132861500D01*
X103696462Y-132861500D01*
X103696463Y-132861500D01*
X103822911Y-132836348D01*
X103942022Y-132787011D01*
X103976482Y-132763984D01*
X104044232Y-132742770D01*
X104112699Y-132761552D01*
X104160143Y-132814368D01*
X104162889Y-132820527D01*
X104172908Y-132844714D01*
X104194989Y-132898022D01*
X104266616Y-133005219D01*
X104266621Y-133005225D01*
X104357774Y-133096378D01*
X104357780Y-133096383D01*
X104464978Y-133168011D01*
X104584089Y-133217348D01*
X104710537Y-133242500D01*
X104710538Y-133242500D01*
X104839462Y-133242500D01*
X104839463Y-133242500D01*
X104965911Y-133217348D01*
X105085022Y-133168011D01*
X105192220Y-133096383D01*
X105283383Y-133005220D01*
X105355011Y-132898022D01*
X105404348Y-132778911D01*
X105429500Y-132652463D01*
X105429500Y-132525212D01*
X105449502Y-132457091D01*
X105466400Y-132436121D01*
X105811682Y-132090838D01*
X105811692Y-132090831D01*
X105893081Y-132009442D01*
X105893087Y-132009436D01*
X105932090Y-131941880D01*
X105943310Y-131922447D01*
X105943310Y-131922446D01*
X105943312Y-131922443D01*
X105969311Y-131825414D01*
X105969311Y-129953401D01*
X105989313Y-129885280D01*
X106006216Y-129864306D01*
X106716023Y-129154499D01*
X107439680Y-128430841D01*
X107501990Y-128396818D01*
X107572805Y-128401882D01*
X107629641Y-128444429D01*
X107652351Y-128495353D01*
X107656926Y-128518348D01*
X107657522Y-128521346D01*
X107706859Y-128640457D01*
X107739179Y-128688827D01*
X107778486Y-128747654D01*
X107778491Y-128747660D01*
X107869644Y-128838813D01*
X107869650Y-128838818D01*
X107976848Y-128910446D01*
X108095959Y-128959783D01*
X108222407Y-128984935D01*
X108222408Y-128984935D01*
X108351332Y-128984935D01*
X108351333Y-128984935D01*
X108477781Y-128959783D01*
X108596892Y-128910446D01*
X108704090Y-128838818D01*
X108795253Y-128747655D01*
X108866881Y-128640457D01*
X108916218Y-128521346D01*
X108941370Y-128394898D01*
X108941370Y-128394894D01*
X108941396Y-128394764D01*
X108949151Y-128379937D01*
X108952047Y-128363459D01*
X108965265Y-128349130D01*
X108974303Y-128331854D01*
X108989279Y-128323102D01*
X109000189Y-128311277D01*
X109027636Y-128300687D01*
X109033259Y-128297402D01*
X109042475Y-128295005D01*
X109044220Y-128295005D01*
X109170668Y-128269853D01*
X109223803Y-128247843D01*
X109232242Y-128245649D01*
X109259358Y-128246493D01*
X109286328Y-128243594D01*
X109294296Y-128247582D01*
X109303204Y-128247860D01*
X109325556Y-128263229D01*
X109349816Y-128275372D01*
X109353053Y-128278497D01*
X109648550Y-128573994D01*
X109682576Y-128636306D01*
X109677511Y-128707121D01*
X109634964Y-128763957D01*
X109607674Y-128779497D01*
X109539216Y-128807853D01*
X109539212Y-128807855D01*
X109432014Y-128879483D01*
X109432008Y-128879488D01*
X109340855Y-128970641D01*
X109340850Y-128970647D01*
X109269223Y-129077845D01*
X109219888Y-129196950D01*
X109219886Y-129196955D01*
X109194734Y-129323401D01*
X109194734Y-129452332D01*
X109206858Y-129513284D01*
X109219886Y-129578778D01*
X109269223Y-129697889D01*
X109294288Y-129735401D01*
X109306651Y-129753903D01*
X109327866Y-129821655D01*
X109309083Y-129890122D01*
X109256266Y-129937566D01*
X109250105Y-129940314D01*
X109209829Y-129956997D01*
X109183558Y-129967879D01*
X109163976Y-129975990D01*
X109056780Y-130047616D01*
X109056774Y-130047621D01*
X108965621Y-130138774D01*
X108965616Y-130138780D01*
X108893989Y-130245978D01*
X108844654Y-130365083D01*
X108844652Y-130365088D01*
X108819500Y-130491534D01*
X108819500Y-130491537D01*
X108819500Y-130620463D01*
X108844652Y-130746911D01*
X108893989Y-130866022D01*
X108941849Y-130937649D01*
X108965616Y-130973219D01*
X108965621Y-130973225D01*
X109056774Y-131064378D01*
X109056780Y-131064383D01*
X109163978Y-131136011D01*
X109283089Y-131185348D01*
X109409537Y-131210500D01*
X109409538Y-131210500D01*
X109538462Y-131210500D01*
X109538463Y-131210500D01*
X109664911Y-131185348D01*
X109784022Y-131136011D01*
X109891220Y-131064383D01*
X109982383Y-130973220D01*
X110054011Y-130866022D01*
X110103348Y-130746911D01*
X110128500Y-130620463D01*
X110128500Y-130491537D01*
X110103348Y-130365089D01*
X110054011Y-130245978D01*
X110016582Y-130189963D01*
X109995367Y-130122211D01*
X110014149Y-130053744D01*
X110066966Y-130006300D01*
X110073121Y-130003555D01*
X110159256Y-129967878D01*
X110266454Y-129896250D01*
X110357617Y-129805087D01*
X110429245Y-129697889D01*
X110457602Y-129629427D01*
X110502149Y-129574147D01*
X110569513Y-129551725D01*
X110638304Y-129569283D01*
X110663106Y-129588550D01*
X111770561Y-130696005D01*
X111804587Y-130758317D01*
X111799522Y-130829132D01*
X111756975Y-130885968D01*
X111690455Y-130910779D01*
X111681466Y-130911100D01*
X111025491Y-130911100D01*
X110922011Y-130938828D01*
X110922006Y-130938830D01*
X110840184Y-130986069D01*
X110829222Y-130992399D01*
X110829220Y-130992400D01*
X110829214Y-130992405D01*
X106874905Y-134946714D01*
X106874897Y-134946724D01*
X106821331Y-135039504D01*
X106799334Y-135121596D01*
X106799333Y-135121602D01*
X106796306Y-135132901D01*
X106793601Y-135142995D01*
X106793601Y-135196195D01*
X106793231Y-135201010D01*
X106782292Y-135229866D01*
X106773599Y-135259476D01*
X106768823Y-135265401D01*
X106768067Y-135267398D01*
X106765954Y-135268961D01*
X106756696Y-135280451D01*
X106708929Y-135328217D01*
X106646616Y-135362242D01*
X106575800Y-135357176D01*
X106530738Y-135328216D01*
X106324118Y-135121596D01*
X106028168Y-134825645D01*
X106028166Y-134825644D01*
X106028164Y-134825642D01*
X106013877Y-134817394D01*
X105941179Y-134775421D01*
X105900167Y-134764432D01*
X105844146Y-134749421D01*
X105844144Y-134749421D01*
X104074804Y-134749421D01*
X104006683Y-134729419D01*
X103985709Y-134712516D01*
X99848813Y-130575618D01*
X99848808Y-130575614D01*
X99848806Y-130575612D01*
X99848802Y-130575610D01*
X99848800Y-130575608D01*
X99825940Y-130562409D01*
X99825937Y-130562409D01*
X99761817Y-130525389D01*
X99761814Y-130525388D01*
X99761813Y-130525387D01*
X99761811Y-130525386D01*
X99761810Y-130525386D01*
X99735812Y-130518420D01*
X99664784Y-130499388D01*
X99664782Y-130499388D01*
X97774944Y-130499388D01*
X97706823Y-130479386D01*
X97660330Y-130425730D01*
X97650226Y-130355456D01*
X97679720Y-130290876D01*
X97685849Y-130284293D01*
X99671394Y-128298748D01*
X99671400Y-128298742D01*
X99700703Y-128247986D01*
X99752085Y-128198994D01*
X99821798Y-128185557D01*
X99879822Y-128206220D01*
G37*
%TD.AperFunction*%
%TA.AperFunction,Conductor*%
G36*
X96597514Y-126575697D02*
G01*
X96627138Y-126580448D01*
X96631529Y-126584379D01*
X96637239Y-126585837D01*
X96657681Y-126607793D01*
X96680033Y-126627804D01*
X96683327Y-126635337D01*
X96685618Y-126637798D01*
X96690026Y-126650657D01*
X96694401Y-126660663D01*
X96695628Y-126665107D01*
X96720652Y-126790911D01*
X96749784Y-126861244D01*
X96751855Y-126868742D01*
X96751400Y-126896772D01*
X96754398Y-126924650D01*
X96750833Y-126931770D01*
X96750705Y-126939730D01*
X96735170Y-126963062D01*
X96722619Y-126988137D01*
X96715770Y-126992200D01*
X96711359Y-126998826D01*
X96678619Y-127018687D01*
X96590976Y-127054990D01*
X96483780Y-127126616D01*
X96483774Y-127126621D01*
X96392621Y-127217774D01*
X96392616Y-127217780D01*
X96320989Y-127324978D01*
X96271654Y-127444083D01*
X96271652Y-127444088D01*
X96246500Y-127570534D01*
X96246500Y-127699465D01*
X96258362Y-127759099D01*
X96271652Y-127825911D01*
X96320989Y-127945022D01*
X96348331Y-127985942D01*
X96392616Y-128052219D01*
X96392621Y-128052225D01*
X96483774Y-128143378D01*
X96483780Y-128143383D01*
X96590978Y-128215011D01*
X96710089Y-128264348D01*
X96836537Y-128289500D01*
X96836538Y-128289500D01*
X96965462Y-128289500D01*
X96965463Y-128289500D01*
X97091911Y-128264348D01*
X97211022Y-128215011D01*
X97318220Y-128143383D01*
X97318219Y-128143383D01*
X97323367Y-128139944D01*
X97324643Y-128141854D01*
X97380513Y-128118100D01*
X97450496Y-128130054D01*
X97502907Y-128177945D01*
X97518728Y-128218665D01*
X97532818Y-128289499D01*
X97541652Y-128333911D01*
X97590989Y-128453022D01*
X97606814Y-128476705D01*
X97662616Y-128560219D01*
X97662621Y-128560225D01*
X97753774Y-128651378D01*
X97753780Y-128651383D01*
X97860978Y-128723011D01*
X97860987Y-128723015D01*
X97864457Y-128724869D01*
X97865942Y-128726328D01*
X97866125Y-128726450D01*
X97866101Y-128726484D01*
X97915108Y-128774619D01*
X97930822Y-128843854D01*
X97906609Y-128910595D01*
X97894162Y-128925090D01*
X97389435Y-129429817D01*
X97327123Y-129463843D01*
X97256308Y-129458778D01*
X97199472Y-129416231D01*
X97174946Y-129353068D01*
X97174500Y-129348544D01*
X97174500Y-129348537D01*
X97149348Y-129222089D01*
X97100011Y-129102978D01*
X97028383Y-128995780D01*
X97028378Y-128995774D01*
X96937225Y-128904621D01*
X96937219Y-128904616D01*
X96888169Y-128871842D01*
X96830022Y-128832989D01*
X96710911Y-128783652D01*
X96703863Y-128782250D01*
X96584465Y-128758500D01*
X96584463Y-128758500D01*
X96455537Y-128758500D01*
X96455534Y-128758500D01*
X96329088Y-128783652D01*
X96329083Y-128783654D01*
X96209978Y-128832989D01*
X96102780Y-128904616D01*
X96102774Y-128904621D01*
X96011621Y-128995774D01*
X96011616Y-128995780D01*
X95939989Y-129102978D01*
X95890654Y-129222083D01*
X95890652Y-129222088D01*
X95865500Y-129348534D01*
X95865500Y-129477465D01*
X95890652Y-129603911D01*
X95890654Y-129603916D01*
X95939989Y-129723022D01*
X96005307Y-129820777D01*
X96026522Y-129888530D01*
X96007739Y-129956997D01*
X95954922Y-130004440D01*
X95900542Y-130016779D01*
X94441946Y-130016779D01*
X94373825Y-129996777D01*
X94327332Y-129943121D01*
X94317228Y-129872847D01*
X94346722Y-129808267D01*
X94352851Y-129801684D01*
X94367776Y-129786758D01*
X94367781Y-129786753D01*
X94439409Y-129679555D01*
X94488746Y-129560444D01*
X94513898Y-129433996D01*
X94513898Y-129305070D01*
X94488746Y-129178622D01*
X94439409Y-129059511D01*
X94367781Y-128952313D01*
X94367780Y-128952312D01*
X94367776Y-128952307D01*
X94276623Y-128861154D01*
X94276617Y-128861149D01*
X94214285Y-128819500D01*
X94169420Y-128789522D01*
X94050309Y-128740185D01*
X94016033Y-128733367D01*
X93923863Y-128715033D01*
X93923861Y-128715033D01*
X93794935Y-128715033D01*
X93794932Y-128715033D01*
X93668486Y-128740185D01*
X93668481Y-128740187D01*
X93549376Y-128789522D01*
X93442178Y-128861149D01*
X93442172Y-128861154D01*
X93351019Y-128952307D01*
X93351015Y-128952312D01*
X93330801Y-128982564D01*
X93276323Y-129028091D01*
X93205879Y-129036937D01*
X93166302Y-129021366D01*
X93165479Y-129022906D01*
X93160022Y-129019989D01*
X93040916Y-128970654D01*
X93040911Y-128970652D01*
X92914465Y-128945500D01*
X92914463Y-128945500D01*
X92861900Y-128945500D01*
X92793779Y-128925498D01*
X92747286Y-128871842D01*
X92735900Y-128819500D01*
X92735900Y-128363734D01*
X92755902Y-128295613D01*
X92772805Y-128274639D01*
X93222639Y-127824805D01*
X93284951Y-127790779D01*
X93311734Y-127787900D01*
X94356885Y-127787900D01*
X94460373Y-127760170D01*
X94553158Y-127706601D01*
X95310865Y-126948893D01*
X95373174Y-126914871D01*
X95443989Y-126919935D01*
X95469959Y-126933226D01*
X95493411Y-126948896D01*
X95539978Y-126980011D01*
X95659089Y-127029348D01*
X95785537Y-127054500D01*
X95785538Y-127054500D01*
X95914462Y-127054500D01*
X95914463Y-127054500D01*
X96040911Y-127029348D01*
X96160022Y-126980011D01*
X96267220Y-126908383D01*
X96358383Y-126817220D01*
X96430011Y-126710022D01*
X96456537Y-126645981D01*
X96475361Y-126622621D01*
X96491987Y-126597651D01*
X96497386Y-126595290D01*
X96501085Y-126590700D01*
X96529550Y-126581225D01*
X96557036Y-126569207D01*
X96562855Y-126570140D01*
X96568448Y-126568279D01*
X96597514Y-126575697D01*
G37*
%TD.AperFunction*%
%TA.AperFunction,Conductor*%
G36*
X95901274Y-114379542D02*
G01*
X95902432Y-114379376D01*
X95933729Y-114393669D01*
X95965300Y-114407412D01*
X95966329Y-114408558D01*
X95967012Y-114408870D01*
X95989265Y-114434093D01*
X96054721Y-114532056D01*
X96054726Y-114532062D01*
X96054728Y-114532065D01*
X96160935Y-114638272D01*
X96285821Y-114721718D01*
X96424587Y-114779197D01*
X96571900Y-114808500D01*
X97548972Y-114808500D01*
X97617093Y-114828502D01*
X97638067Y-114845405D01*
X99970926Y-117178265D01*
X99970929Y-117178267D01*
X99970934Y-117178272D01*
X100091575Y-117258881D01*
X100091576Y-117258882D01*
X100091575Y-117258882D01*
X100095816Y-117261715D01*
X100095817Y-117261715D01*
X100095821Y-117261718D01*
X100206744Y-117307664D01*
X100216855Y-117311852D01*
X100242805Y-117332764D01*
X100269488Y-117352730D01*
X100270308Y-117354929D01*
X100272135Y-117356401D01*
X100282658Y-117388018D01*
X100294313Y-117419245D01*
X100293814Y-117421537D01*
X100294556Y-117423764D01*
X100286310Y-117456070D01*
X100279236Y-117488623D01*
X100277362Y-117491126D01*
X100276998Y-117492555D01*
X100257750Y-117517337D01*
X100257743Y-117517343D01*
X100257741Y-117517347D01*
X100253056Y-117522033D01*
X100253054Y-117522031D01*
X100253044Y-117522045D01*
X100199744Y-117575344D01*
X100199736Y-117575354D01*
X100149515Y-117662339D01*
X100123515Y-117759374D01*
X100123515Y-117778989D01*
X100103513Y-117847110D01*
X100086610Y-117868084D01*
X99996636Y-117958057D01*
X99996631Y-117958063D01*
X99925004Y-118065261D01*
X99875669Y-118184366D01*
X99875667Y-118184371D01*
X99850515Y-118310817D01*
X99850515Y-118439748D01*
X99871467Y-118545078D01*
X99875667Y-118566194D01*
X99925004Y-118685305D01*
X99961534Y-118739976D01*
X99996631Y-118792502D01*
X99996636Y-118792508D01*
X100087789Y-118883661D01*
X100087795Y-118883666D01*
X100194993Y-118955294D01*
X100314104Y-119004631D01*
X100440552Y-119029783D01*
X100440553Y-119029783D01*
X100569477Y-119029783D01*
X100569478Y-119029783D01*
X100695926Y-119004631D01*
X100815037Y-118955294D01*
X100922235Y-118883666D01*
X101013398Y-118792503D01*
X101085026Y-118685305D01*
X101134363Y-118566194D01*
X101159515Y-118439746D01*
X101159515Y-118310820D01*
X101134363Y-118184372D01*
X101094409Y-118087915D01*
X101086821Y-118017327D01*
X101118600Y-117953840D01*
X101179658Y-117917613D01*
X101210819Y-117913699D01*
X101778522Y-117913699D01*
X101846643Y-117933701D01*
X101893136Y-117987357D01*
X101903240Y-118057631D01*
X101894931Y-118087917D01*
X101859654Y-118173083D01*
X101859652Y-118173088D01*
X101834500Y-118299534D01*
X101834500Y-118428465D01*
X101844351Y-118477988D01*
X101859652Y-118554911D01*
X101908989Y-118674022D01*
X101953058Y-118739976D01*
X101980616Y-118781219D01*
X101980621Y-118781225D01*
X102071774Y-118872378D01*
X102071780Y-118872383D01*
X102178978Y-118944011D01*
X102298089Y-118993348D01*
X102424537Y-119018500D01*
X102424538Y-119018500D01*
X102551787Y-119018500D01*
X102619908Y-119038502D01*
X102640882Y-119055405D01*
X103975595Y-120390118D01*
X104009621Y-120452430D01*
X104012500Y-120479213D01*
X104012500Y-120816706D01*
X103992498Y-120884827D01*
X103938842Y-120931320D01*
X103868568Y-120941424D01*
X103803988Y-120911930D01*
X103797405Y-120905801D01*
X103795225Y-120903621D01*
X103795219Y-120903616D01*
X103728997Y-120859368D01*
X103688022Y-120831989D01*
X103568911Y-120782652D01*
X103442465Y-120757500D01*
X103442463Y-120757500D01*
X103313537Y-120757500D01*
X103313534Y-120757500D01*
X103187088Y-120782652D01*
X103187083Y-120782654D01*
X103067978Y-120831989D01*
X102960780Y-120903616D01*
X102960774Y-120903621D01*
X102869621Y-120994774D01*
X102869616Y-120994780D01*
X102797989Y-121101978D01*
X102748654Y-121221083D01*
X102748652Y-121221088D01*
X102723500Y-121347534D01*
X102723500Y-121474786D01*
X102703498Y-121542907D01*
X102686595Y-121563881D01*
X101698300Y-122552175D01*
X101635988Y-122586201D01*
X101565172Y-122581136D01*
X101508337Y-122538589D01*
X101485626Y-122487662D01*
X101485236Y-122485703D01*
X101461046Y-122364089D01*
X101411709Y-122244978D01*
X101340081Y-122137780D01*
X101340076Y-122137774D01*
X101248923Y-122046621D01*
X101248917Y-122046616D01*
X101203062Y-122015977D01*
X101141720Y-121974989D01*
X101022609Y-121925652D01*
X100996120Y-121920383D01*
X100896163Y-121900500D01*
X100896161Y-121900500D01*
X100767235Y-121900500D01*
X100767232Y-121900500D01*
X100640786Y-121925652D01*
X100640781Y-121925654D01*
X100521676Y-121974989D01*
X100414478Y-122046616D01*
X100414472Y-122046621D01*
X100323319Y-122137774D01*
X100323314Y-122137780D01*
X100251687Y-122244978D01*
X100202352Y-122364083D01*
X100202350Y-122364088D01*
X100177198Y-122490534D01*
X100177198Y-122554774D01*
X100157196Y-122622895D01*
X100103540Y-122669388D01*
X100073623Y-122677458D01*
X100073840Y-122678545D01*
X99941319Y-122704905D01*
X99941314Y-122704907D01*
X99822209Y-122754242D01*
X99715011Y-122825869D01*
X99715005Y-122825874D01*
X99623852Y-122917027D01*
X99623847Y-122917033D01*
X99552219Y-123024231D01*
X99552217Y-123024235D01*
X99546111Y-123038977D01*
X99501561Y-123094256D01*
X99434197Y-123116675D01*
X99365406Y-123099115D01*
X99340609Y-123079850D01*
X99100896Y-122840137D01*
X99066870Y-122777825D01*
X99071935Y-122707010D01*
X99085226Y-122681040D01*
X99087450Y-122677711D01*
X99132011Y-122611022D01*
X99181348Y-122491911D01*
X99206500Y-122365463D01*
X99206500Y-122236537D01*
X99181348Y-122110089D01*
X99132011Y-121990978D01*
X99060383Y-121883780D01*
X99060378Y-121883774D01*
X98969225Y-121792621D01*
X98969219Y-121792616D01*
X98933649Y-121768849D01*
X98862022Y-121720989D01*
X98742911Y-121671652D01*
X98616465Y-121646500D01*
X98616463Y-121646500D01*
X98487537Y-121646500D01*
X98487534Y-121646500D01*
X98361088Y-121671652D01*
X98361083Y-121671654D01*
X98241978Y-121720989D01*
X98134780Y-121792616D01*
X98134774Y-121792621D01*
X98043621Y-121883774D01*
X98043616Y-121883780D01*
X97971989Y-121990978D01*
X97922654Y-122110083D01*
X97922652Y-122110088D01*
X97897500Y-122236534D01*
X97897500Y-122365465D01*
X97918248Y-122469772D01*
X97922652Y-122491911D01*
X97971989Y-122611022D01*
X98016550Y-122677711D01*
X98043616Y-122718219D01*
X98043621Y-122718225D01*
X98108195Y-122782799D01*
X98142221Y-122845111D01*
X98145100Y-122871894D01*
X98145100Y-122920258D01*
X98172829Y-123023742D01*
X98172830Y-123023745D01*
X98226396Y-123116524D01*
X98226398Y-123116526D01*
X98226399Y-123116528D01*
X99136397Y-124026526D01*
X99170421Y-124088837D01*
X99173301Y-124115620D01*
X99173301Y-125893454D01*
X99168734Y-125909007D01*
X99169234Y-125925208D01*
X99158938Y-125942370D01*
X99153299Y-125961575D01*
X99141048Y-125972190D01*
X99132710Y-125986089D01*
X99114770Y-125994960D01*
X99099643Y-126008068D01*
X99082842Y-126010748D01*
X99069070Y-126017559D01*
X99042075Y-126017252D01*
X99033223Y-126018665D01*
X99027929Y-126018069D01*
X98914463Y-125995500D01*
X98827186Y-125995500D01*
X98820168Y-125994711D01*
X98793686Y-125983590D01*
X98766125Y-125975498D01*
X98758113Y-125968652D01*
X98754709Y-125967223D01*
X98752247Y-125963640D01*
X98740177Y-125953327D01*
X98236432Y-125388031D01*
X98226161Y-125373816D01*
X98222277Y-125368754D01*
X98217984Y-125364461D01*
X98197073Y-125343550D01*
X98192116Y-125338299D01*
X98168409Y-125311696D01*
X98163566Y-125307516D01*
X98156313Y-125301611D01*
X98151243Y-125297721D01*
X98120385Y-125279906D01*
X98120383Y-125279905D01*
X98117251Y-125278097D01*
X98084444Y-125256550D01*
X98073882Y-125253058D01*
X98064254Y-125247499D01*
X98064251Y-125247497D01*
X98029852Y-125238280D01*
X98022913Y-125236205D01*
X97989080Y-125225019D01*
X97989067Y-125225016D01*
X97977962Y-125224376D01*
X97967225Y-125221500D01*
X97927987Y-125221500D01*
X97924372Y-125221291D01*
X97891016Y-125219371D01*
X97888787Y-125219243D01*
X97888786Y-125219243D01*
X97882446Y-125219709D01*
X97864979Y-125221500D01*
X93656959Y-125221500D01*
X93656943Y-125221499D01*
X93649225Y-125221499D01*
X93548775Y-125221499D01*
X93500261Y-125234498D01*
X93451745Y-125247498D01*
X93364756Y-125297721D01*
X93364746Y-125297729D01*
X91980187Y-126682288D01*
X91967805Y-126693148D01*
X91965758Y-126694719D01*
X91965753Y-126694723D01*
X91965753Y-126694724D01*
X91778880Y-126881596D01*
X91751512Y-126896540D01*
X91725285Y-126913396D01*
X91718985Y-126914301D01*
X91716571Y-126915620D01*
X91689787Y-126918500D01*
X91652336Y-126918500D01*
X91584215Y-126898498D01*
X91537722Y-126844842D01*
X91527618Y-126774568D01*
X91535925Y-126744287D01*
X91561348Y-126682911D01*
X91586500Y-126556463D01*
X91586500Y-126427537D01*
X91561348Y-126301089D01*
X91512011Y-126181978D01*
X91440383Y-126074780D01*
X91440378Y-126074774D01*
X91349225Y-125983621D01*
X91349219Y-125983616D01*
X91268001Y-125929348D01*
X91242022Y-125911989D01*
X91122911Y-125862652D01*
X90996465Y-125837500D01*
X90996463Y-125837500D01*
X90867537Y-125837500D01*
X90867534Y-125837500D01*
X90741088Y-125862652D01*
X90741083Y-125862654D01*
X90621978Y-125911989D01*
X90514780Y-125983616D01*
X90514774Y-125983621D01*
X90424801Y-126073595D01*
X90397432Y-126088539D01*
X90371204Y-126105396D01*
X90364905Y-126106301D01*
X90362489Y-126107621D01*
X90335706Y-126110500D01*
X90194528Y-126110500D01*
X90126407Y-126090498D01*
X90079914Y-126036842D01*
X90069810Y-125966568D01*
X90099304Y-125901988D01*
X90105421Y-125895416D01*
X90879332Y-125121504D01*
X90941641Y-125087482D01*
X91012456Y-125092546D01*
X91038423Y-125105835D01*
X91129978Y-125167011D01*
X91249089Y-125216348D01*
X91375537Y-125241500D01*
X91375538Y-125241500D01*
X91504462Y-125241500D01*
X91504463Y-125241500D01*
X91630911Y-125216348D01*
X91750022Y-125167011D01*
X91857220Y-125095383D01*
X91948383Y-125004220D01*
X92020011Y-124897022D01*
X92069348Y-124777911D01*
X92094500Y-124651463D01*
X92094500Y-124522537D01*
X92069348Y-124396089D01*
X92020011Y-124276978D01*
X91948383Y-124169780D01*
X91948378Y-124169774D01*
X91857225Y-124078621D01*
X91857216Y-124078613D01*
X91828029Y-124059111D01*
X91782502Y-124004633D01*
X91773655Y-123934190D01*
X91781621Y-123906132D01*
X91829348Y-123790911D01*
X91854500Y-123664463D01*
X91854500Y-123535537D01*
X91829348Y-123409089D01*
X91780011Y-123289978D01*
X91708383Y-123182780D01*
X91708378Y-123182774D01*
X91617225Y-123091621D01*
X91617219Y-123091616D01*
X91538439Y-123038977D01*
X91510022Y-123019989D01*
X91390911Y-122970652D01*
X91320076Y-122956562D01*
X91282919Y-122949171D01*
X91220010Y-122916263D01*
X91184878Y-122854568D01*
X91181501Y-122825592D01*
X91181501Y-122516211D01*
X91201503Y-122448090D01*
X91218401Y-122427121D01*
X93186988Y-120458534D01*
X93960500Y-120458534D01*
X93960500Y-120587465D01*
X93976799Y-120669405D01*
X93985652Y-120713911D01*
X94034989Y-120833022D01*
X94052593Y-120859368D01*
X94106616Y-120940219D01*
X94106621Y-120940225D01*
X94197774Y-121031378D01*
X94197780Y-121031383D01*
X94304978Y-121103011D01*
X94424089Y-121152348D01*
X94550537Y-121177500D01*
X94550538Y-121177500D01*
X94679462Y-121177500D01*
X94679463Y-121177500D01*
X94805911Y-121152348D01*
X94925022Y-121103011D01*
X95032220Y-121031383D01*
X95123383Y-120940220D01*
X95195011Y-120833022D01*
X95244348Y-120713911D01*
X95269500Y-120587463D01*
X95269500Y-120458537D01*
X95244348Y-120332089D01*
X95195011Y-120212978D01*
X95123383Y-120105780D01*
X95123378Y-120105774D01*
X95032225Y-120014621D01*
X95032219Y-120014616D01*
X94962854Y-119968268D01*
X94925022Y-119942989D01*
X94805911Y-119893652D01*
X94679465Y-119868500D01*
X94679463Y-119868500D01*
X94550537Y-119868500D01*
X94550534Y-119868500D01*
X94424088Y-119893652D01*
X94424083Y-119893654D01*
X94304978Y-119942989D01*
X94197780Y-120014616D01*
X94197774Y-120014621D01*
X94106621Y-120105774D01*
X94106616Y-120105780D01*
X94034989Y-120212978D01*
X93985654Y-120332083D01*
X93985652Y-120332088D01*
X93960500Y-120458534D01*
X93186988Y-120458534D01*
X95537532Y-118107989D01*
X95599842Y-118073966D01*
X95670657Y-118079030D01*
X95727493Y-118121577D01*
X95731390Y-118127084D01*
X95791616Y-118217219D01*
X95791621Y-118217225D01*
X95882774Y-118308378D01*
X95882780Y-118308383D01*
X95989978Y-118380011D01*
X96109089Y-118429348D01*
X96235537Y-118454500D01*
X96235538Y-118454500D01*
X96364462Y-118454500D01*
X96364463Y-118454500D01*
X96490911Y-118429348D01*
X96610022Y-118380011D01*
X96717220Y-118308383D01*
X96808383Y-118217220D01*
X96880011Y-118110022D01*
X96929348Y-117990911D01*
X96954500Y-117864463D01*
X96954500Y-117735537D01*
X96929348Y-117609089D01*
X96880011Y-117489978D01*
X96808383Y-117382780D01*
X96808376Y-117382772D01*
X96717225Y-117291621D01*
X96717219Y-117291616D01*
X96668229Y-117258882D01*
X96610022Y-117219989D01*
X96490911Y-117170652D01*
X96448053Y-117162127D01*
X96364465Y-117145500D01*
X96364463Y-117145500D01*
X96235537Y-117145500D01*
X96235534Y-117145500D01*
X96109088Y-117170652D01*
X96109083Y-117170654D01*
X95989979Y-117219988D01*
X95954501Y-117243694D01*
X95886748Y-117264908D01*
X95818281Y-117246124D01*
X95770838Y-117193307D01*
X95758500Y-117138928D01*
X95758500Y-114504094D01*
X95768194Y-114471076D01*
X95777303Y-114437876D01*
X95778172Y-114437094D01*
X95778502Y-114435973D01*
X95804531Y-114413418D01*
X95830121Y-114390433D01*
X95831273Y-114390246D01*
X95832158Y-114389480D01*
X95866246Y-114384578D01*
X95900203Y-114379076D01*
X95901274Y-114379542D01*
G37*
%TD.AperFunction*%
%TA.AperFunction,Conductor*%
G36*
X111550532Y-114675972D02*
G01*
X111607368Y-114718519D01*
X111632179Y-114785039D01*
X111632500Y-114794028D01*
X111632500Y-121250442D01*
X111612498Y-121318563D01*
X111595595Y-121339537D01*
X106808573Y-126126558D01*
X106746261Y-126160584D01*
X106675446Y-126155519D01*
X106618610Y-126112972D01*
X106614713Y-126107465D01*
X106553379Y-126015673D01*
X106553374Y-126015667D01*
X106462221Y-125924514D01*
X106462215Y-125924509D01*
X106355018Y-125852882D01*
X106354228Y-125852460D01*
X106353891Y-125852129D01*
X106349871Y-125849443D01*
X106350380Y-125848680D01*
X106303578Y-125802710D01*
X106287866Y-125733474D01*
X106312079Y-125666734D01*
X106324519Y-125652247D01*
X108554870Y-123421895D01*
X108554880Y-123421888D01*
X108636270Y-123340498D01*
X108636276Y-123340492D01*
X108674852Y-123273676D01*
X108686499Y-123253503D01*
X108686499Y-123253502D01*
X108686501Y-123253499D01*
X108712500Y-123156470D01*
X108712500Y-119456775D01*
X108686501Y-119359746D01*
X108686499Y-119359743D01*
X108686499Y-119359741D01*
X108636278Y-119272756D01*
X108636274Y-119272751D01*
X108614330Y-119250807D01*
X108565247Y-119201724D01*
X107752405Y-118388882D01*
X107718379Y-118326570D01*
X107715500Y-118299787D01*
X107715500Y-118172538D01*
X107715499Y-118172534D01*
X107690348Y-118046089D01*
X107641011Y-117926978D01*
X107569383Y-117819780D01*
X107569378Y-117819774D01*
X107478225Y-117728621D01*
X107478219Y-117728616D01*
X107442649Y-117704849D01*
X107371022Y-117656989D01*
X107251911Y-117607652D01*
X107203782Y-117598078D01*
X107140873Y-117565171D01*
X107105742Y-117503476D01*
X107109542Y-117432581D01*
X107151068Y-117374995D01*
X107217135Y-117349001D01*
X107228365Y-117348500D01*
X108533100Y-117348500D01*
X108680413Y-117319197D01*
X108819179Y-117261718D01*
X108823425Y-117258881D01*
X108944065Y-117178273D01*
X111417405Y-114704933D01*
X111479717Y-114670908D01*
X111550532Y-114675972D01*
G37*
%TD.AperFunction*%
%TA.AperFunction,Conductor*%
G36*
X103792001Y-112733002D02*
G01*
X103812975Y-112749905D01*
X104420095Y-113357025D01*
X104454121Y-113419337D01*
X104457000Y-113446120D01*
X104457000Y-113867305D01*
X104476077Y-113938500D01*
X104495980Y-114012781D01*
X104495983Y-114012788D01*
X104538667Y-114086718D01*
X104571283Y-114143212D01*
X104571291Y-114143222D01*
X105820777Y-115392708D01*
X105820782Y-115392712D01*
X105820784Y-115392714D01*
X105820785Y-115392715D01*
X105820787Y-115392716D01*
X105908537Y-115443378D01*
X105951216Y-115468019D01*
X106096694Y-115507000D01*
X106096695Y-115507000D01*
X106096696Y-115507000D01*
X108025304Y-115507000D01*
X108025305Y-115507000D01*
X108163069Y-115470086D01*
X108234043Y-115471775D01*
X108292840Y-115511568D01*
X108320788Y-115576833D01*
X108309015Y-115646846D01*
X108284775Y-115680887D01*
X108179065Y-115786596D01*
X108116756Y-115820620D01*
X108089972Y-115823500D01*
X100825028Y-115823500D01*
X100756907Y-115803498D01*
X100735933Y-115786595D01*
X99025309Y-114075971D01*
X98991283Y-114013659D01*
X98996348Y-113942844D01*
X99038895Y-113886008D01*
X99089821Y-113863297D01*
X99203202Y-113840745D01*
X99322313Y-113791408D01*
X99429511Y-113719780D01*
X99520674Y-113628617D01*
X99592302Y-113521419D01*
X99605638Y-113489220D01*
X99650185Y-113433941D01*
X99717548Y-113411519D01*
X99786339Y-113429076D01*
X99834718Y-113481037D01*
X99838456Y-113489221D01*
X99861719Y-113545383D01*
X99900326Y-113603162D01*
X99933346Y-113652580D01*
X99933351Y-113652586D01*
X100024504Y-113743739D01*
X100024510Y-113743744D01*
X100131708Y-113815372D01*
X100250819Y-113864709D01*
X100377267Y-113889861D01*
X100377268Y-113889861D01*
X100506192Y-113889861D01*
X100506193Y-113889861D01*
X100632641Y-113864709D01*
X100751752Y-113815372D01*
X100858950Y-113743744D01*
X100858951Y-113743742D01*
X100861805Y-113741836D01*
X100929557Y-113720621D01*
X100998024Y-113739404D01*
X101020902Y-113757506D01*
X101055774Y-113792378D01*
X101055780Y-113792383D01*
X101162978Y-113864011D01*
X101282089Y-113913348D01*
X101408537Y-113938500D01*
X101408538Y-113938500D01*
X101537462Y-113938500D01*
X101537463Y-113938500D01*
X101663911Y-113913348D01*
X101783022Y-113864011D01*
X101890220Y-113792383D01*
X101925238Y-113757365D01*
X101965105Y-113717499D01*
X102027417Y-113683473D01*
X102098232Y-113688538D01*
X102143295Y-113717499D01*
X102179375Y-113753579D01*
X102179381Y-113753584D01*
X102286579Y-113825212D01*
X102405690Y-113874549D01*
X102532138Y-113899701D01*
X102532139Y-113899701D01*
X102661063Y-113899701D01*
X102661064Y-113899701D01*
X102787512Y-113874549D01*
X102906623Y-113825212D01*
X103013821Y-113753584D01*
X103104984Y-113662421D01*
X103176612Y-113555223D01*
X103225949Y-113436112D01*
X103251101Y-113309664D01*
X103251101Y-113180738D01*
X103225949Y-113054290D01*
X103176612Y-112935179D01*
X103159121Y-112909002D01*
X103137906Y-112841249D01*
X103156689Y-112772782D01*
X103209506Y-112725339D01*
X103263886Y-112713000D01*
X103723880Y-112713000D01*
X103792001Y-112733002D01*
G37*
%TD.AperFunction*%
%TD*%
M02*
