%TF.GenerationSoftware,KiCad,Pcbnew,9.0.2*%
%TF.CreationDate,2026-05-29T08:24:13+07:00*%
%TF.ProjectId,after-remap,61667465-722d-4726-956d-61702e6b6963,A*%
%TF.SameCoordinates,Original*%
%TF.FileFunction,Soldermask,Bot*%
%TF.FilePolarity,Negative*%
%FSLAX46Y46*%
G04 Gerber Fmt 4.6, Leading zero omitted, Abs format (unit mm)*
G04 Created by KiCad (PCBNEW 9.0.2) date 2026-05-29 08:24:13*
%MOMM*%
%LPD*%
G01*
G04 APERTURE LIST*
G04 Aperture macros list*
%AMRoundRect*
0 Rectangle with rounded corners*
0 $1 Rounding radius*
0 $2 $3 $4 $5 $6 $7 $8 $9 X,Y pos of 4 corners*
0 Add a 4 corners polygon primitive as box body*
4,1,4,$2,$3,$4,$5,$6,$7,$8,$9,$2,$3,0*
0 Add four circle primitives for the rounded corners*
1,1,$1+$1,$2,$3*
1,1,$1+$1,$4,$5*
1,1,$1+$1,$6,$7*
1,1,$1+$1,$8,$9*
0 Add four rect primitives between the rounded corners*
20,1,$1+$1,$2,$3,$4,$5,0*
20,1,$1+$1,$4,$5,$6,$7,0*
20,1,$1+$1,$6,$7,$8,$9,0*
20,1,$1+$1,$8,$9,$2,$3,0*%
G04 Aperture macros list end*
%ADD10O,3.048000X1.524000*%
%ADD11RoundRect,0.050800X0.600000X0.750000X-0.600000X0.750000X-0.600000X-0.750000X0.600000X-0.750000X0*%
%ADD12O,1.301600X1.601600*%
%ADD13O,1.701600X1.701600*%
%ADD14RoundRect,0.050800X0.600000X0.700000X-0.600000X0.700000X-0.600000X-0.700000X0.600000X-0.700000X0*%
%ADD15O,1.301600X1.501600*%
%ADD16C,2.200000*%
%ADD17C,5.600000*%
%ADD18C,0.550000*%
G04 APERTURE END LIST*
D10*
%TO.C,K1*%
X253500000Y-148140000D03*
X253500000Y-145600000D03*
X253500000Y-143060000D03*
%TD*%
D11*
%TO.C,TEMP/HALL*%
X212300000Y-152600000D03*
D12*
X214300000Y-152600000D03*
X216300000Y-152600000D03*
X218300000Y-152600000D03*
X220300000Y-152600000D03*
X222300000Y-152600000D03*
%TD*%
D11*
%TO.C,SWD*%
X226600000Y-152600000D03*
D12*
X228600000Y-152600000D03*
X230600000Y-152600000D03*
X232600000Y-152600000D03*
X234600000Y-152600000D03*
X236600000Y-152600000D03*
%TD*%
D13*
%TO.C,CAN*%
X201900000Y-151500000D03*
X203900000Y-151500000D03*
X205900000Y-151500000D03*
X207900000Y-151500000D03*
%TD*%
D14*
%TO.C,PERIF*%
X240900000Y-151500000D03*
D15*
X242900000Y-151500000D03*
X244900000Y-151500000D03*
X246900000Y-151500000D03*
X248900000Y-151500000D03*
X250900000Y-151500000D03*
X252900000Y-151500000D03*
%TD*%
D16*
%TO.C,C42*%
X210749619Y-42150000D03*
X210749619Y-34650000D03*
%TD*%
D17*
%TO.C,H1*%
X198200000Y-32100000D03*
%TD*%
%TO.C,H8*%
X249590000Y-74100000D03*
%TD*%
D16*
%TO.C,C46*%
X249250381Y-42150000D03*
X249250381Y-34650000D03*
%TD*%
D17*
%TO.C,H6*%
X210788935Y-74093501D03*
%TD*%
%TO.C,H3*%
X260800000Y-151800000D03*
%TD*%
%TO.C,H5*%
X200700000Y-50200000D03*
%TD*%
%TO.C,H9*%
X230600000Y-97000000D03*
%TD*%
%TO.C,H7*%
X230150000Y-74100000D03*
%TD*%
%TO.C,H2*%
X260805635Y-32115123D03*
%TD*%
D16*
%TO.C,C45*%
X230000000Y-42150000D03*
X230000000Y-34650000D03*
%TD*%
D18*
%TO.C,U4*%
X200150000Y-133300000D03*
X200150000Y-137300000D03*
%TD*%
D17*
%TO.C,H4*%
X198600000Y-146600000D03*
%TD*%
G36*
X235143039Y-56619685D02*
G01*
X235188794Y-56672489D01*
X235200000Y-56724000D01*
X235200000Y-58076000D01*
X235180315Y-58143039D01*
X235127511Y-58188794D01*
X235076000Y-58200000D01*
X234400000Y-58200000D01*
X234400000Y-60900000D01*
X234976000Y-60900000D01*
X235043039Y-60919685D01*
X235088794Y-60972489D01*
X235100000Y-61024000D01*
X235100000Y-64676000D01*
X235080315Y-64743039D01*
X235027511Y-64788794D01*
X234976000Y-64800000D01*
X225324000Y-64800000D01*
X225256961Y-64780315D01*
X225211206Y-64727511D01*
X225200000Y-64676000D01*
X225200000Y-61024000D01*
X225219685Y-60956961D01*
X225272489Y-60911206D01*
X225324000Y-60900000D01*
X225900000Y-60900000D01*
X225900000Y-58200000D01*
X225124000Y-58200000D01*
X225056961Y-58180315D01*
X225011206Y-58127511D01*
X225000000Y-58076000D01*
X225000000Y-56724000D01*
X225019685Y-56656961D01*
X225072489Y-56611206D01*
X225124000Y-56600000D01*
X235076000Y-56600000D01*
X235143039Y-56619685D01*
G37*
G36*
X215743039Y-78419685D02*
G01*
X215788794Y-78472489D01*
X215800000Y-78524000D01*
X215800000Y-79876000D01*
X215780315Y-79943039D01*
X215727511Y-79988794D01*
X215676000Y-80000000D01*
X215000000Y-80000000D01*
X215000000Y-82700000D01*
X215576000Y-82700000D01*
X215643039Y-82719685D01*
X215688794Y-82772489D01*
X215700000Y-82824000D01*
X215700000Y-86476000D01*
X215680315Y-86543039D01*
X215627511Y-86588794D01*
X215576000Y-86600000D01*
X205924000Y-86600000D01*
X205856961Y-86580315D01*
X205811206Y-86527511D01*
X205800000Y-86476000D01*
X205800000Y-82824000D01*
X205819685Y-82756961D01*
X205872489Y-82711206D01*
X205924000Y-82700000D01*
X206500000Y-82700000D01*
X206500000Y-80000000D01*
X205724000Y-80000000D01*
X205656961Y-79980315D01*
X205611206Y-79927511D01*
X205600000Y-79876000D01*
X205600000Y-78524000D01*
X205619685Y-78456961D01*
X205672489Y-78411206D01*
X205724000Y-78400000D01*
X215676000Y-78400000D01*
X215743039Y-78419685D01*
G37*
G36*
X215743039Y-56619685D02*
G01*
X215788794Y-56672489D01*
X215800000Y-56724000D01*
X215800000Y-58076000D01*
X215780315Y-58143039D01*
X215727511Y-58188794D01*
X215676000Y-58200000D01*
X215000000Y-58200000D01*
X215000000Y-60900000D01*
X215576000Y-60900000D01*
X215643039Y-60919685D01*
X215688794Y-60972489D01*
X215700000Y-61024000D01*
X215700000Y-64676000D01*
X215680315Y-64743039D01*
X215627511Y-64788794D01*
X215576000Y-64800000D01*
X205924000Y-64800000D01*
X205856961Y-64780315D01*
X205811206Y-64727511D01*
X205800000Y-64676000D01*
X205800000Y-61024000D01*
X205819685Y-60956961D01*
X205872489Y-60911206D01*
X205924000Y-60900000D01*
X206500000Y-60900000D01*
X206500000Y-58200000D01*
X205724000Y-58200000D01*
X205656961Y-58180315D01*
X205611206Y-58127511D01*
X205600000Y-58076000D01*
X205600000Y-56724000D01*
X205619685Y-56656961D01*
X205672489Y-56611206D01*
X205724000Y-56600000D01*
X215676000Y-56600000D01*
X215743039Y-56619685D01*
G37*
G36*
X254443039Y-78419685D02*
G01*
X254488794Y-78472489D01*
X254500000Y-78524000D01*
X254500000Y-79876000D01*
X254480315Y-79943039D01*
X254427511Y-79988794D01*
X254376000Y-80000000D01*
X253700000Y-80000000D01*
X253700000Y-82700000D01*
X254276000Y-82700000D01*
X254343039Y-82719685D01*
X254388794Y-82772489D01*
X254400000Y-82824000D01*
X254400000Y-86476000D01*
X254380315Y-86543039D01*
X254327511Y-86588794D01*
X254276000Y-86600000D01*
X244624000Y-86600000D01*
X244556961Y-86580315D01*
X244511206Y-86527511D01*
X244500000Y-86476000D01*
X244500000Y-82824000D01*
X244519685Y-82756961D01*
X244572489Y-82711206D01*
X244624000Y-82700000D01*
X245200000Y-82700000D01*
X245200000Y-80000000D01*
X244424000Y-80000000D01*
X244356961Y-79980315D01*
X244311206Y-79927511D01*
X244300000Y-79876000D01*
X244300000Y-78524000D01*
X244319685Y-78456961D01*
X244372489Y-78411206D01*
X244424000Y-78400000D01*
X254376000Y-78400000D01*
X254443039Y-78419685D01*
G37*
G36*
X235143039Y-78419685D02*
G01*
X235188794Y-78472489D01*
X235200000Y-78524000D01*
X235200000Y-79876000D01*
X235180315Y-79943039D01*
X235127511Y-79988794D01*
X235076000Y-80000000D01*
X234400000Y-80000000D01*
X234400000Y-82700000D01*
X234976000Y-82700000D01*
X235043039Y-82719685D01*
X235088794Y-82772489D01*
X235100000Y-82824000D01*
X235100000Y-86476000D01*
X235080315Y-86543039D01*
X235027511Y-86588794D01*
X234976000Y-86600000D01*
X225324000Y-86600000D01*
X225256961Y-86580315D01*
X225211206Y-86527511D01*
X225200000Y-86476000D01*
X225200000Y-82824000D01*
X225219685Y-82756961D01*
X225272489Y-82711206D01*
X225324000Y-82700000D01*
X225900000Y-82700000D01*
X225900000Y-80000000D01*
X225124000Y-80000000D01*
X225056961Y-79980315D01*
X225011206Y-79927511D01*
X225000000Y-79876000D01*
X225000000Y-78524000D01*
X225019685Y-78456961D01*
X225072489Y-78411206D01*
X225124000Y-78400000D01*
X235076000Y-78400000D01*
X235143039Y-78419685D01*
G37*
G36*
X254543039Y-56619685D02*
G01*
X254588794Y-56672489D01*
X254600000Y-56724000D01*
X254600000Y-58076000D01*
X254580315Y-58143039D01*
X254527511Y-58188794D01*
X254476000Y-58200000D01*
X253800000Y-58200000D01*
X253800000Y-60900000D01*
X254376000Y-60900000D01*
X254443039Y-60919685D01*
X254488794Y-60972489D01*
X254500000Y-61024000D01*
X254500000Y-64676000D01*
X254480315Y-64743039D01*
X254427511Y-64788794D01*
X254376000Y-64800000D01*
X244724000Y-64800000D01*
X244656961Y-64780315D01*
X244611206Y-64727511D01*
X244600000Y-64676000D01*
X244600000Y-61024000D01*
X244619685Y-60956961D01*
X244672489Y-60911206D01*
X244724000Y-60900000D01*
X245300000Y-60900000D01*
X245300000Y-58200000D01*
X244524000Y-58200000D01*
X244456961Y-58180315D01*
X244411206Y-58127511D01*
X244400000Y-58076000D01*
X244400000Y-56724000D01*
X244419685Y-56656961D01*
X244472489Y-56611206D01*
X244524000Y-56600000D01*
X254476000Y-56600000D01*
X254543039Y-56619685D01*
G37*
M02*
