%TF.GenerationSoftware,KiCad,Pcbnew,9.0.2*%
%TF.CreationDate,2026-05-18T19:02:33+07:00*%
%TF.ProjectId,after-remap,61667465-722d-4726-956d-61702e6b6963,A*%
%TF.SameCoordinates,Original*%
%TF.FileFunction,Copper,L3,Inr*%
%TF.FilePolarity,Positive*%
%FSLAX46Y46*%
G04 Gerber Fmt 4.6, Leading zero omitted, Abs format (unit mm)*
G04 Created by KiCad (PCBNEW 9.0.2) date 2026-05-18 19:02:33*
%MOMM*%
%LPD*%
G01*
G04 APERTURE LIST*
%TA.AperFunction,ComponentPad*%
%ADD10C,4.064000*%
%TD*%
%TA.AperFunction,ComponentPad*%
%ADD11O,1.524000X3.048000*%
%TD*%
%TA.AperFunction,ComponentPad*%
%ADD12R,1.200000X1.500000*%
%TD*%
%TA.AperFunction,ComponentPad*%
%ADD13O,1.200000X1.500000*%
%TD*%
%TA.AperFunction,ComponentPad*%
%ADD14R,1.500000X1.200000*%
%TD*%
%TA.AperFunction,ComponentPad*%
%ADD15O,1.500000X1.200000*%
%TD*%
%TA.AperFunction,ComponentPad*%
%ADD16O,1.600000X1.600000*%
%TD*%
%TA.AperFunction,ComponentPad*%
%ADD17R,1.400000X1.200000*%
%TD*%
%TA.AperFunction,ComponentPad*%
%ADD18O,1.400000X1.200000*%
%TD*%
%TA.AperFunction,ViaPad*%
%ADD19C,0.800000*%
%TD*%
%TA.AperFunction,ViaPad*%
%ADD20C,1.524000*%
%TD*%
%TA.AperFunction,ViaPad*%
%ADD21C,0.889000*%
%TD*%
%TA.AperFunction,Conductor*%
%ADD22C,1.016000*%
%TD*%
%TA.AperFunction,Conductor*%
%ADD23C,1.270000*%
%TD*%
%TA.AperFunction,Conductor*%
%ADD24C,0.635000*%
%TD*%
%TA.AperFunction,Conductor*%
%ADD25C,0.304800*%
%TD*%
%TA.AperFunction,Conductor*%
%ADD26C,0.254000*%
%TD*%
G04 APERTURE END LIST*
D10*
%TO.N,N/C*%
%TO.C,1PIN*%
X92000000Y-83000000D03*
%TD*%
%TO.N,N/C*%
%TO.C,1PIN*%
X103500000Y-83000000D03*
%TD*%
D11*
%TO.N,Net-(K1-P1)*%
%TO.C,K1*%
X108712000Y-136398000D03*
%TO.N,+5V*%
X111252000Y-136398000D03*
%TO.N,GND*%
X113792000Y-136398000D03*
%TD*%
D12*
%TO.N,+5V*%
%TO.C,P1*%
X82100000Y-137200000D03*
D13*
%TO.N,/Filters/TEMP_MOTOR*%
X84100000Y-137200000D03*
%TO.N,/Filters/HALL1_IN*%
X86100000Y-137200000D03*
%TO.N,/Filters/HALL2_IN*%
X88100000Y-137200000D03*
%TO.N,/Filters/HALL3_IN*%
X90100000Y-137200000D03*
%TO.N,GND*%
X92100000Y-137200000D03*
%TD*%
D14*
%TO.N,VCC*%
%TO.C,P2*%
X114300000Y-122300000D03*
D15*
%TO.N,SWCLK*%
X114300000Y-124300000D03*
%TO.N,GND*%
X114300000Y-126300000D03*
%TO.N,SWDIO*%
X114300000Y-128300000D03*
%TO.N,NRST*%
X114300000Y-130300000D03*
%TO.N,unconnected-(P2-Pad6)*%
X114300000Y-132300000D03*
%TD*%
D16*
%TO.N,GND*%
%TO.C,P101*%
X80450000Y-119726000D03*
%TO.N,/CAN bus transceiver/CANL*%
X80450000Y-117726000D03*
%TO.N,/CAN bus transceiver/CANH*%
X80450000Y-115726000D03*
%TO.N,+5V*%
X80450000Y-113726000D03*
%TD*%
D10*
%TO.N,N/C*%
%TO.C,1PIN*%
X114853396Y-142000000D03*
%TD*%
%TO.N,N/C*%
%TO.C,1PIN*%
X79600000Y-142000000D03*
%TD*%
D17*
%TO.N,+5V*%
%TO.C,P3*%
X114300000Y-118014000D03*
D18*
%TO.N,VCC*%
X114300000Y-116014000D03*
%TO.N,GND*%
X114300000Y-114014000D03*
%TO.N,/SCK_ADC_EXT*%
X114300000Y-112014000D03*
%TO.N,/TX_SDA*%
X114300000Y-110014000D03*
%TO.N,/RX_SCL_MOSI*%
X114300000Y-108014000D03*
%TO.N,/MISO_RX_SCL*%
X114300000Y-106014000D03*
%TD*%
D19*
%TO.N,+5V*%
X88900000Y-118800000D03*
X85979000Y-114935000D03*
X88900000Y-117729000D03*
%TO.N,GND*%
X80600000Y-121900000D03*
D20*
X94996000Y-106299000D03*
D19*
X98552000Y-116840000D03*
X91823218Y-122684218D03*
X84928238Y-131104499D03*
X97028000Y-123063000D03*
D20*
X93472000Y-104775000D03*
D19*
X103759000Y-115189000D03*
D20*
X93472000Y-103251000D03*
D19*
X90255293Y-131671345D03*
X103709331Y-113221584D03*
X98512630Y-135586518D03*
X93321003Y-128553294D03*
D21*
X90551000Y-110490012D03*
D19*
X88138000Y-131699000D03*
X81800000Y-112800000D03*
X101473000Y-118237000D03*
X102870000Y-132842000D03*
X99314000Y-117475000D03*
X86268066Y-125950927D03*
D20*
X94996000Y-103251000D03*
D19*
X110871000Y-119380000D03*
X109900000Y-121800000D03*
D20*
X93472000Y-106299000D03*
D19*
X107817006Y-124617006D03*
D20*
X94996000Y-104775000D03*
D19*
X110871000Y-118364000D03*
%TO.N,NRST*%
X99187000Y-132731485D03*
X93731054Y-137799200D03*
%TO.N,SWCLK*%
X96901000Y-127635000D03*
%TO.N,SWDIO*%
X98171000Y-128143000D03*
%TO.N,VCC*%
X91200000Y-119400000D03*
X98552000Y-122301000D03*
X106044996Y-126432893D03*
X107200501Y-135762249D03*
X108979757Y-127640505D03*
X92850000Y-129600000D03*
X95850000Y-126400000D03*
X95656236Y-137367266D03*
X112394988Y-131318000D03*
%TO.N,V_SUPPLY*%
X111049589Y-110692411D03*
D20*
X80010000Y-107188000D03*
X80010000Y-110744000D03*
X83566000Y-105410000D03*
D19*
X116078000Y-100330000D03*
X111125000Y-113411000D03*
D21*
X100200000Y-97500000D03*
X97800000Y-97500000D03*
D19*
X93980000Y-113411000D03*
D21*
X84900000Y-97500000D03*
D20*
X81788000Y-108966000D03*
X81788000Y-110744000D03*
D21*
X113000000Y-97500000D03*
D19*
X116100000Y-101300000D03*
X116078000Y-99314000D03*
D21*
X110600000Y-97500000D03*
D20*
X81788000Y-105410000D03*
D21*
X108200000Y-97500000D03*
D19*
X83900000Y-125300000D03*
D21*
X82500000Y-97500000D03*
X95400000Y-97500000D03*
X87300000Y-97500000D03*
D20*
X83566000Y-110744000D03*
D19*
X96647000Y-114046000D03*
D20*
X80010000Y-108966000D03*
X81788000Y-107188000D03*
X80010000Y-105410000D03*
X83566000Y-108966000D03*
X83566000Y-107188000D03*
D19*
%TO.N,/MCU/AN_IN*%
X101600000Y-138085820D03*
X83993947Y-129106053D03*
%TO.N,/MCU/SERVO*%
X104310799Y-130643738D03*
%TO.N,/MCU/SENS1*%
X107061000Y-137287000D03*
X91300000Y-128250000D03*
%TO.N,/MCU/SENS2*%
X90932000Y-126492000D03*
X105792150Y-136142850D03*
%TO.N,/Mosfet driver/M_H1*%
X99012291Y-113211397D03*
D21*
X114808000Y-81915000D03*
D19*
%TO.N,/Mosfet driver/M_L1*%
X100441730Y-113235361D03*
X112483130Y-104116822D03*
%TO.N,/MCU/SENS3*%
X103632000Y-138085820D03*
X91440000Y-124587000D03*
%TO.N,/Mosfet driver/M_H2*%
X105537509Y-102507217D03*
D21*
X104394000Y-91694000D03*
D19*
%TO.N,/Mosfet driver/M_L2*%
X102596601Y-113245201D03*
D21*
X103937763Y-101968280D03*
%TO.N,/Mosfet driver/M_H3*%
X91313000Y-90170000D03*
D19*
X107051383Y-113293617D03*
D21*
%TO.N,/Mosfet driver/M_L3*%
X91000000Y-102300000D03*
D19*
X105383273Y-109569220D03*
%TO.N,/Mosfet driver/SH1_A*%
X90703146Y-109479094D03*
X105264351Y-105868904D03*
%TO.N,/Mosfet driver/SH1_B*%
X105266323Y-104825601D03*
X90100000Y-108700000D03*
%TO.N,/Mosfet driver/SH2_A*%
X111506000Y-104902000D03*
%TO.N,/Mosfet driver/SH2_B*%
X110906033Y-106443107D03*
%TO.N,/MCU/DC_CAL*%
X105181969Y-125258511D03*
X100505015Y-118375283D03*
%TO.N,/MCU/L3*%
X105090994Y-126647361D03*
X107061000Y-118237000D03*
%TO.N,/MCU/L2*%
X104643484Y-127516758D03*
X104902000Y-118364000D03*
%TO.N,/MCU/L1*%
X103885996Y-118364000D03*
X103632000Y-127889000D03*
%TO.N,/MCU/EN_GATE*%
X100203000Y-127635000D03*
X102489000Y-118364000D03*
%TO.N,/MCU/FAULT*%
X96300000Y-117800000D03*
X96520000Y-129413000D03*
%TO.N,/MCU/H1*%
X100584000Y-126619000D03*
X103378000Y-121412000D03*
%TO.N,/MCU/USB_DP*%
X98850000Y-126650000D03*
X90200000Y-127300000D03*
%TO.N,/Filters/HALL3_OUT*%
X93859398Y-129369533D03*
%TO.N,/Filters/HALL2_OUT*%
X93605312Y-132700000D03*
%TO.N,/Filters/HALL1_OUT*%
X89535104Y-132529118D03*
%TO.N,/CAN bus transceiver/CANH*%
X88292526Y-129652290D03*
X88100000Y-123900000D03*
%TO.N,/MCU/LED_GREEN*%
X109474000Y-130556000D03*
%TO.N,/MCU/LED_RED*%
X109849234Y-129387867D03*
%TO.N,Net-(U1-VCAP1)*%
X108286870Y-128330435D03*
%TO.N,Net-(U1-VCAP2)*%
X97350000Y-126600000D03*
%TO.N,Net-(U3-GVDD)*%
X100831698Y-122555000D03*
%TO.N,Net-(U3-DVDD)*%
X105537000Y-121539000D03*
X100132231Y-123334253D03*
%TO.N,Net-(D4-K)*%
X91948000Y-114935000D03*
X90805000Y-114935000D03*
D21*
%TO.N,/Power MOSFETS/Q1-s_Q2-d*%
X107820000Y-87100000D03*
X108826932Y-91181601D03*
D19*
X99750000Y-110000000D03*
D20*
X107696000Y-81534000D03*
D21*
X106624000Y-87100000D03*
X110022932Y-91181601D03*
X107630932Y-91181601D03*
X110212000Y-87100000D03*
X112414932Y-91181601D03*
X111408000Y-87100000D03*
D19*
X86741000Y-125095000D03*
D21*
X113800000Y-87100000D03*
X109016000Y-87100000D03*
D20*
X111252000Y-81534000D03*
D21*
X106434932Y-91181601D03*
X111218932Y-91181601D03*
D20*
X109474000Y-81534000D03*
D21*
X113610932Y-91181601D03*
X112604000Y-87100000D03*
%TO.N,/Power MOSFETS/Q3-s_Q4-d*%
X96036300Y-91192644D03*
X101025368Y-87100000D03*
X96225368Y-87100000D03*
X93825368Y-87100000D03*
X94836300Y-91192644D03*
X98436300Y-91192644D03*
D19*
X105410000Y-103632000D03*
D21*
X99636300Y-91192644D03*
X93636300Y-91192644D03*
X95025368Y-87100000D03*
X97425368Y-87100000D03*
D20*
X99441000Y-81534000D03*
D19*
X91200000Y-123600000D03*
D21*
X97236300Y-91192644D03*
X98625368Y-87100000D03*
X99825368Y-87100000D03*
D20*
X97790000Y-81534000D03*
D21*
X100836300Y-91192644D03*
D20*
X96139000Y-81534000D03*
D21*
%TO.N,/Power MOSFETS/Q5-s_Q6-d*%
X86919163Y-87100000D03*
X88119163Y-87100000D03*
X84341138Y-91192644D03*
X84519163Y-87100000D03*
D20*
X83312000Y-81534000D03*
D21*
X82119163Y-87100000D03*
X91440000Y-86868000D03*
X83319163Y-87100000D03*
X85719163Y-87100000D03*
D20*
X86868000Y-81534000D03*
D21*
X80741138Y-91192644D03*
D19*
X104500000Y-104000266D03*
D20*
X85090000Y-81534000D03*
D21*
X81941138Y-91192644D03*
D19*
X86500000Y-128267478D03*
D21*
X87941138Y-91192644D03*
X86741138Y-91192644D03*
X83141138Y-91192644D03*
X85541138Y-91192644D03*
X80919163Y-87100000D03*
D19*
%TO.N,/TX_SDA*%
X102489000Y-128156220D03*
X103632000Y-132207000D03*
%TO.N,/SCK_ADC_EXT*%
X104775000Y-132588000D03*
%TO.N,/MISO_RX_SCL*%
X103377992Y-130937000D03*
%TO.N,/RX_SCL_MOSI*%
X101473000Y-128578582D03*
%TO.N,/Power MOSFETS/Q2-s*%
X101473000Y-113284000D03*
D21*
X108003411Y-103725057D03*
D19*
%TO.N,Net-(U3-RT_CLK)*%
X94615000Y-120523000D03*
D21*
%TO.N,/Power MOSFETS/Q6-s*%
X91440000Y-91313000D03*
D19*
X105291353Y-106846343D03*
%TO.N,Net-(U401-Rs)*%
X84900000Y-132600000D03*
%TO.N,Net-(D6-A)*%
X78400000Y-127000000D03*
X78400000Y-135500000D03*
%TO.N,/MCU/X2-1*%
X97028000Y-133350000D03*
%TO.N,/MCU/X2-2*%
X99374925Y-134191906D03*
%TD*%
D22*
%TO.N,+5V*%
X111252000Y-135382000D02*
X111252000Y-136398000D01*
D23*
X82098740Y-137200000D02*
X82098740Y-136280422D01*
X101960680Y-136799320D02*
X104724189Y-134035811D01*
X111252000Y-135636000D02*
X111252000Y-136398000D01*
X104724189Y-134035811D02*
X109651811Y-134035811D01*
D22*
X111252000Y-136398000D02*
X111252000Y-136948000D01*
D23*
X83682036Y-134697126D02*
X95811363Y-134697126D01*
X95811363Y-134697126D02*
X97913557Y-136799320D01*
X109651811Y-134035811D02*
X111252000Y-135636000D01*
X82098740Y-136280422D02*
X83682036Y-134697126D01*
X97913557Y-136799320D02*
X101960680Y-136799320D01*
D24*
%TO.N,GND*%
X82074720Y-119728280D02*
X82931000Y-118872000D01*
X82931000Y-118872000D02*
X82931000Y-113931000D01*
X82931000Y-113931000D02*
X81800000Y-112800000D01*
D25*
X102250295Y-133461705D02*
X102470001Y-133241999D01*
D24*
X80450000Y-119728280D02*
X82074720Y-119728280D01*
D25*
X102470001Y-133241999D02*
X102870000Y-132842000D01*
X90255293Y-131053319D02*
X90255293Y-131671345D01*
X90255293Y-131671345D02*
X96619345Y-131671345D01*
X93321003Y-128553294D02*
X92755318Y-128553294D01*
X92755318Y-128553294D02*
X90255293Y-131053319D01*
X96619345Y-131671345D02*
X98409705Y-133461705D01*
D23*
X94996000Y-104775000D02*
X94996000Y-106299000D01*
D25*
X98409705Y-133461705D02*
X102250295Y-133461705D01*
D26*
%TO.N,NRST*%
X102997000Y-129921000D02*
X105077656Y-129921000D01*
X110005705Y-132537189D02*
X112289154Y-130253740D01*
X112289154Y-130253740D02*
X113380422Y-130253740D01*
X105077656Y-129921000D02*
X107693845Y-132537189D01*
X107693845Y-132537189D02*
X110005705Y-132537189D01*
X100186515Y-132731485D02*
X102997000Y-129921000D01*
X113380422Y-130253740D02*
X114300000Y-130253740D01*
X99187000Y-132731485D02*
X100186515Y-132731485D01*
%TO.N,SWCLK*%
X102743000Y-128905000D02*
X105283000Y-128905000D01*
X96901000Y-127635000D02*
X97536000Y-127635000D01*
X97536000Y-127635000D02*
X97917000Y-127254000D01*
X97917000Y-127254000D02*
X98425000Y-127254000D01*
X105283000Y-128905000D02*
X108051567Y-131673567D01*
X98425000Y-127254000D02*
X99060000Y-127889000D01*
X113030000Y-125524260D02*
X113649761Y-124904499D01*
X113649761Y-124904499D02*
X114300000Y-124254260D01*
X109626433Y-131673567D02*
X113030000Y-128270000D01*
X101854000Y-129794000D02*
X102743000Y-128905000D01*
X99060000Y-127889000D02*
X99060000Y-128651000D01*
X100203000Y-129794000D02*
X101854000Y-129794000D01*
X108051567Y-131673567D02*
X109626433Y-131673567D01*
X99060000Y-128651000D02*
X100203000Y-129794000D01*
X113030000Y-128270000D02*
X113030000Y-125524260D01*
%TO.N,SWDIO*%
X113027223Y-128904999D02*
X113649761Y-128904999D01*
X102032861Y-130225811D02*
X102845672Y-129413000D01*
X98171000Y-128708685D02*
X99688126Y-130225811D01*
X105180328Y-129413000D02*
X107872706Y-132105378D01*
X107872706Y-132105378D02*
X109826844Y-132105378D01*
X99688126Y-130225811D02*
X102032861Y-130225811D01*
X109826844Y-132105378D02*
X113027223Y-128904999D01*
X98171000Y-128143000D02*
X98171000Y-128708685D01*
X113649761Y-128904999D02*
X114300000Y-128254760D01*
X102845672Y-129413000D02*
X105180328Y-129413000D01*
D22*
%TO.N,V_SUPPLY*%
X116078000Y-102259534D02*
X116078000Y-104013000D01*
D26*
X93980000Y-117653504D02*
X88438305Y-123195199D01*
D22*
X116123315Y-100375315D02*
X116078000Y-100330000D01*
X116100000Y-101300000D02*
X116100000Y-102237534D01*
X116100000Y-101300000D02*
X116100000Y-100734315D01*
X116100000Y-102237534D02*
X116078000Y-102259534D01*
X111049589Y-110692411D02*
X111049589Y-111258096D01*
X116078000Y-99314000D02*
X116078000Y-100330000D01*
X116123315Y-100711000D02*
X116123315Y-100375315D01*
X112903000Y-108839000D02*
X112014250Y-109727750D01*
X116078000Y-104013000D02*
X115570000Y-104521000D01*
X111049589Y-111258096D02*
X111125000Y-111333507D01*
D26*
X88438305Y-123195199D02*
X86004801Y-123195199D01*
D22*
X112903000Y-105434534D02*
X112903000Y-108839000D01*
X111049589Y-110692411D02*
X112014250Y-109727750D01*
X112014250Y-109727750D02*
X111125000Y-110617000D01*
D26*
X86004801Y-123195199D02*
X83900000Y-125300000D01*
D22*
X111125000Y-111941992D02*
X111125000Y-113411000D01*
D26*
X93980000Y-113411000D02*
X93980000Y-117653504D01*
D22*
X111125000Y-110617000D02*
X111125000Y-111941992D01*
X111125000Y-111333507D02*
X111125000Y-111941992D01*
X116100000Y-100734315D02*
X116123315Y-100711000D01*
X115570000Y-104521000D02*
X113816534Y-104521000D01*
X113816534Y-104521000D02*
X112903000Y-105434534D01*
D24*
%TO.N,/Mosfet driver/M_L1*%
X100441730Y-115341730D02*
X102321000Y-117221000D01*
X106243954Y-117221000D02*
X109093000Y-114371954D01*
X112125308Y-103759000D02*
X112483130Y-104116822D01*
X109093000Y-114371954D02*
X109093000Y-105029000D01*
X102321000Y-117221000D02*
X106243954Y-117221000D01*
X110363000Y-103759000D02*
X112125308Y-103759000D01*
X100441730Y-113235361D02*
X100441730Y-115341730D01*
X109093000Y-105029000D02*
X110363000Y-103759000D01*
%TO.N,/Mosfet driver/M_L2*%
X103643117Y-111633000D02*
X105410000Y-111633000D01*
X106476781Y-101523781D02*
X104382262Y-101523781D01*
X104382262Y-101523781D02*
X103937763Y-101968280D01*
X106934000Y-101981000D02*
X106476781Y-101523781D01*
X102596601Y-113245201D02*
X102596601Y-112679516D01*
X106934000Y-110109000D02*
X106934000Y-101981000D01*
X105410000Y-111633000D02*
X106934000Y-110109000D01*
X102596601Y-112679516D02*
X103643117Y-111633000D01*
D25*
%TO.N,/Mosfet driver/SH1_A*%
X90703146Y-109479094D02*
X90962240Y-109220000D01*
X90962240Y-109220000D02*
X101473000Y-109220000D01*
X104824096Y-105868904D02*
X105264351Y-105868904D01*
X101473000Y-109220000D02*
X104824096Y-105868904D01*
%TO.N,/Mosfet driver/SH1_B*%
X105215722Y-104775000D02*
X105266323Y-104825601D01*
X105029000Y-104775000D02*
X105215722Y-104775000D01*
X90100000Y-108700000D02*
X90342000Y-108458000D01*
X101346000Y-108458000D02*
X105029000Y-104775000D01*
X90342000Y-108458000D02*
X101346000Y-108458000D01*
D26*
%TO.N,/MCU/FAULT*%
X96300000Y-117800000D02*
X96300000Y-118200000D01*
X95100000Y-127993000D02*
X96520000Y-129413000D01*
X95100000Y-125900000D02*
X95100000Y-127993000D01*
X96012000Y-124988000D02*
X95100000Y-125900000D01*
X96012000Y-118488000D02*
X96012000Y-124988000D01*
X96300000Y-118200000D02*
X96012000Y-118488000D01*
%TO.N,/Power MOSFETS/Q5-s_Q6-d*%
X98539266Y-104000266D02*
X95504000Y-100965000D01*
X93726000Y-111760000D02*
X94869000Y-112903000D01*
X88392000Y-103505000D02*
X88392000Y-110363000D01*
D23*
X88424029Y-86868000D02*
X86749702Y-88542327D01*
D26*
X89789000Y-111760000D02*
X93726000Y-111760000D01*
X88943166Y-123606834D02*
X88943166Y-125824312D01*
X95504000Y-100965000D02*
X90932000Y-100965000D01*
X90932000Y-100965000D02*
X88392000Y-103505000D01*
X104500000Y-104000266D02*
X98539266Y-104000266D01*
X94869000Y-117681000D02*
X88943166Y-123606834D01*
D23*
X91440000Y-86868000D02*
X88424029Y-86868000D01*
D26*
X94869000Y-112903000D02*
X94869000Y-117681000D01*
X88943166Y-125824312D02*
X86500000Y-128267478D01*
X88392000Y-110363000D02*
X89789000Y-111760000D01*
D24*
%TO.N,/Power MOSFETS/Q2-s*%
X105791000Y-116332000D02*
X108003411Y-114119589D01*
X108003411Y-103812411D02*
X108003411Y-103725057D01*
X101473000Y-114935000D02*
X102870000Y-116332000D01*
X101473000Y-113284000D02*
X101473000Y-114935000D01*
X108003411Y-114119589D02*
X108003411Y-103812411D01*
X102870000Y-116332000D02*
X105791000Y-116332000D01*
%TD*%
%TA.AperFunction,Conductor*%
%TO.N,GND*%
G36*
X95700121Y-102509002D02*
G01*
X95746614Y-102562658D01*
X95758000Y-102615000D01*
X95758000Y-106935000D01*
X95737998Y-107003121D01*
X95684342Y-107049614D01*
X95632000Y-107061000D01*
X92836000Y-107061000D01*
X92767879Y-107040998D01*
X92721386Y-106987342D01*
X92710000Y-106935000D01*
X92710000Y-102615000D01*
X92730002Y-102546879D01*
X92783658Y-102500386D01*
X92836000Y-102489000D01*
X95632000Y-102489000D01*
X95700121Y-102509002D01*
G37*
%TD.AperFunction*%
%TD*%
%TA.AperFunction,Conductor*%
%TO.N,/Power MOSFETS/Q1-s_Q2-d*%
G36*
X116942121Y-80220502D02*
G01*
X116988614Y-80274158D01*
X117000000Y-80326500D01*
X117000000Y-98913953D01*
X116979998Y-98982074D01*
X116926342Y-99028567D01*
X116856068Y-99038671D01*
X116791488Y-99009177D01*
X116757592Y-98962173D01*
X116753718Y-98952822D01*
X116753718Y-98952821D01*
X116727747Y-98913953D01*
X116670272Y-98827935D01*
X116564065Y-98721728D01*
X116439179Y-98638282D01*
X116300414Y-98580803D01*
X116153103Y-98551500D01*
X116153100Y-98551500D01*
X116002900Y-98551500D01*
X116002896Y-98551500D01*
X115855585Y-98580803D01*
X115855584Y-98580804D01*
X115716819Y-98638283D01*
X115591939Y-98721725D01*
X115591932Y-98721730D01*
X115485730Y-98827932D01*
X115485725Y-98827939D01*
X115402283Y-98952819D01*
X115344804Y-99091584D01*
X115344803Y-99091585D01*
X115315500Y-99238896D01*
X115315500Y-99365349D01*
X115295498Y-99433470D01*
X115241842Y-99479963D01*
X115188898Y-99491348D01*
X104773398Y-99441598D01*
X104705374Y-99421270D01*
X104659138Y-99367393D01*
X104648000Y-99315599D01*
X104648000Y-97431152D01*
X107501000Y-97431152D01*
X107501000Y-97568847D01*
X107527862Y-97703891D01*
X107580554Y-97831101D01*
X107619561Y-97889479D01*
X107657050Y-97945585D01*
X107657055Y-97945591D01*
X107754408Y-98042944D01*
X107754414Y-98042949D01*
X107868899Y-98119446D01*
X107996109Y-98172138D01*
X108131155Y-98199000D01*
X108131156Y-98199000D01*
X108268844Y-98199000D01*
X108268845Y-98199000D01*
X108403891Y-98172138D01*
X108531101Y-98119446D01*
X108645586Y-98042949D01*
X108742949Y-97945586D01*
X108819446Y-97831101D01*
X108872138Y-97703891D01*
X108899000Y-97568845D01*
X108899000Y-97431155D01*
X108898999Y-97431152D01*
X109901000Y-97431152D01*
X109901000Y-97568847D01*
X109927862Y-97703891D01*
X109980554Y-97831101D01*
X110019561Y-97889479D01*
X110057050Y-97945585D01*
X110057055Y-97945591D01*
X110154408Y-98042944D01*
X110154414Y-98042949D01*
X110268899Y-98119446D01*
X110396109Y-98172138D01*
X110531155Y-98199000D01*
X110531156Y-98199000D01*
X110668844Y-98199000D01*
X110668845Y-98199000D01*
X110803891Y-98172138D01*
X110931101Y-98119446D01*
X111045586Y-98042949D01*
X111142949Y-97945586D01*
X111219446Y-97831101D01*
X111272138Y-97703891D01*
X111299000Y-97568845D01*
X111299000Y-97431155D01*
X111298999Y-97431152D01*
X112301000Y-97431152D01*
X112301000Y-97568847D01*
X112327862Y-97703891D01*
X112380554Y-97831101D01*
X112419561Y-97889479D01*
X112457050Y-97945585D01*
X112457055Y-97945591D01*
X112554408Y-98042944D01*
X112554414Y-98042949D01*
X112668899Y-98119446D01*
X112796109Y-98172138D01*
X112931155Y-98199000D01*
X112931156Y-98199000D01*
X113068844Y-98199000D01*
X113068845Y-98199000D01*
X113203891Y-98172138D01*
X113331101Y-98119446D01*
X113445586Y-98042949D01*
X113542949Y-97945586D01*
X113619446Y-97831101D01*
X113672138Y-97703891D01*
X113699000Y-97568845D01*
X113699000Y-97431155D01*
X113672138Y-97296109D01*
X113619446Y-97168899D01*
X113542949Y-97054414D01*
X113542944Y-97054408D01*
X113445591Y-96957055D01*
X113445585Y-96957050D01*
X113407597Y-96931667D01*
X113331101Y-96880554D01*
X113203891Y-96827862D01*
X113068847Y-96801000D01*
X113068845Y-96801000D01*
X112931155Y-96801000D01*
X112931152Y-96801000D01*
X112796108Y-96827862D01*
X112796103Y-96827864D01*
X112668899Y-96880554D01*
X112554414Y-96957050D01*
X112554408Y-96957055D01*
X112457055Y-97054408D01*
X112457050Y-97054414D01*
X112380554Y-97168899D01*
X112327864Y-97296103D01*
X112327862Y-97296108D01*
X112301000Y-97431152D01*
X111298999Y-97431152D01*
X111272138Y-97296109D01*
X111219446Y-97168899D01*
X111142949Y-97054414D01*
X111142944Y-97054408D01*
X111045591Y-96957055D01*
X111045585Y-96957050D01*
X111007597Y-96931667D01*
X110931101Y-96880554D01*
X110803891Y-96827862D01*
X110668847Y-96801000D01*
X110668845Y-96801000D01*
X110531155Y-96801000D01*
X110531152Y-96801000D01*
X110396108Y-96827862D01*
X110396103Y-96827864D01*
X110268899Y-96880554D01*
X110154414Y-96957050D01*
X110154408Y-96957055D01*
X110057055Y-97054408D01*
X110057050Y-97054414D01*
X109980554Y-97168899D01*
X109927864Y-97296103D01*
X109927862Y-97296108D01*
X109901000Y-97431152D01*
X108898999Y-97431152D01*
X108872138Y-97296109D01*
X108819446Y-97168899D01*
X108742949Y-97054414D01*
X108742944Y-97054408D01*
X108645591Y-96957055D01*
X108645585Y-96957050D01*
X108607597Y-96931667D01*
X108531101Y-96880554D01*
X108403891Y-96827862D01*
X108268847Y-96801000D01*
X108268845Y-96801000D01*
X108131155Y-96801000D01*
X108131152Y-96801000D01*
X107996108Y-96827862D01*
X107996103Y-96827864D01*
X107868899Y-96880554D01*
X107754414Y-96957050D01*
X107754408Y-96957055D01*
X107657055Y-97054408D01*
X107657050Y-97054414D01*
X107580554Y-97168899D01*
X107527864Y-97296103D01*
X107527862Y-97296108D01*
X107501000Y-97431152D01*
X104648000Y-97431152D01*
X104648000Y-92429572D01*
X104668002Y-92361451D01*
X104719764Y-92316598D01*
X104719640Y-92316365D01*
X104720669Y-92315814D01*
X104721658Y-92314958D01*
X104724957Y-92313522D01*
X104725096Y-92313447D01*
X104725101Y-92313446D01*
X104839586Y-92236949D01*
X104936949Y-92139586D01*
X105013446Y-92025101D01*
X105066138Y-91897891D01*
X105093000Y-91762845D01*
X105093000Y-91625155D01*
X105066138Y-91490109D01*
X105013446Y-91362899D01*
X104936949Y-91248414D01*
X104936944Y-91248408D01*
X104839591Y-91151055D01*
X104839587Y-91151052D01*
X104839586Y-91151051D01*
X104810768Y-91131795D01*
X104725101Y-91074553D01*
X104719641Y-91071635D01*
X104720292Y-91070415D01*
X104670492Y-91030273D01*
X104648080Y-90962907D01*
X104648000Y-90958426D01*
X104648000Y-85851000D01*
X104668002Y-85782879D01*
X104721658Y-85736386D01*
X104774000Y-85725000D01*
X106680000Y-85725000D01*
X106680000Y-81846152D01*
X114109000Y-81846152D01*
X114109000Y-81846155D01*
X114109000Y-81983845D01*
X114135862Y-82118891D01*
X114188554Y-82246101D01*
X114200148Y-82263452D01*
X114265050Y-82360585D01*
X114265055Y-82360591D01*
X114362408Y-82457944D01*
X114362414Y-82457949D01*
X114476899Y-82534446D01*
X114604109Y-82587138D01*
X114739155Y-82614000D01*
X114739156Y-82614000D01*
X114876844Y-82614000D01*
X114876845Y-82614000D01*
X115011891Y-82587138D01*
X115139101Y-82534446D01*
X115253586Y-82457949D01*
X115350949Y-82360586D01*
X115427446Y-82246101D01*
X115480138Y-82118891D01*
X115507000Y-81983845D01*
X115507000Y-81846155D01*
X115480138Y-81711109D01*
X115427446Y-81583899D01*
X115350949Y-81469414D01*
X115350944Y-81469408D01*
X115253591Y-81372055D01*
X115253585Y-81372050D01*
X115215597Y-81346667D01*
X115139101Y-81295554D01*
X115011891Y-81242862D01*
X114876847Y-81216000D01*
X114876845Y-81216000D01*
X114739155Y-81216000D01*
X114739152Y-81216000D01*
X114604108Y-81242862D01*
X114604103Y-81242864D01*
X114476899Y-81295554D01*
X114362414Y-81372050D01*
X114362408Y-81372055D01*
X114265055Y-81469408D01*
X114265050Y-81469414D01*
X114188554Y-81583899D01*
X114135864Y-81711103D01*
X114135862Y-81711108D01*
X114109000Y-81846152D01*
X106680000Y-81846152D01*
X106680000Y-80326500D01*
X106700002Y-80258379D01*
X106753658Y-80211886D01*
X106806000Y-80200500D01*
X116874000Y-80200500D01*
X116942121Y-80220502D01*
G37*
%TD.AperFunction*%
%TD*%
%TA.AperFunction,Conductor*%
%TO.N,GND*%
G36*
X116941950Y-110020095D02*
G01*
X116988529Y-110073676D01*
X117000000Y-110126203D01*
X117000000Y-138874000D01*
X116979998Y-138942121D01*
X116926342Y-138988614D01*
X116874000Y-139000000D01*
X77026500Y-139000000D01*
X76958379Y-138979998D01*
X76911886Y-138926342D01*
X76900500Y-138874000D01*
X76900500Y-136192811D01*
X81209240Y-136192811D01*
X81209240Y-137287613D01*
X81243079Y-137457730D01*
X81245500Y-137482311D01*
X81245500Y-137975063D01*
X81245501Y-137975073D01*
X81260265Y-138049300D01*
X81316516Y-138133484D01*
X81400697Y-138189733D01*
X81400699Y-138189734D01*
X81474933Y-138204500D01*
X82725066Y-138204499D01*
X82725069Y-138204498D01*
X82725073Y-138204498D01*
X82774326Y-138194701D01*
X82799301Y-138189734D01*
X82883484Y-138133484D01*
X82939734Y-138049301D01*
X82954500Y-137975067D01*
X82954499Y-137469642D01*
X82956920Y-137445061D01*
X82960093Y-137429111D01*
X82988240Y-137287608D01*
X82988240Y-136701055D01*
X83008242Y-136632934D01*
X83025139Y-136611965D01*
X83145042Y-136492062D01*
X83207350Y-136458040D01*
X83278166Y-136463104D01*
X83335002Y-136505651D01*
X83359813Y-136572171D01*
X83345259Y-136640551D01*
X83342752Y-136645240D01*
X83278340Y-136800745D01*
X83278338Y-136800750D01*
X83245500Y-136965836D01*
X83245500Y-137434163D01*
X83278338Y-137599249D01*
X83278340Y-137599254D01*
X83298823Y-137648704D01*
X83342752Y-137754758D01*
X83436266Y-137894712D01*
X83555288Y-138013734D01*
X83695242Y-138107248D01*
X83850751Y-138171662D01*
X84015839Y-138204500D01*
X84015840Y-138204500D01*
X84184160Y-138204500D01*
X84184161Y-138204500D01*
X84349249Y-138171662D01*
X84504758Y-138107248D01*
X84644712Y-138013734D01*
X84763734Y-137894712D01*
X84857248Y-137754758D01*
X84921662Y-137599249D01*
X84954500Y-137434161D01*
X84954500Y-136965839D01*
X84954499Y-136965836D01*
X85245500Y-136965836D01*
X85245500Y-137434163D01*
X85278338Y-137599249D01*
X85278340Y-137599254D01*
X85298823Y-137648704D01*
X85342752Y-137754758D01*
X85436266Y-137894712D01*
X85555288Y-138013734D01*
X85695242Y-138107248D01*
X85850751Y-138171662D01*
X86015839Y-138204500D01*
X86015840Y-138204500D01*
X86184160Y-138204500D01*
X86184161Y-138204500D01*
X86349249Y-138171662D01*
X86504758Y-138107248D01*
X86644712Y-138013734D01*
X86763734Y-137894712D01*
X86857248Y-137754758D01*
X86921662Y-137599249D01*
X86954500Y-137434161D01*
X86954500Y-136965839D01*
X86954499Y-136965836D01*
X87245500Y-136965836D01*
X87245500Y-137434163D01*
X87278338Y-137599249D01*
X87278340Y-137599254D01*
X87298823Y-137648704D01*
X87342752Y-137754758D01*
X87436266Y-137894712D01*
X87555288Y-138013734D01*
X87695242Y-138107248D01*
X87850751Y-138171662D01*
X88015839Y-138204500D01*
X88015840Y-138204500D01*
X88184160Y-138204500D01*
X88184161Y-138204500D01*
X88349249Y-138171662D01*
X88504758Y-138107248D01*
X88644712Y-138013734D01*
X88763734Y-137894712D01*
X88857248Y-137754758D01*
X88921662Y-137599249D01*
X88954500Y-137434161D01*
X88954500Y-136965839D01*
X88954499Y-136965836D01*
X89245500Y-136965836D01*
X89245500Y-137434163D01*
X89278338Y-137599249D01*
X89278340Y-137599254D01*
X89298823Y-137648704D01*
X89342752Y-137754758D01*
X89436266Y-137894712D01*
X89555288Y-138013734D01*
X89695242Y-138107248D01*
X89850751Y-138171662D01*
X90015839Y-138204500D01*
X90015840Y-138204500D01*
X90184160Y-138204500D01*
X90184161Y-138204500D01*
X90349249Y-138171662D01*
X90504758Y-138107248D01*
X90644712Y-138013734D01*
X90763734Y-137894712D01*
X90857248Y-137754758D01*
X90921662Y-137599249D01*
X90954500Y-137434161D01*
X90954500Y-136970888D01*
X91296800Y-136970888D01*
X91296800Y-137041250D01*
X91729774Y-137041250D01*
X91727259Y-137045606D01*
X91700000Y-137147339D01*
X91700000Y-137252661D01*
X91727259Y-137354394D01*
X91729774Y-137358750D01*
X91296800Y-137358750D01*
X91296800Y-137429111D01*
X91327667Y-137584285D01*
X91327668Y-137584288D01*
X91388214Y-137730458D01*
X91476111Y-137862005D01*
X91476116Y-137862012D01*
X91587987Y-137973883D01*
X91587994Y-137973888D01*
X91719541Y-138061785D01*
X91865711Y-138122331D01*
X91865714Y-138122332D01*
X91941250Y-138137357D01*
X91941250Y-137570226D01*
X91945606Y-137572741D01*
X92047339Y-137600000D01*
X92152661Y-137600000D01*
X92254394Y-137572741D01*
X92258750Y-137570226D01*
X92258750Y-138137356D01*
X92334285Y-138122332D01*
X92334288Y-138122331D01*
X92480458Y-138061785D01*
X92612005Y-137973888D01*
X92612012Y-137973883D01*
X92723883Y-137862012D01*
X92723888Y-137862005D01*
X92811785Y-137730458D01*
X92834642Y-137675278D01*
X92879190Y-137619997D01*
X92946553Y-137597576D01*
X93015345Y-137615134D01*
X93063723Y-137667096D01*
X93075096Y-137728547D01*
X93076554Y-137728547D01*
X93076554Y-137863665D01*
X93093186Y-137947277D01*
X93101706Y-137990111D01*
X93151043Y-138109222D01*
X93195996Y-138176499D01*
X93222670Y-138216419D01*
X93222675Y-138216425D01*
X93313828Y-138307578D01*
X93313834Y-138307583D01*
X93421032Y-138379211D01*
X93540143Y-138428548D01*
X93666591Y-138453700D01*
X93666592Y-138453700D01*
X93795516Y-138453700D01*
X93795517Y-138453700D01*
X93921965Y-138428548D01*
X94041076Y-138379211D01*
X94148274Y-138307583D01*
X94239437Y-138216420D01*
X94311065Y-138109222D01*
X94360402Y-137990111D01*
X94385554Y-137863663D01*
X94385554Y-137734737D01*
X94360402Y-137608289D01*
X94311065Y-137489178D01*
X94239437Y-137381980D01*
X94239432Y-137381974D01*
X94160258Y-137302800D01*
X95001736Y-137302800D01*
X95001736Y-137431731D01*
X95013375Y-137490242D01*
X95026888Y-137558177D01*
X95076225Y-137677288D01*
X95113041Y-137732387D01*
X95147852Y-137784485D01*
X95147857Y-137784491D01*
X95239010Y-137875644D01*
X95239016Y-137875649D01*
X95346214Y-137947277D01*
X95465325Y-137996614D01*
X95591773Y-138021766D01*
X95591774Y-138021766D01*
X95720698Y-138021766D01*
X95720699Y-138021766D01*
X95847147Y-137996614D01*
X95966258Y-137947277D01*
X96073456Y-137875649D01*
X96164619Y-137784486D01*
X96236247Y-137677288D01*
X96285584Y-137558177D01*
X96310736Y-137431729D01*
X96310736Y-137302803D01*
X96285584Y-137176355D01*
X96236247Y-137057244D01*
X96164619Y-136950046D01*
X96164614Y-136950040D01*
X96073461Y-136858887D01*
X96073455Y-136858882D01*
X96009912Y-136816424D01*
X95966258Y-136787255D01*
X95847147Y-136737918D01*
X95720701Y-136712766D01*
X95720699Y-136712766D01*
X95591773Y-136712766D01*
X95591770Y-136712766D01*
X95465324Y-136737918D01*
X95465319Y-136737920D01*
X95346214Y-136787255D01*
X95239016Y-136858882D01*
X95239010Y-136858887D01*
X95147857Y-136950040D01*
X95147852Y-136950046D01*
X95076225Y-137057244D01*
X95026890Y-137176349D01*
X95026888Y-137176354D01*
X95001736Y-137302800D01*
X94160258Y-137302800D01*
X94148279Y-137290821D01*
X94148273Y-137290816D01*
X94112703Y-137267049D01*
X94041076Y-137219189D01*
X93921965Y-137169852D01*
X93795519Y-137144700D01*
X93795517Y-137144700D01*
X93666591Y-137144700D01*
X93666588Y-137144700D01*
X93540142Y-137169852D01*
X93540137Y-137169854D01*
X93421032Y-137219189D01*
X93313834Y-137290816D01*
X93313828Y-137290821D01*
X93222675Y-137381974D01*
X93222670Y-137381980D01*
X93151043Y-137489177D01*
X93140801Y-137513903D01*
X93096251Y-137569183D01*
X93028887Y-137591602D01*
X92960096Y-137574042D01*
X92911719Y-137522079D01*
X92899115Y-137452210D01*
X92900815Y-137441094D01*
X92903200Y-137429107D01*
X92903200Y-137358750D01*
X92470226Y-137358750D01*
X92472741Y-137354394D01*
X92500000Y-137252661D01*
X92500000Y-137147339D01*
X92472741Y-137045606D01*
X92470226Y-137041250D01*
X92903200Y-137041250D01*
X92903200Y-136970891D01*
X92903199Y-136970888D01*
X92872332Y-136815714D01*
X92872331Y-136815711D01*
X92811785Y-136669541D01*
X92723888Y-136537994D01*
X92723883Y-136537987D01*
X92612012Y-136426116D01*
X92612005Y-136426111D01*
X92480458Y-136338214D01*
X92334284Y-136277667D01*
X92258750Y-136262641D01*
X92258750Y-136829773D01*
X92254394Y-136827259D01*
X92152661Y-136800000D01*
X92047339Y-136800000D01*
X91945606Y-136827259D01*
X91941250Y-136829773D01*
X91941250Y-136262641D01*
X91865715Y-136277667D01*
X91719541Y-136338214D01*
X91587994Y-136426111D01*
X91587987Y-136426116D01*
X91476116Y-136537987D01*
X91476111Y-136537994D01*
X91388214Y-136669541D01*
X91327668Y-136815711D01*
X91327667Y-136815714D01*
X91296800Y-136970888D01*
X90954500Y-136970888D01*
X90954500Y-136965839D01*
X90921662Y-136800751D01*
X90857248Y-136645242D01*
X90763734Y-136505288D01*
X90644712Y-136386266D01*
X90504758Y-136292752D01*
X90349249Y-136228338D01*
X90343055Y-136227106D01*
X90184163Y-136195500D01*
X90184161Y-136195500D01*
X90015839Y-136195500D01*
X90015836Y-136195500D01*
X89850750Y-136228338D01*
X89850745Y-136228340D01*
X89695241Y-136292752D01*
X89555292Y-136386263D01*
X89555285Y-136386268D01*
X89436268Y-136505285D01*
X89436263Y-136505292D01*
X89342752Y-136645241D01*
X89278340Y-136800745D01*
X89278338Y-136800750D01*
X89245500Y-136965836D01*
X88954499Y-136965836D01*
X88921662Y-136800751D01*
X88857248Y-136645242D01*
X88763734Y-136505288D01*
X88644712Y-136386266D01*
X88504758Y-136292752D01*
X88349249Y-136228338D01*
X88343055Y-136227106D01*
X88184163Y-136195500D01*
X88184161Y-136195500D01*
X88015839Y-136195500D01*
X88015836Y-136195500D01*
X87850750Y-136228338D01*
X87850745Y-136228340D01*
X87695241Y-136292752D01*
X87555292Y-136386263D01*
X87555285Y-136386268D01*
X87436268Y-136505285D01*
X87436263Y-136505292D01*
X87342752Y-136645241D01*
X87278340Y-136800745D01*
X87278338Y-136800750D01*
X87245500Y-136965836D01*
X86954499Y-136965836D01*
X86921662Y-136800751D01*
X86857248Y-136645242D01*
X86763734Y-136505288D01*
X86644712Y-136386266D01*
X86504758Y-136292752D01*
X86349249Y-136228338D01*
X86343055Y-136227106D01*
X86184163Y-136195500D01*
X86184161Y-136195500D01*
X86015839Y-136195500D01*
X86015836Y-136195500D01*
X85850750Y-136228338D01*
X85850745Y-136228340D01*
X85695241Y-136292752D01*
X85555292Y-136386263D01*
X85555285Y-136386268D01*
X85436268Y-136505285D01*
X85436263Y-136505292D01*
X85342752Y-136645241D01*
X85278340Y-136800745D01*
X85278338Y-136800750D01*
X85245500Y-136965836D01*
X84954499Y-136965836D01*
X84921662Y-136800751D01*
X84857248Y-136645242D01*
X84763734Y-136505288D01*
X84644712Y-136386266D01*
X84504758Y-136292752D01*
X84349249Y-136228338D01*
X84343055Y-136227106D01*
X84184163Y-136195500D01*
X84184161Y-136195500D01*
X84015839Y-136195500D01*
X84015836Y-136195500D01*
X83850750Y-136228338D01*
X83850745Y-136228340D01*
X83695240Y-136292752D01*
X83690551Y-136295259D01*
X83621044Y-136309727D01*
X83554749Y-136284321D01*
X83512714Y-136227106D01*
X83508285Y-136156247D01*
X83542062Y-136095042D01*
X84013576Y-135623528D01*
X84075886Y-135589505D01*
X84102669Y-135586626D01*
X95390730Y-135586626D01*
X95458851Y-135606628D01*
X95479824Y-135623530D01*
X97346534Y-137490240D01*
X97492221Y-137587585D01*
X97654099Y-137654637D01*
X97825948Y-137688820D01*
X97825949Y-137688820D01*
X100867444Y-137688820D01*
X100935565Y-137708822D01*
X100982058Y-137762478D01*
X100992162Y-137832752D01*
X100983853Y-137863037D01*
X100970655Y-137894899D01*
X100970652Y-137894908D01*
X100945500Y-138021354D01*
X100945500Y-138150285D01*
X100950715Y-138176500D01*
X100970652Y-138276731D01*
X101019989Y-138395842D01*
X101041841Y-138428545D01*
X101091616Y-138503039D01*
X101091621Y-138503045D01*
X101182774Y-138594198D01*
X101182780Y-138594203D01*
X101289978Y-138665831D01*
X101409089Y-138715168D01*
X101535537Y-138740320D01*
X101535538Y-138740320D01*
X101664462Y-138740320D01*
X101664463Y-138740320D01*
X101790911Y-138715168D01*
X101910022Y-138665831D01*
X102017220Y-138594203D01*
X102108383Y-138503040D01*
X102180011Y-138395842D01*
X102229348Y-138276731D01*
X102254500Y-138150283D01*
X102254500Y-138021357D01*
X102254499Y-138021354D01*
X102977500Y-138021354D01*
X102977500Y-138150285D01*
X102982715Y-138176500D01*
X103002652Y-138276731D01*
X103051989Y-138395842D01*
X103073841Y-138428545D01*
X103123616Y-138503039D01*
X103123621Y-138503045D01*
X103214774Y-138594198D01*
X103214780Y-138594203D01*
X103321978Y-138665831D01*
X103441089Y-138715168D01*
X103567537Y-138740320D01*
X103567538Y-138740320D01*
X103696462Y-138740320D01*
X103696463Y-138740320D01*
X103822911Y-138715168D01*
X103942022Y-138665831D01*
X104049220Y-138594203D01*
X104140383Y-138503040D01*
X104212011Y-138395842D01*
X104261348Y-138276731D01*
X104286500Y-138150283D01*
X104286500Y-138021357D01*
X104261348Y-137894909D01*
X104212011Y-137775798D01*
X104140383Y-137668600D01*
X104140378Y-137668594D01*
X104049225Y-137577441D01*
X104049219Y-137577436D01*
X104013649Y-137553669D01*
X103942022Y-137505809D01*
X103822991Y-137456505D01*
X103822916Y-137456474D01*
X103822911Y-137456472D01*
X103696465Y-137431320D01*
X103696463Y-137431320D01*
X103567537Y-137431320D01*
X103567534Y-137431320D01*
X103441088Y-137456472D01*
X103441083Y-137456474D01*
X103321978Y-137505809D01*
X103214780Y-137577436D01*
X103214774Y-137577441D01*
X103123621Y-137668594D01*
X103123616Y-137668600D01*
X103051989Y-137775798D01*
X103002654Y-137894903D01*
X103002652Y-137894908D01*
X102977500Y-138021354D01*
X102254499Y-138021354D01*
X102229348Y-137894909D01*
X102191267Y-137802974D01*
X102183679Y-137732387D01*
X102215458Y-137668900D01*
X102259456Y-137638350D01*
X102382016Y-137587585D01*
X102527703Y-137490240D01*
X105055727Y-134962216D01*
X105118039Y-134928190D01*
X105144822Y-134925311D01*
X106877311Y-134925311D01*
X106945432Y-134945313D01*
X106991925Y-134998969D01*
X107002029Y-135069243D01*
X106972535Y-135133823D01*
X106925529Y-135167720D01*
X106890479Y-135182238D01*
X106783281Y-135253865D01*
X106783275Y-135253870D01*
X106692122Y-135345023D01*
X106692117Y-135345029D01*
X106620490Y-135452227D01*
X106571155Y-135571332D01*
X106571153Y-135571337D01*
X106544793Y-135703858D01*
X106541992Y-135703300D01*
X106519841Y-135757820D01*
X106461798Y-135798705D01*
X106390865Y-135801719D01*
X106329563Y-135765906D01*
X106316434Y-135749427D01*
X106312458Y-135743476D01*
X106300533Y-135725630D01*
X106300530Y-135725627D01*
X106300528Y-135725624D01*
X106209375Y-135634471D01*
X106209369Y-135634466D01*
X106142080Y-135589505D01*
X106102172Y-135562839D01*
X105983061Y-135513502D01*
X105856615Y-135488350D01*
X105856613Y-135488350D01*
X105727687Y-135488350D01*
X105727684Y-135488350D01*
X105601238Y-135513502D01*
X105601233Y-135513504D01*
X105482128Y-135562839D01*
X105374930Y-135634466D01*
X105374924Y-135634471D01*
X105283771Y-135725624D01*
X105283766Y-135725630D01*
X105212139Y-135832828D01*
X105162804Y-135951933D01*
X105162802Y-135951938D01*
X105137650Y-136078384D01*
X105137650Y-136207315D01*
X105148655Y-136262641D01*
X105162802Y-136333761D01*
X105212139Y-136452872D01*
X105238327Y-136492065D01*
X105283766Y-136560069D01*
X105283771Y-136560075D01*
X105374924Y-136651228D01*
X105374930Y-136651233D01*
X105482128Y-136722861D01*
X105601239Y-136772198D01*
X105727687Y-136797350D01*
X105727688Y-136797350D01*
X105856612Y-136797350D01*
X105856613Y-136797350D01*
X105983061Y-136772198D01*
X106102172Y-136722861D01*
X106209370Y-136651233D01*
X106300533Y-136560070D01*
X106372161Y-136452872D01*
X106421498Y-136333761D01*
X106446650Y-136207313D01*
X106447858Y-136201241D01*
X106450823Y-136201830D01*
X106472242Y-136147997D01*
X106529986Y-136106691D01*
X106600895Y-136103162D01*
X106662456Y-136138528D01*
X106676215Y-136155670D01*
X106692115Y-136179465D01*
X106692122Y-136179474D01*
X106783275Y-136270627D01*
X106783281Y-136270632D01*
X106890479Y-136342260D01*
X106996720Y-136386266D01*
X107014515Y-136393637D01*
X107069796Y-136438185D01*
X107092217Y-136505549D01*
X107074659Y-136574340D01*
X107022697Y-136622718D01*
X106990879Y-136633625D01*
X106870088Y-136657652D01*
X106870083Y-136657654D01*
X106750978Y-136706989D01*
X106643780Y-136778616D01*
X106643774Y-136778621D01*
X106552621Y-136869774D01*
X106552616Y-136869780D01*
X106480989Y-136976978D01*
X106431654Y-137096083D01*
X106431652Y-137096088D01*
X106406500Y-137222534D01*
X106406500Y-137351465D01*
X106431652Y-137477911D01*
X106431654Y-137477916D01*
X106436318Y-137489177D01*
X106480989Y-137597022D01*
X106527811Y-137667096D01*
X106552616Y-137704219D01*
X106552621Y-137704225D01*
X106643774Y-137795378D01*
X106643780Y-137795383D01*
X106750978Y-137867011D01*
X106870089Y-137916348D01*
X106996537Y-137941500D01*
X106996538Y-137941500D01*
X107125462Y-137941500D01*
X107125463Y-137941500D01*
X107251911Y-137916348D01*
X107371022Y-137867011D01*
X107478220Y-137795383D01*
X107569383Y-137704220D01*
X107569384Y-137704217D01*
X107569387Y-137704215D01*
X107606478Y-137648704D01*
X107660954Y-137603176D01*
X107731397Y-137594327D01*
X107795442Y-137624968D01*
X107816005Y-137648700D01*
X107919089Y-137802976D01*
X107922434Y-137807982D01*
X107922439Y-137807988D01*
X108064011Y-137949560D01*
X108064017Y-137949565D01*
X108064019Y-137949567D01*
X108230507Y-138060810D01*
X108415498Y-138137436D01*
X108611884Y-138176500D01*
X108812116Y-138176500D01*
X109008502Y-138137436D01*
X109193493Y-138060810D01*
X109359981Y-137949567D01*
X109501567Y-137807981D01*
X109612810Y-137641493D01*
X109689436Y-137456502D01*
X109728500Y-137260116D01*
X109728500Y-135674633D01*
X109748502Y-135606512D01*
X109802158Y-135560019D01*
X109872432Y-135549915D01*
X109937012Y-135579409D01*
X109943595Y-135585538D01*
X110198595Y-135840538D01*
X110232621Y-135902850D01*
X110235500Y-135929633D01*
X110235500Y-137260119D01*
X110274564Y-137456502D01*
X110274565Y-137456505D01*
X110294988Y-137505809D01*
X110351190Y-137641493D01*
X110459089Y-137802976D01*
X110462434Y-137807982D01*
X110462439Y-137807988D01*
X110604011Y-137949560D01*
X110604017Y-137949565D01*
X110604019Y-137949567D01*
X110770507Y-138060810D01*
X110955498Y-138137436D01*
X111151884Y-138176500D01*
X111352116Y-138176500D01*
X111548502Y-138137436D01*
X111733493Y-138060810D01*
X111899981Y-137949567D01*
X112041567Y-137807981D01*
X112152810Y-137641493D01*
X112229436Y-137456502D01*
X112268500Y-137260116D01*
X112268500Y-135540933D01*
X112826800Y-135540933D01*
X112826800Y-136239250D01*
X113308616Y-136239250D01*
X113284000Y-136331120D01*
X113284000Y-136464880D01*
X113308616Y-136556750D01*
X112826800Y-136556750D01*
X112826800Y-137255066D01*
X112863892Y-137441538D01*
X112863894Y-137441543D01*
X112936651Y-137617194D01*
X113042277Y-137775274D01*
X113042282Y-137775281D01*
X113176718Y-137909717D01*
X113176725Y-137909722D01*
X113334805Y-138015348D01*
X113510456Y-138088105D01*
X113510461Y-138088107D01*
X113633250Y-138112531D01*
X113633250Y-136881383D01*
X113725120Y-136906000D01*
X113858880Y-136906000D01*
X113950750Y-136881383D01*
X113950750Y-138112530D01*
X114073538Y-138088107D01*
X114073543Y-138088105D01*
X114249194Y-138015348D01*
X114407274Y-137909722D01*
X114407281Y-137909717D01*
X114541717Y-137775281D01*
X114541722Y-137775274D01*
X114647348Y-137617194D01*
X114720105Y-137441543D01*
X114720107Y-137441538D01*
X114757199Y-137255066D01*
X114757200Y-137255062D01*
X114757200Y-136556750D01*
X114275384Y-136556750D01*
X114300000Y-136464880D01*
X114300000Y-136331120D01*
X114275384Y-136239250D01*
X114757200Y-136239250D01*
X114757200Y-135540937D01*
X114757199Y-135540933D01*
X114720107Y-135354461D01*
X114720105Y-135354456D01*
X114647348Y-135178805D01*
X114541722Y-135020725D01*
X114541717Y-135020718D01*
X114407281Y-134886282D01*
X114407274Y-134886277D01*
X114249194Y-134780651D01*
X114073541Y-134707893D01*
X114073538Y-134707892D01*
X113950750Y-134683467D01*
X113950750Y-135914616D01*
X113858880Y-135890000D01*
X113725120Y-135890000D01*
X113633250Y-135914616D01*
X113633250Y-134683467D01*
X113633249Y-134683467D01*
X113510461Y-134707892D01*
X113510458Y-134707893D01*
X113334805Y-134780651D01*
X113176725Y-134886277D01*
X113176718Y-134886282D01*
X113042282Y-135020718D01*
X113042277Y-135020725D01*
X112936651Y-135178805D01*
X112863894Y-135354456D01*
X112863892Y-135354461D01*
X112826800Y-135540933D01*
X112268500Y-135540933D01*
X112268500Y-135535884D01*
X112229436Y-135339498D01*
X112152810Y-135154507D01*
X112041567Y-134988019D01*
X112041565Y-134988017D01*
X112041560Y-134988011D01*
X111899988Y-134846439D01*
X111899982Y-134846434D01*
X111899940Y-134846406D01*
X111733493Y-134735190D01*
X111548502Y-134658564D01*
X111548500Y-134658563D01*
X111544351Y-134656845D01*
X111503474Y-134629531D01*
X110218836Y-133344893D01*
X110218834Y-133344891D01*
X110073147Y-133247546D01*
X109911269Y-133180494D01*
X109849802Y-133168267D01*
X109786894Y-133135360D01*
X109751762Y-133073665D01*
X109755562Y-133002770D01*
X109797088Y-132945184D01*
X109863155Y-132919190D01*
X109874385Y-132918689D01*
X110055928Y-132918689D01*
X110055930Y-132918689D01*
X110152959Y-132892690D01*
X110152962Y-132892688D01*
X110152963Y-132892688D01*
X110206984Y-132861499D01*
X110239952Y-132842465D01*
X110310981Y-132771436D01*
X110328701Y-132753716D01*
X110328703Y-132753713D01*
X110866580Y-132215836D01*
X113295500Y-132215836D01*
X113295500Y-132384163D01*
X113328338Y-132549249D01*
X113328340Y-132549254D01*
X113376060Y-132664461D01*
X113392752Y-132704758D01*
X113486266Y-132844712D01*
X113605288Y-132963734D01*
X113745242Y-133057248D01*
X113900751Y-133121662D01*
X114065839Y-133154500D01*
X114065840Y-133154500D01*
X114534160Y-133154500D01*
X114534161Y-133154500D01*
X114699249Y-133121662D01*
X114854758Y-133057248D01*
X114994712Y-132963734D01*
X115113734Y-132844712D01*
X115207248Y-132704758D01*
X115271662Y-132549249D01*
X115304500Y-132384161D01*
X115304500Y-132215839D01*
X115271662Y-132050751D01*
X115207248Y-131895242D01*
X115113734Y-131755288D01*
X114994712Y-131636266D01*
X114854758Y-131542752D01*
X114699249Y-131478338D01*
X114669221Y-131472365D01*
X114534163Y-131445500D01*
X114534161Y-131445500D01*
X114065839Y-131445500D01*
X114065836Y-131445500D01*
X113900750Y-131478338D01*
X113900745Y-131478340D01*
X113745241Y-131542752D01*
X113605292Y-131636263D01*
X113605285Y-131636268D01*
X113486268Y-131755285D01*
X113486263Y-131755292D01*
X113392752Y-131895241D01*
X113328340Y-132050745D01*
X113328338Y-132050750D01*
X113295500Y-132215836D01*
X110866580Y-132215836D01*
X111576026Y-131506389D01*
X111638336Y-131472365D01*
X111709151Y-131477430D01*
X111765987Y-131519977D01*
X111781528Y-131547268D01*
X111814977Y-131628022D01*
X111886604Y-131735219D01*
X111886609Y-131735225D01*
X111977762Y-131826378D01*
X111977768Y-131826383D01*
X112084966Y-131898011D01*
X112204077Y-131947348D01*
X112330525Y-131972500D01*
X112330526Y-131972500D01*
X112459450Y-131972500D01*
X112459451Y-131972500D01*
X112585899Y-131947348D01*
X112705010Y-131898011D01*
X112812208Y-131826383D01*
X112903371Y-131735220D01*
X112974999Y-131628022D01*
X113024336Y-131508911D01*
X113049488Y-131382463D01*
X113049488Y-131253537D01*
X113024336Y-131127089D01*
X112974999Y-131007978D01*
X112903371Y-130900780D01*
X112903366Y-130900774D01*
X112852927Y-130850335D01*
X112818901Y-130788023D01*
X112823966Y-130717208D01*
X112866513Y-130660372D01*
X112933033Y-130635561D01*
X112942022Y-130635240D01*
X113280072Y-130635240D01*
X113348193Y-130655242D01*
X113389203Y-130699684D01*
X113389313Y-130699611D01*
X113389777Y-130700306D01*
X113391191Y-130701838D01*
X113392751Y-130704756D01*
X113392752Y-130704758D01*
X113486266Y-130844712D01*
X113605288Y-130963734D01*
X113745242Y-131057248D01*
X113900751Y-131121662D01*
X114065839Y-131154500D01*
X114065840Y-131154500D01*
X114534160Y-131154500D01*
X114534161Y-131154500D01*
X114699249Y-131121662D01*
X114854758Y-131057248D01*
X114994712Y-130963734D01*
X115113734Y-130844712D01*
X115207248Y-130704758D01*
X115271662Y-130549249D01*
X115304500Y-130384161D01*
X115304500Y-130215839D01*
X115271662Y-130050751D01*
X115207248Y-129895242D01*
X115113734Y-129755288D01*
X114994712Y-129636266D01*
X114854758Y-129542752D01*
X114699249Y-129478338D01*
X114674002Y-129473316D01*
X114534163Y-129445500D01*
X114534161Y-129445500D01*
X114065839Y-129445500D01*
X114065833Y-129445500D01*
X113925991Y-129473316D01*
X113925983Y-129473319D01*
X113900751Y-129478338D01*
X113745242Y-129542752D01*
X113744509Y-129543241D01*
X113744508Y-129543242D01*
X113605292Y-129636263D01*
X113605285Y-129636268D01*
X113486268Y-129755285D01*
X113486263Y-129755291D01*
X113445538Y-129816242D01*
X113391062Y-129861769D01*
X113340773Y-129872240D01*
X112903694Y-129872240D01*
X112835573Y-129852238D01*
X112789080Y-129798582D01*
X112778976Y-129728308D01*
X112808470Y-129663728D01*
X112814599Y-129657145D01*
X113148340Y-129323404D01*
X113210652Y-129289378D01*
X113237435Y-129286499D01*
X113699983Y-129286499D01*
X113699986Y-129286499D01*
X113797015Y-129260500D01*
X113884008Y-129210275D01*
X113913075Y-129181207D01*
X113975385Y-129147183D01*
X114026748Y-129146724D01*
X114065839Y-129154500D01*
X114065844Y-129154500D01*
X114534160Y-129154500D01*
X114534161Y-129154500D01*
X114699249Y-129121662D01*
X114854758Y-129057248D01*
X114994712Y-128963734D01*
X115113734Y-128844712D01*
X115207248Y-128704758D01*
X115271662Y-128549249D01*
X115304500Y-128384161D01*
X115304500Y-128215839D01*
X115271662Y-128050751D01*
X115207248Y-127895242D01*
X115113734Y-127755288D01*
X114994712Y-127636266D01*
X114854758Y-127542752D01*
X114699249Y-127478338D01*
X114666280Y-127471780D01*
X114534163Y-127445500D01*
X114534161Y-127445500D01*
X114065839Y-127445500D01*
X114065836Y-127445500D01*
X113900750Y-127478338D01*
X113900745Y-127478340D01*
X113745243Y-127542751D01*
X113607501Y-127634787D01*
X113539748Y-127656001D01*
X113471282Y-127637218D01*
X113423839Y-127584400D01*
X113411500Y-127530021D01*
X113411500Y-127001586D01*
X113431502Y-126933465D01*
X113485158Y-126886972D01*
X113555432Y-126876868D01*
X113620012Y-126906362D01*
X113626595Y-126912491D01*
X113637987Y-126923883D01*
X113637994Y-126923888D01*
X113769541Y-127011785D01*
X113915711Y-127072331D01*
X113915714Y-127072332D01*
X114070888Y-127103199D01*
X114070892Y-127103200D01*
X114141250Y-127103200D01*
X114141250Y-126670226D01*
X114145606Y-126672741D01*
X114247339Y-126700000D01*
X114352661Y-126700000D01*
X114454394Y-126672741D01*
X114458750Y-126670226D01*
X114458750Y-127103200D01*
X114529108Y-127103200D01*
X114529111Y-127103199D01*
X114684285Y-127072332D01*
X114684288Y-127072331D01*
X114830458Y-127011785D01*
X114962005Y-126923888D01*
X114962012Y-126923883D01*
X115073883Y-126812012D01*
X115073888Y-126812005D01*
X115161785Y-126680458D01*
X115222331Y-126534288D01*
X115222332Y-126534285D01*
X115237358Y-126458750D01*
X114670226Y-126458750D01*
X114672741Y-126454394D01*
X114700000Y-126352661D01*
X114700000Y-126247339D01*
X114672741Y-126145606D01*
X114670226Y-126141250D01*
X115237357Y-126141250D01*
X115222332Y-126065712D01*
X115161785Y-125919541D01*
X115073888Y-125787994D01*
X115073883Y-125787987D01*
X114962012Y-125676116D01*
X114962005Y-125676111D01*
X114830458Y-125588214D01*
X114684288Y-125527668D01*
X114684285Y-125527667D01*
X114529111Y-125496800D01*
X114458750Y-125496800D01*
X114458750Y-125929773D01*
X114454394Y-125927259D01*
X114352661Y-125900000D01*
X114247339Y-125900000D01*
X114145606Y-125927259D01*
X114141250Y-125929773D01*
X114141250Y-125496800D01*
X114070888Y-125496800D01*
X113915714Y-125527667D01*
X113915711Y-125527668D01*
X113904136Y-125532463D01*
X113892750Y-125533687D01*
X113882702Y-125539174D01*
X113858086Y-125537413D01*
X113833546Y-125540052D01*
X113823307Y-125534926D01*
X113811886Y-125534110D01*
X113792127Y-125519318D01*
X113770059Y-125508272D01*
X113764216Y-125498425D01*
X113755050Y-125491563D01*
X113746424Y-125468438D01*
X113733832Y-125447214D01*
X113734240Y-125435771D01*
X113730239Y-125425043D01*
X113735485Y-125400926D01*
X113736366Y-125376263D01*
X113743287Y-125365057D01*
X113745330Y-125355669D01*
X113766822Y-125326959D01*
X113807870Y-125285911D01*
X113873633Y-125220147D01*
X113873638Y-125220144D01*
X113884006Y-125209775D01*
X113884008Y-125209775D01*
X113912656Y-125181126D01*
X113974967Y-125147101D01*
X114026334Y-125146642D01*
X114065839Y-125154500D01*
X114065840Y-125154500D01*
X114534160Y-125154500D01*
X114534161Y-125154500D01*
X114699249Y-125121662D01*
X114854758Y-125057248D01*
X114994712Y-124963734D01*
X115113734Y-124844712D01*
X115207248Y-124704758D01*
X115271662Y-124549249D01*
X115304500Y-124384161D01*
X115304500Y-124215839D01*
X115271662Y-124050751D01*
X115207248Y-123895242D01*
X115113734Y-123755288D01*
X114994712Y-123636266D01*
X114854758Y-123542752D01*
X114699249Y-123478338D01*
X114534163Y-123445500D01*
X114534161Y-123445500D01*
X114065839Y-123445500D01*
X114065836Y-123445500D01*
X113900750Y-123478338D01*
X113900745Y-123478340D01*
X113745241Y-123542752D01*
X113605292Y-123636263D01*
X113605285Y-123636268D01*
X113486268Y-123755285D01*
X113486263Y-123755292D01*
X113392752Y-123895241D01*
X113328340Y-124050745D01*
X113328338Y-124050750D01*
X113295500Y-124215836D01*
X113295500Y-124384163D01*
X113328338Y-124549249D01*
X113328340Y-124549254D01*
X113336290Y-124568448D01*
X113343878Y-124639038D01*
X113312097Y-124702524D01*
X113308976Y-124705759D01*
X112778031Y-125236705D01*
X112778030Y-125236704D01*
X112778028Y-125236708D01*
X112724729Y-125290006D01*
X112724721Y-125290016D01*
X112674500Y-125377001D01*
X112648500Y-125474036D01*
X112648500Y-128059786D01*
X112628498Y-128127907D01*
X112611595Y-128148881D01*
X110318485Y-130441990D01*
X110256173Y-130476016D01*
X110185357Y-130470951D01*
X110128522Y-130428404D01*
X110105812Y-130377478D01*
X110103348Y-130365089D01*
X110054011Y-130245978D01*
X110042898Y-130229347D01*
X110016583Y-130189964D01*
X109995367Y-130122211D01*
X110014149Y-130053744D01*
X110066966Y-130006300D01*
X110073121Y-130003555D01*
X110159256Y-129967878D01*
X110266454Y-129896250D01*
X110357617Y-129805087D01*
X110429245Y-129697889D01*
X110478582Y-129578778D01*
X110503734Y-129452330D01*
X110503734Y-129323404D01*
X110478582Y-129196956D01*
X110429245Y-129077845D01*
X110357617Y-128970647D01*
X110357612Y-128970641D01*
X110266459Y-128879488D01*
X110266453Y-128879483D01*
X110214407Y-128844707D01*
X110159256Y-128807856D01*
X110040145Y-128758519D01*
X110039436Y-128758378D01*
X109913699Y-128733367D01*
X109913697Y-128733367D01*
X109784771Y-128733367D01*
X109784768Y-128733367D01*
X109658322Y-128758519D01*
X109658317Y-128758521D01*
X109539212Y-128807856D01*
X109432014Y-128879483D01*
X109432008Y-128879488D01*
X109340855Y-128970641D01*
X109340850Y-128970647D01*
X109269223Y-129077845D01*
X109219888Y-129196950D01*
X109219886Y-129196955D01*
X109194734Y-129323401D01*
X109194734Y-129452332D01*
X109206531Y-129511637D01*
X109219886Y-129578778D01*
X109269223Y-129697889D01*
X109294288Y-129735401D01*
X109306651Y-129753903D01*
X109327866Y-129821655D01*
X109309083Y-129890122D01*
X109256266Y-129937566D01*
X109250105Y-129940314D01*
X109227822Y-129949544D01*
X109183558Y-129967879D01*
X109163976Y-129975990D01*
X109056780Y-130047616D01*
X109056774Y-130047621D01*
X108965621Y-130138774D01*
X108965616Y-130138780D01*
X108893989Y-130245978D01*
X108844654Y-130365083D01*
X108844652Y-130365088D01*
X108819500Y-130491534D01*
X108819500Y-130620465D01*
X108838744Y-130717208D01*
X108844652Y-130746911D01*
X108893989Y-130866022D01*
X108941849Y-130937649D01*
X108965616Y-130973219D01*
X108965621Y-130973225D01*
X109056774Y-131064378D01*
X109061565Y-131068310D01*
X109059808Y-131070450D01*
X109097687Y-131115757D01*
X109106548Y-131186199D01*
X109075919Y-131250249D01*
X109015524Y-131287571D01*
X108982167Y-131292067D01*
X108261780Y-131292067D01*
X108193659Y-131272065D01*
X108172685Y-131255162D01*
X105517252Y-128599728D01*
X105517248Y-128599725D01*
X105517247Y-128599724D01*
X105513689Y-128597670D01*
X105513684Y-128597667D01*
X105430258Y-128549501D01*
X105430255Y-128549500D01*
X105430254Y-128549499D01*
X105430252Y-128549498D01*
X105430251Y-128549498D01*
X105404253Y-128542532D01*
X105333225Y-128523500D01*
X105333223Y-128523500D01*
X104227294Y-128523500D01*
X104159173Y-128503498D01*
X104112680Y-128449842D01*
X104102576Y-128379568D01*
X104121709Y-128328741D01*
X104128891Y-128317711D01*
X104140383Y-128306220D01*
X104167278Y-128265969D01*
X107632370Y-128265969D01*
X107632370Y-128394900D01*
X107644999Y-128458389D01*
X107657522Y-128521346D01*
X107706859Y-128640457D01*
X107739179Y-128688827D01*
X107778486Y-128747654D01*
X107778491Y-128747660D01*
X107869644Y-128838813D01*
X107869650Y-128838818D01*
X107976848Y-128910446D01*
X108095959Y-128959783D01*
X108222407Y-128984935D01*
X108222408Y-128984935D01*
X108351332Y-128984935D01*
X108351333Y-128984935D01*
X108477781Y-128959783D01*
X108596892Y-128910446D01*
X108704090Y-128838818D01*
X108795253Y-128747655D01*
X108866881Y-128640457D01*
X108916218Y-128521346D01*
X108941370Y-128394898D01*
X108941370Y-128394894D01*
X108941396Y-128394764D01*
X108974303Y-128331854D01*
X109035998Y-128296722D01*
X109040393Y-128295766D01*
X109044219Y-128295005D01*
X109044220Y-128295005D01*
X109170668Y-128269853D01*
X109289779Y-128220516D01*
X109396977Y-128148888D01*
X109488140Y-128057725D01*
X109559768Y-127950527D01*
X109609105Y-127831416D01*
X109634257Y-127704968D01*
X109634257Y-127576042D01*
X109609105Y-127449594D01*
X109559768Y-127330483D01*
X109488140Y-127223285D01*
X109488135Y-127223279D01*
X109396982Y-127132126D01*
X109396976Y-127132121D01*
X109361406Y-127108354D01*
X109289779Y-127060494D01*
X109170668Y-127011157D01*
X109156677Y-127008374D01*
X109044222Y-126986005D01*
X109044220Y-126986005D01*
X108915294Y-126986005D01*
X108915291Y-126986005D01*
X108788845Y-127011157D01*
X108788840Y-127011159D01*
X108669735Y-127060494D01*
X108562537Y-127132121D01*
X108562531Y-127132126D01*
X108471378Y-127223279D01*
X108471373Y-127223285D01*
X108399746Y-127330483D01*
X108350411Y-127449588D01*
X108350409Y-127449593D01*
X108325230Y-127576176D01*
X108292322Y-127639086D01*
X108230627Y-127674217D01*
X108226234Y-127675173D01*
X108153358Y-127689669D01*
X108095959Y-127701087D01*
X108095957Y-127701088D01*
X108095953Y-127701089D01*
X107976848Y-127750424D01*
X107869650Y-127822051D01*
X107869644Y-127822056D01*
X107778491Y-127913209D01*
X107778486Y-127913215D01*
X107706859Y-128020413D01*
X107657524Y-128139518D01*
X107657522Y-128139523D01*
X107632370Y-128265969D01*
X104167278Y-128265969D01*
X104212011Y-128199022D01*
X104222193Y-128174439D01*
X104228554Y-128164672D01*
X104247021Y-128148863D01*
X104262275Y-128129934D01*
X104273501Y-128126196D01*
X104282489Y-128118504D01*
X104306569Y-128115189D01*
X104329638Y-128107511D01*
X104343799Y-128110065D01*
X104352823Y-128108824D01*
X104362942Y-128113519D01*
X104382357Y-128117022D01*
X104452573Y-128146106D01*
X104579021Y-128171258D01*
X104579022Y-128171258D01*
X104707946Y-128171258D01*
X104707947Y-128171258D01*
X104834395Y-128146106D01*
X104834405Y-128146102D01*
X104840992Y-128143374D01*
X104840993Y-128143373D01*
X104848530Y-128140251D01*
X104953506Y-128096769D01*
X105060704Y-128025141D01*
X105151867Y-127933978D01*
X105223495Y-127826780D01*
X105272832Y-127707669D01*
X105297984Y-127581221D01*
X105297984Y-127452295D01*
X105284665Y-127385337D01*
X105290992Y-127314627D01*
X105334546Y-127258559D01*
X105360020Y-127244352D01*
X105401016Y-127227372D01*
X105508214Y-127155744D01*
X105599377Y-127064581D01*
X105599384Y-127064569D01*
X105603304Y-127059795D01*
X105604618Y-127060873D01*
X105652816Y-127020576D01*
X105723257Y-127011713D01*
X105751345Y-127019685D01*
X105854085Y-127062241D01*
X105980533Y-127087393D01*
X105980534Y-127087393D01*
X106109458Y-127087393D01*
X106109459Y-127087393D01*
X106235907Y-127062241D01*
X106355018Y-127012904D01*
X106462216Y-126941276D01*
X106553379Y-126850113D01*
X106625007Y-126742915D01*
X106674344Y-126623804D01*
X106699496Y-126497356D01*
X106699496Y-126368430D01*
X106674344Y-126241982D01*
X106625007Y-126122871D01*
X106553379Y-126015673D01*
X106553374Y-126015667D01*
X106462221Y-125924514D01*
X106462215Y-125924509D01*
X106425534Y-125900000D01*
X106355018Y-125852882D01*
X106235907Y-125803545D01*
X106224882Y-125801352D01*
X106109461Y-125778393D01*
X106109459Y-125778393D01*
X105980533Y-125778393D01*
X105980527Y-125778393D01*
X105865107Y-125801352D01*
X105794393Y-125795024D01*
X105738326Y-125751469D01*
X105714707Y-125684517D01*
X105731034Y-125615423D01*
X105735762Y-125607770D01*
X105736954Y-125605987D01*
X105761980Y-125568533D01*
X105811317Y-125449422D01*
X105836469Y-125322974D01*
X105836469Y-125194048D01*
X105811317Y-125067600D01*
X105761980Y-124948489D01*
X105690352Y-124841291D01*
X105690347Y-124841285D01*
X105599194Y-124750132D01*
X105599188Y-124750127D01*
X105554083Y-124719989D01*
X105491991Y-124678500D01*
X105372880Y-124629163D01*
X105246434Y-124604011D01*
X105246432Y-124604011D01*
X105117506Y-124604011D01*
X105117503Y-124604011D01*
X104991057Y-124629163D01*
X104991052Y-124629165D01*
X104871947Y-124678500D01*
X104764749Y-124750127D01*
X104764743Y-124750132D01*
X104673590Y-124841285D01*
X104673585Y-124841291D01*
X104601958Y-124948489D01*
X104552623Y-125067594D01*
X104552621Y-125067599D01*
X104527469Y-125194045D01*
X104527469Y-125322976D01*
X104543789Y-125405021D01*
X104552621Y-125449422D01*
X104601958Y-125568533D01*
X104632404Y-125614098D01*
X104673585Y-125675730D01*
X104673590Y-125675736D01*
X104764743Y-125766889D01*
X104764749Y-125766894D01*
X104852541Y-125825555D01*
X104898068Y-125880031D01*
X104906916Y-125950474D01*
X104876275Y-126014518D01*
X104830758Y-126046727D01*
X104780973Y-126067349D01*
X104780972Y-126067349D01*
X104673774Y-126138977D01*
X104673768Y-126138982D01*
X104582615Y-126230135D01*
X104582610Y-126230141D01*
X104510983Y-126337339D01*
X104461648Y-126456444D01*
X104461646Y-126456449D01*
X104436494Y-126582895D01*
X104436494Y-126711826D01*
X104449812Y-126778777D01*
X104443484Y-126849491D01*
X104399930Y-126905558D01*
X104374453Y-126919767D01*
X104333463Y-126936746D01*
X104333462Y-126936746D01*
X104226264Y-127008374D01*
X104226258Y-127008379D01*
X104135105Y-127099532D01*
X104135100Y-127099538D01*
X104063472Y-127206736D01*
X104063469Y-127206743D01*
X104057751Y-127220547D01*
X104013202Y-127275827D01*
X103945838Y-127298246D01*
X103893127Y-127288735D01*
X103822921Y-127259655D01*
X103822911Y-127259652D01*
X103696465Y-127234500D01*
X103696463Y-127234500D01*
X103567537Y-127234500D01*
X103567534Y-127234500D01*
X103441088Y-127259652D01*
X103441083Y-127259654D01*
X103321978Y-127308989D01*
X103214780Y-127380616D01*
X103214774Y-127380621D01*
X103123621Y-127471774D01*
X103123616Y-127471780D01*
X103048550Y-127584125D01*
X103047549Y-127583456D01*
X103002273Y-127629536D01*
X102933034Y-127645236D01*
X102870917Y-127624248D01*
X102854050Y-127612978D01*
X102799022Y-127576209D01*
X102697355Y-127534097D01*
X102679916Y-127526874D01*
X102679911Y-127526872D01*
X102553465Y-127501720D01*
X102553463Y-127501720D01*
X102424537Y-127501720D01*
X102424534Y-127501720D01*
X102298088Y-127526872D01*
X102298083Y-127526874D01*
X102178978Y-127576209D01*
X102071780Y-127647836D01*
X102071774Y-127647841D01*
X101980621Y-127738994D01*
X101980616Y-127739000D01*
X101908988Y-127846198D01*
X101908988Y-127846199D01*
X101884886Y-127904385D01*
X101840337Y-127959665D01*
X101772973Y-127982085D01*
X101720261Y-127972574D01*
X101663920Y-127949237D01*
X101663911Y-127949234D01*
X101537465Y-127924082D01*
X101537463Y-127924082D01*
X101408537Y-127924082D01*
X101408534Y-127924082D01*
X101282088Y-127949234D01*
X101282083Y-127949236D01*
X101162978Y-127998571D01*
X101055780Y-128070198D01*
X101055774Y-128070203D01*
X100964621Y-128161356D01*
X100964616Y-128161362D01*
X100892989Y-128268560D01*
X100843654Y-128387665D01*
X100843652Y-128387670D01*
X100818500Y-128514116D01*
X100818500Y-128643047D01*
X100836466Y-128733367D01*
X100843652Y-128769493D01*
X100892989Y-128888604D01*
X100915289Y-128921978D01*
X100964616Y-128995801D01*
X100964621Y-128995807D01*
X101055774Y-129086960D01*
X101055780Y-129086965D01*
X101162978Y-129158593D01*
X101190737Y-129170091D01*
X101246018Y-129214639D01*
X101268439Y-129282003D01*
X101250881Y-129350794D01*
X101198919Y-129399172D01*
X101142519Y-129412500D01*
X100413213Y-129412500D01*
X100345092Y-129392498D01*
X100324118Y-129375595D01*
X99478405Y-128529882D01*
X99444379Y-128467570D01*
X99441500Y-128440787D01*
X99441500Y-128088770D01*
X99461502Y-128020649D01*
X99515158Y-127974156D01*
X99585432Y-127964052D01*
X99650012Y-127993546D01*
X99672265Y-128018768D01*
X99694616Y-128052219D01*
X99694621Y-128052225D01*
X99785774Y-128143378D01*
X99785780Y-128143383D01*
X99892978Y-128215011D01*
X100012089Y-128264348D01*
X100138537Y-128289500D01*
X100138538Y-128289500D01*
X100267462Y-128289500D01*
X100267463Y-128289500D01*
X100393911Y-128264348D01*
X100513022Y-128215011D01*
X100620220Y-128143383D01*
X100711383Y-128052220D01*
X100783011Y-127945022D01*
X100832348Y-127825911D01*
X100857500Y-127699463D01*
X100857500Y-127570537D01*
X100832348Y-127444089D01*
X100832345Y-127444082D01*
X100832344Y-127444078D01*
X100802950Y-127373116D01*
X100795360Y-127302526D01*
X100827139Y-127239039D01*
X100871140Y-127208488D01*
X100894022Y-127199011D01*
X101001220Y-127127383D01*
X101092383Y-127036220D01*
X101164011Y-126929022D01*
X101213348Y-126809911D01*
X101238500Y-126683463D01*
X101238500Y-126554537D01*
X101213348Y-126428089D01*
X101164011Y-126308978D01*
X101092383Y-126201780D01*
X101092378Y-126201774D01*
X101001225Y-126110621D01*
X101001219Y-126110616D01*
X100965649Y-126086849D01*
X100894022Y-126038989D01*
X100774911Y-125989652D01*
X100755978Y-125985886D01*
X100648465Y-125964500D01*
X100648463Y-125964500D01*
X100519537Y-125964500D01*
X100519534Y-125964500D01*
X100393088Y-125989652D01*
X100393083Y-125989654D01*
X100273978Y-126038989D01*
X100166780Y-126110616D01*
X100166774Y-126110621D01*
X100075621Y-126201774D01*
X100075616Y-126201780D01*
X100003989Y-126308978D01*
X99954654Y-126428083D01*
X99954652Y-126428088D01*
X99929500Y-126554534D01*
X99929500Y-126683465D01*
X99954652Y-126809911D01*
X99954655Y-126809921D01*
X99984049Y-126880885D01*
X99991638Y-126951475D01*
X99959858Y-127014962D01*
X99915861Y-127045510D01*
X99892977Y-127054989D01*
X99785780Y-127126616D01*
X99785774Y-127126621D01*
X99694621Y-127217774D01*
X99694616Y-127217780D01*
X99622989Y-127324978D01*
X99573654Y-127444083D01*
X99573652Y-127444088D01*
X99550117Y-127562406D01*
X99517209Y-127625316D01*
X99455514Y-127660447D01*
X99384619Y-127656647D01*
X99337443Y-127626920D01*
X99237395Y-127526872D01*
X99137009Y-127426486D01*
X99102986Y-127364177D01*
X99108050Y-127293361D01*
X99150597Y-127236525D01*
X99156104Y-127232628D01*
X99160018Y-127230012D01*
X99160022Y-127230011D01*
X99267220Y-127158383D01*
X99358383Y-127067220D01*
X99430011Y-126960022D01*
X99479348Y-126840911D01*
X99504500Y-126714463D01*
X99504500Y-126585537D01*
X99479348Y-126459089D01*
X99430011Y-126339978D01*
X99358383Y-126232780D01*
X99358378Y-126232774D01*
X99267225Y-126141621D01*
X99267219Y-126141616D01*
X99225944Y-126114037D01*
X99160022Y-126069989D01*
X99040911Y-126020652D01*
X99015850Y-126015667D01*
X98914465Y-125995500D01*
X98914463Y-125995500D01*
X98785537Y-125995500D01*
X98785534Y-125995500D01*
X98659088Y-126020652D01*
X98659083Y-126020654D01*
X98539978Y-126069989D01*
X98432780Y-126141616D01*
X98432774Y-126141621D01*
X98341621Y-126232774D01*
X98341616Y-126232780D01*
X98269990Y-126339976D01*
X98223305Y-126452683D01*
X98178756Y-126507963D01*
X98111393Y-126530384D01*
X98042602Y-126512826D01*
X97994223Y-126460863D01*
X97983317Y-126429045D01*
X97983126Y-126428083D01*
X97979348Y-126409089D01*
X97930011Y-126289978D01*
X97858383Y-126182780D01*
X97858378Y-126182774D01*
X97767225Y-126091621D01*
X97767219Y-126091616D01*
X97728451Y-126065712D01*
X97660022Y-126019989D01*
X97540911Y-125970652D01*
X97509983Y-125964500D01*
X97414465Y-125945500D01*
X97414463Y-125945500D01*
X97285537Y-125945500D01*
X97285534Y-125945500D01*
X97159088Y-125970652D01*
X97159083Y-125970654D01*
X97039978Y-126019989D01*
X96932780Y-126091616D01*
X96932774Y-126091621D01*
X96841621Y-126182774D01*
X96841616Y-126182780D01*
X96769988Y-126289978D01*
X96769986Y-126289983D01*
X96743461Y-126354019D01*
X96698913Y-126409300D01*
X96631549Y-126431720D01*
X96562758Y-126414161D01*
X96514380Y-126362199D01*
X96503474Y-126330381D01*
X96499217Y-126308978D01*
X96479348Y-126209089D01*
X96430011Y-126089978D01*
X96358383Y-125982780D01*
X96358378Y-125982774D01*
X96267225Y-125891621D01*
X96267219Y-125891616D01*
X96204601Y-125849776D01*
X96160022Y-125819989D01*
X96040911Y-125770652D01*
X96040906Y-125770651D01*
X96034994Y-125768858D01*
X96035697Y-125766538D01*
X95982278Y-125738583D01*
X95947157Y-125676881D01*
X95950970Y-125605987D01*
X95980686Y-125558836D01*
X96317276Y-125222247D01*
X96367502Y-125135253D01*
X96393501Y-125038225D01*
X96393501Y-124937775D01*
X96393501Y-124930058D01*
X96393500Y-124930040D01*
X96393500Y-123269787D01*
X99477731Y-123269787D01*
X99477731Y-123269790D01*
X99477731Y-123398716D01*
X99502883Y-123525164D01*
X99552220Y-123644275D01*
X99565711Y-123664465D01*
X99623847Y-123751472D01*
X99623852Y-123751478D01*
X99715005Y-123842631D01*
X99715011Y-123842636D01*
X99822209Y-123914264D01*
X99941320Y-123963601D01*
X100067768Y-123988753D01*
X100067769Y-123988753D01*
X100196693Y-123988753D01*
X100196694Y-123988753D01*
X100323142Y-123963601D01*
X100442253Y-123914264D01*
X100549451Y-123842636D01*
X100640614Y-123751473D01*
X100712242Y-123644275D01*
X100761579Y-123525164D01*
X100786731Y-123398716D01*
X100786731Y-123334478D01*
X100806733Y-123266357D01*
X100860389Y-123219864D01*
X100890306Y-123211800D01*
X100890089Y-123210708D01*
X100912863Y-123206177D01*
X101022609Y-123184348D01*
X101141720Y-123135011D01*
X101248918Y-123063383D01*
X101340081Y-122972220D01*
X101411709Y-122865022D01*
X101461046Y-122745911D01*
X101486198Y-122619463D01*
X101486198Y-122490537D01*
X101461046Y-122364089D01*
X101411709Y-122244978D01*
X101340081Y-122137780D01*
X101340076Y-122137774D01*
X101248923Y-122046621D01*
X101248917Y-122046616D01*
X101213347Y-122022849D01*
X101141720Y-121974989D01*
X101022609Y-121925652D01*
X100996095Y-121920378D01*
X100896163Y-121900500D01*
X100896161Y-121900500D01*
X100767235Y-121900500D01*
X100767232Y-121900500D01*
X100640786Y-121925652D01*
X100640781Y-121925654D01*
X100521676Y-121974989D01*
X100414478Y-122046616D01*
X100414472Y-122046621D01*
X100323319Y-122137774D01*
X100323314Y-122137780D01*
X100251687Y-122244978D01*
X100202352Y-122364083D01*
X100202350Y-122364088D01*
X100177198Y-122490534D01*
X100177198Y-122554774D01*
X100157196Y-122622895D01*
X100103540Y-122669388D01*
X100073623Y-122677458D01*
X100073840Y-122678545D01*
X99941319Y-122704905D01*
X99941314Y-122704907D01*
X99822209Y-122754242D01*
X99715011Y-122825869D01*
X99715005Y-122825874D01*
X99623852Y-122917027D01*
X99623847Y-122917033D01*
X99552220Y-123024231D01*
X99502885Y-123143336D01*
X99502883Y-123143341D01*
X99477731Y-123269787D01*
X96393500Y-123269787D01*
X96393500Y-122236534D01*
X97897500Y-122236534D01*
X97897500Y-122236537D01*
X97897500Y-122365463D01*
X97922652Y-122491911D01*
X97971989Y-122611022D01*
X98017107Y-122678545D01*
X98043616Y-122718219D01*
X98043621Y-122718225D01*
X98134774Y-122809378D01*
X98134780Y-122809383D01*
X98241978Y-122881011D01*
X98361089Y-122930348D01*
X98487537Y-122955500D01*
X98487538Y-122955500D01*
X98616462Y-122955500D01*
X98616463Y-122955500D01*
X98742911Y-122930348D01*
X98862022Y-122881011D01*
X98969220Y-122809383D01*
X99060383Y-122718220D01*
X99132011Y-122611022D01*
X99181348Y-122491911D01*
X99206500Y-122365463D01*
X99206500Y-122236537D01*
X99181348Y-122110089D01*
X99132011Y-121990978D01*
X99060383Y-121883780D01*
X99060378Y-121883774D01*
X98969225Y-121792621D01*
X98969219Y-121792616D01*
X98933649Y-121768849D01*
X98862022Y-121720989D01*
X98742911Y-121671652D01*
X98616465Y-121646500D01*
X98616463Y-121646500D01*
X98487537Y-121646500D01*
X98487534Y-121646500D01*
X98361088Y-121671652D01*
X98361083Y-121671654D01*
X98241978Y-121720989D01*
X98134780Y-121792616D01*
X98134774Y-121792621D01*
X98043621Y-121883774D01*
X98043616Y-121883780D01*
X97971989Y-121990978D01*
X97922654Y-122110083D01*
X97922652Y-122110088D01*
X97897500Y-122236534D01*
X96393500Y-122236534D01*
X96393500Y-121347534D01*
X102723500Y-121347534D01*
X102723500Y-121347537D01*
X102723500Y-121476463D01*
X102748652Y-121602911D01*
X102797989Y-121722022D01*
X102803262Y-121729913D01*
X102869616Y-121829219D01*
X102869621Y-121829225D01*
X102960774Y-121920378D01*
X102960780Y-121920383D01*
X103067978Y-121992011D01*
X103187089Y-122041348D01*
X103313537Y-122066500D01*
X103313538Y-122066500D01*
X103442462Y-122066500D01*
X103442463Y-122066500D01*
X103568911Y-122041348D01*
X103688022Y-121992011D01*
X103795220Y-121920383D01*
X103886383Y-121829220D01*
X103958011Y-121722022D01*
X104007348Y-121602911D01*
X104032500Y-121476463D01*
X104032500Y-121474534D01*
X104882500Y-121474534D01*
X104882500Y-121603465D01*
X104896716Y-121674933D01*
X104907652Y-121729911D01*
X104956989Y-121849022D01*
X104980210Y-121883774D01*
X105028616Y-121956219D01*
X105028621Y-121956225D01*
X105119774Y-122047378D01*
X105119780Y-122047383D01*
X105226978Y-122119011D01*
X105346089Y-122168348D01*
X105472537Y-122193500D01*
X105472538Y-122193500D01*
X105601462Y-122193500D01*
X105601463Y-122193500D01*
X105727911Y-122168348D01*
X105847022Y-122119011D01*
X105954220Y-122047383D01*
X106045383Y-121956220D01*
X106117011Y-121849022D01*
X106166348Y-121729911D01*
X106177284Y-121674930D01*
X113295500Y-121674930D01*
X113295500Y-122925063D01*
X113295501Y-122925073D01*
X113310265Y-122999300D01*
X113366516Y-123083484D01*
X113450697Y-123139733D01*
X113450699Y-123139734D01*
X113524933Y-123154500D01*
X115075066Y-123154499D01*
X115075069Y-123154498D01*
X115075073Y-123154498D01*
X115131191Y-123143336D01*
X115149301Y-123139734D01*
X115233484Y-123083484D01*
X115289734Y-122999301D01*
X115304500Y-122925067D01*
X115304499Y-121674934D01*
X115304498Y-121674930D01*
X115304498Y-121674926D01*
X115289734Y-121600699D01*
X115233483Y-121516515D01*
X115149302Y-121460266D01*
X115075067Y-121445500D01*
X113524936Y-121445500D01*
X113524926Y-121445501D01*
X113450699Y-121460265D01*
X113366515Y-121516516D01*
X113310266Y-121600697D01*
X113295500Y-121674930D01*
X106177284Y-121674930D01*
X106191500Y-121603463D01*
X106191500Y-121474537D01*
X106166348Y-121348089D01*
X106117011Y-121228978D01*
X106045383Y-121121780D01*
X106045378Y-121121774D01*
X105954225Y-121030621D01*
X105954219Y-121030616D01*
X105918649Y-121006849D01*
X105847022Y-120958989D01*
X105727911Y-120909652D01*
X105601465Y-120884500D01*
X105601463Y-120884500D01*
X105472537Y-120884500D01*
X105472534Y-120884500D01*
X105346088Y-120909652D01*
X105346083Y-120909654D01*
X105226978Y-120958989D01*
X105119780Y-121030616D01*
X105119774Y-121030621D01*
X105028621Y-121121774D01*
X105028616Y-121121780D01*
X104956989Y-121228978D01*
X104907654Y-121348083D01*
X104907652Y-121348088D01*
X104882500Y-121474534D01*
X104032500Y-121474534D01*
X104032500Y-121347537D01*
X104007348Y-121221089D01*
X103958011Y-121101978D01*
X103886383Y-120994780D01*
X103886378Y-120994774D01*
X103795225Y-120903621D01*
X103795219Y-120903616D01*
X103759649Y-120879849D01*
X103688022Y-120831989D01*
X103568911Y-120782652D01*
X103442465Y-120757500D01*
X103442463Y-120757500D01*
X103313537Y-120757500D01*
X103313534Y-120757500D01*
X103187088Y-120782652D01*
X103187083Y-120782654D01*
X103067978Y-120831989D01*
X102960780Y-120903616D01*
X102960774Y-120903621D01*
X102869621Y-120994774D01*
X102869616Y-120994780D01*
X102797989Y-121101978D01*
X102748654Y-121221083D01*
X102748652Y-121221088D01*
X102723500Y-121347534D01*
X96393500Y-121347534D01*
X96393500Y-118698212D01*
X96402283Y-118668296D01*
X96408912Y-118637827D01*
X96412726Y-118632730D01*
X96413502Y-118630091D01*
X96430399Y-118609122D01*
X96527068Y-118512453D01*
X96527075Y-118512448D01*
X96605272Y-118434251D01*
X96605276Y-118434247D01*
X96638585Y-118376553D01*
X96640374Y-118374354D01*
X96640783Y-118372890D01*
X96645692Y-118367823D01*
X96663894Y-118345467D01*
X96670420Y-118339653D01*
X96713577Y-118310817D01*
X99850515Y-118310817D01*
X99850515Y-118439748D01*
X99863550Y-118505277D01*
X99875667Y-118566194D01*
X99925004Y-118685305D01*
X99961534Y-118739976D01*
X99996631Y-118792502D01*
X99996636Y-118792508D01*
X100087789Y-118883661D01*
X100087795Y-118883666D01*
X100194993Y-118955294D01*
X100314104Y-119004631D01*
X100440552Y-119029783D01*
X100440553Y-119029783D01*
X100569477Y-119029783D01*
X100569478Y-119029783D01*
X100695926Y-119004631D01*
X100815037Y-118955294D01*
X100922235Y-118883666D01*
X101013398Y-118792503D01*
X101085026Y-118685305D01*
X101134363Y-118566194D01*
X101159515Y-118439746D01*
X101159515Y-118310820D01*
X101134363Y-118184372D01*
X101085026Y-118065261D01*
X101013398Y-117958063D01*
X101013393Y-117958057D01*
X100922240Y-117866904D01*
X100922234Y-117866899D01*
X100874690Y-117835131D01*
X100815037Y-117795272D01*
X100695926Y-117745935D01*
X100643652Y-117735537D01*
X100569480Y-117720783D01*
X100569478Y-117720783D01*
X100440552Y-117720783D01*
X100440549Y-117720783D01*
X100314103Y-117745935D01*
X100314098Y-117745937D01*
X100194993Y-117795272D01*
X100087795Y-117866899D01*
X100087789Y-117866904D01*
X99996636Y-117958057D01*
X99996631Y-117958063D01*
X99925004Y-118065261D01*
X99875669Y-118184366D01*
X99875667Y-118184371D01*
X99850515Y-118310817D01*
X96713577Y-118310817D01*
X96717220Y-118308383D01*
X96808383Y-118217220D01*
X96880011Y-118110022D01*
X96929348Y-117990911D01*
X96954500Y-117864463D01*
X96954500Y-117735537D01*
X96929348Y-117609089D01*
X96880011Y-117489978D01*
X96808383Y-117382780D01*
X96808376Y-117382772D01*
X96717225Y-117291621D01*
X96717219Y-117291616D01*
X96681649Y-117267849D01*
X96610022Y-117219989D01*
X96490911Y-117170652D01*
X96364465Y-117145500D01*
X96364463Y-117145500D01*
X96235537Y-117145500D01*
X96235534Y-117145500D01*
X96109088Y-117170652D01*
X96109083Y-117170654D01*
X95989978Y-117219989D01*
X95882780Y-117291616D01*
X95882774Y-117291621D01*
X95791624Y-117382772D01*
X95791616Y-117382780D01*
X95719989Y-117489978D01*
X95670654Y-117609083D01*
X95670652Y-117609088D01*
X95645500Y-117735534D01*
X95645500Y-117864465D01*
X95670652Y-117990911D01*
X95670654Y-117990916D01*
X95719989Y-118110022D01*
X95721530Y-118112905D01*
X95721880Y-118114587D01*
X95722358Y-118115741D01*
X95722139Y-118115831D01*
X95735999Y-118182411D01*
X95710594Y-118248707D01*
X95710373Y-118248996D01*
X95706725Y-118253750D01*
X95656500Y-118340741D01*
X95645236Y-118382780D01*
X95631445Y-118434251D01*
X95630500Y-118437776D01*
X95630500Y-124777787D01*
X95610498Y-124845908D01*
X95593595Y-124866882D01*
X94865753Y-125594724D01*
X94846379Y-125614098D01*
X94794725Y-125665751D01*
X94794721Y-125665756D01*
X94744500Y-125752741D01*
X94737627Y-125778393D01*
X94726784Y-125818861D01*
X94718500Y-125849776D01*
X94718500Y-128043223D01*
X94718499Y-128043223D01*
X94744498Y-128140251D01*
X94744501Y-128140258D01*
X94780733Y-128203013D01*
X94780734Y-128203015D01*
X94794723Y-128227245D01*
X94794727Y-128227251D01*
X95828595Y-129261118D01*
X95862620Y-129323430D01*
X95865500Y-129350213D01*
X95865500Y-129477465D01*
X95887453Y-129587827D01*
X95890652Y-129603911D01*
X95939989Y-129723022D01*
X95965066Y-129760552D01*
X96011616Y-129830219D01*
X96011621Y-129830225D01*
X96102774Y-129921378D01*
X96102780Y-129921383D01*
X96209978Y-129993011D01*
X96329089Y-130042348D01*
X96455537Y-130067500D01*
X96455538Y-130067500D01*
X96584462Y-130067500D01*
X96584463Y-130067500D01*
X96710911Y-130042348D01*
X96830022Y-129993011D01*
X96937220Y-129921383D01*
X97028383Y-129830220D01*
X97100011Y-129723022D01*
X97149348Y-129603911D01*
X97174500Y-129477463D01*
X97174500Y-129348537D01*
X97149348Y-129222089D01*
X97100011Y-129102978D01*
X97028383Y-128995780D01*
X97028378Y-128995774D01*
X96937225Y-128904621D01*
X96937219Y-128904616D01*
X96899398Y-128879345D01*
X96830022Y-128832989D01*
X96710911Y-128783652D01*
X96584465Y-128758500D01*
X96584463Y-128758500D01*
X96457213Y-128758500D01*
X96389092Y-128738498D01*
X96368118Y-128721595D01*
X95518405Y-127871882D01*
X95484379Y-127809570D01*
X95481500Y-127782787D01*
X95481500Y-127144360D01*
X95501502Y-127076239D01*
X95555158Y-127029746D01*
X95625432Y-127019642D01*
X95655723Y-127027954D01*
X95659089Y-127029348D01*
X95785537Y-127054500D01*
X95785538Y-127054500D01*
X95914462Y-127054500D01*
X95914463Y-127054500D01*
X96040911Y-127029348D01*
X96160022Y-126980011D01*
X96267220Y-126908383D01*
X96358383Y-126817220D01*
X96430011Y-126710022D01*
X96456537Y-126645981D01*
X96475361Y-126622621D01*
X96491987Y-126597651D01*
X96497386Y-126595290D01*
X96501085Y-126590700D01*
X96529550Y-126581225D01*
X96557036Y-126569207D01*
X96562855Y-126570140D01*
X96568448Y-126568279D01*
X96597514Y-126575697D01*
X96627138Y-126580448D01*
X96631529Y-126584379D01*
X96637239Y-126585837D01*
X96657681Y-126607793D01*
X96680033Y-126627804D01*
X96682767Y-126634736D01*
X96685618Y-126637798D01*
X96694401Y-126660663D01*
X96695628Y-126665107D01*
X96720652Y-126790911D01*
X96749784Y-126861244D01*
X96751855Y-126868742D01*
X96751400Y-126896772D01*
X96754398Y-126924650D01*
X96750833Y-126931770D01*
X96750705Y-126939730D01*
X96735170Y-126963062D01*
X96722619Y-126988137D01*
X96714913Y-126993486D01*
X96711359Y-126998826D01*
X96700189Y-127003709D01*
X96678619Y-127018687D01*
X96590976Y-127054990D01*
X96483780Y-127126616D01*
X96483774Y-127126621D01*
X96392621Y-127217774D01*
X96392616Y-127217780D01*
X96320989Y-127324978D01*
X96271654Y-127444083D01*
X96271652Y-127444088D01*
X96246500Y-127570534D01*
X96246500Y-127699465D01*
X96271652Y-127825911D01*
X96271654Y-127825916D01*
X96272012Y-127826780D01*
X96320989Y-127945022D01*
X96339399Y-127972574D01*
X96392616Y-128052219D01*
X96392621Y-128052225D01*
X96483774Y-128143378D01*
X96483780Y-128143383D01*
X96590978Y-128215011D01*
X96710089Y-128264348D01*
X96836537Y-128289500D01*
X96836538Y-128289500D01*
X96965462Y-128289500D01*
X96965463Y-128289500D01*
X97091911Y-128264348D01*
X97211022Y-128215011D01*
X97318220Y-128143383D01*
X97318219Y-128143383D01*
X97323367Y-128139944D01*
X97324643Y-128141854D01*
X97380513Y-128118100D01*
X97450496Y-128130054D01*
X97502907Y-128177945D01*
X97518728Y-128218665D01*
X97534255Y-128296722D01*
X97541652Y-128333911D01*
X97590989Y-128453022D01*
X97624716Y-128503498D01*
X97662616Y-128560219D01*
X97662621Y-128560225D01*
X97752595Y-128650199D01*
X97783558Y-128701056D01*
X97789500Y-128719712D01*
X97789500Y-128758910D01*
X97815499Y-128855939D01*
X97847475Y-128911323D01*
X97854281Y-128923112D01*
X97854282Y-128923114D01*
X97865723Y-128942930D01*
X97865727Y-128942936D01*
X99382850Y-130460058D01*
X99453879Y-130531087D01*
X99453880Y-130531088D01*
X99453882Y-130531089D01*
X99540867Y-130581310D01*
X99540869Y-130581310D01*
X99540872Y-130581312D01*
X99637901Y-130607311D01*
X101466976Y-130607311D01*
X101535097Y-130627313D01*
X101581590Y-130680969D01*
X101591694Y-130751243D01*
X101562200Y-130815823D01*
X101556071Y-130822406D01*
X100065397Y-132313080D01*
X100038028Y-132328024D01*
X100011800Y-132344881D01*
X100005501Y-132345786D01*
X100003085Y-132347106D01*
X99976302Y-132349985D01*
X99783294Y-132349985D01*
X99715173Y-132329983D01*
X99694199Y-132313080D01*
X99604225Y-132223106D01*
X99604219Y-132223101D01*
X99525906Y-132170774D01*
X99497022Y-132151474D01*
X99377911Y-132102137D01*
X99251465Y-132076985D01*
X99251463Y-132076985D01*
X99122537Y-132076985D01*
X99122534Y-132076985D01*
X98996088Y-132102137D01*
X98996083Y-132102139D01*
X98876978Y-132151474D01*
X98769780Y-132223101D01*
X98769774Y-132223106D01*
X98678621Y-132314259D01*
X98678616Y-132314265D01*
X98606989Y-132421463D01*
X98557654Y-132540568D01*
X98557652Y-132540573D01*
X98532500Y-132667019D01*
X98532500Y-132795950D01*
X98551743Y-132892688D01*
X98557652Y-132922396D01*
X98606989Y-133041507D01*
X98652172Y-133109128D01*
X98678616Y-133148704D01*
X98678621Y-133148710D01*
X98769774Y-133239863D01*
X98769780Y-133239868D01*
X98876978Y-133311496D01*
X98996089Y-133360833D01*
X99044672Y-133370496D01*
X99107581Y-133403403D01*
X99142713Y-133465098D01*
X99138913Y-133535993D01*
X99097388Y-133593579D01*
X99068316Y-133610481D01*
X99064903Y-133611894D01*
X98957705Y-133683522D01*
X98957699Y-133683527D01*
X98866546Y-133774680D01*
X98866541Y-133774686D01*
X98794914Y-133881884D01*
X98745579Y-134000989D01*
X98745577Y-134000994D01*
X98720425Y-134127440D01*
X98720425Y-134127443D01*
X98720425Y-134256369D01*
X98745577Y-134382817D01*
X98794914Y-134501928D01*
X98842774Y-134573555D01*
X98866541Y-134609125D01*
X98866546Y-134609131D01*
X98957699Y-134700284D01*
X98957705Y-134700289D01*
X99064903Y-134771917D01*
X99184014Y-134821254D01*
X99310462Y-134846406D01*
X99310463Y-134846406D01*
X99439387Y-134846406D01*
X99439388Y-134846406D01*
X99565836Y-134821254D01*
X99684947Y-134771917D01*
X99792145Y-134700289D01*
X99883308Y-134609126D01*
X99954936Y-134501928D01*
X100004273Y-134382817D01*
X100029425Y-134256369D01*
X100029425Y-134127443D01*
X100004273Y-134000995D01*
X99954936Y-133881884D01*
X99883308Y-133774686D01*
X99883303Y-133774680D01*
X99792150Y-133683527D01*
X99792144Y-133683522D01*
X99756574Y-133659755D01*
X99684947Y-133611895D01*
X99565836Y-133562558D01*
X99517250Y-133552893D01*
X99454342Y-133519986D01*
X99419211Y-133458290D01*
X99423012Y-133387395D01*
X99464538Y-133329810D01*
X99493617Y-133312906D01*
X99497022Y-133311496D01*
X99604220Y-133239868D01*
X99635710Y-133208378D01*
X99694199Y-133149890D01*
X99756511Y-133115864D01*
X99783294Y-133112985D01*
X100236738Y-133112985D01*
X100236740Y-133112985D01*
X100333769Y-133086986D01*
X100333772Y-133086984D01*
X100333773Y-133086984D01*
X100386685Y-133056435D01*
X100420762Y-133036761D01*
X100491791Y-132965732D01*
X102512438Y-130945083D01*
X102574748Y-130911060D01*
X102645563Y-130916124D01*
X102702399Y-130958671D01*
X102725110Y-131009598D01*
X102736789Y-131068310D01*
X102748644Y-131127911D01*
X102797981Y-131247022D01*
X102832202Y-131298237D01*
X102869608Y-131354219D01*
X102869613Y-131354225D01*
X102960766Y-131445378D01*
X102960772Y-131445383D01*
X103067970Y-131517011D01*
X103105439Y-131532531D01*
X103125976Y-131541038D01*
X103181257Y-131585587D01*
X103203678Y-131652950D01*
X103186120Y-131721741D01*
X103166854Y-131746542D01*
X103123616Y-131789780D01*
X103051989Y-131896978D01*
X103002654Y-132016083D01*
X103002652Y-132016088D01*
X102977500Y-132142534D01*
X102977500Y-132271465D01*
X102989140Y-132329983D01*
X103002652Y-132397911D01*
X103051989Y-132517022D01*
X103073523Y-132549249D01*
X103123616Y-132624219D01*
X103123621Y-132624225D01*
X103214774Y-132715378D01*
X103214780Y-132715383D01*
X103321978Y-132787011D01*
X103441089Y-132836348D01*
X103567537Y-132861500D01*
X103567538Y-132861500D01*
X103696462Y-132861500D01*
X103696463Y-132861500D01*
X103822911Y-132836348D01*
X103942022Y-132787011D01*
X103976482Y-132763984D01*
X104044232Y-132742770D01*
X104112699Y-132761552D01*
X104160143Y-132814368D01*
X104162889Y-132820527D01*
X104172908Y-132844714D01*
X104194989Y-132898022D01*
X104266616Y-133005219D01*
X104266621Y-133005225D01*
X104317831Y-133056435D01*
X104351857Y-133118747D01*
X104346792Y-133189562D01*
X104304245Y-133246398D01*
X104298738Y-133250295D01*
X104157170Y-133344888D01*
X104157163Y-133344893D01*
X101629142Y-135872915D01*
X101566830Y-135906941D01*
X101540047Y-135909820D01*
X98334190Y-135909820D01*
X98266069Y-135889818D01*
X98245095Y-135872915D01*
X96378388Y-134006208D01*
X96378386Y-134006206D01*
X96232699Y-133908861D01*
X96070821Y-133841809D01*
X95898973Y-133807626D01*
X95898971Y-133807626D01*
X83769645Y-133807626D01*
X83594428Y-133807626D01*
X83594425Y-133807626D01*
X83422577Y-133841809D01*
X83422572Y-133841811D01*
X83260700Y-133908861D01*
X83115017Y-134006203D01*
X83115010Y-134006208D01*
X81407822Y-135713396D01*
X81407817Y-135713403D01*
X81310475Y-135859086D01*
X81243425Y-136020958D01*
X81243423Y-136020963D01*
X81209240Y-136192811D01*
X76900500Y-136192811D01*
X76900500Y-135435534D01*
X77745500Y-135435534D01*
X77745500Y-135564465D01*
X77759425Y-135634471D01*
X77770652Y-135690911D01*
X77819989Y-135810022D01*
X77852773Y-135859086D01*
X77891616Y-135917219D01*
X77891621Y-135917225D01*
X77982774Y-136008378D01*
X77982780Y-136008383D01*
X78089978Y-136080011D01*
X78209089Y-136129348D01*
X78335537Y-136154500D01*
X78335538Y-136154500D01*
X78464462Y-136154500D01*
X78464463Y-136154500D01*
X78590911Y-136129348D01*
X78710022Y-136080011D01*
X78817220Y-136008383D01*
X78908383Y-135917220D01*
X78980011Y-135810022D01*
X79029348Y-135690911D01*
X79054500Y-135564463D01*
X79054500Y-135435537D01*
X79029348Y-135309089D01*
X78980011Y-135189978D01*
X78908383Y-135082780D01*
X78908378Y-135082774D01*
X78817225Y-134991621D01*
X78817219Y-134991616D01*
X78773219Y-134962216D01*
X78710022Y-134919989D01*
X78590911Y-134870652D01*
X78464465Y-134845500D01*
X78464463Y-134845500D01*
X78335537Y-134845500D01*
X78335534Y-134845500D01*
X78209088Y-134870652D01*
X78209083Y-134870654D01*
X78089978Y-134919989D01*
X77982780Y-134991616D01*
X77982774Y-134991621D01*
X77891621Y-135082774D01*
X77891616Y-135082780D01*
X77819989Y-135189978D01*
X77770654Y-135309083D01*
X77770652Y-135309088D01*
X77745500Y-135435534D01*
X76900500Y-135435534D01*
X76900500Y-132535534D01*
X84245500Y-132535534D01*
X84245500Y-132664465D01*
X84266490Y-132769989D01*
X84270652Y-132790911D01*
X84319989Y-132910022D01*
X84343484Y-132945184D01*
X84391616Y-133017219D01*
X84391621Y-133017225D01*
X84482774Y-133108378D01*
X84482780Y-133108383D01*
X84589978Y-133180011D01*
X84709089Y-133229348D01*
X84835537Y-133254500D01*
X84835538Y-133254500D01*
X84964462Y-133254500D01*
X84964463Y-133254500D01*
X85090911Y-133229348D01*
X85210022Y-133180011D01*
X85317220Y-133108383D01*
X85408383Y-133017220D01*
X85480011Y-132910022D01*
X85529348Y-132790911D01*
X85554500Y-132664463D01*
X85554500Y-132535537D01*
X85540400Y-132464652D01*
X88880604Y-132464652D01*
X88880604Y-132593583D01*
X88895212Y-132667019D01*
X88905756Y-132720029D01*
X88955093Y-132839140D01*
X88970033Y-132861499D01*
X89026720Y-132946337D01*
X89026725Y-132946343D01*
X89117878Y-133037496D01*
X89117884Y-133037501D01*
X89225082Y-133109129D01*
X89344193Y-133158466D01*
X89470641Y-133183618D01*
X89470642Y-133183618D01*
X89599566Y-133183618D01*
X89599567Y-133183618D01*
X89726015Y-133158466D01*
X89845126Y-133109129D01*
X89952324Y-133037501D01*
X90043487Y-132946338D01*
X90115115Y-132839140D01*
X90164452Y-132720029D01*
X90181259Y-132635534D01*
X92950812Y-132635534D01*
X92950812Y-132764465D01*
X92975964Y-132890911D01*
X92975966Y-132890916D01*
X92983189Y-132908355D01*
X93025301Y-133010022D01*
X93056856Y-133057247D01*
X93096928Y-133117219D01*
X93096933Y-133117225D01*
X93188086Y-133208378D01*
X93188092Y-133208383D01*
X93295290Y-133280011D01*
X93414401Y-133329348D01*
X93540849Y-133354500D01*
X93540850Y-133354500D01*
X93669774Y-133354500D01*
X93669775Y-133354500D01*
X93796223Y-133329348D01*
X93902000Y-133285534D01*
X96373500Y-133285534D01*
X96373500Y-133414465D01*
X96383572Y-133465098D01*
X96398652Y-133540911D01*
X96447989Y-133660022D01*
X96463692Y-133683523D01*
X96519616Y-133767219D01*
X96519621Y-133767225D01*
X96610774Y-133858378D01*
X96610780Y-133858383D01*
X96717978Y-133930011D01*
X96837089Y-133979348D01*
X96963537Y-134004500D01*
X96963538Y-134004500D01*
X97092462Y-134004500D01*
X97092463Y-134004500D01*
X97218911Y-133979348D01*
X97338022Y-133930011D01*
X97445220Y-133858383D01*
X97536383Y-133767220D01*
X97608011Y-133660022D01*
X97657348Y-133540911D01*
X97682500Y-133414463D01*
X97682500Y-133285537D01*
X97657348Y-133159089D01*
X97608011Y-133039978D01*
X97536383Y-132932780D01*
X97536378Y-132932774D01*
X97445225Y-132841621D01*
X97445219Y-132841616D01*
X97369341Y-132790916D01*
X97338022Y-132769989D01*
X97218911Y-132720652D01*
X97192397Y-132715378D01*
X97092465Y-132695500D01*
X97092463Y-132695500D01*
X96963537Y-132695500D01*
X96963534Y-132695500D01*
X96837088Y-132720652D01*
X96837083Y-132720654D01*
X96717978Y-132769989D01*
X96610780Y-132841616D01*
X96610774Y-132841621D01*
X96519621Y-132932774D01*
X96519616Y-132932780D01*
X96447989Y-133039978D01*
X96398654Y-133159083D01*
X96398652Y-133159088D01*
X96373500Y-133285534D01*
X93902000Y-133285534D01*
X93915334Y-133280011D01*
X94022532Y-133208383D01*
X94022537Y-133208378D01*
X94040664Y-133190252D01*
X94113690Y-133117225D01*
X94113695Y-133117220D01*
X94185323Y-133010022D01*
X94234660Y-132890911D01*
X94259812Y-132764463D01*
X94259812Y-132635537D01*
X94234660Y-132509089D01*
X94185323Y-132389978D01*
X94113695Y-132282780D01*
X94113690Y-132282774D01*
X94022537Y-132191621D01*
X94022531Y-132191616D01*
X93962454Y-132151474D01*
X93915334Y-132119989D01*
X93796223Y-132070652D01*
X93669777Y-132045500D01*
X93669775Y-132045500D01*
X93540849Y-132045500D01*
X93540846Y-132045500D01*
X93414400Y-132070652D01*
X93414395Y-132070654D01*
X93295290Y-132119989D01*
X93188092Y-132191616D01*
X93188086Y-132191621D01*
X93096933Y-132282774D01*
X93096928Y-132282780D01*
X93025301Y-132389978D01*
X92975966Y-132509083D01*
X92975964Y-132509088D01*
X92950812Y-132635534D01*
X90181259Y-132635534D01*
X90189604Y-132593581D01*
X90189604Y-132464655D01*
X90164452Y-132338207D01*
X90115115Y-132219096D01*
X90043487Y-132111898D01*
X90043482Y-132111892D01*
X89952329Y-132020739D01*
X89952323Y-132020734D01*
X89883078Y-131974466D01*
X89845126Y-131949107D01*
X89726015Y-131899770D01*
X89711979Y-131896978D01*
X89599569Y-131874618D01*
X89599567Y-131874618D01*
X89470641Y-131874618D01*
X89470638Y-131874618D01*
X89344192Y-131899770D01*
X89344187Y-131899772D01*
X89225082Y-131949107D01*
X89117884Y-132020734D01*
X89117878Y-132020739D01*
X89026725Y-132111892D01*
X89026720Y-132111898D01*
X88955093Y-132219096D01*
X88905758Y-132338201D01*
X88905756Y-132338206D01*
X88880604Y-132464652D01*
X85540400Y-132464652D01*
X85529348Y-132409089D01*
X85480011Y-132289978D01*
X85475201Y-132282780D01*
X85408383Y-132182780D01*
X85408378Y-132182774D01*
X85317225Y-132091621D01*
X85317219Y-132091616D01*
X85256060Y-132050751D01*
X85210022Y-132019989D01*
X85090911Y-131970652D01*
X84964465Y-131945500D01*
X84964463Y-131945500D01*
X84835537Y-131945500D01*
X84835534Y-131945500D01*
X84709088Y-131970652D01*
X84709083Y-131970654D01*
X84589978Y-132019989D01*
X84482780Y-132091616D01*
X84482774Y-132091621D01*
X84391621Y-132182774D01*
X84391616Y-132182780D01*
X84319992Y-132289973D01*
X84319989Y-132289977D01*
X84270654Y-132409083D01*
X84270652Y-132409088D01*
X84245500Y-132535534D01*
X76900500Y-132535534D01*
X76900500Y-129427017D01*
X79281100Y-129427017D01*
X79281100Y-129565383D01*
X79307451Y-129663728D01*
X79316913Y-129699040D01*
X79386092Y-129818861D01*
X79386100Y-129818871D01*
X79483928Y-129916699D01*
X79483933Y-129916703D01*
X79483935Y-129916705D01*
X79483936Y-129916706D01*
X79483938Y-129916707D01*
X79603759Y-129985886D01*
X79603761Y-129985886D01*
X79603764Y-129985888D01*
X79737417Y-130021700D01*
X79737419Y-130021700D01*
X79875781Y-130021700D01*
X79875783Y-130021700D01*
X80009436Y-129985888D01*
X80009439Y-129985886D01*
X80009440Y-129985886D01*
X80088373Y-129940314D01*
X80129265Y-129916705D01*
X80227105Y-129818865D01*
X80275293Y-129735400D01*
X80296286Y-129699040D01*
X80296286Y-129699039D01*
X80296288Y-129699036D01*
X80332100Y-129565383D01*
X80332100Y-129427017D01*
X80296288Y-129293364D01*
X80296286Y-129293361D01*
X80296286Y-129293359D01*
X80227107Y-129173538D01*
X80227099Y-129173528D01*
X80129271Y-129075700D01*
X80129261Y-129075692D01*
X80070190Y-129041587D01*
X83339447Y-129041587D01*
X83339447Y-129170518D01*
X83361623Y-129282003D01*
X83364599Y-129296964D01*
X83413936Y-129416075D01*
X83461796Y-129487702D01*
X83485563Y-129523272D01*
X83485568Y-129523278D01*
X83576721Y-129614431D01*
X83576727Y-129614436D01*
X83683925Y-129686064D01*
X83803036Y-129735401D01*
X83929484Y-129760553D01*
X83929485Y-129760553D01*
X84058409Y-129760553D01*
X84058410Y-129760553D01*
X84184858Y-129735401D01*
X84303969Y-129686064D01*
X84411167Y-129614436D01*
X84437779Y-129587824D01*
X87638026Y-129587824D01*
X87638026Y-129716755D01*
X87658336Y-129818861D01*
X87663178Y-129843201D01*
X87712515Y-129962312D01*
X87728992Y-129986971D01*
X87784142Y-130069509D01*
X87784147Y-130069515D01*
X87875300Y-130160668D01*
X87875306Y-130160673D01*
X87982504Y-130232301D01*
X88101615Y-130281638D01*
X88228063Y-130306790D01*
X88228064Y-130306790D01*
X88356988Y-130306790D01*
X88356989Y-130306790D01*
X88483437Y-130281638D01*
X88602548Y-130232301D01*
X88709746Y-130160673D01*
X88800909Y-130069510D01*
X88872537Y-129962312D01*
X88921874Y-129843201D01*
X88947026Y-129716753D01*
X88947026Y-129587827D01*
X88936624Y-129535534D01*
X92195500Y-129535534D01*
X92195500Y-129664465D01*
X92213566Y-129755288D01*
X92220652Y-129790911D01*
X92269989Y-129910022D01*
X92308648Y-129967879D01*
X92341616Y-130017219D01*
X92341621Y-130017225D01*
X92432774Y-130108378D01*
X92432780Y-130108383D01*
X92539978Y-130180011D01*
X92659089Y-130229348D01*
X92785537Y-130254500D01*
X92785538Y-130254500D01*
X92914462Y-130254500D01*
X92914463Y-130254500D01*
X93040911Y-130229348D01*
X93160022Y-130180011D01*
X93267220Y-130108383D01*
X93358383Y-130017220D01*
X93378596Y-129986969D01*
X93433071Y-129941443D01*
X93503514Y-129932594D01*
X93543094Y-129948170D01*
X93543919Y-129946627D01*
X93549372Y-129949541D01*
X93549376Y-129949544D01*
X93668487Y-129998881D01*
X93794935Y-130024033D01*
X93794936Y-130024033D01*
X93923860Y-130024033D01*
X93923861Y-130024033D01*
X94050309Y-129998881D01*
X94169420Y-129949544D01*
X94276618Y-129877916D01*
X94367781Y-129786753D01*
X94439409Y-129679555D01*
X94488746Y-129560444D01*
X94513898Y-129433996D01*
X94513898Y-129305070D01*
X94488746Y-129178622D01*
X94439409Y-129059511D01*
X94367781Y-128952313D01*
X94367780Y-128952312D01*
X94367776Y-128952307D01*
X94276623Y-128861154D01*
X94276617Y-128861149D01*
X94234472Y-128832989D01*
X94169420Y-128789522D01*
X94050309Y-128740185D01*
X94016033Y-128733367D01*
X93923863Y-128715033D01*
X93923861Y-128715033D01*
X93794935Y-128715033D01*
X93794932Y-128715033D01*
X93668486Y-128740185D01*
X93668481Y-128740187D01*
X93549376Y-128789522D01*
X93442178Y-128861149D01*
X93442172Y-128861154D01*
X93351019Y-128952307D01*
X93351015Y-128952312D01*
X93330801Y-128982564D01*
X93276323Y-129028091D01*
X93205879Y-129036937D01*
X93166302Y-129021366D01*
X93165479Y-129022906D01*
X93160022Y-129019989D01*
X93040916Y-128970654D01*
X93040911Y-128970652D01*
X92914465Y-128945500D01*
X92914463Y-128945500D01*
X92785537Y-128945500D01*
X92785534Y-128945500D01*
X92659088Y-128970652D01*
X92659083Y-128970654D01*
X92539978Y-129019989D01*
X92432780Y-129091616D01*
X92432774Y-129091621D01*
X92341621Y-129182774D01*
X92341616Y-129182780D01*
X92269989Y-129289978D01*
X92220654Y-129409083D01*
X92220652Y-129409088D01*
X92195500Y-129535534D01*
X88936624Y-129535534D01*
X88921874Y-129461379D01*
X88872537Y-129342268D01*
X88800909Y-129235070D01*
X88800904Y-129235064D01*
X88709751Y-129143911D01*
X88709745Y-129143906D01*
X88631489Y-129091617D01*
X88602548Y-129072279D01*
X88483437Y-129022942D01*
X88468591Y-129019989D01*
X88356991Y-128997790D01*
X88356989Y-128997790D01*
X88228063Y-128997790D01*
X88228060Y-128997790D01*
X88101614Y-129022942D01*
X88101609Y-129022944D01*
X87982504Y-129072279D01*
X87875306Y-129143906D01*
X87875300Y-129143911D01*
X87784147Y-129235064D01*
X87784142Y-129235070D01*
X87712515Y-129342268D01*
X87663180Y-129461373D01*
X87663178Y-129461378D01*
X87638026Y-129587824D01*
X84437779Y-129587824D01*
X84502330Y-129523273D01*
X84573958Y-129416075D01*
X84623295Y-129296964D01*
X84648447Y-129170516D01*
X84648447Y-129041590D01*
X84623295Y-128915142D01*
X84573958Y-128796031D01*
X84502330Y-128688833D01*
X84502325Y-128688827D01*
X84411172Y-128597674D01*
X84411163Y-128597667D01*
X84355127Y-128560225D01*
X84303969Y-128526042D01*
X84184858Y-128476705D01*
X84146178Y-128469011D01*
X84058412Y-128451553D01*
X84058410Y-128451553D01*
X83929484Y-128451553D01*
X83929481Y-128451553D01*
X83803035Y-128476705D01*
X83803030Y-128476707D01*
X83683925Y-128526042D01*
X83576731Y-128597667D01*
X83576721Y-128597674D01*
X83485568Y-128688827D01*
X83485563Y-128688833D01*
X83413936Y-128796031D01*
X83364601Y-128915136D01*
X83364599Y-128915141D01*
X83339447Y-129041587D01*
X80070190Y-129041587D01*
X80009440Y-129006513D01*
X79969465Y-128995802D01*
X79875783Y-128970700D01*
X79737417Y-128970700D01*
X79655617Y-128992617D01*
X79603759Y-129006513D01*
X79483938Y-129075692D01*
X79483928Y-129075700D01*
X79386100Y-129173528D01*
X79386092Y-129173538D01*
X79316913Y-129293359D01*
X79302128Y-129348538D01*
X79281100Y-129427017D01*
X76900500Y-129427017D01*
X76900500Y-126935534D01*
X77745500Y-126935534D01*
X77745500Y-127064465D01*
X77758958Y-127132121D01*
X77770652Y-127190911D01*
X77819989Y-127310022D01*
X77833661Y-127330483D01*
X77891616Y-127417219D01*
X77891621Y-127417225D01*
X77982774Y-127508378D01*
X77982780Y-127508383D01*
X78089978Y-127580011D01*
X78209089Y-127629348D01*
X78335537Y-127654500D01*
X78335538Y-127654500D01*
X78464462Y-127654500D01*
X78464463Y-127654500D01*
X78590911Y-127629348D01*
X78710022Y-127580011D01*
X78817220Y-127508383D01*
X78908383Y-127417220D01*
X78980011Y-127310022D01*
X79029348Y-127190911D01*
X79054500Y-127064463D01*
X79054500Y-126935537D01*
X79029348Y-126809089D01*
X78980011Y-126689978D01*
X78908383Y-126582780D01*
X78908378Y-126582774D01*
X78817225Y-126491621D01*
X78817219Y-126491616D01*
X78761512Y-126454394D01*
X78710022Y-126419989D01*
X78590911Y-126370652D01*
X78548415Y-126362199D01*
X78464465Y-126345500D01*
X78464463Y-126345500D01*
X78335537Y-126345500D01*
X78335534Y-126345500D01*
X78209088Y-126370652D01*
X78209083Y-126370654D01*
X78089978Y-126419989D01*
X77982780Y-126491616D01*
X77982774Y-126491621D01*
X77891621Y-126582774D01*
X77891616Y-126582780D01*
X77819989Y-126689978D01*
X77770654Y-126809083D01*
X77770652Y-126809088D01*
X77745500Y-126935534D01*
X76900500Y-126935534D01*
X76900500Y-125427017D01*
X79281100Y-125427017D01*
X79281100Y-125565383D01*
X79310669Y-125675736D01*
X79316913Y-125699040D01*
X79386092Y-125818861D01*
X79386100Y-125818871D01*
X79483928Y-125916699D01*
X79483933Y-125916703D01*
X79483935Y-125916705D01*
X79483936Y-125916706D01*
X79483938Y-125916707D01*
X79603759Y-125985886D01*
X79603761Y-125985886D01*
X79603764Y-125985888D01*
X79737417Y-126021700D01*
X79737419Y-126021700D01*
X79875781Y-126021700D01*
X79875783Y-126021700D01*
X80009436Y-125985888D01*
X80009439Y-125985886D01*
X80009440Y-125985886D01*
X80079390Y-125945500D01*
X80129265Y-125916705D01*
X80227105Y-125818865D01*
X80296288Y-125699036D01*
X80332100Y-125565383D01*
X80332100Y-125427017D01*
X80296288Y-125293364D01*
X80296286Y-125293361D01*
X80296286Y-125293359D01*
X80227107Y-125173538D01*
X80227099Y-125173528D01*
X80129271Y-125075700D01*
X80129261Y-125075692D01*
X80009440Y-125006513D01*
X79993649Y-125002282D01*
X79875783Y-124970700D01*
X79737417Y-124970700D01*
X79665470Y-124989978D01*
X79603759Y-125006513D01*
X79483938Y-125075692D01*
X79483928Y-125075700D01*
X79386100Y-125173528D01*
X79386092Y-125173538D01*
X79316913Y-125293359D01*
X79297862Y-125364461D01*
X79281100Y-125427017D01*
X76900500Y-125427017D01*
X76900500Y-113622138D01*
X79395500Y-113622138D01*
X79395500Y-113829861D01*
X79430794Y-114007294D01*
X79436024Y-114033586D01*
X79515514Y-114225493D01*
X79588070Y-114334080D01*
X79630916Y-114398203D01*
X79630921Y-114398209D01*
X79777790Y-114545078D01*
X79777793Y-114545080D01*
X79777796Y-114545083D01*
X79862995Y-114602011D01*
X79891764Y-114621235D01*
X79937292Y-114675712D01*
X79946139Y-114746156D01*
X79915498Y-114810199D01*
X79891764Y-114830765D01*
X79777797Y-114906916D01*
X79777790Y-114906921D01*
X79630921Y-115053790D01*
X79630916Y-115053796D01*
X79515514Y-115226507D01*
X79436026Y-115418408D01*
X79436024Y-115418413D01*
X79395500Y-115622138D01*
X79395500Y-115829861D01*
X79436024Y-116033586D01*
X79515514Y-116225493D01*
X79592623Y-116340895D01*
X79630916Y-116398203D01*
X79630921Y-116398209D01*
X79777790Y-116545078D01*
X79777793Y-116545080D01*
X79777796Y-116545083D01*
X79862995Y-116602011D01*
X79891764Y-116621235D01*
X79937292Y-116675712D01*
X79946139Y-116746156D01*
X79915498Y-116810199D01*
X79891764Y-116830765D01*
X79777797Y-116906916D01*
X79777790Y-116906921D01*
X79630921Y-117053790D01*
X79630916Y-117053796D01*
X79515514Y-117226507D01*
X79436026Y-117418408D01*
X79436024Y-117418413D01*
X79395500Y-117622138D01*
X79395500Y-117829861D01*
X79414818Y-117926978D01*
X79436024Y-118033586D01*
X79515514Y-118225493D01*
X79572526Y-118310817D01*
X79630916Y-118398203D01*
X79630921Y-118398209D01*
X79777790Y-118545078D01*
X79777796Y-118545083D01*
X79928860Y-118646022D01*
X79937933Y-118652084D01*
X79983461Y-118706561D01*
X79992309Y-118777004D01*
X79961667Y-118841048D01*
X79937933Y-118861614D01*
X79810498Y-118946763D01*
X79810492Y-118946768D01*
X79670768Y-119086492D01*
X79670763Y-119086498D01*
X79560976Y-119250807D01*
X79485352Y-119433377D01*
X79485351Y-119433379D01*
X79458723Y-119567249D01*
X79458723Y-119567250D01*
X79974899Y-119567250D01*
X79950000Y-119660174D01*
X79950000Y-119791826D01*
X79974899Y-119884750D01*
X79458723Y-119884750D01*
X79485351Y-120018620D01*
X79485352Y-120018622D01*
X79560976Y-120201192D01*
X79670763Y-120365501D01*
X79670768Y-120365507D01*
X79810492Y-120505231D01*
X79810498Y-120505236D01*
X79974807Y-120615024D01*
X79974811Y-120615026D01*
X80157370Y-120690646D01*
X80291249Y-120717276D01*
X80291250Y-120717276D01*
X80291250Y-120201100D01*
X80384174Y-120226000D01*
X80515826Y-120226000D01*
X80608750Y-120201100D01*
X80608750Y-120717276D01*
X80742629Y-120690646D01*
X80925188Y-120615026D01*
X80925192Y-120615024D01*
X81089501Y-120505236D01*
X81089507Y-120505231D01*
X81229231Y-120365507D01*
X81229236Y-120365501D01*
X81339023Y-120201192D01*
X81414647Y-120018622D01*
X81414648Y-120018620D01*
X81441277Y-119884750D01*
X80925101Y-119884750D01*
X80950000Y-119791826D01*
X80950000Y-119660174D01*
X80925101Y-119567250D01*
X81441277Y-119567250D01*
X81441276Y-119567249D01*
X81414648Y-119433379D01*
X81414647Y-119433377D01*
X81339023Y-119250807D01*
X81229236Y-119086498D01*
X81229231Y-119086492D01*
X81089507Y-118946768D01*
X81089501Y-118946763D01*
X80962066Y-118861614D01*
X80916538Y-118807137D01*
X80907690Y-118736694D01*
X80938331Y-118672650D01*
X80962061Y-118652087D01*
X81122204Y-118545083D01*
X81269083Y-118398204D01*
X81384486Y-118225493D01*
X81463976Y-118033586D01*
X81504500Y-117829859D01*
X81504500Y-117664534D01*
X88245500Y-117664534D01*
X88245500Y-117793465D01*
X88252740Y-117829861D01*
X88270652Y-117919911D01*
X88319989Y-118039022D01*
X88367429Y-118110021D01*
X88391616Y-118146219D01*
X88391621Y-118146225D01*
X88420801Y-118175405D01*
X88454827Y-118237717D01*
X88449762Y-118308532D01*
X88420801Y-118353595D01*
X88391621Y-118382774D01*
X88391616Y-118382780D01*
X88319989Y-118489978D01*
X88270654Y-118609083D01*
X88270652Y-118609088D01*
X88245500Y-118735534D01*
X88245500Y-118864465D01*
X88250878Y-118891500D01*
X88270652Y-118990911D01*
X88319989Y-119110022D01*
X88367849Y-119181649D01*
X88391616Y-119217219D01*
X88391621Y-119217225D01*
X88482774Y-119308378D01*
X88482780Y-119308383D01*
X88589978Y-119380011D01*
X88709089Y-119429348D01*
X88835537Y-119454500D01*
X88835538Y-119454500D01*
X88964462Y-119454500D01*
X88964463Y-119454500D01*
X89090911Y-119429348D01*
X89210022Y-119380011D01*
X89317220Y-119308383D01*
X89408383Y-119217220D01*
X89480011Y-119110022D01*
X89529348Y-118990911D01*
X89554500Y-118864463D01*
X89554500Y-118735537D01*
X89529348Y-118609089D01*
X89480011Y-118489978D01*
X89408383Y-118382780D01*
X89408378Y-118382774D01*
X89379199Y-118353595D01*
X89345173Y-118291283D01*
X89350238Y-118220468D01*
X89379199Y-118175405D01*
X89408378Y-118146225D01*
X89408383Y-118146220D01*
X89480011Y-118039022D01*
X89529348Y-117919911D01*
X89554500Y-117793463D01*
X89554500Y-117664537D01*
X89529348Y-117538089D01*
X89480011Y-117418978D01*
X89408383Y-117311780D01*
X89408378Y-117311774D01*
X89317225Y-117220621D01*
X89317219Y-117220616D01*
X89247851Y-117174266D01*
X89210022Y-117148989D01*
X89090911Y-117099652D01*
X88964465Y-117074500D01*
X88964463Y-117074500D01*
X88835537Y-117074500D01*
X88835534Y-117074500D01*
X88709088Y-117099652D01*
X88709083Y-117099654D01*
X88589978Y-117148989D01*
X88482780Y-117220616D01*
X88482774Y-117220621D01*
X88391621Y-117311774D01*
X88391616Y-117311780D01*
X88319989Y-117418978D01*
X88270654Y-117538083D01*
X88270652Y-117538088D01*
X88245500Y-117664534D01*
X81504500Y-117664534D01*
X81504500Y-117622141D01*
X81463976Y-117418414D01*
X81384486Y-117226507D01*
X81269083Y-117053796D01*
X81269078Y-117053790D01*
X81122209Y-116906921D01*
X81122203Y-116906916D01*
X81015564Y-116835662D01*
X81008234Y-116830763D01*
X80962707Y-116776288D01*
X80953859Y-116705845D01*
X80984501Y-116641801D01*
X81008232Y-116621236D01*
X81122204Y-116545083D01*
X81269083Y-116398204D01*
X81384486Y-116225493D01*
X81463976Y-116033586D01*
X81504500Y-115829859D01*
X81504500Y-115622141D01*
X81463976Y-115418414D01*
X81384486Y-115226507D01*
X81269083Y-115053796D01*
X81269078Y-115053790D01*
X81174486Y-114959198D01*
X81174481Y-114959194D01*
X81122204Y-114906917D01*
X81067754Y-114870534D01*
X85324500Y-114870534D01*
X85324500Y-114870537D01*
X85324500Y-114999463D01*
X85349652Y-115125911D01*
X85398989Y-115245022D01*
X85406827Y-115256752D01*
X85470616Y-115352219D01*
X85470621Y-115352225D01*
X85561774Y-115443378D01*
X85561780Y-115443383D01*
X85668978Y-115515011D01*
X85788089Y-115564348D01*
X85914537Y-115589500D01*
X85914538Y-115589500D01*
X86043462Y-115589500D01*
X86043463Y-115589500D01*
X86169911Y-115564348D01*
X86289022Y-115515011D01*
X86396220Y-115443383D01*
X86487383Y-115352220D01*
X86559011Y-115245022D01*
X86608348Y-115125911D01*
X86633500Y-114999463D01*
X86633500Y-114870537D01*
X86633499Y-114870534D01*
X90150500Y-114870534D01*
X90150500Y-114870537D01*
X90150500Y-114999463D01*
X90175652Y-115125911D01*
X90224989Y-115245022D01*
X90232827Y-115256752D01*
X90296616Y-115352219D01*
X90296621Y-115352225D01*
X90387774Y-115443378D01*
X90387780Y-115443383D01*
X90494978Y-115515011D01*
X90614089Y-115564348D01*
X90740537Y-115589500D01*
X90740538Y-115589500D01*
X90869462Y-115589500D01*
X90869463Y-115589500D01*
X90995911Y-115564348D01*
X91115022Y-115515011D01*
X91222220Y-115443383D01*
X91248570Y-115417033D01*
X91287405Y-115378199D01*
X91349717Y-115344173D01*
X91420532Y-115349238D01*
X91465595Y-115378199D01*
X91530774Y-115443378D01*
X91530780Y-115443383D01*
X91637978Y-115515011D01*
X91757089Y-115564348D01*
X91883537Y-115589500D01*
X91883538Y-115589500D01*
X92012462Y-115589500D01*
X92012463Y-115589500D01*
X92138911Y-115564348D01*
X92258022Y-115515011D01*
X92365220Y-115443383D01*
X92456383Y-115352220D01*
X92528011Y-115245022D01*
X92577348Y-115125911D01*
X92602500Y-114999463D01*
X92602500Y-114870537D01*
X92577348Y-114744089D01*
X92528011Y-114624978D01*
X92456383Y-114517780D01*
X92456378Y-114517774D01*
X92365225Y-114426621D01*
X92365219Y-114426616D01*
X92305542Y-114386741D01*
X92258022Y-114354989D01*
X92138911Y-114305652D01*
X92093650Y-114296649D01*
X92012465Y-114280500D01*
X92012463Y-114280500D01*
X91883537Y-114280500D01*
X91883534Y-114280500D01*
X91757088Y-114305652D01*
X91757083Y-114305654D01*
X91637978Y-114354989D01*
X91530780Y-114426616D01*
X91530774Y-114426621D01*
X91465595Y-114491801D01*
X91403283Y-114525827D01*
X91332468Y-114520762D01*
X91287405Y-114491801D01*
X91222225Y-114426621D01*
X91222219Y-114426616D01*
X91162542Y-114386741D01*
X91115022Y-114354989D01*
X90995911Y-114305652D01*
X90950650Y-114296649D01*
X90869465Y-114280500D01*
X90869463Y-114280500D01*
X90740537Y-114280500D01*
X90740534Y-114280500D01*
X90614088Y-114305652D01*
X90614083Y-114305654D01*
X90494978Y-114354989D01*
X90387780Y-114426616D01*
X90387774Y-114426621D01*
X90296621Y-114517774D01*
X90296616Y-114517780D01*
X90224989Y-114624978D01*
X90175654Y-114744083D01*
X90175652Y-114744088D01*
X90150500Y-114870534D01*
X86633499Y-114870534D01*
X86608348Y-114744089D01*
X86559011Y-114624978D01*
X86487383Y-114517780D01*
X86487378Y-114517774D01*
X86396225Y-114426621D01*
X86396219Y-114426616D01*
X86336542Y-114386741D01*
X86289022Y-114354989D01*
X86169911Y-114305652D01*
X86124650Y-114296649D01*
X86043465Y-114280500D01*
X86043463Y-114280500D01*
X85914537Y-114280500D01*
X85914534Y-114280500D01*
X85788088Y-114305652D01*
X85788083Y-114305654D01*
X85668978Y-114354989D01*
X85561780Y-114426616D01*
X85561774Y-114426621D01*
X85470621Y-114517774D01*
X85470616Y-114517780D01*
X85398989Y-114624978D01*
X85349654Y-114744083D01*
X85349652Y-114744088D01*
X85324500Y-114870534D01*
X81067754Y-114870534D01*
X81004704Y-114828405D01*
X81001343Y-114825816D01*
X80982861Y-114800404D01*
X80962707Y-114776288D01*
X80962160Y-114771940D01*
X80959585Y-114768399D01*
X80957776Y-114737033D01*
X80953859Y-114705845D01*
X80955750Y-114701892D01*
X80955498Y-114697520D01*
X80970937Y-114670149D01*
X80984501Y-114641801D01*
X80989250Y-114637685D01*
X80990380Y-114635683D01*
X80993406Y-114634084D01*
X81008232Y-114621236D01*
X81122204Y-114545083D01*
X81269083Y-114398204D01*
X81384486Y-114225493D01*
X81463976Y-114033586D01*
X81504500Y-113829859D01*
X81504500Y-113622141D01*
X81463976Y-113418414D01*
X81384486Y-113226507D01*
X81269083Y-113053796D01*
X81269078Y-113053790D01*
X81122209Y-112906921D01*
X81122203Y-112906916D01*
X81041177Y-112852776D01*
X80949493Y-112791514D01*
X80757586Y-112712024D01*
X80717192Y-112703989D01*
X80553861Y-112671500D01*
X80553859Y-112671500D01*
X80346141Y-112671500D01*
X80346138Y-112671500D01*
X80142413Y-112712024D01*
X80142408Y-112712026D01*
X79950507Y-112791514D01*
X79777796Y-112906916D01*
X79777790Y-112906921D01*
X79630921Y-113053790D01*
X79630916Y-113053796D01*
X79515514Y-113226507D01*
X79436026Y-113418408D01*
X79436024Y-113418413D01*
X79395500Y-113622138D01*
X76900500Y-113622138D01*
X76900500Y-110190473D01*
X76920502Y-110122352D01*
X76974158Y-110075859D01*
X77026293Y-110064473D01*
X79007717Y-110061277D01*
X79075867Y-110081169D01*
X79122446Y-110134750D01*
X79132663Y-110205007D01*
X79112688Y-110257269D01*
X79109195Y-110262497D01*
X79109190Y-110262506D01*
X79032565Y-110447494D01*
X79032564Y-110447497D01*
X78993500Y-110643880D01*
X78993500Y-110844119D01*
X79032564Y-111040502D01*
X79032565Y-111040505D01*
X79057201Y-111099980D01*
X79109190Y-111225493D01*
X79218148Y-111388561D01*
X79220434Y-111391982D01*
X79220439Y-111391988D01*
X79362011Y-111533560D01*
X79362017Y-111533565D01*
X79362019Y-111533567D01*
X79528507Y-111644810D01*
X79713498Y-111721436D01*
X79909884Y-111760500D01*
X80110116Y-111760500D01*
X80306502Y-111721436D01*
X80491493Y-111644810D01*
X80657981Y-111533567D01*
X80799567Y-111391981D01*
X80799574Y-111391969D01*
X80801591Y-111389513D01*
X80802987Y-111388561D01*
X80803945Y-111387604D01*
X80804126Y-111387785D01*
X80860264Y-111349537D01*
X80931235Y-111347628D01*
X80991971Y-111384392D01*
X80996409Y-111389513D01*
X80998429Y-111391975D01*
X80998433Y-111391981D01*
X80998437Y-111391985D01*
X80998442Y-111391991D01*
X81140011Y-111533560D01*
X81140017Y-111533565D01*
X81140019Y-111533567D01*
X81306507Y-111644810D01*
X81491498Y-111721436D01*
X81687884Y-111760500D01*
X81888116Y-111760500D01*
X82084502Y-111721436D01*
X82269493Y-111644810D01*
X82435981Y-111533567D01*
X82577567Y-111391981D01*
X82577574Y-111391969D01*
X82579591Y-111389513D01*
X82580987Y-111388561D01*
X82581945Y-111387604D01*
X82582126Y-111387785D01*
X82638264Y-111349537D01*
X82709235Y-111347628D01*
X82769971Y-111384392D01*
X82774409Y-111389513D01*
X82776429Y-111391975D01*
X82776433Y-111391981D01*
X82776437Y-111391985D01*
X82776442Y-111391991D01*
X82918011Y-111533560D01*
X82918017Y-111533565D01*
X82918019Y-111533567D01*
X83084507Y-111644810D01*
X83269498Y-111721436D01*
X83465884Y-111760500D01*
X83666116Y-111760500D01*
X83862502Y-111721436D01*
X84047493Y-111644810D01*
X84213981Y-111533567D01*
X84355567Y-111391981D01*
X84466810Y-111225493D01*
X84543436Y-111040502D01*
X84582500Y-110844116D01*
X84582500Y-110643884D01*
X84543436Y-110447498D01*
X84466810Y-110262507D01*
X84457330Y-110248320D01*
X84436116Y-110180568D01*
X84454899Y-110112101D01*
X84507716Y-110064658D01*
X84561890Y-110052319D01*
X87884299Y-110046960D01*
X87952450Y-110066852D01*
X87999029Y-110120433D01*
X88010500Y-110172960D01*
X88010500Y-110413223D01*
X88010499Y-110413223D01*
X88036498Y-110510251D01*
X88036501Y-110510258D01*
X88084851Y-110594002D01*
X88084854Y-110594014D01*
X88084857Y-110594013D01*
X88086724Y-110597247D01*
X89479323Y-111989845D01*
X89479344Y-111989868D01*
X89554746Y-112065270D01*
X89554751Y-112065274D01*
X89554753Y-112065276D01*
X89554754Y-112065277D01*
X89554756Y-112065278D01*
X89641741Y-112115499D01*
X89641743Y-112115499D01*
X89641746Y-112115501D01*
X89738775Y-112141500D01*
X89839225Y-112141500D01*
X93515787Y-112141500D01*
X93583908Y-112161502D01*
X93604882Y-112178405D01*
X93971920Y-112545443D01*
X94005946Y-112607755D01*
X94000881Y-112678570D01*
X93958334Y-112735406D01*
X93907407Y-112758117D01*
X93789088Y-112781652D01*
X93789083Y-112781654D01*
X93669978Y-112830989D01*
X93562780Y-112902616D01*
X93562774Y-112902621D01*
X93471621Y-112993774D01*
X93471616Y-112993780D01*
X93399989Y-113100978D01*
X93350654Y-113220083D01*
X93350652Y-113220088D01*
X93325500Y-113346534D01*
X93325500Y-113475465D01*
X93328237Y-113489223D01*
X93350652Y-113601911D01*
X93399989Y-113721022D01*
X93431642Y-113768394D01*
X93471616Y-113828219D01*
X93471621Y-113828225D01*
X93561595Y-113918199D01*
X93595621Y-113980511D01*
X93598500Y-114007294D01*
X93598500Y-117443290D01*
X93578498Y-117511411D01*
X93561595Y-117532385D01*
X91978164Y-119115815D01*
X91915852Y-119149841D01*
X91845036Y-119144776D01*
X91788201Y-119102229D01*
X91783610Y-119095017D01*
X91783450Y-119095125D01*
X91732250Y-119018500D01*
X91708383Y-118982780D01*
X91708378Y-118982774D01*
X91617225Y-118891621D01*
X91617219Y-118891616D01*
X91576581Y-118864463D01*
X91510022Y-118819989D01*
X91390911Y-118770652D01*
X91264465Y-118745500D01*
X91264463Y-118745500D01*
X91135537Y-118745500D01*
X91135534Y-118745500D01*
X91009088Y-118770652D01*
X91009083Y-118770654D01*
X90889978Y-118819989D01*
X90782780Y-118891616D01*
X90782774Y-118891621D01*
X90691621Y-118982774D01*
X90691616Y-118982780D01*
X90619989Y-119089978D01*
X90570654Y-119209083D01*
X90570652Y-119209088D01*
X90545500Y-119335534D01*
X90545500Y-119464465D01*
X90570652Y-119590911D01*
X90619989Y-119710022D01*
X90667849Y-119781649D01*
X90691616Y-119817219D01*
X90691621Y-119817225D01*
X90782774Y-119908378D01*
X90782780Y-119908383D01*
X90895125Y-119983450D01*
X90893777Y-119985466D01*
X90936776Y-120027720D01*
X90952473Y-120096959D01*
X90928244Y-120163694D01*
X90915815Y-120178164D01*
X88317187Y-122776794D01*
X88254875Y-122810819D01*
X88228092Y-122813699D01*
X85954576Y-122813699D01*
X85909139Y-122825874D01*
X85857542Y-122839699D01*
X85787722Y-122880011D01*
X85779138Y-122884967D01*
X85770555Y-122889922D01*
X85770547Y-122889928D01*
X84051881Y-124608595D01*
X83989569Y-124642621D01*
X83962786Y-124645500D01*
X83835534Y-124645500D01*
X83709088Y-124670652D01*
X83709083Y-124670654D01*
X83589978Y-124719989D01*
X83482780Y-124791616D01*
X83482774Y-124791621D01*
X83391621Y-124882774D01*
X83391616Y-124882780D01*
X83319989Y-124989978D01*
X83270654Y-125109083D01*
X83270652Y-125109088D01*
X83245500Y-125235534D01*
X83245500Y-125364465D01*
X83257550Y-125425043D01*
X83270652Y-125490911D01*
X83319989Y-125610022D01*
X83322713Y-125614098D01*
X83391616Y-125717219D01*
X83391621Y-125717225D01*
X83482774Y-125808378D01*
X83482780Y-125808383D01*
X83589978Y-125880011D01*
X83709089Y-125929348D01*
X83835537Y-125954500D01*
X83835538Y-125954500D01*
X83964462Y-125954500D01*
X83964463Y-125954500D01*
X84090911Y-125929348D01*
X84210022Y-125880011D01*
X84317220Y-125808383D01*
X84408383Y-125717220D01*
X84480011Y-125610022D01*
X84529348Y-125490911D01*
X84554500Y-125364463D01*
X84554500Y-125237212D01*
X84574502Y-125169091D01*
X84591405Y-125148117D01*
X84708988Y-125030534D01*
X86086500Y-125030534D01*
X86086500Y-125159465D01*
X86098988Y-125222247D01*
X86111652Y-125285911D01*
X86160989Y-125405022D01*
X86190660Y-125449427D01*
X86232616Y-125512219D01*
X86232621Y-125512225D01*
X86323774Y-125603378D01*
X86323780Y-125603383D01*
X86430978Y-125675011D01*
X86550089Y-125724348D01*
X86676537Y-125749500D01*
X86676538Y-125749500D01*
X86805462Y-125749500D01*
X86805463Y-125749500D01*
X86931911Y-125724348D01*
X87051022Y-125675011D01*
X87158220Y-125603383D01*
X87249383Y-125512220D01*
X87321011Y-125405022D01*
X87370348Y-125285911D01*
X87395500Y-125159463D01*
X87395500Y-125030537D01*
X87370348Y-124904089D01*
X87321011Y-124784978D01*
X87249383Y-124677780D01*
X87249378Y-124677774D01*
X87158225Y-124586621D01*
X87158219Y-124586616D01*
X87110152Y-124554499D01*
X87051022Y-124514989D01*
X86931911Y-124465652D01*
X86805465Y-124440500D01*
X86805463Y-124440500D01*
X86676537Y-124440500D01*
X86676534Y-124440500D01*
X86550088Y-124465652D01*
X86550083Y-124465654D01*
X86430978Y-124514989D01*
X86323780Y-124586616D01*
X86323774Y-124586621D01*
X86232621Y-124677774D01*
X86232616Y-124677780D01*
X86160989Y-124784978D01*
X86111654Y-124904083D01*
X86111652Y-124904088D01*
X86086500Y-125030534D01*
X84708988Y-125030534D01*
X84804270Y-124935252D01*
X85355360Y-124384163D01*
X86125919Y-123613604D01*
X86188231Y-123579578D01*
X86215014Y-123576699D01*
X87343455Y-123576699D01*
X87411576Y-123596701D01*
X87458069Y-123650357D01*
X87468173Y-123720631D01*
X87467037Y-123727259D01*
X87461462Y-123755292D01*
X87445500Y-123835534D01*
X87445500Y-123964465D01*
X87462664Y-124050751D01*
X87470652Y-124090911D01*
X87519989Y-124210022D01*
X87548578Y-124252808D01*
X87591616Y-124317219D01*
X87591621Y-124317225D01*
X87682774Y-124408378D01*
X87682780Y-124408383D01*
X87789978Y-124480011D01*
X87909089Y-124529348D01*
X88035537Y-124554500D01*
X88035538Y-124554500D01*
X88164462Y-124554500D01*
X88164463Y-124554500D01*
X88290911Y-124529348D01*
X88387449Y-124489360D01*
X88458038Y-124481772D01*
X88521525Y-124513551D01*
X88557752Y-124574609D01*
X88561666Y-124605770D01*
X88561666Y-125614098D01*
X88541664Y-125682219D01*
X88524761Y-125703193D01*
X86651881Y-127576073D01*
X86589569Y-127610099D01*
X86562786Y-127612978D01*
X86435534Y-127612978D01*
X86309088Y-127638130D01*
X86309083Y-127638132D01*
X86189978Y-127687467D01*
X86082780Y-127759094D01*
X86082774Y-127759099D01*
X85991621Y-127850252D01*
X85991616Y-127850258D01*
X85919989Y-127957456D01*
X85870654Y-128076561D01*
X85870652Y-128076566D01*
X85845500Y-128203012D01*
X85845500Y-128331943D01*
X85856584Y-128387665D01*
X85870652Y-128458389D01*
X85919989Y-128577500D01*
X85967849Y-128649127D01*
X85991616Y-128684697D01*
X85991621Y-128684703D01*
X86082774Y-128775856D01*
X86082780Y-128775861D01*
X86189978Y-128847489D01*
X86309089Y-128896826D01*
X86435537Y-128921978D01*
X86435538Y-128921978D01*
X86564462Y-128921978D01*
X86564463Y-128921978D01*
X86690911Y-128896826D01*
X86810022Y-128847489D01*
X86917220Y-128775861D01*
X87008383Y-128684698D01*
X87080011Y-128577500D01*
X87129348Y-128458389D01*
X87154500Y-128331941D01*
X87154500Y-128204689D01*
X87174502Y-128136568D01*
X87191400Y-128115599D01*
X88071465Y-127235534D01*
X89545500Y-127235534D01*
X89545500Y-127364465D01*
X89562971Y-127452294D01*
X89570652Y-127490911D01*
X89619989Y-127610022D01*
X89651143Y-127656647D01*
X89691616Y-127717219D01*
X89691621Y-127717225D01*
X89782774Y-127808378D01*
X89782780Y-127808383D01*
X89889978Y-127880011D01*
X90009089Y-127929348D01*
X90135537Y-127954500D01*
X90135538Y-127954500D01*
X90264462Y-127954500D01*
X90264463Y-127954500D01*
X90390911Y-127929348D01*
X90510022Y-127880011D01*
X90510027Y-127880007D01*
X90512421Y-127879016D01*
X90583011Y-127871427D01*
X90646498Y-127903206D01*
X90682726Y-127964264D01*
X90680192Y-128035215D01*
X90677050Y-128043639D01*
X90670656Y-128059075D01*
X90670652Y-128059088D01*
X90645500Y-128185534D01*
X90645500Y-128314465D01*
X90670652Y-128440911D01*
X90670654Y-128440916D01*
X90677877Y-128458355D01*
X90719989Y-128560022D01*
X90746518Y-128599725D01*
X90791616Y-128667219D01*
X90791621Y-128667225D01*
X90882774Y-128758378D01*
X90882780Y-128758383D01*
X90989978Y-128830011D01*
X91109089Y-128879348D01*
X91235537Y-128904500D01*
X91235538Y-128904500D01*
X91364462Y-128904500D01*
X91364463Y-128904500D01*
X91490911Y-128879348D01*
X91610022Y-128830011D01*
X91717220Y-128758383D01*
X91808383Y-128667220D01*
X91880011Y-128560022D01*
X91929348Y-128440911D01*
X91954500Y-128314463D01*
X91954500Y-128185537D01*
X91929348Y-128059089D01*
X91880011Y-127939978D01*
X91808383Y-127832780D01*
X91808378Y-127832774D01*
X91717225Y-127741621D01*
X91717219Y-127741616D01*
X91666421Y-127707674D01*
X91610022Y-127669989D01*
X91499593Y-127624248D01*
X91490916Y-127620654D01*
X91490911Y-127620652D01*
X91364465Y-127595500D01*
X91364463Y-127595500D01*
X91235537Y-127595500D01*
X91235534Y-127595500D01*
X91109088Y-127620652D01*
X91109079Y-127620655D01*
X90987576Y-127670983D01*
X90916987Y-127678572D01*
X90853500Y-127646792D01*
X90817273Y-127585734D01*
X90819807Y-127514783D01*
X90822944Y-127506371D01*
X90829348Y-127490911D01*
X90854500Y-127364463D01*
X90854500Y-127272500D01*
X90874502Y-127204379D01*
X90928158Y-127157886D01*
X90980500Y-127146500D01*
X90996462Y-127146500D01*
X90996463Y-127146500D01*
X91122911Y-127121348D01*
X91242022Y-127072011D01*
X91349220Y-127000383D01*
X91440383Y-126909220D01*
X91512011Y-126802022D01*
X91561348Y-126682911D01*
X91586500Y-126556463D01*
X91586500Y-126427537D01*
X91561348Y-126301089D01*
X91512011Y-126181978D01*
X91440383Y-126074780D01*
X91440378Y-126074774D01*
X91349225Y-125983621D01*
X91349219Y-125983616D01*
X91268001Y-125929348D01*
X91242022Y-125911989D01*
X91122911Y-125862652D01*
X90996465Y-125837500D01*
X90996463Y-125837500D01*
X90867537Y-125837500D01*
X90867534Y-125837500D01*
X90741088Y-125862652D01*
X90741083Y-125862654D01*
X90621978Y-125911989D01*
X90514780Y-125983616D01*
X90514774Y-125983621D01*
X90423621Y-126074774D01*
X90423616Y-126074780D01*
X90351989Y-126181978D01*
X90302654Y-126301083D01*
X90302652Y-126301088D01*
X90277500Y-126427534D01*
X90277500Y-126519500D01*
X90257498Y-126587621D01*
X90203842Y-126634114D01*
X90151500Y-126645500D01*
X90135534Y-126645500D01*
X90009088Y-126670652D01*
X90009083Y-126670654D01*
X89889978Y-126719989D01*
X89782780Y-126791616D01*
X89782774Y-126791621D01*
X89691621Y-126882774D01*
X89691616Y-126882780D01*
X89619989Y-126989978D01*
X89570654Y-127109083D01*
X89570652Y-127109088D01*
X89545500Y-127235534D01*
X88071465Y-127235534D01*
X89167036Y-126139962D01*
X89167046Y-126139955D01*
X89248436Y-126058565D01*
X89248442Y-126058559D01*
X89284849Y-125995500D01*
X89298665Y-125971570D01*
X89298665Y-125971569D01*
X89298667Y-125971566D01*
X89324666Y-125874537D01*
X89324666Y-123817047D01*
X89344668Y-123748926D01*
X89361571Y-123727952D01*
X89553989Y-123535534D01*
X90545500Y-123535534D01*
X90545500Y-123664465D01*
X90570652Y-123790911D01*
X90619989Y-123910022D01*
X90636138Y-123934190D01*
X90691616Y-124017219D01*
X90691621Y-124017225D01*
X90782776Y-124108380D01*
X90811970Y-124127887D01*
X90857497Y-124182365D01*
X90866344Y-124252808D01*
X90858376Y-124280869D01*
X90810655Y-124396078D01*
X90810652Y-124396088D01*
X90785500Y-124522534D01*
X90785500Y-124651465D01*
X90805125Y-124750127D01*
X90810652Y-124777911D01*
X90859989Y-124897022D01*
X90904563Y-124963731D01*
X90931616Y-125004219D01*
X90931621Y-125004225D01*
X91022774Y-125095378D01*
X91022780Y-125095383D01*
X91129978Y-125167011D01*
X91249089Y-125216348D01*
X91375537Y-125241500D01*
X91375538Y-125241500D01*
X91504462Y-125241500D01*
X91504463Y-125241500D01*
X91630911Y-125216348D01*
X91750022Y-125167011D01*
X91857220Y-125095383D01*
X91948383Y-125004220D01*
X92020011Y-124897022D01*
X92069348Y-124777911D01*
X92094500Y-124651463D01*
X92094500Y-124522537D01*
X92069348Y-124396089D01*
X92020011Y-124276978D01*
X91948383Y-124169780D01*
X91948378Y-124169774D01*
X91857225Y-124078621D01*
X91857216Y-124078613D01*
X91828029Y-124059111D01*
X91782502Y-124004633D01*
X91773655Y-123934190D01*
X91781621Y-123906132D01*
X91829348Y-123790911D01*
X91854500Y-123664463D01*
X91854500Y-123535537D01*
X91829348Y-123409089D01*
X91780011Y-123289978D01*
X91708383Y-123182780D01*
X91708378Y-123182774D01*
X91617225Y-123091621D01*
X91617219Y-123091616D01*
X91574958Y-123063378D01*
X91510022Y-123019989D01*
X91390911Y-122970652D01*
X91264465Y-122945500D01*
X91264463Y-122945500D01*
X91135537Y-122945500D01*
X91135534Y-122945500D01*
X91009088Y-122970652D01*
X91009083Y-122970654D01*
X90889978Y-123019989D01*
X90782780Y-123091616D01*
X90782774Y-123091621D01*
X90691621Y-123182774D01*
X90691616Y-123182780D01*
X90619989Y-123289978D01*
X90570654Y-123409083D01*
X90570652Y-123409088D01*
X90545500Y-123535534D01*
X89553989Y-123535534D01*
X89649271Y-123440252D01*
X92630990Y-120458534D01*
X93960500Y-120458534D01*
X93960500Y-120587465D01*
X93981024Y-120690646D01*
X93985652Y-120713911D01*
X94034989Y-120833022D01*
X94069386Y-120884500D01*
X94106616Y-120940219D01*
X94106621Y-120940225D01*
X94197774Y-121031378D01*
X94197780Y-121031383D01*
X94304978Y-121103011D01*
X94424089Y-121152348D01*
X94550537Y-121177500D01*
X94550538Y-121177500D01*
X94679462Y-121177500D01*
X94679463Y-121177500D01*
X94805911Y-121152348D01*
X94925022Y-121103011D01*
X95032220Y-121031383D01*
X95123383Y-120940220D01*
X95195011Y-120833022D01*
X95244348Y-120713911D01*
X95269500Y-120587463D01*
X95269500Y-120458537D01*
X95244348Y-120332089D01*
X95195011Y-120212978D01*
X95123383Y-120105780D01*
X95123378Y-120105774D01*
X95032225Y-120014621D01*
X95032219Y-120014616D01*
X94980429Y-119980011D01*
X94925022Y-119942989D01*
X94805911Y-119893652D01*
X94679465Y-119868500D01*
X94679463Y-119868500D01*
X94550537Y-119868500D01*
X94550534Y-119868500D01*
X94424088Y-119893652D01*
X94424083Y-119893654D01*
X94304978Y-119942989D01*
X94197780Y-120014616D01*
X94197774Y-120014621D01*
X94106621Y-120105774D01*
X94106616Y-120105780D01*
X94034989Y-120212978D01*
X93985654Y-120332083D01*
X93985652Y-120332088D01*
X93960500Y-120458534D01*
X92630990Y-120458534D01*
X92726272Y-120363252D01*
X95174270Y-117915253D01*
X95174276Y-117915247D01*
X95224502Y-117828253D01*
X95250501Y-117731225D01*
X95250501Y-117630775D01*
X95250501Y-117623058D01*
X95250500Y-117623040D01*
X95250500Y-113981534D01*
X95992500Y-113981534D01*
X95992500Y-114110465D01*
X96005039Y-114173500D01*
X96017652Y-114236911D01*
X96066989Y-114356022D01*
X96095178Y-114398209D01*
X96138616Y-114463219D01*
X96138619Y-114463223D01*
X96229774Y-114554378D01*
X96229780Y-114554383D01*
X96336978Y-114626011D01*
X96456089Y-114675348D01*
X96582537Y-114700500D01*
X96582538Y-114700500D01*
X96711462Y-114700500D01*
X96711463Y-114700500D01*
X96837911Y-114675348D01*
X96957022Y-114626011D01*
X97064220Y-114554383D01*
X97100829Y-114517774D01*
X97155381Y-114463223D01*
X97155383Y-114463220D01*
X97227011Y-114356022D01*
X97276348Y-114236911D01*
X97301500Y-114110463D01*
X97301500Y-113981537D01*
X97276348Y-113855089D01*
X97227011Y-113735978D01*
X97155383Y-113628780D01*
X97155378Y-113628774D01*
X97064225Y-113537621D01*
X97064219Y-113537616D01*
X97010896Y-113501987D01*
X96957022Y-113465989D01*
X96842165Y-113418414D01*
X96837916Y-113416654D01*
X96837911Y-113416652D01*
X96711465Y-113391500D01*
X96711463Y-113391500D01*
X96582537Y-113391500D01*
X96582534Y-113391500D01*
X96456088Y-113416652D01*
X96456083Y-113416654D01*
X96336978Y-113465989D01*
X96229780Y-113537616D01*
X96229774Y-113537621D01*
X96138621Y-113628774D01*
X96138616Y-113628780D01*
X96066989Y-113735978D01*
X96017654Y-113855083D01*
X96017652Y-113855088D01*
X95992500Y-113981534D01*
X95250500Y-113981534D01*
X95250500Y-112852776D01*
X95250500Y-112852775D01*
X95224501Y-112755746D01*
X95224499Y-112755743D01*
X95224499Y-112755741D01*
X95174278Y-112668756D01*
X95174274Y-112668751D01*
X95144640Y-112639117D01*
X95103247Y-112597724D01*
X94570793Y-112065270D01*
X93960253Y-111454729D01*
X93960243Y-111454721D01*
X93873258Y-111404500D01*
X93861792Y-111401427D01*
X93776225Y-111378500D01*
X93776223Y-111378500D01*
X89999212Y-111378500D01*
X89931091Y-111358498D01*
X89910117Y-111341595D01*
X88828911Y-110260388D01*
X88794885Y-110198076D01*
X88799950Y-110127260D01*
X88842497Y-110070425D01*
X88909017Y-110045614D01*
X88917778Y-110045293D01*
X90331259Y-110043014D01*
X90387294Y-110057003D01*
X90387405Y-110056736D01*
X90389201Y-110057480D01*
X90390863Y-110057895D01*
X90393110Y-110059095D01*
X90393124Y-110059105D01*
X90512235Y-110108442D01*
X90638683Y-110133594D01*
X90638684Y-110133594D01*
X90767608Y-110133594D01*
X90767609Y-110133594D01*
X90894057Y-110108442D01*
X91013168Y-110059105D01*
X91013181Y-110059095D01*
X91017668Y-110056698D01*
X91076874Y-110041811D01*
X98984850Y-110029056D01*
X99053001Y-110048948D01*
X99099580Y-110102529D01*
X99108630Y-110130473D01*
X99120652Y-110190911D01*
X99169989Y-110310022D01*
X99217849Y-110381649D01*
X99241616Y-110417219D01*
X99241621Y-110417225D01*
X99332774Y-110508378D01*
X99332780Y-110508383D01*
X99439978Y-110580011D01*
X99559089Y-110629348D01*
X99685537Y-110654500D01*
X99685538Y-110654500D01*
X99814462Y-110654500D01*
X99814463Y-110654500D01*
X99940911Y-110629348D01*
X100060022Y-110580011D01*
X100167220Y-110508383D01*
X100258383Y-110417220D01*
X100330011Y-110310022D01*
X100379348Y-110190911D01*
X100391860Y-110128004D01*
X100424767Y-110065096D01*
X100486462Y-110029964D01*
X100515224Y-110026588D01*
X104855645Y-110019587D01*
X104923796Y-110039479D01*
X104944941Y-110056492D01*
X104966047Y-110077598D01*
X104966053Y-110077603D01*
X105073251Y-110149231D01*
X105192362Y-110198568D01*
X105318810Y-110223720D01*
X105318811Y-110223720D01*
X105447735Y-110223720D01*
X105447736Y-110223720D01*
X105574184Y-110198568D01*
X105693295Y-110149231D01*
X105800493Y-110077603D01*
X105800501Y-110077594D01*
X105802994Y-110075549D01*
X105804567Y-110074880D01*
X105805640Y-110074164D01*
X105805775Y-110074367D01*
X105868339Y-110047790D01*
X105938318Y-110059765D01*
X105990715Y-110107672D01*
X106008892Y-110176302D01*
X105987080Y-110243865D01*
X105972033Y-110262036D01*
X105773853Y-110460217D01*
X105209973Y-111024096D01*
X105147663Y-111058120D01*
X105120880Y-111061000D01*
X103718422Y-111061000D01*
X103567811Y-111061000D01*
X103489851Y-111081889D01*
X103422335Y-111099980D01*
X103422328Y-111099983D01*
X103291904Y-111175283D01*
X103291894Y-111175291D01*
X102482971Y-111984216D01*
X102245385Y-112221802D01*
X102203938Y-112263249D01*
X102138888Y-112328298D01*
X102138884Y-112328303D01*
X102063584Y-112458727D01*
X102063581Y-112458734D01*
X102024601Y-112604212D01*
X102024601Y-112629677D01*
X102004599Y-112697798D01*
X101950943Y-112744291D01*
X101880669Y-112754395D01*
X101828600Y-112734443D01*
X101795047Y-112712024D01*
X101783022Y-112703989D01*
X101780668Y-112703014D01*
X101663916Y-112654654D01*
X101663911Y-112654652D01*
X101537465Y-112629500D01*
X101537463Y-112629500D01*
X101408537Y-112629500D01*
X101408534Y-112629500D01*
X101282088Y-112654652D01*
X101282083Y-112654654D01*
X101162979Y-112703988D01*
X101052923Y-112777525D01*
X100985170Y-112798739D01*
X100916704Y-112779956D01*
X100893827Y-112761854D01*
X100858955Y-112726982D01*
X100858949Y-112726977D01*
X100815279Y-112697798D01*
X100751752Y-112655350D01*
X100632641Y-112606013D01*
X100623582Y-112604211D01*
X100506195Y-112580861D01*
X100506193Y-112580861D01*
X100377267Y-112580861D01*
X100377264Y-112580861D01*
X100250818Y-112606013D01*
X100250813Y-112606015D01*
X100131708Y-112655350D01*
X100024510Y-112726977D01*
X100024504Y-112726982D01*
X99933351Y-112818135D01*
X99933346Y-112818141D01*
X99861718Y-112925339D01*
X99861718Y-112925340D01*
X99848381Y-112957538D01*
X99803832Y-113012818D01*
X99736468Y-113035238D01*
X99667677Y-113017679D01*
X99619300Y-112965716D01*
X99615564Y-112957535D01*
X99592303Y-112901377D01*
X99592302Y-112901375D01*
X99520674Y-112794177D01*
X99520669Y-112794171D01*
X99429516Y-112703018D01*
X99429510Y-112703013D01*
X99380761Y-112670440D01*
X99322313Y-112631386D01*
X99203202Y-112582049D01*
X99197230Y-112580861D01*
X99076756Y-112556897D01*
X99076754Y-112556897D01*
X98947828Y-112556897D01*
X98947825Y-112556897D01*
X98821379Y-112582049D01*
X98821374Y-112582051D01*
X98702269Y-112631386D01*
X98595071Y-112703013D01*
X98595065Y-112703018D01*
X98503912Y-112794171D01*
X98503907Y-112794177D01*
X98432280Y-112901375D01*
X98382945Y-113020480D01*
X98382943Y-113020485D01*
X98357791Y-113146931D01*
X98357791Y-113275862D01*
X98382943Y-113402308D01*
X98382945Y-113402313D01*
X98388884Y-113416652D01*
X98432280Y-113521419D01*
X98477962Y-113589786D01*
X98503907Y-113628616D01*
X98503912Y-113628622D01*
X98595065Y-113719775D01*
X98595071Y-113719780D01*
X98702269Y-113791408D01*
X98821380Y-113840745D01*
X98947828Y-113865897D01*
X98947829Y-113865897D01*
X99076753Y-113865897D01*
X99076754Y-113865897D01*
X99203202Y-113840745D01*
X99322313Y-113791408D01*
X99429511Y-113719780D01*
X99520674Y-113628617D01*
X99592302Y-113521419D01*
X99605638Y-113489220D01*
X99619756Y-113471701D01*
X99629828Y-113451581D01*
X99641597Y-113444597D01*
X99650185Y-113433941D01*
X99671535Y-113426834D01*
X99690886Y-113415353D01*
X99704561Y-113415841D01*
X99717548Y-113411519D01*
X99739352Y-113417083D01*
X99761837Y-113417887D01*
X99773077Y-113425691D01*
X99786339Y-113429076D01*
X99801672Y-113445544D01*
X99820156Y-113458378D01*
X99831636Y-113477727D01*
X99834718Y-113481037D01*
X99838456Y-113489221D01*
X99851792Y-113521418D01*
X99860139Y-113541568D01*
X99869730Y-113589786D01*
X99869730Y-115417035D01*
X99895982Y-115515010D01*
X99908710Y-115562511D01*
X99908713Y-115562518D01*
X99935689Y-115609241D01*
X99943137Y-115622141D01*
X99984016Y-115692946D01*
X99984018Y-115692948D01*
X99984021Y-115692952D01*
X101969777Y-117678708D01*
X101969781Y-117678711D01*
X101969784Y-117678714D01*
X102001699Y-117697140D01*
X102004392Y-117698695D01*
X102053385Y-117750078D01*
X102066820Y-117819792D01*
X102040433Y-117885703D01*
X102030487Y-117896909D01*
X101980616Y-117946780D01*
X101908989Y-118053978D01*
X101859654Y-118173083D01*
X101859652Y-118173088D01*
X101834500Y-118299534D01*
X101834500Y-118428465D01*
X101851209Y-118512464D01*
X101859652Y-118554911D01*
X101908989Y-118674022D01*
X101953058Y-118739976D01*
X101980616Y-118781219D01*
X101980621Y-118781225D01*
X102071774Y-118872378D01*
X102071780Y-118872383D01*
X102178978Y-118944011D01*
X102298089Y-118993348D01*
X102424537Y-119018500D01*
X102424538Y-119018500D01*
X102553462Y-119018500D01*
X102553463Y-119018500D01*
X102679911Y-118993348D01*
X102799022Y-118944011D01*
X102906220Y-118872383D01*
X102997383Y-118781220D01*
X103069011Y-118674022D01*
X103071088Y-118669008D01*
X103115634Y-118613725D01*
X103182997Y-118591302D01*
X103251788Y-118608858D01*
X103300169Y-118660819D01*
X103303908Y-118669008D01*
X103305983Y-118674018D01*
X103305984Y-118674021D01*
X103377612Y-118781219D01*
X103377617Y-118781225D01*
X103468770Y-118872378D01*
X103468776Y-118872383D01*
X103575974Y-118944011D01*
X103695085Y-118993348D01*
X103821533Y-119018500D01*
X103821534Y-119018500D01*
X103950458Y-119018500D01*
X103950459Y-119018500D01*
X104076907Y-118993348D01*
X104196018Y-118944011D01*
X104303216Y-118872383D01*
X104304897Y-118870701D01*
X104305995Y-118870102D01*
X104308001Y-118868456D01*
X104308313Y-118868836D01*
X104367205Y-118836673D01*
X104438021Y-118841732D01*
X104479860Y-118868620D01*
X104479995Y-118868456D01*
X104481404Y-118869612D01*
X104483098Y-118870701D01*
X104484780Y-118872383D01*
X104591978Y-118944011D01*
X104711089Y-118993348D01*
X104837537Y-119018500D01*
X104837538Y-119018500D01*
X104966462Y-119018500D01*
X104966463Y-119018500D01*
X105092911Y-118993348D01*
X105212022Y-118944011D01*
X105319220Y-118872383D01*
X105410383Y-118781220D01*
X105482011Y-118674022D01*
X105531348Y-118554911D01*
X105556500Y-118428463D01*
X105556500Y-118299537D01*
X105531348Y-118173089D01*
X105482011Y-118053978D01*
X105438594Y-117989001D01*
X105417380Y-117921249D01*
X105436163Y-117852782D01*
X105488980Y-117805339D01*
X105543360Y-117793000D01*
X106319258Y-117793000D01*
X106319259Y-117793000D01*
X106319259Y-117792999D01*
X106327446Y-117791922D01*
X106327708Y-117793918D01*
X106387772Y-117795342D01*
X106446571Y-117835131D01*
X106474525Y-117900392D01*
X106465827Y-117963580D01*
X106431655Y-118046079D01*
X106431652Y-118046088D01*
X106406500Y-118172534D01*
X106406500Y-118301465D01*
X106419700Y-118367823D01*
X106431652Y-118427911D01*
X106480989Y-118547022D01*
X106493803Y-118566199D01*
X106552616Y-118654219D01*
X106552621Y-118654225D01*
X106643774Y-118745378D01*
X106643780Y-118745383D01*
X106750978Y-118817011D01*
X106870089Y-118866348D01*
X106996537Y-118891500D01*
X106996538Y-118891500D01*
X107125462Y-118891500D01*
X107125463Y-118891500D01*
X107251911Y-118866348D01*
X107371022Y-118817011D01*
X107478220Y-118745383D01*
X107569383Y-118654220D01*
X107641011Y-118547022D01*
X107690348Y-118427911D01*
X107715500Y-118301463D01*
X107715500Y-118172537D01*
X107690348Y-118046089D01*
X107641011Y-117926978D01*
X107569383Y-117819780D01*
X107569378Y-117819774D01*
X107478225Y-117728621D01*
X107478219Y-117728616D01*
X107403535Y-117678714D01*
X107371022Y-117656989D01*
X107251911Y-117607652D01*
X107125465Y-117582500D01*
X107125463Y-117582500D01*
X106996537Y-117582500D01*
X106995574Y-117582500D01*
X106973986Y-117576161D01*
X106951542Y-117574556D01*
X106940585Y-117566354D01*
X106927453Y-117562498D01*
X106912717Y-117545492D01*
X106894706Y-117532009D01*
X106889923Y-117519186D01*
X106880960Y-117508842D01*
X106877757Y-117486569D01*
X106869895Y-117465489D01*
X106872803Y-117452116D01*
X106870856Y-117438568D01*
X106880203Y-117418101D01*
X106884986Y-117396115D01*
X106890365Y-117388930D01*
X113345500Y-117388930D01*
X113345500Y-118639063D01*
X113345501Y-118639073D01*
X113360265Y-118713300D01*
X113416516Y-118797484D01*
X113500697Y-118853733D01*
X113500699Y-118853734D01*
X113574933Y-118868500D01*
X115025066Y-118868499D01*
X115025069Y-118868498D01*
X115025073Y-118868498D01*
X115074326Y-118858701D01*
X115099301Y-118853734D01*
X115183484Y-118797484D01*
X115239734Y-118713301D01*
X115254500Y-118639067D01*
X115254499Y-117388934D01*
X115254498Y-117388930D01*
X115254498Y-117388926D01*
X115239734Y-117314699D01*
X115237780Y-117311774D01*
X115183484Y-117230516D01*
X115183483Y-117230515D01*
X115099302Y-117174266D01*
X115025067Y-117159500D01*
X113574936Y-117159500D01*
X113574926Y-117159501D01*
X113500699Y-117174265D01*
X113416515Y-117230516D01*
X113360266Y-117314697D01*
X113345500Y-117388930D01*
X106890365Y-117388930D01*
X106898471Y-117378101D01*
X106900350Y-117373988D01*
X106906479Y-117367405D01*
X108344048Y-115929836D01*
X113345500Y-115929836D01*
X113345500Y-115929839D01*
X113345500Y-116098161D01*
X113378338Y-116263249D01*
X113442752Y-116418758D01*
X113536266Y-116558712D01*
X113655288Y-116677734D01*
X113795242Y-116771248D01*
X113950751Y-116835662D01*
X114115839Y-116868500D01*
X114115840Y-116868500D01*
X114484160Y-116868500D01*
X114484161Y-116868500D01*
X114649249Y-116835662D01*
X114804758Y-116771248D01*
X114944712Y-116677734D01*
X115063734Y-116558712D01*
X115157248Y-116418758D01*
X115221662Y-116263249D01*
X115254500Y-116098161D01*
X115254500Y-115929839D01*
X115221662Y-115764751D01*
X115157248Y-115609242D01*
X115063734Y-115469288D01*
X114944712Y-115350266D01*
X114804758Y-115256752D01*
X114649249Y-115192338D01*
X114484163Y-115159500D01*
X114484161Y-115159500D01*
X114115839Y-115159500D01*
X114115836Y-115159500D01*
X113950750Y-115192338D01*
X113950745Y-115192340D01*
X113795241Y-115256752D01*
X113655292Y-115350263D01*
X113655285Y-115350268D01*
X113536268Y-115469285D01*
X113536263Y-115469292D01*
X113442752Y-115609241D01*
X113378340Y-115764745D01*
X113378338Y-115764750D01*
X113345500Y-115929836D01*
X108344048Y-115929836D01*
X108439330Y-115834554D01*
X108929711Y-115344173D01*
X109550713Y-114723171D01*
X109563803Y-114700500D01*
X109626019Y-114592738D01*
X109660723Y-114463220D01*
X109665000Y-114447260D01*
X109665000Y-114296649D01*
X109665000Y-110137627D01*
X109685002Y-110069506D01*
X109738658Y-110023013D01*
X109790793Y-110011627D01*
X110352099Y-110010722D01*
X110362105Y-110013642D01*
X110372451Y-110012343D01*
X110395606Y-110023420D01*
X110420248Y-110030613D01*
X110427089Y-110038482D01*
X110436496Y-110042983D01*
X110449986Y-110064822D01*
X110466827Y-110084194D01*
X110468327Y-110094513D01*
X110473808Y-110103385D01*
X110473350Y-110129051D01*
X110477044Y-110154451D01*
X110472694Y-110165830D01*
X110472542Y-110174370D01*
X110457064Y-110206721D01*
X110381363Y-110320019D01*
X110381361Y-110320022D01*
X110373870Y-110331231D01*
X110316394Y-110469991D01*
X110316392Y-110469996D01*
X110287089Y-110617307D01*
X110287089Y-110617311D01*
X110287089Y-111333196D01*
X110311263Y-111454724D01*
X110316392Y-111480509D01*
X110316393Y-111480511D01*
X110316395Y-111480520D01*
X110352908Y-111568667D01*
X110362500Y-111616886D01*
X110362500Y-113486103D01*
X110385880Y-113603638D01*
X110391803Y-113633413D01*
X110449282Y-113772179D01*
X110532728Y-113897065D01*
X110638935Y-114003272D01*
X110763821Y-114086718D01*
X110902587Y-114144197D01*
X111049900Y-114173500D01*
X111200100Y-114173500D01*
X111347413Y-114144197D01*
X111486179Y-114086718D01*
X111565690Y-114033591D01*
X111583373Y-114021775D01*
X111611065Y-114003272D01*
X111717272Y-113897065D01*
X111745212Y-113855250D01*
X113412642Y-113855250D01*
X113929774Y-113855250D01*
X113927259Y-113859606D01*
X113900000Y-113961339D01*
X113900000Y-114066661D01*
X113927259Y-114168394D01*
X113929774Y-114172750D01*
X113412642Y-114172750D01*
X113427667Y-114248285D01*
X113427668Y-114248288D01*
X113488214Y-114394458D01*
X113576111Y-114526005D01*
X113576116Y-114526012D01*
X113687987Y-114637883D01*
X113687994Y-114637888D01*
X113819541Y-114725785D01*
X113965711Y-114786331D01*
X113965714Y-114786332D01*
X114120888Y-114817199D01*
X114120892Y-114817200D01*
X114141250Y-114817200D01*
X114141250Y-114384226D01*
X114145606Y-114386741D01*
X114247339Y-114414000D01*
X114352661Y-114414000D01*
X114454394Y-114386741D01*
X114458750Y-114384226D01*
X114458750Y-114817200D01*
X114479108Y-114817200D01*
X114479111Y-114817199D01*
X114634285Y-114786332D01*
X114634288Y-114786331D01*
X114780458Y-114725785D01*
X114912005Y-114637888D01*
X114912012Y-114637883D01*
X115023883Y-114526012D01*
X115023888Y-114526005D01*
X115111785Y-114394458D01*
X115172331Y-114248288D01*
X115172332Y-114248285D01*
X115187358Y-114172750D01*
X114670226Y-114172750D01*
X114672741Y-114168394D01*
X114700000Y-114066661D01*
X114700000Y-113961339D01*
X114672741Y-113859606D01*
X114670226Y-113855250D01*
X115187357Y-113855250D01*
X115172332Y-113779714D01*
X115172331Y-113779711D01*
X115111785Y-113633541D01*
X115023888Y-113501994D01*
X115023883Y-113501987D01*
X114912012Y-113390116D01*
X114912005Y-113390111D01*
X114780458Y-113302214D01*
X114634288Y-113241668D01*
X114634285Y-113241667D01*
X114479111Y-113210800D01*
X114458750Y-113210800D01*
X114458750Y-113643773D01*
X114454394Y-113641259D01*
X114352661Y-113614000D01*
X114247339Y-113614000D01*
X114145606Y-113641259D01*
X114141250Y-113643773D01*
X114141250Y-113210800D01*
X114120888Y-113210800D01*
X113965714Y-113241667D01*
X113965711Y-113241668D01*
X113819541Y-113302214D01*
X113687994Y-113390111D01*
X113687987Y-113390116D01*
X113576116Y-113501987D01*
X113576111Y-113501994D01*
X113488214Y-113633541D01*
X113427668Y-113779711D01*
X113427667Y-113779714D01*
X113412642Y-113855250D01*
X111745212Y-113855250D01*
X111800718Y-113772179D01*
X111858197Y-113633413D01*
X111887500Y-113486100D01*
X111887500Y-111929836D01*
X113345500Y-111929836D01*
X113345500Y-112098163D01*
X113367324Y-112207879D01*
X113378338Y-112263249D01*
X113442752Y-112418758D01*
X113536266Y-112558712D01*
X113655288Y-112677734D01*
X113795242Y-112771248D01*
X113950751Y-112835662D01*
X114115839Y-112868500D01*
X114115840Y-112868500D01*
X114484160Y-112868500D01*
X114484161Y-112868500D01*
X114649249Y-112835662D01*
X114804758Y-112771248D01*
X114944712Y-112677734D01*
X115063734Y-112558712D01*
X115157248Y-112418758D01*
X115221662Y-112263249D01*
X115254500Y-112098161D01*
X115254500Y-111929839D01*
X115221662Y-111764751D01*
X115157248Y-111609242D01*
X115063734Y-111469288D01*
X114944712Y-111350266D01*
X114804758Y-111256752D01*
X114649249Y-111192338D01*
X114484163Y-111159500D01*
X114484161Y-111159500D01*
X114115839Y-111159500D01*
X114115836Y-111159500D01*
X113950750Y-111192338D01*
X113950745Y-111192340D01*
X113795241Y-111256752D01*
X113655292Y-111350263D01*
X113655285Y-111350268D01*
X113536268Y-111469285D01*
X113536263Y-111469292D01*
X113442752Y-111609241D01*
X113378340Y-111764745D01*
X113378338Y-111764750D01*
X113345500Y-111929836D01*
X111887500Y-111929836D01*
X111887500Y-111866892D01*
X111887500Y-111258407D01*
X111887500Y-110985028D01*
X111907502Y-110916907D01*
X111924400Y-110895937D01*
X112606523Y-110213815D01*
X112606523Y-110213814D01*
X112776764Y-110043573D01*
X112839076Y-110009547D01*
X112865653Y-110006668D01*
X113223580Y-110006090D01*
X113291729Y-110025982D01*
X113338309Y-110079563D01*
X113347359Y-110107508D01*
X113378338Y-110263249D01*
X113378340Y-110263254D01*
X113431444Y-110391458D01*
X113442752Y-110418758D01*
X113536266Y-110558712D01*
X113655288Y-110677734D01*
X113795242Y-110771248D01*
X113950751Y-110835662D01*
X114115839Y-110868500D01*
X114115840Y-110868500D01*
X114484160Y-110868500D01*
X114484161Y-110868500D01*
X114649249Y-110835662D01*
X114804758Y-110771248D01*
X114944712Y-110677734D01*
X115063734Y-110558712D01*
X115157248Y-110418758D01*
X115221662Y-110263249D01*
X115253331Y-110104034D01*
X115286238Y-110041126D01*
X115347933Y-110005994D01*
X115376696Y-110002618D01*
X116873798Y-110000203D01*
X116941950Y-110020095D01*
G37*
%TD.AperFunction*%
%TA.AperFunction,Conductor*%
G36*
X107349443Y-110606653D02*
G01*
X107406279Y-110649200D01*
X107431090Y-110715720D01*
X107431411Y-110724709D01*
X107431411Y-112554031D01*
X107411409Y-112622152D01*
X107357753Y-112668645D01*
X107287479Y-112678749D01*
X107257194Y-112670440D01*
X107242304Y-112664272D01*
X107242294Y-112664269D01*
X107115848Y-112639117D01*
X107115846Y-112639117D01*
X106986920Y-112639117D01*
X106986917Y-112639117D01*
X106860471Y-112664269D01*
X106860466Y-112664271D01*
X106741361Y-112713606D01*
X106634163Y-112785233D01*
X106634157Y-112785238D01*
X106543004Y-112876391D01*
X106542999Y-112876397D01*
X106471372Y-112983595D01*
X106422037Y-113102700D01*
X106422035Y-113102705D01*
X106396883Y-113229151D01*
X106396883Y-113358082D01*
X106415481Y-113451581D01*
X106422035Y-113484528D01*
X106471372Y-113603639D01*
X106491268Y-113633415D01*
X106542999Y-113710836D01*
X106543004Y-113710842D01*
X106634157Y-113801995D01*
X106634163Y-113802000D01*
X106741361Y-113873628D01*
X106860472Y-113922965D01*
X106986920Y-113948117D01*
X106986921Y-113948117D01*
X107061763Y-113948117D01*
X107129884Y-113968119D01*
X107176377Y-114021775D01*
X107186481Y-114092049D01*
X107156987Y-114156629D01*
X107150858Y-114163212D01*
X105590975Y-115723095D01*
X105528663Y-115757121D01*
X105501880Y-115760000D01*
X103159121Y-115760000D01*
X103091000Y-115739998D01*
X103070026Y-115723095D01*
X102081905Y-114734974D01*
X102047879Y-114672662D01*
X102045000Y-114645879D01*
X102045000Y-113899523D01*
X102065002Y-113831402D01*
X102118658Y-113784909D01*
X102188932Y-113774805D01*
X102241001Y-113794757D01*
X102286579Y-113825212D01*
X102405690Y-113874549D01*
X102532138Y-113899701D01*
X102532139Y-113899701D01*
X102661063Y-113899701D01*
X102661064Y-113899701D01*
X102787512Y-113874549D01*
X102906623Y-113825212D01*
X103013821Y-113753584D01*
X103104984Y-113662421D01*
X103176612Y-113555223D01*
X103225949Y-113436112D01*
X103251101Y-113309664D01*
X103251101Y-113180738D01*
X103225949Y-113054290D01*
X103200995Y-112994046D01*
X103193407Y-112923460D01*
X103225186Y-112859973D01*
X103228255Y-112856791D01*
X103843144Y-112241902D01*
X103905454Y-112207879D01*
X103932237Y-112205000D01*
X105485303Y-112205000D01*
X105485305Y-112205000D01*
X105630784Y-112166019D01*
X105761216Y-112090714D01*
X105867714Y-111984216D01*
X107216316Y-110635614D01*
X107278628Y-110601588D01*
X107349443Y-110606653D01*
G37*
%TD.AperFunction*%
%TD*%
%TA.AperFunction,Conductor*%
%TO.N,/Power MOSFETS/Q5-s_Q6-d*%
G36*
X88334121Y-80220502D02*
G01*
X88380614Y-80274158D01*
X88392000Y-80326500D01*
X88392000Y-85725000D01*
X91186881Y-85725000D01*
X91255002Y-85745002D01*
X91301495Y-85798658D01*
X91312881Y-85851119D01*
X91309574Y-89354700D01*
X91289508Y-89422802D01*
X91235808Y-89469244D01*
X91208156Y-89478160D01*
X91109108Y-89497862D01*
X91109103Y-89497864D01*
X90981899Y-89550554D01*
X90867414Y-89627050D01*
X90867408Y-89627055D01*
X90770055Y-89724408D01*
X90770050Y-89724414D01*
X90693554Y-89838899D01*
X90640864Y-89966103D01*
X90640862Y-89966108D01*
X90614000Y-90101152D01*
X90614000Y-90101155D01*
X90614000Y-90238845D01*
X90640862Y-90373891D01*
X90693554Y-90501101D01*
X90744667Y-90577597D01*
X90770050Y-90615585D01*
X90770055Y-90615591D01*
X90871790Y-90717326D01*
X90870307Y-90718808D01*
X90904899Y-90769576D01*
X90906808Y-90840547D01*
X90889766Y-90878314D01*
X90820556Y-90981894D01*
X90820554Y-90981898D01*
X90767864Y-91109103D01*
X90767862Y-91109108D01*
X90741000Y-91244152D01*
X90741000Y-91244155D01*
X90741000Y-91381845D01*
X90767862Y-91516891D01*
X90820554Y-91644101D01*
X90824971Y-91650711D01*
X90897050Y-91758585D01*
X90897055Y-91758591D01*
X90994408Y-91855944D01*
X90994414Y-91855949D01*
X91108899Y-91932446D01*
X91209618Y-91974165D01*
X91229202Y-91982277D01*
X91284483Y-92026825D01*
X91306904Y-92094189D01*
X91306984Y-92098805D01*
X91300119Y-99374119D01*
X91280053Y-99442221D01*
X91226353Y-99488663D01*
X91174119Y-99500000D01*
X78626000Y-99500000D01*
X78557879Y-99479998D01*
X78511386Y-99426342D01*
X78500000Y-99374000D01*
X78500000Y-97431152D01*
X81801000Y-97431152D01*
X81801000Y-97568847D01*
X81827862Y-97703891D01*
X81880554Y-97831101D01*
X81919561Y-97889479D01*
X81957050Y-97945585D01*
X81957055Y-97945591D01*
X82054408Y-98042944D01*
X82054414Y-98042949D01*
X82168899Y-98119446D01*
X82296109Y-98172138D01*
X82431155Y-98199000D01*
X82431156Y-98199000D01*
X82568844Y-98199000D01*
X82568845Y-98199000D01*
X82703891Y-98172138D01*
X82831101Y-98119446D01*
X82945586Y-98042949D01*
X83042949Y-97945586D01*
X83119446Y-97831101D01*
X83172138Y-97703891D01*
X83199000Y-97568845D01*
X83199000Y-97431155D01*
X83198999Y-97431152D01*
X84201000Y-97431152D01*
X84201000Y-97568847D01*
X84227862Y-97703891D01*
X84280554Y-97831101D01*
X84319561Y-97889479D01*
X84357050Y-97945585D01*
X84357055Y-97945591D01*
X84454408Y-98042944D01*
X84454414Y-98042949D01*
X84568899Y-98119446D01*
X84696109Y-98172138D01*
X84831155Y-98199000D01*
X84831156Y-98199000D01*
X84968844Y-98199000D01*
X84968845Y-98199000D01*
X85103891Y-98172138D01*
X85231101Y-98119446D01*
X85345586Y-98042949D01*
X85442949Y-97945586D01*
X85519446Y-97831101D01*
X85572138Y-97703891D01*
X85599000Y-97568845D01*
X85599000Y-97431155D01*
X85598999Y-97431152D01*
X86601000Y-97431152D01*
X86601000Y-97568847D01*
X86627862Y-97703891D01*
X86680554Y-97831101D01*
X86719561Y-97889479D01*
X86757050Y-97945585D01*
X86757055Y-97945591D01*
X86854408Y-98042944D01*
X86854414Y-98042949D01*
X86968899Y-98119446D01*
X87096109Y-98172138D01*
X87231155Y-98199000D01*
X87231156Y-98199000D01*
X87368844Y-98199000D01*
X87368845Y-98199000D01*
X87503891Y-98172138D01*
X87631101Y-98119446D01*
X87745586Y-98042949D01*
X87842949Y-97945586D01*
X87919446Y-97831101D01*
X87972138Y-97703891D01*
X87999000Y-97568845D01*
X87999000Y-97431155D01*
X87972138Y-97296109D01*
X87919446Y-97168899D01*
X87842949Y-97054414D01*
X87842944Y-97054408D01*
X87745591Y-96957055D01*
X87745585Y-96957050D01*
X87707597Y-96931667D01*
X87631101Y-96880554D01*
X87503891Y-96827862D01*
X87368847Y-96801000D01*
X87368845Y-96801000D01*
X87231155Y-96801000D01*
X87231152Y-96801000D01*
X87096108Y-96827862D01*
X87096103Y-96827864D01*
X86968899Y-96880554D01*
X86854414Y-96957050D01*
X86854408Y-96957055D01*
X86757055Y-97054408D01*
X86757050Y-97054414D01*
X86680554Y-97168899D01*
X86627864Y-97296103D01*
X86627862Y-97296108D01*
X86601000Y-97431152D01*
X85598999Y-97431152D01*
X85572138Y-97296109D01*
X85519446Y-97168899D01*
X85442949Y-97054414D01*
X85442944Y-97054408D01*
X85345591Y-96957055D01*
X85345585Y-96957050D01*
X85307597Y-96931667D01*
X85231101Y-96880554D01*
X85103891Y-96827862D01*
X84968847Y-96801000D01*
X84968845Y-96801000D01*
X84831155Y-96801000D01*
X84831152Y-96801000D01*
X84696108Y-96827862D01*
X84696103Y-96827864D01*
X84568899Y-96880554D01*
X84454414Y-96957050D01*
X84454408Y-96957055D01*
X84357055Y-97054408D01*
X84357050Y-97054414D01*
X84280554Y-97168899D01*
X84227864Y-97296103D01*
X84227862Y-97296108D01*
X84201000Y-97431152D01*
X83198999Y-97431152D01*
X83172138Y-97296109D01*
X83119446Y-97168899D01*
X83042949Y-97054414D01*
X83042944Y-97054408D01*
X82945591Y-96957055D01*
X82945585Y-96957050D01*
X82907597Y-96931667D01*
X82831101Y-96880554D01*
X82703891Y-96827862D01*
X82568847Y-96801000D01*
X82568845Y-96801000D01*
X82431155Y-96801000D01*
X82431152Y-96801000D01*
X82296108Y-96827862D01*
X82296103Y-96827864D01*
X82168899Y-96880554D01*
X82054414Y-96957050D01*
X82054408Y-96957055D01*
X81957055Y-97054408D01*
X81957050Y-97054414D01*
X81880554Y-97168899D01*
X81827864Y-97296103D01*
X81827862Y-97296108D01*
X81801000Y-97431152D01*
X78500000Y-97431152D01*
X78500000Y-80326500D01*
X78520002Y-80258379D01*
X78573658Y-80211886D01*
X78626000Y-80200500D01*
X88266000Y-80200500D01*
X88334121Y-80220502D01*
G37*
%TD.AperFunction*%
%TD*%
%TA.AperFunction,Conductor*%
%TO.N,/Power MOSFETS/Q3-s_Q4-d*%
G36*
X100526121Y-80220502D02*
G01*
X100572614Y-80274158D01*
X100584000Y-80326500D01*
X100584000Y-85725000D01*
X104141000Y-85725000D01*
X104209121Y-85745002D01*
X104255614Y-85798658D01*
X104267000Y-85851000D01*
X104267000Y-90905821D01*
X104246998Y-90973942D01*
X104193342Y-91020435D01*
X104189219Y-91022229D01*
X104062903Y-91074551D01*
X104062899Y-91074553D01*
X103948414Y-91151050D01*
X103948408Y-91151055D01*
X103851055Y-91248408D01*
X103851050Y-91248414D01*
X103774554Y-91362899D01*
X103721864Y-91490103D01*
X103721862Y-91490108D01*
X103695000Y-91625152D01*
X103695000Y-91762847D01*
X103713519Y-91855949D01*
X103721862Y-91897891D01*
X103774554Y-92025101D01*
X103825667Y-92101597D01*
X103851050Y-92139585D01*
X103851055Y-92139591D01*
X103948408Y-92236944D01*
X103948414Y-92236949D01*
X104062899Y-92313446D01*
X104181672Y-92362643D01*
X104189218Y-92365769D01*
X104244499Y-92410317D01*
X104266920Y-92477681D01*
X104267000Y-92482178D01*
X104267000Y-99315594D01*
X104246998Y-99383715D01*
X104193342Y-99430208D01*
X104141596Y-99441593D01*
X91926789Y-99499399D01*
X91858575Y-99479719D01*
X91811828Y-99426284D01*
X91800193Y-99373208D01*
X91802024Y-98172135D01*
X91803154Y-97431152D01*
X94701000Y-97431152D01*
X94701000Y-97431155D01*
X94701000Y-97568845D01*
X94727862Y-97703891D01*
X94780554Y-97831101D01*
X94831667Y-97907597D01*
X94857050Y-97945585D01*
X94857055Y-97945591D01*
X94954408Y-98042944D01*
X94954414Y-98042949D01*
X95068899Y-98119446D01*
X95196109Y-98172138D01*
X95331155Y-98199000D01*
X95331156Y-98199000D01*
X95468844Y-98199000D01*
X95468845Y-98199000D01*
X95603891Y-98172138D01*
X95731101Y-98119446D01*
X95845586Y-98042949D01*
X95942949Y-97945586D01*
X96019446Y-97831101D01*
X96072138Y-97703891D01*
X96099000Y-97568845D01*
X96099000Y-97431155D01*
X96098999Y-97431152D01*
X97101000Y-97431152D01*
X97101000Y-97431155D01*
X97101000Y-97568845D01*
X97127862Y-97703891D01*
X97180554Y-97831101D01*
X97231667Y-97907597D01*
X97257050Y-97945585D01*
X97257055Y-97945591D01*
X97354408Y-98042944D01*
X97354414Y-98042949D01*
X97468899Y-98119446D01*
X97596109Y-98172138D01*
X97731155Y-98199000D01*
X97731156Y-98199000D01*
X97868844Y-98199000D01*
X97868845Y-98199000D01*
X98003891Y-98172138D01*
X98131101Y-98119446D01*
X98245586Y-98042949D01*
X98342949Y-97945586D01*
X98419446Y-97831101D01*
X98472138Y-97703891D01*
X98499000Y-97568845D01*
X98499000Y-97431155D01*
X98498999Y-97431152D01*
X99501000Y-97431152D01*
X99501000Y-97431155D01*
X99501000Y-97568845D01*
X99527862Y-97703891D01*
X99580554Y-97831101D01*
X99631667Y-97907597D01*
X99657050Y-97945585D01*
X99657055Y-97945591D01*
X99754408Y-98042944D01*
X99754414Y-98042949D01*
X99868899Y-98119446D01*
X99996109Y-98172138D01*
X100131155Y-98199000D01*
X100131156Y-98199000D01*
X100268844Y-98199000D01*
X100268845Y-98199000D01*
X100403891Y-98172138D01*
X100531101Y-98119446D01*
X100645586Y-98042949D01*
X100742949Y-97945586D01*
X100819446Y-97831101D01*
X100872138Y-97703891D01*
X100899000Y-97568845D01*
X100899000Y-97431155D01*
X100872138Y-97296109D01*
X100819446Y-97168899D01*
X100742949Y-97054414D01*
X100742944Y-97054408D01*
X100645591Y-96957055D01*
X100645585Y-96957050D01*
X100607597Y-96931667D01*
X100531101Y-96880554D01*
X100403891Y-96827862D01*
X100268847Y-96801000D01*
X100268845Y-96801000D01*
X100131155Y-96801000D01*
X100131152Y-96801000D01*
X99996108Y-96827862D01*
X99996103Y-96827864D01*
X99868899Y-96880554D01*
X99754414Y-96957050D01*
X99754408Y-96957055D01*
X99657055Y-97054408D01*
X99657050Y-97054414D01*
X99580554Y-97168899D01*
X99527864Y-97296103D01*
X99527862Y-97296108D01*
X99501000Y-97431152D01*
X98498999Y-97431152D01*
X98472138Y-97296109D01*
X98419446Y-97168899D01*
X98342949Y-97054414D01*
X98342944Y-97054408D01*
X98245591Y-96957055D01*
X98245585Y-96957050D01*
X98207597Y-96931667D01*
X98131101Y-96880554D01*
X98003891Y-96827862D01*
X97868847Y-96801000D01*
X97868845Y-96801000D01*
X97731155Y-96801000D01*
X97731152Y-96801000D01*
X97596108Y-96827862D01*
X97596103Y-96827864D01*
X97468899Y-96880554D01*
X97354414Y-96957050D01*
X97354408Y-96957055D01*
X97257055Y-97054408D01*
X97257050Y-97054414D01*
X97180554Y-97168899D01*
X97127864Y-97296103D01*
X97127862Y-97296108D01*
X97101000Y-97431152D01*
X96098999Y-97431152D01*
X96072138Y-97296109D01*
X96019446Y-97168899D01*
X95942949Y-97054414D01*
X95942944Y-97054408D01*
X95845591Y-96957055D01*
X95845585Y-96957050D01*
X95807597Y-96931667D01*
X95731101Y-96880554D01*
X95603891Y-96827862D01*
X95468847Y-96801000D01*
X95468845Y-96801000D01*
X95331155Y-96801000D01*
X95331152Y-96801000D01*
X95196108Y-96827862D01*
X95196103Y-96827864D01*
X95068899Y-96880554D01*
X94954414Y-96957050D01*
X94954408Y-96957055D01*
X94857055Y-97054408D01*
X94857050Y-97054414D01*
X94780554Y-97168899D01*
X94727864Y-97296103D01*
X94727862Y-97296108D01*
X94701000Y-97431152D01*
X91803154Y-97431152D01*
X91811475Y-91972619D01*
X91831580Y-91904535D01*
X91867473Y-91868051D01*
X91885586Y-91855949D01*
X91982949Y-91758586D01*
X92059446Y-91644101D01*
X92112138Y-91516891D01*
X92139000Y-91381845D01*
X92139000Y-91244155D01*
X92112138Y-91109109D01*
X92059446Y-90981899D01*
X91982949Y-90867414D01*
X91982944Y-90867408D01*
X91881210Y-90765674D01*
X91882690Y-90764193D01*
X91848099Y-90713418D01*
X91846192Y-90642447D01*
X91863231Y-90604686D01*
X91932446Y-90501101D01*
X91985138Y-90373891D01*
X92012000Y-90238845D01*
X92012000Y-90101155D01*
X91985138Y-89966109D01*
X91932446Y-89838899D01*
X91855949Y-89724414D01*
X91855944Y-89724408D01*
X91851949Y-89720413D01*
X91817923Y-89658101D01*
X91815045Y-89631136D01*
X91817909Y-87752434D01*
X91838014Y-87684348D01*
X91873903Y-87647867D01*
X92007023Y-87558920D01*
X92130920Y-87435023D01*
X92228265Y-87289336D01*
X92295317Y-87127458D01*
X92329500Y-86955608D01*
X92329500Y-86780392D01*
X92295317Y-86608542D01*
X92228265Y-86446664D01*
X92130920Y-86300977D01*
X92007023Y-86177080D01*
X92007021Y-86177078D01*
X92007018Y-86177076D01*
X91876601Y-86089934D01*
X91871365Y-86083669D01*
X91863945Y-86080267D01*
X91848928Y-86056821D01*
X91831073Y-86035457D01*
X91829075Y-86025826D01*
X91825653Y-86020483D01*
X91820603Y-85984980D01*
X91820808Y-85850806D01*
X91840914Y-85782717D01*
X91894641Y-85736307D01*
X91946808Y-85725000D01*
X94869000Y-85725000D01*
X94869000Y-80326500D01*
X94889002Y-80258379D01*
X94942658Y-80211886D01*
X94995000Y-80200500D01*
X100458000Y-80200500D01*
X100526121Y-80220502D01*
G37*
%TD.AperFunction*%
%TD*%
M02*
