%TF.GenerationSoftware,KiCad,Pcbnew,9.0.2*%
%TF.CreationDate,2026-05-29T08:24:13+07:00*%
%TF.ProjectId,after-remap,61667465-722d-4726-956d-61702e6b6963,A*%
%TF.SameCoordinates,Original*%
%TF.FileFunction,Soldermask,Top*%
%TF.FilePolarity,Negative*%
%FSLAX46Y46*%
G04 Gerber Fmt 4.6, Leading zero omitted, Abs format (unit mm)*
G04 Created by KiCad (PCBNEW 9.0.2) date 2026-05-29 08:24:13*
%MOMM*%
%LPD*%
G01*
G04 APERTURE LIST*
G04 Aperture macros list*
%AMRoundRect*
0 Rectangle with rounded corners*
0 $1 Rounding radius*
0 $2 $3 $4 $5 $6 $7 $8 $9 X,Y pos of 4 corners*
0 Add a 4 corners polygon primitive as box body*
4,1,4,$2,$3,$4,$5,$6,$7,$8,$9,$2,$3,0*
0 Add four circle primitives for the rounded corners*
1,1,$1+$1,$2,$3*
1,1,$1+$1,$4,$5*
1,1,$1+$1,$6,$7*
1,1,$1+$1,$8,$9*
0 Add four rect primitives between the rounded corners*
20,1,$1+$1,$2,$3,$4,$5,0*
20,1,$1+$1,$4,$5,$6,$7,0*
20,1,$1+$1,$6,$7,$8,$9,0*
20,1,$1+$1,$8,$9,$2,$3,0*%
%AMFreePoly0*
4,1,62,4.040275,1.440280,4.054920,1.404925,4.054920,-1.405077,4.040275,-1.440432,4.004920,-1.455077,3.204921,-1.455077,3.169566,-1.440432,3.154921,-1.405077,3.154921,0.544919,2.854922,0.544919,2.854922,-1.405077,2.840277,-1.440432,2.804922,-1.455077,2.004924,-1.455077,1.969569,-1.440432,1.954924,-1.405077,1.954924,0.544893,1.654924,0.544893,1.654924,-1.405077,1.640279,-1.440432,
1.604924,-1.455077,0.804926,-1.455077,0.769571,-1.440432,0.754926,-1.405077,0.754926,0.544893,0.454927,0.544893,0.454927,-1.405077,0.440282,-1.440432,0.404927,-1.455077,-0.395072,-1.455077,-0.430427,-1.440432,-0.445072,-1.405077,-0.445072,0.544893,-0.745071,0.544893,-0.745071,-1.405077,-0.759716,-1.440432,-0.795071,-1.455077,-1.595069,-1.455077,-1.630424,-1.440432,-1.645069,-1.405077,
-1.645069,0.544893,-1.945068,0.544893,-1.945068,-1.405077,-1.959713,-1.440432,-1.995068,-1.455077,-2.795067,-1.455077,-2.830422,-1.440432,-2.845067,-1.405077,-2.845067,0.544893,-3.145066,0.544893,-3.145066,-1.405077,-3.159711,-1.440432,-3.194448,-1.455073,-4.004454,-1.465081,-4.039988,-1.450874,-4.055068,-1.415703,-4.055072,-1.415085,-4.055072,1.404925,-4.040427,1.440280,-4.005072,1.454925,
4.004920,1.454925,4.040275,1.440280,4.040275,1.440280,$1*%
%AMFreePoly1*
4,1,32,5.085281,4.035195,5.099926,3.999840,5.099926,2.599842,5.085281,2.564487,5.049926,2.549842,4.199928,2.549842,4.199928,-0.250152,4.849927,-0.250152,4.885282,-0.264797,4.899927,-0.300152,4.899927,-4.000144,4.885282,-4.035499,4.849927,-4.050144,-4.850054,-4.050144,-4.885409,-4.035499,-4.900054,-4.000144,-4.900054,-0.300152,-4.885409,-0.264797,-4.850054,-0.250152,-4.200055,-0.250152,
-4.200055,2.549842,-5.050053,2.549842,-5.085408,2.564487,-5.100053,2.599842,-5.100053,2.629679,-5.100130,2.629865,-5.100053,2.630050,-5.100053,3.999840,-5.085408,4.035195,-5.050053,4.049840,5.049926,4.049840,5.085281,4.035195,5.085281,4.035195,$1*%
G04 Aperture macros list end*
%ADD10O,3.048000X1.524000*%
%ADD11RoundRect,0.050800X0.600000X0.750000X-0.600000X0.750000X-0.600000X-0.750000X0.600000X-0.750000X0*%
%ADD12O,1.301600X1.601600*%
%ADD13O,1.701600X1.701600*%
%ADD14RoundRect,0.050800X0.600000X0.700000X-0.600000X0.700000X-0.600000X-0.700000X0.600000X-0.700000X0*%
%ADD15O,1.301600X1.501600*%
%ADD16R,0.864000X0.806000*%
%ADD17C,2.200000*%
%ADD18C,5.600000*%
%ADD19R,0.800000X0.900000*%
%ADD20R,0.806000X0.864000*%
%ADD21R,6.999998X9.000000*%
%ADD22R,0.900000X0.800000*%
%ADD23R,2.690000X0.890000*%
%ADD24R,2.690000X5.710000*%
%ADD25R,1.150000X0.950000*%
%ADD26R,2.700000X1.635000*%
%ADD27R,2.465000X1.050000*%
%ADD28R,2.465000X3.540000*%
%ADD29R,0.950000X1.150000*%
%ADD30R,1.635000X2.700000*%
%ADD31R,0.800000X0.800000*%
%ADD32R,2.376000X1.900000*%
%ADD33R,5.400000X2.010000*%
%ADD34R,9.000000X6.999998*%
%ADD35R,0.800000X2.800000*%
%ADD36FreePoly0,0.000000*%
%ADD37FreePoly1,0.000000*%
%ADD38R,2.200000X5.720000*%
%ADD39R,0.300000X1.300480*%
%ADD40R,1.300480X0.300000*%
%ADD41R,0.635000X1.143000*%
%ADD42R,0.299720X1.501140*%
%ADD43R,7.000240X3.599180*%
%ADD44R,1.900000X2.376000*%
%ADD45R,2.000000X0.400000*%
%ADD46R,1.000000X1.600000*%
%ADD47R,1.400000X2.000000*%
%ADD48R,1.600000X1.200000*%
%ADD49R,1.399540X0.599440*%
G04 APERTURE END LIST*
D10*
%TO.C,K1*%
X253500000Y-148140000D03*
X253500000Y-145600000D03*
X253500000Y-143060000D03*
%TD*%
D11*
%TO.C,TEMP/HALL*%
X212300000Y-152600000D03*
D12*
X214300000Y-152600000D03*
X216300000Y-152600000D03*
X218300000Y-152600000D03*
X220300000Y-152600000D03*
X222300000Y-152600000D03*
%TD*%
D11*
%TO.C,SWD*%
X226600000Y-152600000D03*
D12*
X228600000Y-152600000D03*
X230600000Y-152600000D03*
X232600000Y-152600000D03*
X234600000Y-152600000D03*
X236600000Y-152600000D03*
%TD*%
D13*
%TO.C,CAN*%
X201900000Y-151500000D03*
X203900000Y-151500000D03*
X205900000Y-151500000D03*
X207900000Y-151500000D03*
%TD*%
D14*
%TO.C,PERIF*%
X240900000Y-151500000D03*
D15*
X242900000Y-151500000D03*
X244900000Y-151500000D03*
X246900000Y-151500000D03*
X248900000Y-151500000D03*
X250900000Y-151500000D03*
X252900000Y-151500000D03*
%TD*%
D16*
%TO.C,R30*%
X223200000Y-85950000D03*
X223200000Y-84450000D03*
%TD*%
D17*
%TO.C,C42*%
X210749619Y-42150000D03*
X210749619Y-34650000D03*
%TD*%
D18*
%TO.C,H1*%
X198200000Y-32100000D03*
%TD*%
D16*
%TO.C,R49*%
X237600000Y-104350000D03*
X237600000Y-105850000D03*
%TD*%
D19*
%TO.C,C20*%
X238000000Y-123200000D03*
X239400000Y-123200000D03*
%TD*%
D16*
%TO.C,R12*%
X220000000Y-148850000D03*
X220000000Y-147350000D03*
%TD*%
D19*
%TO.C,C15*%
X229200000Y-148400000D03*
X230600000Y-148400000D03*
%TD*%
D18*
%TO.C,H8*%
X249590000Y-74100000D03*
%TD*%
D20*
%TO.C,R23*%
X245750000Y-127200000D03*
X247250000Y-127200000D03*
%TD*%
D16*
%TO.C,R50*%
X239200000Y-104350000D03*
X239200000Y-105850000D03*
%TD*%
D21*
%TO.C,P5*%
X230600000Y-97000000D03*
%TD*%
D22*
%TO.C,C10*%
X240900000Y-128900000D03*
X240900000Y-130300000D03*
%TD*%
D17*
%TO.C,C46*%
X249250381Y-42150000D03*
X249250381Y-34650000D03*
%TD*%
D19*
%TO.C,C38*%
X232200000Y-148400000D03*
X233600000Y-148400000D03*
%TD*%
D20*
%TO.C,R5*%
X248550000Y-148394000D03*
X250050000Y-148394000D03*
%TD*%
D16*
%TO.C,R36*%
X223200000Y-87650000D03*
X223200000Y-89150000D03*
%TD*%
D18*
%TO.C,H6*%
X210788935Y-74093501D03*
%TD*%
D22*
%TO.C,C2*%
X221000000Y-125950000D03*
X221000000Y-127350000D03*
%TD*%
D16*
%TO.C,R27*%
X249200000Y-123350000D03*
X249200000Y-124850000D03*
%TD*%
%TO.C,R6*%
X256000000Y-150850000D03*
X256000000Y-152350000D03*
%TD*%
D18*
%TO.C,H3*%
X260800000Y-151800000D03*
%TD*%
D19*
%TO.C,C28*%
X232800000Y-109000000D03*
X231400000Y-109000000D03*
%TD*%
D20*
%TO.C,R104*%
X218850000Y-132070000D03*
X217350000Y-132070000D03*
%TD*%
D16*
%TO.C,R20*%
X229500000Y-123150000D03*
X229500000Y-124650000D03*
%TD*%
D19*
%TO.C,C35*%
X226500000Y-140400000D03*
X227900000Y-140400000D03*
%TD*%
D23*
%TO.C,R53*%
X241660000Y-101360000D03*
X236740000Y-101360000D03*
D24*
X241660000Y-97180000D03*
X236740000Y-97180000D03*
%TD*%
D25*
%TO.C,D5*%
X250600000Y-142710000D03*
X250600000Y-146090000D03*
%TD*%
D26*
%TO.C,C8*%
X221100000Y-112660000D03*
X221100000Y-115700000D03*
%TD*%
D18*
%TO.C,H5*%
X200700000Y-50200000D03*
%TD*%
D16*
%TO.C,R4*%
X219400000Y-125900000D03*
X219400000Y-127400000D03*
%TD*%
%TO.C,R42*%
X242400000Y-72150000D03*
X242400000Y-73650000D03*
%TD*%
%TO.C,R28*%
X203300000Y-72150000D03*
X203300000Y-73650000D03*
%TD*%
%TO.C,R19*%
X226300000Y-124850000D03*
X226300000Y-123350000D03*
%TD*%
D20*
%TO.C,R37*%
X246250000Y-133300000D03*
X244750000Y-133300000D03*
%TD*%
D27*
%TO.C,U2*%
X205510000Y-123050000D03*
X205510000Y-120750000D03*
X205510000Y-118450000D03*
D28*
X199790000Y-120750000D03*
%TD*%
D18*
%TO.C,H9*%
X230600000Y-97000000D03*
%TD*%
D22*
%TO.C,C16*%
X242500000Y-130300000D03*
X242500000Y-128900000D03*
%TD*%
D29*
%TO.C,D4*%
X212940000Y-116500000D03*
X209560000Y-116500000D03*
%TD*%
D30*
%TO.C,C43*%
X226720000Y-109800000D03*
X223680000Y-109800000D03*
%TD*%
D20*
%TO.C,R1*%
X257150000Y-78200000D03*
X258650000Y-78200000D03*
%TD*%
D19*
%TO.C,C11*%
X242200000Y-137500000D03*
X240800000Y-137500000D03*
%TD*%
%TO.C,C27*%
X229900000Y-110200000D03*
X228500000Y-110200000D03*
%TD*%
D22*
%TO.C,C12*%
X231100000Y-124600000D03*
X231100000Y-123200000D03*
%TD*%
D31*
%TO.C,D7*%
X209600000Y-128400000D03*
X208000000Y-128400000D03*
%TD*%
D20*
%TO.C,R25*%
X228650000Y-107300000D03*
X230150000Y-107300000D03*
%TD*%
D16*
%TO.C,R9*%
X218400000Y-148850000D03*
X218400000Y-147350000D03*
%TD*%
D22*
%TO.C,C19*%
X227900000Y-124800000D03*
X227900000Y-123400000D03*
%TD*%
D20*
%TO.C,R14*%
X211150000Y-128360000D03*
X212650000Y-128360000D03*
%TD*%
D26*
%TO.C,C40*%
X242200000Y-57320000D03*
X242200000Y-54280000D03*
%TD*%
D16*
%TO.C,R7*%
X213600000Y-148850000D03*
X213600000Y-147350000D03*
%TD*%
D26*
%TO.C,C44*%
X224500000Y-115700000D03*
X224500000Y-112660000D03*
%TD*%
D19*
%TO.C,C22*%
X233100000Y-123100000D03*
X234500000Y-123100000D03*
%TD*%
D22*
%TO.C,C6*%
X218300000Y-144800000D03*
X218300000Y-143400000D03*
%TD*%
D16*
%TO.C,R401*%
X214800000Y-137850000D03*
X214800000Y-136350000D03*
%TD*%
D32*
%TO.C,C33*%
X208550000Y-119050000D03*
X208550000Y-122850000D03*
%TD*%
D33*
%TO.C,C51*%
X220400000Y-58780000D03*
X220400000Y-53620000D03*
%TD*%
D34*
%TO.C,P9*%
X249590000Y-74099999D03*
%TD*%
D35*
%TO.C,Q4*%
X225900000Y-90377500D03*
D36*
X230700000Y-90377500D03*
D37*
X230110000Y-82517500D03*
%TD*%
D35*
%TO.C,Q3*%
X225900000Y-68630000D03*
D36*
X230700000Y-68630000D03*
D37*
X230110000Y-60770000D03*
%TD*%
D19*
%TO.C,C18*%
X233100000Y-124500000D03*
X234500000Y-124500000D03*
%TD*%
D26*
%TO.C,C9*%
X237500000Y-57320000D03*
X237500000Y-54280000D03*
%TD*%
D20*
%TO.C,R2*%
X240750000Y-141000000D03*
X242250000Y-141000000D03*
%TD*%
D16*
%TO.C,R51*%
X240633333Y-104350000D03*
X240633333Y-105850000D03*
%TD*%
%TO.C,R13*%
X216800000Y-148850000D03*
X216800000Y-147350000D03*
%TD*%
D38*
%TO.C,L1*%
X216450000Y-120750000D03*
X211450000Y-120750000D03*
%TD*%
D19*
%TO.C,C13*%
X224000000Y-131050000D03*
X225400000Y-131050000D03*
%TD*%
D22*
%TO.C,C401*%
X224500000Y-136900000D03*
X224500000Y-138300000D03*
%TD*%
D16*
%TO.C,R21*%
X225900000Y-121650000D03*
X225900000Y-120150000D03*
%TD*%
D19*
%TO.C,C17*%
X230900000Y-126200000D03*
X229500000Y-126200000D03*
%TD*%
D39*
%TO.C,U1*%
X229550960Y-140550560D03*
X230048800Y-140550560D03*
X230549180Y-140550560D03*
X231049560Y-140550560D03*
X231549940Y-140550560D03*
X232050320Y-140550560D03*
X232550700Y-140550560D03*
X233051080Y-140550560D03*
X233548920Y-140550560D03*
X234049300Y-140550560D03*
X234549680Y-140550560D03*
X235050060Y-140550560D03*
X235550440Y-140550560D03*
X236050820Y-140550560D03*
X236551200Y-140550560D03*
X237049040Y-140550560D03*
D40*
X239050560Y-138549040D03*
X239050560Y-138051200D03*
X239050560Y-137550820D03*
X239050560Y-137050440D03*
X239050560Y-136550060D03*
X239050560Y-136049680D03*
X239050560Y-135549300D03*
X239050560Y-135048920D03*
X239050560Y-134551080D03*
X239050560Y-134050700D03*
X239050560Y-133550320D03*
X239050560Y-133049940D03*
X239050560Y-132549560D03*
X239050560Y-132049180D03*
X239050560Y-131548800D03*
X239050560Y-131050960D03*
D39*
X237049040Y-129049440D03*
X236551200Y-129049440D03*
X236050820Y-129049440D03*
X235550440Y-129049440D03*
X235050060Y-129049440D03*
X234549680Y-129049440D03*
X234049300Y-129049440D03*
X233548920Y-129049440D03*
X233051080Y-129049440D03*
X232550700Y-129049440D03*
X232050320Y-129049440D03*
X231549940Y-129049440D03*
X231049560Y-129049440D03*
X230549180Y-129049440D03*
X230048800Y-129049440D03*
X229550960Y-129049440D03*
D40*
X227549440Y-131050960D03*
X227549440Y-131548800D03*
X227549440Y-132049180D03*
X227549440Y-132549560D03*
X227549440Y-133049940D03*
X227549440Y-133550320D03*
X227549440Y-134050700D03*
X227549440Y-134551080D03*
X227549440Y-135048920D03*
X227549440Y-135549300D03*
X227549440Y-136049680D03*
X227549440Y-136550060D03*
X227549440Y-137050440D03*
X227549440Y-137550820D03*
X227549440Y-138051200D03*
X227549440Y-138549040D03*
%TD*%
D35*
%TO.C,Q5*%
X245290000Y-68607500D03*
D36*
X250090000Y-68607500D03*
D37*
X249500000Y-60747500D03*
%TD*%
D16*
%TO.C,R34*%
X223000000Y-72150000D03*
X223000000Y-73650000D03*
%TD*%
D29*
%TO.C,D6*%
X206290000Y-133300000D03*
X202910000Y-133300000D03*
%TD*%
D19*
%TO.C,C52*%
X238000000Y-124800000D03*
X239400000Y-124800000D03*
%TD*%
D34*
%TO.C,P7*%
X230150000Y-74099999D03*
%TD*%
D18*
%TO.C,H7*%
X230150000Y-74100000D03*
%TD*%
D20*
%TO.C,R18*%
X214449270Y-124933896D03*
X215949270Y-124933896D03*
%TD*%
D22*
%TO.C,C23*%
X241000000Y-124600000D03*
X241000000Y-123200000D03*
%TD*%
D41*
%TO.C,C34*%
X236038000Y-107400000D03*
X237562000Y-107400000D03*
%TD*%
D35*
%TO.C,Q1*%
X206490000Y-68607500D03*
D36*
X211290000Y-68607500D03*
D37*
X210700000Y-60747500D03*
%TD*%
D18*
%TO.C,H2*%
X260805635Y-32115123D03*
%TD*%
D16*
%TO.C,R3*%
X217800000Y-125900000D03*
X217800000Y-127400000D03*
%TD*%
D42*
%TO.C,U3*%
X227001160Y-120381000D03*
X227499000Y-120381000D03*
X227999380Y-120381000D03*
X228499760Y-120381000D03*
X229000140Y-120381000D03*
X229500520Y-120381000D03*
X230000900Y-120381000D03*
X230498740Y-120381000D03*
X230999120Y-120381000D03*
X231499500Y-120381000D03*
X231999880Y-120381000D03*
X232500260Y-120381000D03*
X233000640Y-120381000D03*
X233501020Y-120381000D03*
X233998860Y-120381000D03*
X234499240Y-120381000D03*
X234999620Y-120381000D03*
X235500000Y-120381000D03*
X236000380Y-120381000D03*
X236500760Y-120381000D03*
X237001140Y-120381000D03*
X237498980Y-120381000D03*
X237999360Y-120381000D03*
X238499740Y-120381000D03*
X239000120Y-120381000D03*
X239500500Y-120381000D03*
X240000880Y-120381000D03*
X240498720Y-120381000D03*
X240498720Y-112380000D03*
X240000880Y-112380000D03*
X239500500Y-112380000D03*
X239000120Y-112380000D03*
X238499740Y-112380000D03*
X237999360Y-112380000D03*
X237498980Y-112380000D03*
X237001140Y-112380000D03*
X236500760Y-112380000D03*
X236000380Y-112380000D03*
X235500000Y-112380000D03*
X234999620Y-112380000D03*
X234499240Y-112380000D03*
X233998860Y-112380000D03*
X233501020Y-112380000D03*
X233000640Y-112380000D03*
X232500260Y-112380000D03*
X231999880Y-112380000D03*
X231499500Y-112380000D03*
X230999120Y-112380000D03*
X230498740Y-112380000D03*
X230000900Y-112380000D03*
X229500520Y-112380000D03*
X229000140Y-112380000D03*
X228499760Y-112380000D03*
X227999380Y-112380000D03*
X227499000Y-112380000D03*
X227001160Y-112380000D03*
D43*
X233696600Y-116380500D03*
%TD*%
D16*
%TO.C,R33*%
X249200000Y-120250000D03*
X249200000Y-121750000D03*
%TD*%
D22*
%TO.C,C31*%
X235700000Y-144800000D03*
X235700000Y-143400000D03*
%TD*%
D44*
%TO.C,C25*%
X200050000Y-125850000D03*
X203850000Y-125850000D03*
%TD*%
D19*
%TO.C,C32*%
X234100000Y-142400000D03*
X232700000Y-142400000D03*
%TD*%
D20*
%TO.C,R26*%
X245750000Y-124515000D03*
X247250000Y-124515000D03*
%TD*%
D41*
%TO.C,C36*%
X239238000Y-107400000D03*
X240762000Y-107400000D03*
%TD*%
D17*
%TO.C,C45*%
X230000000Y-42150000D03*
X230000000Y-34650000D03*
%TD*%
D22*
%TO.C,C4*%
X212000000Y-147400000D03*
X212000000Y-148800000D03*
%TD*%
D19*
%TO.C,C41*%
X240800000Y-139200000D03*
X242200000Y-139200000D03*
%TD*%
%TO.C,C14*%
X226100000Y-129700000D03*
X227500000Y-129700000D03*
%TD*%
D16*
%TO.C,R8*%
X215200000Y-148850000D03*
X215200000Y-147350000D03*
%TD*%
D23*
%TO.C,R54*%
X224460000Y-101460000D03*
X219540000Y-101460000D03*
D24*
X224460000Y-97280000D03*
X219540000Y-97280000D03*
%TD*%
D20*
%TO.C,R17*%
X211449270Y-124933896D03*
X212949270Y-124933896D03*
%TD*%
D33*
%TO.C,C37*%
X222200000Y-123380000D03*
X222200000Y-118220000D03*
%TD*%
D31*
%TO.C,D3*%
X204700000Y-128380000D03*
X206300000Y-128380000D03*
%TD*%
D20*
%TO.C,R103*%
X218850000Y-130500000D03*
X217350000Y-130500000D03*
%TD*%
D16*
%TO.C,R48*%
X236100000Y-104350000D03*
X236100000Y-105850000D03*
%TD*%
D31*
%TO.C,D2*%
X248240000Y-134800000D03*
X248240000Y-136400000D03*
%TD*%
D19*
%TO.C,C21*%
X227800000Y-126200000D03*
X226400000Y-126200000D03*
%TD*%
%TO.C,C24*%
X200150000Y-128350000D03*
X198750000Y-128350000D03*
%TD*%
D16*
%TO.C,R11*%
X223200000Y-148850000D03*
X223200000Y-147350000D03*
%TD*%
D45*
%TO.C,U4*%
X200900000Y-134000000D03*
X200900000Y-134650000D03*
X200900000Y-135300000D03*
X200900000Y-135950000D03*
X200900000Y-136600000D03*
D46*
X200350000Y-132100000D03*
D47*
X198000000Y-132100000D03*
X198000000Y-138500000D03*
D46*
X200350000Y-138500000D03*
%TD*%
D26*
%TO.C,C39*%
X243100000Y-117901000D03*
X243100000Y-114861000D03*
%TD*%
D21*
%TO.C,P4*%
X200700001Y-50200000D03*
%TD*%
D19*
%TO.C,C30*%
X236800000Y-109600000D03*
X235400000Y-109600000D03*
%TD*%
D20*
%TO.C,R32*%
X245750000Y-121830000D03*
X247250000Y-121830000D03*
%TD*%
D48*
%TO.C,X2*%
X229300000Y-146700000D03*
X233300000Y-146700000D03*
X233300000Y-144300000D03*
X229300000Y-144300000D03*
%TD*%
D16*
%TO.C,R10*%
X221600000Y-148850000D03*
X221600000Y-147350000D03*
%TD*%
D35*
%TO.C,Q2*%
X206490000Y-90355000D03*
D36*
X211290000Y-90355000D03*
D37*
X210700000Y-82495000D03*
%TD*%
D18*
%TO.C,H4*%
X198600000Y-146600000D03*
%TD*%
D22*
%TO.C,C5*%
X221600000Y-144800000D03*
X221600000Y-143400000D03*
%TD*%
D35*
%TO.C,Q6*%
X245290000Y-90355000D03*
D36*
X250090000Y-90355000D03*
D37*
X249500000Y-82495000D03*
%TD*%
D30*
%TO.C,C49*%
X226720000Y-106530000D03*
X223680000Y-106530000D03*
%TD*%
D34*
%TO.C,P6*%
X210790000Y-74099999D03*
%TD*%
D16*
%TO.C,R24*%
X249200000Y-127350000D03*
X249200000Y-128850000D03*
%TD*%
D26*
%TO.C,C1*%
X217750000Y-112680000D03*
X217750000Y-115720000D03*
%TD*%
D19*
%TO.C,C29*%
X234500000Y-107400000D03*
X233100000Y-107400000D03*
%TD*%
D16*
%TO.C,R402*%
X214800000Y-139350000D03*
X214800000Y-140850000D03*
%TD*%
D19*
%TO.C,C26*%
X233100000Y-125900000D03*
X234500000Y-125900000D03*
%TD*%
%TO.C,C3*%
X224400000Y-134600000D03*
X225800000Y-134600000D03*
%TD*%
D22*
%TO.C,C7*%
X215200000Y-144800000D03*
X215200000Y-143400000D03*
%TD*%
D20*
%TO.C,R38*%
X248050000Y-131700000D03*
X246550000Y-131700000D03*
%TD*%
D49*
%TO.C,U401*%
X222667000Y-139505000D03*
X222667000Y-138235000D03*
X222667000Y-136965000D03*
X222667000Y-135695000D03*
X217333000Y-135695000D03*
X217333000Y-136965000D03*
X217333000Y-138235000D03*
X217333000Y-139505000D03*
%TD*%
D16*
%TO.C,R43*%
X242317500Y-89575000D03*
X242317500Y-91075000D03*
%TD*%
D20*
%TO.C,R22*%
X203200000Y-128350000D03*
X201700000Y-128350000D03*
%TD*%
D16*
%TO.C,R29*%
X203917500Y-90650000D03*
X203917500Y-92150000D03*
%TD*%
D31*
%TO.C,D1*%
X246300000Y-134800000D03*
X246300000Y-136400000D03*
%TD*%
D16*
%TO.C,R35*%
X223200000Y-90800000D03*
X223200000Y-92300000D03*
%TD*%
%TO.C,R46*%
X242317500Y-86475000D03*
X242317500Y-87975000D03*
%TD*%
G36*
X253543039Y-90819685D02*
G01*
X253588794Y-90872489D01*
X253600000Y-90924000D01*
X253600000Y-95411157D01*
X253580315Y-95478196D01*
X253527511Y-95523951D01*
X253515876Y-95528570D01*
X243019395Y-99093413D01*
X242979519Y-99100000D01*
X242524000Y-99100000D01*
X242456961Y-99080315D01*
X242411206Y-99027511D01*
X242400000Y-98976000D01*
X242400000Y-94924000D01*
X242419685Y-94856961D01*
X242472489Y-94811206D01*
X242524000Y-94800000D01*
X243099999Y-94800000D01*
X243100000Y-94799999D01*
X246700000Y-93099999D01*
X246700000Y-90924000D01*
X246719685Y-90856961D01*
X246772489Y-90811206D01*
X246824000Y-90800000D01*
X253476000Y-90800000D01*
X253543039Y-90819685D01*
G37*
G36*
X214578000Y-90798032D02*
G01*
X214644713Y-90818795D01*
X214689610Y-90872330D01*
X214700000Y-90922016D01*
X214700000Y-93100000D01*
X214699999Y-93100000D01*
X218532098Y-94966919D01*
X218583745Y-95013977D01*
X218601756Y-95075511D01*
X218696052Y-99130243D01*
X218677932Y-99197722D01*
X218626206Y-99244692D01*
X218557297Y-99256241D01*
X218537097Y-99252087D01*
X208589011Y-96326179D01*
X208530250Y-96288378D01*
X208501254Y-96224810D01*
X208500000Y-96207218D01*
X208500000Y-90826016D01*
X208519685Y-90758977D01*
X208572489Y-90713222D01*
X208626000Y-90702032D01*
X214578000Y-90798032D01*
G37*
G36*
X204143039Y-45719685D02*
G01*
X204188794Y-45772489D01*
X204200000Y-45824000D01*
X204200000Y-54576000D01*
X204180315Y-54643039D01*
X204127511Y-54688794D01*
X204076000Y-54700000D01*
X197324000Y-54700000D01*
X197256961Y-54680315D01*
X197211206Y-54627511D01*
X197200000Y-54576000D01*
X197200000Y-45824000D01*
X197219685Y-45756961D01*
X197272489Y-45711206D01*
X197324000Y-45700000D01*
X204076000Y-45700000D01*
X204143039Y-45719685D01*
G37*
M02*
