%TF.GenerationSoftware,KiCad,Pcbnew,9.0.2*%
%TF.CreationDate,2026-05-17T12:47:14+07:00*%
%TF.ProjectId,after-remap,61667465-722d-4726-956d-61702e6b6963,A*%
%TF.SameCoordinates,Original*%
%TF.FileFunction,Soldermask,Bot*%
%TF.FilePolarity,Negative*%
%FSLAX46Y46*%
G04 Gerber Fmt 4.6, Leading zero omitted, Abs format (unit mm)*
G04 Created by KiCad (PCBNEW 9.0.2) date 2026-05-17 12:47:14*
%MOMM*%
%LPD*%
G01*
G04 APERTURE LIST*
G04 Aperture macros list*
%AMRoundRect*
0 Rectangle with rounded corners*
0 $1 Rounding radius*
0 $2 $3 $4 $5 $6 $7 $8 $9 X,Y pos of 4 corners*
0 Add a 4 corners polygon primitive as box body*
4,1,4,$2,$3,$4,$5,$6,$7,$8,$9,$2,$3,0*
0 Add four circle primitives for the rounded corners*
1,1,$1+$1,$2,$3*
1,1,$1+$1,$4,$5*
1,1,$1+$1,$6,$7*
1,1,$1+$1,$8,$9*
0 Add four rect primitives between the rounded corners*
20,1,$1+$1,$2,$3,$4,$5,0*
20,1,$1+$1,$4,$5,$6,$7,0*
20,1,$1+$1,$6,$7,$8,$9,0*
20,1,$1+$1,$8,$9,$2,$3,0*%
%AMFreePoly0*
4,1,62,-4.004483,1.465096,-3.194483,1.455096,-3.159311,1.440016,-3.145100,1.405100,-3.145100,-0.544900,-2.845100,-0.544900,-2.845100,1.405100,-2.830455,1.440455,-2.795100,1.455100,-1.995100,1.455100,-1.959745,1.440455,-1.945100,1.405100,-1.945100,-0.544900,-1.645100,-0.544900,-1.645100,1.405100,-1.630455,1.440455,-1.595100,1.455100,-0.795100,1.455100,-0.759745,1.440455,-0.745100,1.405100,
-0.745100,-0.544900,-0.445100,-0.544900,-0.445100,1.405100,-0.430455,1.440455,-0.395100,1.455100,0.404900,1.455100,0.440255,1.440455,0.454900,1.405100,0.454900,-0.544900,0.754900,-0.544900,0.754900,1.405100,0.769545,1.440455,0.804900,1.455100,1.604900,1.455100,1.640255,1.440455,1.654900,1.405100,1.654900,-0.544900,1.954900,-0.544900,1.954900,1.405100,1.969545,1.440455,
2.004900,1.455100,2.804900,1.455100,2.840255,1.440455,2.854900,1.405100,2.854900,-0.544900,3.154900,-0.544900,3.154900,1.405100,3.169545,1.440455,3.204900,1.455100,4.004900,1.455100,4.040255,1.440455,4.054900,1.405100,4.054900,-1.404900,4.040255,-1.440255,4.004900,-1.454900,-4.005100,-1.454900,-4.040455,-1.440255,-4.055100,-1.404900,-4.055100,1.415100,-4.040455,1.450455,
-4.005100,1.465100,-4.004483,1.465096,-4.004483,1.465096,$1*%
%AMFreePoly1*
4,1,29,4.885821,4.036121,4.900700,4.000200,4.900700,0.300200,4.885821,0.264279,4.849900,0.249400,4.200700,0.249400,4.200700,-2.549000,5.049900,-2.549000,5.085821,-2.563879,5.100700,-2.599800,5.100700,-3.999800,5.085821,-4.035721,5.049900,-4.050600,-5.050000,-4.050600,-5.085921,-4.035721,-5.100800,-3.999800,-5.100800,-2.599800,-5.085921,-2.563879,-5.050000,-2.549000,-4.200900,-2.549000,
-4.200900,0.249400,-4.850000,0.249400,-4.885921,0.264279,-4.900800,0.300200,-4.900800,4.000200,-4.885921,4.036121,-4.850000,4.051000,4.849900,4.051000,4.885821,4.036121,4.885821,4.036121,$1*%
G04 Aperture macros list end*
%ADD10RoundRect,0.050800X-1.345000X0.445000X-1.345000X-0.445000X1.345000X-0.445000X1.345000X0.445000X0*%
%ADD11RoundRect,0.050800X-1.345000X2.855000X-1.345000X-2.855000X1.345000X-2.855000X1.345000X2.855000X0*%
%ADD12RoundRect,0.050800X0.400000X1.400000X-0.400000X1.400000X-0.400000X-1.400000X0.400000X-1.400000X0*%
%ADD13FreePoly0,180.000000*%
%ADD14FreePoly1,180.000000*%
%ADD15C,4.064000*%
%ADD16O,1.524000X3.048000*%
%ADD17RoundRect,0.050800X0.600000X0.750000X-0.600000X0.750000X-0.600000X-0.750000X0.600000X-0.750000X0*%
%ADD18O,1.301600X1.601600*%
%ADD19RoundRect,0.050800X0.750000X-0.600000X0.750000X0.600000X-0.750000X0.600000X-0.750000X-0.600000X0*%
%ADD20O,1.601600X1.301600*%
%ADD21O,1.701600X1.701600*%
%ADD22RoundRect,0.050800X-0.700000X0.600000X-0.700000X-0.600000X0.700000X-0.600000X0.700000X0.600000X0*%
%ADD23O,1.501600X1.301600*%
%ADD24C,0.550000*%
%ADD25RoundRect,0.050800X-0.950000X-1.188000X0.950000X-1.188000X0.950000X1.188000X-0.950000X1.188000X0*%
%ADD26RoundRect,0.050800X1.188000X-0.950000X1.188000X0.950000X-1.188000X0.950000X-1.188000X-0.950000X0*%
%ADD27RoundRect,0.050800X2.700000X-1.005000X2.700000X1.005000X-2.700000X1.005000X-2.700000X-1.005000X0*%
%ADD28RoundRect,0.050800X0.400000X0.400000X-0.400000X0.400000X-0.400000X-0.400000X0.400000X-0.400000X0*%
%ADD29R,4.000000X5.000000*%
%ADD30RoundRect,0.050800X0.475000X0.575000X-0.475000X0.575000X-0.475000X-0.575000X0.475000X-0.575000X0*%
%ADD31RoundRect,0.050800X-0.450000X0.400000X-0.450000X-0.400000X0.450000X-0.400000X0.450000X0.400000X0*%
%ADD32RoundRect,0.050800X-0.035355X0.601041X-0.601041X0.035355X0.035355X-0.601041X0.601041X-0.035355X0*%
%ADD33RoundRect,0.050800X0.450000X-0.400000X0.450000X0.400000X-0.450000X0.400000X-0.450000X-0.400000X0*%
%ADD34RoundRect,0.050800X-0.742500X-0.864000X0.742500X-0.864000X0.742500X0.864000X-0.742500X0.864000X0*%
%ADD35RoundRect,0.050800X-0.400000X-0.450000X0.400000X-0.450000X0.400000X0.450000X-0.400000X0.450000X0*%
%ADD36RoundRect,0.050800X0.400000X0.450000X-0.400000X0.450000X-0.400000X-0.450000X0.400000X-0.450000X0*%
%ADD37RoundRect,0.050800X-0.432000X0.403250X-0.432000X-0.403250X0.432000X-0.403250X0.432000X0.403250X0*%
%ADD38RoundRect,0.050800X0.432000X-0.403250X0.432000X0.403250X-0.432000X0.403250X-0.432000X-0.403250X0*%
%ADD39RoundRect,0.050800X-0.403250X-0.432000X0.403250X-0.432000X0.403250X0.432000X-0.403250X0.432000X0*%
%ADD40RoundRect,0.050800X0.403250X0.432000X-0.403250X0.432000X-0.403250X-0.432000X0.403250X-0.432000X0*%
%ADD41RoundRect,0.050800X1.232500X0.525000X-1.232500X0.525000X-1.232500X-0.525000X1.232500X-0.525000X0*%
%ADD42RoundRect,0.050800X1.232500X1.770000X-1.232500X1.770000X-1.232500X-1.770000X1.232500X-1.770000X0*%
%ADD43R,2.100000X1.800000*%
%ADD44RoundRect,0.050800X-0.800000X-0.600000X0.800000X-0.600000X0.800000X0.600000X-0.800000X0.600000X0*%
G04 APERTURE END LIST*
D10*
%TO.C,R53*%
X102435100Y-109965000D03*
X107364900Y-109965000D03*
D11*
X102435100Y-105775000D03*
X107364900Y-105775000D03*
%TD*%
D10*
%TO.C,R54*%
X88135100Y-109465000D03*
X93064900Y-109465000D03*
D11*
X88135100Y-105275000D03*
X93064900Y-105275000D03*
%TD*%
D12*
%TO.C,Q4*%
X102009000Y-99654700D03*
D13*
X97214000Y-99655000D03*
D14*
X97800000Y-91800000D03*
%TD*%
D12*
%TO.C,Q2*%
X114830700Y-99654700D03*
D13*
X110035700Y-99655000D03*
D14*
X110621700Y-91800000D03*
%TD*%
D12*
%TO.C,Q6*%
X89109000Y-99654700D03*
D13*
X84314000Y-99655000D03*
D14*
X84900000Y-91800000D03*
%TD*%
D15*
%TO.C,1PIN*%
X92000000Y-83000000D03*
%TD*%
%TO.C,1PIN*%
X103500000Y-83000000D03*
%TD*%
D16*
%TO.C,K1*%
X108712000Y-136398000D03*
X111252000Y-136398000D03*
X113792000Y-136398000D03*
%TD*%
D17*
%TO.C,P1*%
X82100000Y-137200000D03*
D18*
X84100000Y-137200000D03*
X86100000Y-137200000D03*
X88100000Y-137200000D03*
X90100000Y-137200000D03*
X92100000Y-137200000D03*
%TD*%
D19*
%TO.C,P2*%
X114300000Y-122300000D03*
D20*
X114300000Y-124300000D03*
X114300000Y-126300000D03*
X114300000Y-128300000D03*
X114300000Y-130300000D03*
X114300000Y-132300000D03*
%TD*%
D21*
%TO.C,P101*%
X80450000Y-119726000D03*
X80450000Y-117726000D03*
X80450000Y-115726000D03*
X80450000Y-113726000D03*
%TD*%
D15*
%TO.C,1PIN*%
X114853396Y-142000000D03*
%TD*%
%TO.C,1PIN*%
X79600000Y-142000000D03*
%TD*%
D22*
%TO.C,P3*%
X114300000Y-118014000D03*
D23*
X114300000Y-116014000D03*
X114300000Y-114014000D03*
X114300000Y-112014000D03*
X114300000Y-110014000D03*
X114300000Y-108014000D03*
X114300000Y-106014000D03*
%TD*%
D24*
%TO.C,U4*%
X79804600Y-125495900D03*
X79804600Y-129495900D03*
%TD*%
D25*
%TO.C,C25*%
X81698600Y-124100000D03*
X77901400Y-124100000D03*
%TD*%
D26*
%TO.C,C33*%
X83000000Y-116401400D03*
X83000000Y-120198600D03*
%TD*%
D27*
%TO.C,C51*%
X110490000Y-120436100D03*
X110490000Y-115275900D03*
%TD*%
D28*
%TO.C,D1*%
X111887000Y-123990100D03*
X111887000Y-122389900D03*
%TD*%
%TO.C,D2*%
X110450000Y-124000100D03*
X110450000Y-122399900D03*
%TD*%
%TO.C,D3*%
X109050000Y-124000100D03*
X109050000Y-122399900D03*
%TD*%
D29*
%TO.C,P4*%
X81661000Y-108077000D03*
%TD*%
%TO.C,P5*%
X97536000Y-105664000D03*
%TD*%
D30*
%TO.C,D5*%
X112055400Y-133096000D03*
X108670600Y-133096000D03*
%TD*%
D31*
%TO.C,C2*%
X83700000Y-126400000D03*
X83700000Y-127800000D03*
%TD*%
D32*
%TO.C,C3*%
X112508975Y-128791025D03*
X111519025Y-129780975D03*
%TD*%
D31*
%TO.C,C4*%
X81788000Y-133666000D03*
X81788000Y-135066000D03*
%TD*%
D33*
%TO.C,C5*%
X92500000Y-132526000D03*
X92500000Y-131126000D03*
%TD*%
%TO.C,C6*%
X91100000Y-132500000D03*
X91100000Y-131100000D03*
%TD*%
%TO.C,C7*%
X86350000Y-132500000D03*
X86350000Y-131100000D03*
%TD*%
D34*
%TO.C,C9*%
X102607400Y-116300000D03*
X105792600Y-116300000D03*
%TD*%
D31*
%TO.C,C14*%
X96012000Y-124141000D03*
X96012000Y-125541000D03*
%TD*%
D35*
%TO.C,C15*%
X96836000Y-130810000D03*
X98236000Y-130810000D03*
%TD*%
D33*
%TO.C,C16*%
X107600000Y-126700000D03*
X107600000Y-125300000D03*
%TD*%
%TO.C,C17*%
X97663000Y-125541000D03*
X97663000Y-124141000D03*
%TD*%
D35*
%TO.C,C18*%
X100265000Y-121285000D03*
X101665000Y-121285000D03*
%TD*%
D33*
%TO.C,C20*%
X105918000Y-123509000D03*
X105918000Y-122109000D03*
%TD*%
%TO.C,C24*%
X85090000Y-123636000D03*
X85090000Y-122236000D03*
%TD*%
D35*
%TO.C,C31*%
X103313000Y-133858000D03*
X104713000Y-133858000D03*
%TD*%
D36*
%TO.C,C32*%
X95188000Y-135763000D03*
X93788000Y-135763000D03*
%TD*%
%TO.C,C38*%
X101030000Y-130810000D03*
X99630000Y-130810000D03*
%TD*%
D34*
%TO.C,C40*%
X105595400Y-111760000D03*
X108780600Y-111760000D03*
%TD*%
%TO.C,C43*%
X92387400Y-112268000D03*
X95572600Y-112268000D03*
%TD*%
%TO.C,C44*%
X94546400Y-116205000D03*
X97731600Y-116205000D03*
%TD*%
%TO.C,C49*%
X94546400Y-118618000D03*
X97731600Y-118618000D03*
%TD*%
D33*
%TO.C,C52*%
X107442000Y-123509000D03*
X107442000Y-122109000D03*
%TD*%
D37*
%TO.C,R3*%
X85200000Y-125346600D03*
X85200000Y-126853400D03*
%TD*%
D38*
%TO.C,R4*%
X85200000Y-129753400D03*
X85200000Y-128246600D03*
%TD*%
D37*
%TO.C,R5*%
X106426000Y-131580600D03*
X106426000Y-133087400D03*
%TD*%
D38*
%TO.C,R7*%
X83312000Y-135119400D03*
X83312000Y-133612600D03*
%TD*%
%TO.C,R8*%
X86360000Y-135119400D03*
X86360000Y-133612600D03*
%TD*%
%TO.C,R9*%
X89408000Y-135119400D03*
X89408000Y-133612600D03*
%TD*%
%TO.C,R10*%
X92456000Y-135119400D03*
X92456000Y-133612600D03*
%TD*%
%TO.C,R11*%
X90932000Y-135119400D03*
X90932000Y-133612600D03*
%TD*%
%TO.C,R12*%
X87884000Y-135119400D03*
X87884000Y-133612600D03*
%TD*%
%TO.C,R13*%
X84836000Y-135119400D03*
X84836000Y-133612600D03*
%TD*%
D39*
%TO.C,R21*%
X93480600Y-121666000D03*
X94987400Y-121666000D03*
%TD*%
D37*
%TO.C,R22*%
X109100000Y-125246600D03*
X109100000Y-126753400D03*
%TD*%
D39*
%TO.C,R23*%
X87511600Y-128524000D03*
X89018400Y-128524000D03*
%TD*%
D40*
%TO.C,R24*%
X93453400Y-128050000D03*
X91946600Y-128050000D03*
%TD*%
D39*
%TO.C,R26*%
X87511600Y-127000000D03*
X89018400Y-127000000D03*
%TD*%
D40*
%TO.C,R27*%
X93453400Y-126550000D03*
X91946600Y-126550000D03*
%TD*%
%TO.C,R29*%
X114799400Y-103124000D03*
X113292600Y-103124000D03*
%TD*%
D38*
%TO.C,R30*%
X104394000Y-96892400D03*
X104394000Y-95385600D03*
%TD*%
D39*
%TO.C,R32*%
X87496600Y-125450000D03*
X89003400Y-125450000D03*
%TD*%
D40*
%TO.C,R33*%
X93453400Y-125050000D03*
X91946600Y-125050000D03*
%TD*%
D37*
%TO.C,R35*%
X104394000Y-100592600D03*
X104394000Y-102099400D03*
%TD*%
%TO.C,R36*%
X104394000Y-98052600D03*
X104394000Y-99559400D03*
%TD*%
%TO.C,R37*%
X112100000Y-125246600D03*
X112100000Y-126753400D03*
%TD*%
%TO.C,R38*%
X110600000Y-125246600D03*
X110600000Y-126753400D03*
%TD*%
%TO.C,R43*%
X91186000Y-100084600D03*
X91186000Y-101591400D03*
%TD*%
%TO.C,R46*%
X91186000Y-97290600D03*
X91186000Y-98797400D03*
%TD*%
D40*
%TO.C,R402*%
X83303400Y-132200000D03*
X81796600Y-132200000D03*
%TD*%
D41*
%TO.C,U2*%
X86042500Y-120664000D03*
X86042500Y-118364000D03*
X86042500Y-116064000D03*
D42*
X91757500Y-118364000D03*
%TD*%
D35*
%TO.C,C26*%
X100265000Y-119888000D03*
X101665000Y-119888000D03*
%TD*%
D43*
%TO.C,D4*%
X89395000Y-113030000D03*
X84595000Y-113030000D03*
%TD*%
D44*
%TO.C,X2*%
X96933000Y-132200100D03*
X100933000Y-132200100D03*
X100933000Y-134599900D03*
X96933000Y-134599900D03*
%TD*%
G36*
X87572121Y-98826002D02*
G01*
X87618614Y-98879658D01*
X87630000Y-98932000D01*
X87630000Y-105538000D01*
X87609998Y-105606121D01*
X87556342Y-105652614D01*
X87504000Y-105664000D01*
X85904190Y-105664000D01*
X85836069Y-105643998D01*
X85815095Y-105627095D01*
X83566001Y-103378000D01*
X80390000Y-103378000D01*
X80321879Y-103357998D01*
X80275386Y-103304342D01*
X80264000Y-103252000D01*
X80264000Y-98932000D01*
X80284002Y-98863879D01*
X80337658Y-98817386D01*
X80390000Y-98806000D01*
X87504000Y-98806000D01*
X87572121Y-98826002D01*
G37*
G36*
X112283931Y-97556002D02*
G01*
X112304905Y-97572905D01*
X113247095Y-98515095D01*
X113281121Y-98577407D01*
X113284000Y-98604190D01*
X113284000Y-101801810D01*
X113263998Y-101869931D01*
X113247095Y-101890905D01*
X109256905Y-105881095D01*
X109194593Y-105915121D01*
X109167810Y-105918000D01*
X106679000Y-105918000D01*
X106610879Y-105897998D01*
X106564386Y-105844342D01*
X106553000Y-105792000D01*
X106553000Y-98477190D01*
X106573002Y-98409069D01*
X106589905Y-98388095D01*
X107405095Y-97572905D01*
X107467407Y-97538879D01*
X107494190Y-97536000D01*
X112215810Y-97536000D01*
X112283931Y-97556002D01*
G37*
G36*
X100653121Y-101239002D02*
G01*
X100699614Y-101292658D01*
X100711000Y-101345000D01*
X100711000Y-102870000D01*
X101093000Y-102870000D01*
X101161121Y-102890002D01*
X101207614Y-102943658D01*
X101219000Y-102996000D01*
X101219000Y-107951000D01*
X101198998Y-108019121D01*
X101145342Y-108065614D01*
X101093000Y-108077000D01*
X93979000Y-108077000D01*
X93910879Y-108056998D01*
X93864386Y-108003342D01*
X93853000Y-107951000D01*
X93853000Y-101345000D01*
X93873002Y-101276879D01*
X93926658Y-101230386D01*
X93979000Y-101219000D01*
X100585000Y-101219000D01*
X100653121Y-101239002D01*
G37*
M02*
