%TF.GenerationSoftware,KiCad,Pcbnew,9.0.2*%
%TF.CreationDate,2026-05-18T19:02:33+07:00*%
%TF.ProjectId,after-remap,61667465-722d-4726-956d-61702e6b6963,A*%
%TF.SameCoordinates,Original*%
%TF.FileFunction,Legend,Top*%
%TF.FilePolarity,Positive*%
%FSLAX46Y46*%
G04 Gerber Fmt 4.6, Leading zero omitted, Abs format (unit mm)*
G04 Created by KiCad (PCBNEW 9.0.2) date 2026-05-18 19:02:33*
%MOMM*%
%LPD*%
G01*
G04 APERTURE LIST*
G04 Aperture macros list*
%AMRoundRect*
0 Rectangle with rounded corners*
0 $1 Rounding radius*
0 $2 $3 $4 $5 $6 $7 $8 $9 X,Y pos of 4 corners*
0 Add a 4 corners polygon primitive as box body*
4,1,4,$2,$3,$4,$5,$6,$7,$8,$9,$2,$3,0*
0 Add four circle primitives for the rounded corners*
1,1,$1+$1,$2,$3*
1,1,$1+$1,$4,$5*
1,1,$1+$1,$6,$7*
1,1,$1+$1,$8,$9*
0 Add four rect primitives between the rounded corners*
20,1,$1+$1,$2,$3,$4,$5,0*
20,1,$1+$1,$4,$5,$6,$7,0*
20,1,$1+$1,$6,$7,$8,$9,0*
20,1,$1+$1,$8,$9,$2,$3,0*%
%AMRotRect*
0 Rectangle, with rotation*
0 The origin of the aperture is its center*
0 $1 length*
0 $2 width*
0 $3 Rotation angle, in degrees counterclockwise*
0 Add horizontal line*
21,1,$1,$2,0,0,$3*%
%AMFreePoly0*
4,1,62,4.040275,1.440280,4.054920,1.404925,4.054920,-1.405077,4.040275,-1.440432,4.004920,-1.455077,3.204921,-1.455077,3.169566,-1.440432,3.154921,-1.405077,3.154921,0.544919,2.854922,0.544919,2.854922,-1.405077,2.840277,-1.440432,2.804922,-1.455077,2.004924,-1.455077,1.969569,-1.440432,1.954924,-1.405077,1.954924,0.544893,1.654924,0.544893,1.654924,-1.405077,1.640279,-1.440432,
1.604924,-1.455077,0.804926,-1.455077,0.769571,-1.440432,0.754926,-1.405077,0.754926,0.544893,0.454927,0.544893,0.454927,-1.405077,0.440282,-1.440432,0.404927,-1.455077,-0.395072,-1.455077,-0.430427,-1.440432,-0.445072,-1.405077,-0.445072,0.544893,-0.745071,0.544893,-0.745071,-1.405077,-0.759716,-1.440432,-0.795071,-1.455077,-1.595069,-1.455077,-1.630424,-1.440432,-1.645069,-1.405077,
-1.645069,0.544893,-1.945068,0.544893,-1.945068,-1.405077,-1.959713,-1.440432,-1.995068,-1.455077,-2.795067,-1.455077,-2.830422,-1.440432,-2.845067,-1.405077,-2.845067,0.544893,-3.145066,0.544893,-3.145066,-1.405077,-3.159711,-1.440432,-3.194448,-1.455073,-4.004454,-1.465081,-4.039988,-1.450874,-4.055068,-1.415703,-4.055072,-1.415085,-4.055072,1.404925,-4.040427,1.440280,-4.005072,1.454925,
4.004920,1.454925,4.040275,1.440280,4.040275,1.440280,$1*%
%AMFreePoly1*
4,1,32,5.085281,4.035195,5.099926,3.999840,5.099926,2.599842,5.085281,2.564487,5.049926,2.549842,4.199928,2.549842,4.199928,-0.250152,4.849927,-0.250152,4.885282,-0.264797,4.899927,-0.300152,4.899927,-4.000144,4.885282,-4.035499,4.849927,-4.050144,-4.850054,-4.050144,-4.885409,-4.035499,-4.900054,-4.000144,-4.900054,-0.300152,-4.885409,-0.264797,-4.850054,-0.250152,-4.200055,-0.250152,
-4.200055,2.549842,-5.050053,2.549842,-5.085408,2.564487,-5.100053,2.599842,-5.100053,2.629679,-5.100130,2.629865,-5.100053,2.630050,-5.100053,3.999840,-5.085408,4.035195,-5.050053,4.049840,5.049926,4.049840,5.085281,4.035195,5.085281,4.035195,$1*%
G04 Aperture macros list end*
%ADD10C,0.150000*%
%ADD11C,0.250000*%
%ADD12C,0.381000*%
%ADD13C,0.060000*%
%ADD14C,0.152400*%
%ADD15C,0.066040*%
%ADD16C,0.254000*%
%ADD17C,0.127000*%
%ADD18C,0.119380*%
%ADD19C,0.400000*%
%ADD20C,0.152500*%
%ADD21C,0.000000*%
%ADD22O,1.524000X3.048000*%
%ADD23C,4.064000*%
%ADD24R,2.010000X5.400000*%
%ADD25RoundRect,0.050800X0.600000X0.750000X-0.600000X0.750000X-0.600000X-0.750000X0.600000X-0.750000X0*%
%ADD26O,1.301600X1.601600*%
%ADD27RoundRect,0.050800X0.750000X-0.600000X0.750000X0.600000X-0.750000X0.600000X-0.750000X-0.600000X0*%
%ADD28O,1.601600X1.301600*%
%ADD29R,5.000000X4.000000*%
%ADD30R,0.300000X1.300480*%
%ADD31R,1.300480X0.300000*%
%ADD32R,0.299720X1.501140*%
%ADD33R,7.000240X3.599180*%
%ADD34O,1.701600X1.701600*%
%ADD35R,1.485000X1.728000*%
%ADD36R,0.900000X0.800000*%
%ADD37RotRect,0.800000X0.900000X45.000000*%
%ADD38R,0.800000X0.900000*%
%ADD39R,0.635000X1.143000*%
%ADD40R,1.728000X1.485000*%
%ADD41R,0.806000X0.864000*%
%ADD42R,0.864000X0.806000*%
%ADD43R,1.399540X0.599440*%
%ADD44RoundRect,0.050800X-0.700000X0.600000X-0.700000X-0.600000X0.700000X-0.600000X0.700000X0.600000X0*%
%ADD45O,1.501600X1.301600*%
%ADD46R,2.200000X5.720000*%
%ADD47R,0.800000X2.800000*%
%ADD48FreePoly0,180.000000*%
%ADD49FreePoly1,180.000000*%
%ADD50R,1.800000X2.100000*%
%ADD51C,0.550000*%
%ADD52R,2.000000X0.400000*%
%ADD53R,1.000000X1.600000*%
%ADD54R,1.400000X2.000000*%
G04 APERTURE END LIST*
D10*
X110052247Y-131204856D02*
X110090342Y-131119142D01*
X110090342Y-131119142D02*
X110128438Y-131090571D01*
X110128438Y-131090571D02*
X110204628Y-131061999D01*
X110204628Y-131061999D02*
X110318914Y-131061999D01*
X110318914Y-131061999D02*
X110395104Y-131090571D01*
X110395104Y-131090571D02*
X110433200Y-131119142D01*
X110433200Y-131119142D02*
X110471295Y-131176285D01*
X110471295Y-131176285D02*
X110471295Y-131404856D01*
X110471295Y-131404856D02*
X109671295Y-131404856D01*
X109671295Y-131404856D02*
X109671295Y-131204856D01*
X109671295Y-131204856D02*
X109709390Y-131147714D01*
X109709390Y-131147714D02*
X109747485Y-131119142D01*
X109747485Y-131119142D02*
X109823676Y-131090571D01*
X109823676Y-131090571D02*
X109899866Y-131090571D01*
X109899866Y-131090571D02*
X109976057Y-131119142D01*
X109976057Y-131119142D02*
X110014152Y-131147714D01*
X110014152Y-131147714D02*
X110052247Y-131204856D01*
X110052247Y-131204856D02*
X110052247Y-131404856D01*
X110433200Y-130576285D02*
X110471295Y-130633428D01*
X110471295Y-130633428D02*
X110471295Y-130747714D01*
X110471295Y-130747714D02*
X110433200Y-130804856D01*
X110433200Y-130804856D02*
X110357009Y-130833428D01*
X110357009Y-130833428D02*
X110052247Y-130833428D01*
X110052247Y-130833428D02*
X109976057Y-130804856D01*
X109976057Y-130804856D02*
X109937961Y-130747714D01*
X109937961Y-130747714D02*
X109937961Y-130633428D01*
X109937961Y-130633428D02*
X109976057Y-130576285D01*
X109976057Y-130576285D02*
X110052247Y-130547714D01*
X110052247Y-130547714D02*
X110128438Y-130547714D01*
X110128438Y-130547714D02*
X110204628Y-130833428D01*
X109937961Y-130290570D02*
X110471295Y-130290570D01*
X110014152Y-130290570D02*
X109976057Y-130261999D01*
X109976057Y-130261999D02*
X109937961Y-130204856D01*
X109937961Y-130204856D02*
X109937961Y-130119142D01*
X109937961Y-130119142D02*
X109976057Y-130061999D01*
X109976057Y-130061999D02*
X110052247Y-130033428D01*
X110052247Y-130033428D02*
X110471295Y-130033428D01*
X109937961Y-129747713D02*
X110623676Y-129747713D01*
X110623676Y-129747713D02*
X110699866Y-129776285D01*
X110699866Y-129776285D02*
X110737961Y-129833428D01*
X110737961Y-129833428D02*
X110737961Y-129861999D01*
X109671295Y-129747713D02*
X109709390Y-129776285D01*
X109709390Y-129776285D02*
X109747485Y-129747713D01*
X109747485Y-129747713D02*
X109709390Y-129719142D01*
X109709390Y-129719142D02*
X109671295Y-129747713D01*
X109671295Y-129747713D02*
X109747485Y-129747713D01*
X110471295Y-129204857D02*
X110052247Y-129204857D01*
X110052247Y-129204857D02*
X109976057Y-129233428D01*
X109976057Y-129233428D02*
X109937961Y-129290571D01*
X109937961Y-129290571D02*
X109937961Y-129404857D01*
X109937961Y-129404857D02*
X109976057Y-129461999D01*
X110433200Y-129204857D02*
X110471295Y-129261999D01*
X110471295Y-129261999D02*
X110471295Y-129404857D01*
X110471295Y-129404857D02*
X110433200Y-129461999D01*
X110433200Y-129461999D02*
X110357009Y-129490571D01*
X110357009Y-129490571D02*
X110280819Y-129490571D01*
X110280819Y-129490571D02*
X110204628Y-129461999D01*
X110204628Y-129461999D02*
X110166533Y-129404857D01*
X110166533Y-129404857D02*
X110166533Y-129261999D01*
X110166533Y-129261999D02*
X110128438Y-129204857D01*
X110471295Y-128919142D02*
X109937961Y-128919142D01*
X110014152Y-128919142D02*
X109976057Y-128890571D01*
X109976057Y-128890571D02*
X109937961Y-128833428D01*
X109937961Y-128833428D02*
X109937961Y-128747714D01*
X109937961Y-128747714D02*
X109976057Y-128690571D01*
X109976057Y-128690571D02*
X110052247Y-128662000D01*
X110052247Y-128662000D02*
X110471295Y-128662000D01*
X110052247Y-128662000D02*
X109976057Y-128633428D01*
X109976057Y-128633428D02*
X109937961Y-128576285D01*
X109937961Y-128576285D02*
X109937961Y-128490571D01*
X109937961Y-128490571D02*
X109976057Y-128433428D01*
X109976057Y-128433428D02*
X110052247Y-128404857D01*
X110052247Y-128404857D02*
X110471295Y-128404857D01*
X110471295Y-128119142D02*
X109937961Y-128119142D01*
X109671295Y-128119142D02*
X109709390Y-128147714D01*
X109709390Y-128147714D02*
X109747485Y-128119142D01*
X109747485Y-128119142D02*
X109709390Y-128090571D01*
X109709390Y-128090571D02*
X109671295Y-128119142D01*
X109671295Y-128119142D02*
X109747485Y-128119142D01*
X109937961Y-127833428D02*
X110471295Y-127833428D01*
X110014152Y-127833428D02*
X109976057Y-127804857D01*
X109976057Y-127804857D02*
X109937961Y-127747714D01*
X109937961Y-127747714D02*
X109937961Y-127662000D01*
X109937961Y-127662000D02*
X109976057Y-127604857D01*
X109976057Y-127604857D02*
X110052247Y-127576286D01*
X110052247Y-127576286D02*
X110471295Y-127576286D01*
X109671295Y-126919143D02*
X110471295Y-126719143D01*
X110471295Y-126719143D02*
X109671295Y-126519143D01*
X110433200Y-126090571D02*
X110471295Y-126147714D01*
X110471295Y-126147714D02*
X110471295Y-126262000D01*
X110471295Y-126262000D02*
X110433200Y-126319142D01*
X110433200Y-126319142D02*
X110357009Y-126347714D01*
X110357009Y-126347714D02*
X110052247Y-126347714D01*
X110052247Y-126347714D02*
X109976057Y-126319142D01*
X109976057Y-126319142D02*
X109937961Y-126262000D01*
X109937961Y-126262000D02*
X109937961Y-126147714D01*
X109937961Y-126147714D02*
X109976057Y-126090571D01*
X109976057Y-126090571D02*
X110052247Y-126062000D01*
X110052247Y-126062000D02*
X110128438Y-126062000D01*
X110128438Y-126062000D02*
X110204628Y-126347714D01*
X110471295Y-125547714D02*
X109671295Y-125547714D01*
X110433200Y-125547714D02*
X110471295Y-125604856D01*
X110471295Y-125604856D02*
X110471295Y-125719142D01*
X110471295Y-125719142D02*
X110433200Y-125776285D01*
X110433200Y-125776285D02*
X110395104Y-125804856D01*
X110395104Y-125804856D02*
X110318914Y-125833428D01*
X110318914Y-125833428D02*
X110090342Y-125833428D01*
X110090342Y-125833428D02*
X110014152Y-125804856D01*
X110014152Y-125804856D02*
X109976057Y-125776285D01*
X109976057Y-125776285D02*
X109937961Y-125719142D01*
X109937961Y-125719142D02*
X109937961Y-125604856D01*
X109937961Y-125604856D02*
X109976057Y-125547714D01*
X110471295Y-125004857D02*
X109671295Y-125004857D01*
X110433200Y-125004857D02*
X110471295Y-125061999D01*
X110471295Y-125061999D02*
X110471295Y-125176285D01*
X110471295Y-125176285D02*
X110433200Y-125233428D01*
X110433200Y-125233428D02*
X110395104Y-125261999D01*
X110395104Y-125261999D02*
X110318914Y-125290571D01*
X110318914Y-125290571D02*
X110090342Y-125290571D01*
X110090342Y-125290571D02*
X110014152Y-125261999D01*
X110014152Y-125261999D02*
X109976057Y-125233428D01*
X109976057Y-125233428D02*
X109937961Y-125176285D01*
X109937961Y-125176285D02*
X109937961Y-125061999D01*
X109937961Y-125061999D02*
X109976057Y-125004857D01*
X110433200Y-124490571D02*
X110471295Y-124547714D01*
X110471295Y-124547714D02*
X110471295Y-124662000D01*
X110471295Y-124662000D02*
X110433200Y-124719142D01*
X110433200Y-124719142D02*
X110357009Y-124747714D01*
X110357009Y-124747714D02*
X110052247Y-124747714D01*
X110052247Y-124747714D02*
X109976057Y-124719142D01*
X109976057Y-124719142D02*
X109937961Y-124662000D01*
X109937961Y-124662000D02*
X109937961Y-124547714D01*
X109937961Y-124547714D02*
X109976057Y-124490571D01*
X109976057Y-124490571D02*
X110052247Y-124462000D01*
X110052247Y-124462000D02*
X110128438Y-124462000D01*
X110128438Y-124462000D02*
X110204628Y-124747714D01*
X110471295Y-124204856D02*
X109937961Y-124204856D01*
X110090342Y-124204856D02*
X110014152Y-124176285D01*
X110014152Y-124176285D02*
X109976057Y-124147714D01*
X109976057Y-124147714D02*
X109937961Y-124090571D01*
X109937961Y-124090571D02*
X109937961Y-124033428D01*
X84399609Y-120042857D02*
X84437704Y-119985715D01*
X84437704Y-119985715D02*
X84437704Y-119900000D01*
X84437704Y-119900000D02*
X84399609Y-119814286D01*
X84399609Y-119814286D02*
X84323419Y-119757143D01*
X84323419Y-119757143D02*
X84247228Y-119728572D01*
X84247228Y-119728572D02*
X84094847Y-119700000D01*
X84094847Y-119700000D02*
X83980561Y-119700000D01*
X83980561Y-119700000D02*
X83828180Y-119728572D01*
X83828180Y-119728572D02*
X83751990Y-119757143D01*
X83751990Y-119757143D02*
X83675800Y-119814286D01*
X83675800Y-119814286D02*
X83637704Y-119900000D01*
X83637704Y-119900000D02*
X83637704Y-119957143D01*
X83637704Y-119957143D02*
X83675800Y-120042857D01*
X83675800Y-120042857D02*
X83713895Y-120071429D01*
X83713895Y-120071429D02*
X83980561Y-120071429D01*
X83980561Y-120071429D02*
X83980561Y-119957143D01*
X83637704Y-120328572D02*
X84437704Y-120328572D01*
X84437704Y-120328572D02*
X83637704Y-120671429D01*
X83637704Y-120671429D02*
X84437704Y-120671429D01*
X83637704Y-120957143D02*
X84437704Y-120957143D01*
X84437704Y-120957143D02*
X84437704Y-121100000D01*
X84437704Y-121100000D02*
X84399609Y-121185714D01*
X84399609Y-121185714D02*
X84323419Y-121242857D01*
X84323419Y-121242857D02*
X84247228Y-121271428D01*
X84247228Y-121271428D02*
X84094847Y-121300000D01*
X84094847Y-121300000D02*
X83980561Y-121300000D01*
X83980561Y-121300000D02*
X83828180Y-121271428D01*
X83828180Y-121271428D02*
X83751990Y-121242857D01*
X83751990Y-121242857D02*
X83675800Y-121185714D01*
X83675800Y-121185714D02*
X83637704Y-121100000D01*
X83637704Y-121100000D02*
X83637704Y-120957143D01*
X114992857Y-138026390D02*
X114935715Y-137988295D01*
X114935715Y-137988295D02*
X114850000Y-137988295D01*
X114850000Y-137988295D02*
X114764286Y-138026390D01*
X114764286Y-138026390D02*
X114707143Y-138102580D01*
X114707143Y-138102580D02*
X114678572Y-138178771D01*
X114678572Y-138178771D02*
X114650000Y-138331152D01*
X114650000Y-138331152D02*
X114650000Y-138445438D01*
X114650000Y-138445438D02*
X114678572Y-138597819D01*
X114678572Y-138597819D02*
X114707143Y-138674009D01*
X114707143Y-138674009D02*
X114764286Y-138750200D01*
X114764286Y-138750200D02*
X114850000Y-138788295D01*
X114850000Y-138788295D02*
X114907143Y-138788295D01*
X114907143Y-138788295D02*
X114992857Y-138750200D01*
X114992857Y-138750200D02*
X115021429Y-138712104D01*
X115021429Y-138712104D02*
X115021429Y-138445438D01*
X115021429Y-138445438D02*
X114907143Y-138445438D01*
X115278572Y-138788295D02*
X115278572Y-137988295D01*
X115278572Y-137988295D02*
X115621429Y-138788295D01*
X115621429Y-138788295D02*
X115621429Y-137988295D01*
X115907143Y-138788295D02*
X115907143Y-137988295D01*
X115907143Y-137988295D02*
X116050000Y-137988295D01*
X116050000Y-137988295D02*
X116135714Y-138026390D01*
X116135714Y-138026390D02*
X116192857Y-138102580D01*
X116192857Y-138102580D02*
X116221428Y-138178771D01*
X116221428Y-138178771D02*
X116250000Y-138331152D01*
X116250000Y-138331152D02*
X116250000Y-138445438D01*
X116250000Y-138445438D02*
X116221428Y-138597819D01*
X116221428Y-138597819D02*
X116192857Y-138674009D01*
X116192857Y-138674009D02*
X116135714Y-138750200D01*
X116135714Y-138750200D02*
X116050000Y-138788295D01*
X116050000Y-138788295D02*
X115907143Y-138788295D01*
X84437704Y-113114285D02*
X84437704Y-112828571D01*
X84437704Y-112828571D02*
X84056752Y-112799999D01*
X84056752Y-112799999D02*
X84094847Y-112828571D01*
X84094847Y-112828571D02*
X84132942Y-112885714D01*
X84132942Y-112885714D02*
X84132942Y-113028571D01*
X84132942Y-113028571D02*
X84094847Y-113085714D01*
X84094847Y-113085714D02*
X84056752Y-113114285D01*
X84056752Y-113114285D02*
X83980561Y-113142856D01*
X83980561Y-113142856D02*
X83790085Y-113142856D01*
X83790085Y-113142856D02*
X83713895Y-113114285D01*
X83713895Y-113114285D02*
X83675800Y-113085714D01*
X83675800Y-113085714D02*
X83637704Y-113028571D01*
X83637704Y-113028571D02*
X83637704Y-112885714D01*
X83637704Y-112885714D02*
X83675800Y-112828571D01*
X83675800Y-112828571D02*
X83713895Y-112799999D01*
X84171038Y-113342857D02*
X83637704Y-113485714D01*
X83637704Y-113485714D02*
X84171038Y-113628571D01*
X108147295Y-133984715D02*
X108947295Y-133784715D01*
X108947295Y-133784715D02*
X108147295Y-133584715D01*
X108528247Y-133384714D02*
X108528247Y-133184714D01*
X108947295Y-133099000D02*
X108947295Y-133384714D01*
X108947295Y-133384714D02*
X108147295Y-133384714D01*
X108147295Y-133384714D02*
X108147295Y-133099000D01*
X108909200Y-132870429D02*
X108947295Y-132784715D01*
X108947295Y-132784715D02*
X108947295Y-132641857D01*
X108947295Y-132641857D02*
X108909200Y-132584715D01*
X108909200Y-132584715D02*
X108871104Y-132556143D01*
X108871104Y-132556143D02*
X108794914Y-132527572D01*
X108794914Y-132527572D02*
X108718723Y-132527572D01*
X108718723Y-132527572D02*
X108642533Y-132556143D01*
X108642533Y-132556143D02*
X108604438Y-132584715D01*
X108604438Y-132584715D02*
X108566342Y-132641857D01*
X108566342Y-132641857D02*
X108528247Y-132756143D01*
X108528247Y-132756143D02*
X108490152Y-132813286D01*
X108490152Y-132813286D02*
X108452057Y-132841857D01*
X108452057Y-132841857D02*
X108375866Y-132870429D01*
X108375866Y-132870429D02*
X108299676Y-132870429D01*
X108299676Y-132870429D02*
X108223485Y-132841857D01*
X108223485Y-132841857D02*
X108185390Y-132813286D01*
X108185390Y-132813286D02*
X108147295Y-132756143D01*
X108147295Y-132756143D02*
X108147295Y-132613286D01*
X108147295Y-132613286D02*
X108185390Y-132527572D01*
X108871104Y-131927571D02*
X108909200Y-131956143D01*
X108909200Y-131956143D02*
X108947295Y-132041857D01*
X108947295Y-132041857D02*
X108947295Y-132099000D01*
X108947295Y-132099000D02*
X108909200Y-132184714D01*
X108909200Y-132184714D02*
X108833009Y-132241857D01*
X108833009Y-132241857D02*
X108756819Y-132270428D01*
X108756819Y-132270428D02*
X108604438Y-132299000D01*
X108604438Y-132299000D02*
X108490152Y-132299000D01*
X108490152Y-132299000D02*
X108337771Y-132270428D01*
X108337771Y-132270428D02*
X108261580Y-132241857D01*
X108261580Y-132241857D02*
X108185390Y-132184714D01*
X108185390Y-132184714D02*
X108147295Y-132099000D01*
X108147295Y-132099000D02*
X108147295Y-132041857D01*
X108147295Y-132041857D02*
X108185390Y-131956143D01*
X108185390Y-131956143D02*
X108223485Y-131927571D01*
X108413961Y-130956143D02*
X108947295Y-130956143D01*
X108109200Y-131099000D02*
X108680628Y-131241857D01*
X108680628Y-131241857D02*
X108680628Y-130870428D01*
X108871104Y-130641856D02*
X108909200Y-130613285D01*
X108909200Y-130613285D02*
X108947295Y-130641856D01*
X108947295Y-130641856D02*
X108909200Y-130670428D01*
X108909200Y-130670428D02*
X108871104Y-130641856D01*
X108871104Y-130641856D02*
X108947295Y-130641856D01*
X108947295Y-130041857D02*
X108947295Y-130384714D01*
X108947295Y-130213285D02*
X108147295Y-130213285D01*
X108147295Y-130213285D02*
X108261580Y-130270428D01*
X108261580Y-130270428D02*
X108337771Y-130327571D01*
X108337771Y-130327571D02*
X108375866Y-130384714D01*
X108223485Y-129813285D02*
X108185390Y-129784713D01*
X108185390Y-129784713D02*
X108147295Y-129727571D01*
X108147295Y-129727571D02*
X108147295Y-129584713D01*
X108147295Y-129584713D02*
X108185390Y-129527571D01*
X108185390Y-129527571D02*
X108223485Y-129498999D01*
X108223485Y-129498999D02*
X108299676Y-129470428D01*
X108299676Y-129470428D02*
X108375866Y-129470428D01*
X108375866Y-129470428D02*
X108490152Y-129498999D01*
X108490152Y-129498999D02*
X108947295Y-129841856D01*
X108947295Y-129841856D02*
X108947295Y-129470428D01*
D11*
X77383000Y-80854949D02*
X77335380Y-80997806D01*
X77335380Y-80997806D02*
X77335380Y-81235901D01*
X77335380Y-81235901D02*
X77383000Y-81331139D01*
X77383000Y-81331139D02*
X77430619Y-81378758D01*
X77430619Y-81378758D02*
X77525857Y-81426377D01*
X77525857Y-81426377D02*
X77621095Y-81426377D01*
X77621095Y-81426377D02*
X77716333Y-81378758D01*
X77716333Y-81378758D02*
X77763952Y-81331139D01*
X77763952Y-81331139D02*
X77811571Y-81235901D01*
X77811571Y-81235901D02*
X77859190Y-81045425D01*
X77859190Y-81045425D02*
X77906809Y-80950187D01*
X77906809Y-80950187D02*
X77954428Y-80902568D01*
X77954428Y-80902568D02*
X78049666Y-80854949D01*
X78049666Y-80854949D02*
X78144904Y-80854949D01*
X78144904Y-80854949D02*
X78240142Y-80902568D01*
X78240142Y-80902568D02*
X78287761Y-80950187D01*
X78287761Y-80950187D02*
X78335380Y-81045425D01*
X78335380Y-81045425D02*
X78335380Y-81283520D01*
X78335380Y-81283520D02*
X78287761Y-81426377D01*
X77859190Y-81854949D02*
X77859190Y-82188282D01*
X77335380Y-82331139D02*
X77335380Y-81854949D01*
X77335380Y-81854949D02*
X78335380Y-81854949D01*
X78335380Y-81854949D02*
X78335380Y-82331139D01*
X77335380Y-82759711D02*
X78335380Y-82759711D01*
X78335380Y-82759711D02*
X77621095Y-83093044D01*
X77621095Y-83093044D02*
X78335380Y-83426377D01*
X78335380Y-83426377D02*
X77335380Y-83426377D01*
D10*
X83713895Y-114700000D02*
X83675800Y-114671428D01*
X83675800Y-114671428D02*
X83637704Y-114585714D01*
X83637704Y-114585714D02*
X83637704Y-114528571D01*
X83637704Y-114528571D02*
X83675800Y-114442857D01*
X83675800Y-114442857D02*
X83751990Y-114385714D01*
X83751990Y-114385714D02*
X83828180Y-114357143D01*
X83828180Y-114357143D02*
X83980561Y-114328571D01*
X83980561Y-114328571D02*
X84094847Y-114328571D01*
X84094847Y-114328571D02*
X84247228Y-114357143D01*
X84247228Y-114357143D02*
X84323419Y-114385714D01*
X84323419Y-114385714D02*
X84399609Y-114442857D01*
X84399609Y-114442857D02*
X84437704Y-114528571D01*
X84437704Y-114528571D02*
X84437704Y-114585714D01*
X84437704Y-114585714D02*
X84399609Y-114671428D01*
X84399609Y-114671428D02*
X84361514Y-114700000D01*
X83866276Y-114928571D02*
X83866276Y-115214286D01*
X83637704Y-114871428D02*
X84437704Y-115071428D01*
X84437704Y-115071428D02*
X83637704Y-115271428D01*
X83637704Y-115471429D02*
X84437704Y-115471429D01*
X84437704Y-115471429D02*
X83637704Y-115814286D01*
X83637704Y-115814286D02*
X84437704Y-115814286D01*
X83637704Y-116100000D02*
X84437704Y-116100000D01*
X84056752Y-116100000D02*
X84056752Y-116442857D01*
X83637704Y-116442857D02*
X84437704Y-116442857D01*
X83713895Y-117571429D02*
X83675800Y-117542857D01*
X83675800Y-117542857D02*
X83637704Y-117457143D01*
X83637704Y-117457143D02*
X83637704Y-117400000D01*
X83637704Y-117400000D02*
X83675800Y-117314286D01*
X83675800Y-117314286D02*
X83751990Y-117257143D01*
X83751990Y-117257143D02*
X83828180Y-117228572D01*
X83828180Y-117228572D02*
X83980561Y-117200000D01*
X83980561Y-117200000D02*
X84094847Y-117200000D01*
X84094847Y-117200000D02*
X84247228Y-117228572D01*
X84247228Y-117228572D02*
X84323419Y-117257143D01*
X84323419Y-117257143D02*
X84399609Y-117314286D01*
X84399609Y-117314286D02*
X84437704Y-117400000D01*
X84437704Y-117400000D02*
X84437704Y-117457143D01*
X84437704Y-117457143D02*
X84399609Y-117542857D01*
X84399609Y-117542857D02*
X84361514Y-117571429D01*
X83866276Y-117800000D02*
X83866276Y-118085715D01*
X83637704Y-117742857D02*
X84437704Y-117942857D01*
X84437704Y-117942857D02*
X83637704Y-118142857D01*
X83637704Y-118342858D02*
X84437704Y-118342858D01*
X84437704Y-118342858D02*
X83637704Y-118685715D01*
X83637704Y-118685715D02*
X84437704Y-118685715D01*
X83637704Y-119257143D02*
X83637704Y-118971429D01*
X83637704Y-118971429D02*
X84437704Y-118971429D01*
X92212999Y-87396930D02*
X92212999Y-87158835D01*
X92451094Y-87254073D02*
X92212999Y-87158835D01*
X92212999Y-87158835D02*
X91974904Y-87254073D01*
X92355856Y-86968359D02*
X92212999Y-87158835D01*
X92212999Y-87158835D02*
X92070142Y-86968359D01*
X117913000Y-86306569D02*
X117913000Y-86544664D01*
X117674905Y-86449426D02*
X117913000Y-86544664D01*
X117913000Y-86544664D02*
X118151095Y-86449426D01*
X117770143Y-86735140D02*
X117913000Y-86544664D01*
X117913000Y-86544664D02*
X118055857Y-86735140D01*
X105113000Y-86306569D02*
X105113000Y-86544664D01*
X104874905Y-86449426D02*
X105113000Y-86544664D01*
X105113000Y-86544664D02*
X105351095Y-86449426D01*
X104970143Y-86735140D02*
X105113000Y-86544664D01*
X105113000Y-86544664D02*
X105255857Y-86735140D01*
D12*
%TO.C,1PIN*%
X94286000Y-83000000D02*
G75*
G02*
X89714000Y-83000000I-2286000J0D01*
G01*
X89714000Y-83000000D02*
G75*
G02*
X94286000Y-83000000I2286000J0D01*
G01*
X105786000Y-83000000D02*
G75*
G02*
X101214000Y-83000000I-2286000J0D01*
G01*
X101214000Y-83000000D02*
G75*
G02*
X105786000Y-83000000I2286000J0D01*
G01*
D10*
%TO.C,C37*%
X86995000Y-103138000D02*
X86995000Y-108698000D01*
X87145000Y-108848000D02*
X89155000Y-108848000D01*
X89155000Y-102988000D02*
X87145000Y-102988000D01*
X92455000Y-102988000D02*
X94465000Y-102988000D01*
X94465000Y-108848000D02*
X92455000Y-108848000D01*
X94615000Y-103138000D02*
X94615000Y-108698000D01*
X86995000Y-103138000D02*
G75*
G02*
X87145000Y-102988000I150000J0D01*
G01*
X87145000Y-108848000D02*
G75*
G02*
X86995000Y-108698000I0J150000D01*
G01*
X94465000Y-102988000D02*
G75*
G02*
X94615000Y-103138000I0J-150000D01*
G01*
X94615000Y-108698000D02*
G75*
G02*
X94465000Y-108848000I-150000J0D01*
G01*
D13*
X93685000Y-103418000D02*
G75*
G02*
X93625000Y-103418000I-30000J0D01*
G01*
X93625000Y-103418000D02*
G75*
G02*
X93685000Y-103418000I30000J0D01*
G01*
D14*
%TO.C,K1*%
X107442000Y-135763000D02*
X107442000Y-137033000D01*
X107442000Y-137033000D02*
X108077000Y-137668000D01*
X108077000Y-135128000D02*
X107442000Y-135763000D01*
X108077000Y-135128000D02*
X109347000Y-135128000D01*
D15*
X108458000Y-136144000D02*
X108966000Y-136144000D01*
X108458000Y-136652000D02*
X108458000Y-136144000D01*
X108458000Y-136652000D02*
X108966000Y-136652000D01*
X108966000Y-136652000D02*
X108966000Y-136144000D01*
D14*
X109347000Y-135128000D02*
X109982000Y-135763000D01*
X109347000Y-137668000D02*
X108077000Y-137668000D01*
X109982000Y-135763000D02*
X109982000Y-137033000D01*
X109982000Y-135763000D02*
X110617000Y-135128000D01*
X109982000Y-137033000D02*
X109347000Y-137668000D01*
X110617000Y-135128000D02*
X111887000Y-135128000D01*
X110617000Y-137668000D02*
X109982000Y-137033000D01*
D15*
X110998000Y-136144000D02*
X111506000Y-136144000D01*
X110998000Y-136652000D02*
X110998000Y-136144000D01*
X110998000Y-136652000D02*
X111506000Y-136652000D01*
X111506000Y-136652000D02*
X111506000Y-136144000D01*
D14*
X111887000Y-135128000D02*
X112522000Y-135763000D01*
X111887000Y-137668000D02*
X110617000Y-137668000D01*
X112522000Y-135763000D02*
X112522000Y-137033000D01*
X112522000Y-135763000D02*
X113157000Y-135128000D01*
X112522000Y-137033000D02*
X111887000Y-137668000D01*
X113157000Y-135128000D02*
X114427000Y-135128000D01*
X113157000Y-137668000D02*
X112522000Y-137033000D01*
D15*
X113538000Y-136144000D02*
X114046000Y-136144000D01*
X113538000Y-136652000D02*
X113538000Y-136144000D01*
X113538000Y-136652000D02*
X114046000Y-136652000D01*
X114046000Y-136652000D02*
X114046000Y-136144000D01*
D14*
X114427000Y-135128000D02*
X115062000Y-135763000D01*
X114427000Y-137668000D02*
X113157000Y-137668000D01*
X115062000Y-135763000D02*
X115062000Y-137033000D01*
X115062000Y-137033000D02*
X114427000Y-137668000D01*
%TO.C,P1*%
D16*
X80100000Y-134399900D02*
X94100000Y-134399900D01*
X94100000Y-138900000D01*
X80100000Y-138900000D01*
X80100000Y-134399900D01*
X93745200Y-138216000D02*
G75*
G02*
X93026800Y-138216000I-359200J0D01*
G01*
X93026800Y-138216000D02*
G75*
G02*
X93745200Y-138216000I359200J0D01*
G01*
%TO.C,P2*%
X117100100Y-120300000D02*
X112600000Y-120300000D01*
X112600000Y-134300000D01*
X117100100Y-134300000D01*
X117100100Y-120300000D01*
X113643200Y-133586000D02*
G75*
G02*
X112924800Y-133586000I-359200J0D01*
G01*
X112924800Y-133586000D02*
G75*
G02*
X113643200Y-133586000I359200J0D01*
G01*
D10*
%TO.C,P6*%
X82290000Y-80504000D02*
X87890000Y-80504000D01*
X82290000Y-85104000D02*
X82290000Y-80504000D01*
X87890000Y-80504000D02*
X87890000Y-85104000D01*
X87890000Y-85104000D02*
X82290000Y-85104000D01*
%TO.C,P9*%
X106674000Y-80504000D02*
X112274000Y-80504000D01*
X106674000Y-85104000D02*
X106674000Y-80504000D01*
X112274000Y-80504000D02*
X112274000Y-85104000D01*
X112274000Y-85104000D02*
X106674000Y-85104000D01*
D17*
%TO.C,U1*%
X95834200Y-126568200D02*
X96342200Y-126060200D01*
X95834200Y-135559800D02*
X95834200Y-126568200D01*
X96342200Y-126060200D02*
X105333800Y-126060200D01*
X96342200Y-136067800D02*
X95834200Y-135559800D01*
X105333800Y-126060200D02*
X105841800Y-126568200D01*
X105333800Y-136067800D02*
X96342200Y-136067800D01*
X105841800Y-135559800D02*
X105333800Y-136067800D01*
X105841800Y-135559800D02*
X105841800Y-126568200D01*
X97231200Y-135051800D02*
G75*
G02*
X96469200Y-135051800I-381000J0D01*
G01*
X96469200Y-135051800D02*
G75*
G02*
X97231200Y-135051800I381000J0D01*
G01*
%TO.C,U3*%
X94457520Y-118823740D02*
X94457520Y-112824260D01*
X94457520Y-118823740D02*
X109456220Y-118823740D01*
X109456220Y-112824260D02*
X94457520Y-112824260D01*
X109456220Y-112824260D02*
X109456220Y-118823740D01*
X95379738Y-118181120D02*
G75*
G02*
X94566542Y-118181120I-406598J0D01*
G01*
X94566542Y-118181120D02*
G75*
G02*
X95379738Y-118181120I406598J0D01*
G01*
%TO.C,P101*%
D16*
X83250100Y-111726000D02*
X78750000Y-111726000D01*
X78750000Y-121726000D01*
X83250100Y-121726000D01*
X83250100Y-111726000D01*
X79793200Y-121012000D02*
G75*
G02*
X79074800Y-121012000I-359200J0D01*
G01*
X79074800Y-121012000D02*
G75*
G02*
X79793200Y-121012000I359200J0D01*
G01*
D10*
%TO.C,P7*%
X94990000Y-80504000D02*
X100590000Y-80504000D01*
X94990000Y-85104000D02*
X94990000Y-80504000D01*
X100590000Y-80504000D02*
X100590000Y-85104000D01*
X100590000Y-85104000D02*
X94990000Y-85104000D01*
D12*
%TO.C,1PIN*%
X117139396Y-142000000D02*
G75*
G02*
X112567396Y-142000000I-2286000J0D01*
G01*
X112567396Y-142000000D02*
G75*
G02*
X117139396Y-142000000I2286000J0D01*
G01*
X81886000Y-142000000D02*
G75*
G02*
X77314000Y-142000000I-2286000J0D01*
G01*
X77314000Y-142000000D02*
G75*
G02*
X81886000Y-142000000I2286000J0D01*
G01*
D10*
%TO.C,C1*%
X94976000Y-106985000D02*
X94976000Y-105105000D01*
X95126000Y-104955000D02*
X96606000Y-104955000D01*
X96606000Y-107135000D02*
X95126000Y-107135000D01*
X98466000Y-107135000D02*
X99946000Y-107135000D01*
X99946000Y-104955000D02*
X98466000Y-104955000D01*
X100096000Y-106985000D02*
X100096000Y-105105000D01*
X94976000Y-105105000D02*
G75*
G02*
X95126000Y-104955000I150000J0D01*
G01*
X95126000Y-107135000D02*
G75*
G02*
X94976000Y-106985000I0J150000D01*
G01*
X99946000Y-104955000D02*
G75*
G02*
X100096000Y-105105000I0J-150000D01*
G01*
X100096000Y-106985000D02*
G75*
G02*
X99946000Y-107135000I-150000J0D01*
G01*
D13*
X95966000Y-106845000D02*
G75*
G02*
X95906000Y-106845000I-30000J0D01*
G01*
X95906000Y-106845000D02*
G75*
G02*
X95966000Y-106845000I30000J0D01*
G01*
D10*
%TO.C,C8*%
X94976000Y-104445000D02*
X94976000Y-102565000D01*
X95126000Y-102415000D02*
X96606000Y-102415000D01*
X96606000Y-104595000D02*
X95126000Y-104595000D01*
X98466000Y-104595000D02*
X99946000Y-104595000D01*
X99946000Y-102415000D02*
X98466000Y-102415000D01*
X100096000Y-104445000D02*
X100096000Y-102565000D01*
X94976000Y-102565000D02*
G75*
G02*
X95126000Y-102415000I150000J0D01*
G01*
X95126000Y-104595000D02*
G75*
G02*
X94976000Y-104445000I0J150000D01*
G01*
X99946000Y-102415000D02*
G75*
G02*
X100096000Y-102565000I0J-150000D01*
G01*
X100096000Y-104445000D02*
G75*
G02*
X99946000Y-104595000I-150000J0D01*
G01*
D13*
X95966000Y-104305000D02*
G75*
G02*
X95906000Y-104305000I-30000J0D01*
G01*
X95906000Y-104305000D02*
G75*
G02*
X95966000Y-104305000I30000J0D01*
G01*
D11*
%TO.C,C10*%
X107621000Y-125831000D02*
X107621000Y-125031000D01*
X107621000Y-126391000D02*
X107621000Y-127191000D01*
X107931000Y-124721000D02*
X108731000Y-124721000D01*
X108731000Y-127501000D02*
X107931000Y-127501000D01*
X109041000Y-125831000D02*
X109041000Y-125031000D01*
X109041000Y-126391000D02*
X109041000Y-127191000D01*
X107621000Y-125031000D02*
G75*
G02*
X107931000Y-124721000I310000J0D01*
G01*
X107931000Y-127501000D02*
G75*
G02*
X107621000Y-127191000I0J310000D01*
G01*
X108731000Y-124721000D02*
G75*
G02*
X109041000Y-125031000I0J-310000D01*
G01*
X109041000Y-127191000D02*
G75*
G02*
X108731000Y-127501000I-310000J0D01*
G01*
D13*
X107961000Y-125311000D02*
G75*
G02*
X107901000Y-125311000I-30000J0D01*
G01*
X107901000Y-125311000D02*
G75*
G02*
X107961000Y-125311000I30000J0D01*
G01*
D11*
%TO.C,C11*%
X110424964Y-132283944D02*
X109859279Y-132849630D01*
X110424964Y-133853721D02*
X109859279Y-133288036D01*
X110820944Y-131887964D02*
X111386630Y-131322279D01*
X111429056Y-133288036D02*
X110863370Y-133853721D01*
X111825036Y-131322279D02*
X112390721Y-131887964D01*
X111825036Y-132892056D02*
X112390721Y-132326370D01*
X109859279Y-133288036D02*
G75*
G02*
X109859279Y-132849630I219203J219203D01*
G01*
X110863370Y-133853721D02*
G75*
G02*
X110424964Y-133853721I-219203J219203D01*
G01*
X111386630Y-131322279D02*
G75*
G02*
X111825036Y-131322279I219203J-219203D01*
G01*
X112390721Y-131887964D02*
G75*
G02*
X112390721Y-132326370I-219203J-219203D01*
G01*
D13*
X110872157Y-133436528D02*
G75*
G02*
X110812157Y-133436528I-30000J0D01*
G01*
X110812157Y-133436528D02*
G75*
G02*
X110872157Y-133436528I30000J0D01*
G01*
D11*
%TO.C,C12*%
X97842000Y-122402000D02*
X97842000Y-121602000D01*
X97842000Y-122962000D02*
X97842000Y-123762000D01*
X98152000Y-121292000D02*
X98952000Y-121292000D01*
X98952000Y-124072000D02*
X98152000Y-124072000D01*
X99262000Y-122402000D02*
X99262000Y-121602000D01*
X99262000Y-122962000D02*
X99262000Y-123762000D01*
X97842000Y-121602000D02*
G75*
G02*
X98152000Y-121292000I310000J0D01*
G01*
X98152000Y-124072000D02*
G75*
G02*
X97842000Y-123762000I0J310000D01*
G01*
X98952000Y-121292000D02*
G75*
G02*
X99262000Y-121602000I0J-310000D01*
G01*
X99262000Y-123762000D02*
G75*
G02*
X98952000Y-124072000I-310000J0D01*
G01*
D13*
X98982000Y-123482000D02*
G75*
G02*
X98922000Y-123482000I-30000J0D01*
G01*
X98922000Y-123482000D02*
G75*
G02*
X98982000Y-123482000I30000J0D01*
G01*
D11*
%TO.C,C13*%
X92381000Y-126974000D02*
X92381000Y-126174000D01*
X92381000Y-127534000D02*
X92381000Y-128334000D01*
X92691000Y-125864000D02*
X93491000Y-125864000D01*
X93491000Y-128644000D02*
X92691000Y-128644000D01*
X93801000Y-126974000D02*
X93801000Y-126174000D01*
X93801000Y-127534000D02*
X93801000Y-128334000D01*
X92381000Y-126174000D02*
G75*
G02*
X92691000Y-125864000I310000J0D01*
G01*
X92691000Y-128644000D02*
G75*
G02*
X92381000Y-128334000I0J310000D01*
G01*
X93491000Y-125864000D02*
G75*
G02*
X93801000Y-126174000I0J-310000D01*
G01*
X93801000Y-128334000D02*
G75*
G02*
X93491000Y-128644000I-310000J0D01*
G01*
D13*
X93521000Y-128054000D02*
G75*
G02*
X93461000Y-128054000I-30000J0D01*
G01*
X93461000Y-128054000D02*
G75*
G02*
X93521000Y-128054000I30000J0D01*
G01*
D11*
%TO.C,C19*%
X93606000Y-122574000D02*
X93606000Y-121774000D01*
X94716000Y-121464000D02*
X93916000Y-121464000D01*
X94716000Y-122884000D02*
X93916000Y-122884000D01*
X95276000Y-121464000D02*
X96076000Y-121464000D01*
X95276000Y-122884000D02*
X96076000Y-122884000D01*
X96386000Y-121774000D02*
X96386000Y-122574000D01*
X93606000Y-121774000D02*
G75*
G02*
X93916000Y-121464000I310000J0D01*
G01*
X93916000Y-122884000D02*
G75*
G02*
X93606000Y-122574000I0J310000D01*
G01*
X96076000Y-121464000D02*
G75*
G02*
X96386000Y-121774000I0J-310000D01*
G01*
X96386000Y-122574000D02*
G75*
G02*
X96076000Y-122884000I-310000J0D01*
G01*
D13*
X94226000Y-122574000D02*
G75*
G02*
X94166000Y-122574000I-30000J0D01*
G01*
X94166000Y-122574000D02*
G75*
G02*
X94226000Y-122574000I30000J0D01*
G01*
D11*
%TO.C,C21*%
X92254000Y-122656000D02*
X92254000Y-121856000D01*
X92254000Y-123216000D02*
X92254000Y-124016000D01*
X92564000Y-121546000D02*
X93364000Y-121546000D01*
X93364000Y-124326000D02*
X92564000Y-124326000D01*
X93674000Y-122656000D02*
X93674000Y-121856000D01*
X93674000Y-123216000D02*
X93674000Y-124016000D01*
X92254000Y-121856000D02*
G75*
G02*
X92564000Y-121546000I310000J0D01*
G01*
X92564000Y-124326000D02*
G75*
G02*
X92254000Y-124016000I0J310000D01*
G01*
X93364000Y-121546000D02*
G75*
G02*
X93674000Y-121856000I0J-310000D01*
G01*
X93674000Y-124016000D02*
G75*
G02*
X93364000Y-124326000I-310000J0D01*
G01*
D13*
X92594000Y-122136000D02*
G75*
G02*
X92534000Y-122136000I-30000J0D01*
G01*
X92534000Y-122136000D02*
G75*
G02*
X92594000Y-122136000I30000J0D01*
G01*
D11*
%TO.C,C22*%
X101210000Y-123100000D02*
X101210000Y-122300000D01*
X102320000Y-121990000D02*
X101520000Y-121990000D01*
X102320000Y-123410000D02*
X101520000Y-123410000D01*
X102880000Y-121990000D02*
X103680000Y-121990000D01*
X102880000Y-123410000D02*
X103680000Y-123410000D01*
X103990000Y-122300000D02*
X103990000Y-123100000D01*
X101210000Y-122300000D02*
G75*
G02*
X101520000Y-121990000I310000J0D01*
G01*
X101520000Y-123410000D02*
G75*
G02*
X101210000Y-123100000I0J310000D01*
G01*
X103680000Y-121990000D02*
G75*
G02*
X103990000Y-122300000I0J-310000D01*
G01*
X103990000Y-123100000D02*
G75*
G02*
X103680000Y-123410000I-310000J0D01*
G01*
D13*
X101830000Y-123100000D02*
G75*
G02*
X101770000Y-123100000I-30000J0D01*
G01*
X101770000Y-123100000D02*
G75*
G02*
X101830000Y-123100000I30000J0D01*
G01*
D11*
%TO.C,C23*%
X108211000Y-122320000D02*
X108211000Y-121520000D01*
X109321000Y-121210000D02*
X108521000Y-121210000D01*
X109321000Y-122630000D02*
X108521000Y-122630000D01*
X109881000Y-121210000D02*
X110681000Y-121210000D01*
X109881000Y-122630000D02*
X110681000Y-122630000D01*
X110991000Y-121520000D02*
X110991000Y-122320000D01*
X108211000Y-121520000D02*
G75*
G02*
X108521000Y-121210000I310000J0D01*
G01*
X108521000Y-122630000D02*
G75*
G02*
X108211000Y-122320000I0J310000D01*
G01*
X110681000Y-121210000D02*
G75*
G02*
X110991000Y-121520000I0J-310000D01*
G01*
X110991000Y-122320000D02*
G75*
G02*
X110681000Y-122630000I-310000J0D01*
G01*
D13*
X110431000Y-121520000D02*
G75*
G02*
X110371000Y-121520000I-30000J0D01*
G01*
X110371000Y-121520000D02*
G75*
G02*
X110431000Y-121520000I30000J0D01*
G01*
D11*
%TO.C,C27*%
X95003000Y-109874000D02*
X95003000Y-109074000D01*
X96113000Y-108764000D02*
X95313000Y-108764000D01*
X96113000Y-110184000D02*
X95313000Y-110184000D01*
X96673000Y-108764000D02*
X97473000Y-108764000D01*
X96673000Y-110184000D02*
X97473000Y-110184000D01*
X97783000Y-109074000D02*
X97783000Y-109874000D01*
X95003000Y-109074000D02*
G75*
G02*
X95313000Y-108764000I310000J0D01*
G01*
X95313000Y-110184000D02*
G75*
G02*
X95003000Y-109874000I0J310000D01*
G01*
X97473000Y-108764000D02*
G75*
G02*
X97783000Y-109074000I0J-310000D01*
G01*
X97783000Y-109874000D02*
G75*
G02*
X97473000Y-110184000I-310000J0D01*
G01*
D13*
X97223000Y-109074000D02*
G75*
G02*
X97163000Y-109074000I-30000J0D01*
G01*
X97163000Y-109074000D02*
G75*
G02*
X97223000Y-109074000I30000J0D01*
G01*
D11*
%TO.C,C28*%
X98051000Y-108604000D02*
X98051000Y-107804000D01*
X99161000Y-107494000D02*
X98361000Y-107494000D01*
X99161000Y-108914000D02*
X98361000Y-108914000D01*
X99721000Y-107494000D02*
X100521000Y-107494000D01*
X99721000Y-108914000D02*
X100521000Y-108914000D01*
X100831000Y-107804000D02*
X100831000Y-108604000D01*
X98051000Y-107804000D02*
G75*
G02*
X98361000Y-107494000I310000J0D01*
G01*
X98361000Y-108914000D02*
G75*
G02*
X98051000Y-108604000I0J310000D01*
G01*
X100521000Y-107494000D02*
G75*
G02*
X100831000Y-107804000I0J-310000D01*
G01*
X100831000Y-108604000D02*
G75*
G02*
X100521000Y-108914000I-310000J0D01*
G01*
D13*
X100271000Y-107804000D02*
G75*
G02*
X100211000Y-107804000I-30000J0D01*
G01*
X100211000Y-107804000D02*
G75*
G02*
X100271000Y-107804000I30000J0D01*
G01*
D11*
%TO.C,C29*%
X100337000Y-105810000D02*
X100337000Y-105010000D01*
X101447000Y-104700000D02*
X100647000Y-104700000D01*
X101447000Y-106120000D02*
X100647000Y-106120000D01*
X102007000Y-104700000D02*
X102807000Y-104700000D01*
X102007000Y-106120000D02*
X102807000Y-106120000D01*
X103117000Y-105010000D02*
X103117000Y-105810000D01*
X100337000Y-105010000D02*
G75*
G02*
X100647000Y-104700000I310000J0D01*
G01*
X100647000Y-106120000D02*
G75*
G02*
X100337000Y-105810000I0J310000D01*
G01*
X102807000Y-104700000D02*
G75*
G02*
X103117000Y-105010000I0J-310000D01*
G01*
X103117000Y-105810000D02*
G75*
G02*
X102807000Y-106120000I-310000J0D01*
G01*
D13*
X102557000Y-105010000D02*
G75*
G02*
X102497000Y-105010000I-30000J0D01*
G01*
X102497000Y-105010000D02*
G75*
G02*
X102557000Y-105010000I30000J0D01*
G01*
D11*
%TO.C,C30*%
X102750000Y-108477000D02*
X102750000Y-107677000D01*
X103860000Y-107367000D02*
X103060000Y-107367000D01*
X103860000Y-108787000D02*
X103060000Y-108787000D01*
X104420000Y-107367000D02*
X105220000Y-107367000D01*
X104420000Y-108787000D02*
X105220000Y-108787000D01*
X105530000Y-107677000D02*
X105530000Y-108477000D01*
X102750000Y-107677000D02*
G75*
G02*
X103060000Y-107367000I310000J0D01*
G01*
X103060000Y-108787000D02*
G75*
G02*
X102750000Y-108477000I0J310000D01*
G01*
X105220000Y-107367000D02*
G75*
G02*
X105530000Y-107677000I0J-310000D01*
G01*
X105530000Y-108477000D02*
G75*
G02*
X105220000Y-108787000I-310000J0D01*
G01*
D13*
X104970000Y-107677000D02*
G75*
G02*
X104910000Y-107677000I-30000J0D01*
G01*
X104910000Y-107677000D02*
G75*
G02*
X104970000Y-107677000I30000J0D01*
G01*
D18*
%TO.C,C34*%
X106497120Y-108061760D02*
X107195620Y-108061760D01*
X106497120Y-109347000D02*
X106497120Y-108077000D01*
X107195620Y-109362240D02*
X106497120Y-109362240D01*
X108196380Y-108061760D02*
X108894880Y-108061760D01*
X108196380Y-109362240D02*
X108894880Y-109362240D01*
X108894880Y-108077000D02*
X108894880Y-109347000D01*
D11*
%TO.C,C35*%
X93987000Y-137560000D02*
X93987000Y-136760000D01*
X95097000Y-136450000D02*
X94297000Y-136450000D01*
X95097000Y-137870000D02*
X94297000Y-137870000D01*
X95657000Y-136450000D02*
X96457000Y-136450000D01*
X95657000Y-137870000D02*
X96457000Y-137870000D01*
X96767000Y-136760000D02*
X96767000Y-137560000D01*
X93987000Y-136760000D02*
G75*
G02*
X94297000Y-136450000I310000J0D01*
G01*
X94297000Y-137870000D02*
G75*
G02*
X93987000Y-137560000I0J310000D01*
G01*
X96457000Y-136450000D02*
G75*
G02*
X96767000Y-136760000I0J-310000D01*
G01*
X96767000Y-137560000D02*
G75*
G02*
X96457000Y-137870000I-310000J0D01*
G01*
D13*
X94607000Y-137560000D02*
G75*
G02*
X94547000Y-137560000I-30000J0D01*
G01*
X94547000Y-137560000D02*
G75*
G02*
X94607000Y-137560000I30000J0D01*
G01*
D18*
%TO.C,C36*%
X109291120Y-108061760D02*
X109989620Y-108061760D01*
X109291120Y-109347000D02*
X109291120Y-108077000D01*
X109989620Y-109362240D02*
X109291120Y-109362240D01*
X110990380Y-108061760D02*
X111688880Y-108061760D01*
X110990380Y-109362240D02*
X111688880Y-109362240D01*
X111688880Y-108077000D02*
X111688880Y-109347000D01*
D10*
%TO.C,C39*%
X109908000Y-113287000D02*
X109908000Y-114767000D01*
X109908000Y-118107000D02*
X109908000Y-116627000D01*
X111938000Y-113137000D02*
X110058000Y-113137000D01*
X111938000Y-118257000D02*
X110058000Y-118257000D01*
X112088000Y-114767000D02*
X112088000Y-113287000D01*
X112088000Y-116627000D02*
X112088000Y-118107000D01*
X109908000Y-113287000D02*
G75*
G02*
X110058000Y-113137000I150000J0D01*
G01*
X110058000Y-118257000D02*
G75*
G02*
X109908000Y-118107000I0J150000D01*
G01*
X111938000Y-113137000D02*
G75*
G02*
X112088000Y-113287000I0J-150000D01*
G01*
X112088000Y-118107000D02*
G75*
G02*
X111938000Y-118257000I-150000J0D01*
G01*
D13*
X111828000Y-117297000D02*
G75*
G02*
X111768000Y-117297000I-30000J0D01*
G01*
X111768000Y-117297000D02*
G75*
G02*
X111828000Y-117297000I30000J0D01*
G01*
D11*
%TO.C,C41*%
X111050000Y-126212000D02*
X111050000Y-125412000D01*
X111050000Y-126772000D02*
X111050000Y-127572000D01*
X111360000Y-125102000D02*
X112160000Y-125102000D01*
X112160000Y-127882000D02*
X111360000Y-127882000D01*
X112470000Y-126212000D02*
X112470000Y-125412000D01*
X112470000Y-126772000D02*
X112470000Y-127572000D01*
X111050000Y-125412000D02*
G75*
G02*
X111360000Y-125102000I310000J0D01*
G01*
X111360000Y-127882000D02*
G75*
G02*
X111050000Y-127572000I0J310000D01*
G01*
X112160000Y-125102000D02*
G75*
G02*
X112470000Y-125412000I0J-310000D01*
G01*
X112470000Y-127572000D02*
G75*
G02*
X112160000Y-127882000I-310000J0D01*
G01*
D13*
X111390000Y-125692000D02*
G75*
G02*
X111330000Y-125692000I-30000J0D01*
G01*
X111330000Y-125692000D02*
G75*
G02*
X111390000Y-125692000I30000J0D01*
G01*
D11*
%TO.C,C401*%
X92290000Y-130670000D02*
X92290000Y-129870000D01*
X92290000Y-131230000D02*
X92290000Y-132030000D01*
X92600000Y-129560000D02*
X93400000Y-129560000D01*
X93400000Y-132340000D02*
X92600000Y-132340000D01*
X93710000Y-130670000D02*
X93710000Y-129870000D01*
X93710000Y-131230000D02*
X93710000Y-132030000D01*
X92290000Y-129870000D02*
G75*
G02*
X92600000Y-129560000I310000J0D01*
G01*
X92600000Y-132340000D02*
G75*
G02*
X92290000Y-132030000I0J310000D01*
G01*
X93400000Y-129560000D02*
G75*
G02*
X93710000Y-129870000I0J-310000D01*
G01*
X93710000Y-132030000D02*
G75*
G02*
X93400000Y-132340000I-310000J0D01*
G01*
D13*
X92630000Y-130150000D02*
G75*
G02*
X92570000Y-130150000I-30000J0D01*
G01*
X92570000Y-130150000D02*
G75*
G02*
X92630000Y-130150000I30000J0D01*
G01*
D10*
%TO.C,R1*%
X113672000Y-102210000D02*
X114632000Y-102210000D01*
X113672000Y-103530000D02*
X113672000Y-102210000D01*
X114632000Y-103530000D02*
X113672000Y-103530000D01*
X115492000Y-103530000D02*
X116452000Y-103530000D01*
X116452000Y-102210000D02*
X115492000Y-102210000D01*
X116452000Y-103530000D02*
X116452000Y-102210000D01*
D13*
X114292000Y-103270000D02*
G75*
G02*
X114232000Y-103270000I-30000J0D01*
G01*
X114232000Y-103270000D02*
G75*
G02*
X114292000Y-103270000I30000J0D01*
G01*
D10*
%TO.C,R2*%
X111100000Y-127642000D02*
X111100000Y-128602000D01*
X111100000Y-130422000D02*
X111100000Y-129462000D01*
X112420000Y-127642000D02*
X111100000Y-127642000D01*
X112420000Y-128602000D02*
X112420000Y-127642000D01*
X112420000Y-129462000D02*
X112420000Y-130422000D01*
X112420000Y-130422000D02*
X111100000Y-130422000D01*
D13*
X112190000Y-129832000D02*
G75*
G02*
X112130000Y-129832000I-30000J0D01*
G01*
X112130000Y-129832000D02*
G75*
G02*
X112190000Y-129832000I30000J0D01*
G01*
D10*
%TO.C,R17*%
X85732000Y-119736000D02*
X86692000Y-119736000D01*
X85732000Y-121056000D02*
X85732000Y-119736000D01*
X86692000Y-121056000D02*
X85732000Y-121056000D01*
X87552000Y-121056000D02*
X88512000Y-121056000D01*
X88512000Y-119736000D02*
X87552000Y-119736000D01*
X88512000Y-121056000D02*
X88512000Y-119736000D01*
D13*
X86352000Y-120796000D02*
G75*
G02*
X86292000Y-120796000I-30000J0D01*
G01*
X86292000Y-120796000D02*
G75*
G02*
X86352000Y-120796000I30000J0D01*
G01*
D10*
%TO.C,R18*%
X88272000Y-119736000D02*
X89232000Y-119736000D01*
X88272000Y-121056000D02*
X88272000Y-119736000D01*
X89232000Y-121056000D02*
X88272000Y-121056000D01*
X90092000Y-121056000D02*
X91052000Y-121056000D01*
X91052000Y-119736000D02*
X90092000Y-119736000D01*
X91052000Y-121056000D02*
X91052000Y-119736000D01*
D13*
X88892000Y-120796000D02*
G75*
G02*
X88832000Y-120796000I-30000J0D01*
G01*
X88832000Y-120796000D02*
G75*
G02*
X88892000Y-120796000I30000J0D01*
G01*
D10*
%TO.C,R19*%
X93606000Y-123038000D02*
X94566000Y-123038000D01*
X93606000Y-124358000D02*
X93606000Y-123038000D01*
X94566000Y-124358000D02*
X93606000Y-124358000D01*
X95426000Y-124358000D02*
X96386000Y-124358000D01*
X96386000Y-123038000D02*
X95426000Y-123038000D01*
X96386000Y-124358000D02*
X96386000Y-123038000D01*
D13*
X94226000Y-124098000D02*
G75*
G02*
X94166000Y-124098000I-30000J0D01*
G01*
X94166000Y-124098000D02*
G75*
G02*
X94226000Y-124098000I30000J0D01*
G01*
D10*
%TO.C,R20*%
X96368000Y-121292000D02*
X97688000Y-121292000D01*
X96368000Y-122252000D02*
X96368000Y-121292000D01*
X96368000Y-123112000D02*
X96368000Y-124072000D01*
X96368000Y-124072000D02*
X97688000Y-124072000D01*
X97688000Y-121292000D02*
X97688000Y-122252000D01*
X97688000Y-124072000D02*
X97688000Y-123112000D01*
D13*
X96658000Y-121882000D02*
G75*
G02*
X96598000Y-121882000I-30000J0D01*
G01*
X96598000Y-121882000D02*
G75*
G02*
X96658000Y-121882000I30000J0D01*
G01*
D10*
%TO.C,R25*%
X91701000Y-109576000D02*
X92661000Y-109576000D01*
X91701000Y-110896000D02*
X91701000Y-109576000D01*
X92661000Y-110896000D02*
X91701000Y-110896000D01*
X93521000Y-110896000D02*
X94481000Y-110896000D01*
X94481000Y-109576000D02*
X93521000Y-109576000D01*
X94481000Y-110896000D02*
X94481000Y-109576000D01*
D13*
X92321000Y-110636000D02*
G75*
G02*
X92261000Y-110636000I-30000J0D01*
G01*
X92261000Y-110636000D02*
G75*
G02*
X92321000Y-110636000I30000J0D01*
G01*
D10*
%TO.C,R28*%
X114148000Y-82430000D02*
X114148000Y-83390000D01*
X114148000Y-85210000D02*
X114148000Y-84250000D01*
X115468000Y-82430000D02*
X114148000Y-82430000D01*
X115468000Y-83390000D02*
X115468000Y-82430000D01*
X115468000Y-84250000D02*
X115468000Y-85210000D01*
X115468000Y-85210000D02*
X114148000Y-85210000D01*
D13*
X115238000Y-84620000D02*
G75*
G02*
X115178000Y-84620000I-30000J0D01*
G01*
X115178000Y-84620000D02*
G75*
G02*
X115238000Y-84620000I30000J0D01*
G01*
D10*
%TO.C,R34*%
X103734000Y-88526000D02*
X105054000Y-88526000D01*
X103734000Y-89486000D02*
X103734000Y-88526000D01*
X103734000Y-90346000D02*
X103734000Y-91306000D01*
X103734000Y-91306000D02*
X105054000Y-91306000D01*
X105054000Y-88526000D02*
X105054000Y-89486000D01*
X105054000Y-91306000D02*
X105054000Y-90346000D01*
D13*
X104024000Y-89116000D02*
G75*
G02*
X103964000Y-89116000I-30000J0D01*
G01*
X103964000Y-89116000D02*
G75*
G02*
X104024000Y-89116000I30000J0D01*
G01*
D10*
%TO.C,R42*%
X90780000Y-87383000D02*
X92100000Y-87383000D01*
X90780000Y-88343000D02*
X90780000Y-87383000D01*
X90780000Y-89203000D02*
X90780000Y-90163000D01*
X90780000Y-90163000D02*
X92100000Y-90163000D01*
X92100000Y-87383000D02*
X92100000Y-88343000D01*
X92100000Y-90163000D02*
X92100000Y-89203000D01*
D13*
X91070000Y-87973000D02*
G75*
G02*
X91010000Y-87973000I-30000J0D01*
G01*
X91010000Y-87973000D02*
G75*
G02*
X91070000Y-87973000I30000J0D01*
G01*
D10*
%TO.C,R48*%
X106147000Y-105290000D02*
X107467000Y-105290000D01*
X106147000Y-106250000D02*
X106147000Y-105290000D01*
X106147000Y-107110000D02*
X106147000Y-108070000D01*
X106147000Y-108070000D02*
X107467000Y-108070000D01*
X107467000Y-105290000D02*
X107467000Y-106250000D01*
X107467000Y-108070000D02*
X107467000Y-107110000D01*
D13*
X106437000Y-105880000D02*
G75*
G02*
X106377000Y-105880000I-30000J0D01*
G01*
X106377000Y-105880000D02*
G75*
G02*
X106437000Y-105880000I30000J0D01*
G01*
D10*
%TO.C,R49*%
X107671000Y-105290000D02*
X108991000Y-105290000D01*
X107671000Y-106250000D02*
X107671000Y-105290000D01*
X107671000Y-107110000D02*
X107671000Y-108070000D01*
X107671000Y-108070000D02*
X108991000Y-108070000D01*
X108991000Y-105290000D02*
X108991000Y-106250000D01*
X108991000Y-108070000D02*
X108991000Y-107110000D01*
D13*
X107961000Y-105880000D02*
G75*
G02*
X107901000Y-105880000I-30000J0D01*
G01*
X107901000Y-105880000D02*
G75*
G02*
X107961000Y-105880000I30000J0D01*
G01*
D10*
%TO.C,R50*%
X109195000Y-105290000D02*
X110515000Y-105290000D01*
X109195000Y-106250000D02*
X109195000Y-105290000D01*
X109195000Y-107110000D02*
X109195000Y-108070000D01*
X109195000Y-108070000D02*
X110515000Y-108070000D01*
X110515000Y-105290000D02*
X110515000Y-106250000D01*
X110515000Y-108070000D02*
X110515000Y-107110000D01*
D13*
X109485000Y-105880000D02*
G75*
G02*
X109425000Y-105880000I-30000J0D01*
G01*
X109425000Y-105880000D02*
G75*
G02*
X109485000Y-105880000I30000J0D01*
G01*
D10*
%TO.C,R51*%
X110719000Y-105290000D02*
X112039000Y-105290000D01*
X110719000Y-106250000D02*
X110719000Y-105290000D01*
X110719000Y-107110000D02*
X110719000Y-108070000D01*
X110719000Y-108070000D02*
X112039000Y-108070000D01*
X112039000Y-105290000D02*
X112039000Y-106250000D01*
X112039000Y-108070000D02*
X112039000Y-107110000D01*
D13*
X111009000Y-105880000D02*
G75*
G02*
X110949000Y-105880000I-30000J0D01*
G01*
X110949000Y-105880000D02*
G75*
G02*
X111009000Y-105880000I30000J0D01*
G01*
D10*
%TO.C,R103*%
X87010000Y-125340000D02*
X87010000Y-126660000D01*
X87010000Y-126660000D02*
X87970000Y-126660000D01*
X87970000Y-125340000D02*
X87010000Y-125340000D01*
X88830000Y-125340000D02*
X89790000Y-125340000D01*
X89790000Y-125340000D02*
X89790000Y-126660000D01*
X89790000Y-126660000D02*
X88830000Y-126660000D01*
D13*
X89230000Y-125600000D02*
G75*
G02*
X89170000Y-125600000I-30000J0D01*
G01*
X89170000Y-125600000D02*
G75*
G02*
X89230000Y-125600000I30000J0D01*
G01*
D10*
%TO.C,R104*%
X87010000Y-126890000D02*
X87010000Y-128210000D01*
X87010000Y-128210000D02*
X87970000Y-128210000D01*
X87970000Y-126890000D02*
X87010000Y-126890000D01*
X88830000Y-126890000D02*
X89790000Y-126890000D01*
X89790000Y-126890000D02*
X89790000Y-128210000D01*
X89790000Y-128210000D02*
X88830000Y-128210000D01*
D13*
X89230000Y-127150000D02*
G75*
G02*
X89170000Y-127150000I-30000J0D01*
G01*
X89170000Y-127150000D02*
G75*
G02*
X89230000Y-127150000I30000J0D01*
G01*
D10*
%TO.C,R401*%
X84610000Y-121840000D02*
X84610000Y-123160000D01*
X84610000Y-123160000D02*
X85570000Y-123160000D01*
X85570000Y-121840000D02*
X84610000Y-121840000D01*
X86430000Y-121840000D02*
X87390000Y-121840000D01*
X87390000Y-121840000D02*
X87390000Y-123160000D01*
X87390000Y-123160000D02*
X86430000Y-123160000D01*
D13*
X86830000Y-122100000D02*
G75*
G02*
X86770000Y-122100000I-30000J0D01*
G01*
X86770000Y-122100000D02*
G75*
G02*
X86830000Y-122100000I30000J0D01*
G01*
D17*
%TO.C,U401*%
X86895000Y-128383000D02*
X86895000Y-133717000D01*
X86895000Y-128383000D02*
X90705000Y-128383000D01*
X86895000Y-133717000D02*
X90578000Y-133717000D01*
X88292000Y-133209000D02*
X89308000Y-133209000D01*
X88292000Y-133717000D02*
X88292000Y-133209000D01*
X89308000Y-133209000D02*
X89308000Y-133717000D01*
X90578000Y-133717000D02*
X90705000Y-133717000D01*
X90705000Y-133717000D02*
X90705000Y-128383000D01*
D16*
%TO.C,P3*%
X112600000Y-104014000D02*
X112600000Y-120014000D01*
X112600000Y-109014000D02*
X112600700Y-109014000D01*
X112600000Y-120014000D02*
X117100000Y-120014000D01*
X112600700Y-109014000D02*
X113101100Y-109014000D01*
X112600700Y-115015000D02*
X112600000Y-115014000D01*
X113101100Y-104614700D02*
X113901200Y-104614700D01*
X113101100Y-109014000D02*
X113101100Y-104614700D01*
X113101100Y-115015000D02*
X112600700Y-115015000D01*
X113101100Y-119414300D02*
X113101100Y-115015000D01*
X113901200Y-104614700D02*
X113901200Y-104012700D01*
X113901200Y-119414300D02*
X113101100Y-119414300D01*
X113901200Y-120013700D02*
X113901200Y-119414300D01*
X114897100Y-104614000D02*
X116499600Y-104614000D01*
X114900000Y-104014000D02*
X114897100Y-104614000D01*
X115001000Y-119414300D02*
X115001000Y-120013700D01*
X115200000Y-118014000D02*
X116200000Y-117614000D01*
X116199900Y-118413500D02*
X115199200Y-118014800D01*
X116200000Y-117614000D02*
X116199900Y-118413500D01*
X116499600Y-104614000D02*
X116499600Y-119414300D01*
X116499600Y-119414300D02*
X115001000Y-119414300D01*
X117100000Y-104014000D02*
X112600000Y-104014000D01*
X117100000Y-120014000D02*
X117100000Y-104014000D01*
D10*
%TO.C,L1*%
X85720000Y-111882000D02*
X85720000Y-112052000D01*
X85720000Y-118242000D02*
X85720000Y-118072000D01*
X92080000Y-111882000D02*
X85720000Y-111882000D01*
X92080000Y-112052000D02*
X92080000Y-111882000D01*
X92080000Y-118072000D02*
X92080000Y-118242000D01*
X92080000Y-118242000D02*
X85720000Y-118242000D01*
D13*
X91930000Y-112062000D02*
G75*
G02*
X91870000Y-112062000I-30000J0D01*
G01*
X91870000Y-112062000D02*
G75*
G02*
X91930000Y-112062000I30000J0D01*
G01*
D11*
%TO.C,Q5*%
X79572800Y-100692450D02*
X79572800Y-88162450D01*
X80172800Y-88162450D02*
X79572800Y-88162450D01*
X90302800Y-88162450D02*
X89832800Y-88162450D01*
X90302800Y-100692450D02*
X79572800Y-100692450D01*
X90302800Y-100692450D02*
X90302800Y-88162450D01*
D13*
X89982800Y-88072450D02*
G75*
G02*
X89922800Y-88072450I-30000J0D01*
G01*
X89922800Y-88072450D02*
G75*
G02*
X89982800Y-88072450I30000J0D01*
G01*
D19*
X90402800Y-86792450D02*
G75*
G02*
X90002800Y-86792450I-200000J0D01*
G01*
X90002800Y-86792450D02*
G75*
G02*
X90402800Y-86792450I200000J0D01*
G01*
D11*
%TO.C,Q1*%
X105272800Y-100692450D02*
X105272800Y-88162450D01*
X105872800Y-88162450D02*
X105272800Y-88162450D01*
X116002800Y-88162450D02*
X115532800Y-88162450D01*
X116002800Y-100692450D02*
X105272800Y-100692450D01*
X116002800Y-100692450D02*
X116002800Y-88162450D01*
D13*
X115682800Y-88072450D02*
G75*
G02*
X115622800Y-88072450I-30000J0D01*
G01*
X115622800Y-88072450D02*
G75*
G02*
X115682800Y-88072450I30000J0D01*
G01*
D19*
X116102800Y-86792450D02*
G75*
G02*
X115702800Y-86792450I-200000J0D01*
G01*
X115702800Y-86792450D02*
G75*
G02*
X116102800Y-86792450I200000J0D01*
G01*
D20*
%TO.C,D6*%
X76936000Y-132799000D02*
X77286500Y-132799000D01*
X76936000Y-138201000D02*
X76936000Y-132799000D01*
X77036500Y-136539000D02*
X79763500Y-136539000D01*
X79863500Y-132799000D02*
X79513000Y-132799000D01*
X79863500Y-138201000D02*
X79863500Y-132799000D01*
D21*
G36*
X77337500Y-138582000D02*
G01*
X76860000Y-138582000D01*
X76860000Y-138125000D01*
X77337500Y-138125000D01*
X77337500Y-138582000D01*
G37*
G36*
X79940000Y-138582000D02*
G01*
X79462500Y-138582000D01*
X79462500Y-138125000D01*
X79940000Y-138125000D01*
X79940000Y-138582000D01*
G37*
D10*
%TO.C,R6*%
X109510000Y-111240000D02*
X110470000Y-111240000D01*
X109510000Y-112560000D02*
X109510000Y-111240000D01*
X110470000Y-112560000D02*
X109510000Y-112560000D01*
X111330000Y-112560000D02*
X112290000Y-112560000D01*
X112290000Y-111240000D02*
X111330000Y-111240000D01*
X112290000Y-112560000D02*
X112290000Y-111240000D01*
D13*
X110130000Y-112300000D02*
G75*
G02*
X110070000Y-112300000I-30000J0D01*
G01*
X110070000Y-112300000D02*
G75*
G02*
X110130000Y-112300000I30000J0D01*
G01*
D11*
%TO.C,U4*%
X74766600Y-123126200D02*
X74816600Y-123126200D01*
X74766600Y-123296200D02*
X74766600Y-123126200D01*
X74816600Y-123126200D02*
X75236600Y-123486200D01*
X74816600Y-131576200D02*
X75026600Y-131376200D01*
X74816600Y-131876200D02*
X74816600Y-131576200D01*
X75026600Y-123546200D02*
X74766600Y-123296200D01*
X75026600Y-131376200D02*
X75026600Y-123546200D01*
X75236600Y-131486200D02*
X74816600Y-131876200D01*
X76706600Y-123496200D02*
X75236600Y-123496200D01*
X76706600Y-123496200D02*
X76776600Y-123496200D01*
X76706600Y-131496200D02*
X75116600Y-131496200D01*
X76706600Y-131496200D02*
X76776600Y-131496200D01*
X78536600Y-123496200D02*
X79326600Y-123496200D01*
X78536600Y-131496200D02*
X79326600Y-131496200D01*
X80686600Y-123496200D02*
X80736600Y-123496200D01*
X80686600Y-131496200D02*
X80736600Y-131496200D01*
X80736600Y-123496200D02*
X80736600Y-125736200D01*
X80736600Y-129256200D02*
X80736600Y-131496200D01*
D13*
X81186600Y-123746200D02*
G75*
G02*
X81126600Y-123746200I-30000J0D01*
G01*
X81126600Y-123746200D02*
G75*
G02*
X81186600Y-123746200I30000J0D01*
G01*
D11*
%TO.C,Q3*%
X92472800Y-100692450D02*
X92472800Y-88162450D01*
X93072800Y-88162450D02*
X92472800Y-88162450D01*
X103202800Y-88162450D02*
X102732800Y-88162450D01*
X103202800Y-100692450D02*
X92472800Y-100692450D01*
X103202800Y-100692450D02*
X103202800Y-88162450D01*
D13*
X102882800Y-88072450D02*
G75*
G02*
X102822800Y-88072450I-30000J0D01*
G01*
X102822800Y-88072450D02*
G75*
G02*
X102882800Y-88072450I30000J0D01*
G01*
D19*
X103302800Y-86792450D02*
G75*
G02*
X102902800Y-86792450I-200000J0D01*
G01*
X102902800Y-86792450D02*
G75*
G02*
X103302800Y-86792450I200000J0D01*
G01*
%TD*%
D22*
%TO.C,K1*%
X108712000Y-136398000D03*
X111252000Y-136398000D03*
X113792000Y-136398000D03*
%TD*%
%LPC*%
D23*
%TO.C,1PIN*%
X92000000Y-83000000D03*
%TD*%
%TO.C,1PIN*%
X103500000Y-83000000D03*
%TD*%
D24*
%TO.C,C37*%
X93385000Y-105918000D03*
X88225000Y-105918000D03*
%TD*%
D22*
%TO.C,K1*%
X108712000Y-136398000D03*
X111252000Y-136398000D03*
X113792000Y-136398000D03*
%TD*%
D25*
%TO.C,P1*%
X82100000Y-137200000D03*
D26*
X84100000Y-137200000D03*
X86100000Y-137200000D03*
X88100000Y-137200000D03*
X90100000Y-137200000D03*
X92100000Y-137200000D03*
%TD*%
D27*
%TO.C,P2*%
X114300000Y-122300000D03*
D28*
X114300000Y-124300000D03*
X114300000Y-126300000D03*
X114300000Y-128300000D03*
X114300000Y-130300000D03*
X114300000Y-132300000D03*
%TD*%
D29*
%TO.C,P6*%
X85090000Y-82804000D03*
%TD*%
%TO.C,P9*%
X109474000Y-82804000D03*
%TD*%
D30*
%TO.C,U1*%
X97088960Y-136814560D03*
X97586800Y-136814560D03*
X98087180Y-136814560D03*
X98587560Y-136814560D03*
X99087940Y-136814560D03*
X99588320Y-136814560D03*
X100088700Y-136814560D03*
X100589080Y-136814560D03*
X101086920Y-136814560D03*
X101587300Y-136814560D03*
X102087680Y-136814560D03*
X102588060Y-136814560D03*
X103088440Y-136814560D03*
X103588820Y-136814560D03*
X104089200Y-136814560D03*
X104587040Y-136814560D03*
D31*
X106588560Y-134813040D03*
X106588560Y-134315200D03*
X106588560Y-133814820D03*
X106588560Y-133314440D03*
X106588560Y-132814060D03*
X106588560Y-132313680D03*
X106588560Y-131813300D03*
X106588560Y-131312920D03*
X106588560Y-130815080D03*
X106588560Y-130314700D03*
X106588560Y-129814320D03*
X106588560Y-129313940D03*
X106588560Y-128813560D03*
X106588560Y-128313180D03*
X106588560Y-127812800D03*
X106588560Y-127314960D03*
D30*
X104587040Y-125313440D03*
X104089200Y-125313440D03*
X103588820Y-125313440D03*
X103088440Y-125313440D03*
X102588060Y-125313440D03*
X102087680Y-125313440D03*
X101587300Y-125313440D03*
X101086920Y-125313440D03*
X100589080Y-125313440D03*
X100088700Y-125313440D03*
X99588320Y-125313440D03*
X99087940Y-125313440D03*
X98587560Y-125313440D03*
X98087180Y-125313440D03*
X97586800Y-125313440D03*
X97088960Y-125313440D03*
D31*
X95087440Y-127314960D03*
X95087440Y-127812800D03*
X95087440Y-128313180D03*
X95087440Y-128813560D03*
X95087440Y-129313940D03*
X95087440Y-129814320D03*
X95087440Y-130314700D03*
X95087440Y-130815080D03*
X95087440Y-131312920D03*
X95087440Y-131813300D03*
X95087440Y-132313680D03*
X95087440Y-132814060D03*
X95087440Y-133314440D03*
X95087440Y-133814820D03*
X95087440Y-134315200D03*
X95087440Y-134813040D03*
%TD*%
D32*
%TO.C,U3*%
X95158560Y-119824500D03*
X95656400Y-119824500D03*
X96156780Y-119824500D03*
X96657160Y-119824500D03*
X97157540Y-119824500D03*
X97657920Y-119824500D03*
X98158300Y-119824500D03*
X98656140Y-119824500D03*
X99156520Y-119824500D03*
X99656900Y-119824500D03*
X100157280Y-119824500D03*
X100657660Y-119824500D03*
X101158040Y-119824500D03*
X101658420Y-119824500D03*
X102156260Y-119824500D03*
X102656640Y-119824500D03*
X103157020Y-119824500D03*
X103657400Y-119824500D03*
X104157780Y-119824500D03*
X104658160Y-119824500D03*
X105158540Y-119824500D03*
X105656380Y-119824500D03*
X106156760Y-119824500D03*
X106657140Y-119824500D03*
X107157520Y-119824500D03*
X107657900Y-119824500D03*
X108158280Y-119824500D03*
X108656120Y-119824500D03*
X108656120Y-111823500D03*
X108158280Y-111823500D03*
X107657900Y-111823500D03*
X107157520Y-111823500D03*
X106657140Y-111823500D03*
X106156760Y-111823500D03*
X105656380Y-111823500D03*
X105158540Y-111823500D03*
X104658160Y-111823500D03*
X104157780Y-111823500D03*
X103657400Y-111823500D03*
X103157020Y-111823500D03*
X102656640Y-111823500D03*
X102156260Y-111823500D03*
X101658420Y-111823500D03*
X101158040Y-111823500D03*
X100657660Y-111823500D03*
X100157280Y-111823500D03*
X99656900Y-111823500D03*
X99156520Y-111823500D03*
X98656140Y-111823500D03*
X98158300Y-111823500D03*
X97657920Y-111823500D03*
X97157540Y-111823500D03*
X96657160Y-111823500D03*
X96156780Y-111823500D03*
X95656400Y-111823500D03*
X95158560Y-111823500D03*
D33*
X101854000Y-115824000D03*
%TD*%
D34*
%TO.C,P101*%
X80450000Y-119726000D03*
X80450000Y-117726000D03*
X80450000Y-115726000D03*
X80450000Y-113726000D03*
%TD*%
D29*
%TO.C,P7*%
X97790000Y-82804000D03*
%TD*%
D23*
%TO.C,1PIN*%
X114853396Y-142000000D03*
%TD*%
%TO.C,1PIN*%
X79600000Y-142000000D03*
%TD*%
D35*
%TO.C,C1*%
X95946000Y-106045000D03*
X99126000Y-106045000D03*
%TD*%
%TO.C,C8*%
X95946000Y-103505000D03*
X99126000Y-103505000D03*
%TD*%
D36*
%TO.C,C10*%
X108331000Y-125411000D03*
X108331000Y-126811000D03*
%TD*%
D37*
%TO.C,C11*%
X110630025Y-133082975D03*
X111619975Y-132093025D03*
%TD*%
D36*
%TO.C,C12*%
X98552000Y-123382000D03*
X98552000Y-121982000D03*
%TD*%
%TO.C,C13*%
X93091000Y-127954000D03*
X93091000Y-126554000D03*
%TD*%
D38*
%TO.C,C19*%
X94296000Y-122174000D03*
X95696000Y-122174000D03*
%TD*%
D36*
%TO.C,C21*%
X92964000Y-122236000D03*
X92964000Y-123636000D03*
%TD*%
D38*
%TO.C,C22*%
X101900000Y-122700000D03*
X103300000Y-122700000D03*
%TD*%
%TO.C,C23*%
X110301000Y-121920000D03*
X108901000Y-121920000D03*
%TD*%
%TO.C,C27*%
X97093000Y-109474000D03*
X95693000Y-109474000D03*
%TD*%
%TO.C,C28*%
X100141000Y-108204000D03*
X98741000Y-108204000D03*
%TD*%
%TO.C,C29*%
X102427000Y-105410000D03*
X101027000Y-105410000D03*
%TD*%
%TO.C,C30*%
X104840000Y-108077000D03*
X103440000Y-108077000D03*
%TD*%
D39*
%TO.C,C34*%
X106934000Y-108712000D03*
X108458000Y-108712000D03*
%TD*%
D38*
%TO.C,C35*%
X94677000Y-137160000D03*
X96077000Y-137160000D03*
%TD*%
D39*
%TO.C,C36*%
X109728000Y-108712000D03*
X111252000Y-108712000D03*
%TD*%
D40*
%TO.C,C39*%
X110998000Y-117287000D03*
X110998000Y-114107000D03*
%TD*%
D36*
%TO.C,C41*%
X111760000Y-125792000D03*
X111760000Y-127192000D03*
%TD*%
%TO.C,C401*%
X93000000Y-130250000D03*
X93000000Y-131650000D03*
%TD*%
D41*
%TO.C,R1*%
X114312000Y-102870000D03*
X115812000Y-102870000D03*
%TD*%
D42*
%TO.C,R2*%
X111760000Y-129782000D03*
X111760000Y-128282000D03*
%TD*%
D41*
%TO.C,R17*%
X86372000Y-120396000D03*
X87872000Y-120396000D03*
%TD*%
%TO.C,R18*%
X88912000Y-120396000D03*
X90412000Y-120396000D03*
%TD*%
%TO.C,R19*%
X94246000Y-123698000D03*
X95746000Y-123698000D03*
%TD*%
D42*
%TO.C,R20*%
X97028000Y-121932000D03*
X97028000Y-123432000D03*
%TD*%
D41*
%TO.C,R25*%
X92341000Y-110236000D03*
X93841000Y-110236000D03*
%TD*%
D42*
%TO.C,R28*%
X114808000Y-84570000D03*
X114808000Y-83070000D03*
%TD*%
%TO.C,R34*%
X104394000Y-89166000D03*
X104394000Y-90666000D03*
%TD*%
%TO.C,R42*%
X91440000Y-88023000D03*
X91440000Y-89523000D03*
%TD*%
%TO.C,R48*%
X106807000Y-105930000D03*
X106807000Y-107430000D03*
%TD*%
%TO.C,R49*%
X108331000Y-105930000D03*
X108331000Y-107430000D03*
%TD*%
%TO.C,R50*%
X109855000Y-105930000D03*
X109855000Y-107430000D03*
%TD*%
%TO.C,R51*%
X111379000Y-105930000D03*
X111379000Y-107430000D03*
%TD*%
D41*
%TO.C,R103*%
X89150000Y-126000000D03*
X87650000Y-126000000D03*
%TD*%
%TO.C,R104*%
X89150000Y-127550000D03*
X87650000Y-127550000D03*
%TD*%
%TO.C,R401*%
X86750000Y-122500000D03*
X85250000Y-122500000D03*
%TD*%
D43*
%TO.C,U401*%
X91467000Y-132955000D03*
X91467000Y-131685000D03*
X91467000Y-130415000D03*
X91467000Y-129145000D03*
X86133000Y-129145000D03*
X86133000Y-130415000D03*
X86133000Y-131685000D03*
X86133000Y-132955000D03*
%TD*%
D44*
%TO.C,P3*%
X114300000Y-118014000D03*
D45*
X114300000Y-116014000D03*
X114300000Y-114014000D03*
X114300000Y-112014000D03*
X114300000Y-110014000D03*
X114300000Y-108014000D03*
X114300000Y-106014000D03*
%TD*%
D46*
%TO.C,L1*%
X91400000Y-115062000D03*
X86400000Y-115062000D03*
%TD*%
D47*
%TO.C,Q5*%
X89202800Y-88522450D03*
D48*
X84402800Y-88522450D03*
D49*
X84992800Y-96382450D03*
%TD*%
D47*
%TO.C,Q1*%
X114902800Y-88522450D03*
D48*
X110102800Y-88522450D03*
D49*
X110692800Y-96382450D03*
%TD*%
D50*
%TO.C,D6*%
X78400000Y-137900000D03*
X78400000Y-133100000D03*
%TD*%
D41*
%TO.C,R6*%
X110150000Y-111900000D03*
X111650000Y-111900000D03*
%TD*%
D51*
%TO.C,U4*%
X79806600Y-125496200D03*
X79806600Y-129496200D03*
D52*
X80556600Y-126196200D03*
X80556600Y-126846200D03*
X80556600Y-127496200D03*
X80556600Y-128146200D03*
X80556600Y-128796200D03*
D53*
X80006600Y-124296200D03*
D54*
X77656600Y-124296200D03*
X77656600Y-130696200D03*
D53*
X80006600Y-130696200D03*
%TD*%
D47*
%TO.C,Q3*%
X102102800Y-88522450D03*
D48*
X97302800Y-88522450D03*
D49*
X97892800Y-96382450D03*
%TD*%
G36*
X100272121Y-80792002D02*
G01*
X100318614Y-80845658D01*
X100330000Y-80898000D01*
X100330000Y-84836000D01*
X100329999Y-84836000D01*
X100816838Y-85566257D01*
X100837982Y-85634032D01*
X100838000Y-85636149D01*
X100838000Y-88647000D01*
X100817998Y-88715121D01*
X100764342Y-88761614D01*
X100712000Y-88773000D01*
X93852000Y-88773000D01*
X93783879Y-88752998D01*
X93737386Y-88699342D01*
X93726000Y-88647000D01*
X93726000Y-85795408D01*
X93746002Y-85727287D01*
X93785964Y-85688099D01*
X95376999Y-84709000D01*
X95377000Y-84708999D01*
X95377000Y-80898000D01*
X95397002Y-80829879D01*
X95450658Y-80783386D01*
X95503000Y-80772000D01*
X100204000Y-80772000D01*
X100272121Y-80792002D01*
G37*
G36*
X111956121Y-80792002D02*
G01*
X112002614Y-80845658D01*
X112014000Y-80898000D01*
X112014000Y-84328001D01*
X112390447Y-84578965D01*
X112399267Y-84585413D01*
X113617712Y-85560168D01*
X113658410Y-85618342D01*
X113665000Y-85658558D01*
X113665000Y-88647000D01*
X113644998Y-88715121D01*
X113591342Y-88761614D01*
X113539000Y-88773000D01*
X106679000Y-88773000D01*
X106610879Y-88752998D01*
X106564386Y-88699342D01*
X106553000Y-88647000D01*
X106553000Y-85741872D01*
X106557440Y-85708719D01*
X106933999Y-84328000D01*
X106934000Y-84327998D01*
X106934000Y-80898000D01*
X106954002Y-80829879D01*
X107007658Y-80783386D01*
X107060000Y-80772000D01*
X111888000Y-80772000D01*
X111956121Y-80792002D01*
G37*
G36*
X87572121Y-80792002D02*
G01*
X87618614Y-80845658D01*
X87630000Y-80898000D01*
X87630000Y-88647000D01*
X87609998Y-88715121D01*
X87556342Y-88761614D01*
X87504000Y-88773000D01*
X80644000Y-88773000D01*
X80575879Y-88752998D01*
X80529386Y-88699342D01*
X80518000Y-88647000D01*
X80518000Y-85664279D01*
X80538002Y-85596158D01*
X80572617Y-85560450D01*
X82549999Y-84201000D01*
X82550000Y-84201000D01*
X82550000Y-80898000D01*
X82570002Y-80829879D01*
X82623658Y-80783386D01*
X82676000Y-80772000D01*
X87504000Y-80772000D01*
X87572121Y-80792002D01*
G37*
G36*
X88842121Y-101747002D02*
G01*
X88888614Y-101800658D01*
X88900000Y-101853000D01*
X88900000Y-108459000D01*
X88879998Y-108527121D01*
X88826342Y-108573614D01*
X88774000Y-108585000D01*
X84074000Y-108585000D01*
X84074000Y-111126000D01*
X84053998Y-111194121D01*
X84000342Y-111240614D01*
X83948000Y-111252000D01*
X79501000Y-111252000D01*
X79432879Y-111231998D01*
X79386386Y-111178342D01*
X79375000Y-111126000D01*
X79375000Y-101853000D01*
X79395002Y-101784879D01*
X79448658Y-101738386D01*
X79501000Y-101727000D01*
X88774000Y-101727000D01*
X88842121Y-101747002D01*
G37*
G36*
X92471931Y-92222002D02*
G01*
X92492905Y-92238905D01*
X94197095Y-93943095D01*
X94231121Y-94005407D01*
X94234000Y-94032190D01*
X94234000Y-101474000D01*
X94213998Y-101542121D01*
X94160342Y-101588614D01*
X94108000Y-101600000D01*
X92836000Y-101600000D01*
X92767879Y-101579998D01*
X92721386Y-101526342D01*
X92710000Y-101474000D01*
X92710000Y-100076000D01*
X90931998Y-100076000D01*
X89877095Y-101130904D01*
X89814783Y-101164930D01*
X89743968Y-101159865D01*
X89687132Y-101117318D01*
X89662321Y-101050798D01*
X89662000Y-101041809D01*
X89662000Y-92328000D01*
X89682002Y-92259879D01*
X89735658Y-92213386D01*
X89788000Y-92202000D01*
X92403810Y-92202000D01*
X92471931Y-92222002D01*
G37*
G36*
X104923511Y-92476002D02*
G01*
X104937390Y-92486334D01*
X106636000Y-93942285D01*
X106674704Y-94001804D01*
X106680000Y-94037951D01*
X106680000Y-100204000D01*
X106659998Y-100272121D01*
X106606342Y-100318614D01*
X106554000Y-100330000D01*
X103250000Y-100330000D01*
X103181879Y-100309998D01*
X103135386Y-100256342D01*
X103124000Y-100204000D01*
X103124000Y-92582000D01*
X103144002Y-92513879D01*
X103197658Y-92467386D01*
X103250000Y-92456000D01*
X104855390Y-92456000D01*
X104923511Y-92476002D01*
G37*
%LPD*%
M02*
