%TF.GenerationSoftware,KiCad,Pcbnew,9.0.2*%
%TF.CreationDate,2026-05-29T08:24:13+07:00*%
%TF.ProjectId,after-remap,61667465-722d-4726-956d-61702e6b6963,A*%
%TF.SameCoordinates,Original*%
%TF.FileFunction,Copper,L4,Bot*%
%TF.FilePolarity,Positive*%
%FSLAX46Y46*%
G04 Gerber Fmt 4.6, Leading zero omitted, Abs format (unit mm)*
G04 Created by KiCad (PCBNEW 9.0.2) date 2026-05-29 08:24:13*
%MOMM*%
%LPD*%
G01*
G04 APERTURE LIST*
%TA.AperFunction,ComponentPad*%
%ADD10O,3.048000X1.524000*%
%TD*%
%TA.AperFunction,ComponentPad*%
%ADD11R,1.200000X1.500000*%
%TD*%
%TA.AperFunction,ComponentPad*%
%ADD12O,1.200000X1.500000*%
%TD*%
%TA.AperFunction,ComponentPad*%
%ADD13O,1.600000X1.600000*%
%TD*%
%TA.AperFunction,ComponentPad*%
%ADD14R,1.200000X1.400000*%
%TD*%
%TA.AperFunction,ComponentPad*%
%ADD15O,1.200000X1.400000*%
%TD*%
%TA.AperFunction,ComponentPad*%
%ADD16C,2.200000*%
%TD*%
%TA.AperFunction,ComponentPad*%
%ADD17C,5.600000*%
%TD*%
%TA.AperFunction,ViaPad*%
%ADD18C,0.800000*%
%TD*%
%TA.AperFunction,ViaPad*%
%ADD19C,0.889000*%
%TD*%
%TA.AperFunction,ViaPad*%
%ADD20C,1.524000*%
%TD*%
%TA.AperFunction,Conductor*%
%ADD21C,0.254000*%
%TD*%
%TA.AperFunction,Conductor*%
%ADD22C,0.635000*%
%TD*%
G04 APERTURE END LIST*
D10*
%TO.P,K1,1,P1*%
%TO.N,Net-(K1-P1)*%
X253500000Y-148140000D03*
%TO.P,K1,2,PM*%
%TO.N,+5V*%
X253500000Y-145600000D03*
%TO.P,K1,3,P3*%
%TO.N,GND*%
X253500000Y-143060000D03*
%TD*%
D11*
%TO.P,TEMP/HALL,1,1*%
%TO.N,+5V*%
X212300000Y-152600000D03*
D12*
%TO.P,TEMP/HALL,2,2*%
%TO.N,/Filters/TEMP_MOTOR*%
X214300000Y-152600000D03*
%TO.P,TEMP/HALL,3,3*%
%TO.N,/Filters/HALL1_IN*%
X216300000Y-152600000D03*
%TO.P,TEMP/HALL,4,4*%
%TO.N,/Filters/HALL2_IN*%
X218300000Y-152600000D03*
%TO.P,TEMP/HALL,5,5*%
%TO.N,/Filters/HALL3_IN*%
X220300000Y-152600000D03*
%TO.P,TEMP/HALL,6,6*%
%TO.N,GND*%
X222300000Y-152600000D03*
%TD*%
D11*
%TO.P,SWD,1,1*%
%TO.N,VCC*%
X226600000Y-152600000D03*
D12*
%TO.P,SWD,2,2*%
%TO.N,SWCLK*%
X228600000Y-152600000D03*
%TO.P,SWD,3,3*%
%TO.N,GND*%
X230600000Y-152600000D03*
%TO.P,SWD,4,4*%
%TO.N,SWDIO*%
X232600000Y-152600000D03*
%TO.P,SWD,5,5*%
%TO.N,NRST*%
X234600000Y-152600000D03*
%TO.P,SWD,6,6*%
%TO.N,unconnected-(P2-Pad6)*%
X236600000Y-152600000D03*
%TD*%
D13*
%TO.P,CAN,1,P1*%
%TO.N,GND*%
X201900000Y-151500000D03*
%TO.P,CAN,2,P2*%
%TO.N,/CAN bus transceiver/CANL*%
X203900000Y-151500000D03*
%TO.P,CAN,3,P3*%
%TO.N,/CAN bus transceiver/CANH*%
X205900000Y-151500000D03*
%TO.P,CAN,4,P4*%
%TO.N,+5V*%
X207900000Y-151500000D03*
%TD*%
D14*
%TO.P,PERIF,1,P1*%
%TO.N,+5V*%
X240900000Y-151500000D03*
D15*
%TO.P,PERIF,2,P2*%
%TO.N,VCC*%
X242900000Y-151500000D03*
%TO.P,PERIF,3,P3*%
%TO.N,GND*%
X244900000Y-151500000D03*
%TO.P,PERIF,4,P4*%
%TO.N,/SCK_ADC_EXT*%
X246900000Y-151500000D03*
%TO.P,PERIF,5,P5*%
%TO.N,/TX_SDA*%
X248900000Y-151500000D03*
%TO.P,PERIF,6,P6*%
%TO.N,/RX_SCL_MOSI*%
X250900000Y-151500000D03*
%TO.P,PERIF,7,P7*%
%TO.N,/MISO_RX_SCL*%
X252900000Y-151500000D03*
%TD*%
D16*
%TO.P,C42,1*%
%TO.N,V_SUPPLY*%
X210749619Y-42150000D03*
%TO.P,C42,2*%
%TO.N,GND*%
X210749619Y-34650000D03*
%TD*%
D17*
%TO.P,H1,1*%
%TO.N,N/C*%
X198200000Y-32100000D03*
%TD*%
%TO.P,H8,1,1*%
%TO.N,/Power MOSFETS/Q5-s_Q6-d*%
X249590000Y-74100000D03*
%TD*%
D16*
%TO.P,C46,1*%
%TO.N,V_SUPPLY*%
X249250381Y-42150000D03*
%TO.P,C46,2*%
%TO.N,GND*%
X249250381Y-34650000D03*
%TD*%
D17*
%TO.P,H6,1,1*%
%TO.N,/Power MOSFETS/Q1-s_Q2-d*%
X210788935Y-74093501D03*
%TD*%
%TO.P,H3,1*%
%TO.N,N/C*%
X260800000Y-151800000D03*
%TD*%
%TO.P,H5,1,1*%
%TO.N,V_SUPPLY*%
X200700000Y-50200000D03*
%TD*%
%TO.P,H9,1,1*%
%TO.N,GND*%
X230600000Y-97000000D03*
%TD*%
%TO.P,H7,1,1*%
%TO.N,/Power MOSFETS/Q3-s_Q4-d*%
X230150000Y-74100000D03*
%TD*%
%TO.P,H2,1*%
%TO.N,N/C*%
X260805635Y-32115123D03*
%TD*%
D16*
%TO.P,C45,1*%
%TO.N,V_SUPPLY*%
X230000000Y-42150000D03*
%TO.P,C45,2*%
%TO.N,GND*%
X230000000Y-34650000D03*
%TD*%
D17*
%TO.P,H4,1*%
%TO.N,N/C*%
X198600000Y-146600000D03*
%TD*%
D18*
%TO.N,GND*%
X222750000Y-126250000D03*
%TO.N,+5V*%
X206800000Y-131900000D03*
X212950000Y-119750000D03*
D19*
%TO.N,GND*%
X233400000Y-100750000D03*
D18*
X238500000Y-130100000D03*
X261850000Y-90530000D03*
X235650000Y-148850000D03*
X230800000Y-118600000D03*
X239700000Y-30800000D03*
X261900000Y-55520000D03*
X261850000Y-65130000D03*
D19*
X223950869Y-78143919D03*
X202150000Y-93950000D03*
D18*
X220350000Y-124850000D03*
X213757580Y-120657580D03*
X243800000Y-137800000D03*
D19*
X205100000Y-91700000D03*
D18*
X261850000Y-105170000D03*
X228900000Y-143000000D03*
D19*
X242400000Y-92100302D03*
D18*
X261850000Y-75290000D03*
X226600000Y-141900000D03*
X223875385Y-129676799D03*
X235400000Y-131700000D03*
X197000000Y-85670000D03*
X238420000Y-124000000D03*
X261850000Y-120410000D03*
X261850000Y-145810000D03*
X216400000Y-143900000D03*
X197000000Y-100910000D03*
D19*
X227850000Y-93250000D03*
D18*
X261850000Y-140730000D03*
X225200000Y-138000000D03*
X237400000Y-133400000D03*
X258700000Y-79400000D03*
X261850000Y-70210000D03*
X227750000Y-144600000D03*
X233950000Y-149800000D03*
X235650000Y-146850000D03*
X237100000Y-115000000D03*
X231900000Y-131100000D03*
X248600000Y-146400000D03*
X227750000Y-148600000D03*
X237000000Y-117500000D03*
X220500000Y-30800000D03*
X197000000Y-75510000D03*
D19*
X214200000Y-100850000D03*
D18*
X261850000Y-125490000D03*
X234100000Y-125200000D03*
X234100000Y-115000000D03*
X246000000Y-112500000D03*
X197000000Y-105990000D03*
X197000000Y-80590000D03*
X230100000Y-136900000D03*
X232796220Y-110027802D03*
X261850000Y-100690000D03*
X224500000Y-133550000D03*
X238500000Y-141900000D03*
X228800000Y-149850000D03*
X197000000Y-66380000D03*
X229375755Y-105509293D03*
X230200000Y-124100000D03*
X204900000Y-148900000D03*
D19*
X233400000Y-93250000D03*
D18*
X233980000Y-147690000D03*
X261850000Y-135650000D03*
D19*
X238500000Y-58350000D03*
D18*
X230500000Y-143000000D03*
X218250000Y-113650000D03*
X230500000Y-133400000D03*
X261850000Y-85450000D03*
D19*
X239350000Y-80700000D03*
X242700000Y-75700000D03*
D18*
X234500000Y-117700000D03*
X237772263Y-110939472D03*
X218850000Y-88700000D03*
D19*
X222300000Y-60250000D03*
D18*
X197000000Y-90750000D03*
X261850000Y-80370000D03*
X247100000Y-125900000D03*
X261850000Y-130570000D03*
X197000000Y-61300000D03*
X228700000Y-117900000D03*
D19*
X203639800Y-78300000D03*
D18*
X235267426Y-136751674D03*
X248400000Y-123300000D03*
X230700000Y-137900000D03*
X261900000Y-40280000D03*
X236677026Y-138100000D03*
X213850000Y-126650000D03*
X243700000Y-120000000D03*
X261900000Y-50440000D03*
X219600000Y-144000000D03*
X197000000Y-70430000D03*
X261900000Y-45360000D03*
X197000000Y-95830000D03*
X261850000Y-115330000D03*
D19*
X225800000Y-93100000D03*
X221200000Y-75500000D03*
D18*
X261850000Y-110250000D03*
X227750000Y-146600000D03*
X198400000Y-37400000D03*
X231450000Y-150050000D03*
X218850000Y-91900000D03*
X197000000Y-111070000D03*
X261850000Y-60050000D03*
D19*
X203800000Y-75600000D03*
D18*
X261850000Y-95610000D03*
%TO.N,SWCLK*%
X231379323Y-132624667D03*
%TO.N,SWDIO*%
X232600000Y-132200000D03*
%TO.N,VCC*%
X225522006Y-137043532D03*
X228700000Y-128700000D03*
X238200000Y-143095200D03*
X238155839Y-117193917D03*
X198250000Y-127050000D03*
X227300000Y-143100000D03*
X225000000Y-130500000D03*
X241227247Y-138129892D03*
X240104800Y-130100000D03*
X231699000Y-123622198D03*
%TO.N,V_SUPPLY*%
X227100000Y-60900000D03*
D20*
X244500000Y-113100000D03*
D18*
X252500000Y-63800000D03*
X207700000Y-57747500D03*
D20*
X219450000Y-114500000D03*
D18*
X233100000Y-57900000D03*
X227100000Y-57900000D03*
X233100000Y-63900000D03*
X227100000Y-63900000D03*
X230100000Y-63900000D03*
X210700000Y-60747500D03*
X249500000Y-57800000D03*
X210700000Y-57747500D03*
X207700000Y-63747500D03*
X213700000Y-57747500D03*
X233100000Y-60900000D03*
X246500000Y-57800000D03*
X230100000Y-57900000D03*
X249500000Y-63800000D03*
X207700000Y-60747500D03*
X213700000Y-60747500D03*
X252500000Y-60800000D03*
X246500000Y-63800000D03*
X252500000Y-57800000D03*
X213700000Y-63747500D03*
D20*
X228100000Y-105100000D03*
D18*
X210700000Y-63747500D03*
X230100000Y-60900000D03*
X246500000Y-60800000D03*
X249500000Y-60800000D03*
%TO.N,/MCU/AN_IN*%
X223100000Y-127600000D03*
X231900000Y-137700000D03*
%TO.N,/MCU/SERVO*%
X225850000Y-133800000D03*
X249300000Y-147300000D03*
%TO.N,/MCU/SENS1*%
X250300000Y-129400000D03*
X238200000Y-140900000D03*
%TO.N,/MCU/SENS2*%
X250400000Y-125600000D03*
X237401631Y-139001631D03*
%TO.N,/Mosfet driver/M_H1*%
X202700000Y-74900000D03*
X230466984Y-114003109D03*
%TO.N,/Mosfet driver/M_L1*%
X232000000Y-114003108D03*
X203300000Y-93300000D03*
%TO.N,/MCU/SENS3*%
X250400000Y-122400000D03*
X237098314Y-141998314D03*
%TO.N,/Mosfet driver/M_H2*%
X222400000Y-74900000D03*
X234597480Y-113805388D03*
%TO.N,/Mosfet driver/M_L2*%
X235000000Y-110900000D03*
X224504700Y-92800000D03*
%TO.N,/Mosfet driver/M_H3*%
X236708078Y-114003108D03*
X241700000Y-74900000D03*
%TO.N,/Mosfet driver/M_L3*%
X241000000Y-91800000D03*
X238248608Y-114662847D03*
%TO.N,/MCU/BR_SO2*%
X240800000Y-118800000D03*
X240900000Y-133600000D03*
%TO.N,/MCU/BR_SO1*%
X239400000Y-118100000D03*
X240500000Y-132600000D03*
%TO.N,/MCU/DC_CAL*%
X231900000Y-121900000D03*
X237966136Y-128971802D03*
%TO.N,/MCU/L1*%
X235346020Y-127789508D03*
X235300000Y-118757892D03*
%TO.N,/MCU/EN_GATE*%
X233700000Y-118800000D03*
X229700000Y-132300000D03*
%TO.N,/MCU/FAULT*%
X229300000Y-133400000D03*
X229600000Y-118500000D03*
%TO.N,/MCU/H3*%
X237451631Y-118751631D03*
X233000000Y-130700000D03*
%TO.N,/Filters/HALL2_OUT*%
X219500000Y-145200000D03*
X229500000Y-136000000D03*
%TO.N,/Filters/HALL1_OUT*%
X216400000Y-145100000D03*
X228900000Y-135200000D03*
%TO.N,/MCU/ADC_TEMP*%
X259600000Y-78700000D03*
X245000000Y-138000000D03*
%TO.N,/Filters/TEMP_MOTOR*%
X231300000Y-139200000D03*
%TO.N,Net-(U1-VCAP2)*%
X232000000Y-127000000D03*
X229800000Y-130500000D03*
%TO.N,Net-(U3-DVDD)*%
X238600000Y-121709372D03*
X232115978Y-118757889D03*
%TO.N,Net-(D4-K)*%
X217900000Y-117600000D03*
X228624855Y-115773731D03*
%TO.N,/Power MOSFETS/Q1-s_Q2-d*%
X213700000Y-82495000D03*
X210700000Y-82495000D03*
X207700000Y-82495000D03*
X207700000Y-79495000D03*
X213700000Y-85495000D03*
X244800000Y-120700000D03*
X231900000Y-107800000D03*
D19*
X203800000Y-79700000D03*
D18*
X213700000Y-79495000D03*
X207700000Y-85495000D03*
X210700000Y-85495000D03*
X210700000Y-79495000D03*
%TO.N,/Power MOSFETS/Q3-s_Q4-d*%
X230110000Y-85517500D03*
X233110000Y-85517500D03*
X233110000Y-82517500D03*
X247400000Y-123300000D03*
D19*
X223339800Y-79800000D03*
D18*
X232816853Y-106183147D03*
X227110000Y-82517500D03*
X230110000Y-82517500D03*
X233110000Y-79517500D03*
X227110000Y-79517500D03*
X227110000Y-85517500D03*
X230110000Y-79517500D03*
%TO.N,/Power MOSFETS/Q5-s_Q6-d*%
X249500000Y-85495000D03*
X249500000Y-79495000D03*
X252500000Y-85495000D03*
X246500000Y-85495000D03*
X249500000Y-82495000D03*
D19*
X238250000Y-79950000D03*
D18*
X246500000Y-79495000D03*
X246500000Y-82495000D03*
X245700000Y-126000000D03*
X252500000Y-82495000D03*
X252500000Y-79495000D03*
X237702184Y-109917708D03*
%TO.N,/TX_SDA*%
X235300000Y-135400000D03*
X236200000Y-130700000D03*
%TO.N,/SCK_ADC_EXT*%
X235051834Y-133859656D03*
%TO.N,/MISO_RX_SCL*%
X237162798Y-135540871D03*
%TO.N,/RX_SCL_MOSI*%
X235257477Y-137850000D03*
%TO.N,/Power MOSFETS/Q2-s*%
X233328435Y-114003109D03*
X215516927Y-100783073D03*
%TO.N,/Power MOSFETS/Q2-g*%
X206000000Y-92600000D03*
%TO.N,Net-(U3-VSENSE)*%
X228100000Y-118900000D03*
X214750000Y-125850000D03*
%TO.N,/Power MOSFETS/Q6-s*%
X239600000Y-113900000D03*
X241900000Y-93100000D03*
%TD*%
D21*
%TO.N,/RX_SCL_MOSI*%
X250400000Y-151500000D02*
X250900000Y-151500000D01*
X243300000Y-144400000D02*
X250400000Y-151500000D01*
X235257477Y-142557477D02*
X237100000Y-144400000D01*
X235257477Y-137850000D02*
X235257477Y-142557477D01*
X237100000Y-144400000D02*
X243300000Y-144400000D01*
D22*
%TO.N,/Mosfet driver/M_H2*%
X222400000Y-97032440D02*
X222400000Y-74900000D01*
X234100000Y-108732440D02*
X222400000Y-97032440D01*
X234100000Y-113548961D02*
X234100000Y-108732440D01*
X234356427Y-113805388D02*
X234100000Y-113548961D01*
X234597480Y-113805388D02*
X234356427Y-113805388D01*
%TO.N,/Mosfet driver/M_H3*%
X235900000Y-80700000D02*
X241700000Y-74900000D01*
X235900000Y-113195030D02*
X235900000Y-80700000D01*
X236708078Y-114003108D02*
X235900000Y-113195030D01*
D21*
%TO.N,SWCLK*%
X232805800Y-147494200D02*
X232805800Y-134051144D01*
X232805800Y-134051144D02*
X231379323Y-132624667D01*
X228600000Y-152600000D02*
X228600000Y-151700000D01*
X228600000Y-151700000D02*
X232805800Y-147494200D01*
%TO.N,SWDIO*%
X233187801Y-152012199D02*
X233187801Y-132787801D01*
X233187801Y-132787801D02*
X232600000Y-132200000D01*
X232600000Y-152600000D02*
X233187801Y-152012199D01*
%TO.N,/MCU/AN_IN*%
X223100000Y-129898152D02*
X227696048Y-134494200D01*
X223100000Y-127600000D02*
X223100000Y-129898152D01*
X231900000Y-137001848D02*
X231900000Y-137700000D01*
X227696048Y-134494200D02*
X229392352Y-134494200D01*
X229392352Y-134494200D02*
X231900000Y-137001848D01*
X231900000Y-137700000D02*
X232100000Y-137500000D01*
D22*
%TO.N,/Mosfet driver/M_H1*%
X203037000Y-85416045D02*
X203037000Y-85337000D01*
X230466983Y-112766983D02*
X226263000Y-108563000D01*
X203037000Y-85337000D02*
X202700000Y-85000000D01*
X226183956Y-108563000D02*
X203037000Y-85416045D01*
X226263000Y-108563000D02*
X226183956Y-108563000D01*
X230466984Y-114003109D02*
X230466983Y-112766983D01*
X202700000Y-85000000D02*
X202700000Y-74900000D01*
%TO.N,/Mosfet driver/M_L1*%
X232000000Y-114003108D02*
X232000000Y-114103108D01*
X231203699Y-114899409D02*
X230095724Y-114899409D01*
X216413227Y-100411813D02*
X215888187Y-99886773D01*
X232000000Y-114103108D02*
X231203699Y-114899409D01*
X209640800Y-93640800D02*
X203640800Y-93640800D01*
X216381937Y-101185622D02*
X216413227Y-101154333D01*
X215888187Y-99886773D02*
X215886773Y-99886773D01*
X230095724Y-114899409D02*
X216381937Y-101185622D01*
X215886773Y-99886773D02*
X209640800Y-93640800D01*
X216413227Y-101154333D02*
X216413227Y-100411813D01*
X203640800Y-93640800D02*
X203300000Y-93300000D01*
%TO.N,/Mosfet driver/M_L2*%
X235100000Y-107100000D02*
X224504700Y-96504700D01*
X235000000Y-110900000D02*
X235100000Y-110800000D01*
X224540800Y-92836100D02*
X224504700Y-92800000D01*
X224504700Y-96504700D02*
X224504700Y-92800000D01*
X235100000Y-110800000D02*
X235100000Y-107100000D01*
%TO.N,/Mosfet driver/M_L3*%
X238668563Y-94131437D02*
X238668563Y-114242892D01*
X241000000Y-91800000D02*
X238668563Y-94131437D01*
X238248608Y-114662847D02*
X238248608Y-114548608D01*
X238668563Y-114242892D02*
X238248608Y-114662847D01*
D21*
%TO.N,/MCU/BR_SO2*%
X241205800Y-119205800D02*
X241205800Y-133294200D01*
X240800000Y-118800000D02*
X241205800Y-119205800D01*
X241205800Y-133294200D02*
X240900000Y-133600000D01*
%TO.N,/MCU/BR_SO1*%
X239400000Y-118100000D02*
X239400000Y-131500000D01*
X239400000Y-131500000D02*
X240500000Y-132600000D01*
%TO.N,/MCU/DC_CAL*%
X237800000Y-128805666D02*
X237966136Y-128971802D01*
%TO.N,/MCU/L1*%
X235300000Y-118757892D02*
X235300000Y-118857892D01*
X236000000Y-119557892D02*
X236000000Y-127135528D01*
X235300000Y-118857892D02*
X236000000Y-119557892D01*
X236000000Y-127135528D02*
X235346020Y-127789508D01*
%TO.N,/MCU/EN_GATE*%
X230994200Y-121505800D02*
X233700000Y-118800000D01*
X230994200Y-130505800D02*
X230994200Y-121505800D01*
X229700000Y-132300000D02*
X229700000Y-131800000D01*
X229700000Y-131800000D02*
X230994200Y-130505800D01*
%TO.N,/MCU/FAULT*%
X229300000Y-133400000D02*
X229300000Y-133100000D01*
X229300000Y-133100000D02*
X228994200Y-132794200D01*
X228994200Y-130307648D02*
X229405800Y-129896048D01*
X228994200Y-132794200D02*
X228994200Y-130307648D01*
X229405800Y-129896048D02*
X229405800Y-118694200D01*
X229405800Y-118694200D02*
X229600000Y-118500000D01*
%TO.N,/MCU/H3*%
X237451631Y-118751631D02*
X237451631Y-126748369D01*
X237451631Y-126748369D02*
X233500000Y-130700000D01*
X233500000Y-130700000D02*
X233000000Y-130700000D01*
%TO.N,/Filters/HALL2_OUT*%
X229200000Y-136300000D02*
X228400000Y-136300000D01*
X228400000Y-136300000D02*
X219500000Y-145200000D01*
X229500000Y-136000000D02*
X229200000Y-136300000D01*
%TO.N,/Filters/HALL1_OUT*%
X216400000Y-145100000D02*
X226300000Y-135200000D01*
X226300000Y-135200000D02*
X228900000Y-135200000D01*
%TO.N,/MCU/ADC_TEMP*%
X259600000Y-123400000D02*
X245000000Y-138000000D01*
X259600000Y-78700000D02*
X259600000Y-123400000D01*
%TO.N,/Filters/TEMP_MOTOR*%
X227000000Y-139200000D02*
X214300000Y-151900000D01*
X214300000Y-151900000D02*
X214300000Y-152600000D01*
X231300000Y-139200000D02*
X227000000Y-139200000D01*
D22*
%TO.N,/Power MOSFETS/Q1-s_Q2-d*%
X226500000Y-107800000D02*
X231900000Y-107800000D01*
X203800000Y-85100000D02*
X226500000Y-107800000D01*
X203800000Y-79700000D02*
X203800000Y-85100000D01*
%TO.N,/Power MOSFETS/Q3-s_Q4-d*%
X223300000Y-79839800D02*
X223339800Y-79800000D01*
X232783147Y-106183147D02*
X223300000Y-96700000D01*
X232816853Y-106183147D02*
X232783147Y-106183147D01*
X223300000Y-96700000D02*
X223300000Y-79839800D01*
%TO.N,/Power MOSFETS/Q5-s_Q6-d*%
X237515524Y-109915524D02*
X237700000Y-109915524D01*
X237700000Y-109915524D02*
X237702184Y-109917708D01*
X236800000Y-81400000D02*
X236800000Y-109200000D01*
X238250000Y-79950000D02*
X236800000Y-81400000D01*
X236800000Y-109200000D02*
X237515524Y-109915524D01*
D21*
%TO.N,/TX_SDA*%
X248500000Y-151500000D02*
X241900000Y-144900000D01*
X248900000Y-151500000D02*
X248500000Y-151500000D01*
X241900000Y-144900000D02*
X236700000Y-144900000D01*
X235500000Y-135200000D02*
X235500000Y-134800000D01*
X235500000Y-134800000D02*
X236200000Y-134100000D01*
X235300000Y-135400000D02*
X235500000Y-135200000D01*
X236700000Y-144900000D02*
X234551677Y-142751677D01*
X236200000Y-134100000D02*
X236200000Y-130700000D01*
X234551677Y-142751677D02*
X234551677Y-136148323D01*
X234551677Y-136148323D02*
X235300000Y-135400000D01*
X235300000Y-135400000D02*
X235200000Y-135400000D01*
%TO.N,/SCK_ADC_EXT*%
X234000000Y-143100000D02*
X234000000Y-134911490D01*
X236300000Y-145400000D02*
X234000000Y-143100000D01*
X234000000Y-134911490D02*
X235051834Y-133859656D01*
X240800000Y-145400000D02*
X236300000Y-145400000D01*
X246900000Y-151500000D02*
X240800000Y-145400000D01*
%TO.N,/MISO_RX_SCL*%
X252900000Y-151500000D02*
X251922000Y-150522000D01*
X235972226Y-136731443D02*
X237162798Y-135540871D01*
X251922000Y-150522000D02*
X250462230Y-150522000D01*
X250462230Y-150522000D02*
X243790230Y-143850000D01*
X235972226Y-142372226D02*
X235972226Y-136731443D01*
X243790230Y-143850000D02*
X237450000Y-143850000D01*
X237450000Y-143850000D02*
X235972226Y-142372226D01*
D22*
%TO.N,/Power MOSFETS/Q2-s*%
X233175239Y-114624761D02*
X232137591Y-115662409D01*
X229596300Y-115479029D02*
X215516927Y-101399657D01*
X215516927Y-101399657D02*
X215516927Y-100783073D01*
X229779680Y-115662409D02*
X229596300Y-115479029D01*
X233328435Y-114003109D02*
X233175239Y-114156305D01*
X232137591Y-115662409D02*
X229779680Y-115662409D01*
X233175239Y-114156305D02*
X233175239Y-114624761D01*
%TO.N,/Power MOSFETS/Q6-s*%
X241300000Y-93100000D02*
X239600000Y-94800000D01*
X241900000Y-93100000D02*
X241300000Y-93100000D01*
X239600000Y-94800000D02*
X239600000Y-113900000D01*
%TD*%
%TA.AperFunction,Conductor*%
%TO.N,GND*%
G36*
X232725635Y-148216401D02*
G01*
X232781568Y-148258273D01*
X232805985Y-148323737D01*
X232806301Y-148332583D01*
X232806301Y-151471500D01*
X232786616Y-151538539D01*
X232733812Y-151584294D01*
X232682301Y-151595500D01*
X232515834Y-151595500D01*
X232350758Y-151628336D01*
X232350750Y-151628338D01*
X232195244Y-151692750D01*
X232195235Y-151692755D01*
X232055288Y-151786265D01*
X232055284Y-151786268D01*
X231936268Y-151905284D01*
X231936265Y-151905288D01*
X231839367Y-152050307D01*
X231837478Y-152049045D01*
X231795610Y-152091653D01*
X231727469Y-152107101D01*
X231661794Y-152083257D01*
X231621669Y-152032063D01*
X231621622Y-152032088D01*
X231621498Y-152031844D01*
X231620669Y-152030787D01*
X231619409Y-152027746D01*
X231540804Y-151873475D01*
X231439032Y-151733397D01*
X231316602Y-151610967D01*
X231176524Y-151509195D01*
X231022257Y-151430591D01*
X230857589Y-151377087D01*
X230857581Y-151377085D01*
X230850000Y-151375884D01*
X230850000Y-152284314D01*
X230845606Y-152279920D01*
X230754394Y-152227259D01*
X230652661Y-152200000D01*
X230547339Y-152200000D01*
X230445606Y-152227259D01*
X230354394Y-152279920D01*
X230350000Y-152284314D01*
X230350000Y-151375884D01*
X230349999Y-151375884D01*
X230342418Y-151377085D01*
X230342410Y-151377087D01*
X230177742Y-151430591D01*
X230023475Y-151509195D01*
X229883397Y-151610967D01*
X229760967Y-151733397D01*
X229659195Y-151873475D01*
X229580588Y-152027748D01*
X229579325Y-152030800D01*
X229578534Y-152031780D01*
X229578378Y-152032088D01*
X229578313Y-152032055D01*
X229535482Y-152085202D01*
X229469187Y-152107265D01*
X229401488Y-152089984D01*
X229362414Y-152049116D01*
X229360633Y-152050307D01*
X229263734Y-151905288D01*
X229263731Y-151905284D01*
X229186665Y-151828218D01*
X229153180Y-151766895D01*
X229158164Y-151697203D01*
X229186663Y-151652858D01*
X232594620Y-148244902D01*
X232655943Y-148211417D01*
X232725635Y-148216401D01*
G37*
%TD.AperFunction*%
%TA.AperFunction,Conductor*%
G36*
X232657590Y-108099211D02*
G01*
X232662409Y-108103779D01*
X233491681Y-108933051D01*
X233525166Y-108994374D01*
X233528000Y-109020732D01*
X233528000Y-113225102D01*
X233508315Y-113292141D01*
X233455511Y-113337896D01*
X233398990Y-113347317D01*
X233398990Y-113348609D01*
X233263967Y-113348609D01*
X233137531Y-113373758D01*
X233137522Y-113373761D01*
X233018417Y-113423095D01*
X233018415Y-113423096D01*
X232911215Y-113494725D01*
X232911211Y-113494728D01*
X232820054Y-113585885D01*
X232820049Y-113585891D01*
X232767318Y-113664808D01*
X232713706Y-113709612D01*
X232644381Y-113718319D01*
X232581353Y-113688164D01*
X232561115Y-113664806D01*
X232508386Y-113585892D01*
X232508380Y-113585884D01*
X232417223Y-113494727D01*
X232417219Y-113494724D01*
X232310019Y-113423095D01*
X232310017Y-113423094D01*
X232190912Y-113373760D01*
X232190903Y-113373757D01*
X232064467Y-113348608D01*
X232064463Y-113348608D01*
X231935537Y-113348608D01*
X231935532Y-113348608D01*
X231809096Y-113373757D01*
X231809087Y-113373760D01*
X231689982Y-113423094D01*
X231689980Y-113423095D01*
X231582780Y-113494724D01*
X231582776Y-113494727D01*
X231491619Y-113585884D01*
X231491616Y-113585888D01*
X231419987Y-113693088D01*
X231419986Y-113693090D01*
X231370652Y-113812195D01*
X231370650Y-113812203D01*
X231355108Y-113890336D01*
X231353303Y-113893786D01*
X231353414Y-113897678D01*
X231337236Y-113924501D01*
X231322722Y-113952247D01*
X231319339Y-113954172D01*
X231317329Y-113957507D01*
X231289219Y-113971324D01*
X231262006Y-113986821D01*
X231258118Y-113986612D01*
X231254625Y-113988330D01*
X231223508Y-113984756D01*
X231192237Y-113983080D01*
X231189079Y-113980803D01*
X231185212Y-113980359D01*
X231160966Y-113960530D01*
X231135565Y-113942213D01*
X231133267Y-113937877D01*
X231131126Y-113936126D01*
X231126461Y-113925032D01*
X231115557Y-113904452D01*
X231113300Y-113897505D01*
X231096332Y-113812198D01*
X231046995Y-113693087D01*
X231046811Y-113692812D01*
X231045049Y-113687386D01*
X231044789Y-113678271D01*
X231038983Y-113649078D01*
X231038983Y-112691680D01*
X231038983Y-112691678D01*
X231000002Y-112546199D01*
X230924697Y-112415767D01*
X230818199Y-112309269D01*
X227092611Y-108583681D01*
X227059126Y-108522358D01*
X227064110Y-108452666D01*
X227105982Y-108396733D01*
X227171446Y-108372316D01*
X227180292Y-108372000D01*
X231545972Y-108372000D01*
X231593424Y-108381439D01*
X231684372Y-108419110D01*
X231709089Y-108429348D01*
X231709091Y-108429348D01*
X231709096Y-108429350D01*
X231835532Y-108454499D01*
X231835536Y-108454500D01*
X231835537Y-108454500D01*
X231964464Y-108454500D01*
X231964465Y-108454499D01*
X232006612Y-108446116D01*
X232090903Y-108429350D01*
X232090906Y-108429348D01*
X232090911Y-108429348D01*
X232210022Y-108380011D01*
X232317220Y-108308383D01*
X232408383Y-108217220D01*
X232471628Y-108122566D01*
X232525237Y-108077765D01*
X232594562Y-108069057D01*
X232657590Y-108099211D01*
G37*
%TD.AperFunction*%
%TA.AperFunction,Conductor*%
G36*
X258897897Y-29520185D02*
G01*
X258943652Y-29572989D01*
X258953596Y-29642147D01*
X258924571Y-29705703D01*
X258908171Y-29721447D01*
X258767072Y-29833969D01*
X258524481Y-30076560D01*
X258310578Y-30344787D01*
X258128051Y-30635278D01*
X257979199Y-30944371D01*
X257865891Y-31268185D01*
X257865888Y-31268193D01*
X257789547Y-31602669D01*
X257789545Y-31602681D01*
X257751135Y-31943581D01*
X257751135Y-32286664D01*
X257789545Y-32627564D01*
X257789547Y-32627576D01*
X257865888Y-32962052D01*
X257865891Y-32962060D01*
X257979199Y-33285874D01*
X258128051Y-33594967D01*
X258128053Y-33594970D01*
X258310579Y-33885460D01*
X258524482Y-34153686D01*
X258767072Y-34396276D01*
X259035298Y-34610179D01*
X259325788Y-34792705D01*
X259634887Y-34941560D01*
X259872399Y-35024669D01*
X259958697Y-35054866D01*
X259958705Y-35054869D01*
X259958708Y-35054869D01*
X259958709Y-35054870D01*
X260293181Y-35131211D01*
X260634094Y-35169622D01*
X260634095Y-35169623D01*
X260634098Y-35169623D01*
X260977175Y-35169623D01*
X260977175Y-35169622D01*
X261318089Y-35131211D01*
X261652561Y-35054870D01*
X261976383Y-34941560D01*
X262285482Y-34792705D01*
X262575972Y-34610179D01*
X262844198Y-34396276D01*
X263086788Y-34153686D01*
X263178553Y-34038615D01*
X263235741Y-33998476D01*
X263305553Y-33995626D01*
X263365823Y-34030971D01*
X263397416Y-34093290D01*
X263399500Y-34115929D01*
X263399500Y-149806259D01*
X263379815Y-149873298D01*
X263327011Y-149919053D01*
X263257853Y-149928997D01*
X263194297Y-149899972D01*
X263178553Y-149883572D01*
X263081153Y-149761437D01*
X262838562Y-149518846D01*
X262722682Y-149426435D01*
X262570337Y-149304944D01*
X262369716Y-149178886D01*
X262279844Y-149122416D01*
X261970751Y-148973564D01*
X261646937Y-148860256D01*
X261646929Y-148860253D01*
X261396072Y-148802997D01*
X261312454Y-148783912D01*
X261312450Y-148783911D01*
X261312441Y-148783910D01*
X260971541Y-148745500D01*
X260971537Y-148745500D01*
X260628463Y-148745500D01*
X260628458Y-148745500D01*
X260287558Y-148783910D01*
X260287546Y-148783912D01*
X259953070Y-148860253D01*
X259953062Y-148860256D01*
X259629248Y-148973564D01*
X259320155Y-149122416D01*
X259029664Y-149304943D01*
X258761437Y-149518846D01*
X258518846Y-149761437D01*
X258304943Y-150029664D01*
X258122416Y-150320155D01*
X257973564Y-150629248D01*
X257860256Y-150953062D01*
X257860253Y-150953070D01*
X257783912Y-151287546D01*
X257783910Y-151287558D01*
X257745500Y-151628458D01*
X257745500Y-151971541D01*
X257783910Y-152312441D01*
X257783911Y-152312450D01*
X257783912Y-152312454D01*
X257795258Y-152362165D01*
X257860253Y-152646929D01*
X257860256Y-152646937D01*
X257973564Y-152970751D01*
X258122416Y-153279844D01*
X258122418Y-153279847D01*
X258304944Y-153570337D01*
X258463698Y-153769408D01*
X258518846Y-153838562D01*
X258761437Y-154081153D01*
X258883573Y-154178553D01*
X258923713Y-154235741D01*
X258926563Y-154305553D01*
X258891218Y-154365823D01*
X258828899Y-154397416D01*
X258806260Y-154399500D01*
X198203481Y-154399500D01*
X198196528Y-154399305D01*
X197915900Y-154383545D01*
X197902082Y-154381988D01*
X197628422Y-154335491D01*
X197614865Y-154332397D01*
X197348130Y-154255552D01*
X197335006Y-154250959D01*
X197078554Y-154144734D01*
X197066025Y-154138701D01*
X196823078Y-154004428D01*
X196811304Y-153997030D01*
X196584918Y-153836401D01*
X196574046Y-153827731D01*
X196367068Y-153642764D01*
X196357235Y-153632931D01*
X196331827Y-153604500D01*
X196172268Y-153425953D01*
X196163598Y-153415081D01*
X196135209Y-153375071D01*
X196002969Y-153188695D01*
X195995571Y-153176921D01*
X195897790Y-153000000D01*
X195861294Y-152933967D01*
X195855265Y-152921445D01*
X195749040Y-152664993D01*
X195744447Y-152651869D01*
X195743023Y-152646926D01*
X195667599Y-152385123D01*
X195664508Y-152371577D01*
X195663533Y-152365837D01*
X195618010Y-152097909D01*
X195616454Y-152084098D01*
X195615689Y-152070480D01*
X195600695Y-151803471D01*
X195600500Y-151796519D01*
X195600500Y-151250000D01*
X200623391Y-151250000D01*
X201466988Y-151250000D01*
X201434075Y-151307007D01*
X201400000Y-151434174D01*
X201400000Y-151565826D01*
X201434075Y-151692993D01*
X201466988Y-151750000D01*
X200623391Y-151750000D01*
X200632009Y-151804413D01*
X200695244Y-151999029D01*
X200788140Y-152181349D01*
X200908417Y-152346894D01*
X200908417Y-152346895D01*
X201053104Y-152491582D01*
X201218650Y-152611859D01*
X201400968Y-152704754D01*
X201595578Y-152767988D01*
X201650000Y-152776607D01*
X201650000Y-151933012D01*
X201707007Y-151965925D01*
X201834174Y-152000000D01*
X201965826Y-152000000D01*
X202092993Y-151965925D01*
X202150000Y-151933012D01*
X202150000Y-152776606D01*
X202204421Y-152767988D01*
X202399031Y-152704754D01*
X202581349Y-152611859D01*
X202746894Y-152491582D01*
X202746895Y-152491582D01*
X202891582Y-152346895D01*
X202891582Y-152346894D01*
X202959430Y-152253512D01*
X203014760Y-152210847D01*
X203084374Y-152204868D01*
X203146169Y-152237474D01*
X203147429Y-152238717D01*
X203227792Y-152319080D01*
X203227796Y-152319083D01*
X203400507Y-152434486D01*
X203400508Y-152434486D01*
X203400509Y-152434487D01*
X203400511Y-152434488D01*
X203592409Y-152513974D01*
X203592414Y-152513976D01*
X203796136Y-152554499D01*
X203796139Y-152554500D01*
X203796141Y-152554500D01*
X204003861Y-152554500D01*
X204003862Y-152554499D01*
X204207586Y-152513976D01*
X204399493Y-152434486D01*
X204572204Y-152319083D01*
X204719083Y-152172204D01*
X204796899Y-152055744D01*
X204850510Y-152010941D01*
X204919835Y-152002234D01*
X204982862Y-152032388D01*
X205003099Y-152055743D01*
X205037416Y-152107101D01*
X205080916Y-152172203D01*
X205080919Y-152172207D01*
X205227792Y-152319080D01*
X205227796Y-152319083D01*
X205400507Y-152434486D01*
X205400508Y-152434486D01*
X205400509Y-152434487D01*
X205400511Y-152434488D01*
X205592409Y-152513974D01*
X205592414Y-152513976D01*
X205796136Y-152554499D01*
X205796139Y-152554500D01*
X205796141Y-152554500D01*
X206003861Y-152554500D01*
X206003862Y-152554499D01*
X206207586Y-152513976D01*
X206399493Y-152434486D01*
X206572204Y-152319083D01*
X206719083Y-152172204D01*
X206796899Y-152055744D01*
X206850510Y-152010941D01*
X206919835Y-152002234D01*
X206982862Y-152032388D01*
X207003099Y-152055743D01*
X207037416Y-152107101D01*
X207080916Y-152172203D01*
X207080919Y-152172207D01*
X207227792Y-152319080D01*
X207227796Y-152319083D01*
X207400507Y-152434486D01*
X207400508Y-152434486D01*
X207400509Y-152434487D01*
X207400511Y-152434488D01*
X207592409Y-152513974D01*
X207592414Y-152513976D01*
X207796136Y-152554499D01*
X207796139Y-152554500D01*
X207796141Y-152554500D01*
X208003861Y-152554500D01*
X208003862Y-152554499D01*
X208207586Y-152513976D01*
X208399493Y-152434486D01*
X208572204Y-152319083D01*
X208719083Y-152172204D01*
X208834486Y-151999493D01*
X208906793Y-151824928D01*
X211445500Y-151824928D01*
X211445500Y-153375063D01*
X211460266Y-153449301D01*
X211516515Y-153533484D01*
X211550234Y-153556014D01*
X211600699Y-153589734D01*
X211600702Y-153589734D01*
X211600703Y-153589735D01*
X211625666Y-153594700D01*
X211674933Y-153604500D01*
X212925066Y-153604499D01*
X212999301Y-153589734D01*
X213083484Y-153533484D01*
X213139734Y-153449301D01*
X213154500Y-153375067D01*
X213154499Y-152365834D01*
X213445500Y-152365834D01*
X213445500Y-152834165D01*
X213478336Y-152999241D01*
X213478338Y-152999249D01*
X213542750Y-153154755D01*
X213542755Y-153154764D01*
X213636265Y-153294711D01*
X213636268Y-153294715D01*
X213755284Y-153413731D01*
X213755288Y-153413734D01*
X213895235Y-153507244D01*
X213895241Y-153507247D01*
X213895242Y-153507248D01*
X214050751Y-153571662D01*
X214215834Y-153604499D01*
X214215838Y-153604500D01*
X214215839Y-153604500D01*
X214384162Y-153604500D01*
X214384163Y-153604499D01*
X214549249Y-153571662D01*
X214704758Y-153507248D01*
X214844712Y-153413734D01*
X214963734Y-153294712D01*
X215057248Y-153154758D01*
X215121662Y-152999249D01*
X215154500Y-152834161D01*
X215154500Y-152365839D01*
X215154499Y-152365834D01*
X215445500Y-152365834D01*
X215445500Y-152834165D01*
X215478336Y-152999241D01*
X215478338Y-152999249D01*
X215542750Y-153154755D01*
X215542755Y-153154764D01*
X215636265Y-153294711D01*
X215636268Y-153294715D01*
X215755284Y-153413731D01*
X215755288Y-153413734D01*
X215895235Y-153507244D01*
X215895241Y-153507247D01*
X215895242Y-153507248D01*
X216050751Y-153571662D01*
X216215834Y-153604499D01*
X216215838Y-153604500D01*
X216215839Y-153604500D01*
X216384162Y-153604500D01*
X216384163Y-153604499D01*
X216549249Y-153571662D01*
X216704758Y-153507248D01*
X216844712Y-153413734D01*
X216963734Y-153294712D01*
X217057248Y-153154758D01*
X217121662Y-152999249D01*
X217154500Y-152834161D01*
X217154500Y-152365839D01*
X217154499Y-152365834D01*
X217445500Y-152365834D01*
X217445500Y-152834165D01*
X217478336Y-152999241D01*
X217478338Y-152999249D01*
X217542750Y-153154755D01*
X217542755Y-153154764D01*
X217636265Y-153294711D01*
X217636268Y-153294715D01*
X217755284Y-153413731D01*
X217755288Y-153413734D01*
X217895235Y-153507244D01*
X217895241Y-153507247D01*
X217895242Y-153507248D01*
X218050751Y-153571662D01*
X218215834Y-153604499D01*
X218215838Y-153604500D01*
X218215839Y-153604500D01*
X218384162Y-153604500D01*
X218384163Y-153604499D01*
X218549249Y-153571662D01*
X218704758Y-153507248D01*
X218844712Y-153413734D01*
X218963734Y-153294712D01*
X219057248Y-153154758D01*
X219121662Y-152999249D01*
X219154500Y-152834161D01*
X219154500Y-152365839D01*
X219154499Y-152365834D01*
X219445500Y-152365834D01*
X219445500Y-152834165D01*
X219478336Y-152999241D01*
X219478338Y-152999249D01*
X219542750Y-153154755D01*
X219542755Y-153154764D01*
X219636265Y-153294711D01*
X219636268Y-153294715D01*
X219755284Y-153413731D01*
X219755288Y-153413734D01*
X219895235Y-153507244D01*
X219895241Y-153507247D01*
X219895242Y-153507248D01*
X220050751Y-153571662D01*
X220215834Y-153604499D01*
X220215838Y-153604500D01*
X220215839Y-153604500D01*
X220384162Y-153604500D01*
X220384163Y-153604499D01*
X220549249Y-153571662D01*
X220704758Y-153507248D01*
X220844712Y-153413734D01*
X220963734Y-153294712D01*
X221038366Y-153183017D01*
X221060633Y-153149693D01*
X221062533Y-153150962D01*
X221104322Y-153108384D01*
X221172453Y-153092894D01*
X221238143Y-153116697D01*
X221278332Y-153167935D01*
X221278378Y-153167912D01*
X221278497Y-153168146D01*
X221279327Y-153169204D01*
X221280589Y-153172253D01*
X221359195Y-153326524D01*
X221460967Y-153466602D01*
X221583397Y-153589032D01*
X221723475Y-153690804D01*
X221877744Y-153769408D01*
X222042415Y-153822914D01*
X222042414Y-153822914D01*
X222049999Y-153824115D01*
X222050000Y-153824114D01*
X222050000Y-152915686D01*
X222054394Y-152920080D01*
X222145606Y-152972741D01*
X222247339Y-153000000D01*
X222352661Y-153000000D01*
X222454394Y-152972741D01*
X222545606Y-152920080D01*
X222550000Y-152915686D01*
X222550000Y-153824115D01*
X222557584Y-153822914D01*
X222722255Y-153769408D01*
X222876524Y-153690804D01*
X223016602Y-153589032D01*
X223139032Y-153466602D01*
X223240804Y-153326524D01*
X223319408Y-153172257D01*
X223372914Y-153007584D01*
X223397873Y-152850000D01*
X222615686Y-152850000D01*
X222620080Y-152845606D01*
X222672741Y-152754394D01*
X222700000Y-152652661D01*
X222700000Y-152547339D01*
X222672741Y-152445606D01*
X222620080Y-152354394D01*
X222615686Y-152350000D01*
X223397873Y-152350000D01*
X223372914Y-152192415D01*
X223319408Y-152027742D01*
X223241650Y-151875136D01*
X223241649Y-151875133D01*
X223240805Y-151873477D01*
X223205532Y-151824928D01*
X225745500Y-151824928D01*
X225745500Y-153375063D01*
X225760266Y-153449301D01*
X225816515Y-153533484D01*
X225850234Y-153556014D01*
X225900699Y-153589734D01*
X225900702Y-153589734D01*
X225900703Y-153589735D01*
X225925666Y-153594700D01*
X225974933Y-153604500D01*
X227225066Y-153604499D01*
X227299301Y-153589734D01*
X227383484Y-153533484D01*
X227439734Y-153449301D01*
X227454500Y-153375067D01*
X227454499Y-151824934D01*
X227439734Y-151750699D01*
X227401015Y-151692752D01*
X227383484Y-151666515D01*
X227319943Y-151624059D01*
X227299301Y-151610266D01*
X227299299Y-151610265D01*
X227299296Y-151610264D01*
X227225069Y-151595500D01*
X225974936Y-151595500D01*
X225900698Y-151610266D01*
X225816515Y-151666515D01*
X225760266Y-151750699D01*
X225760264Y-151750703D01*
X225745500Y-151824928D01*
X223205532Y-151824928D01*
X223139032Y-151733397D01*
X223016602Y-151610967D01*
X222876524Y-151509195D01*
X222722257Y-151430591D01*
X222557589Y-151377087D01*
X222557581Y-151377085D01*
X222550000Y-151375884D01*
X222550000Y-152284314D01*
X222545606Y-152279920D01*
X222454394Y-152227259D01*
X222352661Y-152200000D01*
X222247339Y-152200000D01*
X222145606Y-152227259D01*
X222054394Y-152279920D01*
X222050000Y-152284314D01*
X222050000Y-151375884D01*
X222049999Y-151375884D01*
X222042418Y-151377085D01*
X222042410Y-151377087D01*
X221877742Y-151430591D01*
X221723475Y-151509195D01*
X221583397Y-151610967D01*
X221460967Y-151733397D01*
X221359195Y-151873475D01*
X221280588Y-152027748D01*
X221279325Y-152030800D01*
X221278534Y-152031780D01*
X221278378Y-152032088D01*
X221278313Y-152032055D01*
X221235482Y-152085202D01*
X221169187Y-152107265D01*
X221101488Y-152089984D01*
X221062414Y-152049116D01*
X221060633Y-152050307D01*
X220963734Y-151905288D01*
X220963731Y-151905284D01*
X220844715Y-151786268D01*
X220844711Y-151786265D01*
X220704764Y-151692755D01*
X220704755Y-151692750D01*
X220549249Y-151628338D01*
X220549241Y-151628336D01*
X220384165Y-151595500D01*
X220384161Y-151595500D01*
X220215839Y-151595500D01*
X220215834Y-151595500D01*
X220050758Y-151628336D01*
X220050750Y-151628338D01*
X219895244Y-151692750D01*
X219895235Y-151692755D01*
X219755288Y-151786265D01*
X219755284Y-151786268D01*
X219636268Y-151905284D01*
X219636265Y-151905288D01*
X219542755Y-152045235D01*
X219542750Y-152045244D01*
X219478338Y-152200750D01*
X219478336Y-152200758D01*
X219445500Y-152365834D01*
X219154499Y-152365834D01*
X219121662Y-152200751D01*
X219069476Y-152074762D01*
X219057249Y-152045244D01*
X219057244Y-152045235D01*
X218963734Y-151905288D01*
X218963731Y-151905284D01*
X218844715Y-151786268D01*
X218844711Y-151786265D01*
X218704764Y-151692755D01*
X218704755Y-151692750D01*
X218549249Y-151628338D01*
X218549241Y-151628336D01*
X218384165Y-151595500D01*
X218384161Y-151595500D01*
X218215839Y-151595500D01*
X218215834Y-151595500D01*
X218050758Y-151628336D01*
X218050750Y-151628338D01*
X217895244Y-151692750D01*
X217895235Y-151692755D01*
X217755288Y-151786265D01*
X217755284Y-151786268D01*
X217636268Y-151905284D01*
X217636265Y-151905288D01*
X217542755Y-152045235D01*
X217542750Y-152045244D01*
X217478338Y-152200750D01*
X217478336Y-152200758D01*
X217445500Y-152365834D01*
X217154499Y-152365834D01*
X217121662Y-152200751D01*
X217069476Y-152074762D01*
X217057249Y-152045244D01*
X217057244Y-152045235D01*
X216963734Y-151905288D01*
X216963731Y-151905284D01*
X216844715Y-151786268D01*
X216844711Y-151786265D01*
X216704764Y-151692755D01*
X216704755Y-151692750D01*
X216549249Y-151628338D01*
X216549241Y-151628336D01*
X216384165Y-151595500D01*
X216384161Y-151595500D01*
X216215839Y-151595500D01*
X216215834Y-151595500D01*
X216050758Y-151628336D01*
X216050750Y-151628338D01*
X215895244Y-151692750D01*
X215895235Y-151692755D01*
X215755288Y-151786265D01*
X215755284Y-151786268D01*
X215636268Y-151905284D01*
X215636265Y-151905288D01*
X215542755Y-152045235D01*
X215542750Y-152045244D01*
X215478338Y-152200750D01*
X215478336Y-152200758D01*
X215445500Y-152365834D01*
X215154499Y-152365834D01*
X215121662Y-152200751D01*
X215069476Y-152074762D01*
X215057249Y-152045244D01*
X215057244Y-152045235D01*
X215000295Y-151960005D01*
X214968399Y-151912270D01*
X214947522Y-151845595D01*
X214966006Y-151778215D01*
X214983817Y-151755704D01*
X223703990Y-143035532D01*
X226645500Y-143035532D01*
X226645500Y-143164467D01*
X226670649Y-143290903D01*
X226670652Y-143290912D01*
X226719986Y-143410017D01*
X226719987Y-143410019D01*
X226791616Y-143517219D01*
X226791619Y-143517223D01*
X226882776Y-143608380D01*
X226882780Y-143608383D01*
X226989978Y-143680011D01*
X226989979Y-143680011D01*
X226989980Y-143680012D01*
X226989982Y-143680013D01*
X227069385Y-143712902D01*
X227109089Y-143729348D01*
X227109091Y-143729348D01*
X227109096Y-143729350D01*
X227235532Y-143754499D01*
X227235536Y-143754500D01*
X227235537Y-143754500D01*
X227364464Y-143754500D01*
X227364465Y-143754499D01*
X227406612Y-143746116D01*
X227490903Y-143729350D01*
X227490906Y-143729348D01*
X227490911Y-143729348D01*
X227610022Y-143680011D01*
X227717220Y-143608383D01*
X227808383Y-143517220D01*
X227880011Y-143410022D01*
X227929348Y-143290911D01*
X227954500Y-143164463D01*
X227954500Y-143035537D01*
X227946063Y-142993120D01*
X227929350Y-142909096D01*
X227929347Y-142909087D01*
X227880013Y-142789982D01*
X227880012Y-142789980D01*
X227876803Y-142785178D01*
X227808383Y-142682780D01*
X227808380Y-142682776D01*
X227717223Y-142591619D01*
X227717219Y-142591616D01*
X227610019Y-142519987D01*
X227610017Y-142519986D01*
X227490912Y-142470652D01*
X227490903Y-142470649D01*
X227364467Y-142445500D01*
X227364463Y-142445500D01*
X227235537Y-142445500D01*
X227235532Y-142445500D01*
X227109096Y-142470649D01*
X227109087Y-142470652D01*
X226989982Y-142519986D01*
X226989980Y-142519987D01*
X226882780Y-142591616D01*
X226882776Y-142591619D01*
X226791619Y-142682776D01*
X226791616Y-142682780D01*
X226719987Y-142789980D01*
X226719986Y-142789982D01*
X226670652Y-142909087D01*
X226670649Y-142909096D01*
X226645500Y-143035532D01*
X223703990Y-143035532D01*
X227121704Y-139617819D01*
X227183027Y-139584334D01*
X227209385Y-139581500D01*
X230704535Y-139581500D01*
X230771574Y-139601185D01*
X230792211Y-139617814D01*
X230882780Y-139708383D01*
X230989978Y-139780011D01*
X230989979Y-139780011D01*
X230989980Y-139780012D01*
X230989982Y-139780013D01*
X231069385Y-139812902D01*
X231109089Y-139829348D01*
X231109091Y-139829348D01*
X231109096Y-139829350D01*
X231235532Y-139854499D01*
X231235536Y-139854500D01*
X231235537Y-139854500D01*
X231364464Y-139854500D01*
X231364465Y-139854499D01*
X231406612Y-139846116D01*
X231490903Y-139829350D01*
X231490906Y-139829348D01*
X231490911Y-139829348D01*
X231610022Y-139780011D01*
X231717220Y-139708383D01*
X231808383Y-139617220D01*
X231880011Y-139510022D01*
X231929348Y-139390911D01*
X231954500Y-139264463D01*
X231954500Y-139135537D01*
X231940687Y-139066094D01*
X231929350Y-139009096D01*
X231929347Y-139009087D01*
X231880011Y-138889978D01*
X231808383Y-138782780D01*
X231808380Y-138782776D01*
X231717223Y-138691619D01*
X231717219Y-138691616D01*
X231610019Y-138619987D01*
X231610017Y-138619986D01*
X231490912Y-138570652D01*
X231490903Y-138570649D01*
X231364467Y-138545500D01*
X231364463Y-138545500D01*
X231235537Y-138545500D01*
X231235532Y-138545500D01*
X231109096Y-138570649D01*
X231109087Y-138570652D01*
X230989982Y-138619986D01*
X230989980Y-138619987D01*
X230882781Y-138691615D01*
X230837499Y-138736898D01*
X230792214Y-138782182D01*
X230730894Y-138815666D01*
X230704535Y-138818500D01*
X226949775Y-138818500D01*
X226877003Y-138837999D01*
X226852745Y-138844499D01*
X226773972Y-138889977D01*
X226773973Y-138889978D01*
X226765752Y-138894724D01*
X226765749Y-138894726D01*
X220366181Y-145294295D01*
X220346744Y-145304907D01*
X220330011Y-145319408D01*
X220316679Y-145321324D01*
X220304858Y-145327780D01*
X220282771Y-145326200D01*
X220260853Y-145329352D01*
X220248601Y-145323756D01*
X220235166Y-145322796D01*
X220217439Y-145309525D01*
X220197297Y-145300327D01*
X220190014Y-145288995D01*
X220179233Y-145280924D01*
X220171495Y-145260178D01*
X220159523Y-145241549D01*
X220156371Y-145219630D01*
X220154816Y-145215460D01*
X220154500Y-145206614D01*
X220154500Y-145136384D01*
X220174185Y-145069345D01*
X220190819Y-145048703D01*
X228521704Y-136717819D01*
X228583027Y-136684334D01*
X228609385Y-136681500D01*
X229250223Y-136681500D01*
X229250225Y-136681500D01*
X229347254Y-136655501D01*
X229347254Y-136655500D01*
X229355106Y-136653397D01*
X229355792Y-136655960D01*
X229412214Y-136649880D01*
X229414364Y-136650288D01*
X229429992Y-136653397D01*
X229435536Y-136654500D01*
X229435537Y-136654500D01*
X229564464Y-136654500D01*
X229564465Y-136654499D01*
X229606612Y-136646116D01*
X229690903Y-136629350D01*
X229690906Y-136629348D01*
X229690911Y-136629348D01*
X229810022Y-136580011D01*
X229917220Y-136508383D01*
X230008383Y-136417220D01*
X230080011Y-136310022D01*
X230129348Y-136190911D01*
X230133464Y-136170221D01*
X230153804Y-136067963D01*
X230186188Y-136006052D01*
X230246904Y-135971478D01*
X230316674Y-135975217D01*
X230363102Y-136004473D01*
X231428831Y-137070202D01*
X231462316Y-137131525D01*
X231457332Y-137201217D01*
X231428832Y-137245563D01*
X231391620Y-137282775D01*
X231391616Y-137282780D01*
X231319987Y-137389980D01*
X231319986Y-137389982D01*
X231270652Y-137509087D01*
X231270649Y-137509096D01*
X231245500Y-137635532D01*
X231245500Y-137764467D01*
X231270649Y-137890903D01*
X231270652Y-137890912D01*
X231319986Y-138010017D01*
X231319987Y-138010019D01*
X231391616Y-138117219D01*
X231391619Y-138117223D01*
X231482776Y-138208380D01*
X231482780Y-138208383D01*
X231589978Y-138280011D01*
X231589979Y-138280011D01*
X231589980Y-138280012D01*
X231589982Y-138280013D01*
X231669385Y-138312902D01*
X231709089Y-138329348D01*
X231709091Y-138329348D01*
X231709096Y-138329350D01*
X231835532Y-138354499D01*
X231835536Y-138354500D01*
X231835537Y-138354500D01*
X231964464Y-138354500D01*
X231964465Y-138354499D01*
X232006612Y-138346116D01*
X232090903Y-138329350D01*
X232090906Y-138329348D01*
X232090911Y-138329348D01*
X232210022Y-138280011D01*
X232231411Y-138265718D01*
X232298086Y-138244842D01*
X232365466Y-138263326D01*
X232412156Y-138315304D01*
X232424300Y-138368822D01*
X232424300Y-147284814D01*
X232404615Y-147351853D01*
X232387981Y-147372495D01*
X228348311Y-151412164D01*
X228348312Y-151412165D01*
X228294722Y-151465754D01*
X228244499Y-151552745D01*
X228244499Y-151552746D01*
X228222089Y-151636384D01*
X228221625Y-151638114D01*
X228185260Y-151697774D01*
X228170741Y-151709122D01*
X228055288Y-151786265D01*
X228055284Y-151786268D01*
X227936268Y-151905284D01*
X227936265Y-151905288D01*
X227842755Y-152045235D01*
X227842750Y-152045244D01*
X227778338Y-152200750D01*
X227778336Y-152200758D01*
X227745500Y-152365834D01*
X227745500Y-152834165D01*
X227778336Y-152999241D01*
X227778338Y-152999249D01*
X227842750Y-153154755D01*
X227842755Y-153154764D01*
X227936265Y-153294711D01*
X227936268Y-153294715D01*
X228055284Y-153413731D01*
X228055288Y-153413734D01*
X228195235Y-153507244D01*
X228195241Y-153507247D01*
X228195242Y-153507248D01*
X228350751Y-153571662D01*
X228515834Y-153604499D01*
X228515838Y-153604500D01*
X228515839Y-153604500D01*
X228684162Y-153604500D01*
X228684163Y-153604499D01*
X228849249Y-153571662D01*
X229004758Y-153507248D01*
X229144712Y-153413734D01*
X229263734Y-153294712D01*
X229338366Y-153183017D01*
X229360633Y-153149693D01*
X229362533Y-153150962D01*
X229404322Y-153108384D01*
X229472453Y-153092894D01*
X229538143Y-153116697D01*
X229578332Y-153167935D01*
X229578378Y-153167912D01*
X229578497Y-153168146D01*
X229579327Y-153169204D01*
X229580589Y-153172253D01*
X229659195Y-153326524D01*
X229760967Y-153466602D01*
X229883397Y-153589032D01*
X230023475Y-153690804D01*
X230177744Y-153769408D01*
X230342415Y-153822914D01*
X230342414Y-153822914D01*
X230349999Y-153824115D01*
X230350000Y-153824114D01*
X230350000Y-152915686D01*
X230354394Y-152920080D01*
X230445606Y-152972741D01*
X230547339Y-153000000D01*
X230652661Y-153000000D01*
X230754394Y-152972741D01*
X230845606Y-152920080D01*
X230850000Y-152915686D01*
X230850000Y-153824115D01*
X230857584Y-153822914D01*
X231022255Y-153769408D01*
X231176524Y-153690804D01*
X231316602Y-153589032D01*
X231439032Y-153466602D01*
X231540804Y-153326524D01*
X231619408Y-153172255D01*
X231620667Y-153169217D01*
X231621456Y-153168237D01*
X231621622Y-153167912D01*
X231621690Y-153167946D01*
X231664501Y-153114808D01*
X231730792Y-153092735D01*
X231798494Y-153110005D01*
X231837589Y-153150880D01*
X231839367Y-153149693D01*
X231936265Y-153294711D01*
X231936268Y-153294715D01*
X232055284Y-153413731D01*
X232055288Y-153413734D01*
X232195235Y-153507244D01*
X232195241Y-153507247D01*
X232195242Y-153507248D01*
X232350751Y-153571662D01*
X232515834Y-153604499D01*
X232515838Y-153604500D01*
X232515839Y-153604500D01*
X232684162Y-153604500D01*
X232684163Y-153604499D01*
X232849249Y-153571662D01*
X233004758Y-153507248D01*
X233144712Y-153413734D01*
X233263734Y-153294712D01*
X233357248Y-153154758D01*
X233421662Y-152999249D01*
X233454500Y-152834161D01*
X233454500Y-152365839D01*
X233454499Y-152365834D01*
X233745500Y-152365834D01*
X233745500Y-152834165D01*
X233778336Y-152999241D01*
X233778338Y-152999249D01*
X233842750Y-153154755D01*
X233842755Y-153154764D01*
X233936265Y-153294711D01*
X233936268Y-153294715D01*
X234055284Y-153413731D01*
X234055288Y-153413734D01*
X234195235Y-153507244D01*
X234195241Y-153507247D01*
X234195242Y-153507248D01*
X234350751Y-153571662D01*
X234515834Y-153604499D01*
X234515838Y-153604500D01*
X234515839Y-153604500D01*
X234684162Y-153604500D01*
X234684163Y-153604499D01*
X234849249Y-153571662D01*
X235004758Y-153507248D01*
X235144712Y-153413734D01*
X235263734Y-153294712D01*
X235357248Y-153154758D01*
X235421662Y-152999249D01*
X235454500Y-152834161D01*
X235454500Y-152365839D01*
X235454499Y-152365834D01*
X235745500Y-152365834D01*
X235745500Y-152834165D01*
X235778336Y-152999241D01*
X235778338Y-152999249D01*
X235842750Y-153154755D01*
X235842755Y-153154764D01*
X235936265Y-153294711D01*
X235936268Y-153294715D01*
X236055284Y-153413731D01*
X236055288Y-153413734D01*
X236195235Y-153507244D01*
X236195241Y-153507247D01*
X236195242Y-153507248D01*
X236350751Y-153571662D01*
X236515834Y-153604499D01*
X236515838Y-153604500D01*
X236515839Y-153604500D01*
X236684162Y-153604500D01*
X236684163Y-153604499D01*
X236849249Y-153571662D01*
X237004758Y-153507248D01*
X237144712Y-153413734D01*
X237263734Y-153294712D01*
X237357248Y-153154758D01*
X237421662Y-152999249D01*
X237454500Y-152834161D01*
X237454500Y-152365839D01*
X237421662Y-152200751D01*
X237369476Y-152074762D01*
X237357249Y-152045244D01*
X237357244Y-152045235D01*
X237263734Y-151905288D01*
X237263731Y-151905284D01*
X237144715Y-151786268D01*
X237144711Y-151786265D01*
X237004764Y-151692755D01*
X237004755Y-151692750D01*
X236849249Y-151628338D01*
X236849241Y-151628336D01*
X236684165Y-151595500D01*
X236684161Y-151595500D01*
X236515839Y-151595500D01*
X236515834Y-151595500D01*
X236350758Y-151628336D01*
X236350750Y-151628338D01*
X236195244Y-151692750D01*
X236195235Y-151692755D01*
X236055288Y-151786265D01*
X236055284Y-151786268D01*
X235936268Y-151905284D01*
X235936265Y-151905288D01*
X235842755Y-152045235D01*
X235842750Y-152045244D01*
X235778338Y-152200750D01*
X235778336Y-152200758D01*
X235745500Y-152365834D01*
X235454499Y-152365834D01*
X235421662Y-152200751D01*
X235369476Y-152074762D01*
X235357249Y-152045244D01*
X235357244Y-152045235D01*
X235263734Y-151905288D01*
X235263731Y-151905284D01*
X235144715Y-151786268D01*
X235144711Y-151786265D01*
X235004764Y-151692755D01*
X235004755Y-151692750D01*
X234849249Y-151628338D01*
X234849241Y-151628336D01*
X234684165Y-151595500D01*
X234684161Y-151595500D01*
X234515839Y-151595500D01*
X234515834Y-151595500D01*
X234350758Y-151628336D01*
X234350750Y-151628338D01*
X234195244Y-151692750D01*
X234195235Y-151692755D01*
X234055288Y-151786265D01*
X234055284Y-151786268D01*
X233936268Y-151905284D01*
X233936265Y-151905288D01*
X233842755Y-152045235D01*
X233842750Y-152045245D01*
X233805378Y-152135470D01*
X233763048Y-152187997D01*
X233763448Y-152188558D01*
X233767884Y-152253303D01*
X233745500Y-152365834D01*
X233454499Y-152365834D01*
X233454024Y-152363446D01*
X233454138Y-152362165D01*
X233453903Y-152359774D01*
X233454356Y-152359729D01*
X233460245Y-152293854D01*
X233472871Y-152269857D01*
X233479533Y-152259989D01*
X233493077Y-152246446D01*
X233516846Y-152205276D01*
X233538881Y-152167109D01*
X233577538Y-152130251D01*
X233567527Y-152074762D01*
X233568324Y-152070491D01*
X233568240Y-152070480D01*
X233569301Y-152062422D01*
X233569301Y-150774928D01*
X240045500Y-150774928D01*
X240045500Y-152225063D01*
X240060266Y-152299301D01*
X240116515Y-152383484D01*
X240150234Y-152406014D01*
X240200699Y-152439734D01*
X240200702Y-152439734D01*
X240200703Y-152439735D01*
X240225666Y-152444700D01*
X240274933Y-152454500D01*
X241525066Y-152454499D01*
X241599301Y-152439734D01*
X241683484Y-152383484D01*
X241739734Y-152299301D01*
X241754500Y-152225067D01*
X241754499Y-150774934D01*
X241739734Y-150700699D01*
X241721068Y-150672765D01*
X241683484Y-150616515D01*
X241622550Y-150575801D01*
X241599301Y-150560266D01*
X241599299Y-150560265D01*
X241599296Y-150560264D01*
X241525069Y-150545500D01*
X240274936Y-150545500D01*
X240200698Y-150560266D01*
X240116515Y-150616515D01*
X240060266Y-150700699D01*
X240060264Y-150700703D01*
X240045500Y-150774928D01*
X233569301Y-150774928D01*
X233569301Y-143508186D01*
X233588986Y-143441147D01*
X233641790Y-143395392D01*
X233710948Y-143385448D01*
X233774504Y-143414473D01*
X233780982Y-143420505D01*
X235994724Y-145634247D01*
X236065753Y-145705276D01*
X236152746Y-145755501D01*
X236249775Y-145781500D01*
X240590615Y-145781500D01*
X240657654Y-145801185D01*
X240678296Y-145817819D01*
X245113681Y-150253204D01*
X245147166Y-150314527D01*
X245150000Y-150340885D01*
X245150000Y-151184314D01*
X245145606Y-151179920D01*
X245054394Y-151127259D01*
X244952661Y-151100000D01*
X244847339Y-151100000D01*
X244745606Y-151127259D01*
X244654394Y-151179920D01*
X244650000Y-151184314D01*
X244650000Y-150325884D01*
X244649999Y-150325884D01*
X244642418Y-150327085D01*
X244642410Y-150327087D01*
X244477742Y-150380591D01*
X244323475Y-150459195D01*
X244183397Y-150560967D01*
X244060967Y-150683397D01*
X243959195Y-150823475D01*
X243880588Y-150977748D01*
X243879325Y-150980800D01*
X243878534Y-150981780D01*
X243878378Y-150982088D01*
X243878313Y-150982055D01*
X243835482Y-151035202D01*
X243769187Y-151057265D01*
X243701488Y-151039984D01*
X243662414Y-150999116D01*
X243660633Y-151000307D01*
X243563734Y-150855288D01*
X243563731Y-150855284D01*
X243444715Y-150736268D01*
X243444711Y-150736265D01*
X243304764Y-150642755D01*
X243304755Y-150642750D01*
X243149249Y-150578338D01*
X243149241Y-150578336D01*
X242984165Y-150545500D01*
X242984161Y-150545500D01*
X242815839Y-150545500D01*
X242815834Y-150545500D01*
X242650758Y-150578336D01*
X242650750Y-150578338D01*
X242495244Y-150642750D01*
X242495235Y-150642755D01*
X242355288Y-150736265D01*
X242355284Y-150736268D01*
X242236268Y-150855284D01*
X242236265Y-150855288D01*
X242142755Y-150995235D01*
X242142750Y-150995244D01*
X242078338Y-151150750D01*
X242078336Y-151150758D01*
X242045500Y-151315834D01*
X242045500Y-151684165D01*
X242078336Y-151849241D01*
X242078338Y-151849249D01*
X242142750Y-152004755D01*
X242142755Y-152004764D01*
X242236265Y-152144711D01*
X242236268Y-152144715D01*
X242355284Y-152263731D01*
X242355288Y-152263734D01*
X242495235Y-152357244D01*
X242495244Y-152357249D01*
X242515980Y-152365838D01*
X242650751Y-152421662D01*
X242771126Y-152445606D01*
X242815834Y-152454499D01*
X242815838Y-152454500D01*
X242815839Y-152454500D01*
X242984162Y-152454500D01*
X242984163Y-152454499D01*
X243149249Y-152421662D01*
X243304758Y-152357248D01*
X243444712Y-152263734D01*
X243563734Y-152144712D01*
X243627609Y-152049116D01*
X243660633Y-151999693D01*
X243662533Y-152000962D01*
X243704322Y-151958384D01*
X243772453Y-151942894D01*
X243838143Y-151966697D01*
X243878332Y-152017935D01*
X243878378Y-152017912D01*
X243878497Y-152018146D01*
X243879327Y-152019204D01*
X243880589Y-152022253D01*
X243959195Y-152176524D01*
X244060967Y-152316602D01*
X244183397Y-152439032D01*
X244323475Y-152540804D01*
X244477744Y-152619408D01*
X244642415Y-152672914D01*
X244642414Y-152672914D01*
X244649999Y-152674115D01*
X244650000Y-152674114D01*
X244650000Y-151815686D01*
X244654394Y-151820080D01*
X244745606Y-151872741D01*
X244847339Y-151900000D01*
X244952661Y-151900000D01*
X245054394Y-151872741D01*
X245145606Y-151820080D01*
X245150000Y-151815686D01*
X245150000Y-152674115D01*
X245157584Y-152672914D01*
X245322255Y-152619408D01*
X245476524Y-152540804D01*
X245616602Y-152439032D01*
X245739032Y-152316602D01*
X245840804Y-152176524D01*
X245919408Y-152022255D01*
X245920667Y-152019217D01*
X245921456Y-152018237D01*
X245921622Y-152017912D01*
X245921690Y-152017946D01*
X245964501Y-151964808D01*
X246030792Y-151942735D01*
X246098494Y-151960005D01*
X246137589Y-152000880D01*
X246139367Y-151999693D01*
X246236265Y-152144711D01*
X246236268Y-152144715D01*
X246355284Y-152263731D01*
X246355288Y-152263734D01*
X246495235Y-152357244D01*
X246495244Y-152357249D01*
X246515980Y-152365838D01*
X246650751Y-152421662D01*
X246771126Y-152445606D01*
X246815834Y-152454499D01*
X246815838Y-152454500D01*
X246815839Y-152454500D01*
X246984162Y-152454500D01*
X246984163Y-152454499D01*
X247149249Y-152421662D01*
X247304758Y-152357248D01*
X247444712Y-152263734D01*
X247563734Y-152144712D01*
X247657248Y-152004758D01*
X247721662Y-151849249D01*
X247754500Y-151684161D01*
X247754500Y-151593384D01*
X247760738Y-151572138D01*
X247762318Y-151550050D01*
X247770390Y-151539266D01*
X247774185Y-151526345D01*
X247790918Y-151511845D01*
X247804190Y-151494117D01*
X247816810Y-151489409D01*
X247826989Y-151480590D01*
X247848906Y-151477438D01*
X247869654Y-151469700D01*
X247882814Y-151472562D01*
X247896147Y-151470646D01*
X247916290Y-151479845D01*
X247937927Y-151484552D01*
X247955652Y-151497820D01*
X247959703Y-151499671D01*
X247966181Y-151505703D01*
X248009181Y-151548703D01*
X248042666Y-151610026D01*
X248045500Y-151636384D01*
X248045500Y-151684165D01*
X248078336Y-151849241D01*
X248078338Y-151849249D01*
X248142750Y-152004755D01*
X248142755Y-152004764D01*
X248236265Y-152144711D01*
X248236268Y-152144715D01*
X248355284Y-152263731D01*
X248355288Y-152263734D01*
X248495235Y-152357244D01*
X248495244Y-152357249D01*
X248515980Y-152365838D01*
X248650751Y-152421662D01*
X248771126Y-152445606D01*
X248815834Y-152454499D01*
X248815838Y-152454500D01*
X248815839Y-152454500D01*
X248984162Y-152454500D01*
X248984163Y-152454499D01*
X249149249Y-152421662D01*
X249304758Y-152357248D01*
X249444712Y-152263734D01*
X249563734Y-152144712D01*
X249657248Y-152004758D01*
X249721662Y-151849249D01*
X249749535Y-151709122D01*
X249754500Y-151684163D01*
X249754816Y-151680954D01*
X249755451Y-151679379D01*
X249755689Y-151678186D01*
X249755915Y-151678231D01*
X249760881Y-151665931D01*
X249762037Y-151649769D01*
X249773693Y-151634197D01*
X249780974Y-151616166D01*
X249794198Y-151606806D01*
X249803909Y-151593836D01*
X249822131Y-151587039D01*
X249838006Y-151575805D01*
X249854191Y-151575081D01*
X249869373Y-151569419D01*
X249888378Y-151573553D01*
X249907806Y-151572685D01*
X249922531Y-151580982D01*
X249937646Y-151584271D01*
X249965900Y-151605422D01*
X250019115Y-151658637D01*
X250052600Y-151719960D01*
X250053051Y-151722126D01*
X250078336Y-151849243D01*
X250078338Y-151849249D01*
X250142750Y-152004755D01*
X250142755Y-152004764D01*
X250236265Y-152144711D01*
X250236268Y-152144715D01*
X250355284Y-152263731D01*
X250355288Y-152263734D01*
X250495235Y-152357244D01*
X250495244Y-152357249D01*
X250515980Y-152365838D01*
X250650751Y-152421662D01*
X250771126Y-152445606D01*
X250815834Y-152454499D01*
X250815838Y-152454500D01*
X250815839Y-152454500D01*
X250984162Y-152454500D01*
X250984163Y-152454499D01*
X251149249Y-152421662D01*
X251304758Y-152357248D01*
X251444712Y-152263734D01*
X251563734Y-152144712D01*
X251657248Y-152004758D01*
X251721662Y-151849249D01*
X251754500Y-151684161D01*
X251754500Y-151315839D01*
X251729509Y-151190201D01*
X251732526Y-151156474D01*
X251734944Y-151122677D01*
X251735633Y-151121755D01*
X251735736Y-151120611D01*
X251756511Y-151093867D01*
X251776816Y-151066744D01*
X251777893Y-151066342D01*
X251778599Y-151065434D01*
X251810538Y-151054165D01*
X251842280Y-151042327D01*
X251843403Y-151042571D01*
X251844488Y-151042189D01*
X251877436Y-151049974D01*
X251910553Y-151057179D01*
X251911766Y-151058087D01*
X251912485Y-151058257D01*
X251938807Y-151078330D01*
X252020336Y-151159859D01*
X252053821Y-151221182D01*
X252054273Y-151271729D01*
X252045500Y-151315838D01*
X252045500Y-151684165D01*
X252078336Y-151849241D01*
X252078338Y-151849249D01*
X252142750Y-152004755D01*
X252142755Y-152004764D01*
X252236265Y-152144711D01*
X252236268Y-152144715D01*
X252355284Y-152263731D01*
X252355288Y-152263734D01*
X252495235Y-152357244D01*
X252495244Y-152357249D01*
X252515980Y-152365838D01*
X252650751Y-152421662D01*
X252771126Y-152445606D01*
X252815834Y-152454499D01*
X252815838Y-152454500D01*
X252815839Y-152454500D01*
X252984162Y-152454500D01*
X252984163Y-152454499D01*
X253149249Y-152421662D01*
X253304758Y-152357248D01*
X253444712Y-152263734D01*
X253563734Y-152144712D01*
X253657248Y-152004758D01*
X253721662Y-151849249D01*
X253754500Y-151684161D01*
X253754500Y-151315839D01*
X253721662Y-151150751D01*
X253659621Y-151000970D01*
X253657249Y-150995244D01*
X253657244Y-150995235D01*
X253563734Y-150855288D01*
X253563731Y-150855284D01*
X253444715Y-150736268D01*
X253444711Y-150736265D01*
X253304764Y-150642755D01*
X253304755Y-150642750D01*
X253149249Y-150578338D01*
X253149241Y-150578336D01*
X252984165Y-150545500D01*
X252984161Y-150545500D01*
X252815839Y-150545500D01*
X252815834Y-150545500D01*
X252650758Y-150578335D01*
X252650750Y-150578338D01*
X252633323Y-150585556D01*
X252563853Y-150593020D01*
X252501376Y-150561742D01*
X252498196Y-150558673D01*
X252156248Y-150216725D01*
X252156247Y-150216724D01*
X252069254Y-150166499D01*
X252069255Y-150166499D01*
X252044996Y-150159999D01*
X251972225Y-150140500D01*
X251972222Y-150140500D01*
X250671615Y-150140500D01*
X250604576Y-150120815D01*
X250583934Y-150104181D01*
X248719871Y-148240118D01*
X251721499Y-148240118D01*
X251760562Y-148436496D01*
X251760564Y-148436502D01*
X251837189Y-148621491D01*
X251948434Y-148787983D01*
X252090016Y-148929565D01*
X252090019Y-148929567D01*
X252256507Y-149040810D01*
X252441498Y-149117436D01*
X252441502Y-149117436D01*
X252441503Y-149117437D01*
X252637881Y-149156500D01*
X252637884Y-149156500D01*
X254362118Y-149156500D01*
X254494238Y-149130218D01*
X254558502Y-149117436D01*
X254743493Y-149040810D01*
X254909981Y-148929567D01*
X255051567Y-148787981D01*
X255162810Y-148621493D01*
X255239436Y-148436502D01*
X255261867Y-148323737D01*
X255278500Y-148240118D01*
X255278500Y-148039881D01*
X255239437Y-147843503D01*
X255239436Y-147843502D01*
X255239436Y-147843498D01*
X255162810Y-147658507D01*
X255051567Y-147492019D01*
X255051565Y-147492016D01*
X254909983Y-147350434D01*
X254826737Y-147294811D01*
X254743493Y-147239190D01*
X254734671Y-147235536D01*
X254558502Y-147162564D01*
X254558496Y-147162562D01*
X254362118Y-147123500D01*
X254362116Y-147123500D01*
X252637884Y-147123500D01*
X252637882Y-147123500D01*
X252441503Y-147162562D01*
X252441497Y-147162564D01*
X252256508Y-147239189D01*
X252090016Y-147350434D01*
X251948434Y-147492016D01*
X251837189Y-147658508D01*
X251760564Y-147843497D01*
X251760562Y-147843503D01*
X251721500Y-148039881D01*
X251721500Y-148039884D01*
X251721500Y-148240116D01*
X251721500Y-148240118D01*
X251721499Y-148240118D01*
X248719871Y-148240118D01*
X247715285Y-147235532D01*
X248645500Y-147235532D01*
X248645500Y-147364467D01*
X248670649Y-147490903D01*
X248670652Y-147490912D01*
X248719986Y-147610017D01*
X248719987Y-147610019D01*
X248791616Y-147717219D01*
X248791619Y-147717223D01*
X248882776Y-147808380D01*
X248882780Y-147808383D01*
X248989978Y-147880011D01*
X248989979Y-147880011D01*
X248989980Y-147880012D01*
X248989982Y-147880013D01*
X249069385Y-147912902D01*
X249109089Y-147929348D01*
X249109091Y-147929348D01*
X249109096Y-147929350D01*
X249235532Y-147954499D01*
X249235536Y-147954500D01*
X249235537Y-147954500D01*
X249364464Y-147954500D01*
X249364465Y-147954499D01*
X249406612Y-147946116D01*
X249490903Y-147929350D01*
X249490903Y-147929349D01*
X249490911Y-147929348D01*
X249610022Y-147880011D01*
X249717220Y-147808383D01*
X249808383Y-147717220D01*
X249880011Y-147610022D01*
X249929348Y-147490911D01*
X249954500Y-147364463D01*
X249954500Y-147235537D01*
X249954275Y-147234409D01*
X249929350Y-147109096D01*
X249929347Y-147109087D01*
X249880013Y-146989982D01*
X249880012Y-146989980D01*
X249808383Y-146882780D01*
X249808380Y-146882776D01*
X249717223Y-146791619D01*
X249717219Y-146791616D01*
X249610019Y-146719987D01*
X249610017Y-146719986D01*
X249490912Y-146670652D01*
X249490903Y-146670649D01*
X249364467Y-146645500D01*
X249364463Y-146645500D01*
X249235537Y-146645500D01*
X249235532Y-146645500D01*
X249109096Y-146670649D01*
X249109087Y-146670652D01*
X248989982Y-146719986D01*
X248989980Y-146719987D01*
X248882780Y-146791616D01*
X248882776Y-146791619D01*
X248791619Y-146882776D01*
X248791616Y-146882780D01*
X248719987Y-146989980D01*
X248719986Y-146989982D01*
X248670652Y-147109087D01*
X248670649Y-147109096D01*
X248645500Y-147235532D01*
X247715285Y-147235532D01*
X246179871Y-145700118D01*
X251721499Y-145700118D01*
X251760562Y-145896496D01*
X251760564Y-145896502D01*
X251830847Y-146066181D01*
X251837190Y-146081493D01*
X251892811Y-146164737D01*
X251948434Y-146247983D01*
X252090016Y-146389565D01*
X252090019Y-146389567D01*
X252256507Y-146500810D01*
X252441498Y-146577436D01*
X252441502Y-146577436D01*
X252441503Y-146577437D01*
X252637881Y-146616500D01*
X252637884Y-146616500D01*
X254362118Y-146616500D01*
X254494238Y-146590218D01*
X254558502Y-146577436D01*
X254743493Y-146500810D01*
X254909981Y-146389567D01*
X255051567Y-146247981D01*
X255162810Y-146081493D01*
X255239436Y-145896502D01*
X255252218Y-145832238D01*
X255278500Y-145700118D01*
X255278500Y-145499881D01*
X255239437Y-145303503D01*
X255239436Y-145303502D01*
X255239436Y-145303498D01*
X255162810Y-145118507D01*
X255051567Y-144952019D01*
X255051565Y-144952016D01*
X254909983Y-144810434D01*
X254826737Y-144754811D01*
X254743493Y-144699190D01*
X254725210Y-144691617D01*
X254558502Y-144622564D01*
X254558496Y-144622562D01*
X254362118Y-144583500D01*
X254362116Y-144583500D01*
X252637884Y-144583500D01*
X252637882Y-144583500D01*
X252441503Y-144622562D01*
X252441497Y-144622564D01*
X252256508Y-144699189D01*
X252090016Y-144810434D01*
X251948434Y-144952016D01*
X251837189Y-145118508D01*
X251760564Y-145303497D01*
X251760562Y-145303503D01*
X251721500Y-145499881D01*
X251721500Y-145499884D01*
X251721500Y-145700116D01*
X251721500Y-145700118D01*
X251721499Y-145700118D01*
X246179871Y-145700118D01*
X244024478Y-143544725D01*
X244024470Y-143544719D01*
X243968524Y-143512419D01*
X243968520Y-143512418D01*
X243937484Y-143494499D01*
X243840455Y-143468500D01*
X243840452Y-143468500D01*
X238939379Y-143468500D01*
X238915507Y-143461490D01*
X238890798Y-143458587D01*
X238882564Y-143451817D01*
X238872340Y-143448815D01*
X238856050Y-143430016D01*
X238836830Y-143414212D01*
X238833563Y-143404064D01*
X238826585Y-143396011D01*
X238823044Y-143371388D01*
X238815420Y-143347703D01*
X238817796Y-143334891D01*
X238816641Y-143326853D01*
X238819539Y-143312650D01*
X238821658Y-143304675D01*
X238829348Y-143286111D01*
X238837547Y-143244889D01*
X238837550Y-143244880D01*
X238854499Y-143159667D01*
X238854500Y-143159664D01*
X238854500Y-143030736D01*
X238854499Y-143030732D01*
X238829350Y-142904296D01*
X238829347Y-142904287D01*
X238825299Y-142894514D01*
X238790292Y-142809999D01*
X251499865Y-142809999D01*
X251499865Y-142810000D01*
X253057749Y-142810000D01*
X253026619Y-142863919D01*
X252992000Y-142993120D01*
X252992000Y-143126880D01*
X253026619Y-143256081D01*
X253057749Y-143310000D01*
X251499865Y-143310000D01*
X251507074Y-143355517D01*
X251568456Y-143544435D01*
X251658641Y-143721432D01*
X251775403Y-143882139D01*
X251775403Y-143882140D01*
X251915859Y-144022596D01*
X252076567Y-144139358D01*
X252253562Y-144229542D01*
X252442477Y-144290924D01*
X252638679Y-144322000D01*
X253250000Y-144322000D01*
X253250000Y-143502251D01*
X253303919Y-143533381D01*
X253433120Y-143568000D01*
X253566880Y-143568000D01*
X253696081Y-143533381D01*
X253750000Y-143502251D01*
X253750000Y-144322000D01*
X254361321Y-144322000D01*
X254557520Y-144290924D01*
X254557523Y-144290924D01*
X254746437Y-144229542D01*
X254923432Y-144139358D01*
X255084139Y-144022596D01*
X255084140Y-144022596D01*
X255224596Y-143882140D01*
X255224596Y-143882139D01*
X255341358Y-143721432D01*
X255431543Y-143544435D01*
X255492925Y-143355517D01*
X255500134Y-143310000D01*
X253942251Y-143310000D01*
X253973381Y-143256081D01*
X254008000Y-143126880D01*
X254008000Y-142993120D01*
X253973381Y-142863919D01*
X253942251Y-142810000D01*
X255500135Y-142810000D01*
X255500134Y-142809999D01*
X255492925Y-142764482D01*
X255431543Y-142575564D01*
X255341358Y-142398567D01*
X255224596Y-142237860D01*
X255224596Y-142237859D01*
X255084140Y-142097403D01*
X254923432Y-141980641D01*
X254746437Y-141890457D01*
X254557522Y-141829075D01*
X254361321Y-141798000D01*
X253750000Y-141798000D01*
X253750000Y-142617748D01*
X253696081Y-142586619D01*
X253566880Y-142552000D01*
X253433120Y-142552000D01*
X253303919Y-142586619D01*
X253250000Y-142617748D01*
X253250000Y-141798000D01*
X252638679Y-141798000D01*
X252442479Y-141829075D01*
X252442476Y-141829075D01*
X252253562Y-141890457D01*
X252076567Y-141980641D01*
X251915860Y-142097403D01*
X251915859Y-142097403D01*
X251775403Y-142237859D01*
X251775403Y-142237860D01*
X251658641Y-142398567D01*
X251568456Y-142575564D01*
X251507074Y-142764482D01*
X251499865Y-142809999D01*
X238790292Y-142809999D01*
X238780013Y-142785182D01*
X238780012Y-142785180D01*
X238755222Y-142748080D01*
X238708383Y-142677980D01*
X238708380Y-142677976D01*
X238617223Y-142586819D01*
X238617219Y-142586816D01*
X238510019Y-142515187D01*
X238510017Y-142515186D01*
X238390912Y-142465852D01*
X238390903Y-142465849D01*
X238264467Y-142440700D01*
X238264463Y-142440700D01*
X238135537Y-142440700D01*
X238135532Y-142440700D01*
X238009096Y-142465849D01*
X238009087Y-142465852D01*
X237889982Y-142515186D01*
X237889980Y-142515187D01*
X237787020Y-142583983D01*
X237787017Y-142583985D01*
X237782780Y-142586817D01*
X237691617Y-142677980D01*
X237687704Y-142683835D01*
X237687699Y-142683841D01*
X237619986Y-142785182D01*
X237570652Y-142904287D01*
X237570649Y-142904296D01*
X237545500Y-143030732D01*
X237545500Y-143106615D01*
X237525815Y-143173654D01*
X237473011Y-143219409D01*
X237403853Y-143229353D01*
X237340297Y-143200328D01*
X237333819Y-143194296D01*
X237004018Y-142864495D01*
X236970533Y-142803172D01*
X236975517Y-142733480D01*
X237017389Y-142677547D01*
X237082853Y-142653130D01*
X237091699Y-142652814D01*
X237162778Y-142652814D01*
X237162779Y-142652813D01*
X237204926Y-142644430D01*
X237289217Y-142627664D01*
X237289220Y-142627662D01*
X237289225Y-142627662D01*
X237408336Y-142578325D01*
X237515534Y-142506697D01*
X237606697Y-142415534D01*
X237678325Y-142308336D01*
X237727662Y-142189225D01*
X237752814Y-142062777D01*
X237752814Y-141933851D01*
X237752589Y-141932723D01*
X237727664Y-141807410D01*
X237727661Y-141807401D01*
X237678327Y-141688296D01*
X237678326Y-141688294D01*
X237678325Y-141688292D01*
X237606697Y-141581094D01*
X237515534Y-141489931D01*
X237513068Y-141488283D01*
X237513066Y-141488281D01*
X237408333Y-141418301D01*
X237408331Y-141418300D01*
X237289226Y-141368966D01*
X237289217Y-141368963D01*
X237162781Y-141343814D01*
X237162777Y-141343814D01*
X237033851Y-141343814D01*
X237033846Y-141343814D01*
X236907410Y-141368963D01*
X236907401Y-141368966D01*
X236788296Y-141418300D01*
X236788294Y-141418301D01*
X236681094Y-141489930D01*
X236681090Y-141489933D01*
X236589933Y-141581090D01*
X236589930Y-141581094D01*
X236580828Y-141594717D01*
X236527216Y-141639522D01*
X236457891Y-141648229D01*
X236394863Y-141618074D01*
X236358144Y-141558631D01*
X236353726Y-141525826D01*
X236353726Y-140835532D01*
X237545500Y-140835532D01*
X237545500Y-140964467D01*
X237570649Y-141090903D01*
X237570652Y-141090912D01*
X237619986Y-141210017D01*
X237619987Y-141210019D01*
X237619988Y-141210021D01*
X237619989Y-141210022D01*
X237691617Y-141317220D01*
X237782780Y-141408383D01*
X237785245Y-141410030D01*
X237785247Y-141410032D01*
X237851943Y-141454596D01*
X237889978Y-141480011D01*
X237889979Y-141480011D01*
X237889980Y-141480012D01*
X237889982Y-141480013D01*
X237969385Y-141512902D01*
X238009089Y-141529348D01*
X238009091Y-141529348D01*
X238009096Y-141529350D01*
X238135532Y-141554499D01*
X238135536Y-141554500D01*
X238135537Y-141554500D01*
X238264464Y-141554500D01*
X238264465Y-141554499D01*
X238306612Y-141546116D01*
X238390903Y-141529350D01*
X238390906Y-141529348D01*
X238390911Y-141529348D01*
X238510022Y-141480011D01*
X238617220Y-141408383D01*
X238708383Y-141317220D01*
X238780011Y-141210022D01*
X238829348Y-141090911D01*
X238854500Y-140964463D01*
X238854500Y-140835537D01*
X238854275Y-140834409D01*
X238829350Y-140709096D01*
X238829347Y-140709087D01*
X238780013Y-140589982D01*
X238780012Y-140589980D01*
X238708383Y-140482780D01*
X238708380Y-140482776D01*
X238617223Y-140391619D01*
X238617219Y-140391616D01*
X238510019Y-140319987D01*
X238510017Y-140319986D01*
X238390912Y-140270652D01*
X238390903Y-140270649D01*
X238264467Y-140245500D01*
X238264463Y-140245500D01*
X238135537Y-140245500D01*
X238135532Y-140245500D01*
X238009096Y-140270649D01*
X238009087Y-140270652D01*
X237889982Y-140319986D01*
X237889980Y-140319987D01*
X237782780Y-140391616D01*
X237782776Y-140391619D01*
X237691619Y-140482776D01*
X237691616Y-140482780D01*
X237619987Y-140589980D01*
X237619986Y-140589982D01*
X237570652Y-140709087D01*
X237570649Y-140709096D01*
X237545500Y-140835532D01*
X236353726Y-140835532D01*
X236353726Y-138937163D01*
X236747131Y-138937163D01*
X236747131Y-139066098D01*
X236772280Y-139192534D01*
X236772283Y-139192543D01*
X236821617Y-139311648D01*
X236821618Y-139311650D01*
X236893247Y-139418850D01*
X236893250Y-139418854D01*
X236984407Y-139510011D01*
X236984411Y-139510014D01*
X237091609Y-139581642D01*
X237091610Y-139581642D01*
X237091611Y-139581643D01*
X237091613Y-139581644D01*
X237138790Y-139601185D01*
X237210720Y-139630979D01*
X237210722Y-139630979D01*
X237210727Y-139630981D01*
X237337163Y-139656130D01*
X237337167Y-139656131D01*
X237337168Y-139656131D01*
X237466095Y-139656131D01*
X237466096Y-139656130D01*
X237508243Y-139647747D01*
X237592534Y-139630981D01*
X237592537Y-139630979D01*
X237592542Y-139630979D01*
X237711653Y-139581642D01*
X237818851Y-139510014D01*
X237910014Y-139418851D01*
X237981642Y-139311653D01*
X238030979Y-139192542D01*
X238056131Y-139066094D01*
X238056131Y-138937168D01*
X238047689Y-138894726D01*
X238030981Y-138810727D01*
X238030978Y-138810718D01*
X237981644Y-138691613D01*
X237981643Y-138691611D01*
X237956845Y-138654499D01*
X237910014Y-138584411D01*
X237910011Y-138584407D01*
X237818854Y-138493250D01*
X237818850Y-138493247D01*
X237711650Y-138421618D01*
X237711648Y-138421617D01*
X237592543Y-138372283D01*
X237592534Y-138372280D01*
X237466098Y-138347131D01*
X237466094Y-138347131D01*
X237337168Y-138347131D01*
X237337163Y-138347131D01*
X237210727Y-138372280D01*
X237210718Y-138372283D01*
X237091613Y-138421617D01*
X237091611Y-138421618D01*
X236984411Y-138493247D01*
X236984407Y-138493250D01*
X236893250Y-138584407D01*
X236893247Y-138584411D01*
X236821618Y-138691611D01*
X236821617Y-138691613D01*
X236772283Y-138810718D01*
X236772280Y-138810727D01*
X236747131Y-138937163D01*
X236353726Y-138937163D01*
X236353726Y-138065424D01*
X240572747Y-138065424D01*
X240572747Y-138194359D01*
X240597896Y-138320795D01*
X240597899Y-138320804D01*
X240647233Y-138439909D01*
X240647234Y-138439911D01*
X240718863Y-138547111D01*
X240718866Y-138547115D01*
X240810023Y-138638272D01*
X240810027Y-138638275D01*
X240917225Y-138709903D01*
X240917226Y-138709903D01*
X240917227Y-138709904D01*
X240917229Y-138709905D01*
X240996632Y-138742794D01*
X241036336Y-138759240D01*
X241036338Y-138759240D01*
X241036343Y-138759242D01*
X241162779Y-138784391D01*
X241162783Y-138784392D01*
X241162784Y-138784392D01*
X241291711Y-138784392D01*
X241291712Y-138784391D01*
X241333859Y-138776008D01*
X241418150Y-138759242D01*
X241418153Y-138759240D01*
X241418158Y-138759240D01*
X241537269Y-138709903D01*
X241644467Y-138638275D01*
X241735630Y-138547112D01*
X241807258Y-138439914D01*
X241856595Y-138320803D01*
X241858740Y-138310022D01*
X241881746Y-138194359D01*
X241881747Y-138194356D01*
X241881747Y-138065428D01*
X241881746Y-138065424D01*
X241859512Y-137953643D01*
X241859511Y-137953639D01*
X241856596Y-137938988D01*
X241856595Y-137938981D01*
X241855166Y-137935532D01*
X244345500Y-137935532D01*
X244345500Y-138064467D01*
X244370649Y-138190903D01*
X244370652Y-138190912D01*
X244419986Y-138310017D01*
X244419987Y-138310019D01*
X244491616Y-138417219D01*
X244491619Y-138417223D01*
X244582776Y-138508380D01*
X244582780Y-138508383D01*
X244689978Y-138580011D01*
X244689979Y-138580011D01*
X244689980Y-138580012D01*
X244689982Y-138580013D01*
X244769385Y-138612902D01*
X244809089Y-138629348D01*
X244809091Y-138629348D01*
X244809096Y-138629350D01*
X244935532Y-138654499D01*
X244935536Y-138654500D01*
X244935537Y-138654500D01*
X245064464Y-138654500D01*
X245064465Y-138654499D01*
X245106612Y-138646116D01*
X245190903Y-138629350D01*
X245190906Y-138629348D01*
X245190911Y-138629348D01*
X245310022Y-138580011D01*
X245417220Y-138508383D01*
X245508383Y-138417220D01*
X245580011Y-138310022D01*
X245629348Y-138190911D01*
X245654500Y-138064463D01*
X245654500Y-137936384D01*
X245674185Y-137869345D01*
X245690819Y-137848703D01*
X252775059Y-130764463D01*
X259905276Y-123634247D01*
X259919408Y-123609770D01*
X259955501Y-123547254D01*
X259981500Y-123450225D01*
X259981500Y-79295466D01*
X260001185Y-79228427D01*
X260017819Y-79207785D01*
X260108380Y-79117223D01*
X260108383Y-79117220D01*
X260180011Y-79010022D01*
X260229348Y-78890911D01*
X260254500Y-78764463D01*
X260254500Y-78635537D01*
X260254275Y-78634409D01*
X260229350Y-78509096D01*
X260229347Y-78509087D01*
X260180013Y-78389982D01*
X260180012Y-78389980D01*
X260108383Y-78282780D01*
X260108380Y-78282776D01*
X260017223Y-78191619D01*
X260017219Y-78191616D01*
X259910019Y-78119987D01*
X259910017Y-78119986D01*
X259790912Y-78070652D01*
X259790903Y-78070649D01*
X259664467Y-78045500D01*
X259664463Y-78045500D01*
X259535537Y-78045500D01*
X259535532Y-78045500D01*
X259409096Y-78070649D01*
X259409087Y-78070652D01*
X259289982Y-78119986D01*
X259289980Y-78119987D01*
X259182780Y-78191616D01*
X259182776Y-78191619D01*
X259091619Y-78282776D01*
X259091616Y-78282780D01*
X259019987Y-78389980D01*
X259019986Y-78389982D01*
X258970652Y-78509087D01*
X258970649Y-78509096D01*
X258945500Y-78635532D01*
X258945500Y-78764467D01*
X258970649Y-78890903D01*
X258970652Y-78890912D01*
X259019986Y-79010017D01*
X259019987Y-79010019D01*
X259091616Y-79117219D01*
X259091619Y-79117223D01*
X259182181Y-79207785D01*
X259215666Y-79269108D01*
X259218500Y-79295466D01*
X259218500Y-123190614D01*
X259198815Y-123257653D01*
X259182181Y-123278295D01*
X245151295Y-137309181D01*
X245089972Y-137342666D01*
X245063614Y-137345500D01*
X244935532Y-137345500D01*
X244809096Y-137370649D01*
X244809087Y-137370652D01*
X244689982Y-137419986D01*
X244689980Y-137419987D01*
X244582780Y-137491616D01*
X244582776Y-137491619D01*
X244491619Y-137582776D01*
X244491616Y-137582780D01*
X244419987Y-137689980D01*
X244419986Y-137689982D01*
X244370652Y-137809087D01*
X244370649Y-137809096D01*
X244345500Y-137935532D01*
X241855166Y-137935532D01*
X241807258Y-137819870D01*
X241735630Y-137712672D01*
X241735627Y-137712668D01*
X241644470Y-137621511D01*
X241644466Y-137621508D01*
X241537266Y-137549879D01*
X241537264Y-137549878D01*
X241418159Y-137500544D01*
X241418150Y-137500541D01*
X241291714Y-137475392D01*
X241291710Y-137475392D01*
X241162784Y-137475392D01*
X241162779Y-137475392D01*
X241036343Y-137500541D01*
X241036334Y-137500544D01*
X240917229Y-137549878D01*
X240917227Y-137549879D01*
X240810027Y-137621508D01*
X240810023Y-137621511D01*
X240718866Y-137712668D01*
X240718863Y-137712672D01*
X240647234Y-137819872D01*
X240647233Y-137819874D01*
X240597899Y-137938979D01*
X240597896Y-137938988D01*
X240572747Y-138065424D01*
X236353726Y-138065424D01*
X236353726Y-136940827D01*
X236373411Y-136873788D01*
X236390041Y-136853150D01*
X237011501Y-136231689D01*
X237072824Y-136198205D01*
X237099182Y-136195371D01*
X237227262Y-136195371D01*
X237227263Y-136195370D01*
X237269410Y-136186987D01*
X237353701Y-136170221D01*
X237353704Y-136170219D01*
X237353709Y-136170219D01*
X237472820Y-136120882D01*
X237580018Y-136049254D01*
X237671181Y-135958091D01*
X237742809Y-135850893D01*
X237792146Y-135731782D01*
X237796475Y-135710022D01*
X237808917Y-135647467D01*
X237817298Y-135605334D01*
X237817298Y-135476408D01*
X237796262Y-135370652D01*
X237792148Y-135349967D01*
X237792145Y-135349958D01*
X237790298Y-135345500D01*
X237742809Y-135230849D01*
X237671181Y-135123651D01*
X237671178Y-135123647D01*
X237580021Y-135032490D01*
X237580017Y-135032487D01*
X237472817Y-134960858D01*
X237472815Y-134960857D01*
X237353710Y-134911523D01*
X237353701Y-134911520D01*
X237227265Y-134886371D01*
X237227261Y-134886371D01*
X237098335Y-134886371D01*
X237098330Y-134886371D01*
X236971894Y-134911520D01*
X236971885Y-134911523D01*
X236852780Y-134960857D01*
X236852778Y-134960858D01*
X236745578Y-135032487D01*
X236745574Y-135032490D01*
X236654417Y-135123647D01*
X236654414Y-135123651D01*
X236582785Y-135230851D01*
X236582784Y-135230853D01*
X236533450Y-135349958D01*
X236533447Y-135349967D01*
X236508298Y-135476403D01*
X236508298Y-135604485D01*
X236488613Y-135671524D01*
X236471979Y-135692166D01*
X235737979Y-136426167D01*
X235666951Y-136497194D01*
X235666949Y-136497197D01*
X235616725Y-136584188D01*
X235616725Y-136584189D01*
X235590726Y-136681218D01*
X235590726Y-136681220D01*
X235590726Y-137097870D01*
X235571041Y-137164909D01*
X235518237Y-137210664D01*
X235449079Y-137220608D01*
X235442535Y-137219487D01*
X235321944Y-137195500D01*
X235321940Y-137195500D01*
X235193014Y-137195500D01*
X235193009Y-137195500D01*
X235081368Y-137217707D01*
X235011776Y-137211480D01*
X234956599Y-137168617D01*
X234933355Y-137102727D01*
X234933177Y-137096090D01*
X234933177Y-136357707D01*
X234952862Y-136290668D01*
X234969496Y-136270026D01*
X235148703Y-136090819D01*
X235210026Y-136057334D01*
X235236384Y-136054500D01*
X235364464Y-136054500D01*
X235364465Y-136054499D01*
X235406612Y-136046116D01*
X235490903Y-136029350D01*
X235490906Y-136029348D01*
X235490911Y-136029348D01*
X235610022Y-135980011D01*
X235717220Y-135908383D01*
X235808383Y-135817220D01*
X235880011Y-135710022D01*
X235929348Y-135590911D01*
X235930657Y-135584334D01*
X235954499Y-135464467D01*
X235954500Y-135464464D01*
X235954500Y-135335536D01*
X235954499Y-135335532D01*
X235929350Y-135209096D01*
X235929347Y-135209087D01*
X235890939Y-135116360D01*
X235889312Y-135108183D01*
X235886523Y-135103843D01*
X235881500Y-135068908D01*
X235881500Y-135009383D01*
X235901185Y-134942344D01*
X235917815Y-134921706D01*
X236424037Y-134415483D01*
X236424042Y-134415480D01*
X236434245Y-134405276D01*
X236434247Y-134405276D01*
X236505276Y-134334247D01*
X236555501Y-134247254D01*
X236581500Y-134150225D01*
X236581500Y-131295466D01*
X236601185Y-131228427D01*
X236617819Y-131207785D01*
X236708380Y-131117223D01*
X236708383Y-131117220D01*
X236780011Y-131010022D01*
X236829348Y-130890911D01*
X236854500Y-130764463D01*
X236854500Y-130635537D01*
X236846759Y-130596620D01*
X236829350Y-130509096D01*
X236829347Y-130509087D01*
X236821144Y-130489284D01*
X236812902Y-130469385D01*
X236780013Y-130389982D01*
X236780012Y-130389980D01*
X236708383Y-130282780D01*
X236708380Y-130282776D01*
X236617223Y-130191619D01*
X236617219Y-130191616D01*
X236510019Y-130119987D01*
X236510017Y-130119986D01*
X236390912Y-130070652D01*
X236390903Y-130070649D01*
X236264467Y-130045500D01*
X236264463Y-130045500D01*
X236135537Y-130045500D01*
X236135532Y-130045500D01*
X236009096Y-130070649D01*
X236009087Y-130070652D01*
X235889982Y-130119986D01*
X235889980Y-130119987D01*
X235782780Y-130191616D01*
X235782776Y-130191619D01*
X235691619Y-130282776D01*
X235691616Y-130282780D01*
X235619987Y-130389980D01*
X235619986Y-130389982D01*
X235570652Y-130509087D01*
X235570649Y-130509096D01*
X235545500Y-130635532D01*
X235545500Y-130764467D01*
X235570649Y-130890903D01*
X235570652Y-130890912D01*
X235619986Y-131010017D01*
X235619987Y-131010019D01*
X235691616Y-131117219D01*
X235691619Y-131117223D01*
X235782181Y-131207785D01*
X235815666Y-131269108D01*
X235818500Y-131295466D01*
X235818500Y-133420210D01*
X235798815Y-133487249D01*
X235746011Y-133533004D01*
X235676853Y-133542948D01*
X235613297Y-133513923D01*
X235591398Y-133489101D01*
X235560217Y-133442436D01*
X235560214Y-133442432D01*
X235469057Y-133351275D01*
X235469053Y-133351272D01*
X235361853Y-133279643D01*
X235361851Y-133279642D01*
X235242746Y-133230308D01*
X235242737Y-133230305D01*
X235116301Y-133205156D01*
X235116297Y-133205156D01*
X234987371Y-133205156D01*
X234987366Y-133205156D01*
X234860930Y-133230305D01*
X234860921Y-133230308D01*
X234741816Y-133279642D01*
X234741814Y-133279643D01*
X234634614Y-133351272D01*
X234634610Y-133351275D01*
X234543453Y-133442432D01*
X234543450Y-133442436D01*
X234471821Y-133549636D01*
X234471820Y-133549638D01*
X234422486Y-133668743D01*
X234422483Y-133668752D01*
X234397334Y-133795188D01*
X234397334Y-133923270D01*
X234377649Y-133990309D01*
X234361015Y-134010951D01*
X233780982Y-134590984D01*
X233719659Y-134624469D01*
X233649967Y-134619485D01*
X233594034Y-134577613D01*
X233569617Y-134512149D01*
X233569301Y-134503303D01*
X233569301Y-132737578D01*
X233569301Y-132737576D01*
X233543302Y-132640547D01*
X233493077Y-132553554D01*
X233422048Y-132482525D01*
X233290819Y-132351296D01*
X233257334Y-132289973D01*
X233254500Y-132263615D01*
X233254500Y-132135536D01*
X233254499Y-132135532D01*
X233229350Y-132009096D01*
X233229347Y-132009087D01*
X233180013Y-131889982D01*
X233180012Y-131889980D01*
X233108383Y-131782780D01*
X233108380Y-131782776D01*
X233017223Y-131691619D01*
X233017219Y-131691616D01*
X232910019Y-131619987D01*
X232910017Y-131619986D01*
X232824383Y-131584516D01*
X232824380Y-131584515D01*
X232790911Y-131570652D01*
X232708295Y-131554218D01*
X232708281Y-131554215D01*
X232672269Y-131547052D01*
X232664463Y-131545500D01*
X232535537Y-131545500D01*
X232535532Y-131545500D01*
X232409096Y-131570649D01*
X232409087Y-131570652D01*
X232289982Y-131619986D01*
X232289980Y-131619987D01*
X232182780Y-131691616D01*
X232182776Y-131691619D01*
X232091619Y-131782776D01*
X232091616Y-131782780D01*
X232019987Y-131889980D01*
X232019986Y-131889982D01*
X231970652Y-132009087D01*
X231970651Y-132009092D01*
X231967609Y-132024385D01*
X231935222Y-132086295D01*
X231874506Y-132120868D01*
X231804736Y-132117127D01*
X231777101Y-132103293D01*
X231689342Y-132044654D01*
X231689340Y-132044653D01*
X231570235Y-131995319D01*
X231570226Y-131995316D01*
X231443790Y-131970167D01*
X231443786Y-131970167D01*
X231314860Y-131970167D01*
X231314855Y-131970167D01*
X231188419Y-131995316D01*
X231188410Y-131995319D01*
X231069305Y-132044653D01*
X231069303Y-132044654D01*
X230962103Y-132116283D01*
X230962099Y-132116286D01*
X230870942Y-132207443D01*
X230870939Y-132207447D01*
X230799310Y-132314647D01*
X230799309Y-132314649D01*
X230749975Y-132433754D01*
X230749972Y-132433763D01*
X230724823Y-132560199D01*
X230724823Y-132689134D01*
X230749972Y-132815570D01*
X230749975Y-132815579D01*
X230799309Y-132934684D01*
X230799310Y-132934686D01*
X230870939Y-133041886D01*
X230870942Y-133041890D01*
X230962099Y-133133047D01*
X230962103Y-133133050D01*
X231069301Y-133204678D01*
X231069302Y-133204678D01*
X231069303Y-133204679D01*
X231069305Y-133204680D01*
X231132411Y-133230819D01*
X231188412Y-133254015D01*
X231188414Y-133254015D01*
X231188419Y-133254017D01*
X231314855Y-133279166D01*
X231314859Y-133279167D01*
X231442938Y-133279167D01*
X231509977Y-133298852D01*
X231530619Y-133315486D01*
X232387981Y-134172848D01*
X232421466Y-134234171D01*
X232424300Y-134260529D01*
X232424300Y-136687746D01*
X232404615Y-136754785D01*
X232351811Y-136800540D01*
X232282653Y-136810484D01*
X232219097Y-136781459D01*
X232211244Y-136773126D01*
X232211023Y-136773348D01*
X229626600Y-134188925D01*
X229626595Y-134188921D01*
X229622668Y-134186654D01*
X229574452Y-134136087D01*
X229561230Y-134067480D01*
X229587198Y-134002615D01*
X229615778Y-133976165D01*
X229666943Y-133941977D01*
X229717220Y-133908383D01*
X229808383Y-133817220D01*
X229880011Y-133710022D01*
X229929348Y-133590911D01*
X229937559Y-133549634D01*
X229954499Y-133464467D01*
X229954500Y-133464464D01*
X229954500Y-133335536D01*
X229954499Y-133335532D01*
X229929350Y-133209096D01*
X229929347Y-133209087D01*
X229880013Y-133089982D01*
X229877142Y-133084611D01*
X229879186Y-133083517D01*
X229861375Y-133026695D01*
X229879840Y-132959309D01*
X229931804Y-132912603D01*
X229937872Y-132909896D01*
X230010022Y-132880011D01*
X230117220Y-132808383D01*
X230208383Y-132717220D01*
X230280011Y-132610022D01*
X230329348Y-132490911D01*
X230337744Y-132448704D01*
X230354499Y-132364467D01*
X230354500Y-132364464D01*
X230354500Y-132235536D01*
X230354499Y-132235532D01*
X230329350Y-132109096D01*
X230329347Y-132109087D01*
X230280013Y-131989982D01*
X230280009Y-131989975D01*
X230244236Y-131936436D01*
X230223358Y-131869759D01*
X230241843Y-131802379D01*
X230259653Y-131779869D01*
X231299476Y-130740047D01*
X231305652Y-130729350D01*
X231305654Y-130729348D01*
X231305653Y-130729348D01*
X231349701Y-130653054D01*
X231354396Y-130635532D01*
X232345500Y-130635532D01*
X232345500Y-130764467D01*
X232370649Y-130890903D01*
X232370652Y-130890912D01*
X232419986Y-131010017D01*
X232419987Y-131010019D01*
X232491616Y-131117219D01*
X232491619Y-131117223D01*
X232582776Y-131208380D01*
X232582780Y-131208383D01*
X232689978Y-131280011D01*
X232809089Y-131329348D01*
X232935535Y-131354499D01*
X232935536Y-131354500D01*
X232935537Y-131354500D01*
X233064464Y-131354500D01*
X233064465Y-131354499D01*
X233127421Y-131341977D01*
X233190903Y-131329350D01*
X233190906Y-131329348D01*
X233190911Y-131329348D01*
X233310022Y-131280011D01*
X233417220Y-131208383D01*
X233508383Y-131117220D01*
X233508390Y-131117209D01*
X233508887Y-131116605D01*
X233509232Y-131116369D01*
X233512689Y-131112913D01*
X233513344Y-131113568D01*
X233566631Y-131077267D01*
X233572616Y-131075500D01*
X233647254Y-131055501D01*
X233734247Y-131005276D01*
X233805276Y-130934247D01*
X235832189Y-128907334D01*
X237311636Y-128907334D01*
X237311636Y-129036269D01*
X237336785Y-129162705D01*
X237336788Y-129162714D01*
X237386122Y-129281819D01*
X237386123Y-129281821D01*
X237457752Y-129389021D01*
X237457755Y-129389025D01*
X237548912Y-129480182D01*
X237548916Y-129480185D01*
X237656114Y-129551813D01*
X237656115Y-129551813D01*
X237656116Y-129551814D01*
X237656118Y-129551815D01*
X237735521Y-129584704D01*
X237775225Y-129601150D01*
X237775227Y-129601150D01*
X237775232Y-129601152D01*
X237901668Y-129626301D01*
X237901672Y-129626302D01*
X237901673Y-129626302D01*
X238030600Y-129626302D01*
X238030601Y-129626301D01*
X238072748Y-129617918D01*
X238157039Y-129601152D01*
X238157042Y-129601150D01*
X238157047Y-129601150D01*
X238276158Y-129551813D01*
X238383356Y-129480185D01*
X238474519Y-129389022D01*
X238546147Y-129281824D01*
X238595484Y-129162713D01*
X238604533Y-129117223D01*
X238620635Y-129036269D01*
X238620636Y-129036266D01*
X238620636Y-128907338D01*
X238620635Y-128907334D01*
X238595486Y-128780898D01*
X238595483Y-128780889D01*
X238546149Y-128661784D01*
X238546148Y-128661782D01*
X238528608Y-128635532D01*
X238474519Y-128554582D01*
X238474516Y-128554578D01*
X238383359Y-128463421D01*
X238383355Y-128463418D01*
X238276155Y-128391789D01*
X238276153Y-128391788D01*
X238157048Y-128342454D01*
X238157039Y-128342451D01*
X238030603Y-128317302D01*
X238030599Y-128317302D01*
X237901673Y-128317302D01*
X237901668Y-128317302D01*
X237775232Y-128342451D01*
X237775223Y-128342454D01*
X237656118Y-128391788D01*
X237656116Y-128391789D01*
X237548916Y-128463418D01*
X237548912Y-128463421D01*
X237457755Y-128554578D01*
X237457752Y-128554582D01*
X237386123Y-128661782D01*
X237386122Y-128661784D01*
X237336788Y-128780889D01*
X237336785Y-128780898D01*
X237311636Y-128907334D01*
X235832189Y-128907334D01*
X237756907Y-126982616D01*
X237803865Y-126901281D01*
X237807132Y-126895623D01*
X237833131Y-126798594D01*
X237833131Y-122148513D01*
X237852816Y-122081474D01*
X237905620Y-122035719D01*
X237974778Y-122025775D01*
X238038334Y-122054800D01*
X238060230Y-122079618D01*
X238083343Y-122114209D01*
X238091618Y-122126594D01*
X238182776Y-122217752D01*
X238182780Y-122217755D01*
X238289978Y-122289383D01*
X238289979Y-122289383D01*
X238289980Y-122289384D01*
X238289982Y-122289385D01*
X238357183Y-122317220D01*
X238409089Y-122338720D01*
X238409091Y-122338720D01*
X238409096Y-122338722D01*
X238535532Y-122363871D01*
X238535536Y-122363872D01*
X238535537Y-122363872D01*
X238664464Y-122363872D01*
X238664465Y-122363871D01*
X238706612Y-122355488D01*
X238790903Y-122338722D01*
X238790905Y-122338721D01*
X238790911Y-122338720D01*
X238847049Y-122315466D01*
X238916516Y-122307998D01*
X238978996Y-122339273D01*
X239014648Y-122399362D01*
X239018500Y-122430028D01*
X239018500Y-131550225D01*
X239044499Y-131647254D01*
X239044500Y-131647255D01*
X239058008Y-131670652D01*
X239058008Y-131670653D01*
X239094721Y-131734243D01*
X239094725Y-131734248D01*
X239809181Y-132448704D01*
X239842666Y-132510027D01*
X239845500Y-132536385D01*
X239845500Y-132664467D01*
X239870649Y-132790903D01*
X239870652Y-132790912D01*
X239919986Y-132910017D01*
X239919987Y-132910019D01*
X239991615Y-133017218D01*
X239991619Y-133017223D01*
X240082776Y-133108380D01*
X240082780Y-133108383D01*
X240189978Y-133180011D01*
X240225267Y-133194628D01*
X240279670Y-133238467D01*
X240301736Y-133304761D01*
X240292377Y-133356639D01*
X240281550Y-133382780D01*
X240270651Y-133409092D01*
X240270649Y-133409096D01*
X240245500Y-133535532D01*
X240245500Y-133664467D01*
X240270649Y-133790903D01*
X240270652Y-133790912D01*
X240319986Y-133910017D01*
X240319987Y-133910019D01*
X240391616Y-134017219D01*
X240391619Y-134017223D01*
X240482776Y-134108380D01*
X240482780Y-134108383D01*
X240589978Y-134180011D01*
X240589979Y-134180011D01*
X240589980Y-134180012D01*
X240589982Y-134180013D01*
X240611498Y-134188925D01*
X240709089Y-134229348D01*
X240709091Y-134229348D01*
X240709096Y-134229350D01*
X240835532Y-134254499D01*
X240835536Y-134254500D01*
X240835537Y-134254500D01*
X240964464Y-134254500D01*
X240964465Y-134254499D01*
X241006612Y-134246116D01*
X241090903Y-134229350D01*
X241090906Y-134229348D01*
X241090911Y-134229348D01*
X241210022Y-134180011D01*
X241317220Y-134108383D01*
X241408383Y-134017220D01*
X241480011Y-133910022D01*
X241529348Y-133790911D01*
X241529592Y-133789688D01*
X241553648Y-133668745D01*
X241554500Y-133664463D01*
X241554500Y-133535537D01*
X241554500Y-133535533D01*
X241551403Y-133519967D01*
X241557628Y-133450375D01*
X241558459Y-133448315D01*
X241561296Y-133441461D01*
X241561302Y-133441453D01*
X241587301Y-133344425D01*
X241587301Y-133243975D01*
X241587301Y-133236380D01*
X241587300Y-133236362D01*
X241587300Y-129335532D01*
X249645500Y-129335532D01*
X249645500Y-129464467D01*
X249670649Y-129590903D01*
X249670652Y-129590912D01*
X249719986Y-129710017D01*
X249719987Y-129710019D01*
X249791616Y-129817219D01*
X249791619Y-129817223D01*
X249882776Y-129908380D01*
X249882780Y-129908383D01*
X249989978Y-129980011D01*
X249989979Y-129980011D01*
X249989980Y-129980012D01*
X249989982Y-129980013D01*
X250069385Y-130012902D01*
X250109089Y-130029348D01*
X250109091Y-130029348D01*
X250109096Y-130029350D01*
X250235532Y-130054499D01*
X250235536Y-130054500D01*
X250235537Y-130054500D01*
X250364464Y-130054500D01*
X250364465Y-130054499D01*
X250410182Y-130045406D01*
X250490903Y-130029350D01*
X250490906Y-130029348D01*
X250490911Y-130029348D01*
X250610022Y-129980011D01*
X250717220Y-129908383D01*
X250808383Y-129817220D01*
X250880011Y-129710022D01*
X250929348Y-129590911D01*
X250941691Y-129528861D01*
X250953269Y-129470652D01*
X250954500Y-129464463D01*
X250954500Y-129335537D01*
X250943816Y-129281824D01*
X250929350Y-129209096D01*
X250929347Y-129209087D01*
X250929055Y-129208383D01*
X250880011Y-129089978D01*
X250808383Y-128982780D01*
X250808380Y-128982776D01*
X250717223Y-128891619D01*
X250717219Y-128891616D01*
X250610019Y-128819987D01*
X250610017Y-128819986D01*
X250490912Y-128770652D01*
X250490903Y-128770649D01*
X250364467Y-128745500D01*
X250364463Y-128745500D01*
X250235537Y-128745500D01*
X250235532Y-128745500D01*
X250109096Y-128770649D01*
X250109087Y-128770652D01*
X249989982Y-128819986D01*
X249989980Y-128819987D01*
X249882780Y-128891616D01*
X249882776Y-128891619D01*
X249791619Y-128982776D01*
X249791616Y-128982780D01*
X249719987Y-129089980D01*
X249719986Y-129089982D01*
X249670652Y-129209087D01*
X249670649Y-129209096D01*
X249645500Y-129335532D01*
X241587300Y-129335532D01*
X241587300Y-125935532D01*
X245045500Y-125935532D01*
X245045500Y-126064467D01*
X245070649Y-126190903D01*
X245070652Y-126190912D01*
X245119986Y-126310017D01*
X245119987Y-126310019D01*
X245191616Y-126417219D01*
X245191619Y-126417223D01*
X245282776Y-126508380D01*
X245282780Y-126508383D01*
X245389978Y-126580011D01*
X245389979Y-126580011D01*
X245389980Y-126580012D01*
X245389982Y-126580013D01*
X245469385Y-126612902D01*
X245509089Y-126629348D01*
X245509091Y-126629348D01*
X245509096Y-126629350D01*
X245635532Y-126654499D01*
X245635536Y-126654500D01*
X245635537Y-126654500D01*
X245764464Y-126654500D01*
X245764465Y-126654499D01*
X245806612Y-126646116D01*
X245890903Y-126629350D01*
X245890906Y-126629348D01*
X245890911Y-126629348D01*
X246010022Y-126580011D01*
X246117220Y-126508383D01*
X246208383Y-126417220D01*
X246280011Y-126310022D01*
X246329348Y-126190911D01*
X246354500Y-126064463D01*
X246354500Y-125935537D01*
X246349424Y-125910017D01*
X246329350Y-125809096D01*
X246329347Y-125809087D01*
X246319592Y-125785537D01*
X246280011Y-125689978D01*
X246218777Y-125598335D01*
X246218776Y-125598333D01*
X246208385Y-125582782D01*
X246208380Y-125582776D01*
X246161136Y-125535532D01*
X249745500Y-125535532D01*
X249745500Y-125664467D01*
X249770649Y-125790903D01*
X249770652Y-125790912D01*
X249819986Y-125910017D01*
X249819987Y-125910019D01*
X249891616Y-126017219D01*
X249891619Y-126017223D01*
X249982776Y-126108380D01*
X249982780Y-126108383D01*
X250089978Y-126180011D01*
X250089979Y-126180011D01*
X250089980Y-126180012D01*
X250089982Y-126180013D01*
X250169385Y-126212902D01*
X250209089Y-126229348D01*
X250209091Y-126229348D01*
X250209096Y-126229350D01*
X250335532Y-126254499D01*
X250335536Y-126254500D01*
X250335537Y-126254500D01*
X250464464Y-126254500D01*
X250464465Y-126254499D01*
X250506612Y-126246116D01*
X250590903Y-126229350D01*
X250590906Y-126229348D01*
X250590911Y-126229348D01*
X250710022Y-126180011D01*
X250817220Y-126108383D01*
X250908383Y-126017220D01*
X250980011Y-125910022D01*
X251029348Y-125790911D01*
X251030418Y-125785536D01*
X251054499Y-125664467D01*
X251054500Y-125664464D01*
X251054500Y-125535536D01*
X251054499Y-125535532D01*
X251029350Y-125409096D01*
X251029347Y-125409087D01*
X250980013Y-125289982D01*
X250980012Y-125289980D01*
X250966654Y-125269989D01*
X250908383Y-125182780D01*
X250908380Y-125182776D01*
X250817223Y-125091619D01*
X250817219Y-125091616D01*
X250710019Y-125019987D01*
X250710017Y-125019986D01*
X250590912Y-124970652D01*
X250590903Y-124970649D01*
X250464467Y-124945500D01*
X250464463Y-124945500D01*
X250335537Y-124945500D01*
X250335532Y-124945500D01*
X250209096Y-124970649D01*
X250209087Y-124970652D01*
X250089982Y-125019986D01*
X250089980Y-125019987D01*
X249982780Y-125091616D01*
X249982776Y-125091619D01*
X249891619Y-125182776D01*
X249891616Y-125182780D01*
X249819987Y-125289980D01*
X249819986Y-125289982D01*
X249770652Y-125409087D01*
X249770649Y-125409096D01*
X249745500Y-125535532D01*
X246161136Y-125535532D01*
X246117223Y-125491619D01*
X246117219Y-125491616D01*
X246010019Y-125419987D01*
X246010017Y-125419986D01*
X245890912Y-125370652D01*
X245890903Y-125370649D01*
X245764467Y-125345500D01*
X245764463Y-125345500D01*
X245635537Y-125345500D01*
X245635532Y-125345500D01*
X245509096Y-125370649D01*
X245509087Y-125370652D01*
X245389982Y-125419986D01*
X245389980Y-125419987D01*
X245282780Y-125491616D01*
X245282776Y-125491619D01*
X245191619Y-125582776D01*
X245191616Y-125582780D01*
X245119987Y-125689980D01*
X245119986Y-125689982D01*
X245070652Y-125809087D01*
X245070649Y-125809096D01*
X245045500Y-125935532D01*
X241587300Y-125935532D01*
X241587300Y-123235532D01*
X246745500Y-123235532D01*
X246745500Y-123364467D01*
X246770649Y-123490903D01*
X246770652Y-123490912D01*
X246819986Y-123610017D01*
X246819987Y-123610019D01*
X246891616Y-123717219D01*
X246891619Y-123717223D01*
X246982776Y-123808380D01*
X246982780Y-123808383D01*
X247089978Y-123880011D01*
X247089979Y-123880011D01*
X247089980Y-123880012D01*
X247089982Y-123880013D01*
X247169385Y-123912902D01*
X247209089Y-123929348D01*
X247209091Y-123929348D01*
X247209096Y-123929350D01*
X247335532Y-123954499D01*
X247335536Y-123954500D01*
X247335537Y-123954500D01*
X247464464Y-123954500D01*
X247464465Y-123954499D01*
X247506612Y-123946116D01*
X247590903Y-123929350D01*
X247590906Y-123929348D01*
X247590911Y-123929348D01*
X247710022Y-123880011D01*
X247817220Y-123808383D01*
X247908383Y-123717220D01*
X247980011Y-123610022D01*
X248029348Y-123490911D01*
X248054500Y-123364463D01*
X248054500Y-123235537D01*
X248054275Y-123234409D01*
X248029350Y-123109096D01*
X248029347Y-123109087D01*
X247980013Y-122989982D01*
X247980012Y-122989980D01*
X247973352Y-122980013D01*
X247908383Y-122882780D01*
X247908380Y-122882776D01*
X247817223Y-122791619D01*
X247817219Y-122791616D01*
X247710019Y-122719987D01*
X247710017Y-122719986D01*
X247590912Y-122670652D01*
X247590903Y-122670649D01*
X247464467Y-122645500D01*
X247464463Y-122645500D01*
X247335537Y-122645500D01*
X247335532Y-122645500D01*
X247209096Y-122670649D01*
X247209087Y-122670652D01*
X247089982Y-122719986D01*
X247089980Y-122719987D01*
X246982780Y-122791616D01*
X246982776Y-122791619D01*
X246891619Y-122882776D01*
X246891616Y-122882780D01*
X246819987Y-122989980D01*
X246819986Y-122989982D01*
X246770652Y-123109087D01*
X246770649Y-123109096D01*
X246745500Y-123235532D01*
X241587300Y-123235532D01*
X241587300Y-122335532D01*
X249745500Y-122335532D01*
X249745500Y-122464467D01*
X249770649Y-122590903D01*
X249770652Y-122590912D01*
X249819986Y-122710017D01*
X249819987Y-122710019D01*
X249891616Y-122817219D01*
X249891619Y-122817223D01*
X249982776Y-122908380D01*
X249982780Y-122908383D01*
X250089978Y-122980011D01*
X250089979Y-122980011D01*
X250089980Y-122980012D01*
X250089982Y-122980013D01*
X250114045Y-122989980D01*
X250209089Y-123029348D01*
X250209091Y-123029348D01*
X250209096Y-123029350D01*
X250335532Y-123054499D01*
X250335536Y-123054500D01*
X250335537Y-123054500D01*
X250464464Y-123054500D01*
X250464465Y-123054499D01*
X250526380Y-123042184D01*
X250590903Y-123029350D01*
X250590906Y-123029348D01*
X250590911Y-123029348D01*
X250710022Y-122980011D01*
X250817220Y-122908383D01*
X250908383Y-122817220D01*
X250980011Y-122710022D01*
X251029348Y-122590911D01*
X251054500Y-122464463D01*
X251054500Y-122335537D01*
X251045320Y-122289384D01*
X251029350Y-122209096D01*
X251029347Y-122209087D01*
X250980013Y-122089982D01*
X250980012Y-122089980D01*
X250974328Y-122081474D01*
X250908383Y-121982780D01*
X250908380Y-121982776D01*
X250817223Y-121891619D01*
X250817219Y-121891616D01*
X250710019Y-121819987D01*
X250710017Y-121819986D01*
X250590912Y-121770652D01*
X250590903Y-121770649D01*
X250464467Y-121745500D01*
X250464463Y-121745500D01*
X250335537Y-121745500D01*
X250335532Y-121745500D01*
X250209096Y-121770649D01*
X250209087Y-121770652D01*
X250089982Y-121819986D01*
X250089980Y-121819987D01*
X249982780Y-121891616D01*
X249982776Y-121891619D01*
X249891619Y-121982776D01*
X249891616Y-121982780D01*
X249819987Y-122089980D01*
X249819986Y-122089982D01*
X249770652Y-122209087D01*
X249770649Y-122209096D01*
X249745500Y-122335532D01*
X241587300Y-122335532D01*
X241587300Y-120635532D01*
X244145500Y-120635532D01*
X244145500Y-120764467D01*
X244170649Y-120890903D01*
X244170652Y-120890912D01*
X244219986Y-121010017D01*
X244219987Y-121010019D01*
X244291616Y-121117219D01*
X244291619Y-121117223D01*
X244382776Y-121208380D01*
X244382780Y-121208383D01*
X244489978Y-121280011D01*
X244489979Y-121280011D01*
X244489980Y-121280012D01*
X244489982Y-121280013D01*
X244569385Y-121312902D01*
X244609089Y-121329348D01*
X244609091Y-121329348D01*
X244609096Y-121329350D01*
X244735532Y-121354499D01*
X244735536Y-121354500D01*
X244735537Y-121354500D01*
X244864464Y-121354500D01*
X244864465Y-121354499D01*
X244906612Y-121346116D01*
X244990903Y-121329350D01*
X244990906Y-121329348D01*
X244990911Y-121329348D01*
X245110022Y-121280011D01*
X245217220Y-121208383D01*
X245308383Y-121117220D01*
X245380011Y-121010022D01*
X245429348Y-120890911D01*
X245454500Y-120764463D01*
X245454500Y-120635537D01*
X245454275Y-120634409D01*
X245429350Y-120509096D01*
X245429347Y-120509087D01*
X245380013Y-120389982D01*
X245380012Y-120389980D01*
X245372909Y-120379350D01*
X245308383Y-120282780D01*
X245308380Y-120282776D01*
X245217223Y-120191619D01*
X245217219Y-120191616D01*
X245110019Y-120119987D01*
X245110017Y-120119986D01*
X244990912Y-120070652D01*
X244990903Y-120070649D01*
X244864467Y-120045500D01*
X244864463Y-120045500D01*
X244735537Y-120045500D01*
X244735532Y-120045500D01*
X244609096Y-120070649D01*
X244609087Y-120070652D01*
X244489982Y-120119986D01*
X244489980Y-120119987D01*
X244382780Y-120191616D01*
X244382776Y-120191619D01*
X244291619Y-120282776D01*
X244291616Y-120282780D01*
X244219987Y-120389980D01*
X244219986Y-120389982D01*
X244170652Y-120509087D01*
X244170649Y-120509096D01*
X244145500Y-120635532D01*
X241587300Y-120635532D01*
X241587300Y-119155572D01*
X241587013Y-119154503D01*
X241575094Y-119110022D01*
X241561302Y-119058547D01*
X241511076Y-118971553D01*
X241490819Y-118951296D01*
X241457334Y-118889973D01*
X241454500Y-118863615D01*
X241454500Y-118735536D01*
X241454499Y-118735532D01*
X241429350Y-118609096D01*
X241429347Y-118609087D01*
X241429055Y-118608383D01*
X241380011Y-118489978D01*
X241308383Y-118382780D01*
X241308380Y-118382776D01*
X241217223Y-118291619D01*
X241217219Y-118291616D01*
X241110019Y-118219987D01*
X241110017Y-118219986D01*
X240990912Y-118170652D01*
X240990903Y-118170649D01*
X240864467Y-118145500D01*
X240864463Y-118145500D01*
X240735537Y-118145500D01*
X240735532Y-118145500D01*
X240609096Y-118170649D01*
X240609087Y-118170652D01*
X240489982Y-118219986D01*
X240489980Y-118219987D01*
X240382780Y-118291616D01*
X240382776Y-118291619D01*
X240291619Y-118382776D01*
X240291616Y-118382780D01*
X240219987Y-118489980D01*
X240219986Y-118489982D01*
X240170652Y-118609087D01*
X240170649Y-118609096D01*
X240145500Y-118735532D01*
X240145500Y-118864467D01*
X240170649Y-118990903D01*
X240170652Y-118990912D01*
X240219986Y-119110017D01*
X240219987Y-119110019D01*
X240291616Y-119217219D01*
X240291619Y-119217223D01*
X240382776Y-119308380D01*
X240382780Y-119308383D01*
X240489978Y-119380011D01*
X240489979Y-119380011D01*
X240489980Y-119380012D01*
X240489982Y-119380013D01*
X240563916Y-119410637D01*
X240609089Y-119429348D01*
X240609091Y-119429348D01*
X240609096Y-119429350D01*
X240724491Y-119452303D01*
X240786402Y-119484687D01*
X240820976Y-119545403D01*
X240824300Y-119573920D01*
X240824300Y-129594534D01*
X240804615Y-129661573D01*
X240751811Y-129707328D01*
X240682653Y-129717272D01*
X240619097Y-129688247D01*
X240612619Y-129682215D01*
X240522023Y-129591619D01*
X240522019Y-129591616D01*
X240414819Y-129519987D01*
X240414817Y-129519986D01*
X240295712Y-129470652D01*
X240295703Y-129470649D01*
X240169267Y-129445500D01*
X240169263Y-129445500D01*
X240040337Y-129445500D01*
X240040332Y-129445500D01*
X239929691Y-129467508D01*
X239860099Y-129461281D01*
X239804922Y-129418417D01*
X239781678Y-129352528D01*
X239781500Y-129345891D01*
X239781500Y-118695466D01*
X239801185Y-118628427D01*
X239817819Y-118607785D01*
X239908380Y-118517223D01*
X239908383Y-118517220D01*
X239980011Y-118410022D01*
X240029348Y-118290911D01*
X240033379Y-118270649D01*
X240051831Y-118177879D01*
X240054500Y-118164463D01*
X240054500Y-118035537D01*
X240045764Y-117991616D01*
X240029350Y-117909096D01*
X240029347Y-117909087D01*
X239980013Y-117789982D01*
X239980012Y-117789980D01*
X239969286Y-117773928D01*
X239908383Y-117682780D01*
X239908380Y-117682776D01*
X239817223Y-117591619D01*
X239817219Y-117591616D01*
X239710019Y-117519987D01*
X239710017Y-117519986D01*
X239590912Y-117470652D01*
X239590903Y-117470649D01*
X239464467Y-117445500D01*
X239464463Y-117445500D01*
X239335537Y-117445500D01*
X239335532Y-117445500D01*
X239209096Y-117470649D01*
X239209087Y-117470652D01*
X239089982Y-117519986D01*
X239089980Y-117519987D01*
X238982780Y-117591616D01*
X238982775Y-117591620D01*
X238946501Y-117627893D01*
X238946492Y-117627904D01*
X238891617Y-117682780D01*
X238819989Y-117789978D01*
X238812169Y-117808855D01*
X238812167Y-117808859D01*
X238770651Y-117909092D01*
X238770649Y-117909096D01*
X238745500Y-118035532D01*
X238745500Y-118164467D01*
X238770649Y-118290903D01*
X238770652Y-118290912D01*
X238819986Y-118410017D01*
X238819987Y-118410019D01*
X238891616Y-118517219D01*
X238891619Y-118517223D01*
X238982181Y-118607785D01*
X239015666Y-118669108D01*
X239018500Y-118695466D01*
X239018500Y-120988715D01*
X238998815Y-121055754D01*
X238946011Y-121101509D01*
X238876853Y-121111453D01*
X238847049Y-121103277D01*
X238842781Y-121101509D01*
X238790911Y-121080024D01*
X238790907Y-121080023D01*
X238790903Y-121080021D01*
X238664467Y-121054872D01*
X238664463Y-121054872D01*
X238535537Y-121054872D01*
X238535532Y-121054872D01*
X238409096Y-121080021D01*
X238409087Y-121080024D01*
X238289982Y-121129358D01*
X238289980Y-121129359D01*
X238182780Y-121200988D01*
X238182776Y-121200991D01*
X238091619Y-121292148D01*
X238091616Y-121292152D01*
X238060233Y-121339121D01*
X238006621Y-121383926D01*
X237937296Y-121392633D01*
X237874269Y-121362479D01*
X237837549Y-121303036D01*
X237833131Y-121270230D01*
X237833131Y-119347097D01*
X237852816Y-119280058D01*
X237869450Y-119259416D01*
X237960011Y-119168854D01*
X237960014Y-119168851D01*
X238031642Y-119061653D01*
X238080979Y-118942542D01*
X238082790Y-118933440D01*
X238100363Y-118845093D01*
X238106131Y-118816094D01*
X238106131Y-118687168D01*
X238090602Y-118609096D01*
X238080981Y-118560727D01*
X238080978Y-118560718D01*
X238031644Y-118441613D01*
X238031643Y-118441611D01*
X238027584Y-118435537D01*
X237960014Y-118334411D01*
X237960011Y-118334407D01*
X237868854Y-118243250D01*
X237868850Y-118243247D01*
X237761650Y-118171618D01*
X237761648Y-118171617D01*
X237642543Y-118122283D01*
X237642534Y-118122280D01*
X237516098Y-118097131D01*
X237516094Y-118097131D01*
X237387168Y-118097131D01*
X237387163Y-118097131D01*
X237260727Y-118122280D01*
X237260718Y-118122283D01*
X237141613Y-118171617D01*
X237141611Y-118171618D01*
X237034411Y-118243247D01*
X237034407Y-118243250D01*
X236943250Y-118334407D01*
X236943247Y-118334411D01*
X236871618Y-118441611D01*
X236871617Y-118441613D01*
X236822283Y-118560718D01*
X236822280Y-118560727D01*
X236797131Y-118687163D01*
X236797131Y-118816098D01*
X236822280Y-118942534D01*
X236822283Y-118942543D01*
X236871617Y-119061648D01*
X236871618Y-119061650D01*
X236943247Y-119168850D01*
X236943250Y-119168854D01*
X237033812Y-119259416D01*
X237067297Y-119320739D01*
X237070131Y-119347097D01*
X237070131Y-126538983D01*
X237050446Y-126606022D01*
X237033812Y-126626664D01*
X236593181Y-127067295D01*
X236531858Y-127100780D01*
X236462166Y-127095796D01*
X236406233Y-127053924D01*
X236381816Y-126988460D01*
X236381500Y-126979614D01*
X236381500Y-119507669D01*
X236381500Y-119507667D01*
X236355501Y-119410638D01*
X236313509Y-119337905D01*
X236305277Y-119323646D01*
X236229916Y-119248285D01*
X236229905Y-119248275D01*
X235976394Y-118994763D01*
X235942909Y-118933440D01*
X235942458Y-118882893D01*
X235954500Y-118822355D01*
X235954500Y-118693429D01*
X235954499Y-118693426D01*
X235954499Y-118693424D01*
X235929350Y-118566988D01*
X235929347Y-118566979D01*
X235926757Y-118560727D01*
X235908738Y-118517223D01*
X235880013Y-118447874D01*
X235880012Y-118447872D01*
X235871769Y-118435536D01*
X235808383Y-118340672D01*
X235808380Y-118340668D01*
X235717223Y-118249511D01*
X235717219Y-118249508D01*
X235610019Y-118177879D01*
X235610017Y-118177878D01*
X235490912Y-118128544D01*
X235490903Y-118128541D01*
X235364467Y-118103392D01*
X235364463Y-118103392D01*
X235235537Y-118103392D01*
X235235532Y-118103392D01*
X235109096Y-118128541D01*
X235109087Y-118128544D01*
X234989982Y-118177878D01*
X234989980Y-118177879D01*
X234882780Y-118249508D01*
X234882776Y-118249511D01*
X234791619Y-118340668D01*
X234791616Y-118340672D01*
X234719987Y-118447872D01*
X234719986Y-118447874D01*
X234670652Y-118566979D01*
X234670649Y-118566988D01*
X234645500Y-118693424D01*
X234645500Y-118822359D01*
X234670649Y-118948795D01*
X234670652Y-118948804D01*
X234719986Y-119067909D01*
X234719987Y-119067911D01*
X234791616Y-119175111D01*
X234791619Y-119175115D01*
X234882776Y-119266272D01*
X234882780Y-119266275D01*
X234989978Y-119337903D01*
X234989979Y-119337903D01*
X234989980Y-119337904D01*
X234989982Y-119337905D01*
X235012174Y-119347097D01*
X235109089Y-119387240D01*
X235109091Y-119387240D01*
X235109096Y-119387242D01*
X235235532Y-119412391D01*
X235235536Y-119412392D01*
X235235537Y-119412392D01*
X235263615Y-119412392D01*
X235330654Y-119432077D01*
X235351296Y-119448711D01*
X235582181Y-119679595D01*
X235615666Y-119740918D01*
X235618500Y-119767276D01*
X235618500Y-126926141D01*
X235609855Y-126955581D01*
X235603332Y-126985568D01*
X235599577Y-126990583D01*
X235598815Y-126993180D01*
X235582181Y-127013822D01*
X235497314Y-127098689D01*
X235435991Y-127132174D01*
X235409633Y-127135008D01*
X235281552Y-127135008D01*
X235155116Y-127160157D01*
X235155107Y-127160160D01*
X235036002Y-127209494D01*
X235036000Y-127209495D01*
X234928800Y-127281124D01*
X234928796Y-127281127D01*
X234837639Y-127372284D01*
X234837636Y-127372288D01*
X234766007Y-127479488D01*
X234766006Y-127479490D01*
X234716672Y-127598595D01*
X234716669Y-127598604D01*
X234691520Y-127725040D01*
X234691520Y-127853975D01*
X234716669Y-127980411D01*
X234716672Y-127980420D01*
X234766006Y-128099525D01*
X234766007Y-128099527D01*
X234837636Y-128206727D01*
X234837639Y-128206731D01*
X234928796Y-128297888D01*
X234928800Y-128297891D01*
X235035998Y-128369519D01*
X235035999Y-128369519D01*
X235036000Y-128369520D01*
X235036002Y-128369521D01*
X235044828Y-128373177D01*
X235099232Y-128417017D01*
X235121297Y-128483311D01*
X235104018Y-128551011D01*
X235085057Y-128575419D01*
X233520134Y-130140342D01*
X233458811Y-130173827D01*
X233389119Y-130168843D01*
X233363563Y-130155764D01*
X233325413Y-130130273D01*
X233310022Y-130119989D01*
X233310020Y-130119988D01*
X233310017Y-130119986D01*
X233190912Y-130070652D01*
X233190903Y-130070649D01*
X233064467Y-130045500D01*
X233064463Y-130045500D01*
X232935537Y-130045500D01*
X232935532Y-130045500D01*
X232809096Y-130070649D01*
X232809087Y-130070652D01*
X232689982Y-130119986D01*
X232689980Y-130119987D01*
X232582780Y-130191616D01*
X232582776Y-130191619D01*
X232491619Y-130282776D01*
X232491616Y-130282780D01*
X232419987Y-130389980D01*
X232419986Y-130389982D01*
X232370652Y-130509087D01*
X232370649Y-130509096D01*
X232345500Y-130635532D01*
X231354396Y-130635532D01*
X231375700Y-130556025D01*
X231375700Y-127600613D01*
X231395385Y-127533574D01*
X231448189Y-127487819D01*
X231517347Y-127477875D01*
X231578366Y-127504760D01*
X231582773Y-127508376D01*
X231582780Y-127508383D01*
X231689978Y-127580011D01*
X231689979Y-127580011D01*
X231689980Y-127580012D01*
X231689982Y-127580013D01*
X231739716Y-127600613D01*
X231809089Y-127629348D01*
X231809091Y-127629348D01*
X231809096Y-127629350D01*
X231935532Y-127654499D01*
X231935536Y-127654500D01*
X231935537Y-127654500D01*
X232064464Y-127654500D01*
X232064465Y-127654499D01*
X232106612Y-127646116D01*
X232190903Y-127629350D01*
X232190906Y-127629348D01*
X232190911Y-127629348D01*
X232310022Y-127580011D01*
X232417220Y-127508383D01*
X232508383Y-127417220D01*
X232580011Y-127310022D01*
X232629348Y-127190911D01*
X232630966Y-127182780D01*
X232649099Y-127091616D01*
X232654500Y-127064463D01*
X232654500Y-126935537D01*
X232639294Y-126859089D01*
X232629350Y-126809096D01*
X232629347Y-126809087D01*
X232624299Y-126796901D01*
X232580011Y-126689978D01*
X232508383Y-126582780D01*
X232508380Y-126582776D01*
X232417223Y-126491619D01*
X232417219Y-126491616D01*
X232310019Y-126419987D01*
X232310017Y-126419986D01*
X232190912Y-126370652D01*
X232190903Y-126370649D01*
X232064467Y-126345500D01*
X232064463Y-126345500D01*
X231935537Y-126345500D01*
X231935532Y-126345500D01*
X231809096Y-126370649D01*
X231809087Y-126370652D01*
X231689982Y-126419986D01*
X231689980Y-126419987D01*
X231582776Y-126491618D01*
X231578359Y-126495244D01*
X231514048Y-126522553D01*
X231445181Y-126510758D01*
X231393624Y-126463603D01*
X231375700Y-126399386D01*
X231375700Y-124376306D01*
X231395385Y-124309267D01*
X231448189Y-124263512D01*
X231517347Y-124253568D01*
X231523877Y-124254686D01*
X231634535Y-124276697D01*
X231634536Y-124276698D01*
X231634537Y-124276698D01*
X231763464Y-124276698D01*
X231763465Y-124276697D01*
X231829754Y-124263512D01*
X231889903Y-124251548D01*
X231889906Y-124251546D01*
X231889911Y-124251546D01*
X232009022Y-124202209D01*
X232116220Y-124130581D01*
X232207383Y-124039418D01*
X232279011Y-123932220D01*
X232328348Y-123813109D01*
X232353500Y-123686661D01*
X232353500Y-123557735D01*
X232340208Y-123490911D01*
X232328350Y-123431294D01*
X232328347Y-123431285D01*
X232279013Y-123312180D01*
X232279012Y-123312178D01*
X232242579Y-123257653D01*
X232207383Y-123204978D01*
X232207380Y-123204974D01*
X232116223Y-123113817D01*
X232116219Y-123113814D01*
X232009019Y-123042185D01*
X232009017Y-123042184D01*
X231889912Y-122992850D01*
X231889903Y-122992847D01*
X231763467Y-122967698D01*
X231763463Y-122967698D01*
X231634537Y-122967698D01*
X231634532Y-122967698D01*
X231523891Y-122989706D01*
X231454299Y-122983479D01*
X231399122Y-122940615D01*
X231375878Y-122874726D01*
X231375700Y-122868089D01*
X231375700Y-122568822D01*
X231395385Y-122501783D01*
X231448189Y-122456028D01*
X231517347Y-122446084D01*
X231568587Y-122465718D01*
X231589978Y-122480011D01*
X231589981Y-122480012D01*
X231589984Y-122480014D01*
X231679311Y-122517013D01*
X231709089Y-122529348D01*
X231709091Y-122529348D01*
X231709096Y-122529350D01*
X231835532Y-122554499D01*
X231835536Y-122554500D01*
X231835537Y-122554500D01*
X231964464Y-122554500D01*
X231964465Y-122554499D01*
X232006612Y-122546116D01*
X232090903Y-122529350D01*
X232090906Y-122529348D01*
X232090911Y-122529348D01*
X232210022Y-122480011D01*
X232317220Y-122408383D01*
X232408383Y-122317220D01*
X232480011Y-122210022D01*
X232529348Y-122090911D01*
X232529534Y-122089980D01*
X232546116Y-122006612D01*
X232554500Y-121964463D01*
X232554500Y-121835537D01*
X232536591Y-121745500D01*
X232529350Y-121709096D01*
X232529347Y-121709087D01*
X232480013Y-121589982D01*
X232480012Y-121589980D01*
X232408383Y-121482780D01*
X232408380Y-121482776D01*
X232317223Y-121391619D01*
X232317219Y-121391616D01*
X232210019Y-121319987D01*
X232210017Y-121319986D01*
X232090912Y-121270652D01*
X232090903Y-121270650D01*
X232049829Y-121262480D01*
X231987918Y-121230096D01*
X231953344Y-121169380D01*
X231957083Y-121099611D01*
X231986337Y-121053184D01*
X233548703Y-119490819D01*
X233610026Y-119457334D01*
X233636384Y-119454500D01*
X233764464Y-119454500D01*
X233764465Y-119454499D01*
X233806612Y-119446116D01*
X233890903Y-119429350D01*
X233890906Y-119429348D01*
X233890911Y-119429348D01*
X234010022Y-119380011D01*
X234117220Y-119308383D01*
X234208383Y-119217220D01*
X234280011Y-119110022D01*
X234329348Y-118990911D01*
X234337725Y-118948800D01*
X234354499Y-118864467D01*
X234354500Y-118864464D01*
X234354500Y-118735536D01*
X234354499Y-118735532D01*
X234329350Y-118609096D01*
X234329347Y-118609087D01*
X234329055Y-118608383D01*
X234280011Y-118489978D01*
X234208383Y-118382780D01*
X234208380Y-118382776D01*
X234117223Y-118291619D01*
X234117219Y-118291616D01*
X234010019Y-118219987D01*
X234010017Y-118219986D01*
X233890912Y-118170652D01*
X233890903Y-118170649D01*
X233764467Y-118145500D01*
X233764463Y-118145500D01*
X233635537Y-118145500D01*
X233635532Y-118145500D01*
X233509096Y-118170649D01*
X233509087Y-118170652D01*
X233389982Y-118219986D01*
X233389980Y-118219987D01*
X233282780Y-118291616D01*
X233282776Y-118291619D01*
X233191619Y-118382776D01*
X233191616Y-118382780D01*
X233119987Y-118489980D01*
X233119986Y-118489982D01*
X233070652Y-118609087D01*
X233070649Y-118609096D01*
X233045500Y-118735532D01*
X233045500Y-118863614D01*
X233036853Y-118893059D01*
X233030331Y-118923042D01*
X233026577Y-118928055D01*
X233025815Y-118930653D01*
X233009180Y-118951296D01*
X232968235Y-118992240D01*
X232906912Y-119025725D01*
X232837220Y-119020739D01*
X232781287Y-118978867D01*
X232756871Y-118913403D01*
X232758938Y-118880366D01*
X232770478Y-118822352D01*
X232770478Y-118693426D01*
X232765641Y-118669108D01*
X232745328Y-118566985D01*
X232745325Y-118566976D01*
X232695991Y-118447871D01*
X232695990Y-118447869D01*
X232691807Y-118441609D01*
X232624361Y-118340669D01*
X232624360Y-118340668D01*
X232624358Y-118340665D01*
X232533201Y-118249508D01*
X232533197Y-118249505D01*
X232425997Y-118177876D01*
X232425995Y-118177875D01*
X232306890Y-118128541D01*
X232306881Y-118128538D01*
X232180445Y-118103389D01*
X232180441Y-118103389D01*
X232051515Y-118103389D01*
X232051510Y-118103389D01*
X231925074Y-118128538D01*
X231925065Y-118128541D01*
X231805960Y-118177875D01*
X231805958Y-118177876D01*
X231698758Y-118249505D01*
X231698754Y-118249508D01*
X231607597Y-118340665D01*
X231607594Y-118340669D01*
X231535965Y-118447869D01*
X231535964Y-118447871D01*
X231486630Y-118566976D01*
X231486627Y-118566985D01*
X231461478Y-118693421D01*
X231461478Y-118822356D01*
X231486627Y-118948792D01*
X231486630Y-118948801D01*
X231535964Y-119067906D01*
X231535965Y-119067908D01*
X231607594Y-119175108D01*
X231607597Y-119175112D01*
X231698754Y-119266269D01*
X231698758Y-119266272D01*
X231805956Y-119337900D01*
X231805957Y-119337900D01*
X231805958Y-119337901D01*
X231805960Y-119337902D01*
X231885363Y-119370791D01*
X231925067Y-119387237D01*
X231925069Y-119387237D01*
X231925074Y-119387239D01*
X232051510Y-119412388D01*
X232051514Y-119412389D01*
X232051515Y-119412389D01*
X232180442Y-119412389D01*
X232180442Y-119412388D01*
X232238456Y-119400849D01*
X232308046Y-119407076D01*
X232363224Y-119449938D01*
X232386469Y-119515828D01*
X232370402Y-119583825D01*
X232350328Y-119610147D01*
X230759953Y-121200524D01*
X230688925Y-121271551D01*
X230688923Y-121271554D01*
X230638699Y-121358545D01*
X230638699Y-121358546D01*
X230612700Y-121455575D01*
X230612700Y-121455577D01*
X230612700Y-130130273D01*
X230593015Y-130197312D01*
X230540211Y-130243067D01*
X230471053Y-130253011D01*
X230407497Y-130223986D01*
X230384040Y-130194611D01*
X230383395Y-130195043D01*
X230341537Y-130132399D01*
X230308383Y-130082780D01*
X230308380Y-130082776D01*
X230217223Y-129991619D01*
X230217219Y-129991616D01*
X230110019Y-129919987D01*
X230110017Y-129919986D01*
X229990912Y-129870652D01*
X229990903Y-129870649D01*
X229887109Y-129850004D01*
X229825198Y-129817619D01*
X229790624Y-129756904D01*
X229787300Y-129728387D01*
X229787300Y-119213698D01*
X229806985Y-119146659D01*
X229859789Y-119100904D01*
X229863848Y-119099137D01*
X229910017Y-119080013D01*
X229910016Y-119080013D01*
X229910022Y-119080011D01*
X230017220Y-119008383D01*
X230108383Y-118917220D01*
X230180011Y-118810022D01*
X230229348Y-118690911D01*
X230254500Y-118564463D01*
X230254500Y-118435537D01*
X230244005Y-118382776D01*
X230229350Y-118309096D01*
X230229347Y-118309087D01*
X230222110Y-118291616D01*
X230196319Y-118229350D01*
X230180013Y-118189982D01*
X230180012Y-118189980D01*
X230173352Y-118180013D01*
X230108383Y-118082780D01*
X230108380Y-118082776D01*
X230017223Y-117991619D01*
X230017219Y-117991616D01*
X229910019Y-117919987D01*
X229910017Y-117919986D01*
X229790912Y-117870652D01*
X229790903Y-117870649D01*
X229664467Y-117845500D01*
X229664463Y-117845500D01*
X229535537Y-117845500D01*
X229535532Y-117845500D01*
X229409096Y-117870649D01*
X229409087Y-117870652D01*
X229289982Y-117919986D01*
X229289980Y-117919987D01*
X229182780Y-117991616D01*
X229182776Y-117991619D01*
X229091619Y-118082776D01*
X229091616Y-118082780D01*
X229019987Y-118189980D01*
X229019986Y-118189982D01*
X228970652Y-118309087D01*
X228970649Y-118309096D01*
X228945500Y-118435532D01*
X228945500Y-118435536D01*
X228945500Y-118435537D01*
X228945500Y-118564463D01*
X228948135Y-118577714D01*
X228954215Y-118608281D01*
X228954218Y-118608295D01*
X228970652Y-118690911D01*
X229014861Y-118797643D01*
X229024300Y-118845093D01*
X229024300Y-127946090D01*
X229004615Y-128013129D01*
X228951811Y-128058884D01*
X228882653Y-128068828D01*
X228876109Y-128067707D01*
X228764467Y-128045500D01*
X228764463Y-128045500D01*
X228635537Y-128045500D01*
X228635532Y-128045500D01*
X228509096Y-128070649D01*
X228509087Y-128070652D01*
X228389982Y-128119986D01*
X228389980Y-128119987D01*
X228282780Y-128191616D01*
X228282776Y-128191619D01*
X228191619Y-128282776D01*
X228191616Y-128282780D01*
X228119987Y-128389980D01*
X228119986Y-128389982D01*
X228070652Y-128509087D01*
X228070649Y-128509096D01*
X228045500Y-128635532D01*
X228045500Y-128764467D01*
X228070649Y-128890903D01*
X228070652Y-128890912D01*
X228119986Y-129010017D01*
X228119987Y-129010019D01*
X228191616Y-129117219D01*
X228191619Y-129117223D01*
X228282776Y-129208380D01*
X228282780Y-129208383D01*
X228389978Y-129280011D01*
X228389979Y-129280011D01*
X228389980Y-129280012D01*
X228389982Y-129280013D01*
X228469385Y-129312902D01*
X228509089Y-129329348D01*
X228509091Y-129329348D01*
X228509096Y-129329350D01*
X228635532Y-129354499D01*
X228635536Y-129354500D01*
X228635537Y-129354500D01*
X228764464Y-129354500D01*
X228764464Y-129354499D01*
X228876109Y-129332292D01*
X228897092Y-129334169D01*
X228917947Y-129331171D01*
X228931194Y-129337221D01*
X228945700Y-129338519D01*
X228962337Y-129351443D01*
X228981503Y-129360196D01*
X228989377Y-129372448D01*
X229000877Y-129381382D01*
X229007885Y-129401248D01*
X229019277Y-129418974D01*
X229022811Y-129443556D01*
X229024122Y-129447271D01*
X229024300Y-129453909D01*
X229024300Y-129686662D01*
X229004615Y-129753701D01*
X228987981Y-129774343D01*
X228742520Y-130019802D01*
X228742511Y-130019814D01*
X228688922Y-130073402D01*
X228638699Y-130160393D01*
X228630772Y-130189978D01*
X228612700Y-130257423D01*
X228612700Y-132844425D01*
X228630276Y-132910019D01*
X228638699Y-132941455D01*
X228638700Y-132941456D01*
X228659415Y-132977335D01*
X228682442Y-133017220D01*
X228687912Y-133026695D01*
X228691276Y-133032520D01*
X228707750Y-133100420D01*
X228698452Y-133141973D01*
X228670651Y-133209092D01*
X228670649Y-133209096D01*
X228645500Y-133335532D01*
X228645500Y-133464467D01*
X228670649Y-133590903D01*
X228670652Y-133590912D01*
X228719986Y-133710017D01*
X228719987Y-133710019D01*
X228791616Y-133817219D01*
X228791619Y-133817223D01*
X228875415Y-133901019D01*
X228908900Y-133962342D01*
X228903916Y-134032034D01*
X228862044Y-134087967D01*
X228796580Y-134112384D01*
X228787734Y-134112700D01*
X227905432Y-134112700D01*
X227838393Y-134093015D01*
X227817751Y-134076381D01*
X225087882Y-131346511D01*
X225054397Y-131285188D01*
X225059381Y-131215496D01*
X225101253Y-131159563D01*
X225151370Y-131137213D01*
X225190911Y-131129348D01*
X225310022Y-131080011D01*
X225417220Y-131008383D01*
X225508383Y-130917220D01*
X225580011Y-130810022D01*
X225629348Y-130690911D01*
X225654500Y-130564463D01*
X225654500Y-130435537D01*
X225654275Y-130434409D01*
X225629350Y-130309096D01*
X225629347Y-130309087D01*
X225618450Y-130282780D01*
X225602001Y-130243067D01*
X225580013Y-130189982D01*
X225580012Y-130189980D01*
X225541537Y-130132399D01*
X225508383Y-130082780D01*
X225508380Y-130082776D01*
X225417223Y-129991619D01*
X225417219Y-129991616D01*
X225310019Y-129919987D01*
X225310017Y-129919986D01*
X225190912Y-129870652D01*
X225190903Y-129870649D01*
X225064467Y-129845500D01*
X225064463Y-129845500D01*
X224935537Y-129845500D01*
X224935532Y-129845500D01*
X224809096Y-129870649D01*
X224809087Y-129870652D01*
X224689982Y-129919986D01*
X224689980Y-129919987D01*
X224582780Y-129991616D01*
X224582776Y-129991619D01*
X224491619Y-130082776D01*
X224491616Y-130082780D01*
X224419987Y-130189980D01*
X224419986Y-130189982D01*
X224370652Y-130309087D01*
X224370651Y-130309092D01*
X224362786Y-130348630D01*
X224330400Y-130410540D01*
X224269683Y-130445113D01*
X224199914Y-130441372D01*
X224153488Y-130412117D01*
X223517819Y-129776448D01*
X223484334Y-129715125D01*
X223481500Y-129688767D01*
X223481500Y-128195466D01*
X223501185Y-128128427D01*
X223517819Y-128107785D01*
X223608380Y-128017223D01*
X223608383Y-128017220D01*
X223680011Y-127910022D01*
X223729348Y-127790911D01*
X223754500Y-127664463D01*
X223754500Y-127535537D01*
X223748378Y-127504760D01*
X223729350Y-127409096D01*
X223729347Y-127409087D01*
X223680013Y-127289982D01*
X223680012Y-127289980D01*
X223675202Y-127282782D01*
X223608383Y-127182780D01*
X223608380Y-127182776D01*
X223517223Y-127091619D01*
X223517219Y-127091616D01*
X223410019Y-127019987D01*
X223410017Y-127019986D01*
X223290912Y-126970652D01*
X223290903Y-126970649D01*
X223164467Y-126945500D01*
X223164463Y-126945500D01*
X223035537Y-126945500D01*
X223035532Y-126945500D01*
X222909096Y-126970649D01*
X222909087Y-126970652D01*
X222789982Y-127019986D01*
X222789980Y-127019987D01*
X222682780Y-127091616D01*
X222682776Y-127091619D01*
X222591619Y-127182776D01*
X222591616Y-127182780D01*
X222519987Y-127289980D01*
X222519986Y-127289982D01*
X222470652Y-127409087D01*
X222470649Y-127409096D01*
X222445500Y-127535532D01*
X222445500Y-127664467D01*
X222470649Y-127790903D01*
X222470652Y-127790912D01*
X222519986Y-127910017D01*
X222519987Y-127910019D01*
X222591616Y-128017219D01*
X222591619Y-128017223D01*
X222682181Y-128107785D01*
X222715666Y-128169108D01*
X222718500Y-128195466D01*
X222718500Y-129948377D01*
X222730087Y-129991619D01*
X222744499Y-130045407D01*
X222744500Y-130045408D01*
X222787559Y-130119989D01*
X222794721Y-130132395D01*
X222794726Y-130132401D01*
X225650822Y-132988497D01*
X225684307Y-133049820D01*
X225679323Y-133119512D01*
X225637451Y-133175445D01*
X225610593Y-133190739D01*
X225539982Y-133219986D01*
X225539980Y-133219987D01*
X225432780Y-133291616D01*
X225432776Y-133291619D01*
X225341619Y-133382776D01*
X225341616Y-133382780D01*
X225269987Y-133489980D01*
X225269986Y-133489982D01*
X225220652Y-133609087D01*
X225220649Y-133609096D01*
X225195500Y-133735532D01*
X225195500Y-133864467D01*
X225220649Y-133990903D01*
X225220652Y-133990912D01*
X225269986Y-134110017D01*
X225269987Y-134110019D01*
X225341616Y-134217219D01*
X225341619Y-134217223D01*
X225432776Y-134308380D01*
X225432780Y-134308383D01*
X225539978Y-134380011D01*
X225539979Y-134380011D01*
X225539980Y-134380012D01*
X225539982Y-134380013D01*
X225600976Y-134405277D01*
X225659089Y-134429348D01*
X225659091Y-134429348D01*
X225659096Y-134429350D01*
X225785532Y-134454499D01*
X225785536Y-134454500D01*
X225785537Y-134454500D01*
X225914464Y-134454500D01*
X225914465Y-134454499D01*
X225956612Y-134446116D01*
X226040903Y-134429350D01*
X226040906Y-134429348D01*
X226040911Y-134429348D01*
X226160022Y-134380011D01*
X226267220Y-134308383D01*
X226358383Y-134217220D01*
X226430011Y-134110022D01*
X226459261Y-134039406D01*
X226503101Y-133985002D01*
X226569395Y-133962937D01*
X226637095Y-133980216D01*
X226661503Y-133999177D01*
X227269145Y-134606819D01*
X227302630Y-134668142D01*
X227297646Y-134737834D01*
X227255774Y-134793767D01*
X227190310Y-134818184D01*
X227181464Y-134818500D01*
X226249775Y-134818500D01*
X226177003Y-134837999D01*
X226152745Y-134844499D01*
X226065754Y-134894723D01*
X226065751Y-134894725D01*
X225994722Y-134965755D01*
X216551295Y-144409181D01*
X216489972Y-144442666D01*
X216463614Y-144445500D01*
X216335532Y-144445500D01*
X216209096Y-144470649D01*
X216209087Y-144470652D01*
X216089982Y-144519986D01*
X216089980Y-144519987D01*
X215982780Y-144591616D01*
X215982776Y-144591619D01*
X215891619Y-144682776D01*
X215891616Y-144682780D01*
X215819987Y-144789980D01*
X215819986Y-144789982D01*
X215770652Y-144909087D01*
X215770649Y-144909096D01*
X215745500Y-145035532D01*
X215745500Y-145164467D01*
X215770649Y-145290903D01*
X215770652Y-145290912D01*
X215819986Y-145410017D01*
X215819987Y-145410019D01*
X215891616Y-145517219D01*
X215891619Y-145517223D01*
X215982776Y-145608380D01*
X215982780Y-145608383D01*
X216089978Y-145680011D01*
X216089979Y-145680011D01*
X216089980Y-145680012D01*
X216089982Y-145680013D01*
X216169385Y-145712902D01*
X216209089Y-145729348D01*
X216209091Y-145729348D01*
X216209096Y-145729350D01*
X216335532Y-145754499D01*
X216335536Y-145754500D01*
X216335537Y-145754500D01*
X216464464Y-145754500D01*
X216464465Y-145754499D01*
X216506612Y-145746116D01*
X216590903Y-145729350D01*
X216590906Y-145729348D01*
X216590911Y-145729348D01*
X216710022Y-145680011D01*
X216817220Y-145608383D01*
X216908383Y-145517220D01*
X216980011Y-145410022D01*
X217029348Y-145290911D01*
X217029730Y-145288995D01*
X217054499Y-145164467D01*
X217054500Y-145164464D01*
X217054500Y-145036383D01*
X217074185Y-144969344D01*
X217090814Y-144948707D01*
X224735783Y-137303737D01*
X224797104Y-137270254D01*
X224866796Y-137275238D01*
X224922729Y-137317110D01*
X224938021Y-137343962D01*
X224941993Y-137353551D01*
X225013622Y-137460751D01*
X225013625Y-137460755D01*
X225104782Y-137551912D01*
X225104786Y-137551915D01*
X225211984Y-137623543D01*
X225211985Y-137623543D01*
X225211986Y-137623544D01*
X225211988Y-137623545D01*
X225240928Y-137635532D01*
X225331095Y-137672880D01*
X225331097Y-137672880D01*
X225331102Y-137672882D01*
X225457538Y-137698031D01*
X225457542Y-137698032D01*
X225457543Y-137698032D01*
X225586470Y-137698032D01*
X225586471Y-137698031D01*
X225628618Y-137689648D01*
X225712909Y-137672882D01*
X225712912Y-137672880D01*
X225712917Y-137672880D01*
X225832028Y-137623543D01*
X225939226Y-137551915D01*
X226030389Y-137460752D01*
X226102017Y-137353554D01*
X226151354Y-137234443D01*
X226152076Y-137230817D01*
X226176505Y-137107999D01*
X226176506Y-137107996D01*
X226176506Y-136979068D01*
X226176505Y-136979064D01*
X226151356Y-136852628D01*
X226151353Y-136852619D01*
X226102019Y-136733514D01*
X226102018Y-136733512D01*
X226091532Y-136717819D01*
X226030389Y-136626312D01*
X226030386Y-136626308D01*
X225939229Y-136535151D01*
X225939225Y-136535148D01*
X225832025Y-136463519D01*
X225822436Y-136459547D01*
X225768035Y-136415704D01*
X225745973Y-136349409D01*
X225763255Y-136281710D01*
X225782208Y-136257312D01*
X226421703Y-135617819D01*
X226483026Y-135584334D01*
X226509384Y-135581500D01*
X228304535Y-135581500D01*
X228333974Y-135590144D01*
X228363962Y-135596668D01*
X228368977Y-135600422D01*
X228371574Y-135601185D01*
X228392211Y-135617814D01*
X228445921Y-135671524D01*
X228481215Y-135706818D01*
X228514699Y-135768142D01*
X228509715Y-135837833D01*
X228467843Y-135893767D01*
X228402378Y-135918183D01*
X228393533Y-135918499D01*
X228349775Y-135918499D01*
X228252747Y-135944498D01*
X228252745Y-135944498D01*
X228252745Y-135944499D01*
X228165753Y-135994724D01*
X228165750Y-135994726D01*
X219651295Y-144509181D01*
X219589972Y-144542666D01*
X219563614Y-144545500D01*
X219435532Y-144545500D01*
X219309096Y-144570649D01*
X219309087Y-144570652D01*
X219189982Y-144619986D01*
X219189980Y-144619987D01*
X219082780Y-144691616D01*
X219082776Y-144691619D01*
X218991619Y-144782776D01*
X218991616Y-144782780D01*
X218919987Y-144889980D01*
X218919986Y-144889982D01*
X218870652Y-145009087D01*
X218870649Y-145009096D01*
X218845500Y-145135532D01*
X218845500Y-145264467D01*
X218870649Y-145390903D01*
X218870652Y-145390912D01*
X218919986Y-145510017D01*
X218919987Y-145510019D01*
X218991616Y-145617219D01*
X218991619Y-145617223D01*
X219082776Y-145708380D01*
X219082780Y-145708383D01*
X219189978Y-145780011D01*
X219189979Y-145780011D01*
X219189980Y-145780012D01*
X219189982Y-145780013D01*
X219241097Y-145801185D01*
X219309089Y-145829348D01*
X219309091Y-145829348D01*
X219309096Y-145829350D01*
X219435532Y-145854499D01*
X219435536Y-145854500D01*
X219506615Y-145854500D01*
X219573654Y-145874185D01*
X219619409Y-145926989D01*
X219629353Y-145996147D01*
X219600328Y-146059703D01*
X219594296Y-146066181D01*
X214065751Y-151594726D01*
X214036416Y-151624059D01*
X213996192Y-151650936D01*
X213895242Y-151692752D01*
X213895235Y-151692755D01*
X213755288Y-151786265D01*
X213755284Y-151786268D01*
X213636268Y-151905284D01*
X213636265Y-151905288D01*
X213542755Y-152045235D01*
X213542750Y-152045244D01*
X213478338Y-152200750D01*
X213478336Y-152200758D01*
X213445500Y-152365834D01*
X213154499Y-152365834D01*
X213154499Y-151824934D01*
X213139734Y-151750699D01*
X213101015Y-151692752D01*
X213083484Y-151666515D01*
X213019943Y-151624059D01*
X212999301Y-151610266D01*
X212999299Y-151610265D01*
X212999296Y-151610264D01*
X212925069Y-151595500D01*
X211674936Y-151595500D01*
X211600698Y-151610266D01*
X211516515Y-151666515D01*
X211460266Y-151750699D01*
X211460264Y-151750703D01*
X211445500Y-151824928D01*
X208906793Y-151824928D01*
X208913976Y-151807586D01*
X208915485Y-151800000D01*
X208916550Y-151794648D01*
X208916550Y-151794646D01*
X208953086Y-151610967D01*
X208954500Y-151603859D01*
X208954500Y-151396141D01*
X208954500Y-151396138D01*
X208954499Y-151396136D01*
X208954218Y-151394723D01*
X208913976Y-151192414D01*
X208884708Y-151121755D01*
X208834488Y-151000511D01*
X208834487Y-151000509D01*
X208833556Y-150999116D01*
X208719083Y-150827796D01*
X208719080Y-150827792D01*
X208572207Y-150680919D01*
X208572203Y-150680916D01*
X208399490Y-150565512D01*
X208399488Y-150565511D01*
X208207590Y-150486025D01*
X208207578Y-150486022D01*
X208003862Y-150445500D01*
X208003859Y-150445500D01*
X207796141Y-150445500D01*
X207796138Y-150445500D01*
X207592421Y-150486022D01*
X207592409Y-150486025D01*
X207400511Y-150565511D01*
X207400509Y-150565512D01*
X207227796Y-150680916D01*
X207227792Y-150680919D01*
X207080919Y-150827792D01*
X207080916Y-150827796D01*
X207003102Y-150944253D01*
X206949490Y-150989058D01*
X206880165Y-150997765D01*
X206817137Y-150967610D01*
X206796898Y-150944253D01*
X206719083Y-150827796D01*
X206719080Y-150827792D01*
X206572207Y-150680919D01*
X206572203Y-150680916D01*
X206399490Y-150565512D01*
X206399488Y-150565511D01*
X206207590Y-150486025D01*
X206207578Y-150486022D01*
X206003862Y-150445500D01*
X206003859Y-150445500D01*
X205796141Y-150445500D01*
X205796138Y-150445500D01*
X205592421Y-150486022D01*
X205592409Y-150486025D01*
X205400511Y-150565511D01*
X205400509Y-150565512D01*
X205227796Y-150680916D01*
X205227792Y-150680919D01*
X205080919Y-150827792D01*
X205080916Y-150827796D01*
X205003102Y-150944253D01*
X204949490Y-150989058D01*
X204880165Y-150997765D01*
X204817137Y-150967610D01*
X204796898Y-150944253D01*
X204719083Y-150827796D01*
X204719080Y-150827792D01*
X204572207Y-150680919D01*
X204572203Y-150680916D01*
X204399490Y-150565512D01*
X204399488Y-150565511D01*
X204207590Y-150486025D01*
X204207578Y-150486022D01*
X204003862Y-150445500D01*
X204003859Y-150445500D01*
X203796141Y-150445500D01*
X203796138Y-150445500D01*
X203592421Y-150486022D01*
X203592409Y-150486025D01*
X203400511Y-150565511D01*
X203400509Y-150565512D01*
X203227796Y-150680916D01*
X203227792Y-150680919D01*
X203147429Y-150761283D01*
X203086106Y-150794768D01*
X203016414Y-150789784D01*
X202960481Y-150747912D01*
X202959430Y-150746488D01*
X202891582Y-150653105D01*
X202891582Y-150653104D01*
X202746895Y-150508417D01*
X202581349Y-150388140D01*
X202399029Y-150295244D01*
X202204413Y-150232009D01*
X202150000Y-150223390D01*
X202150000Y-151066988D01*
X202092993Y-151034075D01*
X201965826Y-151000000D01*
X201834174Y-151000000D01*
X201707007Y-151034075D01*
X201650000Y-151066988D01*
X201650000Y-150223390D01*
X201595586Y-150232009D01*
X201400970Y-150295244D01*
X201218650Y-150388140D01*
X201053105Y-150508417D01*
X201053104Y-150508417D01*
X200908417Y-150653104D01*
X200908417Y-150653105D01*
X200788140Y-150818650D01*
X200695244Y-151000970D01*
X200632009Y-151195586D01*
X200623391Y-151250000D01*
X195600500Y-151250000D01*
X195600500Y-147954658D01*
X195620185Y-147887619D01*
X195672989Y-147841864D01*
X195742147Y-147831920D01*
X195805703Y-147860945D01*
X195836220Y-147900856D01*
X195922416Y-148079844D01*
X195922418Y-148079847D01*
X196104944Y-148370337D01*
X196157704Y-148436496D01*
X196305232Y-148621491D01*
X196318847Y-148638563D01*
X196561437Y-148881153D01*
X196829663Y-149095056D01*
X197120153Y-149277582D01*
X197429252Y-149426437D01*
X197672455Y-149511537D01*
X197753062Y-149539743D01*
X197753070Y-149539746D01*
X197753073Y-149539746D01*
X197753074Y-149539747D01*
X198087546Y-149616088D01*
X198428459Y-149654499D01*
X198428460Y-149654500D01*
X198428463Y-149654500D01*
X198771540Y-149654500D01*
X198771540Y-149654499D01*
X199112454Y-149616088D01*
X199446926Y-149539747D01*
X199770748Y-149426437D01*
X200079847Y-149277582D01*
X200370337Y-149095056D01*
X200638563Y-148881153D01*
X200881153Y-148638563D01*
X201095056Y-148370337D01*
X201277582Y-148079847D01*
X201426437Y-147770748D01*
X201539747Y-147446926D01*
X201616088Y-147112454D01*
X201654500Y-146771537D01*
X201654500Y-146428463D01*
X201616088Y-146087546D01*
X201539747Y-145753074D01*
X201426437Y-145429252D01*
X201298921Y-145164463D01*
X201277583Y-145120155D01*
X201276548Y-145118508D01*
X201095056Y-144829663D01*
X200881153Y-144561437D01*
X200638563Y-144318847D01*
X200370337Y-144104944D01*
X200079847Y-143922418D01*
X200079844Y-143922416D01*
X199770751Y-143773564D01*
X199446937Y-143660256D01*
X199446929Y-143660253D01*
X199196072Y-143602997D01*
X199112454Y-143583912D01*
X199112450Y-143583911D01*
X199112441Y-143583910D01*
X198771541Y-143545500D01*
X198771537Y-143545500D01*
X198428463Y-143545500D01*
X198428458Y-143545500D01*
X198087558Y-143583910D01*
X198087546Y-143583912D01*
X197753070Y-143660253D01*
X197753062Y-143660256D01*
X197429248Y-143773564D01*
X197120155Y-143922416D01*
X196829664Y-144104943D01*
X196561437Y-144318846D01*
X196318846Y-144561437D01*
X196104943Y-144829664D01*
X195922416Y-145120155D01*
X195836220Y-145299143D01*
X195789397Y-145351002D01*
X195721970Y-145369315D01*
X195655346Y-145348267D01*
X195610678Y-145294541D01*
X195600500Y-145245341D01*
X195600500Y-137230817D01*
X199624500Y-137230817D01*
X199624500Y-137369183D01*
X199657307Y-137491619D01*
X199660312Y-137502835D01*
X199660313Y-137502838D01*
X199729492Y-137622661D01*
X199729494Y-137622664D01*
X199729495Y-137622665D01*
X199827335Y-137720505D01*
X199947164Y-137789688D01*
X200080817Y-137825500D01*
X200080819Y-137825500D01*
X200219181Y-137825500D01*
X200219183Y-137825500D01*
X200352836Y-137789688D01*
X200472665Y-137720505D01*
X200570505Y-137622665D01*
X200639688Y-137502836D01*
X200675500Y-137369183D01*
X200675500Y-137230817D01*
X200639688Y-137097164D01*
X200570505Y-136977335D01*
X200472665Y-136879495D01*
X200472664Y-136879494D01*
X200472661Y-136879492D01*
X200352838Y-136810313D01*
X200352837Y-136810312D01*
X200352836Y-136810312D01*
X200219183Y-136774500D01*
X200080817Y-136774500D01*
X199947164Y-136810312D01*
X199947161Y-136810313D01*
X199827338Y-136879492D01*
X199827333Y-136879496D01*
X199729496Y-136977333D01*
X199729492Y-136977338D01*
X199660313Y-137097161D01*
X199660312Y-137097164D01*
X199624500Y-137230817D01*
X195600500Y-137230817D01*
X195600500Y-133230817D01*
X199624500Y-133230817D01*
X199624500Y-133369183D01*
X199656868Y-133489980D01*
X199660312Y-133502835D01*
X199660313Y-133502838D01*
X199729492Y-133622661D01*
X199729494Y-133622664D01*
X199729495Y-133622665D01*
X199827335Y-133720505D01*
X199827336Y-133720506D01*
X199827338Y-133720507D01*
X199853371Y-133735537D01*
X199947164Y-133789688D01*
X200080817Y-133825500D01*
X200080819Y-133825500D01*
X200219181Y-133825500D01*
X200219183Y-133825500D01*
X200352836Y-133789688D01*
X200472665Y-133720505D01*
X200570505Y-133622665D01*
X200639688Y-133502836D01*
X200675500Y-133369183D01*
X200675500Y-133230817D01*
X200639688Y-133097164D01*
X200581966Y-132997186D01*
X200570507Y-132977338D01*
X200570503Y-132977333D01*
X200472666Y-132879496D01*
X200472661Y-132879492D01*
X200352838Y-132810313D01*
X200352837Y-132810312D01*
X200352836Y-132810312D01*
X200219183Y-132774500D01*
X200080817Y-132774500D01*
X199947164Y-132810312D01*
X199947161Y-132810313D01*
X199827338Y-132879492D01*
X199827333Y-132879496D01*
X199729496Y-132977333D01*
X199729492Y-132977338D01*
X199660313Y-133097161D01*
X199660312Y-133097164D01*
X199624500Y-133230817D01*
X195600500Y-133230817D01*
X195600500Y-131835532D01*
X206145500Y-131835532D01*
X206145500Y-131964467D01*
X206170649Y-132090903D01*
X206170652Y-132090912D01*
X206219986Y-132210017D01*
X206219987Y-132210019D01*
X206291616Y-132317219D01*
X206291619Y-132317223D01*
X206382776Y-132408380D01*
X206382780Y-132408383D01*
X206489978Y-132480011D01*
X206489979Y-132480011D01*
X206489980Y-132480012D01*
X206489982Y-132480013D01*
X206522309Y-132493403D01*
X206609089Y-132529348D01*
X206609091Y-132529348D01*
X206609096Y-132529350D01*
X206735532Y-132554499D01*
X206735536Y-132554500D01*
X206735537Y-132554500D01*
X206864464Y-132554500D01*
X206864465Y-132554499D01*
X206906612Y-132546116D01*
X206990903Y-132529350D01*
X206990906Y-132529348D01*
X206990911Y-132529348D01*
X207110022Y-132480011D01*
X207217220Y-132408383D01*
X207308383Y-132317220D01*
X207380011Y-132210022D01*
X207429348Y-132090911D01*
X207430267Y-132086295D01*
X207454499Y-131964467D01*
X207454500Y-131964464D01*
X207454500Y-131835536D01*
X207454499Y-131835532D01*
X207429350Y-131709096D01*
X207429347Y-131709087D01*
X207422110Y-131691616D01*
X207380011Y-131589978D01*
X207308383Y-131482780D01*
X207308380Y-131482776D01*
X207217223Y-131391619D01*
X207217219Y-131391616D01*
X207110019Y-131319987D01*
X207110017Y-131319986D01*
X206990912Y-131270652D01*
X206990903Y-131270649D01*
X206864467Y-131245500D01*
X206864463Y-131245500D01*
X206735537Y-131245500D01*
X206735532Y-131245500D01*
X206609096Y-131270649D01*
X206609087Y-131270652D01*
X206489982Y-131319986D01*
X206489980Y-131319987D01*
X206382780Y-131391616D01*
X206382776Y-131391619D01*
X206291619Y-131482776D01*
X206291616Y-131482780D01*
X206219987Y-131589980D01*
X206219986Y-131589982D01*
X206170652Y-131709087D01*
X206170649Y-131709096D01*
X206145500Y-131835532D01*
X195600500Y-131835532D01*
X195600500Y-126985532D01*
X197595500Y-126985532D01*
X197595500Y-127114467D01*
X197620649Y-127240903D01*
X197620652Y-127240912D01*
X197669986Y-127360017D01*
X197669987Y-127360019D01*
X197741616Y-127467219D01*
X197741619Y-127467223D01*
X197832776Y-127558380D01*
X197832780Y-127558383D01*
X197939978Y-127630011D01*
X197939979Y-127630011D01*
X197939980Y-127630012D01*
X197939982Y-127630013D01*
X197999098Y-127654499D01*
X198059089Y-127679348D01*
X198059091Y-127679348D01*
X198059096Y-127679350D01*
X198185532Y-127704499D01*
X198185536Y-127704500D01*
X198185537Y-127704500D01*
X198314464Y-127704500D01*
X198314465Y-127704499D01*
X198356612Y-127696116D01*
X198440903Y-127679350D01*
X198440906Y-127679348D01*
X198440911Y-127679348D01*
X198560022Y-127630011D01*
X198667220Y-127558383D01*
X198758383Y-127467220D01*
X198830011Y-127360022D01*
X198879348Y-127240911D01*
X198886870Y-127203098D01*
X198904499Y-127114467D01*
X198904500Y-127114464D01*
X198904500Y-126985536D01*
X198904499Y-126985532D01*
X198879350Y-126859096D01*
X198879347Y-126859087D01*
X198830013Y-126739982D01*
X198830012Y-126739980D01*
X198758383Y-126632780D01*
X198758380Y-126632776D01*
X198667223Y-126541619D01*
X198667219Y-126541616D01*
X198560019Y-126469987D01*
X198560017Y-126469986D01*
X198440912Y-126420652D01*
X198440903Y-126420649D01*
X198314467Y-126395500D01*
X198314463Y-126395500D01*
X198185537Y-126395500D01*
X198185532Y-126395500D01*
X198059096Y-126420649D01*
X198059087Y-126420652D01*
X197939982Y-126469986D01*
X197939980Y-126469987D01*
X197832780Y-126541616D01*
X197832776Y-126541619D01*
X197741619Y-126632776D01*
X197741616Y-126632780D01*
X197669987Y-126739980D01*
X197669986Y-126739982D01*
X197620652Y-126859087D01*
X197620649Y-126859096D01*
X197595500Y-126985532D01*
X195600500Y-126985532D01*
X195600500Y-125785532D01*
X214095500Y-125785532D01*
X214095500Y-125914467D01*
X214120649Y-126040903D01*
X214120652Y-126040912D01*
X214169986Y-126160017D01*
X214169987Y-126160019D01*
X214241616Y-126267219D01*
X214241619Y-126267223D01*
X214332776Y-126358380D01*
X214332780Y-126358383D01*
X214439978Y-126430011D01*
X214439979Y-126430011D01*
X214439980Y-126430012D01*
X214439982Y-126430013D01*
X214519385Y-126462902D01*
X214559089Y-126479348D01*
X214559091Y-126479348D01*
X214559096Y-126479350D01*
X214685532Y-126504499D01*
X214685536Y-126504500D01*
X214685537Y-126504500D01*
X214814464Y-126504500D01*
X214814465Y-126504499D01*
X214860996Y-126495244D01*
X214940903Y-126479350D01*
X214940906Y-126479348D01*
X214940911Y-126479348D01*
X215060022Y-126430011D01*
X215167220Y-126358383D01*
X215258383Y-126267220D01*
X215330011Y-126160022D01*
X215379348Y-126040911D01*
X215384061Y-126017220D01*
X215404499Y-125914467D01*
X215404500Y-125914464D01*
X215404500Y-125785536D01*
X215404499Y-125785532D01*
X215379350Y-125659096D01*
X215379347Y-125659087D01*
X215330013Y-125539982D01*
X215330012Y-125539980D01*
X215327043Y-125535537D01*
X215258383Y-125432780D01*
X215258380Y-125432776D01*
X215167223Y-125341619D01*
X215167219Y-125341616D01*
X215060019Y-125269987D01*
X215060017Y-125269986D01*
X214940912Y-125220652D01*
X214940903Y-125220649D01*
X214814467Y-125195500D01*
X214814463Y-125195500D01*
X214685537Y-125195500D01*
X214685532Y-125195500D01*
X214559096Y-125220649D01*
X214559087Y-125220652D01*
X214439982Y-125269986D01*
X214439980Y-125269987D01*
X214332780Y-125341616D01*
X214332776Y-125341619D01*
X214241619Y-125432776D01*
X214241616Y-125432780D01*
X214169987Y-125539980D01*
X214169986Y-125539982D01*
X214120652Y-125659087D01*
X214120649Y-125659096D01*
X214095500Y-125785532D01*
X195600500Y-125785532D01*
X195600500Y-119685532D01*
X212295500Y-119685532D01*
X212295500Y-119814467D01*
X212320649Y-119940903D01*
X212320652Y-119940912D01*
X212369986Y-120060017D01*
X212369987Y-120060019D01*
X212441616Y-120167219D01*
X212441619Y-120167223D01*
X212532776Y-120258380D01*
X212532780Y-120258383D01*
X212639978Y-120330011D01*
X212639979Y-120330011D01*
X212639980Y-120330012D01*
X212639982Y-120330013D01*
X212719385Y-120362902D01*
X212759089Y-120379348D01*
X212759091Y-120379348D01*
X212759096Y-120379350D01*
X212885532Y-120404499D01*
X212885536Y-120404500D01*
X212885537Y-120404500D01*
X213014464Y-120404500D01*
X213014465Y-120404499D01*
X213056612Y-120396116D01*
X213140903Y-120379350D01*
X213140906Y-120379348D01*
X213140911Y-120379348D01*
X213260022Y-120330011D01*
X213367220Y-120258383D01*
X213458383Y-120167220D01*
X213530011Y-120060022D01*
X213579348Y-119940911D01*
X213604500Y-119814463D01*
X213604500Y-119685537D01*
X213589504Y-119610147D01*
X213579350Y-119559096D01*
X213579347Y-119559087D01*
X213530013Y-119439982D01*
X213530012Y-119439980D01*
X213524731Y-119432077D01*
X213458383Y-119332780D01*
X213458380Y-119332776D01*
X213367223Y-119241619D01*
X213367219Y-119241616D01*
X213260019Y-119169987D01*
X213260017Y-119169986D01*
X213140912Y-119120652D01*
X213140903Y-119120649D01*
X213014467Y-119095500D01*
X213014463Y-119095500D01*
X212885537Y-119095500D01*
X212885532Y-119095500D01*
X212759096Y-119120649D01*
X212759087Y-119120652D01*
X212639982Y-119169986D01*
X212639980Y-119169987D01*
X212532780Y-119241616D01*
X212532776Y-119241619D01*
X212441619Y-119332776D01*
X212441616Y-119332780D01*
X212369987Y-119439980D01*
X212369986Y-119439982D01*
X212320652Y-119559087D01*
X212320649Y-119559096D01*
X212295500Y-119685532D01*
X195600500Y-119685532D01*
X195600500Y-118835532D01*
X227445500Y-118835532D01*
X227445500Y-118964467D01*
X227470649Y-119090903D01*
X227470652Y-119090912D01*
X227519986Y-119210017D01*
X227519987Y-119210019D01*
X227591616Y-119317219D01*
X227591619Y-119317223D01*
X227682776Y-119408380D01*
X227682780Y-119408383D01*
X227789978Y-119480011D01*
X227789979Y-119480011D01*
X227789980Y-119480012D01*
X227789982Y-119480013D01*
X227856746Y-119507667D01*
X227909089Y-119529348D01*
X227909091Y-119529348D01*
X227909096Y-119529350D01*
X228035532Y-119554499D01*
X228035536Y-119554500D01*
X228035537Y-119554500D01*
X228164464Y-119554500D01*
X228164465Y-119554499D01*
X228210197Y-119545403D01*
X228290903Y-119529350D01*
X228290906Y-119529348D01*
X228290911Y-119529348D01*
X228410022Y-119480011D01*
X228517220Y-119408383D01*
X228608383Y-119317220D01*
X228680011Y-119210022D01*
X228729348Y-119090911D01*
X228733923Y-119067914D01*
X228754499Y-118964467D01*
X228754500Y-118964464D01*
X228754500Y-118835536D01*
X228754499Y-118835533D01*
X228751878Y-118822354D01*
X228729348Y-118709089D01*
X228680011Y-118589978D01*
X228608383Y-118482780D01*
X228608380Y-118482776D01*
X228517223Y-118391619D01*
X228517219Y-118391616D01*
X228410019Y-118319987D01*
X228410017Y-118319986D01*
X228290912Y-118270652D01*
X228290903Y-118270649D01*
X228164467Y-118245500D01*
X228164463Y-118245500D01*
X228035537Y-118245500D01*
X228035532Y-118245500D01*
X227909096Y-118270649D01*
X227909087Y-118270652D01*
X227789982Y-118319986D01*
X227789980Y-118319987D01*
X227682780Y-118391616D01*
X227682776Y-118391619D01*
X227591619Y-118482776D01*
X227591616Y-118482780D01*
X227519987Y-118589980D01*
X227519986Y-118589982D01*
X227470652Y-118709087D01*
X227470649Y-118709096D01*
X227445500Y-118835532D01*
X195600500Y-118835532D01*
X195600500Y-117535532D01*
X217245500Y-117535532D01*
X217245500Y-117664467D01*
X217270649Y-117790903D01*
X217270652Y-117790912D01*
X217319986Y-117910017D01*
X217319987Y-117910019D01*
X217391616Y-118017219D01*
X217391619Y-118017223D01*
X217482776Y-118108380D01*
X217482780Y-118108383D01*
X217589978Y-118180011D01*
X217589979Y-118180011D01*
X217589980Y-118180012D01*
X217589982Y-118180013D01*
X217614045Y-118189980D01*
X217709089Y-118229348D01*
X217709091Y-118229348D01*
X217709096Y-118229350D01*
X217835532Y-118254499D01*
X217835536Y-118254500D01*
X217835537Y-118254500D01*
X217964464Y-118254500D01*
X217964465Y-118254499D01*
X218021036Y-118243247D01*
X218090903Y-118229350D01*
X218090906Y-118229348D01*
X218090911Y-118229348D01*
X218210022Y-118180011D01*
X218317220Y-118108383D01*
X218408383Y-118017220D01*
X218480011Y-117910022D01*
X218529348Y-117790911D01*
X218529534Y-117789980D01*
X218546974Y-117702297D01*
X218554500Y-117664463D01*
X218554500Y-117535537D01*
X218548214Y-117503934D01*
X218529350Y-117409096D01*
X218529347Y-117409087D01*
X218519295Y-117384820D01*
X218480011Y-117289978D01*
X218408383Y-117182780D01*
X218408380Y-117182776D01*
X218355053Y-117129449D01*
X237501339Y-117129449D01*
X237501339Y-117258384D01*
X237526488Y-117384820D01*
X237526491Y-117384829D01*
X237575825Y-117503934D01*
X237575826Y-117503936D01*
X237647455Y-117611136D01*
X237647458Y-117611140D01*
X237738615Y-117702297D01*
X237738619Y-117702300D01*
X237845817Y-117773928D01*
X237845818Y-117773928D01*
X237845819Y-117773929D01*
X237845821Y-117773930D01*
X237886818Y-117790911D01*
X237964928Y-117823265D01*
X237964930Y-117823265D01*
X237964935Y-117823267D01*
X238091371Y-117848416D01*
X238091375Y-117848417D01*
X238091376Y-117848417D01*
X238220303Y-117848417D01*
X238220304Y-117848416D01*
X238262451Y-117840033D01*
X238346742Y-117823267D01*
X238346745Y-117823265D01*
X238346750Y-117823265D01*
X238465861Y-117773928D01*
X238573059Y-117702300D01*
X238664222Y-117611137D01*
X238735850Y-117503939D01*
X238785187Y-117384828D01*
X238810339Y-117258380D01*
X238810339Y-117129454D01*
X238802813Y-117091616D01*
X238785189Y-117003013D01*
X238785186Y-117003004D01*
X238735852Y-116883899D01*
X238735851Y-116883897D01*
X238664222Y-116776697D01*
X238664219Y-116776693D01*
X238573062Y-116685536D01*
X238573058Y-116685533D01*
X238465858Y-116613904D01*
X238465856Y-116613903D01*
X238346751Y-116564569D01*
X238346742Y-116564566D01*
X238220306Y-116539417D01*
X238220302Y-116539417D01*
X238091376Y-116539417D01*
X238091371Y-116539417D01*
X237964935Y-116564566D01*
X237964926Y-116564569D01*
X237845821Y-116613903D01*
X237845819Y-116613904D01*
X237738619Y-116685533D01*
X237738615Y-116685536D01*
X237647458Y-116776693D01*
X237647455Y-116776697D01*
X237575826Y-116883897D01*
X237575825Y-116883899D01*
X237526491Y-117003004D01*
X237526488Y-117003013D01*
X237501339Y-117129449D01*
X218355053Y-117129449D01*
X218317223Y-117091619D01*
X218317219Y-117091616D01*
X218210019Y-117019987D01*
X218210017Y-117019986D01*
X218090912Y-116970652D01*
X218090903Y-116970649D01*
X217964467Y-116945500D01*
X217964463Y-116945500D01*
X217835537Y-116945500D01*
X217835532Y-116945500D01*
X217709096Y-116970649D01*
X217709087Y-116970652D01*
X217589982Y-117019986D01*
X217589980Y-117019987D01*
X217482780Y-117091616D01*
X217482776Y-117091619D01*
X217391619Y-117182776D01*
X217391616Y-117182780D01*
X217319987Y-117289980D01*
X217319986Y-117289982D01*
X217270652Y-117409087D01*
X217270649Y-117409096D01*
X217245500Y-117535532D01*
X195600500Y-117535532D01*
X195600500Y-114600118D01*
X218433499Y-114600118D01*
X218472562Y-114796496D01*
X218472564Y-114796502D01*
X218546903Y-114975973D01*
X218549190Y-114981493D01*
X218604811Y-115064737D01*
X218660434Y-115147983D01*
X218802016Y-115289565D01*
X218802019Y-115289567D01*
X218968507Y-115400810D01*
X219153498Y-115477436D01*
X219153502Y-115477436D01*
X219153503Y-115477437D01*
X219349881Y-115516500D01*
X219349884Y-115516500D01*
X219550118Y-115516500D01*
X219682238Y-115490218D01*
X219746502Y-115477436D01*
X219931493Y-115400810D01*
X220097981Y-115289567D01*
X220239567Y-115147981D01*
X220350810Y-114981493D01*
X220427436Y-114796502D01*
X220440218Y-114732238D01*
X220466500Y-114600118D01*
X220466500Y-114399881D01*
X220427437Y-114203503D01*
X220427436Y-114203502D01*
X220427436Y-114203498D01*
X220350810Y-114018507D01*
X220239567Y-113852019D01*
X220239565Y-113852016D01*
X220097983Y-113710434D01*
X220006156Y-113649078D01*
X219931493Y-113599190D01*
X219910214Y-113590376D01*
X219746502Y-113522564D01*
X219746496Y-113522562D01*
X219550118Y-113483500D01*
X219550116Y-113483500D01*
X219349884Y-113483500D01*
X219349882Y-113483500D01*
X219153503Y-113522562D01*
X219153497Y-113522564D01*
X218968508Y-113599189D01*
X218802016Y-113710434D01*
X218660434Y-113852016D01*
X218549189Y-114018508D01*
X218472564Y-114203497D01*
X218472562Y-114203503D01*
X218433500Y-114399881D01*
X218433500Y-114399884D01*
X218433500Y-114600116D01*
X218433500Y-114600118D01*
X218433499Y-114600118D01*
X195600500Y-114600118D01*
X195600500Y-74835532D01*
X202045500Y-74835532D01*
X202045500Y-74964467D01*
X202070649Y-75090903D01*
X202070652Y-75090912D01*
X202118561Y-75206575D01*
X202128000Y-75254027D01*
X202128000Y-85075305D01*
X202166981Y-85220784D01*
X202224716Y-85320784D01*
X202242286Y-85351216D01*
X202242288Y-85351218D01*
X202471731Y-85580661D01*
X202493713Y-85610462D01*
X202500218Y-85622788D01*
X202503981Y-85636829D01*
X202545309Y-85708411D01*
X202579286Y-85767261D01*
X202579287Y-85767262D01*
X202579288Y-85767263D01*
X209669144Y-92857119D01*
X209702629Y-92918442D01*
X209697645Y-92988134D01*
X209655773Y-93044067D01*
X209590309Y-93068484D01*
X209581463Y-93068800D01*
X206699822Y-93068800D01*
X206632783Y-93049115D01*
X206587028Y-92996311D01*
X206577084Y-92927153D01*
X206585261Y-92897348D01*
X206601924Y-92857119D01*
X206629348Y-92790911D01*
X206629534Y-92789980D01*
X206646116Y-92706612D01*
X206654500Y-92664463D01*
X206654500Y-92535537D01*
X206636591Y-92445500D01*
X206629350Y-92409096D01*
X206629347Y-92409087D01*
X206619930Y-92386353D01*
X206596133Y-92328900D01*
X206580013Y-92289982D01*
X206580012Y-92289980D01*
X206574709Y-92282044D01*
X206508383Y-92182780D01*
X206508380Y-92182776D01*
X206417223Y-92091619D01*
X206417219Y-92091616D01*
X206310019Y-92019987D01*
X206310017Y-92019986D01*
X206190912Y-91970652D01*
X206190903Y-91970649D01*
X206064467Y-91945500D01*
X206064463Y-91945500D01*
X205935537Y-91945500D01*
X205935532Y-91945500D01*
X205809096Y-91970649D01*
X205809087Y-91970652D01*
X205689982Y-92019986D01*
X205689980Y-92019987D01*
X205582780Y-92091616D01*
X205582776Y-92091619D01*
X205491619Y-92182776D01*
X205491616Y-92182780D01*
X205419987Y-92289980D01*
X205419986Y-92289982D01*
X205370652Y-92409087D01*
X205370649Y-92409096D01*
X205345500Y-92535532D01*
X205345500Y-92664467D01*
X205370649Y-92790903D01*
X205370652Y-92790912D01*
X205414739Y-92897348D01*
X205422208Y-92966817D01*
X205390932Y-93029296D01*
X205330843Y-93064948D01*
X205300178Y-93068800D01*
X203995514Y-93068800D01*
X203928475Y-93049115D01*
X203882720Y-92996311D01*
X203880950Y-92992246D01*
X203880011Y-92989978D01*
X203808383Y-92882780D01*
X203808380Y-92882776D01*
X203717223Y-92791619D01*
X203717219Y-92791616D01*
X203610019Y-92719987D01*
X203610017Y-92719986D01*
X203490912Y-92670652D01*
X203490903Y-92670649D01*
X203364467Y-92645500D01*
X203364463Y-92645500D01*
X203235537Y-92645500D01*
X203235532Y-92645500D01*
X203109096Y-92670649D01*
X203109087Y-92670652D01*
X202989982Y-92719986D01*
X202989980Y-92719987D01*
X202882780Y-92791616D01*
X202882776Y-92791619D01*
X202791619Y-92882776D01*
X202791616Y-92882780D01*
X202719987Y-92989980D01*
X202719986Y-92989982D01*
X202670652Y-93109087D01*
X202670649Y-93109096D01*
X202645500Y-93235532D01*
X202645500Y-93364467D01*
X202670649Y-93490903D01*
X202670652Y-93490912D01*
X202719986Y-93610017D01*
X202719987Y-93610019D01*
X202791616Y-93717219D01*
X202791619Y-93717223D01*
X202882776Y-93808380D01*
X202882780Y-93808383D01*
X202989978Y-93880011D01*
X203105645Y-93927921D01*
X203145869Y-93954799D01*
X203183086Y-93992016D01*
X203289584Y-94098514D01*
X203381264Y-94151445D01*
X203420012Y-94173817D01*
X203420013Y-94173817D01*
X203420016Y-94173819D01*
X203565495Y-94212800D01*
X203716105Y-94212800D01*
X209352508Y-94212800D01*
X209419547Y-94232485D01*
X209440189Y-94249119D01*
X215212299Y-100021229D01*
X215245784Y-100082552D01*
X215240800Y-100152244D01*
X215198928Y-100208177D01*
X215193510Y-100212012D01*
X215099703Y-100274692D01*
X215008546Y-100365849D01*
X215008543Y-100365853D01*
X214936914Y-100473053D01*
X214936913Y-100473055D01*
X214887579Y-100592160D01*
X214887576Y-100592169D01*
X214862427Y-100718605D01*
X214862427Y-100847540D01*
X214887576Y-100973976D01*
X214887579Y-100973985D01*
X214935488Y-101089648D01*
X214944927Y-101137100D01*
X214944927Y-101324352D01*
X214944927Y-101474962D01*
X214983908Y-101620441D01*
X214983909Y-101620444D01*
X215036839Y-101712121D01*
X215059213Y-101750873D01*
X221737690Y-108429350D01*
X228320228Y-115011887D01*
X228353713Y-115073210D01*
X228348729Y-115142902D01*
X228306857Y-115198835D01*
X228301438Y-115202670D01*
X228207635Y-115265347D01*
X228207631Y-115265350D01*
X228116474Y-115356507D01*
X228116471Y-115356511D01*
X228044842Y-115463711D01*
X228044841Y-115463713D01*
X227995507Y-115582818D01*
X227995504Y-115582827D01*
X227970355Y-115709263D01*
X227970355Y-115838198D01*
X227995504Y-115964634D01*
X227995507Y-115964643D01*
X228044841Y-116083748D01*
X228044842Y-116083750D01*
X228116471Y-116190950D01*
X228116474Y-116190954D01*
X228207631Y-116282111D01*
X228207635Y-116282114D01*
X228314833Y-116353742D01*
X228314834Y-116353742D01*
X228314835Y-116353743D01*
X228314837Y-116353744D01*
X228394240Y-116386633D01*
X228433944Y-116403079D01*
X228433946Y-116403079D01*
X228433951Y-116403081D01*
X228560387Y-116428230D01*
X228560391Y-116428231D01*
X228560392Y-116428231D01*
X228689319Y-116428231D01*
X228689320Y-116428230D01*
X228731467Y-116419847D01*
X228815758Y-116403081D01*
X228815761Y-116403079D01*
X228815766Y-116403079D01*
X228934877Y-116353742D01*
X229042075Y-116282114D01*
X229133238Y-116190951D01*
X229195917Y-116097144D01*
X229249526Y-116052343D01*
X229318851Y-116043635D01*
X229381879Y-116073789D01*
X229386698Y-116078357D01*
X229428464Y-116120123D01*
X229527724Y-116177431D01*
X229558896Y-116195428D01*
X229704374Y-116234409D01*
X229704375Y-116234409D01*
X229704377Y-116234409D01*
X232212893Y-116234409D01*
X232212896Y-116234409D01*
X232358375Y-116195428D01*
X232488807Y-116120123D01*
X232595305Y-116013625D01*
X233632953Y-114975977D01*
X233686269Y-114883631D01*
X233708258Y-114845545D01*
X233747239Y-114700066D01*
X233747239Y-114561270D01*
X233753993Y-114538266D01*
X233756432Y-114514416D01*
X233764612Y-114502104D01*
X233766924Y-114494231D01*
X233774283Y-114483969D01*
X233778628Y-114478518D01*
X233836818Y-114420329D01*
X233897875Y-114328950D01*
X233901129Y-114324870D01*
X233925623Y-114307672D01*
X233948595Y-114288475D01*
X233953920Y-114287806D01*
X233958312Y-114284723D01*
X233988220Y-114283498D01*
X234017920Y-114279768D01*
X234024250Y-114282022D01*
X234028123Y-114281864D01*
X234034802Y-114285780D01*
X234060084Y-114294783D01*
X234135644Y-114338408D01*
X234251911Y-114369561D01*
X234281787Y-114383098D01*
X234282091Y-114382530D01*
X234287462Y-114385401D01*
X234366865Y-114418290D01*
X234406569Y-114434736D01*
X234406571Y-114434736D01*
X234406576Y-114434738D01*
X234533012Y-114459887D01*
X234533016Y-114459888D01*
X234533017Y-114459888D01*
X234661944Y-114459888D01*
X234661945Y-114459887D01*
X234704092Y-114451504D01*
X234788383Y-114434738D01*
X234788386Y-114434736D01*
X234788391Y-114434736D01*
X234907502Y-114385399D01*
X235014700Y-114313771D01*
X235105863Y-114222608D01*
X235177491Y-114115410D01*
X235226828Y-113996299D01*
X235228714Y-113986821D01*
X235251979Y-113869855D01*
X235251980Y-113869852D01*
X235251980Y-113740924D01*
X235251979Y-113740921D01*
X235236135Y-113661265D01*
X235242362Y-113591674D01*
X235285225Y-113536496D01*
X235351115Y-113513252D01*
X235419112Y-113529320D01*
X235445433Y-113549393D01*
X236053277Y-114157237D01*
X236080157Y-114197465D01*
X236128065Y-114313128D01*
X236199694Y-114420327D01*
X236199697Y-114420331D01*
X236290854Y-114511488D01*
X236290858Y-114511491D01*
X236398056Y-114583119D01*
X236398057Y-114583119D01*
X236398058Y-114583120D01*
X236398060Y-114583121D01*
X236477463Y-114616010D01*
X236517167Y-114632456D01*
X236517169Y-114632456D01*
X236517174Y-114632458D01*
X236643610Y-114657607D01*
X236643614Y-114657608D01*
X236643615Y-114657608D01*
X236772542Y-114657608D01*
X236772543Y-114657607D01*
X236814690Y-114649224D01*
X236898981Y-114632458D01*
X236898984Y-114632456D01*
X236898989Y-114632456D01*
X237018100Y-114583119D01*
X237125298Y-114511491D01*
X237216461Y-114420328D01*
X237288089Y-114313130D01*
X237337426Y-114194019D01*
X237340240Y-114179876D01*
X237357939Y-114090894D01*
X237362578Y-114067571D01*
X237362578Y-113938645D01*
X237355777Y-113904452D01*
X237337428Y-113812204D01*
X237337425Y-113812195D01*
X237288091Y-113693090D01*
X237288090Y-113693088D01*
X237266826Y-113661265D01*
X237216461Y-113585888D01*
X237216458Y-113585884D01*
X237125301Y-113494727D01*
X237125297Y-113494724D01*
X237018098Y-113423095D01*
X236902435Y-113375187D01*
X236862207Y-113348307D01*
X236508319Y-112994419D01*
X236474834Y-112933096D01*
X236472000Y-112906738D01*
X236472000Y-109980292D01*
X236491685Y-109913253D01*
X236544489Y-109867498D01*
X236613647Y-109857554D01*
X236677203Y-109886579D01*
X236683681Y-109892611D01*
X237057810Y-110266740D01*
X237164308Y-110373238D01*
X237255988Y-110426169D01*
X237294736Y-110448541D01*
X237294737Y-110448541D01*
X237294740Y-110448543D01*
X237302168Y-110450533D01*
X237314742Y-110453903D01*
X237351536Y-110470574D01*
X237392162Y-110497719D01*
X237392163Y-110497719D01*
X237392167Y-110497722D01*
X237479255Y-110533794D01*
X237511273Y-110547056D01*
X237511275Y-110547056D01*
X237511280Y-110547058D01*
X237637716Y-110572207D01*
X237637720Y-110572208D01*
X237637721Y-110572208D01*
X237766648Y-110572208D01*
X237766649Y-110572207D01*
X237840092Y-110557599D01*
X237893087Y-110547058D01*
X237893087Y-110547057D01*
X237893095Y-110547056D01*
X237925113Y-110533793D01*
X237994579Y-110526325D01*
X238057058Y-110557599D01*
X238092711Y-110617688D01*
X238096563Y-110648355D01*
X238096563Y-113904310D01*
X238076878Y-113971349D01*
X238034563Y-114011697D01*
X237897390Y-114090894D01*
X237847355Y-114140929D01*
X237835882Y-114150348D01*
X237836092Y-114150604D01*
X237831379Y-114154471D01*
X237740227Y-114245623D01*
X237740224Y-114245627D01*
X237668595Y-114352827D01*
X237668594Y-114352829D01*
X237619260Y-114471934D01*
X237619257Y-114471943D01*
X237594108Y-114598379D01*
X237594108Y-114727314D01*
X237619257Y-114853750D01*
X237619260Y-114853759D01*
X237668594Y-114972864D01*
X237668595Y-114972866D01*
X237740224Y-115080066D01*
X237740227Y-115080070D01*
X237831384Y-115171227D01*
X237831388Y-115171230D01*
X237938586Y-115242858D01*
X237938587Y-115242858D01*
X237938588Y-115242859D01*
X237938590Y-115242860D01*
X237992882Y-115265348D01*
X238057697Y-115292195D01*
X238057699Y-115292195D01*
X238057704Y-115292197D01*
X238184140Y-115317346D01*
X238184144Y-115317347D01*
X238184145Y-115317347D01*
X238313072Y-115317347D01*
X238313073Y-115317346D01*
X238355220Y-115308963D01*
X238439511Y-115292197D01*
X238439514Y-115292195D01*
X238439519Y-115292195D01*
X238558630Y-115242858D01*
X238665828Y-115171230D01*
X238756991Y-115080067D01*
X238828619Y-114972869D01*
X238876529Y-114857202D01*
X238903404Y-114816979D01*
X239126277Y-114594108D01*
X239156659Y-114541483D01*
X239207224Y-114493270D01*
X239275831Y-114480046D01*
X239311493Y-114488922D01*
X239409089Y-114529348D01*
X239409092Y-114529348D01*
X239409096Y-114529350D01*
X239535532Y-114554499D01*
X239535536Y-114554500D01*
X239535537Y-114554500D01*
X239664464Y-114554500D01*
X239664465Y-114554499D01*
X239711896Y-114545065D01*
X239790903Y-114529350D01*
X239790906Y-114529348D01*
X239790911Y-114529348D01*
X239910022Y-114480011D01*
X240017220Y-114408383D01*
X240108383Y-114317220D01*
X240180011Y-114210022D01*
X240229348Y-114090911D01*
X240229352Y-114090894D01*
X240248169Y-113996291D01*
X240254500Y-113964463D01*
X240254500Y-113835537D01*
X240249858Y-113812198D01*
X240229350Y-113709096D01*
X240229347Y-113709087D01*
X240181439Y-113593425D01*
X240172000Y-113545973D01*
X240172000Y-113200118D01*
X243483499Y-113200118D01*
X243522562Y-113396496D01*
X243522564Y-113396502D01*
X243580551Y-113536496D01*
X243599190Y-113581493D01*
X243605993Y-113591674D01*
X243710434Y-113747983D01*
X243852016Y-113889565D01*
X243852019Y-113889567D01*
X244018507Y-114000810D01*
X244203498Y-114077436D01*
X244203502Y-114077436D01*
X244203503Y-114077437D01*
X244399881Y-114116500D01*
X244399884Y-114116500D01*
X244600118Y-114116500D01*
X244732238Y-114090218D01*
X244796502Y-114077436D01*
X244981493Y-114000810D01*
X245147981Y-113889567D01*
X245289567Y-113747981D01*
X245400810Y-113581493D01*
X245477436Y-113396502D01*
X245498195Y-113292141D01*
X245516500Y-113200118D01*
X245516500Y-112999881D01*
X245477437Y-112803503D01*
X245477436Y-112803502D01*
X245477436Y-112803498D01*
X245400810Y-112618507D01*
X245289567Y-112452019D01*
X245289565Y-112452016D01*
X245147983Y-112310434D01*
X245064737Y-112254811D01*
X244981493Y-112199190D01*
X244796502Y-112122564D01*
X244796496Y-112122562D01*
X244600118Y-112083500D01*
X244600116Y-112083500D01*
X244399884Y-112083500D01*
X244399882Y-112083500D01*
X244203503Y-112122562D01*
X244203497Y-112122564D01*
X244018508Y-112199189D01*
X243852016Y-112310434D01*
X243710434Y-112452016D01*
X243599189Y-112618508D01*
X243522564Y-112803497D01*
X243522562Y-112803503D01*
X243483500Y-112999881D01*
X243483500Y-112999884D01*
X243483500Y-113200116D01*
X243483500Y-113200118D01*
X243483499Y-113200118D01*
X240172000Y-113200118D01*
X240172000Y-95088292D01*
X240191685Y-95021253D01*
X240208319Y-95000611D01*
X241488218Y-93720711D01*
X241549539Y-93687228D01*
X241619231Y-93692212D01*
X241623300Y-93693813D01*
X241709089Y-93729348D01*
X241709092Y-93729348D01*
X241709096Y-93729350D01*
X241835532Y-93754499D01*
X241835536Y-93754500D01*
X241835537Y-93754500D01*
X241964464Y-93754500D01*
X241964465Y-93754499D01*
X242006612Y-93746116D01*
X242090903Y-93729350D01*
X242090906Y-93729348D01*
X242090911Y-93729348D01*
X242210022Y-93680011D01*
X242317220Y-93608383D01*
X242408383Y-93517220D01*
X242480011Y-93410022D01*
X242529348Y-93290911D01*
X242554500Y-93164463D01*
X242554500Y-93035537D01*
X242550857Y-93017220D01*
X242529350Y-92909096D01*
X242529347Y-92909087D01*
X242518450Y-92882780D01*
X242510863Y-92864463D01*
X242480013Y-92789982D01*
X242480012Y-92789980D01*
X242408383Y-92682780D01*
X242408380Y-92682776D01*
X242317223Y-92591619D01*
X242317219Y-92591616D01*
X242210019Y-92519987D01*
X242210017Y-92519986D01*
X242090912Y-92470652D01*
X242090903Y-92470649D01*
X241964467Y-92445500D01*
X241964463Y-92445500D01*
X241835537Y-92445500D01*
X241835532Y-92445500D01*
X241709096Y-92470649D01*
X241709087Y-92470652D01*
X241593424Y-92518561D01*
X241585247Y-92520187D01*
X241580907Y-92522977D01*
X241545972Y-92528000D01*
X241496173Y-92528000D01*
X241429134Y-92508315D01*
X241383379Y-92455511D01*
X241373435Y-92386353D01*
X241402460Y-92322797D01*
X241415582Y-92310021D01*
X241508380Y-92217223D01*
X241508383Y-92217220D01*
X241580011Y-92110022D01*
X241629348Y-91990911D01*
X241633379Y-91970649D01*
X241654499Y-91864467D01*
X241654500Y-91864464D01*
X241654500Y-91735536D01*
X241654499Y-91735532D01*
X241629350Y-91609096D01*
X241629347Y-91609087D01*
X241580013Y-91489982D01*
X241580012Y-91489980D01*
X241508383Y-91382780D01*
X241508380Y-91382776D01*
X241417223Y-91291619D01*
X241417219Y-91291616D01*
X241310019Y-91219987D01*
X241310017Y-91219986D01*
X241190912Y-91170652D01*
X241190903Y-91170649D01*
X241064467Y-91145500D01*
X241064463Y-91145500D01*
X240935537Y-91145500D01*
X240935532Y-91145500D01*
X240809096Y-91170649D01*
X240809087Y-91170652D01*
X240689982Y-91219986D01*
X240689980Y-91219987D01*
X240582780Y-91291616D01*
X240582776Y-91291619D01*
X240491619Y-91382776D01*
X240491616Y-91382780D01*
X240419987Y-91489980D01*
X240372079Y-91605641D01*
X240345199Y-91645869D01*
X238317347Y-93673723D01*
X238210851Y-93780218D01*
X238210847Y-93780224D01*
X238135545Y-93910649D01*
X238135544Y-93910653D01*
X238096563Y-94056132D01*
X238096563Y-94056134D01*
X238096563Y-109187060D01*
X238076878Y-109254099D01*
X238024074Y-109299854D01*
X237954916Y-109309798D01*
X237925113Y-109301622D01*
X237893095Y-109288360D01*
X237893091Y-109288359D01*
X237893087Y-109288357D01*
X237766651Y-109263208D01*
X237766647Y-109263208D01*
X237723500Y-109263208D01*
X237656461Y-109243523D01*
X237635819Y-109226889D01*
X237408319Y-108999389D01*
X237374834Y-108938066D01*
X237372000Y-108911708D01*
X237372000Y-87000000D01*
X244100000Y-87000000D01*
X255100000Y-87000000D01*
X255100000Y-56400000D01*
X244100000Y-56400000D01*
X244100000Y-87000000D01*
X237372000Y-87000000D01*
X237372000Y-81688291D01*
X237391685Y-81621252D01*
X237408315Y-81600614D01*
X238343534Y-80665394D01*
X238404855Y-80631911D01*
X238406926Y-80631479D01*
X238453891Y-80622138D01*
X238581101Y-80569446D01*
X238695586Y-80492949D01*
X238792949Y-80395586D01*
X238869446Y-80281101D01*
X238922138Y-80153891D01*
X238949000Y-80018845D01*
X238949000Y-79881155D01*
X238922138Y-79746109D01*
X238915944Y-79731155D01*
X238869448Y-79618903D01*
X238869447Y-79618901D01*
X238854214Y-79596104D01*
X238792949Y-79504414D01*
X238792946Y-79504410D01*
X238695589Y-79407053D01*
X238695585Y-79407050D01*
X238581098Y-79330552D01*
X238581096Y-79330551D01*
X238453895Y-79277863D01*
X238453883Y-79277860D01*
X238412156Y-79269560D01*
X238350245Y-79237175D01*
X238315671Y-79176460D01*
X238319410Y-79106690D01*
X238348664Y-79060264D01*
X241854130Y-75554798D01*
X241894356Y-75527921D01*
X242010017Y-75480013D01*
X242010016Y-75480013D01*
X242010022Y-75480011D01*
X242117220Y-75408383D01*
X242208383Y-75317220D01*
X242280011Y-75210022D01*
X242329348Y-75090911D01*
X242354500Y-74964463D01*
X242354500Y-74835537D01*
X242336664Y-74745869D01*
X242329350Y-74709096D01*
X242329347Y-74709087D01*
X242280013Y-74589982D01*
X242280012Y-74589980D01*
X242208383Y-74482780D01*
X242208380Y-74482776D01*
X242117223Y-74391619D01*
X242117219Y-74391616D01*
X242010019Y-74319987D01*
X242010017Y-74319986D01*
X241890912Y-74270652D01*
X241890903Y-74270649D01*
X241764467Y-74245500D01*
X241764463Y-74245500D01*
X241635537Y-74245500D01*
X241635532Y-74245500D01*
X241509096Y-74270649D01*
X241509087Y-74270652D01*
X241389982Y-74319986D01*
X241389980Y-74319987D01*
X241282780Y-74391616D01*
X241282776Y-74391619D01*
X241191619Y-74482776D01*
X241191616Y-74482780D01*
X241119987Y-74589980D01*
X241072079Y-74705641D01*
X241045199Y-74745869D01*
X235911681Y-79879388D01*
X235850358Y-79912873D01*
X235780666Y-79907889D01*
X235724733Y-79866017D01*
X235700316Y-79800553D01*
X235700000Y-79791707D01*
X235700000Y-56600000D01*
X224700000Y-56600000D01*
X224700000Y-87200000D01*
X235204000Y-87200000D01*
X235271039Y-87219685D01*
X235316794Y-87272489D01*
X235328000Y-87324000D01*
X235328000Y-106219708D01*
X235308315Y-106286747D01*
X235255511Y-106332502D01*
X235186353Y-106342446D01*
X235122797Y-106313421D01*
X235116319Y-106307389D01*
X225113019Y-96304089D01*
X225079534Y-96242766D01*
X225076700Y-96216408D01*
X225076700Y-93154027D01*
X225086139Y-93106575D01*
X225115564Y-93035536D01*
X225134048Y-92990911D01*
X225134234Y-92989980D01*
X225152659Y-92897348D01*
X225159200Y-92864463D01*
X225159200Y-92735537D01*
X225146293Y-92670649D01*
X225134050Y-92609096D01*
X225134047Y-92609087D01*
X225126810Y-92591616D01*
X225097141Y-92519986D01*
X225084713Y-92489982D01*
X225084712Y-92489980D01*
X225071797Y-92470652D01*
X225013083Y-92382780D01*
X225013080Y-92382776D01*
X224921923Y-92291619D01*
X224921919Y-92291616D01*
X224814719Y-92219987D01*
X224814717Y-92219986D01*
X224695612Y-92170652D01*
X224695603Y-92170649D01*
X224569167Y-92145500D01*
X224569163Y-92145500D01*
X224440237Y-92145500D01*
X224440232Y-92145500D01*
X224313796Y-92170649D01*
X224313787Y-92170652D01*
X224194682Y-92219986D01*
X224194680Y-92219987D01*
X224087480Y-92291616D01*
X224087476Y-92291619D01*
X224083681Y-92295415D01*
X224022358Y-92328900D01*
X223952666Y-92323916D01*
X223896733Y-92282044D01*
X223872316Y-92216580D01*
X223872000Y-92207734D01*
X223872000Y-80299288D01*
X223891685Y-80232249D01*
X223892898Y-80230397D01*
X223944015Y-80153895D01*
X223959246Y-80131101D01*
X224011938Y-80003891D01*
X224038800Y-79868845D01*
X224038800Y-79731155D01*
X224011938Y-79596109D01*
X223959246Y-79468899D01*
X223882749Y-79354414D01*
X223882746Y-79354410D01*
X223785389Y-79257053D01*
X223785385Y-79257050D01*
X223670898Y-79180552D01*
X223670896Y-79180551D01*
X223543695Y-79127863D01*
X223543683Y-79127860D01*
X223408649Y-79101000D01*
X223408645Y-79101000D01*
X223270955Y-79101000D01*
X223270950Y-79101000D01*
X223135907Y-79127861D01*
X223131990Y-79129050D01*
X223062123Y-79129671D01*
X223003012Y-79092419D01*
X222973424Y-79029124D01*
X222972000Y-79010388D01*
X222972000Y-75254027D01*
X222981439Y-75206575D01*
X222994396Y-75175291D01*
X223029348Y-75090911D01*
X223054500Y-74964463D01*
X223054500Y-74835537D01*
X223036664Y-74745869D01*
X223029350Y-74709096D01*
X223029347Y-74709087D01*
X222980013Y-74589982D01*
X222980012Y-74589980D01*
X222908383Y-74482780D01*
X222908380Y-74482776D01*
X222817223Y-74391619D01*
X222817219Y-74391616D01*
X222710019Y-74319987D01*
X222710017Y-74319986D01*
X222590912Y-74270652D01*
X222590903Y-74270649D01*
X222464467Y-74245500D01*
X222464463Y-74245500D01*
X222335537Y-74245500D01*
X222335532Y-74245500D01*
X222209096Y-74270649D01*
X222209087Y-74270652D01*
X222089982Y-74319986D01*
X222089980Y-74319987D01*
X221982780Y-74391616D01*
X221982776Y-74391619D01*
X221891619Y-74482776D01*
X221891616Y-74482780D01*
X221819987Y-74589980D01*
X221819986Y-74589982D01*
X221770652Y-74709087D01*
X221770649Y-74709096D01*
X221745500Y-74835532D01*
X221745500Y-74964467D01*
X221770649Y-75090903D01*
X221770652Y-75090912D01*
X221818561Y-75206575D01*
X221828000Y-75254027D01*
X221828000Y-97107745D01*
X221866981Y-97253224D01*
X221866982Y-97253227D01*
X221919912Y-97344904D01*
X221942286Y-97383656D01*
X221942288Y-97383658D01*
X228462837Y-103904207D01*
X228496322Y-103965530D01*
X228491338Y-104035222D01*
X228449466Y-104091155D01*
X228384002Y-104115572D01*
X228350965Y-104113505D01*
X228200120Y-104083500D01*
X228200116Y-104083500D01*
X227999884Y-104083500D01*
X227999882Y-104083500D01*
X227803503Y-104122562D01*
X227803497Y-104122564D01*
X227618508Y-104199189D01*
X227452016Y-104310434D01*
X227310434Y-104452016D01*
X227199189Y-104618508D01*
X227122564Y-104803497D01*
X227122562Y-104803503D01*
X227083500Y-104999881D01*
X227083500Y-104999884D01*
X227083500Y-105200116D01*
X227083500Y-105200118D01*
X227083499Y-105200118D01*
X227122562Y-105396496D01*
X227122564Y-105396502D01*
X227199189Y-105581491D01*
X227310434Y-105747983D01*
X227452016Y-105889565D01*
X227452019Y-105889567D01*
X227618507Y-106000810D01*
X227803498Y-106077436D01*
X227803502Y-106077436D01*
X227803503Y-106077437D01*
X227999881Y-106116500D01*
X227999884Y-106116500D01*
X228200118Y-106116500D01*
X228332238Y-106090218D01*
X228396502Y-106077436D01*
X228581493Y-106000810D01*
X228747981Y-105889567D01*
X228889567Y-105747981D01*
X229000810Y-105581493D01*
X229077436Y-105396502D01*
X229116500Y-105200116D01*
X229116500Y-104999884D01*
X229116500Y-104999881D01*
X229086494Y-104849035D01*
X229092721Y-104779443D01*
X229135584Y-104724266D01*
X229201473Y-104701021D01*
X229269470Y-104717089D01*
X229295792Y-104737162D01*
X231574949Y-107016319D01*
X231608434Y-107077642D01*
X231603450Y-107147334D01*
X231561578Y-107203267D01*
X231496114Y-107227684D01*
X231487268Y-107228000D01*
X226788292Y-107228000D01*
X226721253Y-107208315D01*
X226700611Y-107191681D01*
X206720611Y-87211681D01*
X206687126Y-87150358D01*
X206692110Y-87080666D01*
X206733982Y-87024733D01*
X206799446Y-87000316D01*
X206808292Y-87000000D01*
X216300000Y-87000000D01*
X216300000Y-56400000D01*
X205300000Y-56400000D01*
X205300000Y-85491708D01*
X205280315Y-85558747D01*
X205227511Y-85604502D01*
X205158353Y-85614446D01*
X205094797Y-85585421D01*
X205088319Y-85579389D01*
X204408319Y-84899389D01*
X204374834Y-84838066D01*
X204372000Y-84811708D01*
X204372000Y-80139723D01*
X204391685Y-80072684D01*
X204392898Y-80070832D01*
X204419446Y-80031101D01*
X204472138Y-79903891D01*
X204499000Y-79768845D01*
X204499000Y-79631155D01*
X204472138Y-79496109D01*
X204419446Y-79368899D01*
X204342949Y-79254414D01*
X204342946Y-79254410D01*
X204245589Y-79157053D01*
X204245585Y-79157050D01*
X204131098Y-79080552D01*
X204131096Y-79080551D01*
X204003895Y-79027863D01*
X204003883Y-79027860D01*
X203868849Y-79001000D01*
X203868845Y-79001000D01*
X203731155Y-79001000D01*
X203731150Y-79001000D01*
X203596116Y-79027860D01*
X203596104Y-79027863D01*
X203468903Y-79080551D01*
X203468900Y-79080553D01*
X203464888Y-79083234D01*
X203398210Y-79104110D01*
X203330830Y-79085623D01*
X203284141Y-79033643D01*
X203272000Y-78980130D01*
X203272000Y-75254027D01*
X203281439Y-75206575D01*
X203294396Y-75175291D01*
X203329348Y-75090911D01*
X203354500Y-74964463D01*
X203354500Y-74835537D01*
X203336664Y-74745869D01*
X203329350Y-74709096D01*
X203329347Y-74709087D01*
X203280013Y-74589982D01*
X203280012Y-74589980D01*
X203208383Y-74482780D01*
X203208380Y-74482776D01*
X203117223Y-74391619D01*
X203117219Y-74391616D01*
X203010019Y-74319987D01*
X203010017Y-74319986D01*
X202890912Y-74270652D01*
X202890903Y-74270649D01*
X202764467Y-74245500D01*
X202764463Y-74245500D01*
X202635537Y-74245500D01*
X202635532Y-74245500D01*
X202509096Y-74270649D01*
X202509087Y-74270652D01*
X202389982Y-74319986D01*
X202389980Y-74319987D01*
X202282780Y-74391616D01*
X202282776Y-74391619D01*
X202191619Y-74482776D01*
X202191616Y-74482780D01*
X202119987Y-74589980D01*
X202119986Y-74589982D01*
X202070652Y-74709087D01*
X202070649Y-74709096D01*
X202045500Y-74835532D01*
X195600500Y-74835532D01*
X195600500Y-50028458D01*
X197645500Y-50028458D01*
X197645500Y-50371541D01*
X197683910Y-50712441D01*
X197683912Y-50712453D01*
X197760253Y-51046929D01*
X197760256Y-51046937D01*
X197873564Y-51370751D01*
X198022416Y-51679844D01*
X198022418Y-51679847D01*
X198204944Y-51970337D01*
X198418847Y-52238563D01*
X198661437Y-52481153D01*
X198929663Y-52695056D01*
X199220153Y-52877582D01*
X199529252Y-53026437D01*
X199772455Y-53111537D01*
X199853062Y-53139743D01*
X199853070Y-53139746D01*
X199853073Y-53139746D01*
X199853074Y-53139747D01*
X200187546Y-53216088D01*
X200528459Y-53254499D01*
X200528460Y-53254500D01*
X200528463Y-53254500D01*
X200871540Y-53254500D01*
X200871540Y-53254499D01*
X201212454Y-53216088D01*
X201546926Y-53139747D01*
X201870748Y-53026437D01*
X202179847Y-52877582D01*
X202470337Y-52695056D01*
X202738563Y-52481153D01*
X202981153Y-52238563D01*
X203195056Y-51970337D01*
X203377582Y-51679847D01*
X203526437Y-51370748D01*
X203639747Y-51046926D01*
X203716088Y-50712454D01*
X203754500Y-50371537D01*
X203754500Y-50028463D01*
X203716088Y-49687546D01*
X203639747Y-49353074D01*
X203526437Y-49029252D01*
X203377582Y-48720153D01*
X203195056Y-48429663D01*
X202981153Y-48161437D01*
X202738563Y-47918847D01*
X202470337Y-47704944D01*
X202179847Y-47522418D01*
X202179844Y-47522416D01*
X201870751Y-47373564D01*
X201546937Y-47260256D01*
X201546929Y-47260253D01*
X201296072Y-47202997D01*
X201212454Y-47183912D01*
X201212450Y-47183911D01*
X201212441Y-47183910D01*
X200871541Y-47145500D01*
X200871537Y-47145500D01*
X200528463Y-47145500D01*
X200528458Y-47145500D01*
X200187558Y-47183910D01*
X200187546Y-47183912D01*
X199853070Y-47260253D01*
X199853062Y-47260256D01*
X199529248Y-47373564D01*
X199220155Y-47522416D01*
X198929664Y-47704943D01*
X198661437Y-47918846D01*
X198418846Y-48161437D01*
X198204943Y-48429664D01*
X198022416Y-48720155D01*
X197873564Y-49029248D01*
X197760256Y-49353062D01*
X197760253Y-49353070D01*
X197683912Y-49687546D01*
X197683910Y-49687558D01*
X197645500Y-50028458D01*
X195600500Y-50028458D01*
X195600500Y-42043399D01*
X209395119Y-42043399D01*
X209395119Y-42256600D01*
X209428472Y-42467180D01*
X209428472Y-42467183D01*
X209494353Y-42669944D01*
X209494355Y-42669947D01*
X209591147Y-42859913D01*
X209716465Y-43032397D01*
X209867222Y-43183154D01*
X210039706Y-43308472D01*
X210229672Y-43405264D01*
X210229674Y-43405265D01*
X210418801Y-43466715D01*
X210432440Y-43471147D01*
X210643018Y-43504500D01*
X210643019Y-43504500D01*
X210856219Y-43504500D01*
X210856220Y-43504500D01*
X211066798Y-43471147D01*
X211066801Y-43471146D01*
X211066802Y-43471146D01*
X211269563Y-43405265D01*
X211269563Y-43405264D01*
X211269566Y-43405264D01*
X211459532Y-43308472D01*
X211632016Y-43183154D01*
X211782773Y-43032397D01*
X211908091Y-42859913D01*
X212004883Y-42669947D01*
X212070766Y-42467179D01*
X212104119Y-42256601D01*
X212104119Y-42043399D01*
X228645500Y-42043399D01*
X228645500Y-42256600D01*
X228678853Y-42467180D01*
X228678853Y-42467183D01*
X228744734Y-42669944D01*
X228744736Y-42669947D01*
X228841528Y-42859913D01*
X228966846Y-43032397D01*
X229117603Y-43183154D01*
X229290087Y-43308472D01*
X229480053Y-43405264D01*
X229480055Y-43405265D01*
X229669182Y-43466715D01*
X229682821Y-43471147D01*
X229893399Y-43504500D01*
X229893400Y-43504500D01*
X230106600Y-43504500D01*
X230106601Y-43504500D01*
X230317179Y-43471147D01*
X230317182Y-43471146D01*
X230317183Y-43471146D01*
X230519944Y-43405265D01*
X230519944Y-43405264D01*
X230519947Y-43405264D01*
X230709913Y-43308472D01*
X230882397Y-43183154D01*
X231033154Y-43032397D01*
X231158472Y-42859913D01*
X231255264Y-42669947D01*
X231321147Y-42467179D01*
X231354500Y-42256601D01*
X231354500Y-42043399D01*
X247895881Y-42043399D01*
X247895881Y-42256600D01*
X247929234Y-42467180D01*
X247929234Y-42467183D01*
X247995115Y-42669944D01*
X247995117Y-42669947D01*
X248091909Y-42859913D01*
X248217227Y-43032397D01*
X248367984Y-43183154D01*
X248540468Y-43308472D01*
X248730434Y-43405264D01*
X248730436Y-43405265D01*
X248919563Y-43466715D01*
X248933202Y-43471147D01*
X249143780Y-43504500D01*
X249143781Y-43504500D01*
X249356981Y-43504500D01*
X249356982Y-43504500D01*
X249567560Y-43471147D01*
X249567563Y-43471146D01*
X249567564Y-43471146D01*
X249770325Y-43405265D01*
X249770325Y-43405264D01*
X249770328Y-43405264D01*
X249960294Y-43308472D01*
X250132778Y-43183154D01*
X250283535Y-43032397D01*
X250408853Y-42859913D01*
X250505645Y-42669947D01*
X250571528Y-42467179D01*
X250604881Y-42256601D01*
X250604881Y-42043399D01*
X250571528Y-41832821D01*
X250571527Y-41832817D01*
X250571527Y-41832816D01*
X250505646Y-41630055D01*
X250505644Y-41630052D01*
X250408852Y-41440086D01*
X250283535Y-41267603D01*
X250132778Y-41116846D01*
X249960294Y-40991528D01*
X249770328Y-40894736D01*
X249770325Y-40894734D01*
X249567562Y-40828853D01*
X249427174Y-40806617D01*
X249356982Y-40795500D01*
X249143780Y-40795500D01*
X249073587Y-40806617D01*
X248933200Y-40828853D01*
X248933197Y-40828853D01*
X248730436Y-40894734D01*
X248730433Y-40894736D01*
X248540467Y-40991528D01*
X248367982Y-41116847D01*
X248217228Y-41267601D01*
X248091909Y-41440086D01*
X247995117Y-41630052D01*
X247995115Y-41630055D01*
X247929234Y-41832816D01*
X247929234Y-41832819D01*
X247895881Y-42043399D01*
X231354500Y-42043399D01*
X231321147Y-41832821D01*
X231321146Y-41832817D01*
X231321146Y-41832816D01*
X231255265Y-41630055D01*
X231255263Y-41630052D01*
X231158471Y-41440086D01*
X231033154Y-41267603D01*
X230882397Y-41116846D01*
X230709913Y-40991528D01*
X230519947Y-40894736D01*
X230519944Y-40894734D01*
X230317181Y-40828853D01*
X230176793Y-40806617D01*
X230106601Y-40795500D01*
X229893399Y-40795500D01*
X229823206Y-40806617D01*
X229682819Y-40828853D01*
X229682816Y-40828853D01*
X229480055Y-40894734D01*
X229480052Y-40894736D01*
X229290086Y-40991528D01*
X229117601Y-41116847D01*
X228966847Y-41267601D01*
X228841528Y-41440086D01*
X228744736Y-41630052D01*
X228744734Y-41630055D01*
X228678853Y-41832816D01*
X228678853Y-41832819D01*
X228645500Y-42043399D01*
X212104119Y-42043399D01*
X212070766Y-41832821D01*
X212070765Y-41832817D01*
X212070765Y-41832816D01*
X212004884Y-41630055D01*
X212004882Y-41630052D01*
X211908090Y-41440086D01*
X211782773Y-41267603D01*
X211632016Y-41116846D01*
X211459532Y-40991528D01*
X211269566Y-40894736D01*
X211269563Y-40894734D01*
X211066800Y-40828853D01*
X210926412Y-40806617D01*
X210856220Y-40795500D01*
X210643018Y-40795500D01*
X210572825Y-40806617D01*
X210432438Y-40828853D01*
X210432435Y-40828853D01*
X210229674Y-40894734D01*
X210229671Y-40894736D01*
X210039705Y-40991528D01*
X209867220Y-41116847D01*
X209716466Y-41267601D01*
X209591147Y-41440086D01*
X209494355Y-41630052D01*
X209494353Y-41630055D01*
X209428472Y-41832816D01*
X209428472Y-41832819D01*
X209395119Y-42043399D01*
X195600500Y-42043399D01*
X195600500Y-34093740D01*
X195620185Y-34026701D01*
X195672989Y-33980946D01*
X195742147Y-33971002D01*
X195805703Y-34000027D01*
X195821446Y-34016425D01*
X195918847Y-34138563D01*
X196161437Y-34381153D01*
X196429663Y-34595056D01*
X196720153Y-34777582D01*
X197029252Y-34926437D01*
X197249637Y-35003553D01*
X197353062Y-35039743D01*
X197353070Y-35039746D01*
X197353073Y-35039746D01*
X197353074Y-35039747D01*
X197687546Y-35116088D01*
X198028459Y-35154499D01*
X198028460Y-35154500D01*
X198028463Y-35154500D01*
X198371540Y-35154500D01*
X198371540Y-35154499D01*
X198712454Y-35116088D01*
X199046926Y-35039747D01*
X199370748Y-34926437D01*
X199679847Y-34777582D01*
X199970337Y-34595056D01*
X200059349Y-34524071D01*
X209149619Y-34524071D01*
X209149619Y-34775928D01*
X209189016Y-35024669D01*
X209266838Y-35264184D01*
X209381176Y-35488583D01*
X209455367Y-35590697D01*
X209455367Y-35590698D01*
X210185007Y-34861058D01*
X210190509Y-34881591D01*
X210269501Y-35018408D01*
X210381211Y-35130118D01*
X210518028Y-35209110D01*
X210538559Y-35214611D01*
X209808919Y-35944250D01*
X209911035Y-36018442D01*
X210135434Y-36132780D01*
X210374949Y-36210602D01*
X210623691Y-36250000D01*
X210875547Y-36250000D01*
X211124288Y-36210602D01*
X211363803Y-36132780D01*
X211588194Y-36018446D01*
X211588200Y-36018442D01*
X211690316Y-35944250D01*
X211690317Y-35944250D01*
X210960677Y-35214611D01*
X210981210Y-35209110D01*
X211118027Y-35130118D01*
X211229737Y-35018408D01*
X211308729Y-34881591D01*
X211314230Y-34861058D01*
X212043869Y-35590698D01*
X212043869Y-35590697D01*
X212118061Y-35488581D01*
X212118065Y-35488575D01*
X212232399Y-35264184D01*
X212310221Y-35024669D01*
X212349619Y-34775928D01*
X212349619Y-34524071D01*
X228400000Y-34524071D01*
X228400000Y-34775928D01*
X228439397Y-35024669D01*
X228517219Y-35264184D01*
X228631557Y-35488583D01*
X228705748Y-35590697D01*
X228705748Y-35590698D01*
X229435388Y-34861058D01*
X229440890Y-34881591D01*
X229519882Y-35018408D01*
X229631592Y-35130118D01*
X229768409Y-35209110D01*
X229788940Y-35214611D01*
X229059300Y-35944250D01*
X229161416Y-36018442D01*
X229385815Y-36132780D01*
X229625330Y-36210602D01*
X229874072Y-36250000D01*
X230125928Y-36250000D01*
X230374669Y-36210602D01*
X230614184Y-36132780D01*
X230838575Y-36018446D01*
X230838581Y-36018442D01*
X230940697Y-35944250D01*
X230940698Y-35944250D01*
X230211058Y-35214611D01*
X230231591Y-35209110D01*
X230368408Y-35130118D01*
X230480118Y-35018408D01*
X230559110Y-34881591D01*
X230564611Y-34861059D01*
X231294250Y-35590698D01*
X231294250Y-35590697D01*
X231368442Y-35488581D01*
X231368446Y-35488575D01*
X231482780Y-35264184D01*
X231560602Y-35024669D01*
X231600000Y-34775928D01*
X231600000Y-34524071D01*
X247650381Y-34524071D01*
X247650381Y-34775928D01*
X247689778Y-35024669D01*
X247767600Y-35264184D01*
X247881938Y-35488583D01*
X247956129Y-35590697D01*
X247956129Y-35590698D01*
X248685769Y-34861058D01*
X248691271Y-34881591D01*
X248770263Y-35018408D01*
X248881973Y-35130118D01*
X249018790Y-35209110D01*
X249039321Y-35214611D01*
X248309681Y-35944250D01*
X248411797Y-36018442D01*
X248636196Y-36132780D01*
X248875711Y-36210602D01*
X249124453Y-36250000D01*
X249376309Y-36250000D01*
X249625050Y-36210602D01*
X249864565Y-36132780D01*
X250088956Y-36018446D01*
X250088962Y-36018442D01*
X250191078Y-35944250D01*
X250191079Y-35944250D01*
X249461439Y-35214611D01*
X249481972Y-35209110D01*
X249618789Y-35130118D01*
X249730499Y-35018408D01*
X249809491Y-34881591D01*
X249814992Y-34861059D01*
X250544631Y-35590698D01*
X250544631Y-35590697D01*
X250618823Y-35488581D01*
X250618827Y-35488575D01*
X250733161Y-35264184D01*
X250810983Y-35024669D01*
X250850381Y-34775928D01*
X250850381Y-34524071D01*
X250810983Y-34275330D01*
X250733161Y-34035815D01*
X250618823Y-33811416D01*
X250544631Y-33709301D01*
X250544631Y-33709300D01*
X249814992Y-34438940D01*
X249809491Y-34418409D01*
X249730499Y-34281592D01*
X249618789Y-34169882D01*
X249481972Y-34090890D01*
X249461438Y-34085387D01*
X250191079Y-33355748D01*
X250088964Y-33281557D01*
X249864565Y-33167219D01*
X249625050Y-33089397D01*
X249376309Y-33050000D01*
X249124453Y-33050000D01*
X248875711Y-33089397D01*
X248636196Y-33167219D01*
X248411794Y-33281559D01*
X248309682Y-33355747D01*
X248309681Y-33355748D01*
X249039322Y-34085388D01*
X249018790Y-34090890D01*
X248881973Y-34169882D01*
X248770263Y-34281592D01*
X248691271Y-34418409D01*
X248685769Y-34438941D01*
X247956129Y-33709300D01*
X247956128Y-33709301D01*
X247881940Y-33811413D01*
X247767600Y-34035815D01*
X247689778Y-34275330D01*
X247650381Y-34524071D01*
X231600000Y-34524071D01*
X231560602Y-34275330D01*
X231482780Y-34035815D01*
X231368442Y-33811416D01*
X231294250Y-33709301D01*
X231294250Y-33709300D01*
X230564611Y-34438940D01*
X230559110Y-34418409D01*
X230480118Y-34281592D01*
X230368408Y-34169882D01*
X230231591Y-34090890D01*
X230211057Y-34085387D01*
X230940698Y-33355748D01*
X230838583Y-33281557D01*
X230614184Y-33167219D01*
X230374669Y-33089397D01*
X230125928Y-33050000D01*
X229874072Y-33050000D01*
X229625330Y-33089397D01*
X229385815Y-33167219D01*
X229161413Y-33281559D01*
X229059301Y-33355747D01*
X229059300Y-33355748D01*
X229788941Y-34085388D01*
X229768409Y-34090890D01*
X229631592Y-34169882D01*
X229519882Y-34281592D01*
X229440890Y-34418409D01*
X229435388Y-34438941D01*
X228705748Y-33709300D01*
X228705747Y-33709301D01*
X228631559Y-33811413D01*
X228517219Y-34035815D01*
X228439397Y-34275330D01*
X228400000Y-34524071D01*
X212349619Y-34524071D01*
X212310221Y-34275330D01*
X212232399Y-34035815D01*
X212118061Y-33811416D01*
X212043869Y-33709301D01*
X212043869Y-33709300D01*
X211314230Y-34438940D01*
X211308729Y-34418409D01*
X211229737Y-34281592D01*
X211118027Y-34169882D01*
X210981210Y-34090890D01*
X210960676Y-34085387D01*
X211690317Y-33355748D01*
X211588202Y-33281557D01*
X211363803Y-33167219D01*
X211124288Y-33089397D01*
X210875547Y-33050000D01*
X210623691Y-33050000D01*
X210374949Y-33089397D01*
X210135434Y-33167219D01*
X209911032Y-33281559D01*
X209808920Y-33355747D01*
X209808919Y-33355748D01*
X210538560Y-34085388D01*
X210518028Y-34090890D01*
X210381211Y-34169882D01*
X210269501Y-34281592D01*
X210190509Y-34418409D01*
X210185007Y-34438941D01*
X209455367Y-33709300D01*
X209455366Y-33709301D01*
X209381178Y-33811413D01*
X209266838Y-34035815D01*
X209189016Y-34275330D01*
X209149619Y-34524071D01*
X200059349Y-34524071D01*
X200238563Y-34381153D01*
X200481153Y-34138563D01*
X200695056Y-33870337D01*
X200877582Y-33579847D01*
X200985503Y-33355748D01*
X200988654Y-33349206D01*
X200988655Y-33349204D01*
X201026432Y-33270759D01*
X201026433Y-33270756D01*
X201026437Y-33270748D01*
X201139747Y-32946926D01*
X201216088Y-32612454D01*
X201254500Y-32271537D01*
X201254500Y-31928463D01*
X201216088Y-31587546D01*
X201139747Y-31253074D01*
X201026437Y-30929252D01*
X200877582Y-30620153D01*
X200695056Y-30329663D01*
X200481153Y-30061437D01*
X200238563Y-29818847D01*
X200116426Y-29721446D01*
X200076287Y-29664259D01*
X200073437Y-29594447D01*
X200108782Y-29534177D01*
X200171101Y-29502584D01*
X200193740Y-29500500D01*
X258830858Y-29500500D01*
X258897897Y-29520185D01*
G37*
%TD.AperFunction*%
%TD*%
M02*
