%TF.GenerationSoftware,KiCad,Pcbnew,9.0.2*%
%TF.CreationDate,2026-05-29T08:24:13+07:00*%
%TF.ProjectId,after-remap,61667465-722d-4726-956d-61702e6b6963,A*%
%TF.SameCoordinates,Original*%
%TF.FileFunction,Legend,Top*%
%TF.FilePolarity,Positive*%
%FSLAX46Y46*%
G04 Gerber Fmt 4.6, Leading zero omitted, Abs format (unit mm)*
G04 Created by KiCad (PCBNEW 9.0.2) date 2026-05-29 08:24:13*
%MOMM*%
%LPD*%
G01*
G04 APERTURE LIST*
G04 Aperture macros list*
%AMRoundRect*
0 Rectangle with rounded corners*
0 $1 Rounding radius*
0 $2 $3 $4 $5 $6 $7 $8 $9 X,Y pos of 4 corners*
0 Add a 4 corners polygon primitive as box body*
4,1,4,$2,$3,$4,$5,$6,$7,$8,$9,$2,$3,0*
0 Add four circle primitives for the rounded corners*
1,1,$1+$1,$2,$3*
1,1,$1+$1,$4,$5*
1,1,$1+$1,$6,$7*
1,1,$1+$1,$8,$9*
0 Add four rect primitives between the rounded corners*
20,1,$1+$1,$2,$3,$4,$5,0*
20,1,$1+$1,$4,$5,$6,$7,0*
20,1,$1+$1,$6,$7,$8,$9,0*
20,1,$1+$1,$8,$9,$2,$3,0*%
%AMFreePoly0*
4,1,62,4.040275,1.440280,4.054920,1.404925,4.054920,-1.405077,4.040275,-1.440432,4.004920,-1.455077,3.204921,-1.455077,3.169566,-1.440432,3.154921,-1.405077,3.154921,0.544919,2.854922,0.544919,2.854922,-1.405077,2.840277,-1.440432,2.804922,-1.455077,2.004924,-1.455077,1.969569,-1.440432,1.954924,-1.405077,1.954924,0.544893,1.654924,0.544893,1.654924,-1.405077,1.640279,-1.440432,
1.604924,-1.455077,0.804926,-1.455077,0.769571,-1.440432,0.754926,-1.405077,0.754926,0.544893,0.454927,0.544893,0.454927,-1.405077,0.440282,-1.440432,0.404927,-1.455077,-0.395072,-1.455077,-0.430427,-1.440432,-0.445072,-1.405077,-0.445072,0.544893,-0.745071,0.544893,-0.745071,-1.405077,-0.759716,-1.440432,-0.795071,-1.455077,-1.595069,-1.455077,-1.630424,-1.440432,-1.645069,-1.405077,
-1.645069,0.544893,-1.945068,0.544893,-1.945068,-1.405077,-1.959713,-1.440432,-1.995068,-1.455077,-2.795067,-1.455077,-2.830422,-1.440432,-2.845067,-1.405077,-2.845067,0.544893,-3.145066,0.544893,-3.145066,-1.405077,-3.159711,-1.440432,-3.194448,-1.455073,-4.004454,-1.465081,-4.039988,-1.450874,-4.055068,-1.415703,-4.055072,-1.415085,-4.055072,1.404925,-4.040427,1.440280,-4.005072,1.454925,
4.004920,1.454925,4.040275,1.440280,4.040275,1.440280,$1*%
%AMFreePoly1*
4,1,32,5.085281,4.035195,5.099926,3.999840,5.099926,2.599842,5.085281,2.564487,5.049926,2.549842,4.199928,2.549842,4.199928,-0.250152,4.849927,-0.250152,4.885282,-0.264797,4.899927,-0.300152,4.899927,-4.000144,4.885282,-4.035499,4.849927,-4.050144,-4.850054,-4.050144,-4.885409,-4.035499,-4.900054,-4.000144,-4.900054,-0.300152,-4.885409,-0.264797,-4.850054,-0.250152,-4.200055,-0.250152,
-4.200055,2.549842,-5.050053,2.549842,-5.085408,2.564487,-5.100053,2.599842,-5.100053,2.629679,-5.100130,2.629865,-5.100053,2.630050,-5.100053,3.999840,-5.085408,4.035195,-5.050053,4.049840,5.049926,4.049840,5.085281,4.035195,5.085281,4.035195,$1*%
G04 Aperture macros list end*
%ADD10C,0.150000*%
%ADD11C,0.060000*%
%ADD12C,0.250000*%
%ADD13C,0.000000*%
%ADD14C,0.100000*%
%ADD15C,0.200000*%
%ADD16O,3.048000X1.524000*%
%ADD17RoundRect,0.050800X0.600000X0.750000X-0.600000X0.750000X-0.600000X-0.750000X0.600000X-0.750000X0*%
%ADD18O,1.301600X1.601600*%
%ADD19O,1.701600X1.701600*%
%ADD20RoundRect,0.050800X0.600000X0.700000X-0.600000X0.700000X-0.600000X-0.700000X0.600000X-0.700000X0*%
%ADD21O,1.301600X1.501600*%
%ADD22R,0.864000X0.806000*%
%ADD23C,2.200000*%
%ADD24C,5.600000*%
%ADD25R,0.800000X0.900000*%
%ADD26R,0.806000X0.864000*%
%ADD27R,6.999998X9.000000*%
%ADD28R,0.900000X0.800000*%
%ADD29R,2.690000X0.890000*%
%ADD30R,2.690000X5.710000*%
%ADD31R,1.150000X0.950000*%
%ADD32R,2.700000X1.635000*%
%ADD33R,2.465000X1.050000*%
%ADD34R,2.465000X3.540000*%
%ADD35R,0.950000X1.150000*%
%ADD36R,1.635000X2.700000*%
%ADD37R,0.800000X0.800000*%
%ADD38R,2.376000X1.900000*%
%ADD39R,5.400000X2.010000*%
%ADD40R,9.000000X6.999998*%
%ADD41R,0.800000X2.800000*%
%ADD42FreePoly0,0.000000*%
%ADD43FreePoly1,0.000000*%
%ADD44R,2.200000X5.720000*%
%ADD45R,0.300000X1.300480*%
%ADD46R,1.300480X0.300000*%
%ADD47R,0.635000X1.143000*%
%ADD48R,0.299720X1.501140*%
%ADD49R,7.000240X3.599180*%
%ADD50R,1.900000X2.376000*%
%ADD51C,0.550000*%
%ADD52R,2.000000X0.400000*%
%ADD53R,1.000000X1.600000*%
%ADD54R,1.400000X2.000000*%
%ADD55R,1.600000X1.200000*%
%ADD56R,1.399540X0.599440*%
G04 APERTURE END LIST*
D10*
X252992857Y-140898342D02*
X252935715Y-140869771D01*
X252935715Y-140869771D02*
X252850000Y-140869771D01*
X252850000Y-140869771D02*
X252764286Y-140898342D01*
X252764286Y-140898342D02*
X252707143Y-140955485D01*
X252707143Y-140955485D02*
X252678572Y-141012628D01*
X252678572Y-141012628D02*
X252650000Y-141126914D01*
X252650000Y-141126914D02*
X252650000Y-141212628D01*
X252650000Y-141212628D02*
X252678572Y-141326914D01*
X252678572Y-141326914D02*
X252707143Y-141384057D01*
X252707143Y-141384057D02*
X252764286Y-141441200D01*
X252764286Y-141441200D02*
X252850000Y-141469771D01*
X252850000Y-141469771D02*
X252907143Y-141469771D01*
X252907143Y-141469771D02*
X252992857Y-141441200D01*
X252992857Y-141441200D02*
X253021429Y-141412628D01*
X253021429Y-141412628D02*
X253021429Y-141212628D01*
X253021429Y-141212628D02*
X252907143Y-141212628D01*
X253278572Y-141469771D02*
X253278572Y-140869771D01*
X253278572Y-140869771D02*
X253621429Y-141469771D01*
X253621429Y-141469771D02*
X253621429Y-140869771D01*
X253907143Y-141469771D02*
X253907143Y-140869771D01*
X253907143Y-140869771D02*
X254050000Y-140869771D01*
X254050000Y-140869771D02*
X254135714Y-140898342D01*
X254135714Y-140898342D02*
X254192857Y-140955485D01*
X254192857Y-140955485D02*
X254221428Y-141012628D01*
X254221428Y-141012628D02*
X254250000Y-141126914D01*
X254250000Y-141126914D02*
X254250000Y-141212628D01*
X254250000Y-141212628D02*
X254221428Y-141326914D01*
X254221428Y-141326914D02*
X254192857Y-141384057D01*
X254192857Y-141384057D02*
X254135714Y-141441200D01*
X254135714Y-141441200D02*
X254050000Y-141469771D01*
X254050000Y-141469771D02*
X253907143Y-141469771D01*
X196162969Y-141190200D02*
X196248684Y-141218771D01*
X196248684Y-141218771D02*
X196391541Y-141218771D01*
X196391541Y-141218771D02*
X196448684Y-141190200D01*
X196448684Y-141190200D02*
X196477255Y-141161628D01*
X196477255Y-141161628D02*
X196505826Y-141104485D01*
X196505826Y-141104485D02*
X196505826Y-141047342D01*
X196505826Y-141047342D02*
X196477255Y-140990200D01*
X196477255Y-140990200D02*
X196448684Y-140961628D01*
X196448684Y-140961628D02*
X196391541Y-140933057D01*
X196391541Y-140933057D02*
X196277255Y-140904485D01*
X196277255Y-140904485D02*
X196220112Y-140875914D01*
X196220112Y-140875914D02*
X196191541Y-140847342D01*
X196191541Y-140847342D02*
X196162969Y-140790200D01*
X196162969Y-140790200D02*
X196162969Y-140733057D01*
X196162969Y-140733057D02*
X196191541Y-140675914D01*
X196191541Y-140675914D02*
X196220112Y-140647342D01*
X196220112Y-140647342D02*
X196277255Y-140618771D01*
X196277255Y-140618771D02*
X196420112Y-140618771D01*
X196420112Y-140618771D02*
X196505826Y-140647342D01*
X196762970Y-140904485D02*
X196962970Y-140904485D01*
X197048684Y-141218771D02*
X196762970Y-141218771D01*
X196762970Y-141218771D02*
X196762970Y-140618771D01*
X196762970Y-140618771D02*
X197048684Y-140618771D01*
X197305827Y-141218771D02*
X197305827Y-140618771D01*
X197305827Y-140618771D02*
X197505827Y-141047342D01*
X197505827Y-141047342D02*
X197705827Y-140618771D01*
X197705827Y-140618771D02*
X197705827Y-141218771D01*
X256281200Y-146914285D02*
X256309771Y-146828571D01*
X256309771Y-146828571D02*
X256309771Y-146685713D01*
X256309771Y-146685713D02*
X256281200Y-146628571D01*
X256281200Y-146628571D02*
X256252628Y-146599999D01*
X256252628Y-146599999D02*
X256195485Y-146571428D01*
X256195485Y-146571428D02*
X256138342Y-146571428D01*
X256138342Y-146571428D02*
X256081200Y-146599999D01*
X256081200Y-146599999D02*
X256052628Y-146628571D01*
X256052628Y-146628571D02*
X256024057Y-146685713D01*
X256024057Y-146685713D02*
X255995485Y-146799999D01*
X255995485Y-146799999D02*
X255966914Y-146857142D01*
X255966914Y-146857142D02*
X255938342Y-146885713D01*
X255938342Y-146885713D02*
X255881200Y-146914285D01*
X255881200Y-146914285D02*
X255824057Y-146914285D01*
X255824057Y-146914285D02*
X255766914Y-146885713D01*
X255766914Y-146885713D02*
X255738342Y-146857142D01*
X255738342Y-146857142D02*
X255709771Y-146799999D01*
X255709771Y-146799999D02*
X255709771Y-146657142D01*
X255709771Y-146657142D02*
X255738342Y-146571428D01*
X255995485Y-146314284D02*
X255995485Y-146114284D01*
X256309771Y-146028570D02*
X256309771Y-146314284D01*
X256309771Y-146314284D02*
X255709771Y-146314284D01*
X255709771Y-146314284D02*
X255709771Y-146028570D01*
X256309771Y-145428570D02*
X256024057Y-145628570D01*
X256309771Y-145771427D02*
X255709771Y-145771427D01*
X255709771Y-145771427D02*
X255709771Y-145542856D01*
X255709771Y-145542856D02*
X255738342Y-145485713D01*
X255738342Y-145485713D02*
X255766914Y-145457142D01*
X255766914Y-145457142D02*
X255824057Y-145428570D01*
X255824057Y-145428570D02*
X255909771Y-145428570D01*
X255909771Y-145428570D02*
X255966914Y-145457142D01*
X255966914Y-145457142D02*
X255995485Y-145485713D01*
X255995485Y-145485713D02*
X256024057Y-145542856D01*
X256024057Y-145542856D02*
X256024057Y-145771427D01*
X255709771Y-145257142D02*
X256309771Y-145057142D01*
X256309771Y-145057142D02*
X255709771Y-144857142D01*
X255709771Y-144542856D02*
X255709771Y-144428570D01*
X255709771Y-144428570D02*
X255738342Y-144371427D01*
X255738342Y-144371427D02*
X255795485Y-144314284D01*
X255795485Y-144314284D02*
X255909771Y-144285713D01*
X255909771Y-144285713D02*
X256109771Y-144285713D01*
X256109771Y-144285713D02*
X256224057Y-144314284D01*
X256224057Y-144314284D02*
X256281200Y-144371427D01*
X256281200Y-144371427D02*
X256309771Y-144428570D01*
X256309771Y-144428570D02*
X256309771Y-144542856D01*
X256309771Y-144542856D02*
X256281200Y-144599999D01*
X256281200Y-144599999D02*
X256224057Y-144657141D01*
X256224057Y-144657141D02*
X256109771Y-144685713D01*
X256109771Y-144685713D02*
X255909771Y-144685713D01*
X255909771Y-144685713D02*
X255795485Y-144657141D01*
X255795485Y-144657141D02*
X255738342Y-144599999D01*
X255738342Y-144599999D02*
X255709771Y-144542856D01*
X228957141Y-133898200D02*
X229042856Y-133926771D01*
X229042856Y-133926771D02*
X229185713Y-133926771D01*
X229185713Y-133926771D02*
X229242856Y-133898200D01*
X229242856Y-133898200D02*
X229271427Y-133869628D01*
X229271427Y-133869628D02*
X229299998Y-133812485D01*
X229299998Y-133812485D02*
X229299998Y-133755342D01*
X229299998Y-133755342D02*
X229271427Y-133698200D01*
X229271427Y-133698200D02*
X229242856Y-133669628D01*
X229242856Y-133669628D02*
X229185713Y-133641057D01*
X229185713Y-133641057D02*
X229071427Y-133612485D01*
X229071427Y-133612485D02*
X229014284Y-133583914D01*
X229014284Y-133583914D02*
X228985713Y-133555342D01*
X228985713Y-133555342D02*
X228957141Y-133498200D01*
X228957141Y-133498200D02*
X228957141Y-133441057D01*
X228957141Y-133441057D02*
X228985713Y-133383914D01*
X228985713Y-133383914D02*
X229014284Y-133355342D01*
X229014284Y-133355342D02*
X229071427Y-133326771D01*
X229071427Y-133326771D02*
X229214284Y-133326771D01*
X229214284Y-133326771D02*
X229299998Y-133355342D01*
X229471427Y-133326771D02*
X229814285Y-133326771D01*
X229642856Y-133926771D02*
X229642856Y-133326771D01*
X230014285Y-133926771D02*
X230014285Y-133326771D01*
X230014285Y-133326771D02*
X230214285Y-133755342D01*
X230214285Y-133755342D02*
X230414285Y-133326771D01*
X230414285Y-133326771D02*
X230414285Y-133926771D01*
X230642856Y-133326771D02*
X231014284Y-133326771D01*
X231014284Y-133326771D02*
X230814284Y-133555342D01*
X230814284Y-133555342D02*
X230899999Y-133555342D01*
X230899999Y-133555342D02*
X230957142Y-133583914D01*
X230957142Y-133583914D02*
X230985713Y-133612485D01*
X230985713Y-133612485D02*
X231014284Y-133669628D01*
X231014284Y-133669628D02*
X231014284Y-133812485D01*
X231014284Y-133812485D02*
X230985713Y-133869628D01*
X230985713Y-133869628D02*
X230957142Y-133898200D01*
X230957142Y-133898200D02*
X230899999Y-133926771D01*
X230899999Y-133926771D02*
X230728570Y-133926771D01*
X230728570Y-133926771D02*
X230671427Y-133898200D01*
X230671427Y-133898200D02*
X230642856Y-133869628D01*
X231242856Y-133383914D02*
X231271428Y-133355342D01*
X231271428Y-133355342D02*
X231328571Y-133326771D01*
X231328571Y-133326771D02*
X231471428Y-133326771D01*
X231471428Y-133326771D02*
X231528571Y-133355342D01*
X231528571Y-133355342D02*
X231557142Y-133383914D01*
X231557142Y-133383914D02*
X231585713Y-133441057D01*
X231585713Y-133441057D02*
X231585713Y-133498200D01*
X231585713Y-133498200D02*
X231557142Y-133583914D01*
X231557142Y-133583914D02*
X231214285Y-133926771D01*
X231214285Y-133926771D02*
X231585713Y-133926771D01*
X232042857Y-133612485D02*
X231842857Y-133612485D01*
X231842857Y-133926771D02*
X231842857Y-133326771D01*
X231842857Y-133326771D02*
X232128571Y-133326771D01*
X232614286Y-133526771D02*
X232614286Y-133926771D01*
X232471428Y-133298200D02*
X232328571Y-133726771D01*
X232328571Y-133726771D02*
X232700000Y-133726771D01*
X233042857Y-133326771D02*
X233100000Y-133326771D01*
X233100000Y-133326771D02*
X233157143Y-133355342D01*
X233157143Y-133355342D02*
X233185715Y-133383914D01*
X233185715Y-133383914D02*
X233214286Y-133441057D01*
X233214286Y-133441057D02*
X233242857Y-133555342D01*
X233242857Y-133555342D02*
X233242857Y-133698200D01*
X233242857Y-133698200D02*
X233214286Y-133812485D01*
X233214286Y-133812485D02*
X233185715Y-133869628D01*
X233185715Y-133869628D02*
X233157143Y-133898200D01*
X233157143Y-133898200D02*
X233100000Y-133926771D01*
X233100000Y-133926771D02*
X233042857Y-133926771D01*
X233042857Y-133926771D02*
X232985715Y-133898200D01*
X232985715Y-133898200D02*
X232957143Y-133869628D01*
X232957143Y-133869628D02*
X232928572Y-133812485D01*
X232928572Y-133812485D02*
X232900000Y-133698200D01*
X232900000Y-133698200D02*
X232900000Y-133555342D01*
X232900000Y-133555342D02*
X232928572Y-133441057D01*
X232928572Y-133441057D02*
X232957143Y-133383914D01*
X232957143Y-133383914D02*
X232985715Y-133355342D01*
X232985715Y-133355342D02*
X233042857Y-133326771D01*
X233442858Y-133326771D02*
X233842858Y-133926771D01*
X233842858Y-133326771D02*
X233442858Y-133926771D01*
X233928573Y-133983914D02*
X234385715Y-133983914D01*
X234814287Y-133926771D02*
X234528573Y-133926771D01*
X234528573Y-133926771D02*
X234528573Y-133326771D01*
X235414287Y-133983914D02*
X235357144Y-133955342D01*
X235357144Y-133955342D02*
X235300001Y-133898200D01*
X235300001Y-133898200D02*
X235214287Y-133812485D01*
X235214287Y-133812485D02*
X235157144Y-133783914D01*
X235157144Y-133783914D02*
X235100001Y-133783914D01*
X235128572Y-133926771D02*
X235071430Y-133898200D01*
X235071430Y-133898200D02*
X235014287Y-133841057D01*
X235014287Y-133841057D02*
X234985715Y-133726771D01*
X234985715Y-133726771D02*
X234985715Y-133526771D01*
X234985715Y-133526771D02*
X235014287Y-133412485D01*
X235014287Y-133412485D02*
X235071430Y-133355342D01*
X235071430Y-133355342D02*
X235128572Y-133326771D01*
X235128572Y-133326771D02*
X235242858Y-133326771D01*
X235242858Y-133326771D02*
X235300001Y-133355342D01*
X235300001Y-133355342D02*
X235357144Y-133412485D01*
X235357144Y-133412485D02*
X235385715Y-133526771D01*
X235385715Y-133526771D02*
X235385715Y-133726771D01*
X235385715Y-133726771D02*
X235357144Y-133841057D01*
X235357144Y-133841057D02*
X235300001Y-133898200D01*
X235300001Y-133898200D02*
X235242858Y-133926771D01*
X235242858Y-133926771D02*
X235128572Y-133926771D01*
X235842858Y-133612485D02*
X235642858Y-133612485D01*
X235642858Y-133926771D02*
X235642858Y-133326771D01*
X235642858Y-133326771D02*
X235928572Y-133326771D01*
X236157144Y-133926771D02*
X236157144Y-133326771D01*
X236157144Y-133326771D02*
X236385715Y-133326771D01*
X236385715Y-133326771D02*
X236442858Y-133355342D01*
X236442858Y-133355342D02*
X236471429Y-133383914D01*
X236471429Y-133383914D02*
X236500001Y-133441057D01*
X236500001Y-133441057D02*
X236500001Y-133526771D01*
X236500001Y-133526771D02*
X236471429Y-133583914D01*
X236471429Y-133583914D02*
X236442858Y-133612485D01*
X236442858Y-133612485D02*
X236385715Y-133641057D01*
X236385715Y-133641057D02*
X236157144Y-133641057D01*
X237014287Y-133326771D02*
X236900001Y-133326771D01*
X236900001Y-133326771D02*
X236842858Y-133355342D01*
X236842858Y-133355342D02*
X236814287Y-133383914D01*
X236814287Y-133383914D02*
X236757144Y-133469628D01*
X236757144Y-133469628D02*
X236728572Y-133583914D01*
X236728572Y-133583914D02*
X236728572Y-133812485D01*
X236728572Y-133812485D02*
X236757144Y-133869628D01*
X236757144Y-133869628D02*
X236785715Y-133898200D01*
X236785715Y-133898200D02*
X236842858Y-133926771D01*
X236842858Y-133926771D02*
X236957144Y-133926771D01*
X236957144Y-133926771D02*
X237014287Y-133898200D01*
X237014287Y-133898200D02*
X237042858Y-133869628D01*
X237042858Y-133869628D02*
X237071429Y-133812485D01*
X237071429Y-133812485D02*
X237071429Y-133669628D01*
X237071429Y-133669628D02*
X237042858Y-133612485D01*
X237042858Y-133612485D02*
X237014287Y-133583914D01*
X237014287Y-133583914D02*
X236957144Y-133555342D01*
X236957144Y-133555342D02*
X236842858Y-133555342D01*
X236842858Y-133555342D02*
X236785715Y-133583914D01*
X236785715Y-133583914D02*
X236757144Y-133612485D01*
X236757144Y-133612485D02*
X236728572Y-133669628D01*
X237585716Y-133526771D02*
X237585716Y-133926771D01*
X237442858Y-133298200D02*
X237300001Y-133726771D01*
X237300001Y-133726771D02*
X237671430Y-133726771D01*
X234875914Y-108271428D02*
X234847342Y-108242856D01*
X234847342Y-108242856D02*
X234818771Y-108185714D01*
X234818771Y-108185714D02*
X234818771Y-108042856D01*
X234818771Y-108042856D02*
X234847342Y-107985714D01*
X234847342Y-107985714D02*
X234875914Y-107957142D01*
X234875914Y-107957142D02*
X234933057Y-107928571D01*
X234933057Y-107928571D02*
X234990200Y-107928571D01*
X234990200Y-107928571D02*
X235075914Y-107957142D01*
X235075914Y-107957142D02*
X235418771Y-108299999D01*
X235418771Y-108299999D02*
X235418771Y-107928571D01*
X235361628Y-107671427D02*
X235390200Y-107642856D01*
X235390200Y-107642856D02*
X235418771Y-107671427D01*
X235418771Y-107671427D02*
X235390200Y-107699999D01*
X235390200Y-107699999D02*
X235361628Y-107671427D01*
X235361628Y-107671427D02*
X235418771Y-107671427D01*
X234875914Y-107414285D02*
X234847342Y-107385713D01*
X234847342Y-107385713D02*
X234818771Y-107328571D01*
X234818771Y-107328571D02*
X234818771Y-107185713D01*
X234818771Y-107185713D02*
X234847342Y-107128571D01*
X234847342Y-107128571D02*
X234875914Y-107099999D01*
X234875914Y-107099999D02*
X234933057Y-107071428D01*
X234933057Y-107071428D02*
X234990200Y-107071428D01*
X234990200Y-107071428D02*
X235075914Y-107099999D01*
X235075914Y-107099999D02*
X235418771Y-107442856D01*
X235418771Y-107442856D02*
X235418771Y-107071428D01*
X235018771Y-106814284D02*
X235418771Y-106814284D01*
X235075914Y-106814284D02*
X235047342Y-106785713D01*
X235047342Y-106785713D02*
X235018771Y-106728570D01*
X235018771Y-106728570D02*
X235018771Y-106642856D01*
X235018771Y-106642856D02*
X235047342Y-106585713D01*
X235047342Y-106585713D02*
X235104485Y-106557142D01*
X235104485Y-106557142D02*
X235418771Y-106557142D01*
X231839456Y-115443771D02*
X231839456Y-114843771D01*
X231839456Y-114843771D02*
X231982313Y-114843771D01*
X231982313Y-114843771D02*
X232068027Y-114872342D01*
X232068027Y-114872342D02*
X232125170Y-114929485D01*
X232125170Y-114929485D02*
X232153741Y-114986628D01*
X232153741Y-114986628D02*
X232182313Y-115100914D01*
X232182313Y-115100914D02*
X232182313Y-115186628D01*
X232182313Y-115186628D02*
X232153741Y-115300914D01*
X232153741Y-115300914D02*
X232125170Y-115358057D01*
X232125170Y-115358057D02*
X232068027Y-115415200D01*
X232068027Y-115415200D02*
X231982313Y-115443771D01*
X231982313Y-115443771D02*
X231839456Y-115443771D01*
X232782313Y-115443771D02*
X232582313Y-115158057D01*
X232439456Y-115443771D02*
X232439456Y-114843771D01*
X232439456Y-114843771D02*
X232668027Y-114843771D01*
X232668027Y-114843771D02*
X232725170Y-114872342D01*
X232725170Y-114872342D02*
X232753741Y-114900914D01*
X232753741Y-114900914D02*
X232782313Y-114958057D01*
X232782313Y-114958057D02*
X232782313Y-115043771D01*
X232782313Y-115043771D02*
X232753741Y-115100914D01*
X232753741Y-115100914D02*
X232725170Y-115129485D01*
X232725170Y-115129485D02*
X232668027Y-115158057D01*
X232668027Y-115158057D02*
X232439456Y-115158057D01*
X232953741Y-114843771D02*
X233153741Y-115443771D01*
X233153741Y-115443771D02*
X233353741Y-114843771D01*
X233639456Y-115100914D02*
X233582313Y-115072342D01*
X233582313Y-115072342D02*
X233553742Y-115043771D01*
X233553742Y-115043771D02*
X233525170Y-114986628D01*
X233525170Y-114986628D02*
X233525170Y-114958057D01*
X233525170Y-114958057D02*
X233553742Y-114900914D01*
X233553742Y-114900914D02*
X233582313Y-114872342D01*
X233582313Y-114872342D02*
X233639456Y-114843771D01*
X233639456Y-114843771D02*
X233753742Y-114843771D01*
X233753742Y-114843771D02*
X233810885Y-114872342D01*
X233810885Y-114872342D02*
X233839456Y-114900914D01*
X233839456Y-114900914D02*
X233868027Y-114958057D01*
X233868027Y-114958057D02*
X233868027Y-114986628D01*
X233868027Y-114986628D02*
X233839456Y-115043771D01*
X233839456Y-115043771D02*
X233810885Y-115072342D01*
X233810885Y-115072342D02*
X233753742Y-115100914D01*
X233753742Y-115100914D02*
X233639456Y-115100914D01*
X233639456Y-115100914D02*
X233582313Y-115129485D01*
X233582313Y-115129485D02*
X233553742Y-115158057D01*
X233553742Y-115158057D02*
X233525170Y-115215200D01*
X233525170Y-115215200D02*
X233525170Y-115329485D01*
X233525170Y-115329485D02*
X233553742Y-115386628D01*
X233553742Y-115386628D02*
X233582313Y-115415200D01*
X233582313Y-115415200D02*
X233639456Y-115443771D01*
X233639456Y-115443771D02*
X233753742Y-115443771D01*
X233753742Y-115443771D02*
X233810885Y-115415200D01*
X233810885Y-115415200D02*
X233839456Y-115386628D01*
X233839456Y-115386628D02*
X233868027Y-115329485D01*
X233868027Y-115329485D02*
X233868027Y-115215200D01*
X233868027Y-115215200D02*
X233839456Y-115158057D01*
X233839456Y-115158057D02*
X233810885Y-115129485D01*
X233810885Y-115129485D02*
X233753742Y-115100914D01*
X234068028Y-114843771D02*
X234439456Y-114843771D01*
X234439456Y-114843771D02*
X234239456Y-115072342D01*
X234239456Y-115072342D02*
X234325171Y-115072342D01*
X234325171Y-115072342D02*
X234382314Y-115100914D01*
X234382314Y-115100914D02*
X234410885Y-115129485D01*
X234410885Y-115129485D02*
X234439456Y-115186628D01*
X234439456Y-115186628D02*
X234439456Y-115329485D01*
X234439456Y-115329485D02*
X234410885Y-115386628D01*
X234410885Y-115386628D02*
X234382314Y-115415200D01*
X234382314Y-115415200D02*
X234325171Y-115443771D01*
X234325171Y-115443771D02*
X234153742Y-115443771D01*
X234153742Y-115443771D02*
X234096599Y-115415200D01*
X234096599Y-115415200D02*
X234068028Y-115386628D01*
X234810885Y-114843771D02*
X234868028Y-114843771D01*
X234868028Y-114843771D02*
X234925171Y-114872342D01*
X234925171Y-114872342D02*
X234953743Y-114900914D01*
X234953743Y-114900914D02*
X234982314Y-114958057D01*
X234982314Y-114958057D02*
X235010885Y-115072342D01*
X235010885Y-115072342D02*
X235010885Y-115215200D01*
X235010885Y-115215200D02*
X234982314Y-115329485D01*
X234982314Y-115329485D02*
X234953743Y-115386628D01*
X234953743Y-115386628D02*
X234925171Y-115415200D01*
X234925171Y-115415200D02*
X234868028Y-115443771D01*
X234868028Y-115443771D02*
X234810885Y-115443771D01*
X234810885Y-115443771D02*
X234753743Y-115415200D01*
X234753743Y-115415200D02*
X234725171Y-115386628D01*
X234725171Y-115386628D02*
X234696600Y-115329485D01*
X234696600Y-115329485D02*
X234668028Y-115215200D01*
X234668028Y-115215200D02*
X234668028Y-115072342D01*
X234668028Y-115072342D02*
X234696600Y-114958057D01*
X234696600Y-114958057D02*
X234725171Y-114900914D01*
X234725171Y-114900914D02*
X234753743Y-114872342D01*
X234753743Y-114872342D02*
X234810885Y-114843771D01*
X235239457Y-114900914D02*
X235268029Y-114872342D01*
X235268029Y-114872342D02*
X235325172Y-114843771D01*
X235325172Y-114843771D02*
X235468029Y-114843771D01*
X235468029Y-114843771D02*
X235525172Y-114872342D01*
X235525172Y-114872342D02*
X235553743Y-114900914D01*
X235553743Y-114900914D02*
X235582314Y-114958057D01*
X235582314Y-114958057D02*
X235582314Y-115015200D01*
X235582314Y-115015200D02*
X235553743Y-115100914D01*
X235553743Y-115100914D02*
X235210886Y-115443771D01*
X235210886Y-115443771D02*
X235582314Y-115443771D01*
X238622085Y-106528571D02*
X238650657Y-106557143D01*
X238650657Y-106557143D02*
X238679228Y-106614286D01*
X238679228Y-106614286D02*
X238679228Y-106757143D01*
X238679228Y-106757143D02*
X238650657Y-106814286D01*
X238650657Y-106814286D02*
X238622085Y-106842857D01*
X238622085Y-106842857D02*
X238564942Y-106871428D01*
X238564942Y-106871428D02*
X238507800Y-106871428D01*
X238507800Y-106871428D02*
X238422085Y-106842857D01*
X238422085Y-106842857D02*
X238079228Y-106500000D01*
X238079228Y-106500000D02*
X238079228Y-106871428D01*
X238136371Y-107128572D02*
X238107800Y-107157143D01*
X238107800Y-107157143D02*
X238079228Y-107128572D01*
X238079228Y-107128572D02*
X238107800Y-107100000D01*
X238107800Y-107100000D02*
X238136371Y-107128572D01*
X238136371Y-107128572D02*
X238079228Y-107128572D01*
X238622085Y-107385714D02*
X238650657Y-107414286D01*
X238650657Y-107414286D02*
X238679228Y-107471429D01*
X238679228Y-107471429D02*
X238679228Y-107614286D01*
X238679228Y-107614286D02*
X238650657Y-107671429D01*
X238650657Y-107671429D02*
X238622085Y-107700000D01*
X238622085Y-107700000D02*
X238564942Y-107728571D01*
X238564942Y-107728571D02*
X238507800Y-107728571D01*
X238507800Y-107728571D02*
X238422085Y-107700000D01*
X238422085Y-107700000D02*
X238079228Y-107357143D01*
X238079228Y-107357143D02*
X238079228Y-107728571D01*
X238479228Y-107985715D02*
X238079228Y-107985715D01*
X238422085Y-107985715D02*
X238450657Y-108014286D01*
X238450657Y-108014286D02*
X238479228Y-108071429D01*
X238479228Y-108071429D02*
X238479228Y-108157143D01*
X238479228Y-108157143D02*
X238450657Y-108214286D01*
X238450657Y-108214286D02*
X238393514Y-108242858D01*
X238393514Y-108242858D02*
X238079228Y-108242858D01*
X221257200Y-140385715D02*
X221285771Y-140300001D01*
X221285771Y-140300001D02*
X221285771Y-140157143D01*
X221285771Y-140157143D02*
X221257200Y-140100001D01*
X221257200Y-140100001D02*
X221228628Y-140071429D01*
X221228628Y-140071429D02*
X221171485Y-140042858D01*
X221171485Y-140042858D02*
X221114342Y-140042858D01*
X221114342Y-140042858D02*
X221057200Y-140071429D01*
X221057200Y-140071429D02*
X221028628Y-140100001D01*
X221028628Y-140100001D02*
X221000057Y-140157143D01*
X221000057Y-140157143D02*
X220971485Y-140271429D01*
X220971485Y-140271429D02*
X220942914Y-140328572D01*
X220942914Y-140328572D02*
X220914342Y-140357143D01*
X220914342Y-140357143D02*
X220857200Y-140385715D01*
X220857200Y-140385715D02*
X220800057Y-140385715D01*
X220800057Y-140385715D02*
X220742914Y-140357143D01*
X220742914Y-140357143D02*
X220714342Y-140328572D01*
X220714342Y-140328572D02*
X220685771Y-140271429D01*
X220685771Y-140271429D02*
X220685771Y-140128572D01*
X220685771Y-140128572D02*
X220714342Y-140042858D01*
X221285771Y-139785714D02*
X220685771Y-139785714D01*
X220685771Y-139785714D02*
X221285771Y-139442857D01*
X221285771Y-139442857D02*
X220685771Y-139442857D01*
X220685771Y-138900001D02*
X220685771Y-139014286D01*
X220685771Y-139014286D02*
X220714342Y-139071429D01*
X220714342Y-139071429D02*
X220742914Y-139100001D01*
X220742914Y-139100001D02*
X220828628Y-139157143D01*
X220828628Y-139157143D02*
X220942914Y-139185715D01*
X220942914Y-139185715D02*
X221171485Y-139185715D01*
X221171485Y-139185715D02*
X221228628Y-139157143D01*
X221228628Y-139157143D02*
X221257200Y-139128572D01*
X221257200Y-139128572D02*
X221285771Y-139071429D01*
X221285771Y-139071429D02*
X221285771Y-138957143D01*
X221285771Y-138957143D02*
X221257200Y-138900001D01*
X221257200Y-138900001D02*
X221228628Y-138871429D01*
X221228628Y-138871429D02*
X221171485Y-138842858D01*
X221171485Y-138842858D02*
X221028628Y-138842858D01*
X221028628Y-138842858D02*
X220971485Y-138871429D01*
X220971485Y-138871429D02*
X220942914Y-138900001D01*
X220942914Y-138900001D02*
X220914342Y-138957143D01*
X220914342Y-138957143D02*
X220914342Y-139071429D01*
X220914342Y-139071429D02*
X220942914Y-139128572D01*
X220942914Y-139128572D02*
X220971485Y-139157143D01*
X220971485Y-139157143D02*
X221028628Y-139185715D01*
X220685771Y-138300000D02*
X220685771Y-138585714D01*
X220685771Y-138585714D02*
X220971485Y-138614286D01*
X220971485Y-138614286D02*
X220942914Y-138585714D01*
X220942914Y-138585714D02*
X220914342Y-138528572D01*
X220914342Y-138528572D02*
X220914342Y-138385714D01*
X220914342Y-138385714D02*
X220942914Y-138328572D01*
X220942914Y-138328572D02*
X220971485Y-138300000D01*
X220971485Y-138300000D02*
X221028628Y-138271429D01*
X221028628Y-138271429D02*
X221171485Y-138271429D01*
X221171485Y-138271429D02*
X221228628Y-138300000D01*
X221228628Y-138300000D02*
X221257200Y-138328572D01*
X221257200Y-138328572D02*
X221285771Y-138385714D01*
X221285771Y-138385714D02*
X221285771Y-138528572D01*
X221285771Y-138528572D02*
X221257200Y-138585714D01*
X221257200Y-138585714D02*
X221228628Y-138614286D01*
X221285771Y-138014285D02*
X220685771Y-138014285D01*
X220971485Y-138014285D02*
X220971485Y-137671428D01*
X221285771Y-137671428D02*
X220685771Y-137671428D01*
X220685771Y-137471429D02*
X221285771Y-137271429D01*
X221285771Y-137271429D02*
X220685771Y-137071429D01*
X221285771Y-136871428D02*
X220685771Y-136871428D01*
X220685771Y-136871428D02*
X220685771Y-136728571D01*
X220685771Y-136728571D02*
X220714342Y-136642857D01*
X220714342Y-136642857D02*
X220771485Y-136585714D01*
X220771485Y-136585714D02*
X220828628Y-136557143D01*
X220828628Y-136557143D02*
X220942914Y-136528571D01*
X220942914Y-136528571D02*
X221028628Y-136528571D01*
X221028628Y-136528571D02*
X221142914Y-136557143D01*
X221142914Y-136557143D02*
X221200057Y-136585714D01*
X221200057Y-136585714D02*
X221257200Y-136642857D01*
X221257200Y-136642857D02*
X221285771Y-136728571D01*
X221285771Y-136728571D02*
X221285771Y-136871428D01*
X220742914Y-136300000D02*
X220714342Y-136271428D01*
X220714342Y-136271428D02*
X220685771Y-136214286D01*
X220685771Y-136214286D02*
X220685771Y-136071428D01*
X220685771Y-136071428D02*
X220714342Y-136014286D01*
X220714342Y-136014286D02*
X220742914Y-135985714D01*
X220742914Y-135985714D02*
X220800057Y-135957143D01*
X220800057Y-135957143D02*
X220857200Y-135957143D01*
X220857200Y-135957143D02*
X220942914Y-135985714D01*
X220942914Y-135985714D02*
X221285771Y-136328571D01*
X221285771Y-136328571D02*
X221285771Y-135957143D01*
X220685771Y-135757142D02*
X220685771Y-135385714D01*
X220685771Y-135385714D02*
X220914342Y-135585714D01*
X220914342Y-135585714D02*
X220914342Y-135499999D01*
X220914342Y-135499999D02*
X220942914Y-135442857D01*
X220942914Y-135442857D02*
X220971485Y-135414285D01*
X220971485Y-135414285D02*
X221028628Y-135385714D01*
X221028628Y-135385714D02*
X221171485Y-135385714D01*
X221171485Y-135385714D02*
X221228628Y-135414285D01*
X221228628Y-135414285D02*
X221257200Y-135442857D01*
X221257200Y-135442857D02*
X221285771Y-135499999D01*
X221285771Y-135499999D02*
X221285771Y-135671428D01*
X221285771Y-135671428D02*
X221257200Y-135728571D01*
X221257200Y-135728571D02*
X221228628Y-135757142D01*
X220742914Y-135157142D02*
X220714342Y-135128570D01*
X220714342Y-135128570D02*
X220685771Y-135071428D01*
X220685771Y-135071428D02*
X220685771Y-134928570D01*
X220685771Y-134928570D02*
X220714342Y-134871428D01*
X220714342Y-134871428D02*
X220742914Y-134842856D01*
X220742914Y-134842856D02*
X220800057Y-134814285D01*
X220800057Y-134814285D02*
X220857200Y-134814285D01*
X220857200Y-134814285D02*
X220942914Y-134842856D01*
X220942914Y-134842856D02*
X221285771Y-135185713D01*
X221285771Y-135185713D02*
X221285771Y-134814285D01*
%TO.C,K1*%
X252230000Y-142425000D02*
X252865000Y-141790000D01*
X252230000Y-143695000D02*
X252230000Y-142425000D01*
X252230000Y-144965000D02*
X252865000Y-144330000D01*
X252230000Y-146235000D02*
X252230000Y-144965000D01*
X252230000Y-147505000D02*
X252865000Y-146870000D01*
X252230000Y-148775000D02*
X252230000Y-147505000D01*
X252230000Y-148775000D02*
X252865000Y-149410000D01*
X252865000Y-141790000D02*
X254135000Y-141790000D01*
X252865000Y-144330000D02*
X252230000Y-143695000D01*
X252865000Y-144330000D02*
X254135000Y-144330000D01*
X252865000Y-146870000D02*
X252230000Y-146235000D01*
X252865000Y-146870000D02*
X254135000Y-146870000D01*
X252865000Y-149410000D02*
X254135000Y-149410000D01*
X253246000Y-143314000D02*
X253246000Y-142806000D01*
X253246000Y-145854000D02*
X253246000Y-145346000D01*
X253246000Y-148394000D02*
X253246000Y-147886000D01*
X253754000Y-142806000D02*
X253246000Y-142806000D01*
X253754000Y-143314000D02*
X253246000Y-143314000D01*
X253754000Y-143314000D02*
X253754000Y-142806000D01*
X253754000Y-145346000D02*
X253246000Y-145346000D01*
X253754000Y-145854000D02*
X253246000Y-145854000D01*
X253754000Y-145854000D02*
X253754000Y-145346000D01*
X253754000Y-147886000D02*
X253246000Y-147886000D01*
X253754000Y-148394000D02*
X253246000Y-148394000D01*
X253754000Y-148394000D02*
X253754000Y-147886000D01*
X254135000Y-141790000D02*
X254770000Y-142425000D01*
X254135000Y-144330000D02*
X254770000Y-144965000D01*
X254135000Y-146870000D02*
X254770000Y-147505000D01*
X254135000Y-149410000D02*
X254770000Y-148775000D01*
X254770000Y-142425000D02*
X254770000Y-143695000D01*
X254770000Y-143695000D02*
X254135000Y-144330000D01*
X254770000Y-144965000D02*
X254770000Y-146235000D01*
X254770000Y-146235000D02*
X254135000Y-146870000D01*
X254770000Y-147505000D02*
X254770000Y-148775000D01*
%TO.C,TEMP/HALL*%
X210300000Y-149799900D02*
X224300000Y-149799900D01*
X224300000Y-154300000D01*
X210300000Y-154300000D01*
X210300000Y-149799900D01*
X223945200Y-153616000D02*
G75*
G02*
X223226800Y-153616000I-359200J0D01*
G01*
X223226800Y-153616000D02*
G75*
G02*
X223945200Y-153616000I359200J0D01*
G01*
%TO.C,SWD*%
X224600000Y-149799900D02*
X238600000Y-149799900D01*
X238600000Y-154300000D01*
X224600000Y-154300000D01*
X224600000Y-149799900D01*
X238245200Y-153616000D02*
G75*
G02*
X237526800Y-153616000I-359200J0D01*
G01*
X237526800Y-153616000D02*
G75*
G02*
X238245200Y-153616000I359200J0D01*
G01*
%TO.C,CAN*%
X209900000Y-154300100D02*
X199900000Y-154300100D01*
X199900000Y-149800000D01*
X209900000Y-149800000D01*
X209900000Y-154300100D01*
X200973200Y-150484000D02*
G75*
G02*
X200254800Y-150484000I-359200J0D01*
G01*
X200254800Y-150484000D02*
G75*
G02*
X200973200Y-150484000I359200J0D01*
G01*
%TO.C,PERIF*%
X238900000Y-149800000D02*
X238900000Y-154300000D01*
X238900000Y-154300000D02*
X254900000Y-154300000D01*
X238900300Y-151101200D02*
X239499700Y-151101200D01*
X239499700Y-150301100D02*
X243899000Y-150301100D01*
X239499700Y-151101200D02*
X239499700Y-150301100D01*
X239499700Y-152201000D02*
X238900300Y-152201000D01*
X239499700Y-153699600D02*
X239499700Y-152201000D01*
X240500500Y-153399900D02*
X240899200Y-152399200D01*
X240900000Y-152400000D02*
X241300000Y-153400000D01*
X241300000Y-153400000D02*
X240500500Y-153399900D01*
X243899000Y-149800700D02*
X243900000Y-149800000D01*
X243899000Y-150301100D02*
X243899000Y-149800700D01*
X249900000Y-149800000D02*
X249900000Y-149800700D01*
X249900000Y-149800700D02*
X249900000Y-150301100D01*
X249900000Y-150301100D02*
X254299300Y-150301100D01*
X254299300Y-150301100D02*
X254299300Y-151101200D01*
X254299300Y-151101200D02*
X254901300Y-151101200D01*
X254300000Y-152097100D02*
X254300000Y-153699600D01*
X254300000Y-153699600D02*
X239499700Y-153699600D01*
X254900000Y-149800000D02*
X238900000Y-149800000D01*
X254900000Y-152100000D02*
X254300000Y-152097100D01*
X254900000Y-154300000D02*
X254900000Y-149800000D01*
%TO.C,R30*%
X222540000Y-83810000D02*
X222540000Y-84770000D01*
X222540000Y-86590000D02*
X222540000Y-85630000D01*
X223860000Y-83810000D02*
X222540000Y-83810000D01*
X223860000Y-84770000D02*
X223860000Y-83810000D01*
X223860000Y-85630000D02*
X223860000Y-86590000D01*
X223860000Y-86590000D02*
X222540000Y-86590000D01*
D11*
X223630000Y-86000000D02*
G75*
G02*
X223570000Y-86000000I-30000J0D01*
G01*
X223570000Y-86000000D02*
G75*
G02*
X223630000Y-86000000I30000J0D01*
G01*
D12*
%TO.C,C42*%
X210659619Y-44260000D02*
X210659619Y-45940000D01*
X211499619Y-45150000D02*
X209769619Y-45150000D01*
X201749619Y-38320000D02*
G75*
G02*
X201749594Y-38477084I9000000J-80000D01*
G01*
D11*
X219779619Y-47400000D02*
G75*
G02*
X219719619Y-47400000I-30000J0D01*
G01*
X219719619Y-47400000D02*
G75*
G02*
X219779619Y-47400000I30000J0D01*
G01*
D13*
D10*
%TO.C,R49*%
X236940000Y-103710000D02*
X238260000Y-103710000D01*
X236940000Y-104670000D02*
X236940000Y-103710000D01*
X236940000Y-105530000D02*
X236940000Y-106490000D01*
X236940000Y-106490000D02*
X238260000Y-106490000D01*
X238260000Y-103710000D02*
X238260000Y-104670000D01*
X238260000Y-106490000D02*
X238260000Y-105530000D01*
D11*
X237230000Y-104300000D02*
G75*
G02*
X237170000Y-104300000I-30000J0D01*
G01*
X237170000Y-104300000D02*
G75*
G02*
X237230000Y-104300000I30000J0D01*
G01*
D10*
%TO.C,C20*%
X237310000Y-123600000D02*
X237310000Y-122800000D01*
X238420000Y-122490000D02*
X237620000Y-122490000D01*
X238420000Y-123910000D02*
X237620000Y-123910000D01*
X238980000Y-122490000D02*
X239780000Y-122490000D01*
X238980000Y-123910000D02*
X239780000Y-123910000D01*
X240090000Y-122800000D02*
X240090000Y-123600000D01*
X237310000Y-122800000D02*
G75*
G02*
X237620000Y-122490000I310000J0D01*
G01*
X237620000Y-123910000D02*
G75*
G02*
X237310000Y-123600000I0J310000D01*
G01*
X239780000Y-122490000D02*
G75*
G02*
X240090000Y-122800000I0J-310000D01*
G01*
X240090000Y-123600000D02*
G75*
G02*
X239780000Y-123910000I-310000J0D01*
G01*
X237930000Y-123600000D02*
G75*
G02*
X237870000Y-123600000I-30000J0D01*
G01*
X237870000Y-123600000D02*
G75*
G02*
X237930000Y-123600000I30000J0D01*
G01*
%TO.C,R12*%
X219340000Y-146710000D02*
X219340000Y-147670000D01*
X219340000Y-149490000D02*
X219340000Y-148530000D01*
X220660000Y-146710000D02*
X219340000Y-146710000D01*
X220660000Y-147670000D02*
X220660000Y-146710000D01*
X220660000Y-148530000D02*
X220660000Y-149490000D01*
X220660000Y-149490000D02*
X219340000Y-149490000D01*
D11*
X220430000Y-148900000D02*
G75*
G02*
X220370000Y-148900000I-30000J0D01*
G01*
X220370000Y-148900000D02*
G75*
G02*
X220430000Y-148900000I30000J0D01*
G01*
D10*
%TO.C,C15*%
X228510000Y-148800000D02*
X228510000Y-148000000D01*
X229620000Y-147690000D02*
X228820000Y-147690000D01*
X229620000Y-149110000D02*
X228820000Y-149110000D01*
X230180000Y-147690000D02*
X230980000Y-147690000D01*
X230180000Y-149110000D02*
X230980000Y-149110000D01*
X231290000Y-148000000D02*
X231290000Y-148800000D01*
X228510000Y-148000000D02*
G75*
G02*
X228820000Y-147690000I310000J0D01*
G01*
X228820000Y-149110000D02*
G75*
G02*
X228510000Y-148800000I0J310000D01*
G01*
X230980000Y-147690000D02*
G75*
G02*
X231290000Y-148000000I0J-310000D01*
G01*
X231290000Y-148800000D02*
G75*
G02*
X230980000Y-149110000I-310000J0D01*
G01*
X229130000Y-148800000D02*
G75*
G02*
X229070000Y-148800000I-30000J0D01*
G01*
X229070000Y-148800000D02*
G75*
G02*
X229130000Y-148800000I30000J0D01*
G01*
%TO.C,R23*%
X245110000Y-126540000D02*
X246070000Y-126540000D01*
X245110000Y-127860000D02*
X245110000Y-126540000D01*
X246070000Y-127860000D02*
X245110000Y-127860000D01*
X246930000Y-127860000D02*
X247890000Y-127860000D01*
X247890000Y-126540000D02*
X246930000Y-126540000D01*
X247890000Y-127860000D02*
X247890000Y-126540000D01*
D11*
X245730000Y-127600000D02*
G75*
G02*
X245670000Y-127600000I-30000J0D01*
G01*
X245670000Y-127600000D02*
G75*
G02*
X245730000Y-127600000I30000J0D01*
G01*
D10*
%TO.C,R50*%
X238540000Y-103710000D02*
X239860000Y-103710000D01*
X238540000Y-104670000D02*
X238540000Y-103710000D01*
X238540000Y-105530000D02*
X238540000Y-106490000D01*
X238540000Y-106490000D02*
X239860000Y-106490000D01*
X239860000Y-103710000D02*
X239860000Y-104670000D01*
X239860000Y-106490000D02*
X239860000Y-105530000D01*
D11*
X238830000Y-104300000D02*
G75*
G02*
X238770000Y-104300000I-30000J0D01*
G01*
X238770000Y-104300000D02*
G75*
G02*
X238830000Y-104300000I30000J0D01*
G01*
%TO.C,P5*%
D14*
X226862410Y-92241849D02*
X234324594Y-92241849D01*
X234324594Y-101760280D01*
X226862410Y-101760280D01*
X226862410Y-92241849D01*
D10*
%TO.C,C10*%
X240190000Y-129320000D02*
X240190000Y-128520000D01*
X240190000Y-129880000D02*
X240190000Y-130680000D01*
X240500000Y-128210000D02*
X241300000Y-128210000D01*
X241300000Y-130990000D02*
X240500000Y-130990000D01*
X241610000Y-129320000D02*
X241610000Y-128520000D01*
X241610000Y-129880000D02*
X241610000Y-130680000D01*
X240190000Y-128520000D02*
G75*
G02*
X240500000Y-128210000I310000J0D01*
G01*
X240500000Y-130990000D02*
G75*
G02*
X240190000Y-130680000I0J310000D01*
G01*
X241300000Y-128210000D02*
G75*
G02*
X241610000Y-128520000I0J-310000D01*
G01*
X241610000Y-130680000D02*
G75*
G02*
X241300000Y-130990000I-310000J0D01*
G01*
X240530000Y-128800000D02*
G75*
G02*
X240470000Y-128800000I-30000J0D01*
G01*
X240470000Y-128800000D02*
G75*
G02*
X240530000Y-128800000I30000J0D01*
G01*
D12*
%TO.C,C46*%
X249160381Y-44260000D02*
X249160381Y-45940000D01*
X250000381Y-45150000D02*
X248270381Y-45150000D01*
X240250381Y-38320000D02*
G75*
G02*
X240250356Y-38477084I9000000J-80000D01*
G01*
D11*
X258280381Y-47400000D02*
G75*
G02*
X258220381Y-47400000I-30000J0D01*
G01*
X258220381Y-47400000D02*
G75*
G02*
X258280381Y-47400000I30000J0D01*
G01*
D13*
D10*
%TO.C,C38*%
X231510000Y-148800000D02*
X231510000Y-148000000D01*
X232620000Y-147690000D02*
X231820000Y-147690000D01*
X232620000Y-149110000D02*
X231820000Y-149110000D01*
X233180000Y-147690000D02*
X233980000Y-147690000D01*
X233180000Y-149110000D02*
X233980000Y-149110000D01*
X234290000Y-148000000D02*
X234290000Y-148800000D01*
X231510000Y-148000000D02*
G75*
G02*
X231820000Y-147690000I310000J0D01*
G01*
X231820000Y-149110000D02*
G75*
G02*
X231510000Y-148800000I0J310000D01*
G01*
X233980000Y-147690000D02*
G75*
G02*
X234290000Y-148000000I0J-310000D01*
G01*
X234290000Y-148800000D02*
G75*
G02*
X233980000Y-149110000I-310000J0D01*
G01*
X232130000Y-148800000D02*
G75*
G02*
X232070000Y-148800000I-30000J0D01*
G01*
X232070000Y-148800000D02*
G75*
G02*
X232130000Y-148800000I30000J0D01*
G01*
%TO.C,R5*%
X247910000Y-147734000D02*
X248870000Y-147734000D01*
X247910000Y-149054000D02*
X247910000Y-147734000D01*
X248870000Y-149054000D02*
X247910000Y-149054000D01*
X249730000Y-149054000D02*
X250690000Y-149054000D01*
X250690000Y-147734000D02*
X249730000Y-147734000D01*
X250690000Y-149054000D02*
X250690000Y-147734000D01*
D11*
X248530000Y-148794000D02*
G75*
G02*
X248470000Y-148794000I-30000J0D01*
G01*
X248470000Y-148794000D02*
G75*
G02*
X248530000Y-148794000I30000J0D01*
G01*
D10*
%TO.C,R36*%
X222540000Y-87010000D02*
X223860000Y-87010000D01*
X222540000Y-87970000D02*
X222540000Y-87010000D01*
X222540000Y-88830000D02*
X222540000Y-89790000D01*
X222540000Y-89790000D02*
X223860000Y-89790000D01*
X223860000Y-87010000D02*
X223860000Y-87970000D01*
X223860000Y-89790000D02*
X223860000Y-88830000D01*
D11*
X222830000Y-87600000D02*
G75*
G02*
X222770000Y-87600000I-30000J0D01*
G01*
X222770000Y-87600000D02*
G75*
G02*
X222830000Y-87600000I30000J0D01*
G01*
D10*
%TO.C,C2*%
X220290000Y-126370000D02*
X220290000Y-125570000D01*
X220290000Y-126930000D02*
X220290000Y-127730000D01*
X220600000Y-125260000D02*
X221400000Y-125260000D01*
X221400000Y-128040000D02*
X220600000Y-128040000D01*
X221710000Y-126370000D02*
X221710000Y-125570000D01*
X221710000Y-126930000D02*
X221710000Y-127730000D01*
X220290000Y-125570000D02*
G75*
G02*
X220600000Y-125260000I310000J0D01*
G01*
X220600000Y-128040000D02*
G75*
G02*
X220290000Y-127730000I0J310000D01*
G01*
X221400000Y-125260000D02*
G75*
G02*
X221710000Y-125570000I0J-310000D01*
G01*
X221710000Y-127730000D02*
G75*
G02*
X221400000Y-128040000I-310000J0D01*
G01*
X220630000Y-125850000D02*
G75*
G02*
X220570000Y-125850000I-30000J0D01*
G01*
X220570000Y-125850000D02*
G75*
G02*
X220630000Y-125850000I30000J0D01*
G01*
%TO.C,R27*%
X248540000Y-122710000D02*
X249860000Y-122710000D01*
X248540000Y-123670000D02*
X248540000Y-122710000D01*
X248540000Y-124530000D02*
X248540000Y-125490000D01*
X248540000Y-125490000D02*
X249860000Y-125490000D01*
X249860000Y-122710000D02*
X249860000Y-123670000D01*
X249860000Y-125490000D02*
X249860000Y-124530000D01*
D11*
X248830000Y-123300000D02*
G75*
G02*
X248770000Y-123300000I-30000J0D01*
G01*
X248770000Y-123300000D02*
G75*
G02*
X248830000Y-123300000I30000J0D01*
G01*
D10*
%TO.C,R6*%
X255340000Y-150210000D02*
X256660000Y-150210000D01*
X255340000Y-151170000D02*
X255340000Y-150210000D01*
X255340000Y-152030000D02*
X255340000Y-152990000D01*
X255340000Y-152990000D02*
X256660000Y-152990000D01*
X256660000Y-150210000D02*
X256660000Y-151170000D01*
X256660000Y-152990000D02*
X256660000Y-152030000D01*
D11*
X255630000Y-150800000D02*
G75*
G02*
X255570000Y-150800000I-30000J0D01*
G01*
X255570000Y-150800000D02*
G75*
G02*
X255630000Y-150800000I30000J0D01*
G01*
D10*
%TO.C,C28*%
X230710000Y-109400000D02*
X230710000Y-108600000D01*
X231820000Y-108290000D02*
X231020000Y-108290000D01*
X231820000Y-109710000D02*
X231020000Y-109710000D01*
X232380000Y-108290000D02*
X233180000Y-108290000D01*
X232380000Y-109710000D02*
X233180000Y-109710000D01*
X233490000Y-108600000D02*
X233490000Y-109400000D01*
X230710000Y-108600000D02*
G75*
G02*
X231020000Y-108290000I310000J0D01*
G01*
X231020000Y-109710000D02*
G75*
G02*
X230710000Y-109400000I0J310000D01*
G01*
X233180000Y-108290000D02*
G75*
G02*
X233490000Y-108600000I0J-310000D01*
G01*
X233490000Y-109400000D02*
G75*
G02*
X233180000Y-109710000I-310000J0D01*
G01*
X232930000Y-108600000D02*
G75*
G02*
X232870000Y-108600000I-30000J0D01*
G01*
X232870000Y-108600000D02*
G75*
G02*
X232930000Y-108600000I30000J0D01*
G01*
%TO.C,R104*%
X216710000Y-131410000D02*
X216710000Y-132730000D01*
X216710000Y-132730000D02*
X217670000Y-132730000D01*
X217670000Y-131410000D02*
X216710000Y-131410000D01*
X218530000Y-131410000D02*
X219490000Y-131410000D01*
X219490000Y-131410000D02*
X219490000Y-132730000D01*
X219490000Y-132730000D02*
X218530000Y-132730000D01*
D11*
X218930000Y-131670000D02*
G75*
G02*
X218870000Y-131670000I-30000J0D01*
G01*
X218870000Y-131670000D02*
G75*
G02*
X218930000Y-131670000I30000J0D01*
G01*
D10*
%TO.C,R20*%
X228840000Y-122510000D02*
X230160000Y-122510000D01*
X228840000Y-123470000D02*
X228840000Y-122510000D01*
X228840000Y-124330000D02*
X228840000Y-125290000D01*
X228840000Y-125290000D02*
X230160000Y-125290000D01*
X230160000Y-122510000D02*
X230160000Y-123470000D01*
X230160000Y-125290000D02*
X230160000Y-124330000D01*
D11*
X229130000Y-123100000D02*
G75*
G02*
X229070000Y-123100000I-30000J0D01*
G01*
X229070000Y-123100000D02*
G75*
G02*
X229130000Y-123100000I30000J0D01*
G01*
D10*
%TO.C,C35*%
X225810000Y-140800000D02*
X225810000Y-140000000D01*
X226920000Y-139690000D02*
X226120000Y-139690000D01*
X226920000Y-141110000D02*
X226120000Y-141110000D01*
X227480000Y-139690000D02*
X228280000Y-139690000D01*
X227480000Y-141110000D02*
X228280000Y-141110000D01*
X228590000Y-140000000D02*
X228590000Y-140800000D01*
X225810000Y-140000000D02*
G75*
G02*
X226120000Y-139690000I310000J0D01*
G01*
X226120000Y-141110000D02*
G75*
G02*
X225810000Y-140800000I0J310000D01*
G01*
X228280000Y-139690000D02*
G75*
G02*
X228590000Y-140000000I0J-310000D01*
G01*
X228590000Y-140800000D02*
G75*
G02*
X228280000Y-141110000I-310000J0D01*
G01*
X226430000Y-140800000D02*
G75*
G02*
X226370000Y-140800000I-30000J0D01*
G01*
X226370000Y-140800000D02*
G75*
G02*
X226430000Y-140800000I30000J0D01*
G01*
%TO.C,R53*%
X234880000Y-93810000D02*
X234880000Y-102190000D01*
X234880000Y-102190000D02*
X238820000Y-102190000D01*
X238820000Y-93810000D02*
X234880000Y-93810000D01*
X239580000Y-102190000D02*
X243520000Y-102190000D01*
X243520000Y-93810000D02*
X239580000Y-93810000D01*
X243520000Y-102190000D02*
X243520000Y-93810000D01*
X242530000Y-101710000D02*
G75*
G02*
X242470000Y-101710000I-30000J0D01*
G01*
X242470000Y-101710000D02*
G75*
G02*
X242530000Y-101710000I30000J0D01*
G01*
%TO.C,D5*%
X249730000Y-142820000D02*
X249840000Y-142820000D01*
X249730000Y-142990000D02*
X249730000Y-142820000D01*
X249730000Y-142990000D02*
X249730000Y-145810000D01*
X249730000Y-145810000D02*
X249900000Y-145810000D01*
X249840000Y-142820000D02*
X249840000Y-142990000D01*
X249840000Y-142990000D02*
X249730000Y-142990000D01*
X251360000Y-142820000D02*
X251360000Y-142990000D01*
X251360000Y-142820000D02*
X251470000Y-142820000D01*
X251470000Y-142820000D02*
X251470000Y-142990000D01*
X251470000Y-142990000D02*
X251360000Y-142990000D01*
X251470000Y-142990000D02*
X251470000Y-145810000D01*
X251470000Y-143430000D02*
X249730000Y-143430000D01*
X251470000Y-143570000D02*
X249730000Y-143570000D01*
X251470000Y-145810000D02*
X251300000Y-145810000D01*
X249730000Y-142550000D02*
G75*
G02*
X249670000Y-142550000I-30000J0D01*
G01*
X249670000Y-142550000D02*
G75*
G02*
X249730000Y-142550000I30000J0D01*
G01*
%TO.C,C8*%
X219520000Y-113400000D02*
X219520000Y-111770000D01*
X219520000Y-114960000D02*
X219520000Y-116590000D01*
X219670000Y-111620000D02*
X222530000Y-111620000D01*
X219670000Y-116740000D02*
X222530000Y-116740000D01*
X222680000Y-111770000D02*
X222680000Y-113400000D01*
X222680000Y-116590000D02*
X222680000Y-114960000D01*
X219520000Y-111770000D02*
G75*
G02*
X219670000Y-111620000I150000J0D01*
G01*
X219670000Y-116740000D02*
G75*
G02*
X219520000Y-116590000I0J150000D01*
G01*
X222530000Y-111620000D02*
G75*
G02*
X222680000Y-111770000I0J-150000D01*
G01*
X222680000Y-116590000D02*
G75*
G02*
X222530000Y-116740000I-150000J0D01*
G01*
X219880000Y-112580000D02*
G75*
G02*
X219820000Y-112580000I-30000J0D01*
G01*
X219820000Y-112580000D02*
G75*
G02*
X219880000Y-112580000I30000J0D01*
G01*
%TO.C,R4*%
X218740000Y-125260000D02*
X220060000Y-125260000D01*
X218740000Y-126220000D02*
X218740000Y-125260000D01*
X218740000Y-127080000D02*
X218740000Y-128040000D01*
X218740000Y-128040000D02*
X220060000Y-128040000D01*
X220060000Y-125260000D02*
X220060000Y-126220000D01*
X220060000Y-128040000D02*
X220060000Y-127080000D01*
D11*
X219030000Y-125850000D02*
G75*
G02*
X218970000Y-125850000I-30000J0D01*
G01*
X218970000Y-125850000D02*
G75*
G02*
X219030000Y-125850000I30000J0D01*
G01*
D10*
%TO.C,R42*%
X241740000Y-71510000D02*
X243060000Y-71510000D01*
X241740000Y-72470000D02*
X241740000Y-71510000D01*
X241740000Y-73330000D02*
X241740000Y-74290000D01*
X241740000Y-74290000D02*
X243060000Y-74290000D01*
X243060000Y-71510000D02*
X243060000Y-72470000D01*
X243060000Y-74290000D02*
X243060000Y-73330000D01*
D11*
X242030000Y-72100000D02*
G75*
G02*
X241970000Y-72100000I-30000J0D01*
G01*
X241970000Y-72100000D02*
G75*
G02*
X242030000Y-72100000I30000J0D01*
G01*
D10*
%TO.C,R28*%
X202640000Y-71510000D02*
X203960000Y-71510000D01*
X202640000Y-72470000D02*
X202640000Y-71510000D01*
X202640000Y-73330000D02*
X202640000Y-74290000D01*
X202640000Y-74290000D02*
X203960000Y-74290000D01*
X203960000Y-71510000D02*
X203960000Y-72470000D01*
X203960000Y-74290000D02*
X203960000Y-73330000D01*
D11*
X202930000Y-72100000D02*
G75*
G02*
X202870000Y-72100000I-30000J0D01*
G01*
X202870000Y-72100000D02*
G75*
G02*
X202930000Y-72100000I30000J0D01*
G01*
D10*
%TO.C,R19*%
X225640000Y-122710000D02*
X225640000Y-123670000D01*
X225640000Y-125490000D02*
X225640000Y-124530000D01*
X226960000Y-122710000D02*
X225640000Y-122710000D01*
X226960000Y-123670000D02*
X226960000Y-122710000D01*
X226960000Y-124530000D02*
X226960000Y-125490000D01*
X226960000Y-125490000D02*
X225640000Y-125490000D01*
D11*
X226730000Y-124900000D02*
G75*
G02*
X226670000Y-124900000I-30000J0D01*
G01*
X226670000Y-124900000D02*
G75*
G02*
X226730000Y-124900000I30000J0D01*
G01*
D10*
%TO.C,R37*%
X244110000Y-132640000D02*
X244110000Y-133960000D01*
X244110000Y-133960000D02*
X245070000Y-133960000D01*
X245070000Y-132640000D02*
X244110000Y-132640000D01*
X245930000Y-132640000D02*
X246890000Y-132640000D01*
X246890000Y-132640000D02*
X246890000Y-133960000D01*
X246890000Y-133960000D02*
X245930000Y-133960000D01*
D11*
X246330000Y-132900000D02*
G75*
G02*
X246270000Y-132900000I-30000J0D01*
G01*
X246270000Y-132900000D02*
G75*
G02*
X246330000Y-132900000I30000J0D01*
G01*
D10*
%TO.C,U2*%
X201250000Y-117350000D02*
X204050000Y-117350000D01*
X201250000Y-124150000D02*
X201250000Y-117350000D01*
X204050000Y-117350000D02*
X204050000Y-124150000D01*
X204050000Y-124150000D02*
X201250000Y-124150000D01*
X206180000Y-124000000D02*
G75*
G02*
X206120000Y-124000000I-30000J0D01*
G01*
X206120000Y-124000000D02*
G75*
G02*
X206180000Y-124000000I30000J0D01*
G01*
%TO.C,C16*%
X241790000Y-129320000D02*
X241790000Y-128520000D01*
X241790000Y-129880000D02*
X241790000Y-130680000D01*
X242100000Y-128210000D02*
X242900000Y-128210000D01*
X242900000Y-130990000D02*
X242100000Y-130990000D01*
X243210000Y-129320000D02*
X243210000Y-128520000D01*
X243210000Y-129880000D02*
X243210000Y-130680000D01*
X241790000Y-128520000D02*
G75*
G02*
X242100000Y-128210000I310000J0D01*
G01*
X242100000Y-130990000D02*
G75*
G02*
X241790000Y-130680000I0J310000D01*
G01*
X242900000Y-128210000D02*
G75*
G02*
X243210000Y-128520000I0J-310000D01*
G01*
X243210000Y-130680000D02*
G75*
G02*
X242900000Y-130990000I-310000J0D01*
G01*
X242930000Y-130400000D02*
G75*
G02*
X242870000Y-130400000I-30000J0D01*
G01*
X242870000Y-130400000D02*
G75*
G02*
X242930000Y-130400000I30000J0D01*
G01*
%TO.C,D4*%
X209840000Y-115630000D02*
X209840000Y-115800000D01*
X209840000Y-117370000D02*
X209840000Y-117200000D01*
X212080000Y-117370000D02*
X212080000Y-115630000D01*
X212220000Y-117370000D02*
X212220000Y-115630000D01*
X212660000Y-115630000D02*
X209840000Y-115630000D01*
X212660000Y-115630000D02*
X212830000Y-115630000D01*
X212660000Y-115740000D02*
X212660000Y-115630000D01*
X212660000Y-117370000D02*
X209840000Y-117370000D01*
X212660000Y-117370000D02*
X212660000Y-117260000D01*
X212830000Y-115630000D02*
X212830000Y-115740000D01*
X212830000Y-115740000D02*
X212660000Y-115740000D01*
X212830000Y-117260000D02*
X212660000Y-117260000D01*
X212830000Y-117260000D02*
X212830000Y-117370000D01*
X212830000Y-117370000D02*
X212660000Y-117370000D01*
X213130000Y-115600000D02*
G75*
G02*
X213070000Y-115600000I-30000J0D01*
G01*
X213070000Y-115600000D02*
G75*
G02*
X213130000Y-115600000I30000J0D01*
G01*
%TO.C,C43*%
X222640000Y-108370000D02*
X222640000Y-111230000D01*
X222790000Y-111380000D02*
X224420000Y-111380000D01*
X224420000Y-108220000D02*
X222790000Y-108220000D01*
X225980000Y-108220000D02*
X227610000Y-108220000D01*
X227610000Y-111380000D02*
X225980000Y-111380000D01*
X227760000Y-108370000D02*
X227760000Y-111230000D01*
X222640000Y-108370000D02*
G75*
G02*
X222790000Y-108220000I150000J0D01*
G01*
X222790000Y-111380000D02*
G75*
G02*
X222640000Y-111230000I0J150000D01*
G01*
X227610000Y-108220000D02*
G75*
G02*
X227760000Y-108370000I0J-150000D01*
G01*
X227760000Y-111230000D02*
G75*
G02*
X227610000Y-111380000I-150000J0D01*
G01*
X226830000Y-108550000D02*
G75*
G02*
X226770000Y-108550000I-30000J0D01*
G01*
X226770000Y-108550000D02*
G75*
G02*
X226830000Y-108550000I30000J0D01*
G01*
%TO.C,R1*%
X256510000Y-77540000D02*
X257470000Y-77540000D01*
X256510000Y-78860000D02*
X256510000Y-77540000D01*
X257470000Y-78860000D02*
X256510000Y-78860000D01*
X258330000Y-78860000D02*
X259290000Y-78860000D01*
X259290000Y-77540000D02*
X258330000Y-77540000D01*
X259290000Y-78860000D02*
X259290000Y-77540000D01*
D11*
X257130000Y-78600000D02*
G75*
G02*
X257070000Y-78600000I-30000J0D01*
G01*
X257070000Y-78600000D02*
G75*
G02*
X257130000Y-78600000I30000J0D01*
G01*
D10*
%TO.C,C11*%
X240110000Y-137900000D02*
X240110000Y-137100000D01*
X241220000Y-136790000D02*
X240420000Y-136790000D01*
X241220000Y-138210000D02*
X240420000Y-138210000D01*
X241780000Y-136790000D02*
X242580000Y-136790000D01*
X241780000Y-138210000D02*
X242580000Y-138210000D01*
X242890000Y-137100000D02*
X242890000Y-137900000D01*
X240110000Y-137100000D02*
G75*
G02*
X240420000Y-136790000I310000J0D01*
G01*
X240420000Y-138210000D02*
G75*
G02*
X240110000Y-137900000I0J310000D01*
G01*
X242580000Y-136790000D02*
G75*
G02*
X242890000Y-137100000I0J-310000D01*
G01*
X242890000Y-137900000D02*
G75*
G02*
X242580000Y-138210000I-310000J0D01*
G01*
X242330000Y-137100000D02*
G75*
G02*
X242270000Y-137100000I-30000J0D01*
G01*
X242270000Y-137100000D02*
G75*
G02*
X242330000Y-137100000I30000J0D01*
G01*
%TO.C,C27*%
X227810000Y-110600000D02*
X227810000Y-109800000D01*
X228920000Y-109490000D02*
X228120000Y-109490000D01*
X228920000Y-110910000D02*
X228120000Y-110910000D01*
X229480000Y-109490000D02*
X230280000Y-109490000D01*
X229480000Y-110910000D02*
X230280000Y-110910000D01*
X230590000Y-109800000D02*
X230590000Y-110600000D01*
X227810000Y-109800000D02*
G75*
G02*
X228120000Y-109490000I310000J0D01*
G01*
X228120000Y-110910000D02*
G75*
G02*
X227810000Y-110600000I0J310000D01*
G01*
X230280000Y-109490000D02*
G75*
G02*
X230590000Y-109800000I0J-310000D01*
G01*
X230590000Y-110600000D02*
G75*
G02*
X230280000Y-110910000I-310000J0D01*
G01*
X230030000Y-109800000D02*
G75*
G02*
X229970000Y-109800000I-30000J0D01*
G01*
X229970000Y-109800000D02*
G75*
G02*
X230030000Y-109800000I30000J0D01*
G01*
%TO.C,C12*%
X230390000Y-123620000D02*
X230390000Y-122820000D01*
X230390000Y-124180000D02*
X230390000Y-124980000D01*
X230700000Y-122510000D02*
X231500000Y-122510000D01*
X231500000Y-125290000D02*
X230700000Y-125290000D01*
X231810000Y-123620000D02*
X231810000Y-122820000D01*
X231810000Y-124180000D02*
X231810000Y-124980000D01*
X230390000Y-122820000D02*
G75*
G02*
X230700000Y-122510000I310000J0D01*
G01*
X230700000Y-125290000D02*
G75*
G02*
X230390000Y-124980000I0J310000D01*
G01*
X231500000Y-122510000D02*
G75*
G02*
X231810000Y-122820000I0J-310000D01*
G01*
X231810000Y-124980000D02*
G75*
G02*
X231500000Y-125290000I-310000J0D01*
G01*
X231530000Y-124700000D02*
G75*
G02*
X231470000Y-124700000I-30000J0D01*
G01*
X231470000Y-124700000D02*
G75*
G02*
X231530000Y-124700000I30000J0D01*
G01*
%TO.C,D7*%
X207310000Y-127950000D02*
X207610000Y-127650000D01*
X207310000Y-128050000D02*
X207310000Y-127950000D01*
X207310000Y-128050000D02*
X207310000Y-128750000D01*
X207310000Y-128750000D02*
X207310000Y-128850000D01*
X207310000Y-128850000D02*
X207610000Y-129150000D01*
X208660000Y-127650000D02*
X207610000Y-127650000D01*
X208660000Y-129150000D02*
X207610000Y-129150000D01*
D15*
X208800000Y-128380000D02*
X208620000Y-128380000D01*
X208800000Y-128780000D02*
X208800000Y-127990000D01*
D10*
X209040000Y-127640000D02*
X210190000Y-127640000D01*
X209040000Y-129140000D02*
X210190000Y-129140000D01*
X210190000Y-127640000D02*
X210190000Y-129120000D01*
D11*
X209630000Y-128000000D02*
G75*
G02*
X209570000Y-128000000I-30000J0D01*
G01*
X209570000Y-128000000D02*
G75*
G02*
X209630000Y-128000000I30000J0D01*
G01*
D10*
%TO.C,R25*%
X228010000Y-106640000D02*
X228970000Y-106640000D01*
X228010000Y-107960000D02*
X228010000Y-106640000D01*
X228970000Y-107960000D02*
X228010000Y-107960000D01*
X229830000Y-107960000D02*
X230790000Y-107960000D01*
X230790000Y-106640000D02*
X229830000Y-106640000D01*
X230790000Y-107960000D02*
X230790000Y-106640000D01*
D11*
X228630000Y-107700000D02*
G75*
G02*
X228570000Y-107700000I-30000J0D01*
G01*
X228570000Y-107700000D02*
G75*
G02*
X228630000Y-107700000I30000J0D01*
G01*
D10*
%TO.C,R9*%
X217740000Y-146710000D02*
X217740000Y-147670000D01*
X217740000Y-149490000D02*
X217740000Y-148530000D01*
X219060000Y-146710000D02*
X217740000Y-146710000D01*
X219060000Y-147670000D02*
X219060000Y-146710000D01*
X219060000Y-148530000D02*
X219060000Y-149490000D01*
X219060000Y-149490000D02*
X217740000Y-149490000D01*
D11*
X218830000Y-148900000D02*
G75*
G02*
X218770000Y-148900000I-30000J0D01*
G01*
X218770000Y-148900000D02*
G75*
G02*
X218830000Y-148900000I30000J0D01*
G01*
D10*
%TO.C,C19*%
X227190000Y-123820000D02*
X227190000Y-123020000D01*
X227190000Y-124380000D02*
X227190000Y-125180000D01*
X227500000Y-122710000D02*
X228300000Y-122710000D01*
X228300000Y-125490000D02*
X227500000Y-125490000D01*
X228610000Y-123820000D02*
X228610000Y-123020000D01*
X228610000Y-124380000D02*
X228610000Y-125180000D01*
X227190000Y-123020000D02*
G75*
G02*
X227500000Y-122710000I310000J0D01*
G01*
X227500000Y-125490000D02*
G75*
G02*
X227190000Y-125180000I0J310000D01*
G01*
X228300000Y-122710000D02*
G75*
G02*
X228610000Y-123020000I0J-310000D01*
G01*
X228610000Y-125180000D02*
G75*
G02*
X228300000Y-125490000I-310000J0D01*
G01*
X228330000Y-124900000D02*
G75*
G02*
X228270000Y-124900000I-30000J0D01*
G01*
X228270000Y-124900000D02*
G75*
G02*
X228330000Y-124900000I30000J0D01*
G01*
%TO.C,R14*%
X210510000Y-127700000D02*
X211470000Y-127700000D01*
X210510000Y-129020000D02*
X210510000Y-127700000D01*
X211470000Y-129020000D02*
X210510000Y-129020000D01*
X212330000Y-129020000D02*
X213290000Y-129020000D01*
X213290000Y-127700000D02*
X212330000Y-127700000D01*
X213290000Y-129020000D02*
X213290000Y-127700000D01*
D11*
X211130000Y-128760000D02*
G75*
G02*
X211070000Y-128760000I-30000J0D01*
G01*
X211070000Y-128760000D02*
G75*
G02*
X211130000Y-128760000I30000J0D01*
G01*
D10*
%TO.C,C40*%
X240620000Y-53390000D02*
X240620000Y-55020000D01*
X240620000Y-58210000D02*
X240620000Y-56580000D01*
X243630000Y-53240000D02*
X240770000Y-53240000D01*
X243630000Y-58360000D02*
X240770000Y-58360000D01*
X243780000Y-55020000D02*
X243780000Y-53390000D01*
X243780000Y-56580000D02*
X243780000Y-58210000D01*
X240620000Y-53390000D02*
G75*
G02*
X240770000Y-53240000I150000J0D01*
G01*
X240770000Y-58360000D02*
G75*
G02*
X240620000Y-58210000I0J150000D01*
G01*
X243630000Y-53240000D02*
G75*
G02*
X243780000Y-53390000I0J-150000D01*
G01*
X243780000Y-58210000D02*
G75*
G02*
X243630000Y-58360000I-150000J0D01*
G01*
X243480000Y-57400000D02*
G75*
G02*
X243420000Y-57400000I-30000J0D01*
G01*
X243420000Y-57400000D02*
G75*
G02*
X243480000Y-57400000I30000J0D01*
G01*
%TO.C,R7*%
X212940000Y-146710000D02*
X212940000Y-147670000D01*
X212940000Y-149490000D02*
X212940000Y-148530000D01*
X214260000Y-146710000D02*
X212940000Y-146710000D01*
X214260000Y-147670000D02*
X214260000Y-146710000D01*
X214260000Y-148530000D02*
X214260000Y-149490000D01*
X214260000Y-149490000D02*
X212940000Y-149490000D01*
D11*
X214030000Y-148900000D02*
G75*
G02*
X213970000Y-148900000I-30000J0D01*
G01*
X213970000Y-148900000D02*
G75*
G02*
X214030000Y-148900000I30000J0D01*
G01*
D10*
%TO.C,C44*%
X222920000Y-111770000D02*
X222920000Y-113400000D01*
X222920000Y-116590000D02*
X222920000Y-114960000D01*
X225930000Y-111620000D02*
X223070000Y-111620000D01*
X225930000Y-116740000D02*
X223070000Y-116740000D01*
X226080000Y-113400000D02*
X226080000Y-111770000D01*
X226080000Y-114960000D02*
X226080000Y-116590000D01*
X222920000Y-111770000D02*
G75*
G02*
X223070000Y-111620000I150000J0D01*
G01*
X223070000Y-116740000D02*
G75*
G02*
X222920000Y-116590000I0J150000D01*
G01*
X225930000Y-111620000D02*
G75*
G02*
X226080000Y-111770000I0J-150000D01*
G01*
X226080000Y-116590000D02*
G75*
G02*
X225930000Y-116740000I-150000J0D01*
G01*
X225780000Y-115780000D02*
G75*
G02*
X225720000Y-115780000I-30000J0D01*
G01*
X225720000Y-115780000D02*
G75*
G02*
X225780000Y-115780000I30000J0D01*
G01*
%TO.C,C22*%
X232410000Y-123500000D02*
X232410000Y-122700000D01*
X233520000Y-122390000D02*
X232720000Y-122390000D01*
X233520000Y-123810000D02*
X232720000Y-123810000D01*
X234080000Y-122390000D02*
X234880000Y-122390000D01*
X234080000Y-123810000D02*
X234880000Y-123810000D01*
X235190000Y-122700000D02*
X235190000Y-123500000D01*
X232410000Y-122700000D02*
G75*
G02*
X232720000Y-122390000I310000J0D01*
G01*
X232720000Y-123810000D02*
G75*
G02*
X232410000Y-123500000I0J310000D01*
G01*
X234880000Y-122390000D02*
G75*
G02*
X235190000Y-122700000I0J-310000D01*
G01*
X235190000Y-123500000D02*
G75*
G02*
X234880000Y-123810000I-310000J0D01*
G01*
X233030000Y-123500000D02*
G75*
G02*
X232970000Y-123500000I-30000J0D01*
G01*
X232970000Y-123500000D02*
G75*
G02*
X233030000Y-123500000I30000J0D01*
G01*
%TO.C,C6*%
X217590000Y-143820000D02*
X217590000Y-143020000D01*
X217590000Y-144380000D02*
X217590000Y-145180000D01*
X217900000Y-142710000D02*
X218700000Y-142710000D01*
X218700000Y-145490000D02*
X217900000Y-145490000D01*
X219010000Y-143820000D02*
X219010000Y-143020000D01*
X219010000Y-144380000D02*
X219010000Y-145180000D01*
X217590000Y-143020000D02*
G75*
G02*
X217900000Y-142710000I310000J0D01*
G01*
X217900000Y-145490000D02*
G75*
G02*
X217590000Y-145180000I0J310000D01*
G01*
X218700000Y-142710000D02*
G75*
G02*
X219010000Y-143020000I0J-310000D01*
G01*
X219010000Y-145180000D02*
G75*
G02*
X218700000Y-145490000I-310000J0D01*
G01*
X218730000Y-144900000D02*
G75*
G02*
X218670000Y-144900000I-30000J0D01*
G01*
X218670000Y-144900000D02*
G75*
G02*
X218730000Y-144900000I30000J0D01*
G01*
%TO.C,R401*%
X214140000Y-135710000D02*
X214140000Y-136670000D01*
X214140000Y-138490000D02*
X214140000Y-137530000D01*
X215460000Y-135710000D02*
X214140000Y-135710000D01*
X215460000Y-136670000D02*
X215460000Y-135710000D01*
X215460000Y-137530000D02*
X215460000Y-138490000D01*
X215460000Y-138490000D02*
X214140000Y-138490000D01*
D11*
X215230000Y-137900000D02*
G75*
G02*
X215170000Y-137900000I-30000J0D01*
G01*
X215170000Y-137900000D02*
G75*
G02*
X215230000Y-137900000I30000J0D01*
G01*
D10*
%TO.C,C33*%
X207070000Y-120320000D02*
X210030000Y-120320000D01*
X207070000Y-122780000D02*
X207070000Y-119120000D01*
X207070000Y-122780000D02*
X207160000Y-122780000D01*
X210030000Y-122780000D02*
X209940000Y-122780000D01*
X210030000Y-122780000D02*
X210030000Y-119120000D01*
X207180000Y-119200000D02*
G75*
G02*
X207120000Y-119200000I-30000J0D01*
G01*
X207120000Y-119200000D02*
G75*
G02*
X207180000Y-119200000I30000J0D01*
G01*
X207209591Y-119199991D02*
X206997603Y-119199991D01*
X206997603Y-118742791D01*
X207209591Y-118742791D01*
X207209591Y-119199991D01*
G36*
X207209591Y-119199991D02*
G01*
X206997603Y-119199991D01*
X206997603Y-118742791D01*
X207209591Y-118742791D01*
X207209591Y-119199991D01*
G37*
X210102397Y-119199991D02*
X209890409Y-119199991D01*
X209890409Y-118742791D01*
X210102397Y-118742791D01*
X210102397Y-119199991D01*
G36*
X210102397Y-119199991D02*
G01*
X209890409Y-119199991D01*
X209890409Y-118742791D01*
X210102397Y-118742791D01*
X210102397Y-119199991D01*
G37*
%TO.C,C51*%
X217470000Y-52540000D02*
X217470000Y-54550000D01*
X217470000Y-59860000D02*
X217470000Y-57850000D01*
X223180000Y-52390000D02*
X217620000Y-52390000D01*
X223180000Y-60010000D02*
X217620000Y-60010000D01*
X223330000Y-54550000D02*
X223330000Y-52540000D01*
X223330000Y-57850000D02*
X223330000Y-59860000D01*
X217470000Y-52540000D02*
G75*
G02*
X217620000Y-52390000I150000J0D01*
G01*
X217620000Y-60010000D02*
G75*
G02*
X217470000Y-59860000I0J150000D01*
G01*
X223180000Y-52390000D02*
G75*
G02*
X223330000Y-52540000I0J-150000D01*
G01*
X223330000Y-59860000D02*
G75*
G02*
X223180000Y-60010000I-150000J0D01*
G01*
X222930000Y-59050000D02*
G75*
G02*
X222870000Y-59050000I-30000J0D01*
G01*
X222870000Y-59050000D02*
G75*
G02*
X222930000Y-59050000I30000J0D01*
G01*
%TO.C,P9*%
D14*
X254348151Y-70362409D02*
X244829720Y-70362409D01*
X244829720Y-77824593D01*
X254348151Y-77824593D01*
X254348151Y-70362409D01*
D10*
%TO.C,Q4*%
X224800000Y-78207500D02*
X224800000Y-90737500D01*
X224800000Y-78207500D02*
X235530000Y-78207500D01*
X224800000Y-90737500D02*
X225270000Y-90737500D01*
X234930000Y-90737500D02*
X235530000Y-90737500D01*
X235530000Y-78207500D02*
X235530000Y-90737500D01*
X225100000Y-92107500D02*
G75*
G02*
X224700000Y-92107500I-200000J0D01*
G01*
X224700000Y-92107500D02*
G75*
G02*
X225100000Y-92107500I200000J0D01*
G01*
X225180000Y-90827500D02*
G75*
G02*
X225120000Y-90827500I-30000J0D01*
G01*
X225120000Y-90827500D02*
G75*
G02*
X225180000Y-90827500I30000J0D01*
G01*
%TO.C,Q3*%
X224800000Y-56460000D02*
X224800000Y-68990000D01*
X224800000Y-56460000D02*
X235530000Y-56460000D01*
X224800000Y-68990000D02*
X225270000Y-68990000D01*
X234930000Y-68990000D02*
X235530000Y-68990000D01*
X235530000Y-56460000D02*
X235530000Y-68990000D01*
X225100000Y-70360000D02*
G75*
G02*
X224700000Y-70360000I-200000J0D01*
G01*
X224700000Y-70360000D02*
G75*
G02*
X225100000Y-70360000I200000J0D01*
G01*
X225180000Y-69080000D02*
G75*
G02*
X225120000Y-69080000I-30000J0D01*
G01*
X225120000Y-69080000D02*
G75*
G02*
X225180000Y-69080000I30000J0D01*
G01*
%TO.C,C18*%
X232410000Y-124900000D02*
X232410000Y-124100000D01*
X233520000Y-123790000D02*
X232720000Y-123790000D01*
X233520000Y-125210000D02*
X232720000Y-125210000D01*
X234080000Y-123790000D02*
X234880000Y-123790000D01*
X234080000Y-125210000D02*
X234880000Y-125210000D01*
X235190000Y-124100000D02*
X235190000Y-124900000D01*
X232410000Y-124100000D02*
G75*
G02*
X232720000Y-123790000I310000J0D01*
G01*
X232720000Y-125210000D02*
G75*
G02*
X232410000Y-124900000I0J310000D01*
G01*
X234880000Y-123790000D02*
G75*
G02*
X235190000Y-124100000I0J-310000D01*
G01*
X235190000Y-124900000D02*
G75*
G02*
X234880000Y-125210000I-310000J0D01*
G01*
X233030000Y-124900000D02*
G75*
G02*
X232970000Y-124900000I-30000J0D01*
G01*
X232970000Y-124900000D02*
G75*
G02*
X233030000Y-124900000I30000J0D01*
G01*
%TO.C,C9*%
X235920000Y-53390000D02*
X235920000Y-55020000D01*
X235920000Y-58210000D02*
X235920000Y-56580000D01*
X238930000Y-53240000D02*
X236070000Y-53240000D01*
X238930000Y-58360000D02*
X236070000Y-58360000D01*
X239080000Y-55020000D02*
X239080000Y-53390000D01*
X239080000Y-56580000D02*
X239080000Y-58210000D01*
X235920000Y-53390000D02*
G75*
G02*
X236070000Y-53240000I150000J0D01*
G01*
X236070000Y-58360000D02*
G75*
G02*
X235920000Y-58210000I0J150000D01*
G01*
X238930000Y-53240000D02*
G75*
G02*
X239080000Y-53390000I0J-150000D01*
G01*
X239080000Y-58210000D02*
G75*
G02*
X238930000Y-58360000I-150000J0D01*
G01*
X238780000Y-57400000D02*
G75*
G02*
X238720000Y-57400000I-30000J0D01*
G01*
X238720000Y-57400000D02*
G75*
G02*
X238780000Y-57400000I30000J0D01*
G01*
%TO.C,R2*%
X240110000Y-140340000D02*
X241070000Y-140340000D01*
X240110000Y-141660000D02*
X240110000Y-140340000D01*
X241070000Y-141660000D02*
X240110000Y-141660000D01*
X241930000Y-141660000D02*
X242890000Y-141660000D01*
X242890000Y-140340000D02*
X241930000Y-140340000D01*
X242890000Y-141660000D02*
X242890000Y-140340000D01*
D11*
X240730000Y-141400000D02*
G75*
G02*
X240670000Y-141400000I-30000J0D01*
G01*
X240670000Y-141400000D02*
G75*
G02*
X240730000Y-141400000I30000J0D01*
G01*
D10*
%TO.C,R51*%
X239973333Y-103710000D02*
X241293333Y-103710000D01*
X239973333Y-104670000D02*
X239973333Y-103710000D01*
X239973333Y-105530000D02*
X239973333Y-106490000D01*
X239973333Y-106490000D02*
X241293333Y-106490000D01*
X241293333Y-103710000D02*
X241293333Y-104670000D01*
X241293333Y-106490000D02*
X241293333Y-105530000D01*
D11*
X240263333Y-104300000D02*
G75*
G02*
X240203333Y-104300000I-30000J0D01*
G01*
X240203333Y-104300000D02*
G75*
G02*
X240263333Y-104300000I30000J0D01*
G01*
D10*
%TO.C,R13*%
X216140000Y-146710000D02*
X216140000Y-147670000D01*
X216140000Y-149490000D02*
X216140000Y-148530000D01*
X217460000Y-146710000D02*
X216140000Y-146710000D01*
X217460000Y-147670000D02*
X217460000Y-146710000D01*
X217460000Y-148530000D02*
X217460000Y-149490000D01*
X217460000Y-149490000D02*
X216140000Y-149490000D01*
D11*
X217230000Y-148900000D02*
G75*
G02*
X217170000Y-148900000I-30000J0D01*
G01*
X217170000Y-148900000D02*
G75*
G02*
X217230000Y-148900000I30000J0D01*
G01*
D10*
%TO.C,L1*%
X210770000Y-117570000D02*
X210770000Y-117740000D01*
X210770000Y-123930000D02*
X210770000Y-123760000D01*
X217130000Y-117570000D02*
X210770000Y-117570000D01*
X217130000Y-117740000D02*
X217130000Y-117570000D01*
X217130000Y-123760000D02*
X217130000Y-123930000D01*
X217130000Y-123930000D02*
X210770000Y-123930000D01*
X216980000Y-117750000D02*
G75*
G02*
X216920000Y-117750000I-30000J0D01*
G01*
X216920000Y-117750000D02*
G75*
G02*
X216980000Y-117750000I30000J0D01*
G01*
%TO.C,C13*%
X223310000Y-131450000D02*
X223310000Y-130650000D01*
X224420000Y-130340000D02*
X223620000Y-130340000D01*
X224420000Y-131760000D02*
X223620000Y-131760000D01*
X224980000Y-130340000D02*
X225780000Y-130340000D01*
X224980000Y-131760000D02*
X225780000Y-131760000D01*
X226090000Y-130650000D02*
X226090000Y-131450000D01*
X223310000Y-130650000D02*
G75*
G02*
X223620000Y-130340000I310000J0D01*
G01*
X223620000Y-131760000D02*
G75*
G02*
X223310000Y-131450000I0J310000D01*
G01*
X225780000Y-130340000D02*
G75*
G02*
X226090000Y-130650000I0J-310000D01*
G01*
X226090000Y-131450000D02*
G75*
G02*
X225780000Y-131760000I-310000J0D01*
G01*
X223930000Y-131450000D02*
G75*
G02*
X223870000Y-131450000I-30000J0D01*
G01*
X223870000Y-131450000D02*
G75*
G02*
X223930000Y-131450000I30000J0D01*
G01*
%TO.C,C401*%
X223790000Y-137320000D02*
X223790000Y-136520000D01*
X223790000Y-137880000D02*
X223790000Y-138680000D01*
X224100000Y-136210000D02*
X224900000Y-136210000D01*
X224900000Y-138990000D02*
X224100000Y-138990000D01*
X225210000Y-137320000D02*
X225210000Y-136520000D01*
X225210000Y-137880000D02*
X225210000Y-138680000D01*
X223790000Y-136520000D02*
G75*
G02*
X224100000Y-136210000I310000J0D01*
G01*
X224100000Y-138990000D02*
G75*
G02*
X223790000Y-138680000I0J310000D01*
G01*
X224900000Y-136210000D02*
G75*
G02*
X225210000Y-136520000I0J-310000D01*
G01*
X225210000Y-138680000D02*
G75*
G02*
X224900000Y-138990000I-310000J0D01*
G01*
X224130000Y-136800000D02*
G75*
G02*
X224070000Y-136800000I-30000J0D01*
G01*
X224070000Y-136800000D02*
G75*
G02*
X224130000Y-136800000I30000J0D01*
G01*
%TO.C,R21*%
X225240000Y-119510000D02*
X225240000Y-120470000D01*
X225240000Y-122290000D02*
X225240000Y-121330000D01*
X226560000Y-119510000D02*
X225240000Y-119510000D01*
X226560000Y-120470000D02*
X226560000Y-119510000D01*
X226560000Y-121330000D02*
X226560000Y-122290000D01*
X226560000Y-122290000D02*
X225240000Y-122290000D01*
D11*
X226330000Y-121700000D02*
G75*
G02*
X226270000Y-121700000I-30000J0D01*
G01*
X226270000Y-121700000D02*
G75*
G02*
X226330000Y-121700000I30000J0D01*
G01*
D10*
%TO.C,C17*%
X228810000Y-126600000D02*
X228810000Y-125800000D01*
X229920000Y-125490000D02*
X229120000Y-125490000D01*
X229920000Y-126910000D02*
X229120000Y-126910000D01*
X230480000Y-125490000D02*
X231280000Y-125490000D01*
X230480000Y-126910000D02*
X231280000Y-126910000D01*
X231590000Y-125800000D02*
X231590000Y-126600000D01*
X228810000Y-125800000D02*
G75*
G02*
X229120000Y-125490000I310000J0D01*
G01*
X229120000Y-126910000D02*
G75*
G02*
X228810000Y-126600000I0J310000D01*
G01*
X231280000Y-125490000D02*
G75*
G02*
X231590000Y-125800000I0J-310000D01*
G01*
X231590000Y-126600000D02*
G75*
G02*
X231280000Y-126910000I-310000J0D01*
G01*
X231030000Y-125800000D02*
G75*
G02*
X230970000Y-125800000I-30000J0D01*
G01*
X230970000Y-125800000D02*
G75*
G02*
X231030000Y-125800000I30000J0D01*
G01*
%TO.C,U1*%
X228296200Y-130304200D02*
X228804200Y-129796200D01*
X228296200Y-139295800D02*
X228296200Y-130304200D01*
X228804200Y-129796200D02*
X237795800Y-129796200D01*
X228804200Y-139803800D02*
X228296200Y-139295800D01*
X237795800Y-129796200D02*
X238303800Y-130304200D01*
X237795800Y-139803800D02*
X228804200Y-139803800D01*
X238303800Y-139295800D02*
X237795800Y-139803800D01*
X238303800Y-139295800D02*
X238303800Y-130304200D01*
X229693200Y-138787800D02*
G75*
G02*
X228931200Y-138787800I-381000J0D01*
G01*
X228931200Y-138787800D02*
G75*
G02*
X229693200Y-138787800I381000J0D01*
G01*
%TO.C,Q5*%
X244190000Y-56437500D02*
X244190000Y-68967500D01*
X244190000Y-56437500D02*
X254920000Y-56437500D01*
X244190000Y-68967500D02*
X244660000Y-68967500D01*
X254320000Y-68967500D02*
X254920000Y-68967500D01*
X254920000Y-56437500D02*
X254920000Y-68967500D01*
X244490000Y-70337500D02*
G75*
G02*
X244090000Y-70337500I-200000J0D01*
G01*
X244090000Y-70337500D02*
G75*
G02*
X244490000Y-70337500I200000J0D01*
G01*
X244570000Y-69057500D02*
G75*
G02*
X244510000Y-69057500I-30000J0D01*
G01*
X244510000Y-69057500D02*
G75*
G02*
X244570000Y-69057500I30000J0D01*
G01*
%TO.C,R34*%
X222340000Y-71510000D02*
X223660000Y-71510000D01*
X222340000Y-72470000D02*
X222340000Y-71510000D01*
X222340000Y-73330000D02*
X222340000Y-74290000D01*
X222340000Y-74290000D02*
X223660000Y-74290000D01*
X223660000Y-71510000D02*
X223660000Y-72470000D01*
X223660000Y-74290000D02*
X223660000Y-73330000D01*
D11*
X222630000Y-72100000D02*
G75*
G02*
X222570000Y-72100000I-30000J0D01*
G01*
X222570000Y-72100000D02*
G75*
G02*
X222630000Y-72100000I30000J0D01*
G01*
D10*
%TO.C,D6*%
X203190000Y-132430000D02*
X203190000Y-132600000D01*
X203190000Y-134170000D02*
X203190000Y-134000000D01*
X205430000Y-134170000D02*
X205430000Y-132430000D01*
X205570000Y-134170000D02*
X205570000Y-132430000D01*
X206010000Y-132430000D02*
X203190000Y-132430000D01*
X206010000Y-132430000D02*
X206180000Y-132430000D01*
X206010000Y-132540000D02*
X206010000Y-132430000D01*
X206010000Y-134170000D02*
X203190000Y-134170000D01*
X206010000Y-134170000D02*
X206010000Y-134060000D01*
X206180000Y-132430000D02*
X206180000Y-132540000D01*
X206180000Y-132540000D02*
X206010000Y-132540000D01*
X206180000Y-134060000D02*
X206010000Y-134060000D01*
X206180000Y-134060000D02*
X206180000Y-134170000D01*
X206180000Y-134170000D02*
X206010000Y-134170000D01*
X206480000Y-132400000D02*
G75*
G02*
X206420000Y-132400000I-30000J0D01*
G01*
X206420000Y-132400000D02*
G75*
G02*
X206480000Y-132400000I30000J0D01*
G01*
%TO.C,C52*%
X237310000Y-125200000D02*
X237310000Y-124400000D01*
X238420000Y-124090000D02*
X237620000Y-124090000D01*
X238420000Y-125510000D02*
X237620000Y-125510000D01*
X238980000Y-124090000D02*
X239780000Y-124090000D01*
X238980000Y-125510000D02*
X239780000Y-125510000D01*
X240090000Y-124400000D02*
X240090000Y-125200000D01*
X237310000Y-124400000D02*
G75*
G02*
X237620000Y-124090000I310000J0D01*
G01*
X237620000Y-125510000D02*
G75*
G02*
X237310000Y-125200000I0J310000D01*
G01*
X239780000Y-124090000D02*
G75*
G02*
X240090000Y-124400000I0J-310000D01*
G01*
X240090000Y-125200000D02*
G75*
G02*
X239780000Y-125510000I-310000J0D01*
G01*
X237930000Y-125200000D02*
G75*
G02*
X237870000Y-125200000I-30000J0D01*
G01*
X237870000Y-125200000D02*
G75*
G02*
X237930000Y-125200000I30000J0D01*
G01*
%TO.C,P7*%
D14*
X234908151Y-70362409D02*
X225389720Y-70362409D01*
X225389720Y-77824593D01*
X234908151Y-77824593D01*
X234908151Y-70362409D01*
D10*
%TO.C,R18*%
X213809270Y-124273896D02*
X214769270Y-124273896D01*
X213809270Y-125593896D02*
X213809270Y-124273896D01*
X214769270Y-125593896D02*
X213809270Y-125593896D01*
X215629270Y-125593896D02*
X216589270Y-125593896D01*
X216589270Y-124273896D02*
X215629270Y-124273896D01*
X216589270Y-125593896D02*
X216589270Y-124273896D01*
D11*
X214429270Y-125333896D02*
G75*
G02*
X214369270Y-125333896I-30000J0D01*
G01*
X214369270Y-125333896D02*
G75*
G02*
X214429270Y-125333896I30000J0D01*
G01*
D10*
%TO.C,C23*%
X240290000Y-123620000D02*
X240290000Y-122820000D01*
X240290000Y-124180000D02*
X240290000Y-124980000D01*
X240600000Y-122510000D02*
X241400000Y-122510000D01*
X241400000Y-125290000D02*
X240600000Y-125290000D01*
X241710000Y-123620000D02*
X241710000Y-122820000D01*
X241710000Y-124180000D02*
X241710000Y-124980000D01*
X240290000Y-122820000D02*
G75*
G02*
X240600000Y-122510000I310000J0D01*
G01*
X240600000Y-125290000D02*
G75*
G02*
X240290000Y-124980000I0J310000D01*
G01*
X241400000Y-122510000D02*
G75*
G02*
X241710000Y-122820000I0J-310000D01*
G01*
X241710000Y-124980000D02*
G75*
G02*
X241400000Y-125290000I-310000J0D01*
G01*
X241430000Y-124700000D02*
G75*
G02*
X241370000Y-124700000I-30000J0D01*
G01*
X241370000Y-124700000D02*
G75*
G02*
X241430000Y-124700000I30000J0D01*
G01*
%TO.C,C34*%
X235601120Y-106749760D02*
X236299620Y-106749760D01*
X235601120Y-108035000D02*
X235601120Y-106765000D01*
X236299620Y-108050240D02*
X235601120Y-108050240D01*
X237300380Y-106749760D02*
X237998880Y-106749760D01*
X237300380Y-108050240D02*
X237998880Y-108050240D01*
X237998880Y-106765000D02*
X237998880Y-108035000D01*
%TO.C,Q1*%
X205390000Y-56437500D02*
X205390000Y-68967500D01*
X205390000Y-56437500D02*
X216120000Y-56437500D01*
X205390000Y-68967500D02*
X205860000Y-68967500D01*
X215520000Y-68967500D02*
X216120000Y-68967500D01*
X216120000Y-56437500D02*
X216120000Y-68967500D01*
X205690000Y-70337500D02*
G75*
G02*
X205290000Y-70337500I-200000J0D01*
G01*
X205290000Y-70337500D02*
G75*
G02*
X205690000Y-70337500I200000J0D01*
G01*
X205770000Y-69057500D02*
G75*
G02*
X205710000Y-69057500I-30000J0D01*
G01*
X205710000Y-69057500D02*
G75*
G02*
X205770000Y-69057500I30000J0D01*
G01*
%TO.C,R3*%
X217140000Y-125260000D02*
X218460000Y-125260000D01*
X217140000Y-126220000D02*
X217140000Y-125260000D01*
X217140000Y-127080000D02*
X217140000Y-128040000D01*
X217140000Y-128040000D02*
X218460000Y-128040000D01*
X218460000Y-125260000D02*
X218460000Y-126220000D01*
X218460000Y-128040000D02*
X218460000Y-127080000D01*
D11*
X217430000Y-125850000D02*
G75*
G02*
X217370000Y-125850000I-30000J0D01*
G01*
X217370000Y-125850000D02*
G75*
G02*
X217430000Y-125850000I30000J0D01*
G01*
D10*
%TO.C,U3*%
X226300120Y-119380240D02*
X226300120Y-113380760D01*
X226300120Y-119380240D02*
X241298820Y-119380240D01*
X241298820Y-113380760D02*
X226300120Y-113380760D01*
X241298820Y-113380760D02*
X241298820Y-119380240D01*
X227222338Y-118737620D02*
G75*
G02*
X226409142Y-118737620I-406598J0D01*
G01*
X226409142Y-118737620D02*
G75*
G02*
X227222338Y-118737620I406598J0D01*
G01*
%TO.C,R33*%
X248540000Y-119610000D02*
X249860000Y-119610000D01*
X248540000Y-120570000D02*
X248540000Y-119610000D01*
X248540000Y-121430000D02*
X248540000Y-122390000D01*
X248540000Y-122390000D02*
X249860000Y-122390000D01*
X249860000Y-119610000D02*
X249860000Y-120570000D01*
X249860000Y-122390000D02*
X249860000Y-121430000D01*
D11*
X248830000Y-120200000D02*
G75*
G02*
X248770000Y-120200000I-30000J0D01*
G01*
X248770000Y-120200000D02*
G75*
G02*
X248830000Y-120200000I30000J0D01*
G01*
D10*
%TO.C,C31*%
X234990000Y-143820000D02*
X234990000Y-143020000D01*
X234990000Y-144380000D02*
X234990000Y-145180000D01*
X235300000Y-142710000D02*
X236100000Y-142710000D01*
X236100000Y-145490000D02*
X235300000Y-145490000D01*
X236410000Y-143820000D02*
X236410000Y-143020000D01*
X236410000Y-144380000D02*
X236410000Y-145180000D01*
X234990000Y-143020000D02*
G75*
G02*
X235300000Y-142710000I310000J0D01*
G01*
X235300000Y-145490000D02*
G75*
G02*
X234990000Y-145180000I0J310000D01*
G01*
X236100000Y-142710000D02*
G75*
G02*
X236410000Y-143020000I0J-310000D01*
G01*
X236410000Y-145180000D02*
G75*
G02*
X236100000Y-145490000I-310000J0D01*
G01*
X236130000Y-144900000D02*
G75*
G02*
X236070000Y-144900000I-30000J0D01*
G01*
X236070000Y-144900000D02*
G75*
G02*
X236130000Y-144900000I30000J0D01*
G01*
%TO.C,C25*%
X201320000Y-127330000D02*
X201320000Y-124370000D01*
X203780000Y-124370000D02*
X200120000Y-124370000D01*
X203780000Y-124370000D02*
X203780000Y-124460000D01*
X203780000Y-127330000D02*
X200120000Y-127330000D01*
X203780000Y-127330000D02*
X203780000Y-127240000D01*
X200230000Y-127250000D02*
G75*
G02*
X200170000Y-127250000I-30000J0D01*
G01*
X200170000Y-127250000D02*
G75*
G02*
X200230000Y-127250000I30000J0D01*
G01*
X200199991Y-124509591D02*
X199742791Y-124509591D01*
X199742791Y-124297603D01*
X200199991Y-124297603D01*
X200199991Y-124509591D01*
G36*
X200199991Y-124509591D02*
G01*
X199742791Y-124509591D01*
X199742791Y-124297603D01*
X200199991Y-124297603D01*
X200199991Y-124509591D01*
G37*
X200199991Y-127402397D02*
X199742791Y-127402397D01*
X199742791Y-127190409D01*
X200199991Y-127190409D01*
X200199991Y-127402397D01*
G36*
X200199991Y-127402397D02*
G01*
X199742791Y-127402397D01*
X199742791Y-127190409D01*
X200199991Y-127190409D01*
X200199991Y-127402397D01*
G37*
%TO.C,C32*%
X232010000Y-142800000D02*
X232010000Y-142000000D01*
X233120000Y-141690000D02*
X232320000Y-141690000D01*
X233120000Y-143110000D02*
X232320000Y-143110000D01*
X233680000Y-141690000D02*
X234480000Y-141690000D01*
X233680000Y-143110000D02*
X234480000Y-143110000D01*
X234790000Y-142000000D02*
X234790000Y-142800000D01*
X232010000Y-142000000D02*
G75*
G02*
X232320000Y-141690000I310000J0D01*
G01*
X232320000Y-143110000D02*
G75*
G02*
X232010000Y-142800000I0J310000D01*
G01*
X234480000Y-141690000D02*
G75*
G02*
X234790000Y-142000000I0J-310000D01*
G01*
X234790000Y-142800000D02*
G75*
G02*
X234480000Y-143110000I-310000J0D01*
G01*
X234230000Y-142000000D02*
G75*
G02*
X234170000Y-142000000I-30000J0D01*
G01*
X234170000Y-142000000D02*
G75*
G02*
X234230000Y-142000000I30000J0D01*
G01*
%TO.C,R26*%
X245110000Y-123855000D02*
X246070000Y-123855000D01*
X245110000Y-125175000D02*
X245110000Y-123855000D01*
X246070000Y-125175000D02*
X245110000Y-125175000D01*
X246930000Y-125175000D02*
X247890000Y-125175000D01*
X247890000Y-123855000D02*
X246930000Y-123855000D01*
X247890000Y-125175000D02*
X247890000Y-123855000D01*
D11*
X245730000Y-124915000D02*
G75*
G02*
X245670000Y-124915000I-30000J0D01*
G01*
X245670000Y-124915000D02*
G75*
G02*
X245730000Y-124915000I30000J0D01*
G01*
D10*
%TO.C,C36*%
X238801120Y-106749760D02*
X239499620Y-106749760D01*
X238801120Y-108035000D02*
X238801120Y-106765000D01*
X239499620Y-108050240D02*
X238801120Y-108050240D01*
X240500380Y-106749760D02*
X241198880Y-106749760D01*
X240500380Y-108050240D02*
X241198880Y-108050240D01*
X241198880Y-106765000D02*
X241198880Y-108035000D01*
D12*
%TO.C,C45*%
X229910000Y-44260000D02*
X229910000Y-45940000D01*
X230750000Y-45150000D02*
X229020000Y-45150000D01*
X221000000Y-38320000D02*
G75*
G02*
X220999975Y-38477084I9000000J-80000D01*
G01*
D11*
X239030000Y-47400000D02*
G75*
G02*
X238970000Y-47400000I-30000J0D01*
G01*
X238970000Y-47400000D02*
G75*
G02*
X239030000Y-47400000I30000J0D01*
G01*
D13*
D10*
%TO.C,C4*%
X211290000Y-147820000D02*
X211290000Y-147020000D01*
X211290000Y-148380000D02*
X211290000Y-149180000D01*
X211600000Y-146710000D02*
X212400000Y-146710000D01*
X212400000Y-149490000D02*
X211600000Y-149490000D01*
X212710000Y-147820000D02*
X212710000Y-147020000D01*
X212710000Y-148380000D02*
X212710000Y-149180000D01*
X211290000Y-147020000D02*
G75*
G02*
X211600000Y-146710000I310000J0D01*
G01*
X211600000Y-149490000D02*
G75*
G02*
X211290000Y-149180000I0J310000D01*
G01*
X212400000Y-146710000D02*
G75*
G02*
X212710000Y-147020000I0J-310000D01*
G01*
X212710000Y-149180000D02*
G75*
G02*
X212400000Y-149490000I-310000J0D01*
G01*
X211630000Y-147300000D02*
G75*
G02*
X211570000Y-147300000I-30000J0D01*
G01*
X211570000Y-147300000D02*
G75*
G02*
X211630000Y-147300000I30000J0D01*
G01*
%TO.C,C41*%
X240110000Y-139600000D02*
X240110000Y-138800000D01*
X241220000Y-138490000D02*
X240420000Y-138490000D01*
X241220000Y-139910000D02*
X240420000Y-139910000D01*
X241780000Y-138490000D02*
X242580000Y-138490000D01*
X241780000Y-139910000D02*
X242580000Y-139910000D01*
X242890000Y-138800000D02*
X242890000Y-139600000D01*
X240110000Y-138800000D02*
G75*
G02*
X240420000Y-138490000I310000J0D01*
G01*
X240420000Y-139910000D02*
G75*
G02*
X240110000Y-139600000I0J310000D01*
G01*
X242580000Y-138490000D02*
G75*
G02*
X242890000Y-138800000I0J-310000D01*
G01*
X242890000Y-139600000D02*
G75*
G02*
X242580000Y-139910000I-310000J0D01*
G01*
X240730000Y-139600000D02*
G75*
G02*
X240670000Y-139600000I-30000J0D01*
G01*
X240670000Y-139600000D02*
G75*
G02*
X240730000Y-139600000I30000J0D01*
G01*
%TO.C,C14*%
X225410000Y-130100000D02*
X225410000Y-129300000D01*
X226520000Y-128990000D02*
X225720000Y-128990000D01*
X226520000Y-130410000D02*
X225720000Y-130410000D01*
X227080000Y-128990000D02*
X227880000Y-128990000D01*
X227080000Y-130410000D02*
X227880000Y-130410000D01*
X228190000Y-129300000D02*
X228190000Y-130100000D01*
X225410000Y-129300000D02*
G75*
G02*
X225720000Y-128990000I310000J0D01*
G01*
X225720000Y-130410000D02*
G75*
G02*
X225410000Y-130100000I0J310000D01*
G01*
X227880000Y-128990000D02*
G75*
G02*
X228190000Y-129300000I0J-310000D01*
G01*
X228190000Y-130100000D02*
G75*
G02*
X227880000Y-130410000I-310000J0D01*
G01*
X226030000Y-130100000D02*
G75*
G02*
X225970000Y-130100000I-30000J0D01*
G01*
X225970000Y-130100000D02*
G75*
G02*
X226030000Y-130100000I30000J0D01*
G01*
%TO.C,R8*%
X214540000Y-146710000D02*
X214540000Y-147670000D01*
X214540000Y-149490000D02*
X214540000Y-148530000D01*
X215860000Y-146710000D02*
X214540000Y-146710000D01*
X215860000Y-147670000D02*
X215860000Y-146710000D01*
X215860000Y-148530000D02*
X215860000Y-149490000D01*
X215860000Y-149490000D02*
X214540000Y-149490000D01*
D11*
X215630000Y-148900000D02*
G75*
G02*
X215570000Y-148900000I-30000J0D01*
G01*
X215570000Y-148900000D02*
G75*
G02*
X215630000Y-148900000I30000J0D01*
G01*
D10*
%TO.C,R54*%
X217680000Y-93910000D02*
X217680000Y-102290000D01*
X217680000Y-102290000D02*
X221620000Y-102290000D01*
X221620000Y-93910000D02*
X217680000Y-93910000D01*
X222380000Y-102290000D02*
X226320000Y-102290000D01*
X226320000Y-93910000D02*
X222380000Y-93910000D01*
X226320000Y-102290000D02*
X226320000Y-93910000D01*
X225330000Y-101810000D02*
G75*
G02*
X225270000Y-101810000I-30000J0D01*
G01*
X225270000Y-101810000D02*
G75*
G02*
X225330000Y-101810000I30000J0D01*
G01*
%TO.C,R17*%
X210809270Y-124273896D02*
X211769270Y-124273896D01*
X210809270Y-125593896D02*
X210809270Y-124273896D01*
X211769270Y-125593896D02*
X210809270Y-125593896D01*
X212629270Y-125593896D02*
X213589270Y-125593896D01*
X213589270Y-124273896D02*
X212629270Y-124273896D01*
X213589270Y-125593896D02*
X213589270Y-124273896D01*
D11*
X211429270Y-125333896D02*
G75*
G02*
X211369270Y-125333896I-30000J0D01*
G01*
X211369270Y-125333896D02*
G75*
G02*
X211429270Y-125333896I30000J0D01*
G01*
D10*
%TO.C,C37*%
X219270000Y-117140000D02*
X219270000Y-119150000D01*
X219270000Y-124460000D02*
X219270000Y-122450000D01*
X224980000Y-116990000D02*
X219420000Y-116990000D01*
X224980000Y-124610000D02*
X219420000Y-124610000D01*
X225130000Y-119150000D02*
X225130000Y-117140000D01*
X225130000Y-122450000D02*
X225130000Y-124460000D01*
X219270000Y-117140000D02*
G75*
G02*
X219420000Y-116990000I150000J0D01*
G01*
X219420000Y-124610000D02*
G75*
G02*
X219270000Y-124460000I0J150000D01*
G01*
X224980000Y-116990000D02*
G75*
G02*
X225130000Y-117140000I0J-150000D01*
G01*
X225130000Y-124460000D02*
G75*
G02*
X224980000Y-124610000I-150000J0D01*
G01*
X224730000Y-123650000D02*
G75*
G02*
X224670000Y-123650000I-30000J0D01*
G01*
X224670000Y-123650000D02*
G75*
G02*
X224730000Y-123650000I30000J0D01*
G01*
%TO.C,D3*%
X204110000Y-129140000D02*
X204110000Y-127660000D01*
X205260000Y-127640000D02*
X204110000Y-127640000D01*
X205260000Y-129140000D02*
X204110000Y-129140000D01*
X205500000Y-128000000D02*
X205500000Y-128790000D01*
X205500000Y-128400000D02*
X205680000Y-128400000D01*
X205640000Y-127630000D02*
X206690000Y-127630000D01*
X205640000Y-129130000D02*
X206690000Y-129130000D01*
X206990000Y-127930000D02*
X206690000Y-127630000D01*
X206990000Y-128030000D02*
X206990000Y-127930000D01*
X206990000Y-128730000D02*
X206990000Y-128030000D01*
X206990000Y-128730000D02*
X206990000Y-128830000D01*
X206990000Y-128830000D02*
X206690000Y-129130000D01*
X204730000Y-128780000D02*
G75*
G02*
X204670000Y-128780000I-30000J0D01*
G01*
X204670000Y-128780000D02*
G75*
G02*
X204730000Y-128780000I30000J0D01*
G01*
%TO.C,R103*%
X216710000Y-129840000D02*
X216710000Y-131160000D01*
X216710000Y-131160000D02*
X217670000Y-131160000D01*
X217670000Y-129840000D02*
X216710000Y-129840000D01*
X218530000Y-129840000D02*
X219490000Y-129840000D01*
X219490000Y-129840000D02*
X219490000Y-131160000D01*
X219490000Y-131160000D02*
X218530000Y-131160000D01*
D11*
X218930000Y-130100000D02*
G75*
G02*
X218870000Y-130100000I-30000J0D01*
G01*
X218870000Y-130100000D02*
G75*
G02*
X218930000Y-130100000I30000J0D01*
G01*
D10*
%TO.C,R48*%
X235440000Y-103710000D02*
X236760000Y-103710000D01*
X235440000Y-104670000D02*
X235440000Y-103710000D01*
X235440000Y-105530000D02*
X235440000Y-106490000D01*
X235440000Y-106490000D02*
X236760000Y-106490000D01*
X236760000Y-103710000D02*
X236760000Y-104670000D01*
X236760000Y-106490000D02*
X236760000Y-105530000D01*
D11*
X235730000Y-104300000D02*
G75*
G02*
X235670000Y-104300000I-30000J0D01*
G01*
X235670000Y-104300000D02*
G75*
G02*
X235730000Y-104300000I30000J0D01*
G01*
D10*
%TO.C,D2*%
X247480000Y-134210000D02*
X248960000Y-134210000D01*
X247480000Y-135360000D02*
X247480000Y-134210000D01*
X247490000Y-135740000D02*
X247490000Y-136790000D01*
X247790000Y-137090000D02*
X247490000Y-136790000D01*
X247890000Y-137090000D02*
X247790000Y-137090000D01*
X247890000Y-137090000D02*
X248590000Y-137090000D01*
X248220000Y-135600000D02*
X248220000Y-135780000D01*
X248590000Y-137090000D02*
X248690000Y-137090000D01*
X248620000Y-135600000D02*
X247830000Y-135600000D01*
X248690000Y-137090000D02*
X248990000Y-136790000D01*
X248980000Y-135360000D02*
X248980000Y-134210000D01*
X248990000Y-135740000D02*
X248990000Y-136790000D01*
X247870000Y-134800000D02*
G75*
G02*
X247810000Y-134800000I-30000J0D01*
G01*
X247810000Y-134800000D02*
G75*
G02*
X247870000Y-134800000I30000J0D01*
G01*
%TO.C,C21*%
X225710000Y-126600000D02*
X225710000Y-125800000D01*
X226820000Y-125490000D02*
X226020000Y-125490000D01*
X226820000Y-126910000D02*
X226020000Y-126910000D01*
X227380000Y-125490000D02*
X228180000Y-125490000D01*
X227380000Y-126910000D02*
X228180000Y-126910000D01*
X228490000Y-125800000D02*
X228490000Y-126600000D01*
X225710000Y-125800000D02*
G75*
G02*
X226020000Y-125490000I310000J0D01*
G01*
X226020000Y-126910000D02*
G75*
G02*
X225710000Y-126600000I0J310000D01*
G01*
X228180000Y-125490000D02*
G75*
G02*
X228490000Y-125800000I0J-310000D01*
G01*
X228490000Y-126600000D02*
G75*
G02*
X228180000Y-126910000I-310000J0D01*
G01*
X227930000Y-125800000D02*
G75*
G02*
X227870000Y-125800000I-30000J0D01*
G01*
X227870000Y-125800000D02*
G75*
G02*
X227930000Y-125800000I30000J0D01*
G01*
%TO.C,C24*%
X198060000Y-128750000D02*
X198060000Y-127950000D01*
X199170000Y-127640000D02*
X198370000Y-127640000D01*
X199170000Y-129060000D02*
X198370000Y-129060000D01*
X199730000Y-127640000D02*
X200530000Y-127640000D01*
X199730000Y-129060000D02*
X200530000Y-129060000D01*
X200840000Y-127950000D02*
X200840000Y-128750000D01*
X198060000Y-127950000D02*
G75*
G02*
X198370000Y-127640000I310000J0D01*
G01*
X198370000Y-129060000D02*
G75*
G02*
X198060000Y-128750000I0J310000D01*
G01*
X200530000Y-127640000D02*
G75*
G02*
X200840000Y-127950000I0J-310000D01*
G01*
X200840000Y-128750000D02*
G75*
G02*
X200530000Y-129060000I-310000J0D01*
G01*
X200280000Y-127950000D02*
G75*
G02*
X200220000Y-127950000I-30000J0D01*
G01*
X200220000Y-127950000D02*
G75*
G02*
X200280000Y-127950000I30000J0D01*
G01*
%TO.C,R11*%
X222540000Y-146710000D02*
X222540000Y-147670000D01*
X222540000Y-149490000D02*
X222540000Y-148530000D01*
X223860000Y-146710000D02*
X222540000Y-146710000D01*
X223860000Y-147670000D02*
X223860000Y-146710000D01*
X223860000Y-148530000D02*
X223860000Y-149490000D01*
X223860000Y-149490000D02*
X222540000Y-149490000D01*
D11*
X223630000Y-148900000D02*
G75*
G02*
X223570000Y-148900000I-30000J0D01*
G01*
X223570000Y-148900000D02*
G75*
G02*
X223630000Y-148900000I30000J0D01*
G01*
D10*
%TO.C,U4*%
X195110000Y-130930000D02*
X195160000Y-130930000D01*
X195110000Y-131100000D02*
X195110000Y-130930000D01*
X195160000Y-130930000D02*
X195580000Y-131290000D01*
X195160000Y-139380000D02*
X195370000Y-139180000D01*
X195160000Y-139680000D02*
X195160000Y-139380000D01*
X195370000Y-131350000D02*
X195110000Y-131100000D01*
X195370000Y-139180000D02*
X195370000Y-131350000D01*
X195580000Y-139290000D02*
X195160000Y-139680000D01*
X197050000Y-131300000D02*
X195580000Y-131300000D01*
X197050000Y-131300000D02*
X197120000Y-131300000D01*
X197050000Y-139300000D02*
X195460000Y-139300000D01*
X197050000Y-139300000D02*
X197120000Y-139300000D01*
X198880000Y-131300000D02*
X199670000Y-131300000D01*
X198880000Y-139300000D02*
X199670000Y-139300000D01*
X201030000Y-131300000D02*
X201080000Y-131300000D01*
X201030000Y-139300000D02*
X201080000Y-139300000D01*
X201080000Y-131300000D02*
X201080000Y-133540000D01*
X201080000Y-137060000D02*
X201080000Y-139300000D01*
X201530000Y-131550000D02*
G75*
G02*
X201470000Y-131550000I-30000J0D01*
G01*
X201470000Y-131550000D02*
G75*
G02*
X201530000Y-131550000I30000J0D01*
G01*
%TO.C,C39*%
X241520000Y-113971000D02*
X241520000Y-115601000D01*
X241520000Y-118791000D02*
X241520000Y-117161000D01*
X244530000Y-113821000D02*
X241670000Y-113821000D01*
X244530000Y-118941000D02*
X241670000Y-118941000D01*
X244680000Y-115601000D02*
X244680000Y-113971000D01*
X244680000Y-117161000D02*
X244680000Y-118791000D01*
X241520000Y-113971000D02*
G75*
G02*
X241670000Y-113821000I150000J0D01*
G01*
X241670000Y-118941000D02*
G75*
G02*
X241520000Y-118791000I0J150000D01*
G01*
X244530000Y-113821000D02*
G75*
G02*
X244680000Y-113971000I0J-150000D01*
G01*
X244680000Y-118791000D02*
G75*
G02*
X244530000Y-118941000I-150000J0D01*
G01*
X244380000Y-117981000D02*
G75*
G02*
X244320000Y-117981000I-30000J0D01*
G01*
X244320000Y-117981000D02*
G75*
G02*
X244380000Y-117981000I30000J0D01*
G01*
%TO.C,P4*%
D14*
X204437591Y-54958151D02*
X196975407Y-54958151D01*
X196975407Y-45439720D01*
X204437591Y-45439720D01*
X204437591Y-54958151D01*
D10*
%TO.C,C30*%
X234710000Y-110000000D02*
X234710000Y-109200000D01*
X235820000Y-108890000D02*
X235020000Y-108890000D01*
X235820000Y-110310000D02*
X235020000Y-110310000D01*
X236380000Y-108890000D02*
X237180000Y-108890000D01*
X236380000Y-110310000D02*
X237180000Y-110310000D01*
X237490000Y-109200000D02*
X237490000Y-110000000D01*
X234710000Y-109200000D02*
G75*
G02*
X235020000Y-108890000I310000J0D01*
G01*
X235020000Y-110310000D02*
G75*
G02*
X234710000Y-110000000I0J310000D01*
G01*
X237180000Y-108890000D02*
G75*
G02*
X237490000Y-109200000I0J-310000D01*
G01*
X237490000Y-110000000D02*
G75*
G02*
X237180000Y-110310000I-310000J0D01*
G01*
X236930000Y-109200000D02*
G75*
G02*
X236870000Y-109200000I-30000J0D01*
G01*
X236870000Y-109200000D02*
G75*
G02*
X236930000Y-109200000I30000J0D01*
G01*
%TO.C,R32*%
X245110000Y-121170000D02*
X246070000Y-121170000D01*
X245110000Y-122490000D02*
X245110000Y-121170000D01*
X246070000Y-122490000D02*
X245110000Y-122490000D01*
X246930000Y-122490000D02*
X247890000Y-122490000D01*
X247890000Y-121170000D02*
X246930000Y-121170000D01*
X247890000Y-122490000D02*
X247890000Y-121170000D01*
D11*
X245730000Y-122230000D02*
G75*
G02*
X245670000Y-122230000I-30000J0D01*
G01*
X245670000Y-122230000D02*
G75*
G02*
X245730000Y-122230000I30000J0D01*
G01*
D10*
%TO.C,X2*%
X228800000Y-145870000D02*
X228800000Y-145130000D01*
X230330000Y-143900000D02*
X232270000Y-143900000D01*
X232270000Y-147100000D02*
X230330000Y-147100000D01*
X233800000Y-145130000D02*
X233800000Y-145870000D01*
%TO.C,R10*%
X220940000Y-146710000D02*
X220940000Y-147670000D01*
X220940000Y-149490000D02*
X220940000Y-148530000D01*
X222260000Y-146710000D02*
X220940000Y-146710000D01*
X222260000Y-147670000D02*
X222260000Y-146710000D01*
X222260000Y-148530000D02*
X222260000Y-149490000D01*
X222260000Y-149490000D02*
X220940000Y-149490000D01*
D11*
X222030000Y-148900000D02*
G75*
G02*
X221970000Y-148900000I-30000J0D01*
G01*
X221970000Y-148900000D02*
G75*
G02*
X222030000Y-148900000I30000J0D01*
G01*
D10*
%TO.C,Q2*%
X205390000Y-78185000D02*
X205390000Y-90715000D01*
X205390000Y-78185000D02*
X216120000Y-78185000D01*
X205390000Y-90715000D02*
X205860000Y-90715000D01*
X215520000Y-90715000D02*
X216120000Y-90715000D01*
X216120000Y-78185000D02*
X216120000Y-90715000D01*
X205690000Y-92085000D02*
G75*
G02*
X205290000Y-92085000I-200000J0D01*
G01*
X205290000Y-92085000D02*
G75*
G02*
X205690000Y-92085000I200000J0D01*
G01*
X205770000Y-90805000D02*
G75*
G02*
X205710000Y-90805000I-30000J0D01*
G01*
X205710000Y-90805000D02*
G75*
G02*
X205770000Y-90805000I30000J0D01*
G01*
%TO.C,C5*%
X220890000Y-143820000D02*
X220890000Y-143020000D01*
X220890000Y-144380000D02*
X220890000Y-145180000D01*
X221200000Y-142710000D02*
X222000000Y-142710000D01*
X222000000Y-145490000D02*
X221200000Y-145490000D01*
X222310000Y-143820000D02*
X222310000Y-143020000D01*
X222310000Y-144380000D02*
X222310000Y-145180000D01*
X220890000Y-143020000D02*
G75*
G02*
X221200000Y-142710000I310000J0D01*
G01*
X221200000Y-145490000D02*
G75*
G02*
X220890000Y-145180000I0J310000D01*
G01*
X222000000Y-142710000D02*
G75*
G02*
X222310000Y-143020000I0J-310000D01*
G01*
X222310000Y-145180000D02*
G75*
G02*
X222000000Y-145490000I-310000J0D01*
G01*
X222030000Y-144900000D02*
G75*
G02*
X221970000Y-144900000I-30000J0D01*
G01*
X221970000Y-144900000D02*
G75*
G02*
X222030000Y-144900000I30000J0D01*
G01*
%TO.C,Q6*%
X244190000Y-78185000D02*
X244190000Y-90715000D01*
X244190000Y-78185000D02*
X254920000Y-78185000D01*
X244190000Y-90715000D02*
X244660000Y-90715000D01*
X254320000Y-90715000D02*
X254920000Y-90715000D01*
X254920000Y-78185000D02*
X254920000Y-90715000D01*
X244490000Y-92085000D02*
G75*
G02*
X244090000Y-92085000I-200000J0D01*
G01*
X244090000Y-92085000D02*
G75*
G02*
X244490000Y-92085000I200000J0D01*
G01*
X244570000Y-90805000D02*
G75*
G02*
X244510000Y-90805000I-30000J0D01*
G01*
X244510000Y-90805000D02*
G75*
G02*
X244570000Y-90805000I30000J0D01*
G01*
%TO.C,C49*%
X222640000Y-105100000D02*
X222640000Y-107960000D01*
X222790000Y-108110000D02*
X224420000Y-108110000D01*
X224420000Y-104950000D02*
X222790000Y-104950000D01*
X225980000Y-104950000D02*
X227610000Y-104950000D01*
X227610000Y-108110000D02*
X225980000Y-108110000D01*
X227760000Y-105100000D02*
X227760000Y-107960000D01*
X222640000Y-105100000D02*
G75*
G02*
X222790000Y-104950000I150000J0D01*
G01*
X222790000Y-108110000D02*
G75*
G02*
X222640000Y-107960000I0J150000D01*
G01*
X227610000Y-104950000D02*
G75*
G02*
X227760000Y-105100000I0J-150000D01*
G01*
X227760000Y-107960000D02*
G75*
G02*
X227610000Y-108110000I-150000J0D01*
G01*
X226830000Y-105280000D02*
G75*
G02*
X226770000Y-105280000I-30000J0D01*
G01*
X226770000Y-105280000D02*
G75*
G02*
X226830000Y-105280000I30000J0D01*
G01*
%TO.C,P6*%
D14*
X215548151Y-70362409D02*
X206029720Y-70362409D01*
X206029720Y-77824593D01*
X215548151Y-77824593D01*
X215548151Y-70362409D01*
D10*
%TO.C,R24*%
X248540000Y-126710000D02*
X249860000Y-126710000D01*
X248540000Y-127670000D02*
X248540000Y-126710000D01*
X248540000Y-128530000D02*
X248540000Y-129490000D01*
X248540000Y-129490000D02*
X249860000Y-129490000D01*
X249860000Y-126710000D02*
X249860000Y-127670000D01*
X249860000Y-129490000D02*
X249860000Y-128530000D01*
D11*
X248830000Y-127300000D02*
G75*
G02*
X248770000Y-127300000I-30000J0D01*
G01*
X248770000Y-127300000D02*
G75*
G02*
X248830000Y-127300000I30000J0D01*
G01*
D10*
%TO.C,C1*%
X216170000Y-113420000D02*
X216170000Y-111790000D01*
X216170000Y-114980000D02*
X216170000Y-116610000D01*
X216320000Y-111640000D02*
X219180000Y-111640000D01*
X216320000Y-116760000D02*
X219180000Y-116760000D01*
X219330000Y-111790000D02*
X219330000Y-113420000D01*
X219330000Y-116610000D02*
X219330000Y-114980000D01*
X216170000Y-111790000D02*
G75*
G02*
X216320000Y-111640000I150000J0D01*
G01*
X216320000Y-116760000D02*
G75*
G02*
X216170000Y-116610000I0J150000D01*
G01*
X219180000Y-111640000D02*
G75*
G02*
X219330000Y-111790000I0J-150000D01*
G01*
X219330000Y-116610000D02*
G75*
G02*
X219180000Y-116760000I-150000J0D01*
G01*
X216530000Y-112600000D02*
G75*
G02*
X216470000Y-112600000I-30000J0D01*
G01*
X216470000Y-112600000D02*
G75*
G02*
X216530000Y-112600000I30000J0D01*
G01*
%TO.C,C29*%
X232410000Y-107800000D02*
X232410000Y-107000000D01*
X233520000Y-106690000D02*
X232720000Y-106690000D01*
X233520000Y-108110000D02*
X232720000Y-108110000D01*
X234080000Y-106690000D02*
X234880000Y-106690000D01*
X234080000Y-108110000D02*
X234880000Y-108110000D01*
X235190000Y-107000000D02*
X235190000Y-107800000D01*
X232410000Y-107000000D02*
G75*
G02*
X232720000Y-106690000I310000J0D01*
G01*
X232720000Y-108110000D02*
G75*
G02*
X232410000Y-107800000I0J310000D01*
G01*
X234880000Y-106690000D02*
G75*
G02*
X235190000Y-107000000I0J-310000D01*
G01*
X235190000Y-107800000D02*
G75*
G02*
X234880000Y-108110000I-310000J0D01*
G01*
X234630000Y-107000000D02*
G75*
G02*
X234570000Y-107000000I-30000J0D01*
G01*
X234570000Y-107000000D02*
G75*
G02*
X234630000Y-107000000I30000J0D01*
G01*
%TO.C,R402*%
X214140000Y-138710000D02*
X215460000Y-138710000D01*
X214140000Y-139670000D02*
X214140000Y-138710000D01*
X214140000Y-140530000D02*
X214140000Y-141490000D01*
X214140000Y-141490000D02*
X215460000Y-141490000D01*
X215460000Y-138710000D02*
X215460000Y-139670000D01*
X215460000Y-141490000D02*
X215460000Y-140530000D01*
D11*
X214430000Y-139300000D02*
G75*
G02*
X214370000Y-139300000I-30000J0D01*
G01*
X214370000Y-139300000D02*
G75*
G02*
X214430000Y-139300000I30000J0D01*
G01*
D10*
%TO.C,C26*%
X232410000Y-126300000D02*
X232410000Y-125500000D01*
X233520000Y-125190000D02*
X232720000Y-125190000D01*
X233520000Y-126610000D02*
X232720000Y-126610000D01*
X234080000Y-125190000D02*
X234880000Y-125190000D01*
X234080000Y-126610000D02*
X234880000Y-126610000D01*
X235190000Y-125500000D02*
X235190000Y-126300000D01*
X232410000Y-125500000D02*
G75*
G02*
X232720000Y-125190000I310000J0D01*
G01*
X232720000Y-126610000D02*
G75*
G02*
X232410000Y-126300000I0J310000D01*
G01*
X234880000Y-125190000D02*
G75*
G02*
X235190000Y-125500000I0J-310000D01*
G01*
X235190000Y-126300000D02*
G75*
G02*
X234880000Y-126610000I-310000J0D01*
G01*
X233030000Y-126300000D02*
G75*
G02*
X232970000Y-126300000I-30000J0D01*
G01*
X232970000Y-126300000D02*
G75*
G02*
X233030000Y-126300000I30000J0D01*
G01*
%TO.C,C3*%
X223710000Y-135000000D02*
X223710000Y-134200000D01*
X224820000Y-133890000D02*
X224020000Y-133890000D01*
X224820000Y-135310000D02*
X224020000Y-135310000D01*
X225380000Y-133890000D02*
X226180000Y-133890000D01*
X225380000Y-135310000D02*
X226180000Y-135310000D01*
X226490000Y-134200000D02*
X226490000Y-135000000D01*
X223710000Y-134200000D02*
G75*
G02*
X224020000Y-133890000I310000J0D01*
G01*
X224020000Y-135310000D02*
G75*
G02*
X223710000Y-135000000I0J310000D01*
G01*
X226180000Y-133890000D02*
G75*
G02*
X226490000Y-134200000I0J-310000D01*
G01*
X226490000Y-135000000D02*
G75*
G02*
X226180000Y-135310000I-310000J0D01*
G01*
X224330000Y-135000000D02*
G75*
G02*
X224270000Y-135000000I-30000J0D01*
G01*
X224270000Y-135000000D02*
G75*
G02*
X224330000Y-135000000I30000J0D01*
G01*
%TO.C,C7*%
X214490000Y-143820000D02*
X214490000Y-143020000D01*
X214490000Y-144380000D02*
X214490000Y-145180000D01*
X214800000Y-142710000D02*
X215600000Y-142710000D01*
X215600000Y-145490000D02*
X214800000Y-145490000D01*
X215910000Y-143820000D02*
X215910000Y-143020000D01*
X215910000Y-144380000D02*
X215910000Y-145180000D01*
X214490000Y-143020000D02*
G75*
G02*
X214800000Y-142710000I310000J0D01*
G01*
X214800000Y-145490000D02*
G75*
G02*
X214490000Y-145180000I0J310000D01*
G01*
X215600000Y-142710000D02*
G75*
G02*
X215910000Y-143020000I0J-310000D01*
G01*
X215910000Y-145180000D02*
G75*
G02*
X215600000Y-145490000I-310000J0D01*
G01*
X215630000Y-144900000D02*
G75*
G02*
X215570000Y-144900000I-30000J0D01*
G01*
X215570000Y-144900000D02*
G75*
G02*
X215630000Y-144900000I30000J0D01*
G01*
%TO.C,R38*%
X245910000Y-131040000D02*
X245910000Y-132360000D01*
X245910000Y-132360000D02*
X246870000Y-132360000D01*
X246870000Y-131040000D02*
X245910000Y-131040000D01*
X247730000Y-131040000D02*
X248690000Y-131040000D01*
X248690000Y-131040000D02*
X248690000Y-132360000D01*
X248690000Y-132360000D02*
X247730000Y-132360000D01*
D11*
X248130000Y-131300000D02*
G75*
G02*
X248070000Y-131300000I-30000J0D01*
G01*
X248070000Y-131300000D02*
G75*
G02*
X248130000Y-131300000I30000J0D01*
G01*
D10*
%TO.C,U401*%
X218095000Y-134933000D02*
X218095000Y-140267000D01*
X218095000Y-134933000D02*
X221905000Y-134933000D01*
X218095000Y-140267000D02*
X221778000Y-140267000D01*
X219492000Y-139759000D02*
X220508000Y-139759000D01*
X219492000Y-140267000D02*
X219492000Y-139759000D01*
X220508000Y-139759000D02*
X220508000Y-140267000D01*
X221778000Y-140267000D02*
X221905000Y-140267000D01*
X221905000Y-140267000D02*
X221905000Y-134933000D01*
%TO.C,R43*%
X241657500Y-88935000D02*
X242977500Y-88935000D01*
X241657500Y-89895000D02*
X241657500Y-88935000D01*
X241657500Y-90755000D02*
X241657500Y-91715000D01*
X241657500Y-91715000D02*
X242977500Y-91715000D01*
X242977500Y-88935000D02*
X242977500Y-89895000D01*
X242977500Y-91715000D02*
X242977500Y-90755000D01*
D11*
X241947500Y-89525000D02*
G75*
G02*
X241887500Y-89525000I-30000J0D01*
G01*
X241887500Y-89525000D02*
G75*
G02*
X241947500Y-89525000I30000J0D01*
G01*
D10*
%TO.C,R22*%
X201060000Y-127690000D02*
X201060000Y-129010000D01*
X201060000Y-129010000D02*
X202020000Y-129010000D01*
X202020000Y-127690000D02*
X201060000Y-127690000D01*
X202880000Y-127690000D02*
X203840000Y-127690000D01*
X203840000Y-127690000D02*
X203840000Y-129010000D01*
X203840000Y-129010000D02*
X202880000Y-129010000D01*
D11*
X203280000Y-127950000D02*
G75*
G02*
X203220000Y-127950000I-30000J0D01*
G01*
X203220000Y-127950000D02*
G75*
G02*
X203280000Y-127950000I30000J0D01*
G01*
D10*
%TO.C,R29*%
X203257500Y-90010000D02*
X204577500Y-90010000D01*
X203257500Y-90970000D02*
X203257500Y-90010000D01*
X203257500Y-91830000D02*
X203257500Y-92790000D01*
X203257500Y-92790000D02*
X204577500Y-92790000D01*
X204577500Y-90010000D02*
X204577500Y-90970000D01*
X204577500Y-92790000D02*
X204577500Y-91830000D01*
D11*
X203547500Y-90600000D02*
G75*
G02*
X203487500Y-90600000I-30000J0D01*
G01*
X203487500Y-90600000D02*
G75*
G02*
X203547500Y-90600000I30000J0D01*
G01*
D10*
%TO.C,D1*%
X245540000Y-134210000D02*
X247020000Y-134210000D01*
X245540000Y-135360000D02*
X245540000Y-134210000D01*
X245550000Y-135740000D02*
X245550000Y-136790000D01*
X245850000Y-137090000D02*
X245550000Y-136790000D01*
X245950000Y-137090000D02*
X245850000Y-137090000D01*
X245950000Y-137090000D02*
X246650000Y-137090000D01*
X246280000Y-135600000D02*
X246280000Y-135780000D01*
X246650000Y-137090000D02*
X246750000Y-137090000D01*
X246680000Y-135600000D02*
X245890000Y-135600000D01*
X246750000Y-137090000D02*
X247050000Y-136790000D01*
X247040000Y-135360000D02*
X247040000Y-134210000D01*
X247050000Y-135740000D02*
X247050000Y-136790000D01*
X245930000Y-134800000D02*
G75*
G02*
X245870000Y-134800000I-30000J0D01*
G01*
X245870000Y-134800000D02*
G75*
G02*
X245930000Y-134800000I30000J0D01*
G01*
%TO.C,R35*%
X222540000Y-90160000D02*
X223860000Y-90160000D01*
X222540000Y-91120000D02*
X222540000Y-90160000D01*
X222540000Y-91980000D02*
X222540000Y-92940000D01*
X222540000Y-92940000D02*
X223860000Y-92940000D01*
X223860000Y-90160000D02*
X223860000Y-91120000D01*
X223860000Y-92940000D02*
X223860000Y-91980000D01*
D11*
X222830000Y-90750000D02*
G75*
G02*
X222770000Y-90750000I-30000J0D01*
G01*
X222770000Y-90750000D02*
G75*
G02*
X222830000Y-90750000I30000J0D01*
G01*
D10*
%TO.C,R46*%
X241657500Y-85835000D02*
X242977500Y-85835000D01*
X241657500Y-86795000D02*
X241657500Y-85835000D01*
X241657500Y-87655000D02*
X241657500Y-88615000D01*
X241657500Y-88615000D02*
X242977500Y-88615000D01*
X242977500Y-85835000D02*
X242977500Y-86795000D01*
X242977500Y-88615000D02*
X242977500Y-87655000D01*
D11*
X241947500Y-86425000D02*
G75*
G02*
X241887500Y-86425000I-30000J0D01*
G01*
X241887500Y-86425000D02*
G75*
G02*
X241947500Y-86425000I30000J0D01*
G01*
%TD*%
D16*
%TO.C,K1*%
X253500000Y-148140000D03*
X253500000Y-145600000D03*
X253500000Y-143060000D03*
%TD*%
%LPC*%
%TO.C,K1*%
X253500000Y-148140000D03*
X253500000Y-145600000D03*
X253500000Y-143060000D03*
%TD*%
D17*
%TO.C,TEMP/HALL*%
X212300000Y-152600000D03*
D18*
X214300000Y-152600000D03*
X216300000Y-152600000D03*
X218300000Y-152600000D03*
X220300000Y-152600000D03*
X222300000Y-152600000D03*
%TD*%
D17*
%TO.C,SWD*%
X226600000Y-152600000D03*
D18*
X228600000Y-152600000D03*
X230600000Y-152600000D03*
X232600000Y-152600000D03*
X234600000Y-152600000D03*
X236600000Y-152600000D03*
%TD*%
D19*
%TO.C,CAN*%
X201900000Y-151500000D03*
X203900000Y-151500000D03*
X205900000Y-151500000D03*
X207900000Y-151500000D03*
%TD*%
D20*
%TO.C,PERIF*%
X240900000Y-151500000D03*
D21*
X242900000Y-151500000D03*
X244900000Y-151500000D03*
X246900000Y-151500000D03*
X248900000Y-151500000D03*
X250900000Y-151500000D03*
X252900000Y-151500000D03*
%TD*%
D22*
%TO.C,R30*%
X223200000Y-85950000D03*
X223200000Y-84450000D03*
%TD*%
D23*
%TO.C,C42*%
X210749619Y-42150000D03*
X210749619Y-34650000D03*
%TD*%
D24*
%TO.C,H1*%
X198200000Y-32100000D03*
%TD*%
D22*
%TO.C,R49*%
X237600000Y-104350000D03*
X237600000Y-105850000D03*
%TD*%
D25*
%TO.C,C20*%
X238000000Y-123200000D03*
X239400000Y-123200000D03*
%TD*%
D22*
%TO.C,R12*%
X220000000Y-148850000D03*
X220000000Y-147350000D03*
%TD*%
D25*
%TO.C,C15*%
X229200000Y-148400000D03*
X230600000Y-148400000D03*
%TD*%
D24*
%TO.C,H8*%
X249590000Y-74100000D03*
%TD*%
D26*
%TO.C,R23*%
X245750000Y-127200000D03*
X247250000Y-127200000D03*
%TD*%
D22*
%TO.C,R50*%
X239200000Y-104350000D03*
X239200000Y-105850000D03*
%TD*%
D27*
%TO.C,P5*%
X230600000Y-97000000D03*
%TD*%
D28*
%TO.C,C10*%
X240900000Y-128900000D03*
X240900000Y-130300000D03*
%TD*%
D23*
%TO.C,C46*%
X249250381Y-42150000D03*
X249250381Y-34650000D03*
%TD*%
D25*
%TO.C,C38*%
X232200000Y-148400000D03*
X233600000Y-148400000D03*
%TD*%
D26*
%TO.C,R5*%
X248550000Y-148394000D03*
X250050000Y-148394000D03*
%TD*%
D22*
%TO.C,R36*%
X223200000Y-87650000D03*
X223200000Y-89150000D03*
%TD*%
D24*
%TO.C,H6*%
X210788935Y-74093501D03*
%TD*%
D28*
%TO.C,C2*%
X221000000Y-125950000D03*
X221000000Y-127350000D03*
%TD*%
D22*
%TO.C,R27*%
X249200000Y-123350000D03*
X249200000Y-124850000D03*
%TD*%
%TO.C,R6*%
X256000000Y-150850000D03*
X256000000Y-152350000D03*
%TD*%
D24*
%TO.C,H3*%
X260800000Y-151800000D03*
%TD*%
D25*
%TO.C,C28*%
X232800000Y-109000000D03*
X231400000Y-109000000D03*
%TD*%
D26*
%TO.C,R104*%
X218850000Y-132070000D03*
X217350000Y-132070000D03*
%TD*%
D22*
%TO.C,R20*%
X229500000Y-123150000D03*
X229500000Y-124650000D03*
%TD*%
D25*
%TO.C,C35*%
X226500000Y-140400000D03*
X227900000Y-140400000D03*
%TD*%
D29*
%TO.C,R53*%
X241660000Y-101360000D03*
X236740000Y-101360000D03*
D30*
X241660000Y-97180000D03*
X236740000Y-97180000D03*
%TD*%
D31*
%TO.C,D5*%
X250600000Y-142710000D03*
X250600000Y-146090000D03*
%TD*%
D32*
%TO.C,C8*%
X221100000Y-112660000D03*
X221100000Y-115700000D03*
%TD*%
D24*
%TO.C,H5*%
X200700000Y-50200000D03*
%TD*%
D22*
%TO.C,R4*%
X219400000Y-125900000D03*
X219400000Y-127400000D03*
%TD*%
%TO.C,R42*%
X242400000Y-72150000D03*
X242400000Y-73650000D03*
%TD*%
%TO.C,R28*%
X203300000Y-72150000D03*
X203300000Y-73650000D03*
%TD*%
%TO.C,R19*%
X226300000Y-124850000D03*
X226300000Y-123350000D03*
%TD*%
D26*
%TO.C,R37*%
X246250000Y-133300000D03*
X244750000Y-133300000D03*
%TD*%
D33*
%TO.C,U2*%
X205510000Y-123050000D03*
X205510000Y-120750000D03*
X205510000Y-118450000D03*
D34*
X199790000Y-120750000D03*
%TD*%
D24*
%TO.C,H9*%
X230600000Y-97000000D03*
%TD*%
D28*
%TO.C,C16*%
X242500000Y-130300000D03*
X242500000Y-128900000D03*
%TD*%
D35*
%TO.C,D4*%
X212940000Y-116500000D03*
X209560000Y-116500000D03*
%TD*%
D36*
%TO.C,C43*%
X226720000Y-109800000D03*
X223680000Y-109800000D03*
%TD*%
D26*
%TO.C,R1*%
X257150000Y-78200000D03*
X258650000Y-78200000D03*
%TD*%
D25*
%TO.C,C11*%
X242200000Y-137500000D03*
X240800000Y-137500000D03*
%TD*%
%TO.C,C27*%
X229900000Y-110200000D03*
X228500000Y-110200000D03*
%TD*%
D28*
%TO.C,C12*%
X231100000Y-124600000D03*
X231100000Y-123200000D03*
%TD*%
D37*
%TO.C,D7*%
X209600000Y-128400000D03*
X208000000Y-128400000D03*
%TD*%
D26*
%TO.C,R25*%
X228650000Y-107300000D03*
X230150000Y-107300000D03*
%TD*%
D22*
%TO.C,R9*%
X218400000Y-148850000D03*
X218400000Y-147350000D03*
%TD*%
D28*
%TO.C,C19*%
X227900000Y-124800000D03*
X227900000Y-123400000D03*
%TD*%
D26*
%TO.C,R14*%
X211150000Y-128360000D03*
X212650000Y-128360000D03*
%TD*%
D32*
%TO.C,C40*%
X242200000Y-57320000D03*
X242200000Y-54280000D03*
%TD*%
D22*
%TO.C,R7*%
X213600000Y-148850000D03*
X213600000Y-147350000D03*
%TD*%
D32*
%TO.C,C44*%
X224500000Y-115700000D03*
X224500000Y-112660000D03*
%TD*%
D25*
%TO.C,C22*%
X233100000Y-123100000D03*
X234500000Y-123100000D03*
%TD*%
D28*
%TO.C,C6*%
X218300000Y-144800000D03*
X218300000Y-143400000D03*
%TD*%
D22*
%TO.C,R401*%
X214800000Y-137850000D03*
X214800000Y-136350000D03*
%TD*%
D38*
%TO.C,C33*%
X208550000Y-119050000D03*
X208550000Y-122850000D03*
%TD*%
D39*
%TO.C,C51*%
X220400000Y-58780000D03*
X220400000Y-53620000D03*
%TD*%
D40*
%TO.C,P9*%
X249590000Y-74099999D03*
%TD*%
D41*
%TO.C,Q4*%
X225900000Y-90377500D03*
D42*
X230700000Y-90377500D03*
D43*
X230110000Y-82517500D03*
%TD*%
D41*
%TO.C,Q3*%
X225900000Y-68630000D03*
D42*
X230700000Y-68630000D03*
D43*
X230110000Y-60770000D03*
%TD*%
D25*
%TO.C,C18*%
X233100000Y-124500000D03*
X234500000Y-124500000D03*
%TD*%
D32*
%TO.C,C9*%
X237500000Y-57320000D03*
X237500000Y-54280000D03*
%TD*%
D26*
%TO.C,R2*%
X240750000Y-141000000D03*
X242250000Y-141000000D03*
%TD*%
D22*
%TO.C,R51*%
X240633333Y-104350000D03*
X240633333Y-105850000D03*
%TD*%
%TO.C,R13*%
X216800000Y-148850000D03*
X216800000Y-147350000D03*
%TD*%
D44*
%TO.C,L1*%
X216450000Y-120750000D03*
X211450000Y-120750000D03*
%TD*%
D25*
%TO.C,C13*%
X224000000Y-131050000D03*
X225400000Y-131050000D03*
%TD*%
D28*
%TO.C,C401*%
X224500000Y-136900000D03*
X224500000Y-138300000D03*
%TD*%
D22*
%TO.C,R21*%
X225900000Y-121650000D03*
X225900000Y-120150000D03*
%TD*%
D25*
%TO.C,C17*%
X230900000Y-126200000D03*
X229500000Y-126200000D03*
%TD*%
D45*
%TO.C,U1*%
X229550960Y-140550560D03*
X230048800Y-140550560D03*
X230549180Y-140550560D03*
X231049560Y-140550560D03*
X231549940Y-140550560D03*
X232050320Y-140550560D03*
X232550700Y-140550560D03*
X233051080Y-140550560D03*
X233548920Y-140550560D03*
X234049300Y-140550560D03*
X234549680Y-140550560D03*
X235050060Y-140550560D03*
X235550440Y-140550560D03*
X236050820Y-140550560D03*
X236551200Y-140550560D03*
X237049040Y-140550560D03*
D46*
X239050560Y-138549040D03*
X239050560Y-138051200D03*
X239050560Y-137550820D03*
X239050560Y-137050440D03*
X239050560Y-136550060D03*
X239050560Y-136049680D03*
X239050560Y-135549300D03*
X239050560Y-135048920D03*
X239050560Y-134551080D03*
X239050560Y-134050700D03*
X239050560Y-133550320D03*
X239050560Y-133049940D03*
X239050560Y-132549560D03*
X239050560Y-132049180D03*
X239050560Y-131548800D03*
X239050560Y-131050960D03*
D45*
X237049040Y-129049440D03*
X236551200Y-129049440D03*
X236050820Y-129049440D03*
X235550440Y-129049440D03*
X235050060Y-129049440D03*
X234549680Y-129049440D03*
X234049300Y-129049440D03*
X233548920Y-129049440D03*
X233051080Y-129049440D03*
X232550700Y-129049440D03*
X232050320Y-129049440D03*
X231549940Y-129049440D03*
X231049560Y-129049440D03*
X230549180Y-129049440D03*
X230048800Y-129049440D03*
X229550960Y-129049440D03*
D46*
X227549440Y-131050960D03*
X227549440Y-131548800D03*
X227549440Y-132049180D03*
X227549440Y-132549560D03*
X227549440Y-133049940D03*
X227549440Y-133550320D03*
X227549440Y-134050700D03*
X227549440Y-134551080D03*
X227549440Y-135048920D03*
X227549440Y-135549300D03*
X227549440Y-136049680D03*
X227549440Y-136550060D03*
X227549440Y-137050440D03*
X227549440Y-137550820D03*
X227549440Y-138051200D03*
X227549440Y-138549040D03*
%TD*%
D41*
%TO.C,Q5*%
X245290000Y-68607500D03*
D42*
X250090000Y-68607500D03*
D43*
X249500000Y-60747500D03*
%TD*%
D22*
%TO.C,R34*%
X223000000Y-72150000D03*
X223000000Y-73650000D03*
%TD*%
D35*
%TO.C,D6*%
X206290000Y-133300000D03*
X202910000Y-133300000D03*
%TD*%
D25*
%TO.C,C52*%
X238000000Y-124800000D03*
X239400000Y-124800000D03*
%TD*%
D40*
%TO.C,P7*%
X230150000Y-74099999D03*
%TD*%
D24*
%TO.C,H7*%
X230150000Y-74100000D03*
%TD*%
D26*
%TO.C,R18*%
X214449270Y-124933896D03*
X215949270Y-124933896D03*
%TD*%
D28*
%TO.C,C23*%
X241000000Y-124600000D03*
X241000000Y-123200000D03*
%TD*%
D47*
%TO.C,C34*%
X236038000Y-107400000D03*
X237562000Y-107400000D03*
%TD*%
D41*
%TO.C,Q1*%
X206490000Y-68607500D03*
D42*
X211290000Y-68607500D03*
D43*
X210700000Y-60747500D03*
%TD*%
D24*
%TO.C,H2*%
X260805635Y-32115123D03*
%TD*%
D22*
%TO.C,R3*%
X217800000Y-125900000D03*
X217800000Y-127400000D03*
%TD*%
D48*
%TO.C,U3*%
X227001160Y-120381000D03*
X227499000Y-120381000D03*
X227999380Y-120381000D03*
X228499760Y-120381000D03*
X229000140Y-120381000D03*
X229500520Y-120381000D03*
X230000900Y-120381000D03*
X230498740Y-120381000D03*
X230999120Y-120381000D03*
X231499500Y-120381000D03*
X231999880Y-120381000D03*
X232500260Y-120381000D03*
X233000640Y-120381000D03*
X233501020Y-120381000D03*
X233998860Y-120381000D03*
X234499240Y-120381000D03*
X234999620Y-120381000D03*
X235500000Y-120381000D03*
X236000380Y-120381000D03*
X236500760Y-120381000D03*
X237001140Y-120381000D03*
X237498980Y-120381000D03*
X237999360Y-120381000D03*
X238499740Y-120381000D03*
X239000120Y-120381000D03*
X239500500Y-120381000D03*
X240000880Y-120381000D03*
X240498720Y-120381000D03*
X240498720Y-112380000D03*
X240000880Y-112380000D03*
X239500500Y-112380000D03*
X239000120Y-112380000D03*
X238499740Y-112380000D03*
X237999360Y-112380000D03*
X237498980Y-112380000D03*
X237001140Y-112380000D03*
X236500760Y-112380000D03*
X236000380Y-112380000D03*
X235500000Y-112380000D03*
X234999620Y-112380000D03*
X234499240Y-112380000D03*
X233998860Y-112380000D03*
X233501020Y-112380000D03*
X233000640Y-112380000D03*
X232500260Y-112380000D03*
X231999880Y-112380000D03*
X231499500Y-112380000D03*
X230999120Y-112380000D03*
X230498740Y-112380000D03*
X230000900Y-112380000D03*
X229500520Y-112380000D03*
X229000140Y-112380000D03*
X228499760Y-112380000D03*
X227999380Y-112380000D03*
X227499000Y-112380000D03*
X227001160Y-112380000D03*
D49*
X233696600Y-116380500D03*
%TD*%
D22*
%TO.C,R33*%
X249200000Y-120250000D03*
X249200000Y-121750000D03*
%TD*%
D28*
%TO.C,C31*%
X235700000Y-144800000D03*
X235700000Y-143400000D03*
%TD*%
D50*
%TO.C,C25*%
X200050000Y-125850000D03*
X203850000Y-125850000D03*
%TD*%
D25*
%TO.C,C32*%
X234100000Y-142400000D03*
X232700000Y-142400000D03*
%TD*%
D26*
%TO.C,R26*%
X245750000Y-124515000D03*
X247250000Y-124515000D03*
%TD*%
D47*
%TO.C,C36*%
X239238000Y-107400000D03*
X240762000Y-107400000D03*
%TD*%
D23*
%TO.C,C45*%
X230000000Y-42150000D03*
X230000000Y-34650000D03*
%TD*%
D28*
%TO.C,C4*%
X212000000Y-147400000D03*
X212000000Y-148800000D03*
%TD*%
D25*
%TO.C,C41*%
X240800000Y-139200000D03*
X242200000Y-139200000D03*
%TD*%
%TO.C,C14*%
X226100000Y-129700000D03*
X227500000Y-129700000D03*
%TD*%
D22*
%TO.C,R8*%
X215200000Y-148850000D03*
X215200000Y-147350000D03*
%TD*%
D29*
%TO.C,R54*%
X224460000Y-101460000D03*
X219540000Y-101460000D03*
D30*
X224460000Y-97280000D03*
X219540000Y-97280000D03*
%TD*%
D26*
%TO.C,R17*%
X211449270Y-124933896D03*
X212949270Y-124933896D03*
%TD*%
D39*
%TO.C,C37*%
X222200000Y-123380000D03*
X222200000Y-118220000D03*
%TD*%
D37*
%TO.C,D3*%
X204700000Y-128380000D03*
X206300000Y-128380000D03*
%TD*%
D26*
%TO.C,R103*%
X218850000Y-130500000D03*
X217350000Y-130500000D03*
%TD*%
D22*
%TO.C,R48*%
X236100000Y-104350000D03*
X236100000Y-105850000D03*
%TD*%
D37*
%TO.C,D2*%
X248240000Y-134800000D03*
X248240000Y-136400000D03*
%TD*%
D25*
%TO.C,C21*%
X227800000Y-126200000D03*
X226400000Y-126200000D03*
%TD*%
%TO.C,C24*%
X200150000Y-128350000D03*
X198750000Y-128350000D03*
%TD*%
D22*
%TO.C,R11*%
X223200000Y-148850000D03*
X223200000Y-147350000D03*
%TD*%
D51*
%TO.C,U4*%
X200150000Y-133300000D03*
X200150000Y-137300000D03*
D52*
X200900000Y-134000000D03*
X200900000Y-134650000D03*
X200900000Y-135300000D03*
X200900000Y-135950000D03*
X200900000Y-136600000D03*
D53*
X200350000Y-132100000D03*
D54*
X198000000Y-132100000D03*
X198000000Y-138500000D03*
D53*
X200350000Y-138500000D03*
%TD*%
D32*
%TO.C,C39*%
X243100000Y-117901000D03*
X243100000Y-114861000D03*
%TD*%
D27*
%TO.C,P4*%
X200700001Y-50200000D03*
%TD*%
D25*
%TO.C,C30*%
X236800000Y-109600000D03*
X235400000Y-109600000D03*
%TD*%
D26*
%TO.C,R32*%
X245750000Y-121830000D03*
X247250000Y-121830000D03*
%TD*%
D55*
%TO.C,X2*%
X229300000Y-146700000D03*
X233300000Y-146700000D03*
X233300000Y-144300000D03*
X229300000Y-144300000D03*
%TD*%
D22*
%TO.C,R10*%
X221600000Y-148850000D03*
X221600000Y-147350000D03*
%TD*%
D41*
%TO.C,Q2*%
X206490000Y-90355000D03*
D42*
X211290000Y-90355000D03*
D43*
X210700000Y-82495000D03*
%TD*%
D24*
%TO.C,H4*%
X198600000Y-146600000D03*
%TD*%
D28*
%TO.C,C5*%
X221600000Y-144800000D03*
X221600000Y-143400000D03*
%TD*%
D41*
%TO.C,Q6*%
X245290000Y-90355000D03*
D42*
X250090000Y-90355000D03*
D43*
X249500000Y-82495000D03*
%TD*%
D36*
%TO.C,C49*%
X226720000Y-106530000D03*
X223680000Y-106530000D03*
%TD*%
D40*
%TO.C,P6*%
X210790000Y-74099999D03*
%TD*%
D22*
%TO.C,R24*%
X249200000Y-127350000D03*
X249200000Y-128850000D03*
%TD*%
D32*
%TO.C,C1*%
X217750000Y-112680000D03*
X217750000Y-115720000D03*
%TD*%
D25*
%TO.C,C29*%
X234500000Y-107400000D03*
X233100000Y-107400000D03*
%TD*%
D22*
%TO.C,R402*%
X214800000Y-139350000D03*
X214800000Y-140850000D03*
%TD*%
D25*
%TO.C,C26*%
X233100000Y-125900000D03*
X234500000Y-125900000D03*
%TD*%
%TO.C,C3*%
X224400000Y-134600000D03*
X225800000Y-134600000D03*
%TD*%
D28*
%TO.C,C7*%
X215200000Y-144800000D03*
X215200000Y-143400000D03*
%TD*%
D26*
%TO.C,R38*%
X248050000Y-131700000D03*
X246550000Y-131700000D03*
%TD*%
D56*
%TO.C,U401*%
X222667000Y-139505000D03*
X222667000Y-138235000D03*
X222667000Y-136965000D03*
X222667000Y-135695000D03*
X217333000Y-135695000D03*
X217333000Y-136965000D03*
X217333000Y-138235000D03*
X217333000Y-139505000D03*
%TD*%
D22*
%TO.C,R43*%
X242317500Y-89575000D03*
X242317500Y-91075000D03*
%TD*%
D26*
%TO.C,R22*%
X203200000Y-128350000D03*
X201700000Y-128350000D03*
%TD*%
D22*
%TO.C,R29*%
X203917500Y-90650000D03*
X203917500Y-92150000D03*
%TD*%
D37*
%TO.C,D1*%
X246300000Y-134800000D03*
X246300000Y-136400000D03*
%TD*%
D22*
%TO.C,R35*%
X223200000Y-90800000D03*
X223200000Y-92300000D03*
%TD*%
%TO.C,R46*%
X242317500Y-86475000D03*
X242317500Y-87975000D03*
%TD*%
G36*
X253543039Y-90819685D02*
G01*
X253588794Y-90872489D01*
X253600000Y-90924000D01*
X253600000Y-95411157D01*
X253580315Y-95478196D01*
X253527511Y-95523951D01*
X253515876Y-95528570D01*
X243019395Y-99093413D01*
X242979519Y-99100000D01*
X242524000Y-99100000D01*
X242456961Y-99080315D01*
X242411206Y-99027511D01*
X242400000Y-98976000D01*
X242400000Y-94924000D01*
X242419685Y-94856961D01*
X242472489Y-94811206D01*
X242524000Y-94800000D01*
X243099999Y-94800000D01*
X243100000Y-94799999D01*
X246700000Y-93099999D01*
X246700000Y-90924000D01*
X246719685Y-90856961D01*
X246772489Y-90811206D01*
X246824000Y-90800000D01*
X253476000Y-90800000D01*
X253543039Y-90819685D01*
G37*
G36*
X214578000Y-90798032D02*
G01*
X214644713Y-90818795D01*
X214689610Y-90872330D01*
X214700000Y-90922016D01*
X214700000Y-93100000D01*
X214699999Y-93100000D01*
X218532098Y-94966919D01*
X218583745Y-95013977D01*
X218601756Y-95075511D01*
X218696052Y-99130243D01*
X218677932Y-99197722D01*
X218626206Y-99244692D01*
X218557297Y-99256241D01*
X218537097Y-99252087D01*
X208589011Y-96326179D01*
X208530250Y-96288378D01*
X208501254Y-96224810D01*
X208500000Y-96207218D01*
X208500000Y-90826016D01*
X208519685Y-90758977D01*
X208572489Y-90713222D01*
X208626000Y-90702032D01*
X214578000Y-90798032D01*
G37*
G36*
X204143039Y-45719685D02*
G01*
X204188794Y-45772489D01*
X204200000Y-45824000D01*
X204200000Y-54576000D01*
X204180315Y-54643039D01*
X204127511Y-54688794D01*
X204076000Y-54700000D01*
X197324000Y-54700000D01*
X197256961Y-54680315D01*
X197211206Y-54627511D01*
X197200000Y-54576000D01*
X197200000Y-45824000D01*
X197219685Y-45756961D01*
X197272489Y-45711206D01*
X197324000Y-45700000D01*
X204076000Y-45700000D01*
X204143039Y-45719685D01*
G37*
%LPD*%
M02*
