M48
; DRILL file {KiCad 9.0.2} date 2026-06-02T21:57:37+0700
; FORMAT={-:-/ absolute / inch / decimal}
; #@! TF.CreationDate,2026-06-02T21:57:37+07:00
; #@! TF.GenerationSoftware,Kicad,Pcbnew,9.0.2
; #@! TF.FileFunction,Plated,1,4,PTH
FMAT,2
INCH
; #@! TA.AperFunction,Plated,PTH,ViaDrill
T1C0.0197
; #@! TA.AperFunction,Plated,PTH,ViaDrill
T2C0.0300
; #@! TA.AperFunction,Plated,PTH,ComponentDrill
T3C0.0315
; #@! TA.AperFunction,Plated,PTH,ComponentDrill
T4C0.0394
; #@! TA.AperFunction,Plated,PTH,ComponentDrill
T5C0.0400
; #@! TA.AperFunction,Plated,PTH,ComponentDrill
T6C0.0433
; #@! TA.AperFunction,Plated,PTH,ComponentDrill
T7C0.0472
; #@! TA.AperFunction,Plated,PTH,ComponentDrill
T8C0.1260
; #@! TA.AperFunction,Plated,PTH,ComponentDrill
T9C0.1378
%
G90
G05
T1
X7.7461Y-4.9941
X7.7559Y-2.4134
X7.7559Y-2.6134
X7.7559Y-2.7728
X7.7559Y-2.9728
X7.7559Y-3.1728
X7.7559Y-3.3728
X7.7559Y-3.5728
X7.7559Y-3.7728
X7.7559Y-3.9728
X7.7559Y-4.1728
X7.7559Y-4.3307
X7.8051Y-5.002
X7.811Y-1.4724
X7.9421Y-2.9361
X7.9528Y-4.3307
X7.9704Y-3.6509
X7.9803Y-2.9488
X7.9961Y-1.2126
X8.0036Y-3.721
X8.0039Y-3.6732
X8.0173Y-2.966
X8.0173Y-3.0918
X8.0236Y-3.1378
X8.0606Y-3.1589
X8.0669Y-5.8622
X8.1417Y-5.1929
X8.1496Y-4.3307
X8.1516Y-2.8173
X8.1516Y-2.9173
X8.1516Y-3.0173
X8.1772Y-2.2735
X8.1772Y-2.3916
X8.1772Y-2.5097
X8.1772Y-3.1297
X8.1772Y-3.2478
X8.1772Y-3.3659
X8.1929Y-5.2087
X8.2953Y-2.2735
X8.2953Y-2.3916
X8.2953Y-2.5097
X8.2953Y-3.1297
X8.2953Y-3.2478
X8.2953Y-3.3659
X8.3465Y-4.3307
X8.3839Y-4.7146
X8.4134Y-2.2735
X8.4134Y-2.3916
X8.4134Y-2.5097
X8.4134Y-3.1297
X8.4134Y-3.2478
X8.4134Y-3.3659
X8.4157Y-4.7503
X8.4193Y-4.9862
X8.4469Y-2.8171
X8.4469Y-2.9171
X8.4469Y-3.0171
X8.4547Y-4.9547
X8.4713Y-4.002
X8.5021Y-4.0721
X8.5095Y-4.024
X8.5197Y-5.6654
X8.5197Y-5.7126
X8.5433Y-4.1339
X8.5433Y-4.3307
X8.5787Y-4.6299
X8.597Y-4.4771
X8.6083Y-2.372
X8.6161Y-3.4921
X8.6161Y-3.6181
X8.6319Y-2.6606
X8.6319Y-2.7606
X8.6319Y-2.8606
X8.6319Y-2.9606
X8.6319Y-3.0606
X8.6319Y-3.1606
X8.6319Y-3.2606
X8.6319Y-3.3606
X8.6417Y-5.7165
X8.6457Y-5.6693
X8.6752Y-4.9154
X8.6811Y-1.2126
X8.6854Y-4.4815
X8.7274Y-2.9204
X8.752Y-2.372
X8.7559Y-2.9488
X8.7634Y-3.6251
X8.7697Y-4.9705
X8.7774Y-3.6634
X8.7835Y-5.0236
X8.7929Y-3.0896
X8.7929Y-3.1417
X8.7972Y-2.9599
X8.814Y-5.1054
X8.8163Y-3.6767
X8.8288Y-3.1636
X8.8386Y-5.2579
X8.8583Y-5.1378
X8.8661Y-5.4331
X8.8788Y-5.3954
X8.8917Y-5.2677
X8.9134Y-2.8173
X8.9134Y-2.9173
X8.9134Y-3.0173
X8.9213Y-5.5866
X8.9381Y-4.1061
X8.9409Y-2.2795
X8.9409Y-2.3976
X8.9409Y-2.5157
X8.9413Y-3.1306
X8.9413Y-3.2487
X8.9413Y-3.3668
X8.9488Y-5.6339
X8.9665Y-5.6929
X8.9665Y-5.7717
X8.9665Y-5.8504
X8.9705Y-3.6713
X8.9705Y-3.8189
X8.9803Y-4.6811
X8.9902Y-4.5689
X9.0039Y-4.6417
X9.0039Y-5.0669
X9.0079Y-5.8996
X9.0118Y-5.3228
X9.0118Y-5.6299
X9.0276Y-5.252
X9.0305Y-4.1539
X9.0354Y-5.3543
X9.0394Y-4.6654
X9.0433Y-5.2087
X9.0472Y-5.1378
X9.0591Y-2.2795
X9.0591Y-2.3976
X9.0591Y-2.5157
X9.0591Y-5.3898
X9.0594Y-3.1306
X9.0594Y-3.2487
X9.0594Y-3.3668
X9.063Y-4.8858
X9.0735Y-4.4883
X9.0748Y-3.9665
X9.0748Y-5.252
X9.0748Y-5.6299
X9.0787Y-3.6713
X9.0827Y-5.4291
X9.0866Y-4.6693
X9.1046Y-4.2187
X9.1063Y-5.4803
X9.1094Y-5.2214
X9.1122Y-5.9075
X9.122Y-4.867
X9.126Y-4.2509
X9.1299Y-4.7992
X9.1299Y-5.1614
X9.1299Y-5.4213
X9.1339Y-4.4883
X9.1339Y-5.0
X9.1384Y-4.6755
X9.1575Y-5.2047
X9.1595Y-4.517
X9.1652Y-4.3318
X9.166Y-4.1804
X9.1732Y-5.1457
X9.1772Y-2.2795
X9.1772Y-2.3976
X9.1772Y-2.5157
X9.1776Y-3.1306
X9.1776Y-3.2487
X9.1776Y-3.3668
X9.1862Y-4.4883
X9.189Y-3.6713
X9.189Y-3.8189
X9.189Y-3.9665
X9.2008Y-4.6772
X9.2087Y-2.8173
X9.2087Y-2.9173
X9.2087Y-3.0173
X9.2106Y-5.8976
X9.2118Y-5.8146
X9.2165Y-4.9291
X9.2317Y-4.6542
X9.2355Y-4.4883
X9.252Y-4.3661
X9.2619Y-5.2776
X9.2621Y-5.4272
X9.2625Y-5.3839
X9.2638Y-4.6755
X9.2638Y-5.3307
X9.2656Y-5.0311
X9.2677Y-5.185
X9.2714Y-5.7319
X9.2736Y-4.5039
X9.2776Y-5.8602
X9.2992Y-5.1457
X9.318Y-5.437
X9.3192Y-4.4883
X9.3211Y-5.3012
X9.3346Y-5.5905
X9.3371Y-5.3363
X9.3417Y-4.5195
X9.3425Y-2.6382
X9.3425Y-2.7382
X9.3425Y-2.8382
X9.3425Y-2.9382
X9.3425Y-3.0382
X9.3453Y-4.6369
X9.3465Y-5.4725
X9.3485Y-4.6753
X9.3584Y-4.3275
X9.3611Y-4.3677
X9.3687Y-5.0776
X9.376Y-5.7756
X9.3762Y-4.6139
X9.378Y-5.5472
X9.378Y-5.7362
X9.3799Y-4.5143
X9.3866Y-4.8819
X9.3898Y-2.2972
X9.3898Y-5.122
X9.3898Y-5.5866
X9.3937Y-4.7917
X9.4212Y-4.5228
X9.4252Y-4.6496
X9.4331Y-4.4843
X9.437Y-1.2126
X9.4469Y-3.1933
X9.4469Y-3.2933
X9.4469Y-3.3933
X9.4469Y-3.4933
X9.4529Y-5.122
X9.4554Y-3.594
X9.4685Y-5.2205
X9.4788Y-2.933
X9.4791Y-2.2972
X9.4803Y-4.6772
X9.4843Y-5.2598
X9.4882Y-3.6142
X9.4971Y-5.4382
X9.5098Y-5.7402
X9.5157Y-2.9488
X9.5157Y-3.6448
X9.5157Y-3.685
X9.5276Y-5.7754
X9.5327Y-4.7795
X9.5338Y-4.741
X9.5476Y-2.9734
X9.5548Y-3.0811
X9.5689Y-4.9016
X9.5735Y-3.1598
X9.5787Y-3.1181
X9.5837Y-4.3406
X9.5984Y-5.4252
X9.6046Y-4.4046
X9.6358Y-4.9035
X9.6372Y-4.7457
X9.6457Y-5.4331
X9.6673Y-4.7697
X9.6732Y-4.9606
X9.6769Y-4.4389
X9.6791Y-2.8173
X9.6791Y-2.9173
X9.6791Y-3.0173
X9.7047Y-2.2756
X9.7047Y-2.3937
X9.7047Y-2.5118
X9.7047Y-3.1297
X9.7047Y-3.2478
X9.7047Y-3.3659
X9.7283Y-4.9567
X9.7402Y-4.8543
X9.7795Y-4.8543
X9.7805Y-4.3406
X9.8228Y-2.2756
X9.8228Y-2.3937
X9.8228Y-2.5118
X9.8228Y-3.1297
X9.8228Y-3.2478
X9.8228Y-3.3659
X9.8543Y-5.0945
X9.8583Y-4.8189
X9.8583Y-4.9449
X9.9409Y-2.2756
X9.9409Y-2.3937
X9.9409Y-2.5118
X9.9409Y-3.1297
X9.9409Y-3.2478
X9.9409Y-3.3659
X9.9724Y-2.8213
X9.9724Y-2.9213
X9.9724Y-3.0213
X9.9774Y-4.3406
X10.0945Y-1.2126
X10.0968Y-5.6698
X10.1447Y-3.1073
X10.1483Y-5.6955
X10.1742Y-4.3406
X10.1951Y-3.1185
X10.3091Y-2.3642
X10.3091Y-2.5642
X10.3091Y-2.7642
X10.3091Y-2.9642
X10.3091Y-3.1642
X10.3091Y-3.3642
X10.3091Y-3.5642
X10.3091Y-3.7642
X10.3091Y-3.9642
X10.3091Y-4.1406
X10.3091Y-4.3406
X10.3091Y-4.5406
X10.3091Y-4.7406
X10.3091Y-4.9406
X10.3091Y-5.1406
X10.3091Y-5.3406
X10.311Y-1.5858
X10.311Y-1.7858
X10.311Y-1.9858
X10.311Y-2.1858
T2
X8.6398Y-4.5079
X8.9803Y-4.1378
X9.626Y-4.4528
T3
X8.3583Y-6.0079
X8.437Y-6.0079
X8.5157Y-6.0079
X8.5945Y-6.0079
X8.6732Y-6.0079
X8.752Y-6.0079
X8.9213Y-6.0079
X9.0Y-6.0079
X9.0787Y-6.0079
X9.1575Y-6.0079
X9.2362Y-6.0079
X9.315Y-6.0079
X9.4843Y-5.9646
X9.563Y-5.9646
X9.6417Y-5.9646
X9.7205Y-5.9646
X9.7992Y-5.9646
X9.878Y-5.9646
X9.9567Y-5.9646
X9.9921Y-5.3248
X9.9921Y-5.4035
X9.9921Y-5.4823
X9.9921Y-5.561
X9.9921Y-5.6398
X9.9921Y-5.7185
X9.9921Y-5.7972
T4
X7.9488Y-5.9646
X8.0276Y-5.9646
X8.1063Y-5.9646
X8.185Y-5.9646
T5
X10.2969Y-5.5224
X10.2969Y-5.6224
X10.2969Y-5.7224
T6
X7.7795Y-4.4451
X7.7795Y-4.5451
X7.9124Y-4.4451
X7.9124Y-4.5451
T7
X8.2972Y-1.3642
X8.2972Y-1.6594
X9.0551Y-1.3642
X9.0551Y-1.6594
X9.813Y-1.3642
X9.813Y-1.6594
T8
X7.8031Y-1.2638
X7.8189Y-5.7717
X10.2677Y-5.9764
X10.2679Y-1.2644
T9
X7.9016Y-1.9764
X8.2988Y-2.9171
X9.061Y-2.9173
X9.0787Y-3.8189
X9.8264Y-2.9173
M30
