#VRML V2.0 utf8
# 3D model generated by easyeda2kicad.py (https://github.com/uPesy/easyeda2kicad.py)

Shape{
    appearance Appearance {
        material  Material 	{
            diffuseColor 1.0 1.0 1.0
            specularColor 0.30196078431372547 0.30196078431372547 0.30196078431372547
            ambientIntensity 1.0
            transparency 0.0
            shininess 0.5
        }
    }
    geometry IndexedFaceSet {
        ccw TRUE
        solid FALSE
        coord DEF co Coordinate {
            point [
                0.2712 -0.8169 -0.0394, 0.1363 -0.8169 -0.0394, 0.1363 -0.2182 -0.0394, -1.9488 -1.0039 -0.0394, -1.9488 -0.8169 -0.0394, -1.6142 -0.8169 -0.0394, -1.8504 -1.1024 -0.0394, -1.8759 -1.099 -0.0394, -1.8996 -1.0892 -0.0394, -1.92 -1.0735 -0.0394, -1.9356 -1.0532 -0.0394, -1.9455 -1.0294 -0.0394, 1.8996 -1.0892 -0.0394, 1.9455 -1.0294 -0.0394, 1.92 -1.0735 -0.0394, 1.9356 -1.0532 -0.0394, 1.8759 -1.099 -0.0394, 1.8504 -1.1024 -0.0394, 1.9488 -1.0039 -0.0394, 1.9455 0.5963 -0.0394, 1.8504 0.6693 -0.0394, 1.8759 0.6659 -0.0394, 1.8996 0.6561 -0.0394, 1.92 0.6405 -0.0394, 1.9356 0.6201 -0.0394, -1.8504 0.6693 -0.0394, -1.9488 0.5709 -0.0394, -1.9455 0.5963 -0.0394, -1.92 0.6405 -0.0394, -1.8996 0.6561 -0.0394, -1.8759 0.6659 -0.0394, -1.9356 0.6201 -0.0394, -0.0611 0.6693 -0.0394, -0.0611 -0.101 -0.0394, -0.0726 0.0117 -0.0394, -0.0726 -0.0012 -0.0394, -0.0611 -0.2182 -0.0394, -0.09 -0.101 -0.0394, -0.0863 -0.1007 -0.0394, -0.1003 -0.0887 -0.0394, -0.0747 -0.0001 -0.0394, -0.0859 -0.0869 -0.0394, -0.0726 -0.0812 -0.0394, -0.0726 -0.097 -0.0394, -0.1311 0.0139 -0.0394, -0.1407 0.0077 -0.0394, -0.1655 0.6693 -0.0394, -0.1196 0.0178 -0.0394, -0.1119 -0.0874 -0.0394, -0.1207 -0.0843 -0.0394, -0.129 -0.0786 -0.0394, -0.1361 -0.0707 -0.0394, -0.141 -0.0616 -0.0394, -0.1441 -0.0488 -0.0394, -0.1446 -0.0399 -0.0394, -0.1434 -0.0272 -0.0394, -0.1402 -0.017 -0.0394, -0.1029 0.0063 -0.0394, -0.1298 -0.003 -0.0394, -0.1139 0.0051 -0.0394, -0.1226 0.0019 -0.0394, -0.1353 -0.0088 -0.0394, -0.0872 0.0046 -0.0394, -0.1605 -0.039 -0.0394, -0.1588 -0.0557 -0.0394, -0.1655 -0.101 -0.0394, -0.1542 -0.0692 -0.0394, -0.1472 -0.0804 -0.0394, -0.1369 -0.0903 -0.0394, -0.1258 -0.0967 -0.0394, -0.1129 -0.1006 -0.0394, -0.1493 -0.0014 -0.0394, -0.1556 -0.0125 -0.0394, -0.1593 -0.0252 -0.0394, -0.0852 0.0169 -0.0394, -0.1019 0.0192 -0.0394, -0.1051 0.0193 -0.0394, -0.1655 -0.2182 -0.0394, -0.1087 -0.101 -0.0394, -0.1004 -0.1017 -0.0394, 0.1363 -1.1024 -0.0394, 0.2712 -1.1024 -0.0394, 0.7874 -1.1024 -0.0394, 0.7874 -0.8169 -0.0394, 1.9488 -0.8169 -0.0394, -1.6142 -1.1024 -0.0394, -0.7874 -1.1024 -0.0394, -0.7874 -0.8169 -0.0394, -0.2632 -1.1024 -0.0394, -0.2632 -0.8169 -0.0394, -0.1655 -1.1024 -0.0394, -0.1655 -0.8169 -0.0394, -0.0611 -1.1024 -0.0394, -0.0611 -0.8169 -0.0394, 0.0253 -1.1024 -0.0394, 1.2795 -0.5315 -0.0394, 1.0827 -0.5315 -0.0394, 1.0827 -0.3347 -0.0394, 0.7874 -0.2182 -0.0394, 1.2795 -0.3347 -0.0394, 1.9488 -0.2182 -0.0394, 0.0253 -0.101 -0.0394, 0.0253 -0.2182 -0.0394, 0.0253 -0.8169 -0.0394, -0.2632 -0.2182 -0.0394, -0.2953 -0.3347 -0.0394, -0.2953 -0.5315 -0.0394, -0.4921 -0.5315 -0.0394, -0.4921 -0.3347 -0.0394, -0.7874 -0.2182 -0.0394, -1.2795 -0.3347 -0.0394, -1.2795 -0.5315 -0.0394, -1.0827 -0.5315 -0.0394, -1.0827 -0.3347 -0.0394, -1.6142 -0.2182 -0.0394, -1.9488 -0.2182 -0.0394, 1.9488 -0.101 -0.0394, 0.7874 -0.101 -0.0394, 0.2712 -0.101 -0.0394, 0.2712 -0.2182 -0.0394, 0.1363 -0.101 -0.0394, -1.9488 -0.101 -0.0394, -1.6142 -0.101 -0.0394, -0.7874 -0.101 -0.0394, -0.2632 -0.101 -0.0394, 0.2712 0.6693 -0.0394, 0.7874 0.6693 -0.0394, 1.9488 0.5709 -0.0394, 0.2299 0.0179 -0.0394, 0.2179 -0.0153 -0.0394, 0.1691 -0.0153 -0.0394, 0.1579 0.0179 -0.0394, 0.1363 0.6693 -0.0394, 0.1406 0.0179 -0.0394, 0.1852 -0.1003 -0.0394, 0.2011 -0.1003 -0.0394, 0.2472 0.0179 -0.0394, 0.0369 0.0179 -0.0394, 0.0369 -0.1003 -0.0394, 0.0702 -0.1003 -0.0394, 0.0873 -0.0984 -0.0394, 0.1011 -0.0936 -0.0394, 0.1128 -0.086 -0.0394, 0.1261 -0.0146 -0.0394, 0.1194 -0.0042 -0.0394, 0.1098 0.0052 -0.0394, 0.0975 0.0124 -0.0394, 0.2953 -0.5315 -0.0394, 0.4921 -0.5315 -0.0394, 0.4921 -0.3347 -0.0394, 0.2953 -0.3347 -0.0394, 0.0839 0.0165 -0.0394, 0.069 0.0179 -0.0394, 0.0253 0.6693 -0.0394, 0.1174 -0.0817 -0.0394, 0.1245 -0.0725 -0.0394, 0.1294 -0.061 -0.0394, 0.1317 -0.0485 -0.0394, 0.1319 -0.0427 -0.0394, 0.1303 -0.0269 -0.0394, 0.0138 0.0179 -0.0394, -0.0496 0.0179 -0.0394, -0.0496 -0.1003 -0.0394, 0.0109 -0.1003 -0.0394, 0.0109 -0.0873 -0.0394, 0.0138 0.0049 -0.0394, -0.0337 -0.0354 -0.0394, -0.0337 0.0049 -0.0394, 0.0081 -0.0354 -0.0394, 0.0081 -0.0484 -0.0394, -0.0337 -0.0484 -0.0394, -0.0337 -0.0873 -0.0394, -0.2632 0.6693 -0.0394, -0.1705 0.0179 -0.0394, -0.231 0.0179 -0.0394, -0.231 -0.1003 -0.0394, -0.2152 -0.1003 -0.0394, -0.2152 0.0049 -0.0394, -0.1705 0.0049 -0.0394, -0.7874 0.6693 -0.0394, -1.6142 0.6693 -0.0394
            ]
        }
        coordIndex [
            0,1,2,-1,3,4,5,-1,3,6,7,-1,7,8,9,-1,9,10,7,-1,7,10,11,-1,7,11,3,-1,12,13,14,-1,14,13,15,-1,12,16,13,-1,13,16,17,-1,13,17,18,-1,19,20,21,-1,22,23,21,-1,21,23,24,-1,21,24,19,-1,25,26,27,-1,28,29,30,-1,25,27,30,-1,30,27,31,-1,30,31,28,-1,32,33,34,-1,34,33,35,-1,36,37,33,-1,33,37,38,-1,39,40,41,-1,41,40,35,-1,41,35,42,-1,42,35,33,-1,42,33,43,-1,43,33,38,-1,44,45,46,-1,44,46,47,-1,39,48,40,-1,40,48,49,-1,40,49,50,-1,50,51,40,-1,40,51,52,-1,40,52,53,-1,53,54,40,-1,40,54,55,-1,40,55,56,-1,57,58,59,-1,59,58,60,-1,56,61,40,-1,40,61,58,-1,40,58,62,-1,62,58,57,-1,63,64,65,-1,65,64,66,-1,65,66,67,-1,67,68,65,-1,65,68,69,-1,65,69,70,-1,45,71,46,-1,46,71,72,-1,46,72,73,-1,34,74,32,-1,32,74,75,-1,32,75,46,-1,46,75,76,-1,46,76,47,-1,77,78,36,-1,36,78,79,-1,36,79,37,-1,80,1,81,-1,81,1,0,-1,81,0,82,-1,82,0,83,-1,82,83,17,-1,17,83,84,-1,17,84,18,-1,6,3,85,-1,85,3,5,-1,85,5,86,-1,86,5,87,-1,86,87,88,-1,88,87,89,-1,88,89,90,-1,90,89,91,-1,90,91,92,-1,92,91,93,-1,92,93,94,-1,95,84,96,-1,96,84,83,-1,96,83,97,-1,97,83,98,-1,97,98,99,-1,99,98,100,-1,99,100,95,-1,95,100,84,-1,101,2,102,-1,102,2,1,-1,102,1,103,-1,103,1,80,-1,103,80,94,-1,89,104,91,-1,91,104,77,-1,91,77,93,-1,93,77,36,-1,105,104,106,-1,106,104,89,-1,106,89,107,-1,107,89,87,-1,107,87,108,-1,108,87,109,-1,108,109,105,-1,105,109,104,-1,110,111,5,-1,5,111,87,-1,87,111,112,-1,87,112,109,-1,109,112,113,-1,109,113,114,-1,4,115,5,-1,5,115,114,-1,5,114,110,-1,110,114,113,-1,116,100,117,-1,117,100,98,-1,117,98,118,-1,118,98,119,-1,118,119,120,-1,115,121,114,-1,114,121,122,-1,114,122,109,-1,109,122,123,-1,109,123,104,-1,104,123,124,-1,104,124,77,-1,77,124,65,-1,77,65,78,-1,78,65,70,-1,118,125,117,-1,117,125,126,-1,117,126,116,-1,116,126,20,-1,116,20,127,-1,127,20,19,-1,128,129,130,-1,125,131,132,-1,132,131,133,-1,132,133,120,-1,133,134,120,-1,120,134,135,-1,120,135,118,-1,118,135,136,-1,118,136,125,-1,125,136,128,-1,125,128,131,-1,131,128,130,-1,137,138,101,-1,139,140,120,-1,120,140,141,-1,120,141,142,-1,143,144,132,-1,132,144,145,-1,132,145,146,-1,138,139,101,-1,101,139,120,-1,101,120,2,-1,2,120,119,-1,2,119,0,-1,0,119,147,-1,0,147,83,-1,83,147,148,-1,83,148,98,-1,98,148,149,-1,98,149,119,-1,119,149,150,-1,119,150,147,-1,146,151,132,-1,132,151,152,-1,132,152,153,-1,142,154,120,-1,120,154,155,-1,120,155,156,-1,156,157,120,-1,120,157,158,-1,120,158,132,-1,132,158,159,-1,132,159,143,-1,153,160,32,-1,32,160,161,-1,32,161,33,-1,33,161,162,-1,33,162,163,-1,164,165,101,-1,94,93,103,-1,103,93,36,-1,103,36,102,-1,102,36,33,-1,102,33,101,-1,101,33,163,-1,101,163,164,-1,152,137,153,-1,153,137,101,-1,153,101,160,-1,160,101,165,-1,166,167,168,-1,168,167,165,-1,168,165,169,-1,169,165,164,-1,169,164,170,-1,170,164,171,-1,172,46,173,-1,174,175,124,-1,124,175,176,-1,124,176,65,-1,65,176,177,-1,65,177,178,-1,73,63,46,-1,46,63,65,-1,46,65,173,-1,173,65,178,-1,173,174,172,-1,172,174,124,-1,172,124,179,-1,179,124,123,-1,179,123,180,-1,180,123,122,-1,180,122,25,-1,25,122,121,-1,25,121,26,-1,
        ]
    }
}
Shape{
    appearance Appearance {
        material  Material 	{
            diffuseColor 0.9686274509803922 0.8784313725490196 0.6
            specularColor 0.6784313725490196 0.615686274509804 0.4196078431372549
            ambientIntensity 0.8737
            transparency 0.0
            shininess 0.5
        }
    }
    geometry IndexedFaceSet {
        ccw TRUE
        solid FALSE
        coord DEF co Coordinate {
            point [
                -1.2795 -0.5315 -1.2598, -1.2402 -0.4921 -1.378, -1.0827 -0.5315 -1.2598, -1.122 -0.4921 -1.378, -1.2402 -0.374 -1.378, -1.2795 -0.3347 -1.2598, -1.0827 -0.3347 -1.2598, -1.122 -0.374 -1.378, -1.2795 -0.3347 -0.0394, -1.0827 -0.3347 -0.0394, -1.0827 -0.5315 -0.0394, -1.2795 -0.5315 -0.0394, -0.4921 -0.5315 -1.2598, -0.4528 -0.4921 -1.378, -0.2953 -0.5315 -1.2598, -0.3346 -0.4921 -1.378, -0.4528 -0.374 -1.378, -0.4921 -0.3347 -1.2598, -0.2953 -0.3347 -1.2598, -0.3346 -0.374 -1.378, -0.4921 -0.3347 -0.0394, -0.2953 -0.3347 -0.0394, -0.2953 -0.5315 -0.0394, -0.4921 -0.5315 -0.0394
            ]
        }
        coordIndex [
            0,1,2,-1,2,1,3,-1,1,0,4,-1,4,0,5,-1,6,7,5,-1,5,7,4,-1,2,3,6,-1,6,3,7,-1,1,4,3,-1,3,4,7,-1,5,8,6,-1,6,8,9,-1,6,9,2,-1,2,9,10,-1,2,10,0,-1,0,10,11,-1,0,11,5,-1,5,11,8,-1,12,13,14,-1,14,13,15,-1,13,12,16,-1,16,12,17,-1,18,19,17,-1,17,19,16,-1,14,15,18,-1,18,15,19,-1,13,16,15,-1,15,16,19,-1,17,20,18,-1,18,20,21,-1,18,21,14,-1,14,21,22,-1,14,22,12,-1,12,22,23,-1,12,23,17,-1,17,23,20,-1,
        ]
    }
}
Shape{
    appearance Appearance {
        material  Material 	{
            diffuseColor 1.0 1.0 1.0
            specularColor 0.30196078431372547 0.30196078431372547 0.30196078431372547
            ambientIntensity 1.0
            transparency 0.0
            shininess 0.5
        }
    }
    geometry IndexedFaceSet {
        ccw TRUE
        solid FALSE
        coord DEF co Coordinate {
            point [
                1.8307 0.5512 2.3228, 1.8307 -0.1575 2.3228, 1.9488 -0.1575 2.3228, -1.9488 -0.1575 2.3228, -1.8307 -0.1575 2.3228, -1.9488 0.5709 2.3228, -1.8307 0.5512 2.3228, -1.9455 0.5963 2.3228, -1.9356 0.6201 2.3228, 1.9488 0.5709 2.3228, 1.9464 0.5928 2.3228, 1.9391 0.6136 2.3228, 1.9273 0.6322 2.3228, 1.9118 0.6478 2.3228, 1.8931 0.6595 2.3228, 1.8723 0.6668 2.3228, 1.8504 0.6693 2.3228, -1.8504 0.6693 2.3228, -1.8759 0.6659 2.3228, -1.8996 0.6561 2.3228, -1.92 0.6405 2.3228, -0.7874 -1.1024 2.3228, -0.7874 -0.9843 2.3228, -1.8504 -1.1024 2.3228, -1.8307 -0.9843 2.3228, -1.8759 -1.099 2.3228, -1.8996 -1.0892 2.3228, -1.8307 -0.4724 2.3228, -1.9488 -0.4724 2.3228, -1.9488 -1.0039 2.3228, -1.9455 -1.0294 2.3228, -1.9356 -1.0532 2.3228, -1.92 -1.0735 2.3228, -1.8504 -1.1024 0.1575, -1.8504 -1.1024 -0.0394, -1.6142 -1.1024 -0.0394, -0.7874 -1.1024 -0.0394, -0.2632 -1.1024 -0.0394, -0.1655 -1.1024 -0.0394, -0.0611 -1.1024 -0.0394, 0.0253 -1.1024 -0.0394, 1.8504 -1.1024 0.1575, 0.1363 -1.1024 -0.0394, 0.2712 -1.1024 -0.0394, 0.7874 -1.1024 -0.0394, 1.8504 -1.1024 -0.0394, 1.9488 -0.9449 0.1575, 1.9488 -1.0039 0.1575, 1.9488 -1.0039 -0.0394, 1.9488 0.5709 -0.0394, 1.9488 -0.101 -0.0394, 1.9488 -0.2182 -0.0394, 1.9488 -0.191 1.5932, 1.9488 -0.2153 1.5689, 1.9488 -0.9449 0.3937, 1.9488 -0.2444 1.5506, 1.9488 -0.2769 1.5393, 1.9488 -0.311 1.5354, 1.9488 -0.3189 1.5354, 1.9488 -0.4389 1.5932, 1.9488 -0.4572 1.6224, 1.9488 -1.0039 0.3937, 1.9488 -0.4686 1.6548, 1.9488 -1.0039 2.3228, 1.9488 -0.4724 1.689, 1.9488 -0.4724 2.3228, 1.9488 -0.1575 1.689, 1.9488 -0.1613 1.6548, 1.9488 -0.1727 1.6224, 1.9488 -0.8169 -0.0394, 1.9488 -0.3531 1.5393, 1.9488 -0.3855 1.5506, 1.9488 -0.4146 1.5689, 1.8504 0.6693 -0.0394, 0.7874 0.6693 -0.0394, 0.2712 0.6693 -0.0394, 0.1363 0.6693 -0.0394, 0.0253 0.6693 -0.0394, -0.0611 0.6693 -0.0394, -0.1655 0.6693 -0.0394, -0.2632 0.6693 -0.0394, -0.7874 0.6693 -0.0394, -1.6142 0.6693 -0.0394, -1.8504 0.6693 -0.0394, -1.9488 -1.0039 -0.0394, -1.9488 -1.0039 0.1575, -1.9488 -0.8169 -0.0394, -1.9488 -0.9449 0.1575, -1.9488 0.5709 -0.0394, -1.9488 -0.101 -0.0394, -1.9488 -0.2182 -0.0394, -1.9488 -0.4724 1.689, -1.9488 -1.0039 0.3937, -1.9488 -0.4686 1.6548, -1.9488 -0.4572 1.6224, -1.9488 -0.311 1.5354, -1.9488 -0.9449 0.3937, -1.9488 -0.3189 1.5354, -1.9488 -0.3531 1.5393, -1.9488 -0.2769 1.5393, -1.9488 -0.2444 1.5506, -1.9488 -0.2153 1.5689, -1.9488 -0.191 1.5932, -1.9488 -0.1727 1.6224, -1.9488 -0.4389 1.5932, -1.9488 -0.4146 1.5689, -1.9488 -0.3855 1.5506, -1.9488 -0.1613 1.6548, -1.9488 -0.1575 1.689, -1.1825 -1.1024 0.7939, -1.5953 -1.1024 0.7939, -1.8504 -1.1024 0.3937, -1.5953 -1.1024 1.5011, -0.7874 -1.1024 0.748, 1.8504 -1.1024 0.3937, 0.7874 -1.1024 0.748, 1.1825 -1.1024 0.7939, 0.7874 -1.1024 2.3228, 1.1825 -1.1024 1.5011, 1.8504 -1.1024 2.3228, 1.5953 -1.1024 1.5011, 1.5953 -1.1024 0.7939, -1.1825 -1.1024 1.5011, 1.8307 -0.4724 2.3228, 1.8307 -0.9843 2.3228, 1.9455 -1.0294 2.3228, 1.9356 -1.0532 2.3228, 0.7874 -0.9843 2.3228, 1.8759 -1.099 2.3228, 1.8996 -1.0892 2.3228, 1.92 -1.0735 2.3228, 1.5953 -0.9055 1.5011, 1.752 -0.9055 2.2441, 1.752 -0.9055 0.3543, -0.7874 -0.9055 0.748, 0.7874 -0.9055 0.748, -1.752 -0.9055 0.3543, -1.1825 -0.9055 0.7939, -0.7874 -0.9055 2.2441, -1.1825 -0.9055 1.5011, -1.752 -0.9055 2.2441, -1.5953 -0.9055 1.5011, -1.5953 -0.9055 0.7939, 0.7874 -0.9055 2.2441, 1.1825 -0.9055 1.5011, 1.1825 -0.9055 0.7939, 1.5953 -0.9055 0.7939, -1.752 -0.3189 1.5354, -1.752 -0.3531 1.5393, -1.752 -0.1613 1.6548, -1.752 0.4724 0.3543, -1.752 -0.1575 1.689, -1.752 0.4724 2.2441, -1.752 -0.1575 2.2441, -1.752 -0.1727 1.6224, -1.752 -0.191 1.5932, -1.752 -0.2153 1.5689, -1.752 -0.3855 1.5506, -1.752 -0.4146 1.5689, -1.752 -0.4389 1.5932, -1.752 -0.2444 1.5506, -1.752 -0.2769 1.5393, -1.752 -0.311 1.5354, -1.752 -0.4572 1.6224, -1.752 -0.4686 1.6548, -1.752 -0.4724 1.689, -1.752 -0.4724 2.2441, 1.752 0.4724 2.2441, 1.752 0.4724 0.3543, 1.752 -0.2769 1.5393, 1.752 -0.311 1.5354, 1.752 -0.3189 1.5354, 1.752 -0.2444 1.5506, 1.752 -0.2153 1.5689, 1.752 -0.191 1.5932, 1.752 -0.4686 1.6548, 1.752 -0.4572 1.6224, 1.752 -0.4389 1.5932, 1.752 -0.4146 1.5689, 1.752 -0.3855 1.5506, 1.752 -0.3531 1.5393, 1.752 -0.4724 1.689, 1.752 -0.4724 2.2441, 1.752 -0.1727 1.6224, 1.752 -0.1613 1.6548, 1.752 -0.1575 1.689, 1.752 -0.1575 2.2441, 1.0827 -0.3347 0.3543, 1.2795 -0.3347 0.3543, -1.0827 -0.5315 0.3543, -1.2795 -0.5315 0.3543, 1.2795 -0.5315 0.3543, 1.0827 -0.5315 0.3543, 0.2953 -0.5315 0.3543, 0.4921 -0.5315 0.3543, 0.4921 -0.3347 0.3543, -0.4921 -0.5315 0.3543, -0.4921 -0.3347 0.3543, -1.0827 -0.3347 0.3543, -1.2795 -0.3347 0.3543, -0.2953 -0.3347 0.3543, -0.2953 -0.5315 0.3543, 0.2953 -0.3347 0.3543, -1.92 -1.0735 0.1575, -1.8996 -1.0892 0.1575, -1.8759 -1.099 0.1575, 1.8996 -1.0892 0.1575, 1.92 -1.0735 0.1575, 1.9356 -1.0532 0.1575, -1.9356 -1.0532 0.1575, 1.9455 -1.0294 0.1575, -1.9455 -1.0294 0.1575, 1.8759 -1.099 0.1575, 1.9356 -1.0532 0.3937, 1.92 -1.0735 0.3937, 1.8996 -1.0892 0.3937, 1.9455 -1.0294 0.3937, 1.8759 -1.099 0.3937, -1.8759 -1.099 0.3937, -1.8996 -1.0892 0.3937, -1.92 -1.0735 0.3937, -1.9356 -1.0532 0.3937, -1.9455 -1.0294 0.3937, -1.8759 0.6659 -0.0394, -1.8996 0.6561 -0.0394, -1.92 0.6405 -0.0394, -1.9356 0.6201 -0.0394, -1.9455 0.5963 -0.0394, -1.9455 -1.0294 -0.0394, -1.9356 -1.0532 -0.0394, -1.92 -1.0735 -0.0394, -1.8996 -1.0892 -0.0394, -1.8759 -1.099 -0.0394, 1.9455 0.5963 -0.0394, 1.9455 0.5963 2.3228, 1.9356 0.6201 -0.0394, 1.9356 0.6201 2.3228, 1.92 0.6405 -0.0394, 1.92 0.6405 2.3228, 1.8996 0.6561 -0.0394, 1.8996 0.6561 2.3228, 1.8759 0.6659 -0.0394, 1.8759 0.6659 2.3228, 1.8759 -1.099 -0.0394, 1.8996 -1.0892 -0.0394, 1.92 -1.0735 -0.0394, 1.9356 -1.0532 -0.0394, 1.9455 -1.0294 -0.0394
            ]
        }
        coordIndex [
            0,1,2,-1,3,4,5,-1,5,4,6,-1,5,6,7,-1,7,6,8,-1,2,9,0,-1,0,9,10,-1,0,10,11,-1,11,12,0,-1,0,12,13,-1,0,13,14,-1,14,15,0,-1,0,15,16,-1,0,16,6,-1,6,16,17,-1,6,17,18,-1,18,19,6,-1,6,19,20,-1,6,20,8,-1,21,22,23,-1,23,22,24,-1,23,24,25,-1,25,24,26,-1,27,28,24,-1,24,28,29,-1,24,29,30,-1,30,31,24,-1,24,31,32,-1,24,32,26,-1,33,34,35,-1,35,36,33,-1,33,36,37,-1,33,37,38,-1,38,39,33,-1,33,39,40,-1,33,40,41,-1,41,40,42,-1,42,43,41,-1,41,43,44,-1,41,44,45,-1,46,47,48,-1,49,9,50,-1,50,9,51,-1,52,53,54,-1,54,53,55,-1,55,56,54,-1,54,56,57,-1,54,57,58,-1,59,60,61,-1,61,60,62,-1,61,62,63,-1,63,62,64,-1,63,64,65,-1,2,66,9,-1,9,66,67,-1,9,67,68,-1,68,52,9,-1,9,52,54,-1,9,54,51,-1,51,54,46,-1,51,46,69,-1,69,46,48,-1,58,70,54,-1,54,70,71,-1,54,71,61,-1,61,71,72,-1,61,72,59,-1,73,74,16,-1,16,74,75,-1,75,76,16,-1,16,76,77,-1,16,77,17,-1,77,78,17,-1,17,78,79,-1,17,79,80,-1,80,81,17,-1,17,81,82,-1,17,82,83,-1,84,85,86,-1,86,85,87,-1,88,89,5,-1,5,89,90,-1,29,28,91,-1,29,91,92,-1,92,91,93,-1,92,93,94,-1,95,96,97,-1,97,96,98,-1,95,99,96,-1,96,99,100,-1,96,100,101,-1,102,103,5,-1,94,104,92,-1,92,104,105,-1,92,105,96,-1,96,105,106,-1,96,106,98,-1,101,102,96,-1,96,102,5,-1,96,5,87,-1,87,5,90,-1,87,90,86,-1,103,107,5,-1,5,107,108,-1,5,108,3,-1,109,110,111,-1,111,110,112,-1,113,114,115,-1,115,114,116,-1,115,116,117,-1,117,116,118,-1,117,118,119,-1,119,118,120,-1,119,120,114,-1,114,120,121,-1,114,121,116,-1,111,114,109,-1,109,114,113,-1,109,113,122,-1,122,113,21,-1,122,21,112,-1,112,21,23,-1,112,23,111,-1,65,123,63,-1,63,123,124,-1,63,124,125,-1,125,124,126,-1,127,117,124,-1,124,117,119,-1,124,119,128,-1,128,129,124,-1,124,129,130,-1,124,130,126,-1,131,132,133,-1,134,135,133,-1,133,136,134,-1,134,136,137,-1,134,137,138,-1,138,137,139,-1,138,139,140,-1,140,139,141,-1,140,141,136,-1,136,141,142,-1,136,142,137,-1,132,131,143,-1,143,131,144,-1,143,144,135,-1,135,144,145,-1,135,145,133,-1,133,145,146,-1,133,146,131,-1,147,148,136,-1,149,150,151,-1,151,150,152,-1,151,152,153,-1,149,154,150,-1,150,154,155,-1,150,155,156,-1,148,157,136,-1,136,157,158,-1,136,158,159,-1,156,160,150,-1,150,160,161,-1,150,161,136,-1,136,161,162,-1,136,162,147,-1,159,163,136,-1,136,163,164,-1,136,164,140,-1,140,164,165,-1,140,165,166,-1,152,150,167,-1,167,150,168,-1,169,168,170,-1,170,168,133,-1,170,133,171,-1,169,172,168,-1,168,172,173,-1,168,173,174,-1,175,176,133,-1,133,176,177,-1,133,177,178,-1,178,179,133,-1,133,179,180,-1,133,180,171,-1,175,133,181,-1,181,133,132,-1,181,132,182,-1,174,183,168,-1,168,183,184,-1,168,184,167,-1,167,184,185,-1,167,185,186,-1,187,188,168,-1,133,189,136,-1,136,189,190,-1,136,190,150,-1,168,188,133,-1,133,188,191,-1,133,191,192,-1,193,133,194,-1,194,133,192,-1,194,192,195,-1,196,197,198,-1,190,199,150,-1,150,199,198,-1,150,198,168,-1,168,198,197,-1,168,197,200,-1,198,189,196,-1,196,189,133,-1,196,133,201,-1,201,133,193,-1,201,193,200,-1,200,193,202,-1,200,202,168,-1,168,202,195,-1,168,195,187,-1,187,195,192,-1,143,135,127,-1,127,135,115,-1,127,115,117,-1,135,134,115,-1,115,134,113,-1,134,138,113,-1,113,138,22,-1,113,22,21,-1,142,141,110,-1,110,141,112,-1,141,139,112,-1,112,139,122,-1,139,137,122,-1,122,137,109,-1,137,142,109,-1,109,142,110,-1,131,146,120,-1,120,146,121,-1,146,145,121,-1,121,145,116,-1,145,144,116,-1,116,144,118,-1,144,131,118,-1,118,131,120,-1,46,87,85,-1,203,204,205,-1,206,207,208,-1,203,205,209,-1,210,47,41,-1,41,47,46,-1,41,46,33,-1,33,46,85,-1,33,85,205,-1,205,85,211,-1,205,211,209,-1,210,41,208,-1,208,41,212,-1,208,212,206,-1,111,96,114,-1,114,96,54,-1,114,54,61,-1,213,214,215,-1,61,216,114,-1,114,216,213,-1,114,213,217,-1,217,213,215,-1,218,219,220,-1,220,221,218,-1,218,221,222,-1,218,222,111,-1,111,222,92,-1,111,92,96,-1,96,87,54,-1,54,87,46,-1,123,65,182,-1,182,65,64,-1,182,64,181,-1,181,64,175,-1,175,64,62,-1,175,62,176,-1,176,62,60,-1,176,60,177,-1,177,60,59,-1,177,59,178,-1,178,59,72,-1,178,72,179,-1,179,72,71,-1,179,71,180,-1,180,71,70,-1,180,70,171,-1,171,70,58,-1,57,170,58,-1,58,170,171,-1,170,57,169,-1,169,57,56,-1,169,56,172,-1,172,56,55,-1,172,55,173,-1,173,55,53,-1,173,53,174,-1,174,53,52,-1,174,52,183,-1,183,52,68,-1,183,68,184,-1,184,68,67,-1,184,67,185,-1,185,67,66,-1,185,66,186,-1,186,66,2,-1,186,2,1,-1,151,153,108,-1,108,153,4,-1,108,4,3,-1,95,162,99,-1,99,162,161,-1,99,161,100,-1,100,161,160,-1,100,160,101,-1,101,160,156,-1,101,156,102,-1,102,156,155,-1,102,155,103,-1,103,155,154,-1,103,154,107,-1,107,154,149,-1,107,149,108,-1,108,149,151,-1,97,147,95,-1,95,147,162,-1,91,165,93,-1,93,165,164,-1,93,164,94,-1,94,164,163,-1,94,163,104,-1,104,163,159,-1,104,159,105,-1,105,159,158,-1,105,158,106,-1,106,158,157,-1,106,157,98,-1,98,157,148,-1,98,148,97,-1,97,148,147,-1,166,165,27,-1,27,165,91,-1,27,91,28,-1,17,83,223,-1,17,223,18,-1,18,223,224,-1,18,224,19,-1,19,224,225,-1,19,225,20,-1,20,225,226,-1,20,226,8,-1,8,226,227,-1,8,227,7,-1,7,227,88,-1,7,88,5,-1,85,84,228,-1,85,228,211,-1,211,228,229,-1,211,229,209,-1,209,229,230,-1,209,230,203,-1,203,230,231,-1,203,231,204,-1,204,231,232,-1,204,232,205,-1,205,232,34,-1,205,34,33,-1,29,92,222,-1,29,222,30,-1,30,222,221,-1,30,221,31,-1,31,221,220,-1,31,220,32,-1,32,220,219,-1,32,219,26,-1,26,219,218,-1,26,218,25,-1,25,218,111,-1,25,111,23,-1,9,49,233,-1,9,233,234,-1,234,233,235,-1,234,235,236,-1,236,235,237,-1,236,237,238,-1,238,237,239,-1,238,239,240,-1,240,239,241,-1,240,241,242,-1,242,241,73,-1,242,73,16,-1,41,45,243,-1,41,243,212,-1,212,243,244,-1,212,244,206,-1,206,244,245,-1,206,245,207,-1,207,245,246,-1,207,246,208,-1,208,246,247,-1,208,247,210,-1,210,247,48,-1,210,48,47,-1,119,114,217,-1,119,217,128,-1,128,217,215,-1,128,215,129,-1,129,215,214,-1,129,214,130,-1,130,214,213,-1,130,213,126,-1,126,213,216,-1,126,216,125,-1,125,216,61,-1,125,61,63,-1,
        ]
    }
}
Shape{
    appearance Appearance {
        material  Material 	{
            diffuseColor 0.9686274509803922 0.8784313725490196 0.6
            specularColor 0.6784313725490196 0.615686274509804 0.4196078431372549
            ambientIntensity 0.8737
            transparency 0.0
            shininess 0.5
        }
    }
    geometry IndexedFaceSet {
        ccw TRUE
        solid FALSE
        coord DEF co Coordinate {
            point [
                1.122 -0.374 1.9291, 1.122 -0.4921 1.9291, 1.2402 -0.374 1.9291, 1.2402 -0.4921 1.9291, 1.2795 -0.3347 1.811, 1.2795 -0.3347 0.3543, 1.0827 -0.3347 1.811, 1.0827 -0.3347 0.3543, 1.2795 -0.5315 1.811, 1.2795 -0.5315 0.3543, 1.0827 -0.5315 1.811, 1.0827 -0.5315 0.3543, 1.0827 -0.5315 -1.2598, 1.0827 -0.5315 -0.0394, 1.0827 -0.3347 -1.2598, 1.0827 -0.3347 -0.0394, 1.2795 -0.5315 -1.2598, 1.2795 -0.5315 -0.0394, 1.2795 -0.3347 -1.2598, 1.2795 -0.3347 -0.0394, 1.122 -0.4921 -1.378, 1.122 -0.374 -1.378, 1.2402 -0.4921 -1.378, 1.2402 -0.374 -1.378, 0.2953 -0.5315 -1.2598, 0.2953 -0.5315 -0.0394, 0.2953 -0.3347 -1.2598, 0.2953 -0.3347 -0.0394, 0.4921 -0.5315 -1.2598, 0.4921 -0.5315 -0.0394, 0.4921 -0.3347 -1.2598, 0.4921 -0.3347 -0.0394, 0.3346 -0.4921 -1.378, 0.3346 -0.374 -1.378, 0.4528 -0.4921 -1.378, 0.4528 -0.374 -1.378, 0.3346 -0.374 1.9291, 0.3346 -0.4921 1.9291, 0.4528 -0.374 1.9291, 0.4528 -0.4921 1.9291, 0.4921 -0.3347 1.811, 0.4921 -0.3347 0.3543, 0.2953 -0.3347 1.811, 0.2953 -0.3347 0.3543, 0.4921 -0.5315 1.811, 0.4921 -0.5315 0.3543, 0.2953 -0.5315 1.811, 0.2953 -0.5315 0.3543, -0.4528 -0.374 1.9291, -0.4528 -0.4921 1.9291, -0.3346 -0.374 1.9291, -0.3346 -0.4921 1.9291, -0.2953 -0.3347 1.811, -0.2953 -0.3347 0.3543, -0.4921 -0.3347 1.811, -0.4921 -0.3347 0.3543, -0.2953 -0.5315 1.811, -0.2953 -0.5315 0.3543, -0.4921 -0.5315 1.811, -0.4921 -0.5315 0.3543, -1.2402 -0.374 1.9291, -1.2402 -0.4921 1.9291, -1.122 -0.374 1.9291, -1.122 -0.4921 1.9291, -1.0827 -0.3347 1.811, -1.0827 -0.3347 0.3543, -1.2795 -0.3347 1.811, -1.2795 -0.3347 0.3543, -1.0827 -0.5315 1.811, -1.0827 -0.5315 0.3543, -1.2795 -0.5315 1.811, -1.2795 -0.5315 0.3543
            ]
        }
        coordIndex [
            0,1,2,-1,2,1,3,-1,4,5,6,-1,6,5,7,-1,8,9,4,-1,4,9,5,-1,10,11,8,-1,8,11,9,-1,6,7,10,-1,10,7,11,-1,12,13,14,-1,14,13,15,-1,16,17,12,-1,12,17,13,-1,18,19,16,-1,16,19,17,-1,14,15,18,-1,18,15,19,-1,20,21,22,-1,22,21,23,-1,1,10,3,-1,3,10,8,-1,0,6,1,-1,1,6,10,-1,4,2,8,-1,8,2,3,-1,2,4,0,-1,0,4,6,-1,18,23,14,-1,14,23,21,-1,16,22,18,-1,18,22,23,-1,20,12,21,-1,21,12,14,-1,12,20,16,-1,16,20,22,-1,24,25,26,-1,26,25,27,-1,28,29,24,-1,24,29,25,-1,30,31,28,-1,28,31,29,-1,26,27,30,-1,30,27,31,-1,32,33,34,-1,34,33,35,-1,28,34,30,-1,30,34,35,-1,30,35,26,-1,26,35,33,-1,32,24,33,-1,33,24,26,-1,24,32,28,-1,28,32,34,-1,36,37,38,-1,38,37,39,-1,40,41,42,-1,42,41,43,-1,44,45,40,-1,40,45,41,-1,46,47,44,-1,44,47,45,-1,42,43,46,-1,46,43,47,-1,36,42,37,-1,37,42,46,-1,37,46,39,-1,39,46,44,-1,40,38,44,-1,44,38,39,-1,38,40,36,-1,36,40,42,-1,48,49,50,-1,50,49,51,-1,52,53,54,-1,54,53,55,-1,56,57,52,-1,52,57,53,-1,58,59,56,-1,56,59,57,-1,54,55,58,-1,58,55,59,-1,48,54,49,-1,49,54,58,-1,49,58,51,-1,51,58,56,-1,52,50,56,-1,56,50,51,-1,50,52,48,-1,48,52,54,-1,60,61,62,-1,62,61,63,-1,64,65,66,-1,66,65,67,-1,68,69,64,-1,64,69,65,-1,70,71,68,-1,68,71,69,-1,66,67,70,-1,70,67,71,-1,60,66,61,-1,61,66,70,-1,61,70,63,-1,63,70,68,-1,64,62,68,-1,68,62,63,-1,62,64,60,-1,60,64,66,-1,
        ]
    }
}
Shape{
    appearance Appearance {
        material  Material 	{
            diffuseColor 1.0 1.0 1.0
            specularColor 0.8784313725490196 0.8784313725490196 0.8784313725490196
            ambientIntensity 1.0
            transparency 0.0
            shininess 0.5
        }
    }
    geometry IndexedFaceSet {
        ccw TRUE
        solid FALSE
        coord DEF co Coordinate {
            point [
                0.1731 -0.0282 -0.0354, 0.1691 -0.0153 -0.0354, 0.2126 -0.0282 -0.0354, 0.2179 -0.0153 -0.0354, 0.1907 -0.0776 -0.0354, 0.1852 -0.1003 -0.0354, 0.1406 0.0179 -0.0354, 0.1579 0.0179 -0.0354, 0.1919 -0.0817 -0.0354, 0.1926 -0.0859 -0.0354, 0.2011 -0.1003 -0.0354, 0.193 -0.0859 -0.0354, 0.1938 -0.0817 -0.0354, 0.1948 -0.0776 -0.0354, 0.2472 0.0179 -0.0354, 0.2299 0.0179 -0.0354, 0.2179 -0.0153 -0.0394, 0.2299 0.0179 -0.0394, 0.1691 -0.0153 -0.0394, 0.1579 0.0179 -0.0394, 0.1406 0.0179 -0.0394, 0.1852 -0.1003 -0.0394, 0.2011 -0.1003 -0.0394, 0.2472 0.0179 -0.0394, 0.1948 -0.0776 -0.0394, 0.1938 -0.0817 -0.0394, 0.193 -0.0859 -0.0394, 0.1926 -0.0859 -0.0394, 0.1919 -0.0817 -0.0394, 0.1907 -0.0776 -0.0394, 0.1731 -0.0282 -0.0394, 0.2126 -0.0282 -0.0394, 0.0702 -0.1003 -0.0354, 0.0702 -0.1003 -0.0394, 0.0369 -0.1003 -0.0354, 0.0369 -0.1003 -0.0394, 0.0873 -0.0984 -0.0354, 0.0873 -0.0984 -0.0394, 0.1011 -0.0936 -0.0354, 0.1011 -0.0936 -0.0394, 0.1128 -0.086 -0.0354, 0.1128 -0.086 -0.0394, 0.1174 -0.0817 -0.0354, 0.1174 -0.0817 -0.0394, 0.1245 -0.0725 -0.0354, 0.1245 -0.0725 -0.0394, 0.1294 -0.061 -0.0354, 0.1294 -0.061 -0.0394, 0.1317 -0.0485 -0.0354, 0.1317 -0.0485 -0.0394, 0.1319 -0.0427 -0.0354, 0.1319 -0.0427 -0.0394, 0.1303 -0.0269 -0.0354, 0.1303 -0.0269 -0.0394, 0.1261 -0.0146 -0.0354, 0.1261 -0.0146 -0.0394, 0.1194 -0.0042 -0.0354, 0.1194 -0.0042 -0.0394, 0.1098 0.0052 -0.0354, 0.1098 0.0052 -0.0394, 0.0975 0.0124 -0.0354, 0.0975 0.0124 -0.0394, 0.0839 0.0165 -0.0354, 0.0839 0.0165 -0.0394, 0.069 0.0179 -0.0354, 0.069 0.0179 -0.0394, 0.0369 0.0179 -0.0354, 0.0369 0.0179 -0.0394, 0.1161 -0.0423 -0.0354, 0.1151 -0.0541 -0.0354, 0.1123 -0.0634 -0.0354, 0.1083 -0.0707 -0.0354, 0.1026 -0.0768 -0.0354, 0.0939 -0.0824 -0.0354, 0.0842 -0.0858 -0.0354, 0.0701 -0.0873 -0.0354, 0.0527 -0.0873 -0.0354, 0.0527 0.0049 -0.0354, 0.0695 0.0049 -0.0354, 0.082 0.0037 -0.0354, 0.0919 0.0006 -0.0354, 0.0999 -0.0041 -0.0354, 0.1066 -0.0107 -0.0354, 0.1115 -0.0187 -0.0354, 0.1146 -0.0281 -0.0354, 0.0695 0.0049 -0.0394, 0.0527 0.0049 -0.0394, 0.082 0.0037 -0.0394, 0.0919 0.0006 -0.0394, 0.0999 -0.0041 -0.0394, 0.1066 -0.0107 -0.0394, 0.1115 -0.0187 -0.0394, 0.1146 -0.0281 -0.0394, 0.1161 -0.0423 -0.0394, 0.1151 -0.0541 -0.0394, 0.1123 -0.0634 -0.0394, 0.1083 -0.0707 -0.0394, 0.1026 -0.0768 -0.0394, 0.0939 -0.0824 -0.0394, 0.0842 -0.0858 -0.0394, 0.0701 -0.0873 -0.0394, 0.0527 -0.0873 -0.0394, -0.0496 -0.1003 -0.0354, -0.0496 -0.1003 -0.0394, -0.0496 0.0179 -0.0354, -0.0496 0.0179 -0.0394, 0.0109 -0.1003 -0.0354, 0.0109 -0.1003 -0.0394, 0.0109 -0.0873 -0.0354, 0.0109 -0.0873 -0.0394, -0.0337 -0.0873 -0.0354, -0.0337 -0.0873 -0.0394, -0.0337 -0.0484 -0.0354, -0.0337 -0.0484 -0.0394, 0.0081 -0.0484 -0.0354, 0.0081 -0.0484 -0.0394, 0.0081 -0.0354 -0.0354, 0.0081 -0.0354 -0.0394, -0.0337 -0.0354 -0.0354, -0.0337 -0.0354 -0.0394, -0.0337 0.0049 -0.0354, -0.0337 0.0049 -0.0394, 0.0138 0.0049 -0.0354, 0.0138 0.0049 -0.0394, 0.0138 0.0179 -0.0354, 0.0138 0.0179 -0.0394, -0.1051 0.0193 -0.0394, -0.1051 0.0193 -0.0354, -0.1196 0.0178 -0.0354, -0.1196 0.0178 -0.0394, -0.1311 0.0139 -0.0354, -0.1311 0.0139 -0.0394, -0.1407 0.0077 -0.0354, -0.1407 0.0077 -0.0394, -0.1493 -0.0014 -0.0354, -0.1493 -0.0014 -0.0394, -0.1556 -0.0125 -0.0354, -0.1556 -0.0125 -0.0394, -0.1593 -0.0252 -0.0354, -0.1593 -0.0252 -0.0394, -0.1605 -0.039 -0.0354, -0.1605 -0.039 -0.0394, -0.1588 -0.0557 -0.0354, -0.1588 -0.0557 -0.0394, -0.1542 -0.0692 -0.0354, -0.1542 -0.0692 -0.0394, -0.1472 -0.0804 -0.0354, -0.1472 -0.0804 -0.0394, -0.1369 -0.0903 -0.0354, -0.1369 -0.0903 -0.0394, -0.1258 -0.0967 -0.0354, -0.1258 -0.0967 -0.0394, -0.1129 -0.1006 -0.0354, -0.1129 -0.1006 -0.0394, -0.1004 -0.1017 -0.0354, -0.1004 -0.1017 -0.0394, -0.1087 -0.101 -0.0394, -0.09 -0.101 -0.0394, -0.0863 -0.1007 -0.0354, -0.0863 -0.1007 -0.0394, -0.0726 -0.097 -0.0354, -0.0726 -0.097 -0.0394, -0.0726 -0.0812 -0.0354, -0.0726 -0.0812 -0.0394, -0.0859 -0.0869 -0.0354, -0.0859 -0.0869 -0.0394, -0.1003 -0.0887 -0.0354, -0.1003 -0.0887 -0.0394, -0.1119 -0.0874 -0.0354, -0.1119 -0.0874 -0.0394, -0.1207 -0.0843 -0.0354, -0.1207 -0.0843 -0.0394, -0.129 -0.0786 -0.0354, -0.129 -0.0786 -0.0394, -0.1361 -0.0707 -0.0354, -0.1361 -0.0707 -0.0394, -0.141 -0.0616 -0.0354, -0.141 -0.0616 -0.0394, -0.1441 -0.0488 -0.0354, -0.1441 -0.0488 -0.0394, -0.1446 -0.0399 -0.0354, -0.1446 -0.0399 -0.0394, -0.1434 -0.0272 -0.0354, -0.1434 -0.0272 -0.0394, -0.1402 -0.017 -0.0354, -0.1402 -0.017 -0.0394, -0.1353 -0.0088 -0.0354, -0.1353 -0.0088 -0.0394, -0.1298 -0.003 -0.0354, -0.1298 -0.003 -0.0394, -0.1226 0.0019 -0.0354, -0.1226 0.0019 -0.0394, -0.1139 0.0051 -0.0354, -0.1139 0.0051 -0.0394, -0.1029 0.0063 -0.0354, -0.1029 0.0063 -0.0394, -0.0872 0.0046 -0.0354, -0.0872 0.0046 -0.0394, -0.0747 -0.0001 -0.0354, -0.0747 -0.0001 -0.0394, -0.0726 -0.0012 -0.0354, -0.0726 -0.0012 -0.0394, -0.0726 0.0117 -0.0354, -0.0726 0.0117 -0.0394, -0.0852 0.0169 -0.0354, -0.0852 0.0169 -0.0394, -0.1019 0.0192 -0.0354, -0.1019 0.0192 -0.0394, -0.231 -0.1003 -0.0354, -0.231 -0.1003 -0.0394, -0.231 0.0179 -0.0354, -0.231 0.0179 -0.0394, -0.2152 -0.1003 -0.0354, -0.2152 -0.1003 -0.0394, -0.2152 0.0049 -0.0354, -0.2152 0.0049 -0.0394, -0.1705 0.0049 -0.0354, -0.1705 0.0049 -0.0394, -0.1705 0.0179 -0.0354, -0.1705 0.0179 -0.0394
            ]
        }
        coordIndex [
            0,1,2,-1,2,1,3,-1,4,5,0,-1,0,5,6,-1,0,6,1,-1,1,6,7,-1,4,8,5,-1,5,8,9,-1,5,9,10,-1,10,9,11,-1,10,11,12,-1,12,13,10,-1,10,13,2,-1,10,2,14,-1,14,2,3,-1,14,3,15,-1,3,16,15,-1,15,16,17,-1,1,18,3,-1,3,18,16,-1,7,19,1,-1,1,19,18,-1,6,20,7,-1,7,20,19,-1,5,21,6,-1,6,21,20,-1,10,22,5,-1,5,22,21,-1,14,23,10,-1,10,23,22,-1,14,15,23,-1,23,15,17,-1,24,13,12,-1,24,12,25,-1,25,12,11,-1,25,11,26,-1,9,27,11,-1,11,27,26,-1,27,9,8,-1,27,8,28,-1,28,8,4,-1,28,4,29,-1,0,30,4,-1,4,30,29,-1,2,31,0,-1,0,31,30,-1,24,31,13,-1,13,31,2,-1,32,33,34,-1,34,33,35,-1,33,32,36,-1,33,36,37,-1,37,36,38,-1,37,38,39,-1,39,38,40,-1,39,40,41,-1,41,40,42,-1,41,42,43,-1,43,42,44,-1,43,44,45,-1,45,44,46,-1,45,46,47,-1,47,46,48,-1,47,48,49,-1,49,48,50,-1,49,50,51,-1,51,50,52,-1,51,52,53,-1,53,52,54,-1,53,54,55,-1,55,54,56,-1,55,56,57,-1,57,56,58,-1,57,58,59,-1,59,58,60,-1,59,60,61,-1,61,60,62,-1,61,62,63,-1,63,62,64,-1,63,64,65,-1,66,67,64,-1,64,67,65,-1,66,34,67,-1,67,34,35,-1,52,50,68,-1,68,50,48,-1,68,48,69,-1,69,48,46,-1,69,46,70,-1,70,46,44,-1,70,44,71,-1,71,44,42,-1,71,42,72,-1,72,42,40,-1,72,40,73,-1,73,40,38,-1,73,38,74,-1,74,38,36,-1,74,36,75,-1,75,36,32,-1,75,32,76,-1,76,32,34,-1,76,34,77,-1,77,34,66,-1,77,66,78,-1,78,66,64,-1,78,64,79,-1,79,64,62,-1,79,62,80,-1,80,62,60,-1,80,60,81,-1,81,60,58,-1,81,58,82,-1,82,58,56,-1,82,56,83,-1,83,56,54,-1,83,54,84,-1,84,54,52,-1,84,52,68,-1,78,85,77,-1,77,85,86,-1,85,78,79,-1,85,79,87,-1,87,79,80,-1,87,80,88,-1,88,80,81,-1,88,81,89,-1,89,81,82,-1,89,82,90,-1,90,82,83,-1,90,83,91,-1,91,83,84,-1,91,84,92,-1,92,84,68,-1,92,68,93,-1,93,68,69,-1,93,69,94,-1,94,69,70,-1,94,70,95,-1,95,70,71,-1,95,71,96,-1,96,71,72,-1,96,72,97,-1,97,72,73,-1,97,73,98,-1,98,73,74,-1,98,74,99,-1,99,74,75,-1,99,75,100,-1,76,101,75,-1,75,101,100,-1,86,101,77,-1,77,101,76,-1,102,103,104,-1,104,103,105,-1,106,107,102,-1,102,107,103,-1,108,109,106,-1,106,109,107,-1,110,111,108,-1,108,111,109,-1,112,113,110,-1,110,113,111,-1,114,115,112,-1,112,115,113,-1,116,117,114,-1,114,117,115,-1,118,119,116,-1,116,119,117,-1,120,121,118,-1,118,121,119,-1,122,123,120,-1,120,123,121,-1,124,125,122,-1,122,125,123,-1,124,104,125,-1,125,104,105,-1,104,124,122,-1,122,120,104,-1,104,120,118,-1,104,118,102,-1,108,106,110,-1,110,106,102,-1,110,102,112,-1,112,102,118,-1,112,118,114,-1,114,118,116,-1,126,127,128,-1,126,128,129,-1,129,128,130,-1,129,130,131,-1,131,130,132,-1,131,132,133,-1,133,132,134,-1,133,134,135,-1,135,134,136,-1,135,136,137,-1,137,136,138,-1,137,138,139,-1,139,138,140,-1,139,140,141,-1,141,140,142,-1,141,142,143,-1,143,142,144,-1,143,144,145,-1,145,144,146,-1,145,146,147,-1,147,146,148,-1,147,148,149,-1,149,148,150,-1,149,150,151,-1,151,150,152,-1,151,152,153,-1,154,155,152,-1,152,155,156,-1,152,156,153,-1,155,154,157,-1,157,154,158,-1,157,158,159,-1,159,158,160,-1,159,160,161,-1,162,163,160,-1,160,163,161,-1,163,162,164,-1,163,164,165,-1,165,164,166,-1,165,166,167,-1,167,166,168,-1,167,168,169,-1,169,168,170,-1,169,170,171,-1,171,170,172,-1,171,172,173,-1,173,172,174,-1,173,174,175,-1,175,174,176,-1,175,176,177,-1,177,176,178,-1,177,178,179,-1,179,178,180,-1,179,180,181,-1,181,180,182,-1,181,182,183,-1,183,182,184,-1,183,184,185,-1,185,184,186,-1,185,186,187,-1,187,186,188,-1,187,188,189,-1,189,188,190,-1,189,190,191,-1,191,190,192,-1,191,192,193,-1,193,192,194,-1,193,194,195,-1,195,194,196,-1,195,196,197,-1,197,196,198,-1,197,198,199,-1,199,198,200,-1,199,200,201,-1,202,203,200,-1,200,203,201,-1,203,202,204,-1,203,204,205,-1,205,204,206,-1,205,206,207,-1,207,206,127,-1,207,127,126,-1,192,127,194,-1,194,127,206,-1,194,206,196,-1,196,206,204,-1,196,204,198,-1,198,204,202,-1,198,202,200,-1,162,160,164,-1,164,160,158,-1,164,158,166,-1,166,158,154,-1,166,154,168,-1,168,154,152,-1,168,152,170,-1,170,152,150,-1,170,150,172,-1,172,150,148,-1,172,148,174,-1,174,148,146,-1,174,146,176,-1,176,146,144,-1,176,144,178,-1,178,144,142,-1,178,142,180,-1,180,142,140,-1,180,140,182,-1,182,140,138,-1,182,138,184,-1,184,138,136,-1,184,136,186,-1,186,136,134,-1,186,134,188,-1,188,134,132,-1,188,132,190,-1,190,132,130,-1,190,130,192,-1,192,130,128,-1,192,128,127,-1,208,209,210,-1,210,209,211,-1,212,213,208,-1,208,213,209,-1,214,215,212,-1,212,215,213,-1,216,217,214,-1,214,217,215,-1,218,219,216,-1,216,219,217,-1,218,210,219,-1,219,210,211,-1,212,208,214,-1,214,208,210,-1,214,210,216,-1,216,210,218,-1,
        ]
    }
}
Shape{
    appearance Appearance {
        material  Material 	{
            diffuseColor 1.0 1.0 1.0
            specularColor 0.30196078431372547 0.30196078431372547 0.30196078431372547
            ambientIntensity 1.0
            transparency 0.0
            shininess 0.5
        }
    }
    geometry IndexedFaceSet {
        ccw TRUE
        solid FALSE
        coord DEF co Coordinate {
            point [
                0.1731 -0.0282 -0.0394, 0.2126 -0.0282 -0.0394, 0.1907 -0.0776 -0.0394, 0.1948 -0.0776 -0.0394, 0.1919 -0.0817 -0.0394, 0.1938 -0.0817 -0.0394, 0.1926 -0.0859 -0.0394, 0.193 -0.0859 -0.0394, 0.0527 -0.0873 -0.0394, 0.0527 0.0049 -0.0394, 0.0701 -0.0873 -0.0394, 0.0695 0.0049 -0.0394, 0.1146 -0.0281 -0.0394, 0.1161 -0.0423 -0.0394, 0.1151 -0.0541 -0.0394, 0.1123 -0.0634 -0.0394, 0.0842 -0.0858 -0.0394, 0.082 0.0037 -0.0394, 0.0919 0.0006 -0.0394, 0.0999 -0.0041 -0.0394, 0.1083 -0.0707 -0.0394, 0.1026 -0.0768 -0.0394, 0.0939 -0.0824 -0.0394, 0.1066 -0.0107 -0.0394, 0.1115 -0.0187 -0.0394, -1.752 -0.9055 2.2441, -1.8307 -0.9843 2.3228, -0.7874 -0.9055 2.2441, -0.7874 -0.9843 2.3228, -1.8307 -0.4724 2.3228, -1.752 -0.4724 2.2441, 1.752 -0.9055 2.2441, 1.8307 -0.9843 2.3228, 1.752 -0.4724 2.2441, 1.8307 -0.4724 2.3228, 0.7874 -0.9843 2.3228, 0.7874 -0.9055 2.2441, 1.8307 0.5512 2.3228, 1.752 0.4724 2.2441, 1.8307 -0.1575 2.3228, 1.752 -0.1575 2.2441, -1.8307 0.5512 2.3228, -1.752 0.4724 2.2441, -1.8307 -0.1575 2.3228, -1.752 -0.1575 2.2441
            ]
        }
        coordIndex [
            0,1,2,-1,2,1,3,-1,2,3,4,-1,4,3,5,-1,4,5,6,-1,6,5,7,-1,8,9,10,-1,10,9,11,-1,12,13,10,-1,13,14,10,-1,10,14,15,-1,10,15,16,-1,11,17,10,-1,10,17,18,-1,10,18,19,-1,20,21,15,-1,15,21,22,-1,15,22,16,-1,19,23,10,-1,10,23,24,-1,10,24,12,-1,25,26,27,-1,27,26,28,-1,26,25,29,-1,29,25,30,-1,31,32,33,-1,33,32,34,-1,32,31,35,-1,35,31,36,-1,37,38,39,-1,39,38,40,-1,41,42,37,-1,37,42,38,-1,43,44,41,-1,41,44,42,-1,
        ]
    }
}