#VRML V2.0 utf8
# 3D model generated by easyeda2kicad.py (https://github.com/uPesy/easyeda2kicad.py)

Shape{
    appearance Appearance {
        material  Material 	{
            diffuseColor 0.11372549019607843 0.11372549019607843 0.11372549019607843
            specularColor 0.058823529411764705 0.058823529411764705 0.058823529411764705
            ambientIntensity 0.1137
            transparency 0.0
            shininess 0.5
        }
    }
    geometry IndexedFaceSet {
        ccw TRUE
        solid FALSE
        coord DEF co Coordinate {
            point [
                0.0668 0.0306 0.0394, 0.0746 0.0297 0.0394, 0.0498 -0.0285 0.0394, 0.0874 -0.0378 0.0394, 0.1137 -0.0405 0.0394, 0.0798 -0.0404 0.0394, 0.0747 -0.041 0.0394, 0.0573 0.0293 0.0394, 0.0484 -0.0278 0.0394, 0.0484 0.0255 0.0394, 0.0407 0.807 0.0394, 0.0484 0.0361 0.0394, 0.0805 0.0276 0.0394, 0.0859 0.0239 0.0394, 0.0907 0.0187 0.0394, 0.0964 -0.002 0.0394, 0.0956 -0.0105 0.0394, 0.0935 -0.0173 0.0394, 0.0759 -0.032 0.0394, 0.0686 -0.0328 0.0394, 0.0817 -0.0299 0.0394, 0.0865 -0.0266 0.0394, 0.0902 -0.0227 0.0394, 0.0581 -0.0316 0.0394, 0.9232 0.7959 0.0394, 0.9246 0.7918 0.0394, 0.154 -0.0405 0.0394, 0.9251 0.7874 0.0394, 0.9251 -0.041 0.0394, 0.9099 0.8065 0.0394, 0.914 0.8051 0.0394, 0.154 0.0382 0.0394, 0.9177 0.8027 0.0394, 0.9208 0.7996 0.0394, 0.1028 0.0175 0.0394, 0.0982 0.0249 0.0394, 0.1434 0.0382 0.0394, 0.9055 0.807 0.0394, 0.0939 0.0126 0.0394, 0.096 0.0042 0.0394, 0.0937 -0.0338 0.0394, 0.0996 -0.0275 0.0394, 0.1137 -0.0318 0.0394, 0.1038 -0.0201 0.0394, 0.1434 -0.0318 0.0394, 0.0911 0.0317 0.0394, 0.0836 0.036 0.0394, 0.0748 0.0386 0.0394, 0.1062 -0.0117 0.0394, 0.107 -0.0026 0.0394, 0.1058 0.0086 0.0394, 0.0669 0.0392 0.0394, 0.0575 0.0386 0.0394, 0.0484 -0.0364 0.0394, 0.0568 -0.0399 0.0394, 0.0407 -0.041 0.0394, 0.0647 -0.041 0.0394, 0.0407 -0.807 0.0394, 0.0679 -0.0414 0.0394, 0.9055 -0.807 0.0394, 0.07 -0.0415 0.0394, 0.9251 -0.7874 0.0394, 0.9246 -0.7918 0.0394, 0.9177 -0.8027 0.0394, 0.914 -0.8051 0.0394, 0.9099 -0.8065 0.0394, 0.9232 -0.7959 0.0394, 0.9208 -0.7996 0.0394, -0.0937 -0.0405 0.0394, -0.084 -0.0189 0.0394, -0.0795 -0.026 0.0394, -0.0092 -0.0405 0.0394, 0.033 -0.0405 0.0394, 0.033 0.0382 0.0394, -0.0073 0.0382 0.0394, -0.9055 0.807 0.0394, -0.073 -0.0322 0.0394, -0.0648 -0.0369 0.0394, -0.0558 -0.0396 0.0394, -0.1235 0.0382 0.0394, -0.1341 0.0382 0.0394, 0.0225 0.0296 0.0394, 0.0225 0.0037 0.0394, -0.0073 0.0296 0.0394, -0.0054 0.0037 0.0394, -0.0246 0.0382 0.0394, -0.0054 -0.005 0.0394, 0.0225 -0.005 0.0394, 0.0225 -0.0318 0.0394, -0.0092 -0.0318 0.0394, -0.0246 -0.0405 0.0394, -0.046 -0.0405 0.0394, -0.0582 0.037 0.0394, -0.0674 0.0338 0.0394, -0.076 0.0281 0.0394, -0.9251 -0.041 0.0394, -0.9251 0.7874 0.0394, -0.9246 0.7918 0.0394, -0.1648 -0.0405 0.0394, -0.1533 -0.0405 0.0394, -0.0761 0.028 0.0394, -0.0816 0.0218 0.0394, -0.0853 0.015 0.0394, -0.0468 0.0382 0.0394, -0.0874 0.0073 0.0394, -0.088 -0.0001 0.0394, -0.0869 -0.0107 0.0394, -0.1453 -0.0184 0.0394, -0.1128 -0.0184 0.0394, -0.1053 -0.0405 0.0394, -0.9232 0.7959 0.0394, -0.9208 0.7996 0.0394, -0.9177 0.8027 0.0394, -0.914 0.8051 0.0394, -0.9099 0.8065 0.0394, -0.9251 -0.7874 0.0394, -0.9055 -0.807 0.0394, -0.9099 -0.8065 0.0394, -0.914 -0.8051 0.0394, -0.9177 -0.8027 0.0394, -0.9208 -0.7996 0.0394, -0.9232 -0.7959 0.0394, -0.9246 -0.7918 0.0394, -0.9055 0.846 0.0733, -0.9055 0.8661 0.2165, -0.815 0.8661 0.2165, -0.7205 0.8661 0.2165, -0.5591 0.8661 0.2165, -0.7205 0.8623 0.189, -0.5591 0.8623 0.189, -0.815 0.8623 0.189, 0.9055 0.846 0.0733, -0.4646 0.8623 0.189, -0.2087 0.8623 0.189, -0.2087 0.8661 0.2165, -0.0472 0.8661 0.2165, -0.0472 0.8623 0.189, 0.0472 0.8623 0.189, -0.3031 0.8623 0.189, -0.3031 0.8661 0.2165, -0.4646 0.8661 0.2165, 0.3031 0.8623 0.189, 0.3031 0.8661 0.2165, 0.4646 0.8661 0.2165, 0.4646 0.8623 0.189, 0.5591 0.8623 0.189, 0.2087 0.8623 0.189, 0.2087 0.8661 0.2165, 0.0472 0.8661 0.2165, 0.815 0.8661 0.2165, 0.9055 0.8661 0.2165, 0.815 0.8623 0.189, 0.7205 0.8623 0.189, 0.7205 0.8661 0.2165, 0.5591 0.8661 0.2165, 0.9055 0.846 0.3598, 0.7205 0.8617 0.248, 0.5591 0.8617 0.248, 0.815 0.8617 0.248, -0.9055 0.846 0.3598, 0.4646 0.8617 0.248, 0.2087 0.8617 0.248, 0.0472 0.8617 0.248, -0.0472 0.8617 0.248, 0.3031 0.8617 0.248, -0.3031 0.8617 0.248, -0.4646 0.8617 0.248, -0.5591 0.8617 0.248, -0.2087 0.8617 0.248, -0.815 0.8617 0.248, -0.7205 0.8617 0.248, 0.9055 -0.846 0.0733, 0.9055 -0.8661 0.2165, 0.815 -0.8661 0.2165, 0.7205 -0.8661 0.2165, 0.5591 -0.8661 0.2165, 0.7205 -0.8623 0.189, 0.5591 -0.8623 0.189, 0.815 -0.8623 0.189, -0.9055 -0.846 0.0733, 0.4646 -0.8623 0.189, 0.2087 -0.8623 0.189, 0.2087 -0.8661 0.2165, 0.0472 -0.8661 0.2165, 0.0472 -0.8623 0.189, -0.0472 -0.8623 0.189, 0.3031 -0.8623 0.189, 0.3031 -0.8661 0.2165, 0.4646 -0.8661 0.2165, -0.3031 -0.8623 0.189, -0.3031 -0.8661 0.2165, -0.4646 -0.8661 0.2165, -0.4646 -0.8623 0.189, -0.5591 -0.8623 0.189, -0.2087 -0.8623 0.189, -0.2087 -0.8661 0.2165, -0.0472 -0.8661 0.2165, -0.815 -0.8661 0.2165, -0.9055 -0.8661 0.2165, -0.815 -0.8623 0.189, -0.7205 -0.8623 0.189, -0.7205 -0.8661 0.2165, -0.5591 -0.8661 0.2165, -0.9055 -0.846 0.3598, -0.7205 -0.8617 0.248, -0.5591 -0.8617 0.248, -0.815 -0.8617 0.248, 0.9055 -0.846 0.3598, -0.4646 -0.8617 0.248, -0.2087 -0.8617 0.248, -0.0472 -0.8617 0.248, 0.0472 -0.8617 0.248, -0.3031 -0.8617 0.248, 0.3031 -0.8617 0.248, 0.4646 -0.8617 0.248, 0.5591 -0.8617 0.248, 0.2087 -0.8617 0.248, 0.815 -0.8617 0.248, 0.7205 -0.8617 0.248, 0.923 0.8642 0.2165, 0.9186 0.8445 0.0733, 0.9397 0.8583 0.2165, 0.9309 0.8402 0.0733, 0.9546 0.849 0.2165, 0.9421 0.8332 0.0733, 0.9671 0.8365 0.2165, 0.9513 0.8239 0.0733, 0.9765 0.8216 0.2165, 0.9583 0.8128 0.0733, 0.9823 0.8049 0.2165, 0.9626 0.8004 0.0733, 0.9843 0.7874 0.2165, 0.9641 0.7874 0.0733, 0.9641 -0.7874 0.0733, 0.9843 -0.7874 0.2165, 0.9823 -0.8049 0.2165, 0.9626 -0.8004 0.0733, 0.9765 -0.8216 0.2165, 0.9583 -0.8128 0.0733, 0.9671 -0.8365 0.2165, 0.9513 -0.8239 0.0733, 0.9546 -0.849 0.2165, 0.9421 -0.8332 0.0733, 0.9397 -0.8583 0.2165, 0.9309 -0.8402 0.0733, 0.923 -0.8642 0.2165, 0.9186 -0.8445 0.0733, -0.923 -0.8642 0.2165, -0.9186 -0.8445 0.0733, -0.9397 -0.8583 0.2165, -0.9309 -0.8402 0.0733, -0.9546 -0.849 0.2165, -0.9421 -0.8332 0.0733, -0.9671 -0.8365 0.2165, -0.9513 -0.8239 0.0733, -0.9765 -0.8216 0.2165, -0.9583 -0.8128 0.0733, -0.9823 -0.8049 0.2165, -0.9626 -0.8004 0.0733, -0.9843 -0.7874 0.2165, -0.9641 -0.7874 0.0733, -0.9641 0.7874 0.0733, -0.9843 0.7874 0.2165, -0.9823 0.8049 0.2165, -0.9626 0.8004 0.0733, -0.9765 0.8216 0.2165, -0.9583 0.8128 0.0733, -0.9671 0.8365 0.2165, -0.9513 0.8239 0.0733, -0.9546 0.849 0.2165, -0.9421 0.8332 0.0733, -0.9397 0.8583 0.2165, -0.9309 0.8402 0.0733, -0.923 0.8642 0.2165, -0.9186 0.8445 0.0733, 0.9641 0.7874 0.3598, 0.9626 0.8004 0.3598, 0.9583 0.8128 0.3598, 0.9513 0.8239 0.3598, 0.9421 0.8332 0.3598, 0.9309 0.8402 0.3598, 0.9186 0.8445 0.3598, -0.9186 0.8445 0.3598, -0.9309 0.8402 0.3598, -0.9421 0.8332 0.3598, -0.9513 0.8239 0.3598, -0.9583 0.8128 0.3598, -0.9626 0.8004 0.3598, -0.9641 0.7874 0.3598, -0.9641 -0.7874 0.3598, -0.9626 -0.8004 0.3598, -0.9583 -0.8128 0.3598, -0.9513 -0.8239 0.3598, -0.9421 -0.8332 0.3598, -0.9309 -0.8402 0.3598, -0.9186 -0.8445 0.3598, 0.9186 -0.8445 0.3598, 0.9309 -0.8402 0.3598, 0.9421 -0.8332 0.3598, 0.9513 -0.8239 0.3598, 0.9583 -0.8128 0.3598, 0.9626 -0.8004 0.3598, 0.9641 -0.7874 0.3598, -0.8249 -0.6076 0.3937, -0.8109 -0.5892 0.3937, -0.9251 0.7874 0.3937, -0.7925 -0.5752 0.3937, -0.704 -0.5752 0.3937, -0.6857 -0.5892 0.3937, 0.9055 0.807 0.3937, 0.9055 -0.807 0.3937, -0.6716 -0.6961 0.3937, -0.6857 -0.7144 0.3937, 0.9099 0.8065 0.3937, -0.6627 -0.6747 0.3937, 0.9251 -0.7874 0.3937, -0.6597 -0.6518 0.3937, -0.8338 -0.6289 0.3937, -0.9251 -0.7874 0.3937, -0.8368 -0.6518 0.3937, -0.704 -0.7285 0.3937, -0.7254 -0.7374 0.3937, -0.9055 -0.807 0.3937, -0.7483 -0.7404 0.3937, -0.7712 -0.7374 0.3937, -0.6716 -0.6076 0.3937, 0.9251 0.7874 0.3937, -0.6627 -0.6289 0.3937, 0.9099 -0.8065 0.3937, 0.914 -0.8051 0.3937, 0.9177 -0.8027 0.3937, 0.9208 -0.7996 0.3937, 0.9232 -0.7959 0.3937, 0.9246 -0.7918 0.3937, -0.9246 -0.7918 0.3937, -0.8249 -0.6961 0.3937, -0.8338 -0.6747 0.3937, -0.9232 -0.7959 0.3937, -0.9208 -0.7996 0.3937, -0.9177 -0.8027 0.3937, -0.7925 -0.7285 0.3937, -0.8109 -0.7144 0.3937, -0.9099 -0.8065 0.3937, -0.914 -0.8051 0.3937, 0.9246 0.7918 0.3937, 0.9232 0.7959 0.3937, 0.9208 0.7996 0.3937, -0.7254 -0.5663 0.3937, -0.9055 0.807 0.3937, -0.7483 -0.5633 0.3937, -0.9099 0.8065 0.3937, -0.914 0.8051 0.3937, -0.9177 0.8027 0.3937, -0.9208 0.7996 0.3937, -0.9232 0.7959 0.3937, 0.9177 0.8027 0.3937, 0.914 0.8051 0.3937, -0.9246 0.7918 0.3937, -0.7712 -0.5663 0.3937
            ]
        }
        coordIndex [
            0,1,2,-1,3,4,5,-1,5,4,6,-1,0,2,7,-1,7,2,8,-1,7,8,9,-1,9,8,10,-1,9,10,11,-1,1,12,2,-1,2,12,13,-1,2,13,14,-1,15,16,2,-1,2,16,17,-1,18,19,20,-1,20,19,21,-1,17,22,2,-1,2,22,21,-1,2,21,23,-1,23,21,19,-1,24,25,26,-1,26,25,27,-1,26,27,28,-1,29,30,31,-1,31,30,32,-1,31,32,26,-1,26,32,33,-1,26,33,24,-1,34,35,36,-1,36,35,10,-1,36,10,31,-1,31,10,37,-1,31,37,29,-1,14,38,2,-1,2,38,39,-1,2,39,15,-1,3,40,4,-1,4,40,41,-1,4,41,42,-1,42,41,43,-1,42,43,44,-1,35,45,10,-1,10,45,46,-1,10,46,47,-1,43,48,44,-1,44,48,49,-1,44,49,36,-1,36,49,50,-1,36,50,34,-1,47,51,10,-1,10,51,52,-1,10,52,11,-1,53,54,55,-1,55,54,56,-1,55,56,57,-1,57,56,58,-1,57,58,59,-1,59,58,60,-1,4,26,6,-1,6,26,28,-1,6,28,60,-1,60,28,61,-1,60,61,62,-1,63,64,60,-1,60,64,65,-1,60,65,59,-1,62,66,60,-1,60,66,67,-1,60,67,63,-1,68,69,70,-1,71,72,55,-1,55,72,73,-1,74,75,73,-1,73,75,10,-1,73,10,55,-1,55,10,8,-1,55,8,53,-1,70,76,68,-1,68,76,77,-1,68,77,78,-1,79,80,75,-1,81,82,83,-1,83,82,84,-1,83,84,85,-1,85,84,86,-1,87,88,86,-1,86,88,89,-1,86,89,85,-1,85,89,71,-1,85,71,90,-1,90,71,55,-1,90,55,91,-1,92,93,79,-1,79,93,94,-1,95,96,80,-1,80,96,97,-1,98,99,55,-1,94,100,79,-1,79,100,101,-1,79,101,102,-1,92,79,103,-1,103,79,75,-1,103,75,85,-1,85,75,74,-1,85,74,83,-1,102,104,79,-1,79,104,105,-1,79,105,68,-1,68,105,106,-1,68,106,69,-1,107,108,99,-1,99,108,109,-1,99,109,55,-1,55,109,68,-1,55,68,91,-1,91,68,78,-1,97,110,80,-1,80,110,111,-1,80,111,112,-1,112,113,80,-1,80,113,114,-1,80,114,75,-1,80,98,95,-1,95,98,55,-1,95,55,115,-1,115,55,57,-1,115,57,116,-1,116,117,115,-1,115,117,118,-1,115,118,119,-1,119,120,115,-1,115,120,121,-1,115,121,122,-1,123,124,125,-1,126,127,128,-1,128,127,129,-1,125,130,123,-1,123,130,128,-1,123,128,131,-1,131,128,129,-1,131,129,132,-1,133,134,135,-1,136,137,131,-1,135,136,133,-1,133,136,131,-1,133,131,138,-1,138,131,132,-1,138,132,139,-1,139,132,140,-1,141,142,143,-1,144,145,131,-1,143,144,141,-1,141,144,131,-1,141,131,146,-1,146,131,137,-1,146,137,147,-1,147,137,148,-1,149,150,151,-1,151,150,131,-1,151,131,152,-1,152,131,145,-1,152,145,153,-1,153,145,154,-1,155,150,149,-1,153,154,156,-1,156,154,157,-1,149,158,155,-1,155,158,156,-1,155,156,159,-1,159,156,157,-1,159,157,160,-1,161,147,148,-1,162,163,159,-1,148,162,161,-1,161,162,159,-1,161,159,164,-1,164,159,160,-1,164,160,142,-1,142,160,143,-1,165,139,140,-1,166,167,159,-1,140,166,165,-1,165,166,159,-1,165,159,168,-1,168,159,163,-1,168,163,134,-1,134,163,135,-1,125,124,169,-1,169,124,159,-1,169,159,170,-1,170,159,167,-1,170,167,126,-1,126,167,127,-1,171,172,173,-1,174,175,176,-1,176,175,177,-1,173,178,171,-1,171,178,176,-1,171,176,179,-1,179,176,177,-1,179,177,180,-1,181,182,183,-1,184,185,179,-1,183,184,181,-1,181,184,179,-1,181,179,186,-1,186,179,180,-1,186,180,187,-1,187,180,188,-1,189,190,191,-1,192,193,179,-1,191,192,189,-1,189,192,179,-1,189,179,194,-1,194,179,185,-1,194,185,195,-1,195,185,196,-1,197,198,199,-1,199,198,179,-1,199,179,200,-1,200,179,193,-1,200,193,201,-1,201,193,202,-1,203,198,197,-1,201,202,204,-1,204,202,205,-1,197,206,203,-1,203,206,204,-1,203,204,207,-1,207,204,205,-1,207,205,208,-1,209,195,196,-1,210,211,207,-1,196,210,209,-1,209,210,207,-1,209,207,212,-1,212,207,208,-1,212,208,190,-1,190,208,191,-1,213,187,188,-1,214,215,207,-1,188,214,213,-1,213,214,207,-1,213,207,216,-1,216,207,211,-1,216,211,182,-1,182,211,183,-1,173,172,217,-1,217,172,207,-1,217,207,218,-1,218,207,215,-1,218,215,174,-1,174,215,175,-1,131,150,219,-1,131,219,220,-1,220,219,221,-1,220,221,222,-1,222,221,223,-1,222,223,224,-1,224,223,225,-1,224,225,226,-1,226,225,227,-1,226,227,228,-1,228,227,229,-1,228,229,230,-1,230,229,231,-1,230,231,232,-1,232,231,233,-1,233,231,234,-1,233,234,235,-1,233,235,236,-1,236,235,237,-1,236,237,238,-1,238,237,239,-1,238,239,240,-1,240,239,241,-1,240,241,242,-1,242,241,243,-1,242,243,244,-1,244,243,245,-1,244,245,246,-1,246,245,172,-1,246,172,171,-1,179,198,247,-1,179,247,248,-1,248,247,249,-1,248,249,250,-1,250,249,251,-1,250,251,252,-1,252,251,253,-1,252,253,254,-1,254,253,255,-1,254,255,256,-1,256,255,257,-1,256,257,258,-1,258,257,259,-1,258,259,260,-1,260,259,261,-1,261,259,262,-1,261,262,263,-1,261,263,264,-1,264,263,265,-1,264,265,266,-1,266,265,267,-1,266,267,268,-1,268,267,269,-1,268,269,270,-1,270,269,271,-1,270,271,272,-1,272,271,273,-1,272,273,274,-1,274,273,124,-1,274,124,123,-1,275,231,229,-1,275,229,276,-1,276,229,227,-1,276,227,277,-1,277,227,225,-1,277,225,278,-1,278,225,223,-1,278,223,279,-1,279,223,221,-1,279,221,280,-1,280,221,219,-1,280,219,281,-1,281,219,150,-1,281,150,155,-1,159,124,273,-1,159,273,282,-1,282,273,271,-1,282,271,283,-1,283,271,269,-1,283,269,284,-1,284,269,267,-1,284,267,285,-1,285,267,265,-1,285,265,286,-1,286,265,263,-1,286,263,287,-1,287,263,262,-1,287,262,288,-1,288,262,289,-1,289,262,259,-1,289,259,257,-1,289,257,290,-1,290,257,255,-1,290,255,291,-1,291,255,253,-1,291,253,292,-1,292,253,251,-1,292,251,293,-1,293,251,249,-1,293,249,294,-1,294,249,247,-1,294,247,295,-1,295,247,198,-1,295,198,203,-1,207,172,245,-1,207,245,296,-1,296,245,243,-1,296,243,297,-1,297,243,241,-1,297,241,298,-1,298,241,239,-1,298,239,299,-1,299,239,237,-1,299,237,300,-1,300,237,235,-1,300,235,301,-1,301,235,234,-1,301,234,302,-1,302,234,275,-1,275,234,231,-1,303,304,305,-1,305,304,306,-1,307,308,309,-1,310,311,312,-1,309,308,313,-1,311,310,314,-1,314,310,315,-1,314,315,316,-1,303,305,317,-1,317,305,318,-1,317,318,319,-1,312,320,310,-1,310,320,321,-1,310,321,322,-1,322,321,323,-1,322,323,324,-1,308,325,326,-1,326,325,315,-1,315,325,327,-1,315,327,316,-1,328,329,310,-1,310,329,330,-1,310,330,331,-1,331,332,310,-1,310,332,333,-1,310,333,315,-1,334,335,318,-1,318,335,336,-1,318,336,319,-1,334,337,335,-1,335,337,338,-1,335,338,339,-1,324,340,322,-1,322,340,341,-1,322,341,342,-1,342,341,335,-1,342,335,343,-1,343,335,339,-1,326,344,308,-1,308,344,345,-1,308,345,346,-1,307,309,347,-1,347,309,348,-1,347,348,349,-1,349,348,350,-1,349,350,351,-1,351,352,349,-1,349,352,353,-1,349,353,354,-1,346,355,308,-1,308,355,356,-1,308,356,313,-1,354,357,349,-1,349,357,305,-1,349,305,358,-1,358,305,306,-1,
        ]
    }
}
Shape{
    appearance Appearance {
        material  Material 	{
            diffuseColor 0.3333333333333333 0.3333333333333333 0.3333333333333333
            specularColor 0.16862745098039217 0.16862745098039217 0.16862745098039217
            ambientIntensity 0.3333
            transparency 0.0
            shininess 0.5
        }
    }
    geometry IndexedFaceSet {
        ccw TRUE
        solid FALSE
        coord DEF co Coordinate {
            point [
                -0.6597 -0.6518 0.3933, -0.6597 -0.6518 0.3937, -0.6627 -0.6289 0.3933, -0.6627 -0.6289 0.3937, -0.6716 -0.6076 0.3933, -0.6716 -0.6076 0.3937, -0.6857 -0.5892 0.3933, -0.6857 -0.5892 0.3937, -0.704 -0.5752 0.3933, -0.704 -0.5752 0.3937, -0.7254 -0.5663 0.3933, -0.7254 -0.5663 0.3937, -0.7483 -0.5633 0.3933, -0.7483 -0.5633 0.3937, -0.7712 -0.5663 0.3933, -0.7712 -0.5663 0.3937, -0.7925 -0.5752 0.3933, -0.7925 -0.5752 0.3937, -0.8109 -0.5892 0.3933, -0.8109 -0.5892 0.3937, -0.8249 -0.6076 0.3933, -0.8249 -0.6076 0.3937, -0.8338 -0.6289 0.3933, -0.8338 -0.6289 0.3937, -0.8368 -0.6518 0.3933, -0.8368 -0.6518 0.3937, -0.8338 -0.6747 0.3933, -0.8338 -0.6747 0.3937, -0.8249 -0.6961 0.3933, -0.8249 -0.6961 0.3937, -0.8109 -0.7144 0.3933, -0.8109 -0.7144 0.3937, -0.7925 -0.7285 0.3933, -0.7925 -0.7285 0.3937, -0.7712 -0.7374 0.3933, -0.7712 -0.7374 0.3937, -0.7483 -0.7404 0.3933, -0.7483 -0.7404 0.3937, -0.7254 -0.7374 0.3933, -0.7254 -0.7374 0.3937, -0.704 -0.7285 0.3933, -0.704 -0.7285 0.3937, -0.6857 -0.7144 0.3933, -0.6857 -0.7144 0.3937, -0.6716 -0.6961 0.3933, -0.6716 -0.6961 0.3937, -0.6627 -0.6747 0.3933, -0.6627 -0.6747 0.3937, -0.7483 -0.6518 0.3933
            ]
        }
        coordIndex [
            0,1,2,-1,2,1,3,-1,2,3,4,-1,4,3,5,-1,4,5,6,-1,6,5,7,-1,6,7,8,-1,8,7,9,-1,8,9,10,-1,10,9,11,-1,10,11,12,-1,12,11,13,-1,12,13,14,-1,14,13,15,-1,14,15,16,-1,16,15,17,-1,16,17,18,-1,18,17,19,-1,18,19,20,-1,20,19,21,-1,20,21,22,-1,22,21,23,-1,22,23,24,-1,24,23,25,-1,24,25,26,-1,26,25,27,-1,26,27,28,-1,28,27,29,-1,28,29,30,-1,30,29,31,-1,30,31,32,-1,32,31,33,-1,32,33,34,-1,34,33,35,-1,34,35,36,-1,36,35,37,-1,36,37,38,-1,38,37,39,-1,38,39,40,-1,40,39,41,-1,40,41,42,-1,42,41,43,-1,42,43,44,-1,44,43,45,-1,44,45,46,-1,46,45,47,-1,46,47,0,-1,0,47,1,-1,44,46,48,-1,48,46,0,-1,48,0,2,-1,38,40,48,-1,48,40,42,-1,48,42,44,-1,32,34,48,-1,48,34,36,-1,48,36,38,-1,26,28,48,-1,48,28,30,-1,48,30,32,-1,20,22,48,-1,48,22,24,-1,48,24,26,-1,14,16,48,-1,48,16,18,-1,48,18,20,-1,8,10,48,-1,48,10,12,-1,48,12,14,-1,2,4,48,-1,48,4,6,-1,48,6,8,-1,
        ]
    }
}
Shape{
    appearance Appearance {
        material  Material 	{
            diffuseColor 1.0 1.0 1.0
            specularColor 0.5019607843137255 0.5019607843137255 0.5019607843137255
            ambientIntensity 1.0
            transparency 0.0
            shininess 0.5
        }
    }
    geometry IndexedFaceSet {
        ccw TRUE
        solid FALSE
        coord DEF co Coordinate {
            point [
                -0.0472 -0.8617 0.248, -0.0472 -0.9771 0.248, 0.0472 -0.8617 0.248, 0.0472 -0.9771 0.248, 0.0472 -1.2598 0.0591, 0.0472 -1.1062 0.0591, -0.0472 -1.2598 0.0591, -0.0472 -1.1062 0.0591, 0.0472 -1.2598 0.0, -0.0472 -1.2598 0.0, 0.0472 -1.1062 0.0, -0.0472 -1.1062 0.0, -0.0472 -1.0835 0.0027, 0.0472 -1.0835 0.0027, -0.0472 -1.062 0.0105, 0.0472 -1.062 0.0105, -0.0472 -1.0429 0.023, 0.0472 -1.0429 0.023, -0.0472 -1.0273 0.0396, 0.0472 -1.0273 0.0396, -0.0472 -1.0158 0.0594, 0.0472 -1.0158 0.0594, -0.0472 -1.0093 0.0813, 0.0472 -1.0093 0.0813, 0.0472 -0.9926 0.176, -0.0472 -0.9926 0.176, 0.0472 -0.9915 0.1795, -0.0472 -0.9915 0.1795, 0.0472 -0.9897 0.1826, -0.0472 -0.9897 0.1826, 0.0472 -0.9872 0.1853, -0.0472 -0.9872 0.1853, 0.0472 -0.9842 0.1873, -0.0472 -0.9842 0.1873, 0.0472 -0.9807 0.1886, -0.0472 -0.9807 0.1886, 0.0472 -0.9771 0.189, -0.0472 -0.9771 0.189, 0.0472 -0.8623 0.189, -0.0472 -0.8623 0.189, -0.0472 -0.9943 0.246, 0.0472 -0.9943 0.246, -0.0472 -1.0107 0.2401, 0.0472 -1.0107 0.2401, -0.0472 -1.0252 0.2305, 0.0472 -1.0252 0.2305, -0.0472 -1.0371 0.2179, 0.0472 -1.0371 0.2179, -0.0472 -1.0458 0.2029, 0.0472 -1.0458 0.2029, -0.0472 -1.0508 0.1862, 0.0472 -1.0508 0.1862, 0.0472 -1.0674 0.0916, -0.0472 -1.0674 0.0916, 0.0472 -1.0701 0.0828, -0.0472 -1.0701 0.0828, 0.0472 -1.0746 0.0749, -0.0472 -1.0746 0.0749, 0.0472 -1.0809 0.0683, -0.0472 -1.0809 0.0683, 0.0472 -1.0885 0.0632, -0.0472 -1.0885 0.0632, 0.0472 -1.0971 0.0601, -0.0472 -1.0971 0.0601, 0.0472 -0.8661 0.2165, -0.0472 -0.8661 0.2165, 0.3031 -1.2598 0.0591, 0.3031 -1.1062 0.0591, 0.2087 -1.2598 0.0591, 0.2087 -1.1062 0.0591, 0.3031 -1.2598 0.0, 0.2087 -1.2598 0.0, 0.3031 -1.1062 0.0, 0.2087 -1.1062 0.0, 0.2087 -1.0835 0.0027, 0.3031 -1.0835 0.0027, 0.2087 -1.062 0.0105, 0.3031 -1.062 0.0105, 0.2087 -1.0429 0.023, 0.3031 -1.0429 0.023, 0.2087 -1.0273 0.0396, 0.3031 -1.0273 0.0396, 0.2087 -1.0158 0.0594, 0.3031 -1.0158 0.0594, 0.2087 -1.0093 0.0813, 0.3031 -1.0093 0.0813, 0.3031 -0.9926 0.176, 0.2087 -0.9926 0.176, 0.3031 -0.9915 0.1795, 0.2087 -0.9915 0.1795, 0.3031 -0.9897 0.1826, 0.2087 -0.9897 0.1826, 0.3031 -0.9872 0.1853, 0.2087 -0.9872 0.1853, 0.3031 -0.9842 0.1873, 0.2087 -0.9842 0.1873, 0.3031 -0.9807 0.1886, 0.2087 -0.9807 0.1886, 0.3031 -0.9771 0.189, 0.2087 -0.9771 0.189, 0.3031 -0.8623 0.189, 0.2087 -0.8623 0.189, 0.2087 -0.8617 0.248, 0.2087 -0.9771 0.248, 0.3031 -0.8617 0.248, 0.3031 -0.9771 0.248, 0.2087 -0.9943 0.246, 0.3031 -0.9943 0.246, 0.2087 -1.0107 0.2401, 0.3031 -1.0107 0.2401, 0.2087 -1.0252 0.2305, 0.3031 -1.0252 0.2305, 0.2087 -1.0371 0.2179, 0.3031 -1.0371 0.2179, 0.2087 -1.0458 0.2029, 0.3031 -1.0458 0.2029, 0.2087 -1.0508 0.1862, 0.3031 -1.0508 0.1862, 0.3031 -1.0674 0.0916, 0.2087 -1.0674 0.0916, 0.3031 -0.8661 0.2165, 0.3031 -1.0971 0.0601, 0.3031 -1.0885 0.0632, 0.3031 -1.0809 0.0683, 0.3031 -1.0746 0.0749, 0.3031 -1.0701 0.0828, 0.2087 -1.0701 0.0828, 0.2087 -1.0746 0.0749, 0.2087 -1.0809 0.0683, 0.2087 -1.0885 0.0632, 0.2087 -1.0971 0.0601, 0.2087 -0.8661 0.2165, 0.5591 -1.2598 0.0591, 0.5591 -1.1062 0.0591, 0.4646 -1.2598 0.0591, 0.4646 -1.1062 0.0591, 0.5591 -1.2598 0.0, 0.4646 -1.2598 0.0, 0.5591 -1.1062 0.0, 0.4646 -1.1062 0.0, 0.4646 -1.0835 0.0027, 0.5591 -1.0835 0.0027, 0.4646 -1.062 0.0105, 0.5591 -1.062 0.0105, 0.4646 -1.0429 0.023, 0.5591 -1.0429 0.023, 0.4646 -1.0273 0.0396, 0.5591 -1.0273 0.0396, 0.4646 -1.0158 0.0594, 0.5591 -1.0158 0.0594, 0.4646 -1.0093 0.0813, 0.5591 -1.0093 0.0813, 0.5591 -0.9926 0.176, 0.4646 -0.9926 0.176, 0.5591 -0.9915 0.1795, 0.4646 -0.9915 0.1795, 0.5591 -0.9897 0.1826, 0.4646 -0.9897 0.1826, 0.5591 -0.9872 0.1853, 0.4646 -0.9872 0.1853, 0.5591 -0.9842 0.1873, 0.4646 -0.9842 0.1873, 0.5591 -0.9807 0.1886, 0.4646 -0.9807 0.1886, 0.5591 -0.9771 0.189, 0.4646 -0.9771 0.189, 0.5591 -0.8623 0.189, 0.4646 -0.8623 0.189, 0.4646 -0.8617 0.248, 0.4646 -0.9771 0.248, 0.5591 -0.8617 0.248, 0.5591 -0.9771 0.248, 0.4646 -0.9943 0.246, 0.5591 -0.9943 0.246, 0.4646 -1.0107 0.2401, 0.5591 -1.0107 0.2401, 0.4646 -1.0252 0.2305, 0.5591 -1.0252 0.2305, 0.4646 -1.0371 0.2179, 0.5591 -1.0371 0.2179, 0.4646 -1.0458 0.2029, 0.5591 -1.0458 0.2029, 0.4646 -1.0508 0.1862, 0.5591 -1.0508 0.1862, 0.5591 -1.0674 0.0916, 0.4646 -1.0674 0.0916, 0.5591 -0.8661 0.2165, 0.5591 -1.0971 0.0601, 0.5591 -1.0885 0.0632, 0.5591 -1.0809 0.0683, 0.5591 -1.0746 0.0749, 0.5591 -1.0701 0.0828, 0.4646 -1.0701 0.0828, 0.4646 -1.0746 0.0749, 0.4646 -1.0809 0.0683, 0.4646 -1.0885 0.0632, 0.4646 -1.0971 0.0601, 0.4646 -0.8661 0.2165, 0.815 -1.2598 0.0591, 0.815 -1.1062 0.0591, 0.7205 -1.2598 0.0591, 0.7205 -1.1062 0.0591, 0.815 -1.2598 0.0, 0.7205 -1.2598 0.0, 0.815 -1.1062 0.0, 0.7205 -1.1062 0.0, 0.7205 -1.0835 0.0027, 0.815 -1.0835 0.0027, 0.7205 -1.062 0.0105, 0.815 -1.062 0.0105, 0.7205 -1.0429 0.023, 0.815 -1.0429 0.023, 0.7205 -1.0273 0.0396, 0.815 -1.0273 0.0396, 0.7205 -1.0158 0.0594, 0.815 -1.0158 0.0594, 0.7205 -1.0093 0.0813, 0.815 -1.0093 0.0813, 0.815 -0.9926 0.176, 0.7205 -0.9926 0.176, 0.815 -0.9915 0.1795, 0.7205 -0.9915 0.1795, 0.815 -0.9897 0.1826, 0.7205 -0.9897 0.1826, 0.815 -0.9872 0.1853, 0.7205 -0.9872 0.1853, 0.815 -0.9842 0.1873, 0.7205 -0.9842 0.1873, 0.815 -0.9807 0.1886, 0.7205 -0.9807 0.1886, 0.815 -0.9771 0.189, 0.7205 -0.9771 0.189, 0.815 -0.8623 0.189, 0.7205 -0.8623 0.189, 0.7205 -0.8617 0.248, 0.7205 -0.9771 0.248, 0.815 -0.8617 0.248, 0.815 -0.9771 0.248, 0.7205 -0.9943 0.246, 0.815 -0.9943 0.246, 0.7205 -1.0107 0.2401, 0.815 -1.0107 0.2401, 0.7205 -1.0252 0.2305, 0.815 -1.0252 0.2305, 0.7205 -1.0371 0.2179, 0.815 -1.0371 0.2179, 0.7205 -1.0458 0.2029, 0.815 -1.0458 0.2029, 0.7205 -1.0508 0.1862, 0.815 -1.0508 0.1862, 0.815 -1.0674 0.0916, 0.7205 -1.0674 0.0916, 0.815 -0.8661 0.2165, 0.815 -1.0971 0.0601, 0.815 -1.0885 0.0632, 0.815 -1.0809 0.0683, 0.815 -1.0746 0.0749, 0.815 -1.0701 0.0828, 0.7205 -1.0701 0.0828, 0.7205 -1.0746 0.0749, 0.7205 -1.0809 0.0683, 0.7205 -1.0885 0.0632, 0.7205 -1.0971 0.0601, 0.7205 -0.8661 0.2165, -0.2087 -1.2598 0.0591, -0.2087 -1.1062 0.0591, -0.3031 -1.2598 0.0591, -0.3031 -1.1062 0.0591, -0.2087 -1.2598 0.0, -0.3031 -1.2598 0.0, -0.2087 -1.1062 0.0, -0.3031 -1.1062 0.0, -0.3031 -1.0835 0.0027, -0.2087 -1.0835 0.0027, -0.3031 -1.062 0.0105, -0.2087 -1.062 0.0105, -0.3031 -1.0429 0.023, -0.2087 -1.0429 0.023, -0.3031 -1.0273 0.0396, -0.2087 -1.0273 0.0396, -0.3031 -1.0158 0.0594, -0.2087 -1.0158 0.0594, -0.3031 -1.0093 0.0813, -0.2087 -1.0093 0.0813, -0.2087 -0.9926 0.176, -0.3031 -0.9926 0.176, -0.2087 -0.9915 0.1795, -0.3031 -0.9915 0.1795, -0.2087 -0.9897 0.1826, -0.3031 -0.9897 0.1826, -0.2087 -0.9872 0.1853, -0.3031 -0.9872 0.1853, -0.2087 -0.9842 0.1873, -0.3031 -0.9842 0.1873, -0.2087 -0.9807 0.1886, -0.3031 -0.9807 0.1886, -0.2087 -0.9771 0.189, -0.3031 -0.9771 0.189, -0.2087 -0.8623 0.189, -0.3031 -0.8623 0.189, -0.3031 -0.8617 0.248, -0.3031 -0.9771 0.248, -0.2087 -0.8617 0.248, -0.2087 -0.9771 0.248, -0.3031 -0.9943 0.246, -0.2087 -0.9943 0.246, -0.3031 -1.0107 0.2401, -0.2087 -1.0107 0.2401, -0.3031 -1.0252 0.2305, -0.2087 -1.0252 0.2305, -0.3031 -1.0371 0.2179, -0.2087 -1.0371 0.2179, -0.3031 -1.0458 0.2029, -0.2087 -1.0458 0.2029, -0.3031 -1.0508 0.1862, -0.2087 -1.0508 0.1862, -0.2087 -1.0674 0.0916, -0.3031 -1.0674 0.0916, -0.2087 -0.8661 0.2165, -0.2087 -1.0971 0.0601, -0.2087 -1.0885 0.0632, -0.2087 -1.0809 0.0683, -0.2087 -1.0746 0.0749, -0.2087 -1.0701 0.0828, -0.3031 -1.0701 0.0828, -0.3031 -1.0746 0.0749, -0.3031 -1.0809 0.0683, -0.3031 -1.0885 0.0632, -0.3031 -1.0971 0.0601, -0.3031 -0.8661 0.2165, -0.4646 -1.2598 0.0591, -0.4646 -1.1062 0.0591, -0.5591 -1.2598 0.0591, -0.5591 -1.1062 0.0591, -0.4646 -1.2598 0.0, -0.5591 -1.2598 0.0, -0.4646 -1.1062 0.0, -0.5591 -1.1062 0.0, -0.5591 -1.0835 0.0027, -0.4646 -1.0835 0.0027, -0.5591 -1.062 0.0105, -0.4646 -1.062 0.0105, -0.5591 -1.0429 0.023, -0.4646 -1.0429 0.023, -0.5591 -1.0273 0.0396, -0.4646 -1.0273 0.0396, -0.5591 -1.0158 0.0594, -0.4646 -1.0158 0.0594, -0.5591 -1.0093 0.0813, -0.4646 -1.0093 0.0813, -0.4646 -0.9926 0.176, -0.5591 -0.9926 0.176, -0.4646 -0.9915 0.1795, -0.5591 -0.9915 0.1795, -0.4646 -0.9897 0.1826, -0.5591 -0.9897 0.1826, -0.4646 -0.9872 0.1853, -0.5591 -0.9872 0.1853, -0.4646 -0.9842 0.1873, -0.5591 -0.9842 0.1873, -0.4646 -0.9807 0.1886, -0.5591 -0.9807 0.1886, -0.4646 -0.9771 0.189, -0.5591 -0.9771 0.189, -0.4646 -0.8623 0.189, -0.5591 -0.8623 0.189, -0.5591 -0.8617 0.248, -0.5591 -0.9771 0.248, -0.4646 -0.8617 0.248, -0.4646 -0.9771 0.248, -0.5591 -0.9943 0.246, -0.4646 -0.9943 0.246, -0.5591 -1.0107 0.2401, -0.4646 -1.0107 0.2401, -0.5591 -1.0252 0.2305, -0.4646 -1.0252 0.2305, -0.5591 -1.0371 0.2179, -0.4646 -1.0371 0.2179, -0.5591 -1.0458 0.2029, -0.4646 -1.0458 0.2029, -0.5591 -1.0508 0.1862, -0.4646 -1.0508 0.1862, -0.4646 -1.0674 0.0916, -0.5591 -1.0674 0.0916, -0.4646 -0.8661 0.2165, -0.4646 -1.0971 0.0601, -0.4646 -1.0885 0.0632, -0.4646 -1.0809 0.0683, -0.4646 -1.0746 0.0749, -0.4646 -1.0701 0.0828, -0.5591 -1.0701 0.0828, -0.5591 -1.0746 0.0749, -0.5591 -1.0809 0.0683, -0.5591 -1.0885 0.0632, -0.5591 -1.0971 0.0601, -0.5591 -0.8661 0.2165, -0.7205 -1.2598 0.0591, -0.7205 -1.1062 0.0591, -0.815 -1.2598 0.0591, -0.815 -1.1062 0.0591, -0.7205 -1.2598 0.0, -0.815 -1.2598 0.0, -0.7205 -1.1062 0.0, -0.815 -1.1062 0.0, -0.815 -1.0835 0.0027, -0.7205 -1.0835 0.0027, -0.815 -1.062 0.0105, -0.7205 -1.062 0.0105, -0.815 -1.0429 0.023, -0.7205 -1.0429 0.023, -0.815 -1.0273 0.0396, -0.7205 -1.0273 0.0396, -0.815 -1.0158 0.0594, -0.7205 -1.0158 0.0594, -0.815 -1.0093 0.0813, -0.7205 -1.0093 0.0813, -0.7205 -0.9926 0.176, -0.815 -0.9926 0.176, -0.7205 -0.9915 0.1795, -0.815 -0.9915 0.1795, -0.7205 -0.9897 0.1826, -0.815 -0.9897 0.1826, -0.7205 -0.9872 0.1853, -0.815 -0.9872 0.1853, -0.7205 -0.9842 0.1873, -0.815 -0.9842 0.1873, -0.7205 -0.9807 0.1886, -0.815 -0.9807 0.1886, -0.7205 -0.9771 0.189, -0.815 -0.9771 0.189, -0.7205 -0.8623 0.189, -0.815 -0.8623 0.189, -0.815 -0.8617 0.248, -0.815 -0.9771 0.248, -0.7205 -0.8617 0.248, -0.7205 -0.9771 0.248, -0.815 -0.9943 0.246, -0.7205 -0.9943 0.246, -0.815 -1.0107 0.2401, -0.7205 -1.0107 0.2401, -0.815 -1.0252 0.2305, -0.7205 -1.0252 0.2305, -0.815 -1.0371 0.2179, -0.7205 -1.0371 0.2179, -0.815 -1.0458 0.2029, -0.7205 -1.0458 0.2029, -0.815 -1.0508 0.1862, -0.7205 -1.0508 0.1862, -0.7205 -1.0674 0.0916, -0.815 -1.0674 0.0916, -0.7205 -0.8661 0.2165, -0.7205 -1.0971 0.0601, -0.7205 -1.0885 0.0632, -0.7205 -1.0809 0.0683, -0.7205 -1.0746 0.0749, -0.7205 -1.0701 0.0828, -0.815 -1.0701 0.0828, -0.815 -1.0746 0.0749, -0.815 -1.0809 0.0683, -0.815 -1.0885 0.0632, -0.815 -1.0971 0.0601, -0.815 -0.8661 0.2165, 0.0472 1.1062 0.0591, 0.0472 1.2598 0.0591, -0.0472 1.1062 0.0591, -0.0472 1.2598 0.0591, 0.0472 1.2598 0.0, -0.0472 1.2598 0.0, 0.0472 1.1062 0.0, -0.0472 1.1062 0.0, 0.0472 1.0093 0.0813, -0.0472 1.0093 0.0813, -0.0472 1.0158 0.0594, 0.0472 1.0158 0.0594, -0.0472 1.0273 0.0396, 0.0472 1.0273 0.0396, -0.0472 1.0429 0.023, 0.0472 1.0429 0.023, -0.0472 1.062 0.0105, 0.0472 1.062 0.0105, -0.0472 1.0835 0.0027, 0.0472 1.0835 0.0027, 0.0472 0.9926 0.176, -0.0472 0.9926 0.176, 0.0472 0.9771 0.189, -0.0472 0.9771 0.189, 0.0472 0.9807 0.1886, -0.0472 0.9807 0.1886, 0.0472 0.9842 0.1873, -0.0472 0.9842 0.1873, 0.0472 0.9872 0.1853, -0.0472 0.9872 0.1853, 0.0472 0.9897 0.1826, -0.0472 0.9897 0.1826, 0.0472 0.9915 0.1795, -0.0472 0.9915 0.1795, 0.0472 0.8623 0.189, -0.0472 0.8623 0.189, -0.0472 0.9771 0.248, -0.0472 0.8617 0.248, 0.0472 0.9771 0.248, 0.0472 0.8617 0.248, 0.0472 1.0508 0.1862, -0.0472 1.0508 0.1862, -0.0472 1.0458 0.2029, 0.0472 1.0458 0.2029, -0.0472 1.0371 0.2179, 0.0472 1.0371 0.2179, -0.0472 1.0252 0.2305, 0.0472 1.0252 0.2305, -0.0472 1.0107 0.2401, 0.0472 1.0107 0.2401, -0.0472 0.9943 0.246, 0.0472 0.9943 0.246, 0.0472 1.0674 0.0916, -0.0472 1.0674 0.0916, 0.0472 0.8661 0.2165, 0.0472 1.0971 0.0601, 0.0472 1.0885 0.0632, 0.0472 1.0809 0.0683, 0.0472 1.0746 0.0749, 0.0472 1.0701 0.0828, -0.0472 1.0971 0.0601, -0.0472 1.0885 0.0632, -0.0472 1.0809 0.0683, -0.0472 1.0746 0.0749, -0.0472 1.0701 0.0828, -0.0472 0.8661 0.2165, 0.3031 1.1062 0.0591, 0.3031 1.2598 0.0591, 0.2087 1.1062 0.0591, 0.2087 1.2598 0.0591, 0.3031 1.2598 0.0, 0.2087 1.2598 0.0, 0.3031 1.1062 0.0, 0.2087 1.1062 0.0, 0.3031 1.0093 0.0813, 0.2087 1.0093 0.0813, 0.2087 1.0158 0.0594, 0.3031 1.0158 0.0594, 0.2087 1.0273 0.0396, 0.3031 1.0273 0.0396, 0.2087 1.0429 0.023, 0.3031 1.0429 0.023, 0.2087 1.062 0.0105, 0.3031 1.062 0.0105, 0.2087 1.0835 0.0027, 0.3031 1.0835 0.0027, 0.3031 0.9926 0.176, 0.2087 0.9926 0.176, 0.3031 0.9771 0.189, 0.2087 0.9771 0.189, 0.3031 0.9807 0.1886, 0.2087 0.9807 0.1886, 0.3031 0.9842 0.1873, 0.2087 0.9842 0.1873, 0.3031 0.9872 0.1853, 0.2087 0.9872 0.1853, 0.3031 0.9897 0.1826, 0.2087 0.9897 0.1826, 0.3031 0.9915 0.1795, 0.2087 0.9915 0.1795, 0.3031 0.8623 0.189, 0.2087 0.8623 0.189, 0.2087 0.9771 0.248, 0.2087 0.8617 0.248, 0.3031 0.9771 0.248, 0.3031 0.8617 0.248, 0.3031 1.0508 0.1862, 0.2087 1.0508 0.1862, 0.2087 1.0458 0.2029, 0.3031 1.0458 0.2029, 0.2087 1.0371 0.2179, 0.3031 1.0371 0.2179, 0.2087 1.0252 0.2305, 0.3031 1.0252 0.2305, 0.2087 1.0107 0.2401, 0.3031 1.0107 0.2401, 0.2087 0.9943 0.246, 0.3031 0.9943 0.246, 0.3031 1.0674 0.0916, 0.2087 1.0674 0.0916, 0.3031 0.8661 0.2165, 0.3031 1.0971 0.0601, 0.3031 1.0885 0.0632, 0.3031 1.0809 0.0683, 0.3031 1.0746 0.0749, 0.3031 1.0701 0.0828, 0.2087 1.0971 0.0601, 0.2087 1.0885 0.0632, 0.2087 1.0809 0.0683, 0.2087 1.0746 0.0749, 0.2087 1.0701 0.0828, 0.2087 0.8661 0.2165, 0.5591 1.1062 0.0591, 0.5591 1.2598 0.0591, 0.4646 1.1062 0.0591, 0.4646 1.2598 0.0591, 0.5591 1.2598 0.0, 0.4646 1.2598 0.0, 0.5591 1.1062 0.0, 0.4646 1.1062 0.0, 0.5591 1.0093 0.0813, 0.4646 1.0093 0.0813, 0.4646 1.0158 0.0594, 0.5591 1.0158 0.0594, 0.4646 1.0273 0.0396, 0.5591 1.0273 0.0396, 0.4646 1.0429 0.023, 0.5591 1.0429 0.023, 0.4646 1.062 0.0105, 0.5591 1.062 0.0105, 0.4646 1.0835 0.0027, 0.5591 1.0835 0.0027, 0.5591 0.9926 0.176, 0.4646 0.9926 0.176, 0.5591 0.9771 0.189, 0.4646 0.9771 0.189, 0.5591 0.9807 0.1886, 0.4646 0.9807 0.1886, 0.5591 0.9842 0.1873, 0.4646 0.9842 0.1873, 0.5591 0.9872 0.1853, 0.4646 0.9872 0.1853, 0.5591 0.9897 0.1826, 0.4646 0.9897 0.1826, 0.5591 0.9915 0.1795, 0.4646 0.9915 0.1795, 0.5591 0.8623 0.189, 0.4646 0.8623 0.189, 0.4646 0.9771 0.248, 0.4646 0.8617 0.248, 0.5591 0.9771 0.248, 0.5591 0.8617 0.248, 0.5591 1.0508 0.1862, 0.4646 1.0508 0.1862, 0.4646 1.0458 0.2029, 0.5591 1.0458 0.2029, 0.4646 1.0371 0.2179, 0.5591 1.0371 0.2179, 0.4646 1.0252 0.2305, 0.5591 1.0252 0.2305, 0.4646 1.0107 0.2401, 0.5591 1.0107 0.2401, 0.4646 0.9943 0.246, 0.5591 0.9943 0.246, 0.5591 1.0674 0.0916, 0.4646 1.0674 0.0916, 0.5591 0.8661 0.2165, 0.5591 1.0971 0.0601, 0.5591 1.0885 0.0632, 0.5591 1.0809 0.0683, 0.5591 1.0746 0.0749, 0.5591 1.0701 0.0828, 0.4646 1.0971 0.0601, 0.4646 1.0885 0.0632, 0.4646 1.0809 0.0683, 0.4646 1.0746 0.0749, 0.4646 1.0701 0.0828, 0.4646 0.8661 0.2165, 0.815 1.1062 0.0591, 0.815 1.2598 0.0591, 0.7205 1.1062 0.0591, 0.7205 1.2598 0.0591, 0.815 1.2598 0.0, 0.7205 1.2598 0.0, 0.815 1.1062 0.0, 0.7205 1.1062 0.0, 0.815 1.0093 0.0813, 0.7205 1.0093 0.0813, 0.7205 1.0158 0.0594, 0.815 1.0158 0.0594, 0.7205 1.0273 0.0396, 0.815 1.0273 0.0396, 0.7205 1.0429 0.023, 0.815 1.0429 0.023, 0.7205 1.062 0.0105, 0.815 1.062 0.0105, 0.7205 1.0835 0.0027, 0.815 1.0835 0.0027, 0.815 0.9926 0.176, 0.7205 0.9926 0.176, 0.815 0.9771 0.189, 0.7205 0.9771 0.189, 0.815 0.9807 0.1886, 0.7205 0.9807 0.1886, 0.815 0.9842 0.1873, 0.7205 0.9842 0.1873, 0.815 0.9872 0.1853, 0.7205 0.9872 0.1853, 0.815 0.9897 0.1826, 0.7205 0.9897 0.1826, 0.815 0.9915 0.1795, 0.7205 0.9915 0.1795, 0.815 0.8623 0.189, 0.7205 0.8623 0.189, 0.7205 0.9771 0.248, 0.7205 0.8617 0.248, 0.815 0.9771 0.248, 0.815 0.8617 0.248, 0.815 1.0508 0.1862, 0.7205 1.0508 0.1862, 0.7205 1.0458 0.2029, 0.815 1.0458 0.2029, 0.7205 1.0371 0.2179, 0.815 1.0371 0.2179, 0.7205 1.0252 0.2305, 0.815 1.0252 0.2305, 0.7205 1.0107 0.2401, 0.815 1.0107 0.2401, 0.7205 0.9943 0.246, 0.815 0.9943 0.246, 0.815 1.0674 0.0916, 0.7205 1.0674 0.0916, 0.815 0.8661 0.2165, 0.815 1.0971 0.0601, 0.815 1.0885 0.0632, 0.815 1.0809 0.0683, 0.815 1.0746 0.0749, 0.815 1.0701 0.0828, 0.7205 1.0971 0.0601, 0.7205 1.0885 0.0632, 0.7205 1.0809 0.0683, 0.7205 1.0746 0.0749, 0.7205 1.0701 0.0828, 0.7205 0.8661 0.2165, -0.2087 1.1062 0.0591, -0.2087 1.2598 0.0591, -0.3031 1.1062 0.0591, -0.3031 1.2598 0.0591, -0.2087 1.2598 0.0, -0.3031 1.2598 0.0, -0.2087 1.1062 0.0, -0.3031 1.1062 0.0, -0.2087 1.0093 0.0813, -0.3031 1.0093 0.0813, -0.3031 1.0158 0.0594, -0.2087 1.0158 0.0594, -0.3031 1.0273 0.0396, -0.2087 1.0273 0.0396, -0.3031 1.0429 0.023, -0.2087 1.0429 0.023, -0.3031 1.062 0.0105, -0.2087 1.062 0.0105, -0.3031 1.0835 0.0027, -0.2087 1.0835 0.0027, -0.2087 0.9926 0.176, -0.3031 0.9926 0.176, -0.2087 0.9771 0.189, -0.3031 0.9771 0.189, -0.2087 0.9807 0.1886, -0.3031 0.9807 0.1886, -0.2087 0.9842 0.1873, -0.3031 0.9842 0.1873, -0.2087 0.9872 0.1853, -0.3031 0.9872 0.1853, -0.2087 0.9897 0.1826, -0.3031 0.9897 0.1826, -0.2087 0.9915 0.1795, -0.3031 0.9915 0.1795, -0.2087 0.8623 0.189, -0.3031 0.8623 0.189, -0.3031 0.9771 0.248, -0.3031 0.8617 0.248, -0.2087 0.9771 0.248, -0.2087 0.8617 0.248, -0.2087 1.0508 0.1862, -0.3031 1.0508 0.1862, -0.3031 1.0458 0.2029, -0.2087 1.0458 0.2029, -0.3031 1.0371 0.2179, -0.2087 1.0371 0.2179, -0.3031 1.0252 0.2305, -0.2087 1.0252 0.2305, -0.3031 1.0107 0.2401, -0.2087 1.0107 0.2401, -0.3031 0.9943 0.246, -0.2087 0.9943 0.246, -0.2087 1.0674 0.0916, -0.3031 1.0674 0.0916, -0.2087 0.8661 0.2165, -0.2087 1.0971 0.0601, -0.2087 1.0885 0.0632, -0.2087 1.0809 0.0683, -0.2087 1.0746 0.0749, -0.2087 1.0701 0.0828, -0.3031 1.0971 0.0601, -0.3031 1.0885 0.0632, -0.3031 1.0809 0.0683, -0.3031 1.0746 0.0749, -0.3031 1.0701 0.0828, -0.3031 0.8661 0.2165, -0.4646 1.1062 0.0591, -0.4646 1.2598 0.0591, -0.5591 1.1062 0.0591, -0.5591 1.2598 0.0591, -0.4646 1.2598 0.0, -0.5591 1.2598 0.0, -0.4646 1.1062 0.0, -0.5591 1.1062 0.0, -0.4646 1.0093 0.0813, -0.5591 1.0093 0.0813, -0.5591 1.0158 0.0594, -0.4646 1.0158 0.0594, -0.5591 1.0273 0.0396, -0.4646 1.0273 0.0396, -0.5591 1.0429 0.023, -0.4646 1.0429 0.023, -0.5591 1.062 0.0105, -0.4646 1.062 0.0105, -0.5591 1.0835 0.0027, -0.4646 1.0835 0.0027, -0.4646 0.9926 0.176, -0.5591 0.9926 0.176, -0.4646 0.9771 0.189, -0.5591 0.9771 0.189, -0.4646 0.9807 0.1886, -0.5591 0.9807 0.1886, -0.4646 0.9842 0.1873, -0.5591 0.9842 0.1873, -0.4646 0.9872 0.1853, -0.5591 0.9872 0.1853, -0.4646 0.9897 0.1826, -0.5591 0.9897 0.1826, -0.4646 0.9915 0.1795, -0.5591 0.9915 0.1795, -0.4646 0.8623 0.189, -0.5591 0.8623 0.189, -0.5591 0.9771 0.248, -0.5591 0.8617 0.248, -0.4646 0.9771 0.248, -0.4646 0.8617 0.248, -0.4646 1.0508 0.1862, -0.5591 1.0508 0.1862, -0.5591 1.0458 0.2029, -0.4646 1.0458 0.2029, -0.5591 1.0371 0.2179, -0.4646 1.0371 0.2179, -0.5591 1.0252 0.2305, -0.4646 1.0252 0.2305, -0.5591 1.0107 0.2401, -0.4646 1.0107 0.2401, -0.5591 0.9943 0.246, -0.4646 0.9943 0.246, -0.4646 1.0674 0.0916, -0.5591 1.0674 0.0916, -0.4646 0.8661 0.2165, -0.4646 1.0971 0.0601, -0.4646 1.0885 0.0632, -0.4646 1.0809 0.0683, -0.4646 1.0746 0.0749, -0.4646 1.0701 0.0828, -0.5591 1.0971 0.0601, -0.5591 1.0885 0.0632, -0.5591 1.0809 0.0683, -0.5591 1.0746 0.0749, -0.5591 1.0701 0.0828, -0.5591 0.8661 0.2165, -0.7205 1.1062 0.0591, -0.7205 1.2598 0.0591, -0.815 1.1062 0.0591, -0.815 1.2598 0.0591, -0.7205 1.2598 0.0, -0.815 1.2598 0.0, -0.7205 1.1062 0.0, -0.815 1.1062 0.0, -0.7205 1.0093 0.0813, -0.815 1.0093 0.0813, -0.815 1.0158 0.0594, -0.7205 1.0158 0.0594, -0.815 1.0273 0.0396, -0.7205 1.0273 0.0396, -0.815 1.0429 0.023, -0.7205 1.0429 0.023, -0.815 1.062 0.0105, -0.7205 1.062 0.0105, -0.815 1.0835 0.0027, -0.7205 1.0835 0.0027, -0.7205 0.9926 0.176, -0.815 0.9926 0.176, -0.7205 0.9771 0.189, -0.815 0.9771 0.189, -0.7205 0.9807 0.1886, -0.815 0.9807 0.1886, -0.7205 0.9842 0.1873, -0.815 0.9842 0.1873, -0.7205 0.9872 0.1853, -0.815 0.9872 0.1853, -0.7205 0.9897 0.1826, -0.815 0.9897 0.1826, -0.7205 0.9915 0.1795, -0.815 0.9915 0.1795, -0.7205 0.8623 0.189, -0.815 0.8623 0.189, -0.815 0.9771 0.248, -0.815 0.8617 0.248, -0.7205 0.9771 0.248, -0.7205 0.8617 0.248, -0.7205 1.0508 0.1862, -0.815 1.0508 0.1862, -0.815 1.0458 0.2029, -0.7205 1.0458 0.2029, -0.815 1.0371 0.2179, -0.7205 1.0371 0.2179, -0.815 1.0252 0.2305, -0.7205 1.0252 0.2305, -0.815 1.0107 0.2401, -0.7205 1.0107 0.2401, -0.815 0.9943 0.246, -0.7205 0.9943 0.246, -0.7205 1.0674 0.0916, -0.815 1.0674 0.0916, -0.7205 0.8661 0.2165, -0.7205 1.0971 0.0601, -0.7205 1.0885 0.0632, -0.7205 1.0809 0.0683, -0.7205 1.0746 0.0749, -0.7205 1.0701 0.0828, -0.815 1.0971 0.0601, -0.815 1.0885 0.0632, -0.815 1.0809 0.0683, -0.815 1.0746 0.0749, -0.815 1.0701 0.0828, -0.815 0.8661 0.2165, -0.1341 0.0382 0.0398, -0.1648 -0.0405 0.0398, -0.1341 0.0382 0.0394, -0.1648 -0.0405 0.0394, -0.1533 -0.0405 0.0398, -0.1533 -0.0405 0.0394, -0.1453 -0.0184 0.0398, -0.1453 -0.0184 0.0394, -0.1128 -0.0184 0.0398, -0.1128 -0.0184 0.0394, -0.1053 -0.0405 0.0398, -0.1053 -0.0405 0.0394, -0.0937 -0.0405 0.0398, -0.0937 -0.0405 0.0394, -0.1235 0.0382 0.0398, -0.1235 0.0382 0.0394, -0.1154 -0.0098 0.0398, -0.1418 -0.0098 0.0398, -0.1272 0.0231 0.0398, -0.1279 0.0259 0.0398, -0.1284 0.0286 0.0398, -0.1287 0.0286 0.0398, -0.1292 0.0259 0.0398, -0.1299 0.0231 0.0398, -0.1154 -0.0098 0.0394, -0.1418 -0.0098 0.0394, -0.1272 0.0231 0.0394, -0.1279 0.0259 0.0394, -0.1284 0.0286 0.0394, -0.1287 0.0286 0.0394, -0.1292 0.0259 0.0394, -0.1299 0.0231 0.0394, -0.046 -0.0405 0.0398, -0.0246 -0.0405 0.0398, -0.046 -0.0405 0.0394, -0.0246 -0.0405 0.0394, -0.0246 0.0382 0.0398, -0.0246 0.0382 0.0394, -0.0468 0.0382 0.0398, -0.0468 0.0382 0.0394, -0.088 -0.0001 0.0398, -0.088 -0.0001 0.0394, -0.0874 0.0073 0.0394, -0.0874 0.0073 0.0398, -0.0853 0.015 0.0394, -0.0853 0.015 0.0398, -0.0816 0.0218 0.0394, -0.0816 0.0218 0.0398, -0.0761 0.028 0.0394, -0.0761 0.028 0.0398, -0.076 0.0281 0.0394, -0.076 0.0281 0.0398, -0.0674 0.0338 0.0394, -0.0674 0.0338 0.0398, -0.0582 0.037 0.0394, -0.0582 0.037 0.0398, -0.0558 -0.0396 0.0394, -0.0558 -0.0396 0.0398, -0.0648 -0.0369 0.0394, -0.0648 -0.0369 0.0398, -0.073 -0.0322 0.0394, -0.073 -0.0322 0.0398, -0.0795 -0.026 0.0394, -0.0795 -0.026 0.0398, -0.084 -0.0189 0.0394, -0.084 -0.0189 0.0398, -0.0869 -0.0107 0.0394, -0.0869 -0.0107 0.0398, -0.0722 0.0186 0.0398, -0.0683 0.0226 0.0398, -0.0626 0.0263 0.0398, -0.0561 0.0286 0.0398, -0.0468 0.0296 0.0398, -0.0352 0.0296 0.0398, -0.0352 -0.0318 0.0398, -0.0463 -0.0318 0.0398, -0.0546 -0.0311 0.0398, -0.0613 -0.029 0.0398, -0.0666 -0.0258 0.0398, -0.0711 -0.0215 0.0398, -0.0744 -0.016 0.0398, -0.0767 -0.0086 0.0398, -0.0774 -0.0004 0.0398, -0.0767 0.0075 0.0398, -0.0749 0.0137 0.0398, -0.0468 0.0296 0.0394, -0.0352 0.0296 0.0394, -0.0561 0.0286 0.0394, -0.0626 0.0263 0.0394, -0.0683 0.0226 0.0394, -0.0722 0.0186 0.0394, -0.0749 0.0137 0.0394, -0.0767 0.0075 0.0394, -0.0774 -0.0004 0.0394, -0.0767 -0.0086 0.0394, -0.0744 -0.016 0.0394, -0.0711 -0.0215 0.0394, -0.0666 -0.0258 0.0394, -0.0613 -0.029 0.0394, -0.0546 -0.0311 0.0394, -0.0463 -0.0318 0.0394, -0.0352 -0.0318 0.0394, -0.0092 -0.0318 0.0398, -0.0092 -0.0405 0.0398, -0.0092 -0.0318 0.0394, -0.0092 -0.0405 0.0394, 0.033 -0.0405 0.0398, 0.033 -0.0405 0.0394, 0.033 0.0382 0.0398, 0.033 0.0382 0.0394, -0.0073 0.0382 0.0398, -0.0073 0.0382 0.0394, -0.0073 0.0296 0.0398, -0.0073 0.0296 0.0394, 0.0225 0.0296 0.0398, 0.0225 0.0296 0.0394, 0.0225 0.0037 0.0398, 0.0225 0.0037 0.0394, -0.0054 0.0037 0.0398, -0.0054 0.0037 0.0394, -0.0054 -0.005 0.0398, -0.0054 -0.005 0.0394, 0.0225 -0.005 0.0398, 0.0225 -0.005 0.0394, 0.0225 -0.0318 0.0398, 0.0225 -0.0318 0.0394, 0.0484 -0.0278 0.0398, 0.0484 -0.0364 0.0398, 0.0484 -0.0278 0.0394, 0.0484 -0.0364 0.0394, 0.0568 -0.0399 0.0398, 0.07 -0.0415 0.0398, 0.07 -0.0415 0.0394, 0.0679 -0.0414 0.0394, 0.0679 -0.0414 0.0398, 0.0647 -0.041 0.0394, 0.0568 -0.0399 0.0394, 0.0747 -0.041 0.0394, 0.0798 -0.0404 0.0398, 0.0798 -0.0404 0.0394, 0.0874 -0.0378 0.0398, 0.0874 -0.0378 0.0394, 0.0937 -0.0338 0.0398, 0.0937 -0.0338 0.0394, 0.0996 -0.0275 0.0398, 0.0996 -0.0275 0.0394, 0.1038 -0.0201 0.0398, 0.1038 -0.0201 0.0394, 0.1062 -0.0117 0.0398, 0.1062 -0.0117 0.0394, 0.107 -0.0026 0.0398, 0.107 -0.0026 0.0394, 0.0669 0.0392 0.0398, 0.0669 0.0392 0.0394, 0.0748 0.0386 0.0394, 0.0748 0.0386 0.0398, 0.0836 0.036 0.0394, 0.0836 0.036 0.0398, 0.0911 0.0317 0.0394, 0.0911 0.0317 0.0398, 0.0982 0.0249 0.0394, 0.0982 0.0249 0.0398, 0.1028 0.0175 0.0394, 0.1028 0.0175 0.0398, 0.1058 0.0086 0.0394, 0.1058 0.0086 0.0398, 0.0484 0.0361 0.0398, 0.0484 0.0361 0.0394, 0.0575 0.0386 0.0394, 0.0575 0.0386 0.0398, 0.0484 0.0255 0.0398, 0.0484 0.0255 0.0394, 0.0668 0.0306 0.0398, 0.0668 0.0306 0.0394, 0.0573 0.0293 0.0394, 0.0573 0.0293 0.0398, 0.0964 -0.002 0.0398, 0.0964 -0.002 0.0394, 0.096 0.0042 0.0394, 0.096 0.0042 0.0398, 0.0939 0.0126 0.0394, 0.0939 0.0126 0.0398, 0.0907 0.0187 0.0394, 0.0907 0.0187 0.0398, 0.0859 0.0239 0.0394, 0.0859 0.0239 0.0398, 0.0805 0.0276 0.0394, 0.0805 0.0276 0.0398, 0.0746 0.0297 0.0394, 0.0746 0.0297 0.0398, 0.0686 -0.0328 0.0398, 0.0686 -0.0328 0.0394, 0.0759 -0.032 0.0394, 0.0759 -0.032 0.0398, 0.0817 -0.0299 0.0394, 0.0817 -0.0299 0.0398, 0.0865 -0.0266 0.0394, 0.0865 -0.0266 0.0398, 0.0902 -0.0227 0.0394, 0.0902 -0.0227 0.0398, 0.0935 -0.0173 0.0394, 0.0935 -0.0173 0.0398, 0.0956 -0.0105 0.0394, 0.0956 -0.0105 0.0398, 0.0498 -0.0285 0.0394, 0.0498 -0.0285 0.0398, 0.0581 -0.0316 0.0394, 0.0581 -0.0316 0.0398, 0.1137 -0.0318 0.0398, 0.1137 -0.0405 0.0398, 0.1137 -0.0318 0.0394, 0.1137 -0.0405 0.0394, 0.154 -0.0405 0.0398, 0.154 -0.0405 0.0394, 0.154 0.0382 0.0398, 0.154 0.0382 0.0394, 0.1434 0.0382 0.0398, 0.1434 0.0382 0.0394, 0.1434 -0.0318 0.0398, 0.1434 -0.0318 0.0394
            ]
        }
        coordIndex [
            0,1,2,-1,2,1,3,-1,4,5,6,-1,6,5,7,-1,8,4,9,-1,9,4,6,-1,10,8,11,-1,11,8,9,-1,10,11,12,-1,10,12,13,-1,13,12,14,-1,13,14,15,-1,15,14,16,-1,15,16,17,-1,17,16,18,-1,17,18,19,-1,19,18,20,-1,19,20,21,-1,21,20,22,-1,21,22,23,-1,24,23,25,-1,25,23,22,-1,24,25,26,-1,26,25,27,-1,26,27,28,-1,28,27,29,-1,28,29,30,-1,30,29,31,-1,30,31,32,-1,32,31,33,-1,32,33,34,-1,34,33,35,-1,34,35,36,-1,36,35,37,-1,38,36,39,-1,39,36,37,-1,3,1,40,-1,3,40,41,-1,41,40,42,-1,41,42,43,-1,43,42,44,-1,43,44,45,-1,45,44,46,-1,45,46,47,-1,47,46,48,-1,47,48,49,-1,49,48,50,-1,49,50,51,-1,52,51,53,-1,53,51,50,-1,52,53,54,-1,54,53,55,-1,54,55,56,-1,56,55,57,-1,56,57,58,-1,58,57,59,-1,58,59,60,-1,60,59,61,-1,60,61,62,-1,62,61,63,-1,62,63,5,-1,5,63,7,-1,30,32,47,-1,64,2,47,-1,47,2,3,-1,3,41,47,-1,47,41,43,-1,47,43,45,-1,38,64,36,-1,36,64,47,-1,36,47,34,-1,34,47,32,-1,4,8,5,-1,5,8,10,-1,5,10,62,-1,62,10,13,-1,62,13,60,-1,60,13,15,-1,60,15,58,-1,58,15,17,-1,58,17,56,-1,56,17,19,-1,56,19,54,-1,54,19,21,-1,54,21,52,-1,52,21,23,-1,52,23,51,-1,51,23,24,-1,51,24,49,-1,49,24,26,-1,49,26,47,-1,47,26,28,-1,47,28,30,-1,1,0,65,-1,35,33,46,-1,44,42,46,-1,46,42,40,-1,46,40,1,-1,35,46,37,-1,1,65,46,-1,46,65,39,-1,46,39,37,-1,9,6,11,-1,11,6,7,-1,11,7,12,-1,12,7,63,-1,12,63,14,-1,14,63,61,-1,14,61,16,-1,16,61,59,-1,16,59,18,-1,18,59,57,-1,18,57,20,-1,20,57,55,-1,20,55,22,-1,22,55,53,-1,22,53,25,-1,25,53,50,-1,25,50,27,-1,27,50,48,-1,27,48,29,-1,29,48,46,-1,29,46,31,-1,31,46,33,-1,66,67,68,-1,68,67,69,-1,70,66,71,-1,71,66,68,-1,72,70,73,-1,73,70,71,-1,72,73,74,-1,72,74,75,-1,75,74,76,-1,75,76,77,-1,77,76,78,-1,77,78,79,-1,79,78,80,-1,79,80,81,-1,81,80,82,-1,81,82,83,-1,83,82,84,-1,83,84,85,-1,86,85,87,-1,87,85,84,-1,86,87,88,-1,88,87,89,-1,88,89,90,-1,90,89,91,-1,90,91,92,-1,92,91,93,-1,92,93,94,-1,94,93,95,-1,94,95,96,-1,96,95,97,-1,96,97,98,-1,98,97,99,-1,100,98,101,-1,101,98,99,-1,102,103,104,-1,104,103,105,-1,105,103,106,-1,105,106,107,-1,107,106,108,-1,107,108,109,-1,109,108,110,-1,109,110,111,-1,111,110,112,-1,111,112,113,-1,113,112,114,-1,113,114,115,-1,115,114,116,-1,115,116,117,-1,118,117,119,-1,119,117,116,-1,92,94,113,-1,120,104,113,-1,113,104,105,-1,105,107,113,-1,113,107,109,-1,113,109,111,-1,100,120,98,-1,98,120,113,-1,98,113,96,-1,96,113,94,-1,66,70,67,-1,67,70,72,-1,67,72,121,-1,121,72,75,-1,121,75,122,-1,122,75,77,-1,122,77,123,-1,123,77,79,-1,123,79,124,-1,124,79,81,-1,124,81,125,-1,125,81,83,-1,125,83,118,-1,118,83,85,-1,118,85,117,-1,117,85,86,-1,117,86,115,-1,115,86,88,-1,115,88,113,-1,113,88,90,-1,113,90,92,-1,118,119,125,-1,125,119,126,-1,125,126,124,-1,124,126,127,-1,124,127,123,-1,123,127,128,-1,123,128,122,-1,122,128,129,-1,122,129,121,-1,121,129,130,-1,121,130,67,-1,67,130,69,-1,103,102,131,-1,97,95,112,-1,110,108,112,-1,112,108,106,-1,112,106,103,-1,97,112,99,-1,103,131,112,-1,112,131,101,-1,112,101,99,-1,71,68,73,-1,73,68,69,-1,73,69,74,-1,74,69,130,-1,74,130,76,-1,76,130,129,-1,76,129,78,-1,78,129,128,-1,78,128,80,-1,80,128,127,-1,80,127,82,-1,82,127,126,-1,82,126,84,-1,84,126,119,-1,84,119,87,-1,87,119,116,-1,87,116,89,-1,89,116,114,-1,89,114,91,-1,91,114,112,-1,91,112,93,-1,93,112,95,-1,132,133,134,-1,134,133,135,-1,136,132,137,-1,137,132,134,-1,138,136,139,-1,139,136,137,-1,138,139,140,-1,138,140,141,-1,141,140,142,-1,141,142,143,-1,143,142,144,-1,143,144,145,-1,145,144,146,-1,145,146,147,-1,147,146,148,-1,147,148,149,-1,149,148,150,-1,149,150,151,-1,152,151,153,-1,153,151,150,-1,152,153,154,-1,154,153,155,-1,154,155,156,-1,156,155,157,-1,156,157,158,-1,158,157,159,-1,158,159,160,-1,160,159,161,-1,160,161,162,-1,162,161,163,-1,162,163,164,-1,164,163,165,-1,166,164,167,-1,167,164,165,-1,168,169,170,-1,170,169,171,-1,171,169,172,-1,171,172,173,-1,173,172,174,-1,173,174,175,-1,175,174,176,-1,175,176,177,-1,177,176,178,-1,177,178,179,-1,179,178,180,-1,179,180,181,-1,181,180,182,-1,181,182,183,-1,184,183,185,-1,185,183,182,-1,158,160,179,-1,186,170,179,-1,179,170,171,-1,171,173,179,-1,179,173,175,-1,179,175,177,-1,166,186,164,-1,164,186,179,-1,164,179,162,-1,162,179,160,-1,132,136,133,-1,133,136,138,-1,133,138,187,-1,187,138,141,-1,187,141,188,-1,188,141,143,-1,188,143,189,-1,189,143,145,-1,189,145,190,-1,190,145,147,-1,190,147,191,-1,191,147,149,-1,191,149,184,-1,184,149,151,-1,184,151,183,-1,183,151,152,-1,183,152,181,-1,181,152,154,-1,181,154,179,-1,179,154,156,-1,179,156,158,-1,184,185,191,-1,191,185,192,-1,191,192,190,-1,190,192,193,-1,190,193,189,-1,189,193,194,-1,189,194,188,-1,188,194,195,-1,188,195,187,-1,187,195,196,-1,187,196,133,-1,133,196,135,-1,169,168,197,-1,163,161,178,-1,176,174,178,-1,178,174,172,-1,178,172,169,-1,163,178,165,-1,169,197,178,-1,178,197,167,-1,178,167,165,-1,137,134,139,-1,139,134,135,-1,139,135,140,-1,140,135,196,-1,140,196,142,-1,142,196,195,-1,142,195,144,-1,144,195,194,-1,144,194,146,-1,146,194,193,-1,146,193,148,-1,148,193,192,-1,148,192,150,-1,150,192,185,-1,150,185,153,-1,153,185,182,-1,153,182,155,-1,155,182,180,-1,155,180,157,-1,157,180,178,-1,157,178,159,-1,159,178,161,-1,198,199,200,-1,200,199,201,-1,202,198,203,-1,203,198,200,-1,204,202,205,-1,205,202,203,-1,204,205,206,-1,204,206,207,-1,207,206,208,-1,207,208,209,-1,209,208,210,-1,209,210,211,-1,211,210,212,-1,211,212,213,-1,213,212,214,-1,213,214,215,-1,215,214,216,-1,215,216,217,-1,218,217,219,-1,219,217,216,-1,218,219,220,-1,220,219,221,-1,220,221,222,-1,222,221,223,-1,222,223,224,-1,224,223,225,-1,224,225,226,-1,226,225,227,-1,226,227,228,-1,228,227,229,-1,228,229,230,-1,230,229,231,-1,232,230,233,-1,233,230,231,-1,234,235,236,-1,236,235,237,-1,237,235,238,-1,237,238,239,-1,239,238,240,-1,239,240,241,-1,241,240,242,-1,241,242,243,-1,243,242,244,-1,243,244,245,-1,245,244,246,-1,245,246,247,-1,247,246,248,-1,247,248,249,-1,250,249,251,-1,251,249,248,-1,224,226,245,-1,252,236,245,-1,245,236,237,-1,237,239,245,-1,245,239,241,-1,245,241,243,-1,232,252,230,-1,230,252,245,-1,230,245,228,-1,228,245,226,-1,198,202,199,-1,199,202,204,-1,199,204,253,-1,253,204,207,-1,253,207,254,-1,254,207,209,-1,254,209,255,-1,255,209,211,-1,255,211,256,-1,256,211,213,-1,256,213,257,-1,257,213,215,-1,257,215,250,-1,250,215,217,-1,250,217,249,-1,249,217,218,-1,249,218,247,-1,247,218,220,-1,247,220,245,-1,245,220,222,-1,245,222,224,-1,250,251,257,-1,257,251,258,-1,257,258,256,-1,256,258,259,-1,256,259,255,-1,255,259,260,-1,255,260,254,-1,254,260,261,-1,254,261,253,-1,253,261,262,-1,253,262,199,-1,199,262,201,-1,235,234,263,-1,229,227,244,-1,242,240,244,-1,244,240,238,-1,244,238,235,-1,229,244,231,-1,235,263,244,-1,244,263,233,-1,244,233,231,-1,203,200,205,-1,205,200,201,-1,205,201,206,-1,206,201,262,-1,206,262,208,-1,208,262,261,-1,208,261,210,-1,210,261,260,-1,210,260,212,-1,212,260,259,-1,212,259,214,-1,214,259,258,-1,214,258,216,-1,216,258,251,-1,216,251,219,-1,219,251,248,-1,219,248,221,-1,221,248,246,-1,221,246,223,-1,223,246,244,-1,223,244,225,-1,225,244,227,-1,264,265,266,-1,266,265,267,-1,268,264,269,-1,269,264,266,-1,270,268,271,-1,271,268,269,-1,270,271,272,-1,270,272,273,-1,273,272,274,-1,273,274,275,-1,275,274,276,-1,275,276,277,-1,277,276,278,-1,277,278,279,-1,279,278,280,-1,279,280,281,-1,281,280,282,-1,281,282,283,-1,284,283,285,-1,285,283,282,-1,284,285,286,-1,286,285,287,-1,286,287,288,-1,288,287,289,-1,288,289,290,-1,290,289,291,-1,290,291,292,-1,292,291,293,-1,292,293,294,-1,294,293,295,-1,294,295,296,-1,296,295,297,-1,298,296,299,-1,299,296,297,-1,300,301,302,-1,302,301,303,-1,303,301,304,-1,303,304,305,-1,305,304,306,-1,305,306,307,-1,307,306,308,-1,307,308,309,-1,309,308,310,-1,309,310,311,-1,311,310,312,-1,311,312,313,-1,313,312,314,-1,313,314,315,-1,316,315,317,-1,317,315,314,-1,290,292,311,-1,318,302,311,-1,311,302,303,-1,303,305,311,-1,311,305,307,-1,311,307,309,-1,298,318,296,-1,296,318,311,-1,296,311,294,-1,294,311,292,-1,264,268,265,-1,265,268,270,-1,265,270,319,-1,319,270,273,-1,319,273,320,-1,320,273,275,-1,320,275,321,-1,321,275,277,-1,321,277,322,-1,322,277,279,-1,322,279,323,-1,323,279,281,-1,323,281,316,-1,316,281,283,-1,316,283,315,-1,315,283,284,-1,315,284,313,-1,313,284,286,-1,313,286,311,-1,311,286,288,-1,311,288,290,-1,316,317,323,-1,323,317,324,-1,323,324,322,-1,322,324,325,-1,322,325,321,-1,321,325,326,-1,321,326,320,-1,320,326,327,-1,320,327,319,-1,319,327,328,-1,319,328,265,-1,265,328,267,-1,301,300,329,-1,295,293,310,-1,308,306,310,-1,310,306,304,-1,310,304,301,-1,295,310,297,-1,301,329,310,-1,310,329,299,-1,310,299,297,-1,269,266,271,-1,271,266,267,-1,271,267,272,-1,272,267,328,-1,272,328,274,-1,274,328,327,-1,274,327,276,-1,276,327,326,-1,276,326,278,-1,278,326,325,-1,278,325,280,-1,280,325,324,-1,280,324,282,-1,282,324,317,-1,282,317,285,-1,285,317,314,-1,285,314,287,-1,287,314,312,-1,287,312,289,-1,289,312,310,-1,289,310,291,-1,291,310,293,-1,330,331,332,-1,332,331,333,-1,334,330,335,-1,335,330,332,-1,336,334,337,-1,337,334,335,-1,336,337,338,-1,336,338,339,-1,339,338,340,-1,339,340,341,-1,341,340,342,-1,341,342,343,-1,343,342,344,-1,343,344,345,-1,345,344,346,-1,345,346,347,-1,347,346,348,-1,347,348,349,-1,350,349,351,-1,351,349,348,-1,350,351,352,-1,352,351,353,-1,352,353,354,-1,354,353,355,-1,354,355,356,-1,356,355,357,-1,356,357,358,-1,358,357,359,-1,358,359,360,-1,360,359,361,-1,360,361,362,-1,362,361,363,-1,364,362,365,-1,365,362,363,-1,366,367,368,-1,368,367,369,-1,369,367,370,-1,369,370,371,-1,371,370,372,-1,371,372,373,-1,373,372,374,-1,373,374,375,-1,375,374,376,-1,375,376,377,-1,377,376,378,-1,377,378,379,-1,379,378,380,-1,379,380,381,-1,382,381,383,-1,383,381,380,-1,356,358,377,-1,384,368,377,-1,377,368,369,-1,369,371,377,-1,377,371,373,-1,377,373,375,-1,364,384,362,-1,362,384,377,-1,362,377,360,-1,360,377,358,-1,330,334,331,-1,331,334,336,-1,331,336,385,-1,385,336,339,-1,385,339,386,-1,386,339,341,-1,386,341,387,-1,387,341,343,-1,387,343,388,-1,388,343,345,-1,388,345,389,-1,389,345,347,-1,389,347,382,-1,382,347,349,-1,382,349,381,-1,381,349,350,-1,381,350,379,-1,379,350,352,-1,379,352,377,-1,377,352,354,-1,377,354,356,-1,382,383,389,-1,389,383,390,-1,389,390,388,-1,388,390,391,-1,388,391,387,-1,387,391,392,-1,387,392,386,-1,386,392,393,-1,386,393,385,-1,385,393,394,-1,385,394,331,-1,331,394,333,-1,367,366,395,-1,361,359,376,-1,374,372,376,-1,376,372,370,-1,376,370,367,-1,361,376,363,-1,367,395,376,-1,376,395,365,-1,376,365,363,-1,335,332,337,-1,337,332,333,-1,337,333,338,-1,338,333,394,-1,338,394,340,-1,340,394,393,-1,340,393,342,-1,342,393,392,-1,342,392,344,-1,344,392,391,-1,344,391,346,-1,346,391,390,-1,346,390,348,-1,348,390,383,-1,348,383,351,-1,351,383,380,-1,351,380,353,-1,353,380,378,-1,353,378,355,-1,355,378,376,-1,355,376,357,-1,357,376,359,-1,396,397,398,-1,398,397,399,-1,400,396,401,-1,401,396,398,-1,402,400,403,-1,403,400,401,-1,402,403,404,-1,402,404,405,-1,405,404,406,-1,405,406,407,-1,407,406,408,-1,407,408,409,-1,409,408,410,-1,409,410,411,-1,411,410,412,-1,411,412,413,-1,413,412,414,-1,413,414,415,-1,416,415,417,-1,417,415,414,-1,416,417,418,-1,418,417,419,-1,418,419,420,-1,420,419,421,-1,420,421,422,-1,422,421,423,-1,422,423,424,-1,424,423,425,-1,424,425,426,-1,426,425,427,-1,426,427,428,-1,428,427,429,-1,430,428,431,-1,431,428,429,-1,432,433,434,-1,434,433,435,-1,435,433,436,-1,435,436,437,-1,437,436,438,-1,437,438,439,-1,439,438,440,-1,439,440,441,-1,441,440,442,-1,441,442,443,-1,443,442,444,-1,443,444,445,-1,445,444,446,-1,445,446,447,-1,448,447,449,-1,449,447,446,-1,422,424,443,-1,450,434,443,-1,443,434,435,-1,435,437,443,-1,443,437,439,-1,443,439,441,-1,430,450,428,-1,428,450,443,-1,428,443,426,-1,426,443,424,-1,396,400,397,-1,397,400,402,-1,397,402,451,-1,451,402,405,-1,451,405,452,-1,452,405,407,-1,452,407,453,-1,453,407,409,-1,453,409,454,-1,454,409,411,-1,454,411,455,-1,455,411,413,-1,455,413,448,-1,448,413,415,-1,448,415,447,-1,447,415,416,-1,447,416,445,-1,445,416,418,-1,445,418,443,-1,443,418,420,-1,443,420,422,-1,448,449,455,-1,455,449,456,-1,455,456,454,-1,454,456,457,-1,454,457,453,-1,453,457,458,-1,453,458,452,-1,452,458,459,-1,452,459,451,-1,451,459,460,-1,451,460,397,-1,397,460,399,-1,433,432,461,-1,427,425,442,-1,440,438,442,-1,442,438,436,-1,442,436,433,-1,427,442,429,-1,433,461,442,-1,442,461,431,-1,442,431,429,-1,401,398,403,-1,403,398,399,-1,403,399,404,-1,404,399,460,-1,404,460,406,-1,406,460,459,-1,406,459,408,-1,408,459,458,-1,408,458,410,-1,410,458,457,-1,410,457,412,-1,412,457,456,-1,412,456,414,-1,414,456,449,-1,414,449,417,-1,417,449,446,-1,417,446,419,-1,419,446,444,-1,419,444,421,-1,421,444,442,-1,421,442,423,-1,423,442,425,-1,462,463,464,-1,464,463,465,-1,463,466,465,-1,465,466,467,-1,466,468,467,-1,467,468,469,-1,470,471,472,-1,470,472,473,-1,473,472,474,-1,473,474,475,-1,475,474,476,-1,475,476,477,-1,477,476,478,-1,477,478,479,-1,479,478,480,-1,479,480,481,-1,481,480,469,-1,481,469,468,-1,470,482,471,-1,471,482,483,-1,484,485,486,-1,486,485,487,-1,486,487,488,-1,488,487,489,-1,488,489,490,-1,490,489,491,-1,490,491,492,-1,492,491,493,-1,492,493,494,-1,494,493,495,-1,494,495,482,-1,482,495,483,-1,484,496,485,-1,485,496,497,-1,498,499,500,-1,500,499,501,-1,502,503,504,-1,502,504,505,-1,505,504,506,-1,505,506,507,-1,507,506,508,-1,507,508,509,-1,509,508,510,-1,509,510,511,-1,511,510,512,-1,511,512,513,-1,513,512,498,-1,513,498,500,-1,502,514,503,-1,503,514,515,-1,500,501,516,-1,486,488,507,-1,509,511,507,-1,507,511,513,-1,507,513,500,-1,486,507,484,-1,500,516,507,-1,507,516,496,-1,507,496,484,-1,466,463,468,-1,468,463,462,-1,468,462,481,-1,481,462,517,-1,481,517,479,-1,479,517,518,-1,479,518,477,-1,477,518,519,-1,477,519,475,-1,475,519,520,-1,475,520,473,-1,473,520,521,-1,473,521,470,-1,470,521,514,-1,470,514,482,-1,482,514,502,-1,482,502,494,-1,494,502,505,-1,494,505,492,-1,492,505,507,-1,492,507,490,-1,490,507,488,-1,462,464,517,-1,517,464,522,-1,517,522,518,-1,518,522,523,-1,518,523,519,-1,519,523,524,-1,519,524,520,-1,520,524,525,-1,520,525,521,-1,521,525,526,-1,521,526,514,-1,514,526,515,-1,491,489,506,-1,527,499,506,-1,506,499,498,-1,498,512,506,-1,506,512,510,-1,506,510,508,-1,497,527,485,-1,485,527,506,-1,485,506,487,-1,487,506,489,-1,465,467,464,-1,464,467,469,-1,464,469,522,-1,522,469,480,-1,522,480,523,-1,523,480,478,-1,523,478,524,-1,524,478,476,-1,524,476,525,-1,525,476,474,-1,525,474,526,-1,526,474,472,-1,526,472,515,-1,515,472,471,-1,515,471,503,-1,503,471,483,-1,503,483,504,-1,504,483,495,-1,504,495,506,-1,506,495,493,-1,506,493,491,-1,528,529,530,-1,530,529,531,-1,529,532,531,-1,531,532,533,-1,532,534,533,-1,533,534,535,-1,536,537,538,-1,536,538,539,-1,539,538,540,-1,539,540,541,-1,541,540,542,-1,541,542,543,-1,543,542,544,-1,543,544,545,-1,545,544,546,-1,545,546,547,-1,547,546,535,-1,547,535,534,-1,536,548,537,-1,537,548,549,-1,550,551,552,-1,552,551,553,-1,552,553,554,-1,554,553,555,-1,554,555,556,-1,556,555,557,-1,556,557,558,-1,558,557,559,-1,558,559,560,-1,560,559,561,-1,560,561,548,-1,548,561,549,-1,550,562,551,-1,551,562,563,-1,564,565,566,-1,566,565,567,-1,568,569,570,-1,568,570,571,-1,571,570,572,-1,571,572,573,-1,573,572,574,-1,573,574,575,-1,575,574,576,-1,575,576,577,-1,577,576,578,-1,577,578,579,-1,579,578,564,-1,579,564,566,-1,568,580,569,-1,569,580,581,-1,566,567,582,-1,552,554,573,-1,575,577,573,-1,573,577,579,-1,573,579,566,-1,552,573,550,-1,566,582,573,-1,573,582,562,-1,573,562,550,-1,532,529,534,-1,534,529,528,-1,534,528,547,-1,547,528,583,-1,547,583,545,-1,545,583,584,-1,545,584,543,-1,543,584,585,-1,543,585,541,-1,541,585,586,-1,541,586,539,-1,539,586,587,-1,539,587,536,-1,536,587,580,-1,536,580,548,-1,548,580,568,-1,548,568,560,-1,560,568,571,-1,560,571,558,-1,558,571,573,-1,558,573,556,-1,556,573,554,-1,528,530,583,-1,583,530,588,-1,583,588,584,-1,584,588,589,-1,584,589,585,-1,585,589,590,-1,585,590,586,-1,586,590,591,-1,586,591,587,-1,587,591,592,-1,587,592,580,-1,580,592,581,-1,557,555,572,-1,593,565,572,-1,572,565,564,-1,564,578,572,-1,572,578,576,-1,572,576,574,-1,563,593,551,-1,551,593,572,-1,551,572,553,-1,553,572,555,-1,531,533,530,-1,530,533,535,-1,530,535,588,-1,588,535,546,-1,588,546,589,-1,589,546,544,-1,589,544,590,-1,590,544,542,-1,590,542,591,-1,591,542,540,-1,591,540,592,-1,592,540,538,-1,592,538,581,-1,581,538,537,-1,581,537,569,-1,569,537,549,-1,569,549,570,-1,570,549,561,-1,570,561,572,-1,572,561,559,-1,572,559,557,-1,594,595,596,-1,596,595,597,-1,595,598,597,-1,597,598,599,-1,598,600,599,-1,599,600,601,-1,602,603,604,-1,602,604,605,-1,605,604,606,-1,605,606,607,-1,607,606,608,-1,607,608,609,-1,609,608,610,-1,609,610,611,-1,611,610,612,-1,611,612,613,-1,613,612,601,-1,613,601,600,-1,602,614,603,-1,603,614,615,-1,616,617,618,-1,618,617,619,-1,618,619,620,-1,620,619,621,-1,620,621,622,-1,622,621,623,-1,622,623,624,-1,624,623,625,-1,624,625,626,-1,626,625,627,-1,626,627,614,-1,614,627,615,-1,616,628,617,-1,617,628,629,-1,630,631,632,-1,632,631,633,-1,634,635,636,-1,634,636,637,-1,637,636,638,-1,637,638,639,-1,639,638,640,-1,639,640,641,-1,641,640,642,-1,641,642,643,-1,643,642,644,-1,643,644,645,-1,645,644,630,-1,645,630,632,-1,634,646,635,-1,635,646,647,-1,632,633,648,-1,618,620,639,-1,641,643,639,-1,639,643,645,-1,639,645,632,-1,618,639,616,-1,632,648,639,-1,639,648,628,-1,639,628,616,-1,598,595,600,-1,600,595,594,-1,600,594,613,-1,613,594,649,-1,613,649,611,-1,611,649,650,-1,611,650,609,-1,609,650,651,-1,609,651,607,-1,607,651,652,-1,607,652,605,-1,605,652,653,-1,605,653,602,-1,602,653,646,-1,602,646,614,-1,614,646,634,-1,614,634,626,-1,626,634,637,-1,626,637,624,-1,624,637,639,-1,624,639,622,-1,622,639,620,-1,594,596,649,-1,649,596,654,-1,649,654,650,-1,650,654,655,-1,650,655,651,-1,651,655,656,-1,651,656,652,-1,652,656,657,-1,652,657,653,-1,653,657,658,-1,653,658,646,-1,646,658,647,-1,623,621,638,-1,659,631,638,-1,638,631,630,-1,630,644,638,-1,638,644,642,-1,638,642,640,-1,629,659,617,-1,617,659,638,-1,617,638,619,-1,619,638,621,-1,597,599,596,-1,596,599,601,-1,596,601,654,-1,654,601,612,-1,654,612,655,-1,655,612,610,-1,655,610,656,-1,656,610,608,-1,656,608,657,-1,657,608,606,-1,657,606,658,-1,658,606,604,-1,658,604,647,-1,647,604,603,-1,647,603,635,-1,635,603,615,-1,635,615,636,-1,636,615,627,-1,636,627,638,-1,638,627,625,-1,638,625,623,-1,660,661,662,-1,662,661,663,-1,661,664,663,-1,663,664,665,-1,664,666,665,-1,665,666,667,-1,668,669,670,-1,668,670,671,-1,671,670,672,-1,671,672,673,-1,673,672,674,-1,673,674,675,-1,675,674,676,-1,675,676,677,-1,677,676,678,-1,677,678,679,-1,679,678,667,-1,679,667,666,-1,668,680,669,-1,669,680,681,-1,682,683,684,-1,684,683,685,-1,684,685,686,-1,686,685,687,-1,686,687,688,-1,688,687,689,-1,688,689,690,-1,690,689,691,-1,690,691,692,-1,692,691,693,-1,692,693,680,-1,680,693,681,-1,682,694,683,-1,683,694,695,-1,696,697,698,-1,698,697,699,-1,700,701,702,-1,700,702,703,-1,703,702,704,-1,703,704,705,-1,705,704,706,-1,705,706,707,-1,707,706,708,-1,707,708,709,-1,709,708,710,-1,709,710,711,-1,711,710,696,-1,711,696,698,-1,700,712,701,-1,701,712,713,-1,698,699,714,-1,684,686,705,-1,707,709,705,-1,705,709,711,-1,705,711,698,-1,684,705,682,-1,698,714,705,-1,705,714,694,-1,705,694,682,-1,664,661,666,-1,666,661,660,-1,666,660,679,-1,679,660,715,-1,679,715,677,-1,677,715,716,-1,677,716,675,-1,675,716,717,-1,675,717,673,-1,673,717,718,-1,673,718,671,-1,671,718,719,-1,671,719,668,-1,668,719,712,-1,668,712,680,-1,680,712,700,-1,680,700,692,-1,692,700,703,-1,692,703,690,-1,690,703,705,-1,690,705,688,-1,688,705,686,-1,660,662,715,-1,715,662,720,-1,715,720,716,-1,716,720,721,-1,716,721,717,-1,717,721,722,-1,717,722,718,-1,718,722,723,-1,718,723,719,-1,719,723,724,-1,719,724,712,-1,712,724,713,-1,689,687,704,-1,725,697,704,-1,704,697,696,-1,696,710,704,-1,704,710,708,-1,704,708,706,-1,695,725,683,-1,683,725,704,-1,683,704,685,-1,685,704,687,-1,663,665,662,-1,662,665,667,-1,662,667,720,-1,720,667,678,-1,720,678,721,-1,721,678,676,-1,721,676,722,-1,722,676,674,-1,722,674,723,-1,723,674,672,-1,723,672,724,-1,724,672,670,-1,724,670,713,-1,713,670,669,-1,713,669,701,-1,701,669,681,-1,701,681,702,-1,702,681,693,-1,702,693,704,-1,704,693,691,-1,704,691,689,-1,726,727,728,-1,728,727,729,-1,727,730,729,-1,729,730,731,-1,730,732,731,-1,731,732,733,-1,734,735,736,-1,734,736,737,-1,737,736,738,-1,737,738,739,-1,739,738,740,-1,739,740,741,-1,741,740,742,-1,741,742,743,-1,743,742,744,-1,743,744,745,-1,745,744,733,-1,745,733,732,-1,734,746,735,-1,735,746,747,-1,748,749,750,-1,750,749,751,-1,750,751,752,-1,752,751,753,-1,752,753,754,-1,754,753,755,-1,754,755,756,-1,756,755,757,-1,756,757,758,-1,758,757,759,-1,758,759,746,-1,746,759,747,-1,748,760,749,-1,749,760,761,-1,762,763,764,-1,764,763,765,-1,766,767,768,-1,766,768,769,-1,769,768,770,-1,769,770,771,-1,771,770,772,-1,771,772,773,-1,773,772,774,-1,773,774,775,-1,775,774,776,-1,775,776,777,-1,777,776,762,-1,777,762,764,-1,766,778,767,-1,767,778,779,-1,764,765,780,-1,750,752,771,-1,773,775,771,-1,771,775,777,-1,771,777,764,-1,750,771,748,-1,764,780,771,-1,771,780,760,-1,771,760,748,-1,730,727,732,-1,732,727,726,-1,732,726,745,-1,745,726,781,-1,745,781,743,-1,743,781,782,-1,743,782,741,-1,741,782,783,-1,741,783,739,-1,739,783,784,-1,739,784,737,-1,737,784,785,-1,737,785,734,-1,734,785,778,-1,734,778,746,-1,746,778,766,-1,746,766,758,-1,758,766,769,-1,758,769,756,-1,756,769,771,-1,756,771,754,-1,754,771,752,-1,726,728,781,-1,781,728,786,-1,781,786,782,-1,782,786,787,-1,782,787,783,-1,783,787,788,-1,783,788,784,-1,784,788,789,-1,784,789,785,-1,785,789,790,-1,785,790,778,-1,778,790,779,-1,755,753,770,-1,791,763,770,-1,770,763,762,-1,762,776,770,-1,770,776,774,-1,770,774,772,-1,761,791,749,-1,749,791,770,-1,749,770,751,-1,751,770,753,-1,729,731,728,-1,728,731,733,-1,728,733,786,-1,786,733,744,-1,786,744,787,-1,787,744,742,-1,787,742,788,-1,788,742,740,-1,788,740,789,-1,789,740,738,-1,789,738,790,-1,790,738,736,-1,790,736,779,-1,779,736,735,-1,779,735,767,-1,767,735,747,-1,767,747,768,-1,768,747,759,-1,768,759,770,-1,770,759,757,-1,770,757,755,-1,792,793,794,-1,794,793,795,-1,793,796,795,-1,795,796,797,-1,796,798,797,-1,797,798,799,-1,800,801,802,-1,800,802,803,-1,803,802,804,-1,803,804,805,-1,805,804,806,-1,805,806,807,-1,807,806,808,-1,807,808,809,-1,809,808,810,-1,809,810,811,-1,811,810,799,-1,811,799,798,-1,800,812,801,-1,801,812,813,-1,814,815,816,-1,816,815,817,-1,816,817,818,-1,818,817,819,-1,818,819,820,-1,820,819,821,-1,820,821,822,-1,822,821,823,-1,822,823,824,-1,824,823,825,-1,824,825,812,-1,812,825,813,-1,814,826,815,-1,815,826,827,-1,828,829,830,-1,830,829,831,-1,832,833,834,-1,832,834,835,-1,835,834,836,-1,835,836,837,-1,837,836,838,-1,837,838,839,-1,839,838,840,-1,839,840,841,-1,841,840,842,-1,841,842,843,-1,843,842,828,-1,843,828,830,-1,832,844,833,-1,833,844,845,-1,830,831,846,-1,816,818,837,-1,839,841,837,-1,837,841,843,-1,837,843,830,-1,816,837,814,-1,830,846,837,-1,837,846,826,-1,837,826,814,-1,796,793,798,-1,798,793,792,-1,798,792,811,-1,811,792,847,-1,811,847,809,-1,809,847,848,-1,809,848,807,-1,807,848,849,-1,807,849,805,-1,805,849,850,-1,805,850,803,-1,803,850,851,-1,803,851,800,-1,800,851,844,-1,800,844,812,-1,812,844,832,-1,812,832,824,-1,824,832,835,-1,824,835,822,-1,822,835,837,-1,822,837,820,-1,820,837,818,-1,792,794,847,-1,847,794,852,-1,847,852,848,-1,848,852,853,-1,848,853,849,-1,849,853,854,-1,849,854,850,-1,850,854,855,-1,850,855,851,-1,851,855,856,-1,851,856,844,-1,844,856,845,-1,821,819,836,-1,857,829,836,-1,836,829,828,-1,828,842,836,-1,836,842,840,-1,836,840,838,-1,827,857,815,-1,815,857,836,-1,815,836,817,-1,817,836,819,-1,795,797,794,-1,794,797,799,-1,794,799,852,-1,852,799,810,-1,852,810,853,-1,853,810,808,-1,853,808,854,-1,854,808,806,-1,854,806,855,-1,855,806,804,-1,855,804,856,-1,856,804,802,-1,856,802,845,-1,845,802,801,-1,845,801,833,-1,833,801,813,-1,833,813,834,-1,834,813,825,-1,834,825,836,-1,836,825,823,-1,836,823,821,-1,858,859,860,-1,860,859,861,-1,859,862,861,-1,861,862,863,-1,862,864,863,-1,863,864,865,-1,866,867,868,-1,866,868,869,-1,869,868,870,-1,869,870,871,-1,871,870,872,-1,871,872,873,-1,873,872,874,-1,873,874,875,-1,875,874,876,-1,875,876,877,-1,877,876,865,-1,877,865,864,-1,866,878,867,-1,867,878,879,-1,880,881,882,-1,882,881,883,-1,882,883,884,-1,884,883,885,-1,884,885,886,-1,886,885,887,-1,886,887,888,-1,888,887,889,-1,888,889,890,-1,890,889,891,-1,890,891,878,-1,878,891,879,-1,880,892,881,-1,881,892,893,-1,894,895,896,-1,896,895,897,-1,898,899,900,-1,898,900,901,-1,901,900,902,-1,901,902,903,-1,903,902,904,-1,903,904,905,-1,905,904,906,-1,905,906,907,-1,907,906,908,-1,907,908,909,-1,909,908,894,-1,909,894,896,-1,898,910,899,-1,899,910,911,-1,896,897,912,-1,882,884,903,-1,905,907,903,-1,903,907,909,-1,903,909,896,-1,882,903,880,-1,896,912,903,-1,903,912,892,-1,903,892,880,-1,862,859,864,-1,864,859,858,-1,864,858,877,-1,877,858,913,-1,877,913,875,-1,875,913,914,-1,875,914,873,-1,873,914,915,-1,873,915,871,-1,871,915,916,-1,871,916,869,-1,869,916,917,-1,869,917,866,-1,866,917,910,-1,866,910,878,-1,878,910,898,-1,878,898,890,-1,890,898,901,-1,890,901,888,-1,888,901,903,-1,888,903,886,-1,886,903,884,-1,858,860,913,-1,913,860,918,-1,913,918,914,-1,914,918,919,-1,914,919,915,-1,915,919,920,-1,915,920,916,-1,916,920,921,-1,916,921,917,-1,917,921,922,-1,917,922,910,-1,910,922,911,-1,887,885,902,-1,923,895,902,-1,902,895,894,-1,894,908,902,-1,902,908,906,-1,902,906,904,-1,893,923,881,-1,881,923,902,-1,881,902,883,-1,883,902,885,-1,861,863,860,-1,860,863,865,-1,860,865,918,-1,918,865,876,-1,918,876,919,-1,919,876,874,-1,919,874,920,-1,920,874,872,-1,920,872,921,-1,921,872,870,-1,921,870,922,-1,922,870,868,-1,922,868,911,-1,911,868,867,-1,911,867,899,-1,899,867,879,-1,899,879,900,-1,900,879,891,-1,900,891,902,-1,902,891,889,-1,902,889,887,-1,924,925,926,-1,926,925,927,-1,925,928,927,-1,927,928,929,-1,928,930,929,-1,929,930,931,-1,930,932,931,-1,931,932,933,-1,932,934,933,-1,933,934,935,-1,934,936,935,-1,935,936,937,-1,936,938,937,-1,937,938,939,-1,938,924,939,-1,939,924,926,-1,940,932,941,-1,941,932,930,-1,942,938,940,-1,940,938,936,-1,940,936,932,-1,932,936,934,-1,942,943,938,-1,938,943,944,-1,938,944,924,-1,924,944,945,-1,924,945,946,-1,946,947,924,-1,924,947,941,-1,924,941,925,-1,925,941,930,-1,925,930,928,-1,940,941,948,-1,948,941,949,-1,942,940,950,-1,950,940,948,-1,942,950,951,-1,942,951,943,-1,943,951,952,-1,943,952,944,-1,945,944,953,-1,953,944,952,-1,945,953,954,-1,945,954,946,-1,946,954,955,-1,946,955,947,-1,941,947,949,-1,949,947,955,-1,956,957,958,-1,958,957,959,-1,957,960,959,-1,959,960,961,-1,960,962,961,-1,961,962,963,-1,964,965,966,-1,964,966,967,-1,967,966,968,-1,967,968,969,-1,969,968,970,-1,969,970,971,-1,971,970,972,-1,971,972,973,-1,973,972,974,-1,973,974,975,-1,975,974,976,-1,975,976,977,-1,977,976,978,-1,977,978,979,-1,979,978,963,-1,979,963,962,-1,956,958,980,-1,956,980,981,-1,981,980,982,-1,981,982,983,-1,983,982,984,-1,983,984,985,-1,985,984,986,-1,985,986,987,-1,987,986,988,-1,987,988,989,-1,989,988,990,-1,989,990,991,-1,991,990,965,-1,991,965,964,-1,969,971,992,-1,992,971,973,-1,992,973,993,-1,993,973,975,-1,993,975,994,-1,994,975,977,-1,994,977,995,-1,995,977,979,-1,995,979,996,-1,996,979,962,-1,996,962,997,-1,997,962,960,-1,997,960,998,-1,998,960,957,-1,998,957,999,-1,999,957,956,-1,999,956,1000,-1,1000,956,981,-1,1000,981,1001,-1,1001,981,983,-1,1001,983,1002,-1,1002,983,985,-1,1002,985,1003,-1,1003,985,987,-1,1003,987,1004,-1,1004,987,989,-1,1004,989,1005,-1,1005,989,991,-1,1005,991,1006,-1,1006,991,964,-1,1006,964,1007,-1,1007,964,967,-1,1007,967,1008,-1,1008,967,969,-1,1008,969,992,-1,996,997,1009,-1,1009,997,1010,-1,996,1009,1011,-1,996,1011,995,-1,995,1011,1012,-1,995,1012,994,-1,994,1012,1013,-1,994,1013,993,-1,993,1013,1014,-1,993,1014,992,-1,992,1014,1015,-1,992,1015,1008,-1,1008,1015,1016,-1,1008,1016,1007,-1,1007,1016,1017,-1,1007,1017,1006,-1,1006,1017,1018,-1,1006,1018,1005,-1,1005,1018,1019,-1,1005,1019,1004,-1,1004,1019,1020,-1,1004,1020,1003,-1,1003,1020,1021,-1,1003,1021,1002,-1,1002,1021,1022,-1,1002,1022,1001,-1,1001,1022,1023,-1,1001,1023,1000,-1,1000,1023,1024,-1,1000,1024,999,-1,998,999,1025,-1,1025,999,1024,-1,997,998,1010,-1,1010,998,1025,-1,1026,1027,1028,-1,1028,1027,1029,-1,1027,1030,1029,-1,1029,1030,1031,-1,1030,1032,1031,-1,1031,1032,1033,-1,1032,1034,1033,-1,1033,1034,1035,-1,1034,1036,1035,-1,1035,1036,1037,-1,1036,1038,1037,-1,1037,1038,1039,-1,1038,1040,1039,-1,1039,1040,1041,-1,1040,1042,1041,-1,1041,1042,1043,-1,1042,1044,1043,-1,1043,1044,1045,-1,1044,1046,1045,-1,1045,1046,1047,-1,1046,1048,1047,-1,1047,1048,1049,-1,1048,1026,1049,-1,1049,1026,1028,-1,1030,1027,1026,-1,1026,1048,1030,-1,1030,1048,1046,-1,1030,1046,1032,-1,1036,1034,1038,-1,1038,1034,1032,-1,1038,1032,1040,-1,1040,1032,1046,-1,1040,1046,1042,-1,1042,1046,1044,-1,1050,1051,1052,-1,1052,1051,1053,-1,1053,1051,1054,-1,1055,1056,1057,-1,1055,1057,1058,-1,1058,1057,1059,-1,1058,1059,1054,-1,1054,1059,1060,-1,1054,1060,1053,-1,1056,1055,1061,-1,1061,1055,1062,-1,1061,1062,1063,-1,1063,1062,1064,-1,1063,1064,1065,-1,1065,1064,1066,-1,1065,1066,1067,-1,1067,1066,1068,-1,1067,1068,1069,-1,1069,1068,1070,-1,1069,1070,1071,-1,1071,1070,1072,-1,1071,1072,1073,-1,1073,1072,1074,-1,1073,1074,1075,-1,1076,1077,1078,-1,1076,1078,1079,-1,1079,1078,1080,-1,1079,1080,1081,-1,1081,1080,1082,-1,1081,1082,1083,-1,1083,1082,1084,-1,1083,1084,1085,-1,1085,1084,1086,-1,1085,1086,1087,-1,1087,1086,1088,-1,1087,1088,1089,-1,1089,1088,1075,-1,1089,1075,1074,-1,1090,1091,1092,-1,1090,1092,1093,-1,1093,1092,1077,-1,1093,1077,1076,-1,1090,1094,1091,-1,1091,1094,1095,-1,1096,1097,1098,-1,1096,1098,1099,-1,1099,1098,1095,-1,1099,1095,1094,-1,1100,1101,1102,-1,1100,1102,1103,-1,1103,1102,1104,-1,1103,1104,1105,-1,1105,1104,1106,-1,1105,1106,1107,-1,1107,1106,1108,-1,1107,1108,1109,-1,1109,1108,1110,-1,1109,1110,1111,-1,1111,1110,1112,-1,1111,1112,1113,-1,1113,1112,1097,-1,1113,1097,1096,-1,1114,1115,1116,-1,1114,1116,1117,-1,1117,1116,1118,-1,1117,1118,1119,-1,1119,1118,1120,-1,1119,1120,1121,-1,1121,1120,1122,-1,1121,1122,1123,-1,1123,1122,1124,-1,1123,1124,1125,-1,1125,1124,1126,-1,1125,1126,1127,-1,1127,1126,1101,-1,1127,1101,1100,-1,1050,1052,1128,-1,1050,1128,1129,-1,1129,1128,1130,-1,1129,1130,1131,-1,1131,1130,1115,-1,1131,1115,1114,-1,1117,1055,1114,-1,1114,1055,1058,-1,1114,1058,1131,-1,1131,1058,1054,-1,1131,1054,1129,-1,1129,1054,1051,-1,1129,1051,1050,-1,1094,1090,1099,-1,1099,1090,1093,-1,1099,1093,1096,-1,1096,1093,1076,-1,1096,1076,1113,-1,1113,1076,1079,-1,1113,1079,1111,-1,1111,1079,1081,-1,1111,1081,1109,-1,1109,1081,1083,-1,1109,1083,1107,-1,1107,1083,1085,-1,1107,1085,1105,-1,1105,1085,1087,-1,1105,1087,1103,-1,1103,1087,1089,-1,1103,1089,1100,-1,1100,1089,1074,-1,1100,1074,1127,-1,1127,1074,1072,-1,1127,1072,1125,-1,1125,1072,1070,-1,1125,1070,1123,-1,1123,1070,1068,-1,1123,1068,1121,-1,1121,1068,1066,-1,1121,1066,1119,-1,1119,1066,1064,-1,1119,1064,1117,-1,1117,1064,1062,-1,1117,1062,1055,-1,1132,1133,1134,-1,1134,1133,1135,-1,1133,1136,1135,-1,1135,1136,1137,-1,1136,1138,1137,-1,1137,1138,1139,-1,1138,1140,1139,-1,1139,1140,1141,-1,1140,1142,1141,-1,1141,1142,1143,-1,1142,1132,1143,-1,1143,1132,1134,-1,1140,1138,1142,-1,1142,1138,1136,-1,1142,1136,1132,-1,1132,1136,1133,-1,
        ]
    }
}
Shape{
    appearance Appearance {
        material  Material 	{
            diffuseColor 0.11372549019607843 0.11372549019607843 0.11372549019607843
            specularColor 0.058823529411764705 0.058823529411764705 0.058823529411764705
            ambientIntensity 0.1137
            transparency 0.0
            shininess 0.5
        }
    }
    geometry IndexedFaceSet {
        ccw TRUE
        solid FALSE
        coord DEF co Coordinate {
            point [
                -0.1154 -0.0098 0.0394, -0.1418 -0.0098 0.0394, -0.1272 0.0231 0.0394, -0.1299 0.0231 0.0394, -0.1279 0.0259 0.0394, -0.1292 0.0259 0.0394, -0.1284 0.0286 0.0394, -0.1287 0.0286 0.0394, -0.0352 0.0296 0.0394, -0.0352 -0.0318 0.0394, -0.0468 0.0296 0.0394, -0.0463 -0.0318 0.0394, -0.0546 -0.0311 0.0394, -0.0774 -0.0004 0.0394, -0.0767 0.0075 0.0394, -0.0749 0.0137 0.0394, -0.0561 0.0286 0.0394, -0.0613 -0.029 0.0394, -0.0666 -0.0258 0.0394, -0.0711 -0.0215 0.0394, -0.0744 -0.016 0.0394, -0.0767 -0.0086 0.0394, -0.0722 0.0186 0.0394, -0.0683 0.0226 0.0394, -0.0626 0.0263 0.0394, 0.9641 0.7874 0.0733, 0.9617 0.7874 0.0642, 0.9603 0.7999 0.0642, 0.9572 0.7874 0.056, 0.956 0.7989 0.056, 0.951 0.7874 0.049, 0.9498 0.7975 0.049, 0.9432 0.7874 0.0438, 0.9423 0.7958 0.0438, 0.9344 0.7874 0.0405, 0.9337 0.7938 0.0405, 0.9251 0.7874 0.0394, 0.9246 0.7918 0.0394, 0.9232 0.7959 0.0394, 0.9316 0.7999 0.0405, 0.9208 0.7996 0.0394, 0.9281 0.8054 0.0405, 0.9177 0.8027 0.0394, 0.9235 0.81 0.0405, 0.914 0.8051 0.0394, 0.9181 0.8135 0.0405, 0.9099 0.8065 0.0394, 0.9119 0.8156 0.0405, 0.9055 0.807 0.0394, 0.9055 0.8163 0.0405, 0.9395 0.8038 0.0438, 0.935 0.8109 0.0438, 0.929 0.8169 0.0438, 0.9219 0.8214 0.0438, 0.9139 0.8242 0.0438, 0.9055 0.8251 0.0438, 0.9465 0.8071 0.049, 0.941 0.8157 0.049, 0.9338 0.8229 0.049, 0.9252 0.8283 0.049, 0.9156 0.8317 0.049, 0.9055 0.8328 0.049, 0.9521 0.8098 0.056, 0.946 0.8197 0.056, 0.9378 0.8279 0.056, 0.928 0.834 0.056, 0.917 0.8378 0.056, 0.9055 0.8391 0.056, 0.9562 0.8118 0.0642, 0.9495 0.8224 0.0642, 0.9406 0.8313 0.0642, 0.9299 0.838 0.0642, 0.918 0.8422 0.0642, 0.9055 0.8436 0.0642, 0.9626 0.8004 0.0733, 0.9583 0.8128 0.0733, 0.9513 0.8239 0.0733, 0.9421 0.8332 0.0733, 0.9309 0.8402 0.0733, 0.9186 0.8445 0.0733, 0.9055 0.846 0.0733, 0.0407 0.807 0.0394, -0.9055 0.807 0.0394, -0.9055 0.8163 0.0405, -0.9055 0.8251 0.0438, -0.9055 0.8328 0.049, -0.9055 0.8391 0.056, -0.9055 0.8436 0.0642, -0.9055 0.846 0.0733, 0.9251 -0.041 0.0394, 0.9344 -0.7874 0.0405, 0.9251 -0.7874 0.0394, 0.9432 -0.7874 0.0438, 0.951 -0.7874 0.049, 0.9572 -0.7874 0.056, 0.9617 -0.7874 0.0642, 0.9641 -0.7874 0.0733, -0.918 0.8422 0.0642, -0.917 0.8378 0.056, -0.9156 0.8317 0.049, -0.9139 0.8242 0.0438, -0.9119 0.8156 0.0405, -0.9099 0.8065 0.0394, -0.914 0.8051 0.0394, -0.9181 0.8135 0.0405, -0.9177 0.8027 0.0394, -0.9235 0.81 0.0405, -0.9208 0.7996 0.0394, -0.9281 0.8054 0.0405, -0.9232 0.7959 0.0394, -0.9316 0.7999 0.0405, -0.9246 0.7918 0.0394, -0.9337 0.7938 0.0405, -0.9251 0.7874 0.0394, -0.9344 0.7874 0.0405, -0.9219 0.8214 0.0438, -0.929 0.8169 0.0438, -0.935 0.8109 0.0438, -0.9395 0.8038 0.0438, -0.9423 0.7958 0.0438, -0.9432 0.7874 0.0438, -0.9252 0.8283 0.049, -0.9338 0.8229 0.049, -0.941 0.8157 0.049, -0.9465 0.8071 0.049, -0.9498 0.7975 0.049, -0.951 0.7874 0.049, -0.928 0.834 0.056, -0.9378 0.8279 0.056, -0.946 0.8197 0.056, -0.9521 0.8098 0.056, -0.956 0.7989 0.056, -0.9572 0.7874 0.056, -0.9299 0.838 0.0642, -0.9406 0.8313 0.0642, -0.9495 0.8224 0.0642, -0.9562 0.8118 0.0642, -0.9603 0.7999 0.0642, -0.9617 0.7874 0.0642, -0.9186 0.8445 0.0733, -0.9309 0.8402 0.0733, -0.9421 0.8332 0.0733, -0.9513 0.8239 0.0733, -0.9583 0.8128 0.0733, -0.9626 0.8004 0.0733, -0.9641 0.7874 0.0733, 0.9055 -0.846 0.0733, 0.9055 -0.8436 0.0642, 0.918 -0.8422 0.0642, 0.9055 -0.8391 0.056, 0.917 -0.8378 0.056, 0.9055 -0.8328 0.049, 0.9156 -0.8317 0.049, 0.9055 -0.8251 0.0438, 0.9139 -0.8242 0.0438, 0.9055 -0.8163 0.0405, 0.9119 -0.8156 0.0405, 0.9055 -0.807 0.0394, 0.9099 -0.8065 0.0394, 0.914 -0.8051 0.0394, 0.9181 -0.8135 0.0405, 0.9177 -0.8027 0.0394, 0.9235 -0.81 0.0405, 0.9208 -0.7996 0.0394, 0.9281 -0.8054 0.0405, 0.9232 -0.7959 0.0394, 0.9316 -0.7999 0.0405, 0.9246 -0.7918 0.0394, 0.9337 -0.7938 0.0405, 0.9219 -0.8214 0.0438, 0.929 -0.8169 0.0438, 0.935 -0.8109 0.0438, 0.9395 -0.8038 0.0438, 0.9423 -0.7958 0.0438, 0.9252 -0.8283 0.049, 0.9338 -0.8229 0.049, 0.941 -0.8157 0.049, 0.9465 -0.8071 0.049, 0.9498 -0.7975 0.049, 0.928 -0.834 0.056, 0.9378 -0.8279 0.056, 0.946 -0.8197 0.056, 0.9521 -0.8098 0.056, 0.956 -0.7989 0.056, 0.9299 -0.838 0.0642, 0.9406 -0.8313 0.0642, 0.9495 -0.8224 0.0642, 0.9562 -0.8118 0.0642, 0.9603 -0.7999 0.0642, 0.9186 -0.8445 0.0733, 0.9309 -0.8402 0.0733, 0.9421 -0.8332 0.0733, 0.9513 -0.8239 0.0733, 0.9583 -0.8128 0.0733, 0.9626 -0.8004 0.0733, -0.9251 -0.041 0.0394, -0.9251 -0.7874 0.0394, -0.9344 -0.7874 0.0405, -0.9432 -0.7874 0.0438, -0.951 -0.7874 0.049, -0.9572 -0.7874 0.056, -0.9617 -0.7874 0.0642, -0.9641 -0.7874 0.0733, 0.0407 -0.807 0.0394, -0.9055 -0.8163 0.0405, -0.9055 -0.807 0.0394, -0.9055 -0.8251 0.0438, -0.9055 -0.8328 0.049, -0.9055 -0.8391 0.056, -0.9055 -0.8436 0.0642, -0.9055 -0.846 0.0733, -0.9603 -0.7999 0.0642, -0.956 -0.7989 0.056, -0.9498 -0.7975 0.049, -0.9423 -0.7958 0.0438, -0.9337 -0.7938 0.0405, -0.9246 -0.7918 0.0394, -0.9232 -0.7959 0.0394, -0.9316 -0.7999 0.0405, -0.9208 -0.7996 0.0394, -0.9281 -0.8054 0.0405, -0.9177 -0.8027 0.0394, -0.9235 -0.81 0.0405, -0.914 -0.8051 0.0394, -0.9181 -0.8135 0.0405, -0.9099 -0.8065 0.0394, -0.9119 -0.8156 0.0405, -0.9395 -0.8038 0.0438, -0.935 -0.8109 0.0438, -0.929 -0.8169 0.0438, -0.9219 -0.8214 0.0438, -0.9139 -0.8242 0.0438, -0.9465 -0.8071 0.049, -0.941 -0.8157 0.049, -0.9338 -0.8229 0.049, -0.9252 -0.8283 0.049, -0.9156 -0.8317 0.049, -0.9521 -0.8098 0.056, -0.946 -0.8197 0.056, -0.9378 -0.8279 0.056, -0.928 -0.834 0.056, -0.917 -0.8378 0.056, -0.9562 -0.8118 0.0642, -0.9495 -0.8224 0.0642, -0.9406 -0.8313 0.0642, -0.9299 -0.838 0.0642, -0.918 -0.8422 0.0642, -0.9626 -0.8004 0.0733, -0.9583 -0.8128 0.0733, -0.9513 -0.8239 0.0733, -0.9421 -0.8332 0.0733, -0.9309 -0.8402 0.0733, -0.9186 -0.8445 0.0733, 0.9251 0.7874 0.3937, 0.9344 0.7874 0.3926, 0.9337 0.7938 0.3926, 0.9432 0.7874 0.3893, 0.9423 0.7958 0.3893, 0.951 0.7874 0.384, 0.9498 0.7975 0.384, 0.9572 0.7874 0.3771, 0.956 0.7989 0.3771, 0.9617 0.7874 0.3689, 0.9603 0.7999 0.3689, 0.9641 0.7874 0.3598, 0.9626 0.8004 0.3598, 0.9583 0.8128 0.3598, 0.9562 0.8118 0.3689, 0.9513 0.8239 0.3598, 0.9495 0.8224 0.3689, 0.9421 0.8332 0.3598, 0.9406 0.8313 0.3689, 0.9309 0.8402 0.3598, 0.9299 0.838 0.3689, 0.9186 0.8445 0.3598, 0.918 0.8422 0.3689, 0.9055 0.846 0.3598, 0.9055 0.8436 0.3689, 0.9521 0.8098 0.3771, 0.946 0.8197 0.3771, 0.9378 0.8279 0.3771, 0.928 0.834 0.3771, 0.917 0.8378 0.3771, 0.9055 0.8391 0.3771, 0.9465 0.8071 0.384, 0.941 0.8157 0.384, 0.9338 0.8229 0.384, 0.9252 0.8283 0.384, 0.9156 0.8317 0.384, 0.9055 0.8328 0.384, 0.9395 0.8038 0.3893, 0.935 0.8109 0.3893, 0.929 0.8169 0.3893, 0.9219 0.8214 0.3893, 0.9139 0.8242 0.3893, 0.9055 0.8251 0.3893, 0.9316 0.7999 0.3926, 0.9281 0.8054 0.3926, 0.9235 0.81 0.3926, 0.9181 0.8135 0.3926, 0.9119 0.8156 0.3926, 0.9055 0.8163 0.3926, 0.9246 0.7918 0.3937, 0.9232 0.7959 0.3937, 0.9208 0.7996 0.3937, 0.9177 0.8027 0.3937, 0.914 0.8051 0.3937, 0.9099 0.8065 0.3937, 0.9055 0.807 0.3937, -0.9055 0.807 0.3937, -0.9055 0.8163 0.3926, -0.9055 0.8251 0.3893, -0.9055 0.8328 0.384, -0.9055 0.8391 0.3771, -0.9055 0.8436 0.3689, -0.9055 0.846 0.3598, 0.9251 -0.7874 0.3937, 0.9344 -0.7874 0.3926, 0.9432 -0.7874 0.3893, 0.951 -0.7874 0.384, 0.9572 -0.7874 0.3771, 0.9617 -0.7874 0.3689, 0.9641 -0.7874 0.3598, -0.9119 0.8156 0.3926, -0.9139 0.8242 0.3893, -0.9156 0.8317 0.384, -0.917 0.8378 0.3771, -0.918 0.8422 0.3689, -0.9186 0.8445 0.3598, -0.9309 0.8402 0.3598, -0.9299 0.838 0.3689, -0.9421 0.8332 0.3598, -0.9406 0.8313 0.3689, -0.9513 0.8239 0.3598, -0.9495 0.8224 0.3689, -0.9583 0.8128 0.3598, -0.9562 0.8118 0.3689, -0.9626 0.8004 0.3598, -0.9603 0.7999 0.3689, -0.9641 0.7874 0.3598, -0.9617 0.7874 0.3689, -0.928 0.834 0.3771, -0.9378 0.8279 0.3771, -0.946 0.8197 0.3771, -0.9521 0.8098 0.3771, -0.956 0.7989 0.3771, -0.9572 0.7874 0.3771, -0.9252 0.8283 0.384, -0.9338 0.8229 0.384, -0.941 0.8157 0.384, -0.9465 0.8071 0.384, -0.9498 0.7975 0.384, -0.951 0.7874 0.384, -0.9219 0.8214 0.3893, -0.929 0.8169 0.3893, -0.935 0.8109 0.3893, -0.9395 0.8038 0.3893, -0.9423 0.7958 0.3893, -0.9432 0.7874 0.3893, -0.9181 0.8135 0.3926, -0.9235 0.81 0.3926, -0.9281 0.8054 0.3926, -0.9316 0.7999 0.3926, -0.9337 0.7938 0.3926, -0.9344 0.7874 0.3926, -0.9099 0.8065 0.3937, -0.914 0.8051 0.3937, -0.9177 0.8027 0.3937, -0.9208 0.7996 0.3937, -0.9232 0.7959 0.3937, -0.9246 0.7918 0.3937, -0.9251 0.7874 0.3937, 0.9055 -0.807 0.3937, 0.9055 -0.8163 0.3926, 0.9119 -0.8156 0.3926, 0.9055 -0.8251 0.3893, 0.9139 -0.8242 0.3893, 0.9055 -0.8328 0.384, 0.9156 -0.8317 0.384, 0.9055 -0.8391 0.3771, 0.917 -0.8378 0.3771, 0.9055 -0.8436 0.3689, 0.918 -0.8422 0.3689, 0.9055 -0.846 0.3598, 0.9186 -0.8445 0.3598, 0.9309 -0.8402 0.3598, 0.9299 -0.838 0.3689, 0.9421 -0.8332 0.3598, 0.9406 -0.8313 0.3689, 0.9513 -0.8239 0.3598, 0.9495 -0.8224 0.3689, 0.9583 -0.8128 0.3598, 0.9562 -0.8118 0.3689, 0.9626 -0.8004 0.3598, 0.9603 -0.7999 0.3689, 0.928 -0.834 0.3771, 0.9378 -0.8279 0.3771, 0.946 -0.8197 0.3771, 0.9521 -0.8098 0.3771, 0.956 -0.7989 0.3771, 0.9252 -0.8283 0.384, 0.9338 -0.8229 0.384, 0.941 -0.8157 0.384, 0.9465 -0.8071 0.384, 0.9498 -0.7975 0.384, 0.9219 -0.8214 0.3893, 0.929 -0.8169 0.3893, 0.935 -0.8109 0.3893, 0.9395 -0.8038 0.3893, 0.9423 -0.7958 0.3893, 0.9181 -0.8135 0.3926, 0.9235 -0.81 0.3926, 0.9281 -0.8054 0.3926, 0.9316 -0.7999 0.3926, 0.9337 -0.7938 0.3926, 0.9099 -0.8065 0.3937, 0.914 -0.8051 0.3937, 0.9177 -0.8027 0.3937, 0.9208 -0.7996 0.3937, 0.9232 -0.7959 0.3937, 0.9246 -0.7918 0.3937, -0.9251 -0.7874 0.3937, -0.9344 -0.7874 0.3926, -0.9432 -0.7874 0.3893, -0.951 -0.7874 0.384, -0.9572 -0.7874 0.3771, -0.9617 -0.7874 0.3689, -0.9641 -0.7874 0.3598, -0.9055 -0.807 0.3937, -0.9055 -0.8163 0.3926, -0.9055 -0.8251 0.3893, -0.9055 -0.8328 0.384, -0.9055 -0.8391 0.3771, -0.9055 -0.8436 0.3689, -0.9055 -0.846 0.3598, -0.9337 -0.7938 0.3926, -0.9423 -0.7958 0.3893, -0.9498 -0.7975 0.384, -0.956 -0.7989 0.3771, -0.9603 -0.7999 0.3689, -0.9626 -0.8004 0.3598, -0.9583 -0.8128 0.3598, -0.9562 -0.8118 0.3689, -0.9513 -0.8239 0.3598, -0.9495 -0.8224 0.3689, -0.9421 -0.8332 0.3598, -0.9406 -0.8313 0.3689, -0.9309 -0.8402 0.3598, -0.9299 -0.838 0.3689, -0.9186 -0.8445 0.3598, -0.918 -0.8422 0.3689, -0.9521 -0.8098 0.3771, -0.946 -0.8197 0.3771, -0.9378 -0.8279 0.3771, -0.928 -0.834 0.3771, -0.917 -0.8378 0.3771, -0.9465 -0.8071 0.384, -0.941 -0.8157 0.384, -0.9338 -0.8229 0.384, -0.9252 -0.8283 0.384, -0.9156 -0.8317 0.384, -0.9395 -0.8038 0.3893, -0.935 -0.8109 0.3893, -0.929 -0.8169 0.3893, -0.9219 -0.8214 0.3893, -0.9139 -0.8242 0.3893, -0.9316 -0.7999 0.3926, -0.9281 -0.8054 0.3926, -0.9235 -0.81 0.3926, -0.9181 -0.8135 0.3926, -0.9119 -0.8156 0.3926, -0.9246 -0.7918 0.3937, -0.9232 -0.7959 0.3937, -0.9208 -0.7996 0.3937, -0.9177 -0.8027 0.3937, -0.914 -0.8051 0.3937, -0.9099 -0.8065 0.3937
            ]
        }
        coordIndex [
            0,1,2,-1,2,1,3,-1,2,3,4,-1,4,3,5,-1,4,5,6,-1,6,5,7,-1,8,9,10,-1,10,9,11,-1,10,11,12,-1,13,14,10,-1,10,14,15,-1,10,15,16,-1,12,17,10,-1,10,17,18,-1,10,18,19,-1,19,20,10,-1,10,20,21,-1,10,21,13,-1,22,23,15,-1,15,23,24,-1,15,24,16,-1,25,26,27,-1,26,28,29,-1,28,30,31,-1,30,32,33,-1,32,34,35,-1,34,36,37,-1,34,37,35,-1,35,37,38,-1,35,38,39,-1,39,38,40,-1,39,40,41,-1,41,40,42,-1,41,42,43,-1,43,42,44,-1,43,44,45,-1,45,44,46,-1,45,46,47,-1,47,46,48,-1,47,48,49,-1,32,35,33,-1,33,35,39,-1,33,39,50,-1,50,39,41,-1,50,41,51,-1,51,41,43,-1,51,43,52,-1,52,43,45,-1,52,45,53,-1,53,45,47,-1,53,47,54,-1,54,47,49,-1,54,49,55,-1,30,33,31,-1,31,33,50,-1,31,50,56,-1,56,50,51,-1,56,51,57,-1,57,51,52,-1,57,52,58,-1,58,52,53,-1,58,53,59,-1,59,53,54,-1,59,54,60,-1,60,54,55,-1,60,55,61,-1,28,31,29,-1,29,31,56,-1,29,56,62,-1,62,56,57,-1,62,57,63,-1,63,57,58,-1,63,58,64,-1,64,58,59,-1,64,59,65,-1,65,59,60,-1,65,60,66,-1,66,60,61,-1,66,61,67,-1,26,29,27,-1,27,29,62,-1,27,62,68,-1,68,62,63,-1,68,63,69,-1,69,63,64,-1,69,64,70,-1,70,64,65,-1,70,65,71,-1,71,65,66,-1,71,66,72,-1,72,66,67,-1,72,67,73,-1,25,27,74,-1,74,27,68,-1,74,68,75,-1,75,68,69,-1,75,69,76,-1,76,69,70,-1,76,70,77,-1,77,70,71,-1,77,71,78,-1,78,71,72,-1,78,72,79,-1,79,72,73,-1,79,73,80,-1,81,82,83,-1,49,48,81,-1,81,83,49,-1,49,83,84,-1,49,84,55,-1,55,84,85,-1,55,85,61,-1,61,85,86,-1,61,86,67,-1,67,86,87,-1,67,87,73,-1,73,87,88,-1,73,88,80,-1,89,36,34,-1,90,91,89,-1,89,34,90,-1,90,34,32,-1,90,32,92,-1,92,32,30,-1,92,30,93,-1,93,30,28,-1,93,28,94,-1,94,28,26,-1,94,26,95,-1,95,26,25,-1,95,25,96,-1,88,87,97,-1,87,86,98,-1,86,85,99,-1,85,84,100,-1,84,83,101,-1,83,82,102,-1,83,102,101,-1,101,102,103,-1,101,103,104,-1,104,103,105,-1,104,105,106,-1,106,105,107,-1,106,107,108,-1,108,107,109,-1,108,109,110,-1,110,109,111,-1,110,111,112,-1,112,111,113,-1,112,113,114,-1,84,101,100,-1,100,101,104,-1,100,104,115,-1,115,104,106,-1,115,106,116,-1,116,106,108,-1,116,108,117,-1,117,108,110,-1,117,110,118,-1,118,110,112,-1,118,112,119,-1,119,112,114,-1,119,114,120,-1,85,100,99,-1,99,100,115,-1,99,115,121,-1,121,115,116,-1,121,116,122,-1,122,116,117,-1,122,117,123,-1,123,117,118,-1,123,118,124,-1,124,118,119,-1,124,119,125,-1,125,119,120,-1,125,120,126,-1,86,99,98,-1,98,99,121,-1,98,121,127,-1,127,121,122,-1,127,122,128,-1,128,122,123,-1,128,123,129,-1,129,123,124,-1,129,124,130,-1,130,124,125,-1,130,125,131,-1,131,125,126,-1,131,126,132,-1,87,98,97,-1,97,98,127,-1,97,127,133,-1,133,127,128,-1,133,128,134,-1,134,128,129,-1,134,129,135,-1,135,129,130,-1,135,130,136,-1,136,130,131,-1,136,131,137,-1,137,131,132,-1,137,132,138,-1,88,97,139,-1,139,97,133,-1,139,133,140,-1,140,133,134,-1,140,134,141,-1,141,134,135,-1,141,135,142,-1,142,135,136,-1,142,136,143,-1,143,136,137,-1,143,137,144,-1,144,137,138,-1,144,138,145,-1,146,147,148,-1,147,149,150,-1,149,151,152,-1,151,153,154,-1,153,155,156,-1,155,157,158,-1,155,158,156,-1,156,158,159,-1,156,159,160,-1,160,159,161,-1,160,161,162,-1,162,161,163,-1,162,163,164,-1,164,163,165,-1,164,165,166,-1,166,165,167,-1,166,167,168,-1,168,167,91,-1,168,91,90,-1,153,156,154,-1,154,156,160,-1,154,160,169,-1,169,160,162,-1,169,162,170,-1,170,162,164,-1,170,164,171,-1,171,164,166,-1,171,166,172,-1,172,166,168,-1,172,168,173,-1,173,168,90,-1,173,90,92,-1,151,154,152,-1,152,154,169,-1,152,169,174,-1,174,169,170,-1,174,170,175,-1,175,170,171,-1,175,171,176,-1,176,171,172,-1,176,172,177,-1,177,172,173,-1,177,173,178,-1,178,173,92,-1,178,92,93,-1,149,152,150,-1,150,152,174,-1,150,174,179,-1,179,174,175,-1,179,175,180,-1,180,175,176,-1,180,176,181,-1,181,176,177,-1,181,177,182,-1,182,177,178,-1,182,178,183,-1,183,178,93,-1,183,93,94,-1,147,150,148,-1,148,150,179,-1,148,179,184,-1,184,179,180,-1,184,180,185,-1,185,180,181,-1,185,181,186,-1,186,181,182,-1,186,182,187,-1,187,182,183,-1,187,183,188,-1,188,183,94,-1,188,94,95,-1,146,148,189,-1,189,148,184,-1,189,184,190,-1,190,184,185,-1,190,185,191,-1,191,185,186,-1,191,186,192,-1,192,186,187,-1,192,187,193,-1,193,187,188,-1,193,188,194,-1,194,188,95,-1,194,95,96,-1,195,196,197,-1,114,113,195,-1,195,197,114,-1,114,197,198,-1,114,198,120,-1,120,198,199,-1,120,199,126,-1,126,199,200,-1,126,200,132,-1,132,200,201,-1,132,201,138,-1,138,201,202,-1,138,202,145,-1,203,157,155,-1,204,205,203,-1,203,155,204,-1,204,155,153,-1,204,153,206,-1,206,153,151,-1,206,151,207,-1,207,151,149,-1,207,149,208,-1,208,149,147,-1,208,147,209,-1,209,147,146,-1,209,146,210,-1,202,201,211,-1,201,200,212,-1,200,199,213,-1,199,198,214,-1,198,197,215,-1,197,196,216,-1,197,216,215,-1,215,216,217,-1,215,217,218,-1,218,217,219,-1,218,219,220,-1,220,219,221,-1,220,221,222,-1,222,221,223,-1,222,223,224,-1,224,223,225,-1,224,225,226,-1,226,225,205,-1,226,205,204,-1,198,215,214,-1,214,215,218,-1,214,218,227,-1,227,218,220,-1,227,220,228,-1,228,220,222,-1,228,222,229,-1,229,222,224,-1,229,224,230,-1,230,224,226,-1,230,226,231,-1,231,226,204,-1,231,204,206,-1,199,214,213,-1,213,214,227,-1,213,227,232,-1,232,227,228,-1,232,228,233,-1,233,228,229,-1,233,229,234,-1,234,229,230,-1,234,230,235,-1,235,230,231,-1,235,231,236,-1,236,231,206,-1,236,206,207,-1,200,213,212,-1,212,213,232,-1,212,232,237,-1,237,232,233,-1,237,233,238,-1,238,233,234,-1,238,234,239,-1,239,234,235,-1,239,235,240,-1,240,235,236,-1,240,236,241,-1,241,236,207,-1,241,207,208,-1,201,212,211,-1,211,212,237,-1,211,237,242,-1,242,237,238,-1,242,238,243,-1,243,238,239,-1,243,239,244,-1,244,239,240,-1,244,240,245,-1,245,240,241,-1,245,241,246,-1,246,241,208,-1,246,208,209,-1,202,211,247,-1,247,211,242,-1,247,242,248,-1,248,242,243,-1,248,243,249,-1,249,243,244,-1,249,244,250,-1,250,244,245,-1,250,245,251,-1,251,245,246,-1,251,246,252,-1,252,246,209,-1,252,209,210,-1,253,254,255,-1,254,256,257,-1,256,258,259,-1,258,260,261,-1,260,262,263,-1,262,264,265,-1,262,265,263,-1,263,265,266,-1,263,266,267,-1,267,266,268,-1,267,268,269,-1,269,268,270,-1,269,270,271,-1,271,270,272,-1,271,272,273,-1,273,272,274,-1,273,274,275,-1,275,274,276,-1,275,276,277,-1,260,263,261,-1,261,263,267,-1,261,267,278,-1,278,267,269,-1,278,269,279,-1,279,269,271,-1,279,271,280,-1,280,271,273,-1,280,273,281,-1,281,273,275,-1,281,275,282,-1,282,275,277,-1,282,277,283,-1,258,261,259,-1,259,261,278,-1,259,278,284,-1,284,278,279,-1,284,279,285,-1,285,279,280,-1,285,280,286,-1,286,280,281,-1,286,281,287,-1,287,281,282,-1,287,282,288,-1,288,282,283,-1,288,283,289,-1,256,259,257,-1,257,259,284,-1,257,284,290,-1,290,284,285,-1,290,285,291,-1,291,285,286,-1,291,286,292,-1,292,286,287,-1,292,287,293,-1,293,287,288,-1,293,288,294,-1,294,288,289,-1,294,289,295,-1,254,257,255,-1,255,257,290,-1,255,290,296,-1,296,290,291,-1,296,291,297,-1,297,291,292,-1,297,292,298,-1,298,292,293,-1,298,293,299,-1,299,293,294,-1,299,294,300,-1,300,294,295,-1,300,295,301,-1,253,255,302,-1,302,255,296,-1,302,296,303,-1,303,296,297,-1,303,297,304,-1,304,297,298,-1,304,298,305,-1,305,298,299,-1,305,299,306,-1,306,299,300,-1,306,300,307,-1,307,300,301,-1,307,301,308,-1,309,308,301,-1,309,301,310,-1,310,301,295,-1,310,295,311,-1,311,295,289,-1,311,289,312,-1,312,289,283,-1,312,283,313,-1,313,283,277,-1,313,277,314,-1,314,277,276,-1,314,276,315,-1,253,316,317,-1,253,317,254,-1,254,317,318,-1,254,318,256,-1,256,318,319,-1,256,319,258,-1,258,319,320,-1,258,320,260,-1,260,320,321,-1,260,321,262,-1,262,321,322,-1,262,322,264,-1,309,310,323,-1,310,311,324,-1,311,312,325,-1,312,313,326,-1,313,314,327,-1,314,315,328,-1,314,328,327,-1,327,328,329,-1,327,329,330,-1,330,329,331,-1,330,331,332,-1,332,331,333,-1,332,333,334,-1,334,333,335,-1,334,335,336,-1,336,335,337,-1,336,337,338,-1,338,337,339,-1,338,339,340,-1,313,327,326,-1,326,327,330,-1,326,330,341,-1,341,330,332,-1,341,332,342,-1,342,332,334,-1,342,334,343,-1,343,334,336,-1,343,336,344,-1,344,336,338,-1,344,338,345,-1,345,338,340,-1,345,340,346,-1,312,326,325,-1,325,326,341,-1,325,341,347,-1,347,341,342,-1,347,342,348,-1,348,342,343,-1,348,343,349,-1,349,343,344,-1,349,344,350,-1,350,344,345,-1,350,345,351,-1,351,345,346,-1,351,346,352,-1,311,325,324,-1,324,325,347,-1,324,347,353,-1,353,347,348,-1,353,348,354,-1,354,348,349,-1,354,349,355,-1,355,349,350,-1,355,350,356,-1,356,350,351,-1,356,351,357,-1,357,351,352,-1,357,352,358,-1,310,324,323,-1,323,324,353,-1,323,353,359,-1,359,353,354,-1,359,354,360,-1,360,354,355,-1,360,355,361,-1,361,355,356,-1,361,356,362,-1,362,356,357,-1,362,357,363,-1,363,357,358,-1,363,358,364,-1,309,323,365,-1,365,323,359,-1,365,359,366,-1,366,359,360,-1,366,360,367,-1,367,360,361,-1,367,361,368,-1,368,361,362,-1,368,362,369,-1,369,362,363,-1,369,363,370,-1,370,363,364,-1,370,364,371,-1,372,373,374,-1,373,375,376,-1,375,377,378,-1,377,379,380,-1,379,381,382,-1,381,383,384,-1,381,384,382,-1,382,384,385,-1,382,385,386,-1,386,385,387,-1,386,387,388,-1,388,387,389,-1,388,389,390,-1,390,389,391,-1,390,391,392,-1,392,391,393,-1,392,393,394,-1,394,393,322,-1,394,322,321,-1,379,382,380,-1,380,382,386,-1,380,386,395,-1,395,386,388,-1,395,388,396,-1,396,388,390,-1,396,390,397,-1,397,390,392,-1,397,392,398,-1,398,392,394,-1,398,394,399,-1,399,394,321,-1,399,321,320,-1,377,380,378,-1,378,380,395,-1,378,395,400,-1,400,395,396,-1,400,396,401,-1,401,396,397,-1,401,397,402,-1,402,397,398,-1,402,398,403,-1,403,398,399,-1,403,399,404,-1,404,399,320,-1,404,320,319,-1,375,378,376,-1,376,378,400,-1,376,400,405,-1,405,400,401,-1,405,401,406,-1,406,401,402,-1,406,402,407,-1,407,402,403,-1,407,403,408,-1,408,403,404,-1,408,404,409,-1,409,404,319,-1,409,319,318,-1,373,376,374,-1,374,376,405,-1,374,405,410,-1,410,405,406,-1,410,406,411,-1,411,406,407,-1,411,407,412,-1,412,407,408,-1,412,408,413,-1,413,408,409,-1,413,409,414,-1,414,409,318,-1,414,318,317,-1,372,374,415,-1,415,374,410,-1,415,410,416,-1,416,410,411,-1,416,411,417,-1,417,411,412,-1,417,412,418,-1,418,412,413,-1,418,413,419,-1,419,413,414,-1,419,414,420,-1,420,414,317,-1,420,317,316,-1,421,371,364,-1,421,364,422,-1,422,364,358,-1,422,358,423,-1,423,358,352,-1,423,352,424,-1,424,352,346,-1,424,346,425,-1,425,346,340,-1,425,340,426,-1,426,340,339,-1,426,339,427,-1,372,428,429,-1,372,429,373,-1,373,429,430,-1,373,430,375,-1,375,430,431,-1,375,431,377,-1,377,431,432,-1,377,432,379,-1,379,432,433,-1,379,433,381,-1,381,433,434,-1,381,434,383,-1,421,422,435,-1,422,423,436,-1,423,424,437,-1,424,425,438,-1,425,426,439,-1,426,427,440,-1,426,440,439,-1,439,440,441,-1,439,441,442,-1,442,441,443,-1,442,443,444,-1,444,443,445,-1,444,445,446,-1,446,445,447,-1,446,447,448,-1,448,447,449,-1,448,449,450,-1,450,449,434,-1,450,434,433,-1,425,439,438,-1,438,439,442,-1,438,442,451,-1,451,442,444,-1,451,444,452,-1,452,444,446,-1,452,446,453,-1,453,446,448,-1,453,448,454,-1,454,448,450,-1,454,450,455,-1,455,450,433,-1,455,433,432,-1,424,438,437,-1,437,438,451,-1,437,451,456,-1,456,451,452,-1,456,452,457,-1,457,452,453,-1,457,453,458,-1,458,453,454,-1,458,454,459,-1,459,454,455,-1,459,455,460,-1,460,455,432,-1,460,432,431,-1,423,437,436,-1,436,437,456,-1,436,456,461,-1,461,456,457,-1,461,457,462,-1,462,457,458,-1,462,458,463,-1,463,458,459,-1,463,459,464,-1,464,459,460,-1,464,460,465,-1,465,460,431,-1,465,431,430,-1,422,436,435,-1,435,436,461,-1,435,461,466,-1,466,461,462,-1,466,462,467,-1,467,462,463,-1,467,463,468,-1,468,463,464,-1,468,464,469,-1,469,464,465,-1,469,465,470,-1,470,465,430,-1,470,430,429,-1,421,435,471,-1,471,435,466,-1,471,466,472,-1,472,466,467,-1,472,467,473,-1,473,467,468,-1,473,468,474,-1,474,468,469,-1,474,469,475,-1,475,469,470,-1,475,470,476,-1,476,470,429,-1,476,429,428,-1,
        ]
    }
}