#VRML V2.0 utf8
# 3D model generated by easyeda2kicad.py (https://github.com/uPesy/easyeda2kicad.py)

Shape{
    appearance Appearance {
        material  Material 	{
            diffuseColor 0.6196078431372549 0.40784313725490196 0.2
            specularColor 0.30980392156862746 0.20392156862745098 0.10196078431372549
            ambientIntensity 0.4475
            transparency 0.0
            shininess 0.5
        }
    }
    geometry IndexedFaceSet {
        ccw TRUE
        solid FALSE
        coord DEF co Coordinate {
            point [
                -1.3583 0.2988 0.2, -1.3583 0.2988 0.5, -1.2008 0.2988 0.5, -1.2008 0.2988 0.2575, -1.1974 0.2988 0.2316, -1.3514 0.2988 0.1482, -1.1874 0.2988 0.2075, -0.5709 0.2988 0.1575, -0.5709 0.2988 0.0, -1.1008 0.2988 0.1575, -1.1583 0.2988 0.0, -1.1267 0.2988 0.1609, -1.21 0.2988 0.0068, -1.1508 0.2988 0.1709, -1.2583 0.2988 0.0268, -1.1715 0.2988 0.1868, -1.2997 0.2988 0.0586, -1.3315 0.2988 0.1, -1.1583 0.6886 0.0, -0.5709 0.6886 0.0, -0.5709 0.6886 0.1575, -1.1008 0.6886 0.1575, -1.1267 0.6886 0.1609, -1.21 0.6886 0.0068, -1.1508 0.6886 0.1709, -1.2008 0.6886 0.5, -1.3583 0.6886 0.5, -1.2008 0.6886 0.2575, -1.3583 0.6886 0.2, -1.1974 0.6886 0.2316, -1.3514 0.6886 0.1482, -1.1874 0.6886 0.2075, -1.3315 0.6886 0.1, -1.1715 0.6886 0.1868, -1.2997 0.6886 0.0586, -1.2583 0.6886 0.0268, -1.3583 0.9642 0.2, -1.3514 0.9642 0.1482, -1.3315 0.9642 0.1, -1.2997 0.9642 0.0586, -1.2583 0.9642 0.0268, -1.21 0.9642 0.0068, -1.1583 0.9642 0.0, -1.3583 -1.6343 0.2, -1.3514 -1.6343 0.1482, -1.3315 -1.6343 0.1, -1.2997 -1.6343 0.0586, -1.2583 -1.6343 0.0268, -1.21 -1.6343 0.0068, -1.1583 -1.6343 0.0, -0.5709 0.9642 0.0, -0.5709 -1.6343 0.0, -1.2008 0.9642 0.2575, -1.2008 0.9642 0.8425, -1.2008 -1.6343 0.8425, -1.2008 -1.6343 0.2575, -0.5709 0.9642 0.1575, -1.1008 0.9642 0.1575, -1.1008 -1.6343 0.1575, -0.5709 -1.6343 0.1575, -1.1267 0.9642 0.1609, -1.1508 0.9642 0.1709, -1.1715 0.9642 0.1868, -1.1874 0.9642 0.2075, -1.1974 0.9642 0.2316, -1.1267 -1.6343 0.1609, -1.1508 -1.6343 0.1709, -1.1715 -1.6343 0.1868, -1.1874 -1.6343 0.2075, -1.1974 -1.6343 0.2316, -1.1185 0.9642 0.9409, -1.1185 -1.6343 0.9409, -1.1407 0.9642 0.9342, -1.1407 -1.6343 0.9342, -1.1607 0.9642 0.9226, -1.1607 -1.6343 0.9226, -1.1775 0.9642 0.9067, -1.1775 -1.6343 0.9067, -1.1902 0.9642 0.8873, -1.1902 -1.6343 0.8873, -1.1981 0.9642 0.8655, -1.1981 -1.6343 0.8655, -1.3583 0.9642 0.8984, -1.3583 -1.6343 0.8984, -1.1185 -1.6343 1.0984, -1.1583 -1.6343 1.0984, -1.21 -1.6343 1.0916, -1.2583 -1.6343 1.0716, -1.3514 -1.6343 0.9502, -1.3315 -1.6343 0.9984, -1.2997 -1.6343 1.0398, -1.1583 0.9642 1.0984, -1.21 0.9642 1.0916, -1.2583 0.9642 1.0716, -1.2997 0.9642 1.0398, -1.3315 0.9642 0.9984, -1.3514 0.9642 0.9502, -1.1185 0.9642 1.0984, 1.1185 -1.6343 1.0984, 1.1185 -1.6343 0.9409, 1.1583 -1.6343 1.0984, 1.1407 -1.6343 0.9342, 1.3583 -1.6343 0.8984, 1.3515 -1.6343 0.9502, 1.1902 -1.6343 0.8873, 1.3315 -1.6343 0.9984, 1.1775 -1.6343 0.9067, 1.2997 -1.6343 1.0398, 1.1607 -1.6343 0.9226, 1.2583 -1.6343 1.0716, 1.21 -1.6343 1.0916, 0.5709 -1.6343 0.1575, 0.5709 -1.6343 0.0, 1.1008 -1.6343 0.1575, 1.1583 -1.6343 0.0, 1.1267 -1.6343 0.1609, 1.21 -1.6343 0.0068, 1.1508 -1.6343 0.1709, 1.2583 -1.6343 0.0268, 1.1715 -1.6343 0.1868, 1.2997 -1.6343 0.0586, 1.1874 -1.6343 0.2075, 1.3583 -1.6343 0.2, 1.1974 -1.6343 0.2316, 1.3515 -1.6343 0.1482, 1.3315 -1.6343 0.1, 1.1981 -1.6343 0.8655, 1.2008 -1.6343 0.8425, 1.2008 -1.6343 0.2575, 1.1185 0.9642 1.0984, 1.1185 0.9642 0.9409, 1.1583 0.2988 0.0, 0.5709 0.2988 0.0, 1.21 0.2988 0.0068, 1.2583 0.2988 0.0268, 1.2997 0.2988 0.0586, 1.3315 0.2988 0.1, 1.3515 0.2988 0.1482, 1.3583 0.2988 0.2, 1.1583 0.9642 0.0, 0.5709 0.9642 0.0, 0.5709 0.9642 0.1575, 1.1008 0.9642 0.1575, 1.1267 0.9642 0.1609, 1.21 0.9642 0.0068, 1.1508 0.9642 0.1709, 1.2583 0.9642 0.0268, 1.1775 0.9642 0.9067, 1.1607 0.9642 0.9226, 1.2583 0.9642 1.0716, 1.21 0.9642 1.0916, 1.1407 0.9642 0.9342, 1.1583 0.9642 1.0984, 1.3583 0.9642 0.8984, 1.1981 0.9642 0.8655, 1.3515 0.9642 0.9502, 1.1902 0.9642 0.8873, 1.3315 0.9642 0.9984, 1.2997 0.9642 1.0398, 1.2997 0.9642 0.0586, 1.1715 0.9642 0.1868, 1.3315 0.9642 0.1, 1.1874 0.9642 0.2075, 1.3515 0.9642 0.1482, 1.1974 0.9642 0.2316, 1.3583 0.9642 0.2, 1.2008 0.9642 0.2575, 1.2008 0.9642 0.8425, 1.2008 0.2988 0.5, 1.2008 0.2988 0.2575, 1.2008 0.6886 0.2575, 1.2008 0.6886 0.5, 1.1974 0.2988 0.2316, 1.1874 0.2988 0.2075, 1.1715 0.2988 0.1868, 1.1508 0.2988 0.1709, 1.1267 0.2988 0.1609, 1.1008 0.2988 0.1575, 1.1974 0.6886 0.2316, 1.1874 0.6886 0.2075, 1.1715 0.6886 0.1868, 1.1508 0.6886 0.1709, 1.1267 0.6886 0.1609, 1.1008 0.6886 0.1575, 0.5709 0.2988 0.1575, 0.5709 0.6886 0.1575, 0.5709 0.6886 0.0, 1.1583 0.6886 0.0, 1.21 0.6886 0.0068, 1.2583 0.6886 0.0268, 1.2997 0.6886 0.0586, 1.3315 0.6886 0.1, 1.3515 0.6886 0.1482, 1.3583 0.6886 0.2, 1.3583 0.6886 0.5, 1.3583 0.2988 0.5
            ]
        }
        coordIndex [
            0,1,2,-1,2,3,0,-1,0,3,4,-1,0,4,5,-1,5,4,6,-1,7,8,9,-1,9,8,10,-1,9,10,11,-1,11,10,12,-1,11,12,13,-1,13,12,14,-1,13,14,15,-1,15,14,16,-1,15,16,6,-1,6,16,17,-1,6,17,5,-1,18,19,20,-1,20,21,18,-1,18,21,22,-1,18,22,23,-1,23,22,24,-1,25,26,27,-1,27,26,28,-1,27,28,29,-1,29,28,30,-1,29,30,31,-1,31,30,32,-1,31,32,33,-1,33,32,34,-1,33,34,24,-1,24,34,35,-1,24,35,23,-1,1,26,2,-1,2,26,25,-1,28,36,37,-1,28,37,30,-1,30,37,38,-1,30,38,32,-1,32,38,39,-1,32,39,34,-1,34,39,40,-1,34,40,35,-1,35,40,41,-1,35,41,23,-1,23,41,42,-1,23,42,18,-1,43,0,5,-1,43,5,44,-1,44,5,17,-1,44,17,45,-1,45,17,16,-1,45,16,46,-1,46,16,14,-1,46,14,47,-1,47,14,12,-1,47,12,48,-1,48,12,10,-1,48,10,49,-1,42,50,18,-1,18,50,19,-1,51,49,8,-1,8,49,10,-1,27,52,25,-1,25,52,53,-1,25,53,2,-1,2,53,54,-1,2,54,3,-1,3,54,55,-1,50,56,19,-1,19,56,20,-1,56,57,20,-1,20,57,21,-1,58,59,9,-1,9,59,7,-1,21,57,22,-1,22,57,60,-1,22,60,24,-1,24,60,61,-1,24,61,33,-1,33,61,62,-1,33,62,31,-1,31,62,63,-1,31,63,29,-1,29,63,64,-1,29,64,27,-1,27,64,52,-1,58,9,65,-1,65,9,11,-1,65,11,66,-1,66,11,13,-1,66,13,67,-1,67,13,15,-1,67,15,68,-1,68,15,6,-1,68,6,69,-1,69,6,4,-1,69,4,55,-1,55,4,3,-1,70,71,72,-1,72,71,73,-1,72,73,74,-1,74,73,75,-1,74,75,76,-1,76,75,77,-1,76,77,78,-1,78,77,79,-1,78,79,80,-1,80,79,81,-1,80,81,53,-1,53,81,54,-1,1,0,43,-1,82,36,28,-1,28,26,82,-1,82,26,1,-1,82,1,83,-1,83,1,43,-1,49,51,59,-1,59,58,49,-1,49,58,65,-1,49,65,48,-1,48,65,66,-1,48,66,47,-1,71,84,85,-1,47,66,46,-1,46,66,67,-1,46,67,45,-1,45,67,68,-1,45,68,44,-1,44,68,69,-1,44,69,43,-1,43,69,55,-1,43,55,83,-1,71,85,73,-1,73,85,86,-1,73,86,75,-1,75,86,87,-1,75,87,77,-1,55,54,83,-1,83,54,81,-1,83,81,88,-1,88,81,79,-1,88,79,89,-1,89,79,77,-1,89,77,90,-1,90,77,87,-1,85,91,92,-1,85,92,86,-1,86,92,93,-1,86,93,87,-1,87,93,94,-1,87,94,90,-1,90,94,95,-1,90,95,89,-1,89,95,96,-1,89,96,88,-1,88,96,82,-1,88,82,83,-1,84,97,85,-1,85,97,91,-1,59,51,7,-1,7,51,8,-1,70,97,71,-1,71,97,84,-1,36,64,37,-1,37,64,63,-1,56,50,57,-1,57,50,42,-1,57,42,60,-1,60,42,41,-1,60,41,61,-1,61,41,40,-1,61,40,62,-1,62,40,39,-1,62,39,63,-1,63,39,38,-1,63,38,37,-1,82,96,78,-1,78,96,95,-1,78,95,76,-1,76,95,94,-1,76,94,74,-1,74,94,93,-1,74,93,72,-1,97,70,91,-1,91,70,72,-1,91,72,92,-1,92,72,93,-1,78,80,82,-1,82,80,53,-1,82,53,36,-1,36,53,52,-1,36,52,64,-1,98,99,100,-1,100,99,101,-1,102,103,104,-1,104,103,105,-1,104,105,106,-1,106,105,107,-1,106,107,108,-1,108,107,109,-1,108,109,101,-1,101,109,110,-1,101,110,100,-1,111,112,113,-1,113,112,114,-1,113,114,115,-1,115,114,116,-1,115,116,117,-1,117,116,118,-1,117,118,119,-1,119,118,120,-1,119,120,121,-1,122,123,124,-1,124,123,121,-1,124,121,125,-1,125,121,120,-1,104,126,102,-1,102,126,127,-1,102,127,122,-1,122,127,128,-1,122,128,123,-1,129,130,98,-1,98,130,99,-1,114,112,131,-1,131,112,132,-1,114,131,133,-1,114,133,116,-1,116,133,134,-1,116,134,118,-1,118,134,135,-1,118,135,120,-1,120,135,136,-1,120,136,125,-1,125,136,137,-1,125,137,124,-1,124,137,138,-1,124,138,122,-1,139,140,141,-1,141,142,139,-1,139,142,143,-1,139,143,144,-1,144,143,145,-1,144,145,146,-1,147,148,149,-1,149,148,150,-1,150,148,151,-1,150,151,152,-1,152,151,130,-1,152,130,129,-1,153,154,155,-1,155,154,156,-1,155,156,157,-1,157,156,147,-1,157,147,158,-1,158,147,149,-1,146,145,159,-1,159,145,160,-1,159,160,161,-1,161,160,162,-1,161,162,163,-1,163,162,164,-1,163,164,165,-1,165,164,166,-1,165,166,153,-1,153,166,167,-1,153,167,154,-1,129,98,152,-1,152,98,100,-1,102,153,155,-1,102,155,103,-1,103,155,157,-1,103,157,105,-1,105,157,158,-1,105,158,107,-1,107,158,149,-1,107,149,109,-1,109,149,150,-1,109,150,110,-1,110,150,152,-1,110,152,100,-1,99,130,101,-1,101,130,151,-1,101,151,108,-1,108,151,148,-1,108,148,106,-1,106,148,147,-1,106,147,104,-1,104,147,156,-1,104,156,126,-1,126,156,154,-1,126,154,127,-1,127,154,167,-1,168,169,128,-1,167,166,170,-1,170,171,167,-1,167,171,168,-1,167,168,127,-1,127,168,128,-1,128,169,123,-1,123,169,172,-1,123,172,121,-1,121,172,173,-1,121,173,119,-1,119,173,174,-1,119,174,117,-1,117,174,175,-1,117,175,115,-1,115,175,176,-1,115,176,113,-1,113,176,177,-1,170,166,178,-1,178,166,164,-1,178,164,179,-1,179,164,162,-1,179,162,180,-1,180,162,160,-1,180,160,181,-1,181,160,145,-1,181,145,182,-1,182,145,143,-1,182,143,183,-1,183,143,142,-1,111,113,184,-1,184,113,177,-1,142,141,183,-1,183,141,185,-1,112,111,132,-1,132,111,184,-1,141,140,185,-1,185,140,186,-1,140,139,186,-1,186,139,187,-1,187,139,144,-1,187,144,188,-1,188,144,146,-1,188,146,189,-1,189,146,159,-1,189,159,190,-1,190,159,161,-1,190,161,191,-1,191,161,163,-1,191,163,192,-1,192,163,165,-1,192,165,193,-1,193,165,194,-1,194,165,153,-1,194,153,195,-1,195,153,102,-1,195,102,138,-1,138,102,122,-1,131,132,184,-1,184,177,131,-1,131,177,176,-1,131,176,133,-1,133,176,175,-1,168,195,169,-1,169,195,138,-1,169,138,172,-1,172,138,137,-1,172,137,173,-1,173,137,136,-1,173,136,174,-1,174,136,135,-1,174,135,175,-1,175,135,134,-1,175,134,133,-1,168,171,195,-1,195,171,194,-1,193,194,171,-1,185,186,183,-1,183,186,187,-1,183,187,182,-1,182,187,188,-1,182,188,181,-1,181,188,189,-1,181,189,180,-1,180,189,190,-1,180,190,179,-1,171,170,193,-1,193,170,178,-1,193,178,192,-1,192,178,179,-1,192,179,191,-1,191,179,190,-1,
        ]
    }
}
Shape{
    appearance Appearance {
        material  Material 	{
            diffuseColor 0.6666666666666666 0.6666666666666666 0.6666666666666666
            specularColor 0.4666666666666667 0.4666666666666667 0.4666666666666667
            ambientIntensity 0.6667
            transparency 0.0
            shininess 0.5
        }
    }
    geometry IndexedFaceSet {
        ccw TRUE
        solid FALSE
        coord DEF co Coordinate {
            point [
                0.4952 0.816 1.5, 0.4952 0.765 1.5, 0.5181 0.765 1.5, 0.5859 0.667 1.5, 0.5836 0.6667 1.5, 0.598 0.6667 1.5, 0.5415 0.8159 1.5, 0.5459 0.8164 1.5, 0.523 0.8164 1.5, 0.598 0.7843 1.5, 0.5824 0.7843 1.5, 0.598 0.765 1.5, 0.5824 0.765 1.5, 0.6114 0.8164 1.5, 0.598 0.8164 1.5, 0.6046 0.816 1.5, 0.598 0.816 1.5, 0.603 0.7843 1.5, 0.6059 0.765 1.5, 0.603 0.7909 1.5, 0.6046 0.8093 1.5, 0.598 0.7909 1.5, 0.598 0.8093 1.5, 0.5824 0.8093 1.5, 0.5824 0.7909 1.5, 0.575 0.7584 1.5, 0.5717 0.7579 1.5, 0.598 0.7579 1.5, 0.6114 0.7579 1.5, 0.6059 0.7584 1.5, 0.598 0.7584 1.5, 0.575 0.816 1.5, 0.5717 0.8164 1.5, 0.6806 0.7742 1.5, 0.675 0.7584 1.5, 0.6834 0.7579 1.5, 0.6652 0.7579 1.5, 0.6668 0.7584 1.5, 0.6652 0.8164 1.5, 0.6834 0.802 1.5, 0.6834 0.8164 1.5, 0.7186 0.7584 1.5, 0.7104 0.7584 1.5, 0.6834 0.7742 1.5, 0.7045 0.7742 1.5, 0.9217 0.7579 1.5, 0.9217 0.8164 1.5, 0.6967 0.816 1.5, 0.6887 0.816 1.5, 0.556 0.8164 1.5, 0.5574 0.8163 1.5, 0.5635 0.8146 1.5, 0.5635 0.8068 1.5, 0.5635 0.7679 1.5, 0.5635 0.7608 1.5, 0.5499 0.8102 1.5, 0.5472 0.8101 1.5, 0.5625 0.7603 1.5, 0.5563 0.7583 1.5, 0.5526 0.7579 1.5, 0.557 0.8094 1.5, 0.5628 0.8072 1.5, 0.5423 0.809 1.5, 0.5378 0.8068 1.5, 0.5343 0.8038 1.5, 0.5339 0.8034 1.5, 0.5311 0.7994 1.5, 0.5292 0.7944 1.5, 0.5282 0.7865 1.5, 0.5283 0.7839 1.5, 0.5578 0.7654 1.5, 0.5513 0.7642 1.5, 0.5486 0.7641 1.5, 0.5293 0.7783 1.5, 0.5312 0.7737 1.5, 0.5339 0.7701 1.5, 0.5355 0.7686 1.5, 0.5436 0.7646 1.5, 0.5394 0.766 1.5, 0.5499 0.8169 1.5, 0.523 0.9642 1.5, 0.5717 0.9642 1.5, 0.5246 0.803 1.5, 0.5287 0.8085 1.5, 0.5301 0.8098 1.5, 0.5355 0.8136 1.5, 0.5195 0.8164 1.5, 0.5218 0.7966 1.5, 0.523 0.7993 1.5, 0.523 0.7731 1.5, 0.5215 0.7768 1.5, 0.5195 0.7579 1.5, 0.5204 0.7861 1.5, 0.5205 0.7891 1.5, 0.5378 0.7589 1.5, 0.5324 0.7615 1.5, 0.523 0.7579 1.5, 0.5278 0.7653 1.5, 0.5273 0.7658 1.5, 0.5239 0.7707 1.5, 0.5425 0.7579 1.5, 0.523 0.7411 1.5, 0.5441 0.7576 1.5, 0.5476 0.7575 1.5, 0.5717 0.7411 1.5, 0.6621 0.7775 1.5, 0.6592 0.7716 1.5, 0.6432 0.8164 1.5, 0.6432 0.8146 1.5, 0.6489 0.8124 1.5, 0.6432 0.7599 1.5, 0.6432 0.7579 1.5, 0.6489 0.7622 1.5, 0.655 0.7665 1.5, 0.655 0.8083 1.5, 0.657 0.8063 1.5, 0.6606 0.8013 1.5, 0.6627 0.7958 1.5, 0.6636 0.7879 1.5, 0.6635 0.7843 1.5, 0.6332 0.816 1.5, 0.642 0.815 1.5, 0.6424 0.7596 1.5, 0.6326 0.7584 1.5, 0.6168 0.7584 1.5, 0.6168 0.816 1.5, 0.5286 0.6869 1.5, 0.5296 0.6984 1.5, 0.5271 0.6848 1.5, 0.5261 0.6823 1.5, 0.5514 0.6672 1.5, 0.5425 0.6667 1.5, 0.5586 0.6672 1.5, 0.5717 0.6667 1.5, 0.5343 0.6667 1.5, 0.5315 0.6677 1.5, 0.523 0.6667 1.5, 0.5268 0.6725 1.5, 0.5259 0.6749 1.5, 0.5296 0.7054 1.5, 0.5311 0.7062 1.5, 0.5512 0.7078 1.5, 0.5695 0.7021 1.5, 0.5709 0.704 1.5, 0.5308 0.6888 1.5, 0.534 0.6903 1.5, 0.5338 0.7011 1.5, 0.5392 0.6916 1.5, 0.5455 0.7031 1.5, 0.543 0.7034 1.5, 0.5383 0.7028 1.5, 0.5514 0.6735 1.5, 0.5512 0.6735 1.5, 0.5493 0.6709 1.5, 0.5469 0.6687 1.5, 0.5291 0.6694 1.5, 0.5283 0.6702 1.5, 0.5455 0.6678 1.5, 0.5427 0.6667 1.5, 0.5364 0.7083 1.5, 0.5437 0.7092 1.5, 0.5482 0.7088 1.5, 0.5256 0.6782 1.5, 0.5256 0.6793 1.5, 0.5536 0.7065 1.5, 0.5555 0.7046 1.5, 0.5687 0.6998 1.5, 0.5569 0.7022 1.5, 0.5581 0.6989 1.5, 0.5514 0.6933 1.5, 0.5511 0.6965 1.5, 0.5504 0.699 1.5, 0.5495 0.7005 1.5, 0.5716 0.6894 1.5, 0.5683 0.6761 1.5, 0.5717 0.6894 1.5, 0.5712 0.6743 1.5, 0.5717 0.6741 1.5, 0.5704 0.6907 1.5, 0.5695 0.6922 1.5, 0.5586 0.6936 1.5, 0.5687 0.6944 1.5, 0.5684 0.6972 1.5, 0.5484 0.7017 1.5, 0.5472 0.7025 1.5, 0.523 0.6439 1.5, 0.5386 0.6662 1.5, 0.5344 0.6667 1.5, 0.2854 0.6439 1.5, 0.2783 0.6412 1.5, 0.4642 -1.6343 1.5, 0.3988 -1.6343 1.5, 0.3367 -1.5661 1.5, 0.2631 -1.5106 1.5, 0.1805 -1.4695 1.5, -0.371 -1.6038 1.5, -0.3366 -1.5661 1.5, 0.2572 0.6415 1.5, -0.263 -1.5106 1.5, -0.1805 -1.4695 1.5, 0.2684 0.64 1.5, 0.0 -1.4358 1.5, 0.0918 -1.4443 1.5, -0.0918 -1.4443 1.5, 0.2669 0.64 1.5, 0.6318 0.7083 1.5, 0.6393 0.7083 1.5, 0.6432 0.7411 1.5, 0.6186 0.6774 1.5, 0.6195 0.674 1.5, 0.6197 0.674 1.5, 0.6114 0.7411 1.5, 0.6114 0.6983 1.5, 0.6206 0.6773 1.5, 0.62 0.6754 1.5, 0.6114 0.6667 1.5, 0.6114 0.6789 1.5, 0.5998 0.7083 1.5, 0.598 0.7411 1.5, 0.6079 0.7083 1.5, 0.6159 0.6673 1.5, 0.6157 0.6667 1.5, 0.6128 0.6598 1.5, 0.598 0.6439 1.5, 0.6013 0.6484 1.5, 0.6013 0.6548 1.5, 0.61 0.6557 1.5, 0.6114 0.6572 1.5, 0.6114 0.6572 1.5, 0.6114 0.6491 1.5, 0.6089 0.6482 1.5, 0.6114 0.6439 1.5, 0.606 0.6478 1.5, 0.6044 0.6479 1.5, 0.6054 0.654 1.5, 0.6072 0.6542 1.5, 0.6088 0.6548 1.5, 0.6206 0.661 1.5, 0.6174 0.6546 1.5, 0.6432 0.6439 1.5, 0.6229 0.6667 1.5, 0.6147 0.6515 1.5, 0.6142 0.651 1.5, 0.6117 0.6492 1.5, 0.5937 0.6851 1.5, 0.595 0.6832 1.5, 0.5941 0.7004 1.5, 0.573 0.7059 1.5, 0.5753 0.7073 1.5, 0.5717 0.7047 1.5, 0.5958 0.681 1.5, 0.5961 0.6784 1.5, 0.5957 0.6755 1.5, 0.5949 0.6732 1.5, 0.5935 0.6713 1.5, 0.5793 0.7087 1.5, 0.5844 0.7092 1.5, 0.5941 0.7074 1.5, 0.5894 0.7088 1.5, 0.5915 0.6695 1.5, 0.5897 0.6684 1.5, 0.5837 0.7034 1.5, 0.5815 0.7032 1.5, 0.5758 0.6978 1.5, 0.5796 0.7027 1.5, 0.578 0.7018 1.5, 0.5759 0.6969 1.5, 0.5762 0.6957 1.5, 0.5767 0.6948 1.5, 0.5774 0.694 1.5, 0.5799 0.6924 1.5, 0.5883 0.7028 1.5, 0.5844 0.6905 1.5, 0.5924 0.7014 1.5, 0.5872 0.6893 1.5, 0.592 0.6867 1.5, 0.5769 0.7009 1.5, 0.5763 0.6999 1.5, 0.5759 0.699 1.5, 0.5758 0.6726 1.5, 0.5793 0.6852 1.5, 0.575 0.6872 1.5, 0.5802 0.6721 1.5, 0.5805 0.6721 1.5, 0.584 0.6833 1.5, 0.5842 0.6725 1.5, 0.5887 0.6776 1.5, 0.5886 0.6785 1.5, 0.5861 0.6732 1.5, 0.5867 0.6736 1.5, 0.5875 0.6743 1.5, 0.5882 0.6752 1.5, 0.5885 0.6763 1.5, 0.5883 0.6797 1.5, 0.5877 0.6806 1.5, 0.5868 0.6816 1.5, 0.5683 0.6686 1.5, 0.5717 0.6674 1.5, 0.5727 0.667 1.5, 0.5754 0.6667 1.5, 0.5795 0.6662 1.5, 0.5717 0.6439 1.5, 0.6028 0.6543 1.5, 0.4143 0.7711 1.5, 0.4254 0.7617 1.5, 0.4642 0.8164 1.5, 0.3621 0.8212 1.5, 0.3689 0.8164 1.5, 0.378 0.8101 1.5, 0.3922 0.7935 1.5, 0.4001 0.7778 1.5, 0.4021 0.7771 1.5, 0.304 0.8293 1.5, 0.3224 0.8314 1.5, 0.4642 0.9642 1.5, 0.3418 0.829 1.5, 0.285 0.8225 1.5, -0.371 0.9642 1.5, 0.275 0.8164 1.5, -0.371 0.8164 1.5, 0.2733 0.8154 1.5, -0.371 0.7579 1.5, 0.1855 0.7579 1.5, 0.1891 0.766 1.5, 0.1989 0.7786 1.5, 0.2298 0.7963 1.5, 0.2459 0.7983 1.5, 0.2637 0.8072 1.5, 0.2506 0.798 1.5, 0.2553 0.7974 1.5, 0.2017 0.7812 1.5, 0.2147 0.7904 1.5, 0.2096 0.6765 1.5, 0.1969 0.6874 1.5, -0.371 0.6667 1.5, 0.2244 0.6693 1.5, 0.1875 0.7008 1.5, 0.1817 0.716 1.5, -0.371 0.7411 1.5, 0.1797 0.732 1.5, 0.1798 0.7359 1.5, 0.1807 0.7411 1.5, 0.1826 0.7513 1.5, -0.371 0.6439 1.5, 0.2515 0.6439 1.5, 0.2478 0.6455 1.5, 0.2398 0.6515 1.5, 0.2296 0.6678 1.5, 0.2301 0.6667 1.5, 0.2337 0.659 1.5, 0.3068 0.6667 1.5, 0.3067 0.6665 1.5, 0.4642 0.6439 1.5, 0.3019 0.6574 1.5, 0.2956 0.6504 1.5, 0.2875 0.6447 1.5, 0.359 0.6908 1.5, 0.3618 0.6919 1.5, 0.3666 0.7152 1.5, 0.4255 0.6854 1.5, 0.4144 0.676 1.5, 0.4642 0.6667 1.5, 0.2991 0.7083 1.5, 0.3539 0.7369 1.5, 0.292 0.7148 1.5, 0.2833 0.7194 1.5, 0.3565 0.689 1.5, 0.4336 0.6967 1.5, 0.4151 0.7274 1.5, 0.4131 0.7353 1.5, 0.41 0.7411 1.5, 0.2065 0.7411 1.5, 0.4373 0.7411 1.5, 0.4387 0.7376 1.5, 0.4642 0.7411 1.5, 0.4406 0.7242 1.5, 0.4387 0.7096 1.5, 0.365 0.6923 1.5, 0.3654 0.6923 1.5, 0.3666 0.692 1.5, 0.2089 0.7165 1.5, 0.2137 0.7082 1.5, 0.2345 0.704 1.5, 0.2211 0.7007 1.5, 0.23 0.6952 1.5, 0.2496 0.7175 1.5, 0.2413 0.7117 1.5, 0.2055 0.7328 1.5, 0.2059 0.7265 1.5, 0.2587 0.721 1.5, 0.2684 0.7222 1.5, 0.2734 0.7219 1.5, 0.3523 0.6797 1.5, 0.3524 0.6813 1.5, 0.3093 0.685 1.5, 0.3532 0.6844 1.5, 0.3548 0.6872 1.5, 0.407 0.7022 1.5, 0.4115 0.7086 1.5, 0.4143 0.7159 1.5, 0.4153 0.7238 1.5, 0.3618 0.6673 1.5, 0.3591 0.6684 1.5, 0.3565 0.6703 1.5, 0.3555 0.6713 1.5, 0.3537 0.6738 1.5, 0.3527 0.6766 1.5, 0.3091 0.6766 1.5, 0.3093 0.6809 1.5, 0.4019 0.6699 1.5, 0.3883 0.667 1.5, 0.3641 0.667 1.5, 0.3674 0.6919 1.5, 0.3858 0.6919 1.5, 0.3932 0.6933 1.5, 0.4004 0.6967 1.5, 0.4064 0.7016 1.5, 0.3801 0.7557 1.5, 0.2102 0.7518 1.5, 0.2067 0.7427 1.5, 0.3834 0.7557 1.5, 0.4093 0.7423 1.5, 0.4046 0.7476 1.5, 0.3983 0.752 1.5, 0.3911 0.7548 1.5, 0.3713 0.7803 1.5, 0.3621 0.7913 1.5, 0.268 0.7676 1.5, 0.361 0.7923 1.5, 0.3495 0.8002 1.5, 0.2743 0.7805 1.5, 0.2144 0.7579 1.5, 0.2651 0.7692 1.5, 0.3796 0.7579 1.5, 0.3776 0.7671 1.5, 0.2559 0.7725 1.5, 0.2464 0.7737 1.5, 0.2421 0.7735 1.5, 0.2834 0.7915 1.5, 0.3367 0.8051 1.5, 0.2944 0.7995 1.5, 0.3228 0.8069 1.5, 0.3078 0.8049 1.5, 0.232 0.7711 1.5, 0.2229 0.7663 1.5, 0.2158 0.76 1.5, 0.4338 0.7501 1.5, 0.4642 0.7579 1.5, 0.4281 0.7579 1.5, 0.6652 0.6931 1.5, 0.6545 0.6931 1.5, 0.6652 0.6737 1.5, 0.6545 0.6737 1.5, 0.6767 0.7247 1.5, 0.6767 0.7181 1.5, 0.6834 0.7411 1.5, 0.678 0.6737 1.5, 0.6834 0.6667 1.5, 0.678 0.6672 1.5, 0.6652 0.6667 1.5, 0.675 0.6931 1.5, 0.675 0.6997 1.5, 0.6652 0.6997 1.5, 0.6652 0.7181 1.5, 0.6545 0.7181 1.5, 0.6545 0.6997 1.5, 0.6652 0.6672 1.5, 0.647 0.6672 1.5, 0.6432 0.6667 1.5, 0.647 0.7247 1.5, 0.6652 0.7247 1.5, 0.6652 0.7411 1.5, 0.598 0.9642 1.5, 0.6114 0.9642 1.5, 0.6432 0.9642 1.5, 0.6652 0.9642 1.5, 0.6834 0.9642 1.5, 0.9217 0.9642 1.5, 0.5195 0.9642 1.5, 0.4877 0.7584 1.5, 0.4877 0.816 1.5, 0.5181 0.7584 1.5, 0.5195 0.7411 1.5, 0.7471 0.6672 1.5, 0.7389 0.6672 1.5, 0.7824 0.6672 1.5, 0.7765 0.6829 1.5, 0.7526 0.6829 1.5, 0.7906 0.6672 1.5, 0.9217 0.6667 1.5, 0.7687 0.7247 1.5, 0.9217 0.7411 1.5, 0.7341 0.6863 1.5, 0.7355 0.693 1.5, 0.7608 0.7247 1.5, 0.7357 0.6967 1.5, 0.7347 0.7046 1.5, 0.7313 0.6803 1.5, 0.727 0.6752 1.5, 0.721 0.6709 1.5, 0.6888 0.7247 1.5, 0.6888 0.6672 1.5, 0.7047 0.6672 1.5, 0.7144 0.6684 1.5, 0.727 0.7171 1.5, 0.729 0.7151 1.5, 0.7326 0.7101 1.5, 0.7052 0.7247 1.5, 0.714 0.7237 1.5, 0.721 0.7212 1.5, 0.5195 0.6667 1.5, 0.4877 0.6672 1.5, 0.5187 0.6672 1.5, 0.5187 0.6737 1.5, 0.5174 0.7181 1.5, 0.4877 0.7247 1.5, 0.5174 0.7247 1.5, 0.4952 0.6931 1.5, 0.4952 0.6737 1.5, 0.5157 0.6931 1.5, 0.5157 0.6997 1.5, 0.4952 0.6997 1.5, 0.4952 0.7181 1.5, 0.6652 0.6439 1.5, 0.6834 0.6439 1.5, 0.9217 0.6439 1.5, 0.5195 0.6439 1.5, -0.9216 0.9642 1.5, -0.9216 0.8164 1.5, -0.9216 0.7579 1.5, -0.9216 0.7411 1.5, -0.9216 0.6667 1.5, -0.9216 0.6439 1.5, -0.9216 -1.6343 1.5, -0.3988 -1.6343 1.5, 0.5195 -1.6343 1.5, 0.523 -1.6343 1.5, 0.5717 -1.6343 1.5, 0.598 -1.6343 1.5, 0.6114 -1.6343 1.5, 0.6432 -1.6343 1.5, 0.6652 -1.6343 1.5, 0.6834 -1.6343 1.5, 0.9217 -1.6343 1.5, 1.1185 -1.6343 1.3031, 1.1185 0.9642 1.3031, 1.1118 0.9642 1.3541, 0.9726 0.9642 1.4933, 1.1118 -1.6343 1.3541, 1.0921 0.9642 1.4016, 1.0921 -1.6343 1.4016, 1.0609 0.9642 1.4423, 1.0609 -1.6343 1.4423, 1.0201 0.9642 1.4736, 1.0201 -1.6343 1.4736, 0.9726 -1.6343 1.4933, -1.1118 0.9642 1.3541, -1.0921 0.9642 1.4016, 1.1185 0.9642 0.9409, -1.1185 0.9642 0.9409, -1.1185 0.9642 1.3031, -1.0608 0.9642 1.4423, -1.0201 0.9642 1.4736, -0.9726 0.9642 1.4933, 1.1185 -1.6343 0.9409, -0.9726 -1.6343 1.4933, -1.0201 -1.6343 1.4736, -1.0608 -1.6343 1.4423, -1.0921 -1.6343 1.4016, -1.1118 -1.6343 1.3541, -1.1185 -1.6343 1.3031, -1.1185 -1.6343 0.9409, -0.3988 -1.6343 0.9409, -0.3366 -1.5661 0.9409, 0.3988 -1.6343 0.9409, 0.3367 -1.5661 0.9409, 0.2631 -1.5106 0.9409, 0.1805 -1.4695 0.9409, 0.0918 -1.4443 0.9409, 0.0 -1.4358 0.9409, -0.0918 -1.4443 0.9409, -0.1805 -1.4695 0.9409, -0.263 -1.5106 0.9409
            ]
        }
        coordIndex [
            0,1,2,-1,3,4,5,-1,6,7,8,-1,9,10,11,-1,11,10,12,-1,13,14,15,-1,15,14,16,-1,9,11,17,-1,17,11,18,-1,17,18,19,-1,19,18,20,-1,19,20,21,-1,20,22,21,-1,21,22,23,-1,21,23,24,-1,25,26,27,-1,15,20,13,-1,13,20,18,-1,13,18,28,-1,28,18,29,-1,28,29,27,-1,27,29,30,-1,27,30,25,-1,16,14,31,-1,31,14,32,-1,31,32,25,-1,33,34,35,-1,35,34,36,-1,36,34,37,-1,36,37,38,-1,38,37,39,-1,38,39,40,-1,41,42,35,-1,33,35,43,-1,43,35,42,-1,43,42,44,-1,45,46,47,-1,47,46,40,-1,47,40,48,-1,48,40,39,-1,49,50,32,-1,32,50,51,-1,32,51,52,-1,53,54,26,-1,55,56,53,-1,54,57,26,-1,26,57,58,-1,26,58,59,-1,55,53,60,-1,25,32,26,-1,26,32,52,-1,26,52,53,-1,53,52,61,-1,53,61,60,-1,56,62,53,-1,53,62,63,-1,53,63,64,-1,64,65,53,-1,53,65,66,-1,53,66,67,-1,67,68,53,-1,53,68,69,-1,53,69,70,-1,70,69,71,-1,71,69,72,-1,72,69,73,-1,72,73,74,-1,74,75,72,-1,72,75,76,-1,72,76,77,-1,77,76,78,-1,79,49,80,-1,80,49,81,-1,8,82,83,-1,83,84,8,-1,8,84,85,-1,8,85,6,-1,86,87,8,-1,8,87,88,-1,8,88,82,-1,89,90,91,-1,91,90,92,-1,91,92,86,-1,86,92,93,-1,86,93,87,-1,94,95,96,-1,95,97,96,-1,96,97,98,-1,96,98,99,-1,94,96,100,-1,100,96,101,-1,100,101,102,-1,102,101,103,-1,103,101,104,-1,103,104,59,-1,105,106,36,-1,107,108,38,-1,38,108,109,-1,110,111,112,-1,112,111,36,-1,112,36,113,-1,113,36,106,-1,109,114,38,-1,38,114,115,-1,38,115,116,-1,116,117,38,-1,38,117,118,-1,38,118,36,-1,36,118,119,-1,36,119,105,-1,13,120,107,-1,107,120,121,-1,107,121,108,-1,110,122,111,-1,111,122,123,-1,111,123,28,-1,28,123,124,-1,28,124,13,-1,13,124,125,-1,13,125,120,-1,126,127,128,-1,128,127,129,-1,130,131,132,-1,132,131,133,-1,134,135,136,-1,136,137,138,-1,101,139,140,-1,141,142,143,-1,126,144,127,-1,127,144,145,-1,127,145,146,-1,146,145,147,-1,148,149,147,-1,147,149,150,-1,147,150,146,-1,151,152,130,-1,130,152,153,-1,130,153,154,-1,135,155,136,-1,136,155,156,-1,136,156,137,-1,154,157,130,-1,130,157,158,-1,130,158,131,-1,140,159,101,-1,101,159,160,-1,101,160,161,-1,138,162,136,-1,136,162,163,-1,136,163,101,-1,101,163,129,-1,101,129,139,-1,139,129,127,-1,141,164,142,-1,142,164,165,-1,142,165,166,-1,166,165,167,-1,166,167,168,-1,169,170,147,-1,147,170,171,-1,147,171,172,-1,173,174,175,-1,175,174,176,-1,175,176,177,-1,178,179,180,-1,180,179,181,-1,180,181,168,-1,168,181,182,-1,168,182,166,-1,172,183,147,-1,147,183,184,-1,147,184,148,-1,185,186,187,-1,188,189,190,-1,191,190,192,-1,192,190,189,-1,192,189,193,-1,193,189,194,-1,195,196,197,-1,197,196,198,-1,197,198,199,-1,200,201,189,-1,189,201,202,-1,189,202,194,-1,199,203,197,-1,197,203,201,-1,197,201,204,-1,204,201,200,-1,205,206,207,-1,208,209,210,-1,207,211,205,-1,205,211,212,-1,205,212,213,-1,213,212,208,-1,213,208,214,-1,214,208,210,-1,215,216,5,-1,5,216,217,-1,5,217,218,-1,218,217,211,-1,211,217,219,-1,211,219,212,-1,220,216,221,-1,221,216,215,-1,221,215,222,-1,223,224,225,-1,226,227,215,-1,215,227,228,-1,215,228,222,-1,229,230,231,-1,231,230,232,-1,231,232,223,-1,223,232,233,-1,223,233,224,-1,234,235,215,-1,215,235,236,-1,215,236,226,-1,237,238,239,-1,237,239,240,-1,238,241,239,-1,239,241,242,-1,239,242,231,-1,231,242,243,-1,231,243,229,-1,244,245,246,-1,247,248,104,-1,161,141,101,-1,101,141,143,-1,101,143,104,-1,104,143,249,-1,104,249,247,-1,250,251,5,-1,251,252,5,-1,5,252,253,-1,5,253,254,-1,248,255,104,-1,104,255,256,-1,104,256,218,-1,245,250,246,-1,246,250,5,-1,246,5,257,-1,257,5,218,-1,257,218,258,-1,258,218,256,-1,254,259,5,-1,5,259,260,-1,5,260,3,-1,261,262,263,-1,263,262,264,-1,263,264,265,-1,263,266,261,-1,261,266,267,-1,261,267,268,-1,268,269,261,-1,261,269,270,-1,261,270,271,-1,271,270,272,-1,271,272,273,-1,273,272,274,-1,273,274,246,-1,246,274,275,-1,246,275,244,-1,276,277,265,-1,265,277,278,-1,265,278,263,-1,279,280,177,-1,177,280,281,-1,177,281,175,-1,279,282,280,-1,280,282,283,-1,280,283,284,-1,284,283,285,-1,284,286,287,-1,285,288,284,-1,284,288,289,-1,284,289,290,-1,290,291,284,-1,284,291,292,-1,284,292,286,-1,287,293,284,-1,284,293,294,-1,284,294,295,-1,173,178,174,-1,174,178,180,-1,174,180,296,-1,296,180,132,-1,296,132,297,-1,297,132,133,-1,297,133,298,-1,298,133,299,-1,300,299,301,-1,301,299,133,-1,301,133,185,-1,185,133,131,-1,185,131,186,-1,300,301,4,-1,4,301,223,-1,4,223,5,-1,5,223,225,-1,5,225,215,-1,215,225,302,-1,215,302,234,-1,303,304,305,-1,306,307,305,-1,305,307,308,-1,305,308,309,-1,309,310,305,-1,305,310,311,-1,305,311,303,-1,312,313,314,-1,314,313,315,-1,314,315,306,-1,312,314,316,-1,316,314,317,-1,316,317,318,-1,318,317,319,-1,318,319,320,-1,321,322,319,-1,319,322,323,-1,319,323,324,-1,319,325,320,-1,320,325,326,-1,320,326,327,-1,327,326,328,-1,327,328,329,-1,324,330,319,-1,319,330,331,-1,319,331,325,-1,332,333,334,-1,332,334,335,-1,333,336,334,-1,334,336,337,-1,334,337,338,-1,338,337,339,-1,339,340,338,-1,338,340,341,-1,338,341,321,-1,321,341,342,-1,321,342,322,-1,195,197,343,-1,343,197,344,-1,343,344,334,-1,334,344,345,-1,334,345,346,-1,347,335,348,-1,348,335,334,-1,348,334,349,-1,349,334,346,-1,350,351,352,-1,352,351,353,-1,353,354,352,-1,352,354,355,-1,352,355,188,-1,356,357,358,-1,359,360,361,-1,362,363,364,-1,364,363,365,-1,356,358,366,-1,359,361,367,-1,368,369,363,-1,363,369,370,-1,363,370,371,-1,372,373,374,-1,374,373,375,-1,374,375,361,-1,361,375,376,-1,361,376,367,-1,357,377,358,-1,358,377,378,-1,358,378,379,-1,380,381,382,-1,382,381,383,-1,382,383,384,-1,385,371,386,-1,386,371,387,-1,386,387,382,-1,382,387,388,-1,382,388,380,-1,385,389,371,-1,371,389,390,-1,371,390,363,-1,363,390,391,-1,363,391,365,-1,392,393,394,-1,394,393,395,-1,394,395,358,-1,358,395,396,-1,358,396,366,-1,397,398,358,-1,358,398,399,-1,358,399,363,-1,363,399,400,-1,363,400,368,-1,401,402,350,-1,350,402,403,-1,350,403,404,-1,404,405,350,-1,350,405,406,-1,350,406,407,-1,407,406,392,-1,407,392,408,-1,408,392,394,-1,360,409,361,-1,361,409,410,-1,361,410,350,-1,350,410,411,-1,350,411,401,-1,379,412,358,-1,358,412,413,-1,358,413,414,-1,414,415,358,-1,358,415,416,-1,358,416,397,-1,417,418,419,-1,419,371,417,-1,417,371,370,-1,417,370,420,-1,420,370,421,-1,421,422,420,-1,420,422,423,-1,420,423,424,-1,425,426,427,-1,426,428,427,-1,427,428,429,-1,427,429,430,-1,431,427,432,-1,418,417,431,-1,431,417,433,-1,431,433,427,-1,427,433,434,-1,427,434,425,-1,432,435,431,-1,431,435,436,-1,431,436,437,-1,430,429,438,-1,438,429,439,-1,438,439,440,-1,440,439,441,-1,440,441,442,-1,443,444,437,-1,437,444,445,-1,437,445,431,-1,372,374,446,-1,446,374,447,-1,446,447,448,-1,449,450,451,-1,451,450,452,-1,453,454,455,-1,455,454,456,-1,455,456,457,-1,457,456,458,-1,457,458,459,-1,449,451,460,-1,460,451,456,-1,460,456,461,-1,461,456,454,-1,461,454,462,-1,454,463,462,-1,462,463,464,-1,462,464,465,-1,458,466,459,-1,459,466,467,-1,459,467,468,-1,468,467,469,-1,453,455,470,-1,470,455,471,-1,470,471,469,-1,469,471,207,-1,469,207,468,-1,468,207,206,-1,468,206,240,-1,49,32,81,-1,81,32,14,-1,81,14,472,-1,472,14,13,-1,472,13,473,-1,473,13,107,-1,473,107,474,-1,474,107,38,-1,474,38,475,-1,475,38,40,-1,475,40,476,-1,476,40,46,-1,476,46,477,-1,306,305,314,-1,314,305,86,-1,314,86,478,-1,478,86,8,-1,478,8,80,-1,80,8,7,-1,80,7,79,-1,479,305,447,-1,447,305,304,-1,447,304,448,-1,479,480,305,-1,305,480,0,-1,305,0,86,-1,86,0,2,-1,86,2,91,-1,91,2,481,-1,59,104,26,-1,26,104,218,-1,26,218,27,-1,27,218,211,-1,27,211,28,-1,28,211,207,-1,28,207,111,-1,111,207,471,-1,111,471,36,-1,36,471,455,-1,36,455,35,-1,481,479,91,-1,91,479,447,-1,91,447,482,-1,482,447,374,-1,483,484,457,-1,485,486,487,-1,487,483,485,-1,485,483,457,-1,485,457,488,-1,488,457,489,-1,488,489,490,-1,490,489,491,-1,492,484,493,-1,493,484,494,-1,493,494,495,-1,495,494,496,-1,492,497,484,-1,484,497,498,-1,484,498,499,-1,500,455,501,-1,501,455,457,-1,501,457,502,-1,502,457,484,-1,502,484,503,-1,503,484,499,-1,47,41,45,-1,45,41,35,-1,45,35,491,-1,491,35,455,-1,491,455,490,-1,490,455,494,-1,504,505,494,-1,494,505,506,-1,494,506,496,-1,500,507,455,-1,455,507,508,-1,455,508,494,-1,494,508,509,-1,494,509,504,-1,99,89,96,-1,96,89,91,-1,96,91,101,-1,101,91,482,-1,101,482,136,-1,136,482,510,-1,361,510,511,-1,511,510,512,-1,512,510,513,-1,513,510,482,-1,513,482,514,-1,361,511,374,-1,374,511,515,-1,374,515,482,-1,482,515,516,-1,482,516,514,-1,517,518,519,-1,519,518,513,-1,519,513,520,-1,520,513,514,-1,520,514,521,-1,521,514,522,-1,240,239,468,-1,468,239,523,-1,468,523,459,-1,459,523,524,-1,459,524,457,-1,457,524,525,-1,457,525,489,-1,350,352,361,-1,361,352,526,-1,361,526,510,-1,510,526,185,-1,510,185,136,-1,136,185,187,-1,136,187,134,-1,317,527,319,-1,319,527,528,-1,319,528,321,-1,321,528,529,-1,321,529,338,-1,338,529,530,-1,338,530,334,-1,334,530,531,-1,334,531,343,-1,343,531,532,-1,343,532,195,-1,195,532,533,-1,195,533,534,-1,188,190,352,-1,352,190,535,-1,352,535,526,-1,526,535,536,-1,526,536,185,-1,185,536,537,-1,185,537,301,-1,301,537,538,-1,301,538,223,-1,223,538,539,-1,223,539,231,-1,231,539,540,-1,231,540,239,-1,239,540,541,-1,239,541,523,-1,523,541,542,-1,523,542,524,-1,524,542,543,-1,524,543,525,-1,544,545,546,-1,477,46,547,-1,547,46,45,-1,45,491,547,-1,547,491,489,-1,547,489,525,-1,544,546,548,-1,548,546,549,-1,548,549,550,-1,550,549,551,-1,550,551,552,-1,552,551,553,-1,552,553,554,-1,554,553,547,-1,554,547,555,-1,555,547,525,-1,555,525,543,-1,556,557,527,-1,314,558,317,-1,317,558,559,-1,317,559,527,-1,527,559,560,-1,527,560,556,-1,314,478,558,-1,558,478,80,-1,558,80,545,-1,557,561,527,-1,527,561,562,-1,527,562,563,-1,547,81,472,-1,477,547,476,-1,476,547,475,-1,472,473,547,-1,547,473,474,-1,547,474,475,-1,81,547,80,-1,80,547,553,-1,80,553,551,-1,551,549,80,-1,80,549,546,-1,80,546,545,-1,564,558,544,-1,544,558,545,-1,565,533,532,-1,532,531,563,-1,563,531,530,-1,530,529,563,-1,563,529,528,-1,563,528,527,-1,532,563,565,-1,565,563,562,-1,565,562,566,-1,566,562,561,-1,566,561,567,-1,567,561,557,-1,567,557,568,-1,568,557,556,-1,568,556,569,-1,569,556,560,-1,569,560,570,-1,569,570,533,-1,571,572,570,-1,570,572,534,-1,570,534,533,-1,533,565,566,-1,566,567,533,-1,533,567,568,-1,533,568,569,-1,534,572,195,-1,195,572,573,-1,574,191,575,-1,575,191,192,-1,575,192,576,-1,576,192,193,-1,576,193,577,-1,577,193,194,-1,577,194,578,-1,578,194,202,-1,578,202,579,-1,579,202,201,-1,579,201,580,-1,580,201,203,-1,580,203,581,-1,581,203,199,-1,581,199,582,-1,582,199,198,-1,582,198,573,-1,573,198,196,-1,573,196,195,-1,558,564,574,-1,574,575,558,-1,558,575,576,-1,558,576,577,-1,572,571,573,-1,573,571,559,-1,573,559,582,-1,582,559,581,-1,577,578,558,-1,558,578,579,-1,558,579,559,-1,559,579,580,-1,559,580,581,-1,559,571,560,-1,560,571,570,-1,543,542,574,-1,574,564,544,-1,542,541,574,-1,574,541,540,-1,574,540,539,-1,544,548,574,-1,574,548,550,-1,574,550,552,-1,552,554,574,-1,574,554,555,-1,574,555,543,-1,539,538,574,-1,574,538,537,-1,574,537,536,-1,536,535,574,-1,574,535,190,-1,574,190,191,-1,
        ]
    }
}
Shape{
    appearance Appearance {
        material  Material 	{
            diffuseColor 0.0 0.0 0.0
            specularColor 0.0 0.0 0.0
            ambientIntensity 0.0
            transparency 0.0
            shininess 0.5
        }
    }
    geometry IndexedFaceSet {
        ccw TRUE
        solid FALSE
        coord DEF co Coordinate {
            point [
                0.727 0.6752 1.5039, 0.721 0.6791 1.5039, 0.721 0.6709 1.5039, 0.7173 0.6765 1.5039, 0.7144 0.6684 1.5039, 0.7126 0.6747 1.5039, 0.7047 0.6672 1.5039, 0.7046 0.6737 1.5039, 0.6888 0.6672 1.5039, 0.6963 0.6737 1.5039, 0.6888 0.7247 1.5039, 0.6963 0.7181 1.5039, 0.7052 0.7247 1.5039, 0.705 0.7181 1.5039, 0.7055 0.7181 1.5039, 0.714 0.7237 1.5039, 0.7129 0.7171 1.5039, 0.721 0.7212 1.5039, 0.7178 0.7152 1.5039, 0.727 0.7171 1.5039, 0.7216 0.7127 1.5039, 0.729 0.7151 1.5039, 0.7232 0.7111 1.5039, 0.7326 0.7101 1.5039, 0.7254 0.7079 1.5039, 0.7347 0.7046 1.5039, 0.727 0.7037 1.5039, 0.7357 0.6967 1.5039, 0.7279 0.6965 1.5039, 0.7355 0.693 1.5039, 0.7276 0.6925 1.5039, 0.7341 0.6863 1.5039, 0.7265 0.6873 1.5039, 0.7313 0.6803 1.5039, 0.7245 0.6831 1.5039, 0.7217 0.6797 1.5039, 0.727 0.6752 1.5, 0.7313 0.6803 1.5, 0.7341 0.6863 1.5, 0.7355 0.693 1.5, 0.7357 0.6967 1.5, 0.7347 0.7046 1.5, 0.7326 0.7101 1.5, 0.729 0.7151 1.5, 0.727 0.7171 1.5, 0.721 0.7212 1.5, 0.714 0.7237 1.5, 0.7052 0.7247 1.5, 0.6888 0.7247 1.5, 0.6888 0.6672 1.5, 0.7047 0.6672 1.5, 0.7144 0.6684 1.5, 0.721 0.6709 1.5, 0.7216 0.7127 1.5, 0.7232 0.7111 1.5, 0.7254 0.7079 1.5, 0.727 0.7037 1.5, 0.7279 0.6965 1.5, 0.705 0.7181 1.5, 0.7055 0.7181 1.5, 0.7129 0.7171 1.5, 0.7178 0.7152 1.5, 0.6963 0.7181 1.5, 0.6963 0.6737 1.5, 0.7046 0.6737 1.5, 0.7217 0.6797 1.5, 0.721 0.6791 1.5, 0.7173 0.6765 1.5, 0.7126 0.6747 1.5, 0.7276 0.6925 1.5, 0.7265 0.6873 1.5, 0.7245 0.6831 1.5
            ]
        }
        coordIndex [
            0,1,2,-1,2,1,3,-1,2,3,4,-1,4,3,5,-1,4,5,6,-1,6,5,7,-1,6,7,8,-1,8,7,9,-1,8,9,10,-1,10,9,11,-1,10,11,12,-1,11,13,12,-1,12,13,14,-1,12,14,15,-1,15,14,16,-1,15,16,17,-1,17,16,18,-1,17,18,19,-1,19,18,20,-1,19,20,21,-1,21,20,22,-1,21,22,23,-1,23,22,24,-1,23,24,25,-1,25,24,26,-1,25,26,27,-1,27,26,28,-1,27,28,29,-1,29,28,30,-1,29,30,31,-1,31,30,32,-1,31,32,33,-1,33,32,34,-1,33,34,0,-1,0,34,35,-1,0,35,1,-1,0,36,37,-1,0,37,33,-1,33,37,38,-1,33,38,31,-1,31,38,39,-1,31,39,29,-1,29,39,40,-1,29,40,27,-1,27,40,41,-1,27,41,25,-1,25,41,42,-1,25,42,23,-1,23,42,43,-1,23,43,21,-1,21,43,44,-1,21,44,19,-1,19,44,45,-1,19,45,17,-1,17,45,46,-1,17,46,15,-1,15,46,47,-1,15,47,12,-1,10,12,48,-1,48,12,47,-1,8,10,49,-1,49,10,48,-1,6,8,50,-1,50,8,49,-1,6,50,51,-1,6,51,4,-1,4,51,52,-1,4,52,2,-1,2,52,36,-1,2,36,0,-1,20,53,54,-1,20,54,22,-1,22,54,55,-1,22,55,24,-1,24,55,56,-1,24,56,26,-1,26,56,57,-1,26,57,28,-1,13,58,59,-1,13,59,14,-1,14,59,60,-1,14,60,16,-1,16,60,61,-1,16,61,18,-1,18,61,53,-1,18,53,20,-1,13,11,58,-1,58,11,62,-1,11,9,62,-1,62,9,63,-1,9,7,63,-1,63,7,64,-1,35,65,66,-1,35,66,1,-1,1,66,67,-1,1,67,3,-1,3,67,68,-1,3,68,5,-1,5,68,64,-1,5,64,7,-1,28,57,69,-1,28,69,30,-1,30,69,70,-1,30,70,32,-1,32,70,71,-1,32,71,34,-1,34,71,65,-1,34,65,35,-1,
        ]
    }
}
Shape{
    appearance Appearance {
        material  Material 	{
            diffuseColor 0.6666666666666666 0.6666666666666666 0.6666666666666666
            specularColor 0.4666666666666667 0.4666666666666667 0.4666666666666667
            ambientIntensity 0.6667
            transparency 0.0
            shininess 0.5
        }
    }
    geometry IndexedFaceSet {
        ccw TRUE
        solid FALSE
        coord DEF co Coordinate {
            point [
                0.7173 0.6765 1.5, 0.721 0.6791 1.5, 0.7055 0.7181 1.5, 0.6963 0.7181 1.5, 0.6963 0.6737 1.5, 0.705 0.7181 1.5, 0.7046 0.6737 1.5, 0.7126 0.6747 1.5, 0.7217 0.6797 1.5, 0.7245 0.6831 1.5, 0.7265 0.6873 1.5, 0.7279 0.6965 1.5, 0.7216 0.7127 1.5, 0.7178 0.7152 1.5, 0.727 0.7037 1.5, 0.7254 0.7079 1.5, 0.7232 0.7111 1.5, 0.7276 0.6925 1.5, 0.7129 0.7171 1.5
            ]
        }
        coordIndex [
            0,1,2,-1,3,4,5,-1,5,4,6,-1,5,6,2,-1,2,6,7,-1,2,7,0,-1,1,8,2,-1,2,8,9,-1,2,9,10,-1,11,12,13,-1,14,15,11,-1,11,15,16,-1,11,16,12,-1,10,17,2,-1,2,17,11,-1,2,11,18,-1,18,11,13,-1,
        ]
    }
}
Shape{
    appearance Appearance {
        material  Material 	{
            diffuseColor 0.0 0.0 0.0
            specularColor 0.0 0.0 0.0
            ambientIntensity 0.0
            transparency 0.0
            shininess 0.5
        }
    }
    geometry IndexedFaceSet {
        ccw TRUE
        solid FALSE
        coord DEF co Coordinate {
            point [
                0.6206 0.6773 1.5039, 0.6206 0.6773 1.5, 0.62 0.6754 1.5, 0.62 0.6754 1.5039, 0.6197 0.674 1.5, 0.6197 0.674 1.5039, 0.6195 0.674 1.5039, 0.6195 0.674 1.5, 0.6186 0.6774 1.5039, 0.6186 0.6774 1.5, 0.6079 0.7083 1.5039, 0.6114 0.6983 1.5, 0.6079 0.7083 1.5, 0.5998 0.7083 1.5039, 0.5998 0.7083 1.5, 0.6159 0.6673 1.5, 0.6159 0.6673 1.5039, 0.6114 0.6789 1.5, 0.6128 0.6598 1.5, 0.6128 0.6598 1.5039, 0.6157 0.6667 1.5, 0.6114 0.6572 1.5, 0.6114 0.6572 1.5039, 0.6114 0.6572 1.5, 0.61 0.6557 1.5, 0.61 0.6557 1.5039, 0.6088 0.6548 1.5, 0.6088 0.6548 1.5039, 0.6072 0.6542 1.5, 0.6072 0.6542 1.5039, 0.6054 0.654 1.5, 0.6054 0.654 1.5039, 0.6028 0.6543 1.5, 0.6028 0.6543 1.5039, 0.6013 0.6548 1.5, 0.6013 0.6548 1.5039, 0.6013 0.6484 1.5039, 0.6013 0.6484 1.5, 0.6044 0.6479 1.5, 0.6044 0.6479 1.5039, 0.606 0.6478 1.5, 0.606 0.6478 1.5039, 0.6089 0.6482 1.5, 0.6089 0.6482 1.5039, 0.6114 0.6491 1.5, 0.6117 0.6492 1.5039, 0.6117 0.6492 1.5, 0.6142 0.651 1.5, 0.6142 0.651 1.5039, 0.6147 0.6515 1.5, 0.6147 0.6515 1.5039, 0.6174 0.6546 1.5, 0.6174 0.6546 1.5039, 0.6206 0.661 1.5, 0.6206 0.661 1.5039, 0.6393 0.7083 1.5, 0.6393 0.7083 1.5039, 0.6229 0.6667 1.5, 0.6318 0.7083 1.5039, 0.6318 0.7083 1.5, 0.5795 0.6662 1.5039, 0.5795 0.6662 1.5, 0.5859 0.667 1.5039, 0.5836 0.6667 1.5, 0.5859 0.667 1.5, 0.5897 0.6684 1.5, 0.5897 0.6684 1.5039, 0.5915 0.6695 1.5, 0.5915 0.6695 1.5039, 0.5935 0.6713 1.5, 0.5935 0.6713 1.5039, 0.5949 0.6732 1.5, 0.5949 0.6732 1.5039, 0.5957 0.6755 1.5, 0.5957 0.6755 1.5039, 0.5961 0.6784 1.5, 0.5961 0.6784 1.5039, 0.5958 0.681 1.5, 0.5958 0.681 1.5039, 0.595 0.6832 1.5, 0.595 0.6832 1.5039, 0.5937 0.6851 1.5, 0.5937 0.6851 1.5039, 0.592 0.6867 1.5, 0.592 0.6867 1.5039, 0.5872 0.6893 1.5, 0.5872 0.6893 1.5039, 0.5844 0.6905 1.5, 0.5844 0.6905 1.5039, 0.5799 0.6924 1.5, 0.5799 0.6924 1.5039, 0.5774 0.694 1.5, 0.5774 0.694 1.5039, 0.5767 0.6948 1.5, 0.5767 0.6948 1.5039, 0.5762 0.6957 1.5, 0.5762 0.6957 1.5039, 0.5759 0.6969 1.5, 0.5759 0.6969 1.5039, 0.5758 0.6978 1.5, 0.5758 0.6978 1.5039, 0.5759 0.699 1.5, 0.5759 0.699 1.5039, 0.5763 0.6999 1.5, 0.5763 0.6999 1.5039, 0.5769 0.7009 1.5, 0.5769 0.7009 1.5039, 0.578 0.7018 1.5, 0.578 0.7018 1.5039, 0.5796 0.7027 1.5, 0.5796 0.7027 1.5039, 0.5815 0.7032 1.5, 0.5815 0.7032 1.5039, 0.5837 0.7034 1.5, 0.5837 0.7034 1.5039, 0.5883 0.7028 1.5, 0.5883 0.7028 1.5039, 0.5924 0.7014 1.5, 0.5924 0.7014 1.5039, 0.5941 0.7004 1.5, 0.5941 0.7004 1.5039, 0.5941 0.7074 1.5039, 0.5941 0.7074 1.5, 0.5894 0.7088 1.5, 0.5894 0.7088 1.5039, 0.5844 0.7092 1.5, 0.5844 0.7092 1.5039, 0.5793 0.7087 1.5, 0.5793 0.7087 1.5039, 0.5753 0.7073 1.5, 0.5753 0.7073 1.5039, 0.573 0.7059 1.5, 0.573 0.7059 1.5039, 0.5717 0.7047 1.5, 0.5709 0.704 1.5039, 0.5709 0.704 1.5, 0.5695 0.7021 1.5, 0.5695 0.7021 1.5039, 0.5687 0.6998 1.5, 0.5687 0.6998 1.5039, 0.5684 0.6972 1.5, 0.5684 0.6972 1.5039, 0.5687 0.6944 1.5, 0.5687 0.6944 1.5039, 0.5695 0.6922 1.5, 0.5695 0.6922 1.5039, 0.5704 0.6907 1.5, 0.5704 0.6907 1.5039, 0.5793 0.6852 1.5, 0.5793 0.6852 1.5039, 0.575 0.6872 1.5039, 0.5716 0.6894 1.5, 0.5716 0.6894 1.5039, 0.5717 0.6894 1.5, 0.575 0.6872 1.5, 0.584 0.6833 1.5, 0.584 0.6833 1.5039, 0.5868 0.6816 1.5, 0.5868 0.6816 1.5039, 0.5877 0.6806 1.5, 0.5877 0.6806 1.5039, 0.5883 0.6797 1.5, 0.5883 0.6797 1.5039, 0.5886 0.6785 1.5, 0.5886 0.6785 1.5039, 0.5887 0.6776 1.5, 0.5887 0.6776 1.5039, 0.5885 0.6763 1.5, 0.5885 0.6763 1.5039, 0.5882 0.6752 1.5, 0.5882 0.6752 1.5039, 0.5875 0.6743 1.5, 0.5875 0.6743 1.5039, 0.5867 0.6736 1.5, 0.5867 0.6736 1.5039, 0.5861 0.6732 1.5, 0.5861 0.6732 1.5039, 0.5842 0.6725 1.5, 0.5842 0.6725 1.5039, 0.5805 0.6721 1.5, 0.5805 0.6721 1.5039, 0.5802 0.6721 1.5, 0.5802 0.6721 1.5039, 0.5683 0.6761 1.5, 0.5683 0.6761 1.5039, 0.5712 0.6743 1.5039, 0.5758 0.6726 1.5, 0.5758 0.6726 1.5039, 0.5717 0.6741 1.5, 0.5712 0.6743 1.5, 0.5683 0.6686 1.5039, 0.5683 0.6686 1.5, 0.5717 0.6674 1.5, 0.5727 0.667 1.5039, 0.5754 0.6667 1.5, 0.5727 0.667 1.5, 0.5514 0.6672 1.5039, 0.5586 0.6672 1.5039, 0.5514 0.6735 1.5039, 0.5586 0.6936 1.5039, 0.5418 0.6865 1.5039, 0.5514 0.6878 1.5039, 0.5514 0.6839 1.5039, 0.5512 0.6735 1.5039, 0.5474 0.6746 1.5039, 0.5493 0.6709 1.5039, 0.5453 0.6732 1.5039, 0.5308 0.6888 1.5039, 0.5286 0.6869 1.5039, 0.5339 0.6829 1.5039, 0.5514 0.6834 1.5039, 0.5509 0.6802 1.5039, 0.5498 0.6776 1.5039, 0.5483 0.6755 1.5039, 0.5296 0.7054 1.5039, 0.5296 0.6984 1.5039, 0.5311 0.7062 1.5039, 0.5338 0.7011 1.5039, 0.5364 0.7083 1.5039, 0.5383 0.7028 1.5039, 0.5437 0.7092 1.5039, 0.543 0.7034 1.5039, 0.5482 0.7088 1.5039, 0.5455 0.7031 1.5039, 0.5512 0.7078 1.5039, 0.5472 0.7025 1.5039, 0.5536 0.7065 1.5039, 0.5484 0.7017 1.5039, 0.5555 0.7046 1.5039, 0.5495 0.7005 1.5039, 0.5569 0.7022 1.5039, 0.5504 0.699 1.5039, 0.5581 0.6989 1.5039, 0.5511 0.6965 1.5039, 0.5514 0.6933 1.5039, 0.5333 0.6816 1.5039, 0.5271 0.6848 1.5039, 0.5329 0.6799 1.5039, 0.5392 0.6916 1.5039, 0.5356 0.6846 1.5039, 0.5373 0.6855 1.5039, 0.5343 0.6746 1.5039, 0.5291 0.6694 1.5039, 0.535 0.674 1.5039, 0.5315 0.6677 1.5039, 0.5364 0.673 1.5039, 0.5343 0.6667 1.5039, 0.538 0.6724 1.5039, 0.5386 0.6662 1.5039, 0.5405 0.6721 1.5039, 0.5427 0.6667 1.5039, 0.5432 0.6724 1.5039, 0.5455 0.6678 1.5039, 0.5469 0.6687 1.5039, 0.5348 0.684 1.5039, 0.534 0.6903 1.5039, 0.5261 0.6823 1.5039, 0.5256 0.6793 1.5039, 0.5329 0.6788 1.5039, 0.5256 0.6782 1.5039, 0.5331 0.6771 1.5039, 0.5259 0.6749 1.5039, 0.5335 0.6758 1.5039, 0.5268 0.6725 1.5039, 0.5283 0.6702 1.5039, 0.543 0.7034 1.5, 0.5455 0.7031 1.5, 0.5472 0.7025 1.5, 0.5484 0.7017 1.5, 0.5495 0.7005 1.5, 0.5504 0.699 1.5, 0.5511 0.6965 1.5, 0.5514 0.6933 1.5, 0.5392 0.6916 1.5, 0.534 0.6903 1.5, 0.5308 0.6888 1.5, 0.5286 0.6869 1.5, 0.5271 0.6848 1.5, 0.5261 0.6823 1.5, 0.5256 0.6793 1.5, 0.5256 0.6782 1.5, 0.5259 0.6749 1.5, 0.5268 0.6725 1.5, 0.5283 0.6702 1.5, 0.5291 0.6694 1.5, 0.5386 0.6662 1.5, 0.5344 0.6667 1.5, 0.5343 0.6667 1.5, 0.5315 0.6677 1.5, 0.5425 0.6667 1.5, 0.5427 0.6667 1.5, 0.5455 0.6678 1.5, 0.5469 0.6687 1.5, 0.5493 0.6709 1.5, 0.5512 0.6735 1.5, 0.5514 0.6735 1.5, 0.5514 0.6672 1.5, 0.5586 0.6672 1.5, 0.5586 0.6936 1.5, 0.5581 0.6989 1.5, 0.5569 0.7022 1.5, 0.5555 0.7046 1.5, 0.5536 0.7065 1.5, 0.5512 0.7078 1.5, 0.5482 0.7088 1.5, 0.5437 0.7092 1.5, 0.5364 0.7083 1.5, 0.5311 0.7062 1.5, 0.5296 0.7054 1.5, 0.5296 0.6984 1.5, 0.5338 0.7011 1.5, 0.5383 0.7028 1.5, 0.5483 0.6755 1.5, 0.5474 0.6746 1.5, 0.5453 0.6732 1.5, 0.5432 0.6724 1.5, 0.5405 0.6721 1.5, 0.5514 0.6839 1.5, 0.5514 0.6834 1.5, 0.5509 0.6802 1.5, 0.5498 0.6776 1.5, 0.5514 0.6878 1.5, 0.5418 0.6865 1.5, 0.5348 0.684 1.5, 0.5356 0.6846 1.5, 0.5373 0.6855 1.5, 0.5329 0.6788 1.5, 0.5329 0.6799 1.5, 0.5333 0.6816 1.5, 0.5339 0.6829 1.5, 0.535 0.674 1.5, 0.5343 0.6746 1.5, 0.5335 0.6758 1.5, 0.5331 0.6771 1.5, 0.538 0.6724 1.5, 0.5364 0.673 1.5
            ]
        }
        coordIndex [
            0,1,2,-1,0,2,3,-1,3,2,4,-1,3,4,5,-1,6,5,7,-1,7,5,4,-1,8,6,9,-1,9,6,7,-1,8,9,10,-1,10,9,11,-1,10,11,12,-1,13,10,14,-1,14,10,12,-1,15,16,17,-1,17,16,13,-1,17,13,14,-1,18,19,20,-1,20,19,16,-1,20,16,15,-1,18,21,19,-1,19,21,22,-1,21,23,22,-1,22,23,24,-1,22,24,25,-1,25,24,26,-1,25,26,27,-1,27,26,28,-1,27,28,29,-1,29,28,30,-1,29,30,31,-1,31,30,32,-1,31,32,33,-1,33,32,34,-1,33,34,35,-1,36,35,37,-1,37,35,34,-1,36,37,38,-1,36,38,39,-1,39,38,40,-1,39,40,41,-1,41,40,42,-1,41,42,43,-1,43,42,44,-1,43,44,45,-1,44,46,45,-1,45,46,47,-1,45,47,48,-1,48,47,49,-1,48,49,50,-1,50,49,51,-1,50,51,52,-1,52,51,53,-1,52,53,54,-1,55,56,57,-1,57,56,54,-1,57,54,53,-1,58,56,59,-1,59,56,55,-1,0,58,1,-1,1,58,59,-1,3,5,54,-1,56,58,54,-1,54,58,0,-1,54,0,3,-1,10,13,8,-1,8,13,16,-1,8,16,6,-1,35,36,33,-1,33,36,39,-1,33,39,31,-1,31,39,41,-1,31,41,29,-1,29,41,43,-1,29,43,27,-1,27,43,45,-1,27,45,25,-1,5,6,54,-1,54,6,16,-1,54,16,52,-1,16,19,52,-1,52,19,22,-1,52,22,50,-1,50,22,25,-1,50,25,48,-1,48,25,45,-1,60,61,62,-1,62,61,63,-1,63,64,62,-1,62,64,65,-1,62,65,66,-1,66,65,67,-1,66,67,68,-1,68,67,69,-1,68,69,70,-1,70,69,71,-1,70,71,72,-1,72,71,73,-1,72,73,74,-1,74,73,75,-1,74,75,76,-1,76,75,77,-1,76,77,78,-1,78,77,79,-1,78,79,80,-1,80,79,81,-1,80,81,82,-1,82,81,83,-1,82,83,84,-1,84,83,85,-1,84,85,86,-1,86,85,87,-1,86,87,88,-1,88,87,89,-1,88,89,90,-1,90,89,91,-1,90,91,92,-1,92,91,93,-1,92,93,94,-1,94,93,95,-1,94,95,96,-1,96,95,97,-1,96,97,98,-1,98,97,99,-1,98,99,100,-1,100,99,101,-1,100,101,102,-1,102,101,103,-1,102,103,104,-1,104,103,105,-1,104,105,106,-1,106,105,107,-1,106,107,108,-1,108,107,109,-1,108,109,110,-1,110,109,111,-1,110,111,112,-1,112,111,113,-1,112,113,114,-1,114,113,115,-1,114,115,116,-1,116,115,117,-1,116,117,118,-1,118,117,119,-1,118,119,120,-1,121,120,122,-1,122,120,119,-1,121,122,123,-1,121,123,124,-1,124,123,125,-1,124,125,126,-1,126,125,127,-1,126,127,128,-1,128,127,129,-1,128,129,130,-1,130,129,131,-1,130,131,132,-1,131,133,132,-1,132,133,134,-1,133,135,134,-1,134,135,136,-1,134,136,137,-1,137,136,138,-1,137,138,139,-1,139,138,140,-1,139,140,141,-1,141,140,142,-1,141,142,143,-1,143,142,144,-1,143,144,145,-1,145,144,146,-1,145,146,147,-1,148,149,150,-1,147,146,151,-1,147,151,152,-1,152,151,153,-1,152,153,150,-1,150,153,154,-1,150,154,148,-1,149,148,155,-1,149,155,156,-1,156,155,157,-1,156,157,158,-1,158,157,159,-1,158,159,160,-1,160,159,161,-1,160,161,162,-1,162,161,163,-1,162,163,164,-1,164,163,165,-1,164,165,166,-1,166,165,167,-1,166,167,168,-1,168,167,169,-1,168,169,170,-1,170,169,171,-1,170,171,172,-1,172,171,173,-1,172,173,174,-1,174,173,175,-1,174,175,176,-1,176,175,177,-1,176,177,178,-1,178,177,179,-1,178,179,180,-1,180,179,181,-1,180,181,182,-1,183,184,185,-1,182,181,186,-1,182,186,187,-1,187,186,188,-1,187,188,185,-1,185,188,189,-1,185,189,183,-1,190,184,191,-1,191,184,183,-1,191,192,190,-1,190,192,193,-1,61,60,194,-1,194,60,193,-1,194,193,195,-1,195,193,192,-1,106,108,130,-1,130,108,128,-1,156,88,149,-1,149,88,90,-1,66,68,172,-1,172,68,70,-1,172,70,170,-1,170,70,72,-1,170,72,168,-1,168,72,74,-1,168,74,166,-1,166,74,76,-1,166,76,164,-1,164,76,78,-1,164,78,162,-1,162,78,80,-1,162,80,160,-1,160,80,82,-1,160,82,158,-1,158,82,84,-1,158,84,156,-1,156,84,86,-1,156,86,88,-1,60,182,193,-1,193,182,187,-1,193,187,190,-1,190,187,185,-1,190,185,184,-1,108,110,128,-1,128,110,112,-1,128,112,126,-1,126,112,114,-1,126,114,124,-1,124,114,116,-1,124,116,121,-1,121,116,118,-1,121,118,120,-1,172,174,66,-1,66,174,176,-1,66,176,62,-1,62,176,178,-1,62,178,60,-1,60,178,180,-1,60,180,182,-1,130,132,106,-1,106,132,134,-1,106,134,104,-1,104,134,137,-1,104,137,102,-1,102,137,139,-1,102,139,100,-1,100,139,141,-1,100,141,98,-1,98,141,143,-1,98,143,96,-1,96,143,145,-1,96,145,94,-1,94,145,147,-1,94,147,92,-1,92,147,152,-1,92,152,90,-1,90,152,150,-1,90,150,149,-1,196,197,198,-1,198,197,199,-1,200,201,199,-1,199,201,202,-1,203,204,205,-1,205,204,206,-1,207,208,209,-1,202,210,199,-1,199,210,211,-1,199,211,198,-1,198,211,212,-1,198,212,203,-1,203,212,213,-1,203,213,204,-1,214,215,216,-1,216,215,217,-1,216,217,218,-1,218,217,219,-1,218,219,220,-1,220,219,221,-1,220,221,222,-1,222,221,223,-1,222,223,224,-1,224,223,225,-1,224,225,226,-1,226,225,227,-1,226,227,228,-1,228,227,229,-1,228,229,230,-1,230,229,231,-1,230,231,232,-1,232,231,233,-1,232,233,199,-1,199,233,234,-1,199,234,200,-1,209,208,235,-1,235,208,236,-1,235,236,237,-1,238,239,234,-1,234,239,240,-1,234,240,200,-1,241,242,243,-1,243,242,244,-1,243,244,245,-1,245,244,246,-1,245,246,247,-1,247,246,248,-1,247,248,249,-1,249,248,250,-1,249,250,251,-1,251,250,252,-1,251,252,206,-1,206,252,253,-1,206,253,205,-1,209,254,207,-1,207,254,239,-1,207,239,255,-1,255,239,238,-1,236,256,237,-1,237,256,257,-1,237,257,258,-1,258,257,259,-1,258,259,260,-1,260,259,261,-1,260,261,262,-1,262,261,263,-1,262,263,241,-1,241,263,264,-1,241,264,242,-1,221,265,266,-1,221,266,223,-1,223,266,267,-1,223,267,225,-1,225,267,268,-1,225,268,227,-1,227,268,269,-1,227,269,229,-1,229,269,270,-1,229,270,231,-1,231,270,271,-1,231,271,233,-1,233,271,272,-1,233,272,234,-1,238,234,273,-1,273,234,272,-1,238,273,274,-1,238,274,255,-1,255,274,275,-1,255,275,207,-1,207,275,276,-1,207,276,208,-1,208,276,277,-1,208,277,236,-1,236,277,278,-1,236,278,256,-1,256,278,279,-1,256,279,257,-1,257,279,280,-1,257,280,259,-1,259,280,281,-1,259,281,261,-1,261,281,282,-1,261,282,263,-1,263,282,283,-1,263,283,264,-1,264,283,284,-1,264,284,242,-1,285,248,286,-1,286,248,246,-1,286,246,287,-1,287,246,244,-1,287,244,288,-1,288,244,242,-1,288,242,284,-1,285,289,248,-1,248,289,250,-1,289,290,250,-1,250,290,291,-1,250,291,252,-1,252,291,292,-1,252,292,253,-1,253,292,293,-1,253,293,205,-1,205,293,294,-1,205,294,203,-1,198,203,295,-1,295,203,294,-1,196,198,296,-1,296,198,295,-1,197,196,297,-1,297,196,296,-1,199,197,298,-1,298,197,297,-1,199,298,299,-1,199,299,232,-1,232,299,300,-1,232,300,230,-1,230,300,301,-1,230,301,228,-1,228,301,302,-1,228,302,226,-1,226,302,303,-1,226,303,224,-1,224,303,304,-1,224,304,222,-1,222,304,305,-1,222,305,220,-1,220,305,306,-1,220,306,218,-1,218,306,307,-1,218,307,216,-1,216,307,308,-1,216,308,214,-1,215,214,309,-1,309,214,308,-1,215,309,310,-1,215,310,217,-1,217,310,311,-1,217,311,219,-1,219,311,265,-1,219,265,221,-1,213,312,313,-1,213,313,204,-1,204,313,314,-1,204,314,206,-1,206,314,315,-1,206,315,251,-1,251,315,316,-1,251,316,249,-1,202,317,318,-1,202,318,210,-1,210,318,319,-1,210,319,211,-1,211,319,320,-1,211,320,212,-1,212,320,312,-1,212,312,213,-1,202,201,317,-1,317,201,321,-1,201,200,321,-1,321,200,322,-1,254,323,324,-1,254,324,239,-1,239,324,325,-1,239,325,240,-1,240,325,322,-1,240,322,200,-1,258,326,327,-1,258,327,237,-1,237,327,328,-1,237,328,235,-1,235,328,329,-1,235,329,209,-1,209,329,323,-1,209,323,254,-1,243,330,331,-1,243,331,241,-1,241,331,332,-1,241,332,262,-1,262,332,333,-1,262,333,260,-1,260,333,326,-1,260,326,258,-1,249,316,334,-1,249,334,247,-1,247,334,335,-1,247,335,245,-1,245,335,330,-1,245,330,243,-1,
        ]
    }
}
Shape{
    appearance Appearance {
        material  Material 	{
            diffuseColor 0.6666666666666666 0.6666666666666666 0.6666666666666666
            specularColor 0.4666666666666667 0.4666666666666667 0.4666666666666667
            ambientIntensity 0.6667
            transparency 0.0
            shininess 0.5
        }
    }
    geometry IndexedFaceSet {
        ccw TRUE
        solid FALSE
        coord DEF co Coordinate {
            point [
                0.5514 0.6834 1.5, 0.5514 0.6839 1.5, 0.5348 0.684 1.5, 0.5514 0.6878 1.5, 0.5418 0.6865 1.5, 0.5373 0.6855 1.5, 0.5356 0.6846 1.5, 0.5509 0.6802 1.5, 0.5339 0.6829 1.5, 0.5498 0.6776 1.5, 0.5343 0.6746 1.5, 0.535 0.674 1.5, 0.5474 0.6746 1.5, 0.5335 0.6758 1.5, 0.5453 0.6732 1.5, 0.5432 0.6724 1.5, 0.5405 0.6721 1.5, 0.5333 0.6816 1.5, 0.5329 0.6799 1.5, 0.5483 0.6755 1.5, 0.5329 0.6788 1.5, 0.5331 0.6771 1.5, 0.5364 0.673 1.5, 0.538 0.6724 1.5
            ]
        }
        coordIndex [
            0,1,2,-1,1,3,4,-1,4,5,1,-1,1,5,6,-1,1,6,2,-1,0,2,7,-1,7,2,8,-1,7,8,9,-1,10,11,12,-1,10,12,13,-1,14,12,15,-1,15,12,16,-1,8,17,9,-1,9,17,18,-1,9,18,19,-1,19,18,20,-1,19,20,12,-1,12,20,21,-1,12,21,13,-1,11,22,12,-1,12,22,23,-1,12,23,16,-1,
        ]
    }
}
Shape{
    appearance Appearance {
        material  Material 	{
            diffuseColor 0.0 0.0 0.0
            specularColor 0.0 0.0 0.0
            ambientIntensity 0.0
            transparency 0.0
            shininess 0.5
        }
    }
    geometry IndexedFaceSet {
        ccw TRUE
        solid FALSE
        coord DEF co Coordinate {
            point [
                0.2337 0.659 1.5039, 0.2398 0.6515 1.5039, 0.23 0.6952 1.5039, 0.2229 0.7663 1.5039, 0.232 0.7711 1.5039, 0.2298 0.7963 1.5039, 0.2553 0.7974 1.5039, 0.268 0.7676 1.5039, 0.2743 0.7805 1.5039, 0.3093 0.6809 1.5039, 0.3093 0.685 1.5039, 0.2747 0.695 1.5039, 0.2708 0.6962 1.5039, 0.2211 0.7007 1.5039, 0.2244 0.6693 1.5039, 0.2296 0.6678 1.5039, 0.2459 0.7983 1.5039, 0.2808 0.69 1.5039, 0.2827 0.6868 1.5039, 0.3091 0.6766 1.5039, 0.3666 0.7152 1.5039, 0.3539 0.7369 1.5039, 0.2991 0.7083 1.5039, 0.268 0.6964 1.5039, 0.2641 0.6959 1.5039, 0.2587 0.721 1.5039, 0.2606 0.6946 1.5039, 0.2496 0.7175 1.5039, 0.2574 0.6923 1.5039, 0.2413 0.7117 1.5039, 0.2554 0.6902 1.5039, 0.2345 0.704 1.5039, 0.2534 0.6868 1.5039, 0.2523 0.6829 1.5039, 0.2522 0.6789 1.5039, 0.2833 0.7194 1.5039, 0.2734 0.7219 1.5039, 0.2684 0.7222 1.5039, 0.278 0.6929 1.5039, 0.3801 0.7557 1.5039, 0.3834 0.7557 1.5039, 0.4001 0.7778 1.5039, 0.3911 0.7548 1.5039, 0.4021 0.7771 1.5039, 0.3983 0.752 1.5039, 0.4143 0.7711 1.5039, 0.4254 0.7617 1.5039, 0.2637 0.8072 1.5039, 0.2834 0.7915 1.5039, 0.2733 0.8154 1.5039, 0.2944 0.7995 1.5039, 0.285 0.8225 1.5039, 0.2421 0.7735 1.5039, 0.2464 0.7737 1.5039, 0.2506 0.798 1.5039, 0.2559 0.7725 1.5039, 0.2651 0.7692 1.5039, 0.253 0.6751 1.5039, 0.2547 0.6717 1.5039, 0.292 0.7148 1.5039, 0.4255 0.6854 1.5039, 0.4064 0.7016 1.5039, 0.4144 0.676 1.5039, 0.4004 0.6967 1.5039, 0.4019 0.6699 1.5039, 0.3932 0.6933 1.5039, 0.3883 0.667 1.5039, 0.3858 0.6919 1.5039, 0.3641 0.667 1.5039, 0.3674 0.6919 1.5039, 0.3618 0.6673 1.5039, 0.4046 0.7476 1.5039, 0.4093 0.7423 1.5039, 0.4338 0.7501 1.5039, 0.4131 0.7353 1.5039, 0.4387 0.7376 1.5039, 0.4151 0.7274 1.5039, 0.4406 0.7242 1.5039, 0.4153 0.7238 1.5039, 0.4387 0.7096 1.5039, 0.4143 0.7159 1.5039, 0.4336 0.6967 1.5039, 0.4115 0.7086 1.5039, 0.407 0.7022 1.5039, 0.378 0.8101 1.5039, 0.3621 0.7913 1.5039, 0.3922 0.7935 1.5039, 0.3713 0.7803 1.5039, 0.3776 0.7671 1.5039, 0.2067 0.7427 1.5039, 0.1798 0.7359 1.5039, 0.2055 0.7328 1.5039, 0.1797 0.732 1.5039, 0.2059 0.7265 1.5039, 0.1817 0.716 1.5039, 0.2089 0.7165 1.5039, 0.1875 0.7008 1.5039, 0.2137 0.7082 1.5039, 0.1969 0.6874 1.5039, 0.2096 0.6765 1.5039, 0.304 0.8293 1.5039, 0.3078 0.8049 1.5039, 0.3224 0.8314 1.5039, 0.3228 0.8069 1.5039, 0.3418 0.829 1.5039, 0.3367 0.8051 1.5039, 0.3621 0.8212 1.5039, 0.3495 0.8002 1.5039, 0.361 0.7923 1.5039, 0.2147 0.7904 1.5039, 0.2017 0.7812 1.5039, 0.2158 0.76 1.5039, 0.1989 0.7786 1.5039, 0.2102 0.7518 1.5039, 0.1891 0.766 1.5039, 0.1826 0.7513 1.5039, 0.2838 0.683 1.5039, 0.2839 0.6791 1.5039, 0.3067 0.6665 1.5039, 0.283 0.6751 1.5039, 0.3019 0.6574 1.5039, 0.2812 0.6715 1.5039, 0.2956 0.6504 1.5039, 0.2786 0.6686 1.5039, 0.2875 0.6447 1.5039, 0.2755 0.6664 1.5039, 0.2783 0.6412 1.5039, 0.2719 0.665 1.5039, 0.2684 0.64 1.5039, 0.268 0.6645 1.5039, 0.2669 0.64 1.5039, 0.2673 0.6645 1.5039, 0.2572 0.6415 1.5039, 0.2637 0.6651 1.5039, 0.2478 0.6455 1.5039, 0.26 0.6667 1.5039, 0.2568 0.6691 1.5039, 0.3654 0.6923 1.5039, 0.3555 0.6713 1.5039, 0.3565 0.6703 1.5039, 0.3666 0.692 1.5039, 0.3591 0.6684 1.5039, 0.3523 0.6797 1.5039, 0.3527 0.6766 1.5039, 0.3537 0.6738 1.5039, 0.3618 0.6919 1.5039, 0.359 0.6908 1.5039, 0.3524 0.6813 1.5039, 0.3565 0.689 1.5039, 0.3548 0.6872 1.5039, 0.3532 0.6844 1.5039, 0.365 0.6923 1.5039, 0.4281 0.7579 1.5, 0.4338 0.7501 1.5, 0.4373 0.7411 1.5, 0.4387 0.7376 1.5, 0.4406 0.7242 1.5, 0.4254 0.7617 1.5, 0.4143 0.7711 1.5, 0.4021 0.7771 1.5, 0.4001 0.7778 1.5, 0.3922 0.7935 1.5, 0.378 0.8101 1.5, 0.3689 0.8164 1.5, 0.3621 0.8212 1.5, 0.3418 0.829 1.5, 0.3224 0.8314 1.5, 0.2733 0.8154 1.5, 0.275 0.8164 1.5, 0.285 0.8225 1.5, 0.304 0.8293 1.5, 0.2637 0.8072 1.5, 0.2553 0.7974 1.5, 0.2506 0.798 1.5, 0.2459 0.7983 1.5, 0.2298 0.7963 1.5, 0.2147 0.7904 1.5, 0.2017 0.7812 1.5, 0.1989 0.7786 1.5, 0.1891 0.766 1.5, 0.1855 0.7579 1.5, 0.1826 0.7513 1.5, 0.1807 0.7411 1.5, 0.1798 0.7359 1.5, 0.1797 0.732 1.5, 0.1817 0.716 1.5, 0.1875 0.7008 1.5, 0.1969 0.6874 1.5, 0.2096 0.6765 1.5, 0.2244 0.6693 1.5, 0.2296 0.6678 1.5, 0.2301 0.6667 1.5, 0.2337 0.659 1.5, 0.2398 0.6515 1.5, 0.2478 0.6455 1.5, 0.2515 0.6439 1.5, 0.2572 0.6415 1.5, 0.2669 0.64 1.5, 0.2684 0.64 1.5, 0.3093 0.6809 1.5, 0.2783 0.6412 1.5, 0.2854 0.6439 1.5, 0.2875 0.6447 1.5, 0.2956 0.6504 1.5, 0.3019 0.6574 1.5, 0.3067 0.6665 1.5, 0.3068 0.6667 1.5, 0.3091 0.6766 1.5, 0.3093 0.685 1.5, 0.3666 0.7152 1.5, 0.3539 0.7369 1.5, 0.2991 0.7083 1.5, 0.292 0.7148 1.5, 0.2833 0.7194 1.5, 0.2734 0.7219 1.5, 0.2684 0.7222 1.5, 0.2587 0.721 1.5, 0.2496 0.7175 1.5, 0.2413 0.7117 1.5, 0.2345 0.704 1.5, 0.23 0.6952 1.5, 0.2211 0.7007 1.5, 0.2137 0.7082 1.5, 0.2089 0.7165 1.5, 0.2059 0.7265 1.5, 0.2055 0.7328 1.5, 0.2065 0.7411 1.5, 0.2067 0.7427 1.5, 0.2102 0.7518 1.5, 0.2144 0.7579 1.5, 0.2158 0.76 1.5, 0.2229 0.7663 1.5, 0.232 0.7711 1.5, 0.2421 0.7735 1.5, 0.2464 0.7737 1.5, 0.2559 0.7725 1.5, 0.2651 0.7692 1.5, 0.268 0.7676 1.5, 0.2743 0.7805 1.5, 0.2834 0.7915 1.5, 0.2944 0.7995 1.5, 0.3078 0.8049 1.5, 0.3228 0.8069 1.5, 0.3801 0.7557 1.5, 0.3796 0.7579 1.5, 0.3776 0.7671 1.5, 0.3713 0.7803 1.5, 0.3621 0.7913 1.5, 0.361 0.7923 1.5, 0.3495 0.8002 1.5, 0.3367 0.8051 1.5, 0.3834 0.7557 1.5, 0.3911 0.7548 1.5, 0.3983 0.752 1.5, 0.4046 0.7476 1.5, 0.4093 0.7423 1.5, 0.41 0.7411 1.5, 0.4131 0.7353 1.5, 0.4151 0.7274 1.5, 0.4153 0.7238 1.5, 0.4143 0.7159 1.5, 0.4115 0.7086 1.5, 0.407 0.7022 1.5, 0.4064 0.7016 1.5, 0.4004 0.6967 1.5, 0.3932 0.6933 1.5, 0.3858 0.6919 1.5, 0.3674 0.6919 1.5, 0.3666 0.692 1.5, 0.3654 0.6923 1.5, 0.365 0.6923 1.5, 0.3618 0.6919 1.5, 0.359 0.6908 1.5, 0.3565 0.689 1.5, 0.3548 0.6872 1.5, 0.3532 0.6844 1.5, 0.3524 0.6813 1.5, 0.3523 0.6797 1.5, 0.3527 0.6766 1.5, 0.3537 0.6738 1.5, 0.3555 0.6713 1.5, 0.3565 0.6703 1.5, 0.3591 0.6684 1.5, 0.3618 0.6673 1.5, 0.3641 0.667 1.5, 0.3883 0.667 1.5, 0.4019 0.6699 1.5, 0.4144 0.676 1.5, 0.4255 0.6854 1.5, 0.4336 0.6967 1.5, 0.4387 0.7096 1.5, 0.268 0.6964 1.5, 0.2708 0.6962 1.5, 0.2747 0.695 1.5, 0.278 0.6929 1.5, 0.2808 0.69 1.5, 0.2827 0.6868 1.5, 0.2838 0.683 1.5, 0.2839 0.6791 1.5, 0.283 0.6751 1.5, 0.2812 0.6715 1.5, 0.2786 0.6686 1.5, 0.2755 0.6664 1.5, 0.2719 0.665 1.5, 0.268 0.6645 1.5, 0.2673 0.6645 1.5, 0.2637 0.6651 1.5, 0.26 0.6667 1.5, 0.2568 0.6691 1.5, 0.2547 0.6717 1.5, 0.253 0.6751 1.5, 0.2522 0.6789 1.5, 0.2523 0.6829 1.5, 0.2534 0.6868 1.5, 0.2554 0.6902 1.5, 0.2574 0.6923 1.5, 0.2606 0.6946 1.5, 0.2641 0.6959 1.5
            ]
        }
        coordIndex [
            0,1,2,-1,3,4,5,-1,6,7,8,-1,9,10,11,-1,11,10,12,-1,13,14,2,-1,2,14,15,-1,2,15,0,-1,5,4,16,-1,17,18,19,-1,20,21,10,-1,10,21,22,-1,10,22,12,-1,12,22,23,-1,24,25,26,-1,26,25,27,-1,26,27,28,-1,28,27,29,-1,28,29,30,-1,30,29,31,-1,30,31,32,-1,32,31,2,-1,32,2,33,-1,33,2,34,-1,35,36,24,-1,24,36,37,-1,24,37,25,-1,9,11,19,-1,19,11,38,-1,19,38,17,-1,39,40,41,-1,41,40,42,-1,41,42,43,-1,43,42,44,-1,43,44,45,-1,45,44,46,-1,6,8,47,-1,47,8,48,-1,47,48,49,-1,49,48,50,-1,49,50,51,-1,4,52,16,-1,16,52,53,-1,16,53,54,-1,54,53,55,-1,54,55,6,-1,6,55,56,-1,6,56,7,-1,34,2,57,-1,57,2,1,-1,57,1,58,-1,23,22,24,-1,24,22,59,-1,24,59,35,-1,60,61,62,-1,62,61,63,-1,62,63,64,-1,64,63,65,-1,64,65,66,-1,66,65,67,-1,66,67,68,-1,68,67,69,-1,68,69,70,-1,44,71,46,-1,46,71,72,-1,46,72,73,-1,73,72,74,-1,73,74,75,-1,75,74,76,-1,75,76,77,-1,77,76,78,-1,77,78,79,-1,79,78,80,-1,79,80,81,-1,81,80,82,-1,81,82,60,-1,60,82,83,-1,60,83,61,-1,84,85,86,-1,86,85,87,-1,86,87,41,-1,41,87,88,-1,41,88,39,-1,89,90,91,-1,91,90,92,-1,91,92,93,-1,93,92,94,-1,93,94,95,-1,95,94,96,-1,95,96,97,-1,97,96,98,-1,97,98,13,-1,13,98,99,-1,13,99,14,-1,51,50,100,-1,100,50,101,-1,100,101,102,-1,102,101,103,-1,102,103,104,-1,104,103,105,-1,104,105,106,-1,106,105,107,-1,106,107,84,-1,84,107,108,-1,84,108,85,-1,5,109,3,-1,3,109,110,-1,3,110,111,-1,111,110,112,-1,111,112,113,-1,113,112,114,-1,113,114,89,-1,89,114,115,-1,89,115,90,-1,18,116,19,-1,19,116,117,-1,19,117,118,-1,118,117,119,-1,118,119,120,-1,120,119,121,-1,120,121,122,-1,122,121,123,-1,122,123,124,-1,124,123,125,-1,124,125,126,-1,126,125,127,-1,126,127,128,-1,128,127,129,-1,128,129,130,-1,130,129,131,-1,130,131,132,-1,132,131,133,-1,132,133,134,-1,134,133,135,-1,134,135,1,-1,1,135,136,-1,1,136,58,-1,137,138,139,-1,69,140,70,-1,70,140,137,-1,70,137,141,-1,141,137,139,-1,142,143,137,-1,137,143,144,-1,137,144,138,-1,145,146,147,-1,146,148,147,-1,147,148,149,-1,147,149,150,-1,142,137,147,-1,147,137,151,-1,147,151,145,-1,152,46,153,-1,153,46,73,-1,153,73,154,-1,154,73,75,-1,154,75,155,-1,155,75,77,-1,155,77,156,-1,152,157,46,-1,46,157,158,-1,46,158,45,-1,45,158,159,-1,45,159,43,-1,43,159,160,-1,43,160,41,-1,41,160,161,-1,41,161,86,-1,86,161,162,-1,86,162,84,-1,84,162,106,-1,106,162,163,-1,163,164,106,-1,106,164,165,-1,106,165,104,-1,104,165,166,-1,104,166,102,-1,167,49,168,-1,168,49,51,-1,168,51,169,-1,169,51,100,-1,169,100,170,-1,170,100,102,-1,170,102,166,-1,49,167,171,-1,49,171,47,-1,47,171,172,-1,47,172,6,-1,6,172,173,-1,6,173,54,-1,54,173,174,-1,54,174,16,-1,16,174,175,-1,16,175,5,-1,5,175,176,-1,5,176,109,-1,109,176,177,-1,109,177,110,-1,110,177,178,-1,110,178,112,-1,115,114,179,-1,179,114,112,-1,179,112,178,-1,179,180,115,-1,115,180,181,-1,115,181,90,-1,90,181,182,-1,182,183,90,-1,90,183,184,-1,90,184,92,-1,92,184,185,-1,92,185,94,-1,94,185,186,-1,94,186,96,-1,96,186,187,-1,96,187,98,-1,98,187,188,-1,98,188,99,-1,99,188,189,-1,99,189,14,-1,14,189,190,-1,14,190,15,-1,15,190,191,-1,15,191,0,-1,191,192,0,-1,0,192,193,-1,0,193,1,-1,1,193,194,-1,1,194,134,-1,134,194,195,-1,134,195,132,-1,195,196,132,-1,132,196,197,-1,132,197,130,-1,130,197,198,-1,130,198,128,-1,199,9,19,-1,128,198,200,-1,128,200,126,-1,126,200,201,-1,126,201,124,-1,201,202,124,-1,124,202,203,-1,124,203,122,-1,122,203,204,-1,122,204,120,-1,120,204,205,-1,120,205,118,-1,118,205,206,-1,118,206,19,-1,19,206,207,-1,19,207,199,-1,10,9,208,-1,208,9,199,-1,20,10,209,-1,209,10,208,-1,21,20,210,-1,210,20,209,-1,22,21,211,-1,211,21,210,-1,22,211,212,-1,22,212,59,-1,59,212,213,-1,59,213,35,-1,35,213,214,-1,35,214,36,-1,36,214,215,-1,36,215,37,-1,37,215,216,-1,37,216,25,-1,25,216,217,-1,25,217,27,-1,27,217,218,-1,27,218,29,-1,29,218,219,-1,29,219,31,-1,31,219,220,-1,31,220,2,-1,2,220,221,-1,2,221,13,-1,13,221,222,-1,13,222,97,-1,97,222,223,-1,97,223,95,-1,95,223,224,-1,95,224,93,-1,93,224,225,-1,93,225,91,-1,91,225,226,-1,91,226,89,-1,89,226,227,-1,89,227,228,-1,229,111,228,-1,228,111,113,-1,228,113,89,-1,229,230,111,-1,111,230,231,-1,111,231,3,-1,3,231,232,-1,3,232,4,-1,4,232,233,-1,4,233,52,-1,52,233,234,-1,52,234,53,-1,53,234,235,-1,53,235,55,-1,55,235,236,-1,55,236,56,-1,56,236,237,-1,56,237,7,-1,7,237,238,-1,7,238,8,-1,8,238,239,-1,8,239,48,-1,48,239,240,-1,48,240,50,-1,50,240,241,-1,50,241,101,-1,101,241,242,-1,101,242,103,-1,243,39,244,-1,244,39,88,-1,244,88,245,-1,245,88,87,-1,245,87,246,-1,246,87,85,-1,246,85,247,-1,247,85,108,-1,247,108,248,-1,248,108,107,-1,248,107,249,-1,249,107,105,-1,249,105,250,-1,250,105,103,-1,250,103,242,-1,40,39,251,-1,251,39,243,-1,40,251,252,-1,40,252,42,-1,42,252,253,-1,42,253,44,-1,44,253,254,-1,44,254,71,-1,71,254,255,-1,71,255,72,-1,72,255,256,-1,72,256,74,-1,256,257,74,-1,74,257,258,-1,74,258,76,-1,76,258,259,-1,76,259,78,-1,78,259,260,-1,78,260,80,-1,80,260,261,-1,80,261,82,-1,82,261,262,-1,82,262,83,-1,83,262,263,-1,83,263,61,-1,61,263,264,-1,61,264,63,-1,63,264,265,-1,63,265,65,-1,65,265,266,-1,65,266,67,-1,69,67,267,-1,267,67,266,-1,69,267,268,-1,69,268,140,-1,140,268,269,-1,140,269,137,-1,137,269,270,-1,137,270,151,-1,151,270,271,-1,151,271,145,-1,145,271,272,-1,145,272,146,-1,146,272,273,-1,146,273,148,-1,148,273,274,-1,148,274,149,-1,149,274,275,-1,149,275,150,-1,150,275,276,-1,150,276,147,-1,147,276,277,-1,147,277,142,-1,142,277,278,-1,142,278,143,-1,143,278,279,-1,143,279,144,-1,144,279,280,-1,144,280,138,-1,138,280,281,-1,138,281,139,-1,139,281,282,-1,139,282,141,-1,141,282,283,-1,141,283,70,-1,70,283,284,-1,70,284,68,-1,66,68,285,-1,285,68,284,-1,66,285,286,-1,66,286,64,-1,64,286,287,-1,64,287,62,-1,62,287,288,-1,62,288,60,-1,60,288,289,-1,60,289,81,-1,81,289,290,-1,81,290,79,-1,79,290,156,-1,79,156,77,-1,23,291,292,-1,23,292,12,-1,12,292,293,-1,12,293,11,-1,11,293,294,-1,11,294,38,-1,38,294,295,-1,38,295,17,-1,17,295,296,-1,17,296,18,-1,18,296,297,-1,18,297,116,-1,116,297,298,-1,116,298,117,-1,117,298,299,-1,117,299,119,-1,119,299,300,-1,119,300,121,-1,121,300,301,-1,121,301,123,-1,123,301,302,-1,123,302,125,-1,125,302,303,-1,125,303,127,-1,127,303,304,-1,127,304,129,-1,129,304,305,-1,129,305,131,-1,131,305,306,-1,131,306,133,-1,133,306,307,-1,133,307,135,-1,135,307,308,-1,135,308,136,-1,136,308,309,-1,136,309,58,-1,58,309,310,-1,58,310,57,-1,57,310,311,-1,57,311,34,-1,34,311,312,-1,34,312,33,-1,33,312,313,-1,33,313,32,-1,32,313,314,-1,32,314,30,-1,30,314,315,-1,30,315,28,-1,28,315,316,-1,28,316,26,-1,26,316,317,-1,26,317,24,-1,24,317,291,-1,24,291,23,-1,
        ]
    }
}
Shape{
    appearance Appearance {
        material  Material 	{
            diffuseColor 0.6666666666666666 0.6666666666666666 0.6666666666666666
            specularColor 0.4666666666666667 0.4666666666666667 0.4666666666666667
            ambientIntensity 0.6667
            transparency 0.0
            shininess 0.5
        }
    }
    geometry IndexedFaceSet {
        ccw TRUE
        solid FALSE
        coord DEF co Coordinate {
            point [
                0.2641 0.6959 1.5, 0.2606 0.6946 1.5, 0.2673 0.6645 1.5, 0.2574 0.6923 1.5, 0.2554 0.6902 1.5, 0.2708 0.6962 1.5, 0.268 0.6645 1.5, 0.2719 0.665 1.5, 0.268 0.6964 1.5, 0.253 0.6751 1.5, 0.2547 0.6717 1.5, 0.2568 0.6691 1.5, 0.2786 0.6686 1.5, 0.2808 0.69 1.5, 0.278 0.6929 1.5, 0.2534 0.6868 1.5, 0.2523 0.6829 1.5, 0.2522 0.6789 1.5, 0.26 0.6667 1.5, 0.2637 0.6651 1.5, 0.2755 0.6664 1.5, 0.2747 0.695 1.5, 0.283 0.6751 1.5, 0.2839 0.6791 1.5, 0.2812 0.6715 1.5, 0.2838 0.683 1.5, 0.2827 0.6868 1.5
            ]
        }
        coordIndex [
            0,1,2,-1,2,1,3,-1,2,3,4,-1,5,6,7,-1,6,5,2,-1,2,5,8,-1,2,8,0,-1,9,10,4,-1,4,10,11,-1,12,13,14,-1,15,16,4,-1,4,16,17,-1,4,17,9,-1,11,18,4,-1,4,18,19,-1,4,19,2,-1,7,20,5,-1,5,20,12,-1,5,12,21,-1,21,12,14,-1,22,23,24,-1,24,23,25,-1,24,25,12,-1,12,25,26,-1,12,26,13,-1,
        ]
    }
}
Shape{
    appearance Appearance {
        material  Material 	{
            diffuseColor 0.0 0.0 0.0
            specularColor 0.0 0.0 0.0
            ambientIntensity 0.0
            transparency 0.0
            shininess 0.5
        }
    }
    geometry IndexedFaceSet {
        ccw TRUE
        solid FALSE
        coord DEF co Coordinate {
            point [
                0.655 0.7665 1.5039, 0.649 0.7704 1.5039, 0.6489 0.7622 1.5039, 0.6453 0.7678 1.5039, 0.6424 0.7596 1.5039, 0.6405 0.7659 1.5039, 0.6326 0.7584 1.5039, 0.6326 0.765 1.5039, 0.6168 0.7584 1.5039, 0.6242 0.765 1.5039, 0.6168 0.816 1.5039, 0.6242 0.8093 1.5039, 0.6332 0.816 1.5039, 0.6329 0.8093 1.5039, 0.6335 0.8093 1.5039, 0.642 0.815 1.5039, 0.6409 0.8084 1.5039, 0.6489 0.8124 1.5039, 0.6458 0.8065 1.5039, 0.655 0.8083 1.5039, 0.6495 0.8039 1.5039, 0.657 0.8063 1.5039, 0.6511 0.8023 1.5039, 0.6606 0.8013 1.5039, 0.6534 0.7991 1.5039, 0.6627 0.7958 1.5039, 0.655 0.7949 1.5039, 0.6636 0.7879 1.5039, 0.6558 0.7877 1.5039, 0.6635 0.7843 1.5039, 0.6556 0.7838 1.5039, 0.6621 0.7775 1.5039, 0.6544 0.7786 1.5039, 0.6592 0.7716 1.5039, 0.6524 0.7743 1.5039, 0.6497 0.771 1.5039, 0.655 0.7665 1.5, 0.6592 0.7716 1.5, 0.6621 0.7775 1.5, 0.6635 0.7843 1.5, 0.6636 0.7879 1.5, 0.6627 0.7958 1.5, 0.6606 0.8013 1.5, 0.657 0.8063 1.5, 0.655 0.8083 1.5, 0.6332 0.816 1.5, 0.6489 0.8124 1.5, 0.6432 0.8146 1.5, 0.642 0.815 1.5, 0.6168 0.816 1.5, 0.6168 0.7584 1.5, 0.6326 0.7584 1.5, 0.6424 0.7596 1.5, 0.6432 0.7599 1.5, 0.6489 0.7622 1.5, 0.6495 0.8039 1.5, 0.6511 0.8023 1.5, 0.6534 0.7991 1.5, 0.655 0.7949 1.5, 0.6558 0.7877 1.5, 0.6329 0.8093 1.5, 0.6335 0.8093 1.5, 0.6409 0.8084 1.5, 0.6458 0.8065 1.5, 0.6242 0.8093 1.5, 0.6242 0.765 1.5, 0.6326 0.765 1.5, 0.6497 0.771 1.5, 0.649 0.7704 1.5, 0.6453 0.7678 1.5, 0.6405 0.7659 1.5, 0.6556 0.7838 1.5, 0.6544 0.7786 1.5, 0.6524 0.7743 1.5
            ]
        }
        coordIndex [
            0,1,2,-1,2,1,3,-1,2,3,4,-1,4,3,5,-1,4,5,6,-1,6,5,7,-1,6,7,8,-1,8,7,9,-1,8,9,10,-1,10,9,11,-1,10,11,12,-1,11,13,12,-1,12,13,14,-1,12,14,15,-1,15,14,16,-1,15,16,17,-1,17,16,18,-1,17,18,19,-1,19,18,20,-1,19,20,21,-1,21,20,22,-1,21,22,23,-1,23,22,24,-1,23,24,25,-1,25,24,26,-1,25,26,27,-1,27,26,28,-1,27,28,29,-1,29,28,30,-1,29,30,31,-1,31,30,32,-1,31,32,33,-1,33,32,34,-1,33,34,0,-1,0,34,35,-1,0,35,1,-1,0,36,37,-1,0,37,33,-1,33,37,38,-1,33,38,31,-1,31,38,39,-1,31,39,29,-1,29,39,40,-1,29,40,27,-1,27,40,41,-1,27,41,25,-1,25,41,42,-1,25,42,23,-1,23,42,43,-1,23,43,21,-1,21,43,44,-1,21,44,19,-1,45,12,15,-1,19,44,46,-1,19,46,17,-1,17,46,47,-1,17,47,15,-1,15,47,48,-1,15,48,45,-1,10,12,49,-1,49,12,45,-1,8,10,50,-1,50,10,49,-1,6,8,51,-1,51,8,50,-1,36,0,2,-1,6,51,52,-1,6,52,4,-1,4,52,53,-1,4,53,2,-1,2,53,54,-1,2,54,36,-1,20,55,56,-1,20,56,22,-1,22,56,57,-1,22,57,24,-1,24,57,58,-1,24,58,26,-1,26,58,59,-1,26,59,28,-1,13,60,61,-1,13,61,14,-1,14,61,62,-1,14,62,16,-1,16,62,63,-1,16,63,18,-1,18,63,55,-1,18,55,20,-1,13,11,60,-1,60,11,64,-1,11,9,64,-1,64,9,65,-1,9,7,65,-1,65,7,66,-1,35,67,68,-1,35,68,1,-1,1,68,69,-1,1,69,3,-1,3,69,70,-1,3,70,5,-1,5,70,66,-1,5,66,7,-1,28,59,71,-1,28,71,30,-1,30,71,72,-1,30,72,32,-1,32,72,73,-1,32,73,34,-1,34,73,67,-1,34,67,35,-1,
        ]
    }
}
Shape{
    appearance Appearance {
        material  Material 	{
            diffuseColor 0.6666666666666666 0.6666666666666666 0.6666666666666666
            specularColor 0.4666666666666667 0.4666666666666667 0.4666666666666667
            ambientIntensity 0.6667
            transparency 0.0
            shininess 0.5
        }
    }
    geometry IndexedFaceSet {
        ccw TRUE
        solid FALSE
        coord DEF co Coordinate {
            point [
                0.6453 0.7678 1.5, 0.649 0.7704 1.5, 0.6335 0.8093 1.5, 0.6242 0.8093 1.5, 0.6242 0.765 1.5, 0.6329 0.8093 1.5, 0.6326 0.765 1.5, 0.6405 0.7659 1.5, 0.6497 0.771 1.5, 0.6524 0.7743 1.5, 0.6544 0.7786 1.5, 0.6558 0.7877 1.5, 0.6495 0.8039 1.5, 0.6458 0.8065 1.5, 0.655 0.7949 1.5, 0.6534 0.7991 1.5, 0.6511 0.8023 1.5, 0.6556 0.7838 1.5, 0.6409 0.8084 1.5
            ]
        }
        coordIndex [
            0,1,2,-1,3,4,5,-1,5,4,6,-1,5,6,2,-1,2,6,7,-1,2,7,0,-1,1,8,2,-1,2,8,9,-1,2,9,10,-1,11,12,13,-1,14,15,11,-1,11,15,16,-1,11,16,12,-1,10,17,2,-1,2,17,11,-1,2,11,18,-1,18,11,13,-1,
        ]
    }
}
Shape{
    appearance Appearance {
        material  Material 	{
            diffuseColor 0.0 0.0 0.0
            specularColor 0.0 0.0 0.0
            ambientIntensity 0.0
            transparency 0.0
            shininess 0.5
        }
    }
    geometry IndexedFaceSet {
        ccw TRUE
        solid FALSE
        coord DEF co Coordinate {
            point [
                0.5486 0.7641 1.5039, 0.5486 0.7641 1.5, 0.5436 0.7646 1.5, 0.5436 0.7646 1.5039, 0.5394 0.766 1.5, 0.5394 0.766 1.5039, 0.5355 0.7686 1.5, 0.5355 0.7686 1.5039, 0.5339 0.7701 1.5, 0.5339 0.7701 1.5039, 0.5312 0.7737 1.5, 0.5312 0.7737 1.5039, 0.5293 0.7783 1.5, 0.5293 0.7783 1.5039, 0.5283 0.7839 1.5, 0.5283 0.7839 1.5039, 0.5282 0.7865 1.5, 0.5282 0.7865 1.5039, 0.5292 0.7944 1.5, 0.5292 0.7944 1.5039, 0.5311 0.7994 1.5, 0.5311 0.7994 1.5039, 0.5339 0.8034 1.5, 0.5339 0.8034 1.5039, 0.5343 0.8038 1.5, 0.5343 0.8038 1.5039, 0.5378 0.8068 1.5, 0.5378 0.8068 1.5039, 0.5423 0.809 1.5, 0.5423 0.809 1.5039, 0.5472 0.8101 1.5, 0.5472 0.8101 1.5039, 0.5499 0.8102 1.5, 0.5499 0.8102 1.5039, 0.557 0.8094 1.5, 0.557 0.8094 1.5039, 0.5628 0.8072 1.5, 0.5628 0.8072 1.5039, 0.5635 0.8068 1.5, 0.5635 0.8068 1.5039, 0.5635 0.8146 1.5039, 0.5635 0.8146 1.5, 0.5499 0.8169 1.5, 0.5499 0.8169 1.5039, 0.556 0.8164 1.5, 0.5574 0.8163 1.5039, 0.5574 0.8163 1.5, 0.5459 0.8164 1.5, 0.5415 0.8159 1.5039, 0.5415 0.8159 1.5, 0.5355 0.8136 1.5, 0.5355 0.8136 1.5039, 0.5301 0.8098 1.5, 0.5301 0.8098 1.5039, 0.5287 0.8085 1.5, 0.5287 0.8085 1.5039, 0.5246 0.803 1.5, 0.523 0.7993 1.5, 0.5218 0.7966 1.5039, 0.5246 0.803 1.5039, 0.5218 0.7966 1.5, 0.5205 0.7891 1.5, 0.5205 0.7891 1.5039, 0.5204 0.7861 1.5, 0.5204 0.7861 1.5039, 0.5215 0.7768 1.5, 0.523 0.7731 1.5, 0.5239 0.7707 1.5039, 0.5215 0.7768 1.5039, 0.5239 0.7707 1.5, 0.5273 0.7658 1.5, 0.5273 0.7658 1.5039, 0.5278 0.7653 1.5, 0.5278 0.7653 1.5039, 0.5476 0.7575 1.5, 0.5476 0.7575 1.5039, 0.5441 0.7576 1.5039, 0.5324 0.7615 1.5, 0.5324 0.7615 1.5039, 0.5378 0.7589 1.5, 0.5378 0.7589 1.5039, 0.5425 0.7579 1.5, 0.5441 0.7576 1.5, 0.5563 0.7583 1.5039, 0.5526 0.7579 1.5, 0.5563 0.7583 1.5, 0.5625 0.7603 1.5, 0.5625 0.7603 1.5039, 0.5635 0.7608 1.5, 0.5635 0.7608 1.5039, 0.5635 0.7679 1.5039, 0.5635 0.7679 1.5, 0.5578 0.7654 1.5, 0.5578 0.7654 1.5039, 0.5513 0.7642 1.5, 0.5513 0.7642 1.5039, 0.7549 0.6894 1.5039, 0.7526 0.6829 1.5039, 0.7743 0.6894 1.5039, 0.7765 0.6829 1.5039, 0.7635 0.7133 1.5039, 0.7608 0.7247 1.5039, 0.7389 0.6672 1.5039, 0.7471 0.6672 1.5039, 0.764 0.715 1.5039, 0.7645 0.7173 1.5039, 0.7687 0.7247 1.5039, 0.7647 0.7173 1.5039, 0.7651 0.7149 1.5039, 0.7656 0.7133 1.5039, 0.7906 0.6672 1.5039, 0.7824 0.6672 1.5039, 0.7608 0.7247 1.5, 0.7687 0.7247 1.5, 0.7389 0.6672 1.5, 0.7471 0.6672 1.5, 0.7526 0.6829 1.5, 0.7765 0.6829 1.5, 0.7824 0.6672 1.5, 0.7906 0.6672 1.5, 0.7635 0.7133 1.5, 0.764 0.715 1.5, 0.7645 0.7173 1.5, 0.7549 0.6894 1.5, 0.7743 0.6894 1.5, 0.7656 0.7133 1.5, 0.7647 0.7173 1.5, 0.7651 0.7149 1.5
            ]
        }
        coordIndex [
            0,1,2,-1,0,2,3,-1,3,2,4,-1,3,4,5,-1,5,4,6,-1,5,6,7,-1,7,6,8,-1,7,8,9,-1,9,8,10,-1,9,10,11,-1,11,10,12,-1,11,12,13,-1,13,12,14,-1,13,14,15,-1,15,14,16,-1,15,16,17,-1,17,16,18,-1,17,18,19,-1,19,18,20,-1,19,20,21,-1,21,20,22,-1,21,22,23,-1,23,22,24,-1,23,24,25,-1,25,24,26,-1,25,26,27,-1,27,26,28,-1,27,28,29,-1,29,28,30,-1,29,30,31,-1,31,30,32,-1,31,32,33,-1,33,32,34,-1,33,34,35,-1,35,34,36,-1,35,36,37,-1,37,36,38,-1,37,38,39,-1,40,39,41,-1,41,39,38,-1,42,43,44,-1,44,43,45,-1,44,45,46,-1,46,45,40,-1,46,40,41,-1,43,42,47,-1,43,47,48,-1,47,49,48,-1,48,49,50,-1,48,50,51,-1,51,50,52,-1,51,52,53,-1,53,52,54,-1,53,54,55,-1,55,54,56,-1,57,58,56,-1,56,58,59,-1,56,59,55,-1,57,60,58,-1,58,60,61,-1,58,61,62,-1,62,61,63,-1,62,63,64,-1,64,63,65,-1,66,67,65,-1,65,67,68,-1,65,68,64,-1,66,69,67,-1,67,69,70,-1,67,70,71,-1,71,70,72,-1,71,72,73,-1,74,75,76,-1,73,72,77,-1,73,77,78,-1,78,77,79,-1,78,79,80,-1,80,79,81,-1,80,81,76,-1,76,81,82,-1,76,82,74,-1,75,74,83,-1,83,74,84,-1,84,85,83,-1,83,85,86,-1,83,86,87,-1,87,86,88,-1,87,88,89,-1,90,89,91,-1,91,89,88,-1,90,91,92,-1,90,92,93,-1,93,92,94,-1,93,94,95,-1,95,94,1,-1,95,1,0,-1,27,29,48,-1,19,21,59,-1,59,21,55,-1,48,29,43,-1,64,17,62,-1,62,17,19,-1,62,19,58,-1,58,19,59,-1,29,31,43,-1,43,31,33,-1,43,33,45,-1,45,33,35,-1,45,35,40,-1,40,35,37,-1,40,37,39,-1,89,90,87,-1,87,90,93,-1,87,93,83,-1,83,93,95,-1,83,95,75,-1,75,95,0,-1,75,0,76,-1,76,0,3,-1,76,3,80,-1,80,3,5,-1,80,5,78,-1,78,5,7,-1,78,7,73,-1,73,7,9,-1,73,9,71,-1,71,9,11,-1,71,11,67,-1,67,11,68,-1,68,11,13,-1,68,13,64,-1,64,13,15,-1,64,15,17,-1,21,23,55,-1,55,23,25,-1,55,25,53,-1,53,25,27,-1,53,27,51,-1,51,27,48,-1,96,97,98,-1,98,97,99,-1,100,101,96,-1,96,101,102,-1,96,102,97,-1,97,102,103,-1,100,104,101,-1,101,104,105,-1,101,105,106,-1,106,105,107,-1,106,107,108,-1,108,109,106,-1,106,109,98,-1,106,98,110,-1,110,98,99,-1,110,99,111,-1,101,106,112,-1,112,106,113,-1,102,101,114,-1,114,101,112,-1,103,102,115,-1,115,102,114,-1,97,103,116,-1,116,103,115,-1,99,97,117,-1,117,97,116,-1,111,99,118,-1,118,99,117,-1,110,111,119,-1,119,111,118,-1,106,110,113,-1,113,110,119,-1,100,120,121,-1,100,121,104,-1,104,121,122,-1,104,122,105,-1,100,96,120,-1,120,96,123,-1,96,98,123,-1,123,98,124,-1,98,109,124,-1,124,109,125,-1,107,126,127,-1,107,127,108,-1,108,127,125,-1,108,125,109,-1,107,105,126,-1,126,105,122,-1,
        ]
    }
}
Shape{
    appearance Appearance {
        material  Material 	{
            diffuseColor 0.6666666666666666 0.6666666666666666 0.6666666666666666
            specularColor 0.4666666666666667 0.4666666666666667 0.4666666666666667
            ambientIntensity 0.6667
            transparency 0.0
            shininess 0.5
        }
    }
    geometry IndexedFaceSet {
        ccw TRUE
        solid FALSE
        coord DEF co Coordinate {
            point [
                0.7647 0.7173 1.5, 0.7645 0.7173 1.5, 0.7651 0.7149 1.5, 0.764 0.715 1.5, 0.7656 0.7133 1.5, 0.7635 0.7133 1.5, 0.7743 0.6894 1.5, 0.7549 0.6894 1.5
            ]
        }
        coordIndex [
            0,1,2,-1,2,1,3,-1,2,3,4,-1,4,3,5,-1,4,5,6,-1,6,5,7,-1,
        ]
    }
}
Shape{
    appearance Appearance {
        material  Material 	{
            diffuseColor 0.0 0.0 0.0
            specularColor 0.0 0.0 0.0
            ambientIntensity 0.0
            transparency 0.0
            shininess 0.5
        }
    }
    geometry IndexedFaceSet {
        ccw TRUE
        solid FALSE
        coord DEF co Coordinate {
            point [
                0.678 0.6737 1.5039, 0.678 0.6737 1.5, 0.6545 0.6737 1.5039, 0.6652 0.6737 1.5, 0.6545 0.6737 1.5, 0.6545 0.6931 1.5039, 0.6545 0.6931 1.5, 0.675 0.6931 1.5039, 0.6652 0.6931 1.5, 0.675 0.6931 1.5, 0.675 0.6997 1.5039, 0.675 0.6997 1.5, 0.6545 0.6997 1.5, 0.6545 0.6997 1.5039, 0.6652 0.6997 1.5, 0.6545 0.7181 1.5039, 0.6545 0.7181 1.5, 0.6767 0.7181 1.5, 0.6767 0.7181 1.5039, 0.6652 0.7181 1.5, 0.6767 0.7247 1.5039, 0.6767 0.7247 1.5, 0.647 0.7247 1.5, 0.647 0.7247 1.5039, 0.6652 0.7247 1.5, 0.647 0.6672 1.5039, 0.647 0.6672 1.5, 0.678 0.6672 1.5, 0.678 0.6672 1.5039, 0.6652 0.6672 1.5, 0.4952 0.6737 1.5039, 0.5187 0.6737 1.5039, 0.4952 0.6737 1.5, 0.5187 0.6737 1.5, 0.4952 0.6931 1.5039, 0.4952 0.6931 1.5, 0.5157 0.6931 1.5039, 0.5157 0.6931 1.5, 0.5157 0.6997 1.5039, 0.5157 0.6997 1.5, 0.4952 0.6997 1.5039, 0.4952 0.6997 1.5, 0.4952 0.7181 1.5039, 0.4952 0.7181 1.5, 0.5174 0.7181 1.5039, 0.5174 0.7181 1.5, 0.5174 0.7247 1.5039, 0.5174 0.7247 1.5, 0.4877 0.7247 1.5039, 0.4877 0.7247 1.5, 0.4877 0.6672 1.5039, 0.4877 0.6672 1.5, 0.5187 0.6672 1.5039, 0.5187 0.6672 1.5, 0.6829 0.7807 1.5039, 0.6806 0.7742 1.5039, 0.7022 0.7807 1.5039, 0.7045 0.7742 1.5039, 0.6915 0.8046 1.5039, 0.6887 0.816 1.5039, 0.6668 0.7584 1.5039, 0.675 0.7584 1.5039, 0.692 0.8063 1.5039, 0.6925 0.8086 1.5039, 0.6967 0.816 1.5039, 0.6926 0.8086 1.5039, 0.6931 0.8062 1.5039, 0.6935 0.8046 1.5039, 0.7186 0.7584 1.5039, 0.7104 0.7584 1.5039, 0.6887 0.816 1.5, 0.6967 0.816 1.5, 0.6668 0.7584 1.5, 0.6834 0.802 1.5, 0.675 0.7584 1.5, 0.6806 0.7742 1.5, 0.7045 0.7742 1.5, 0.6834 0.7742 1.5, 0.7104 0.7584 1.5, 0.7186 0.7584 1.5, 0.6915 0.8046 1.5, 0.692 0.8063 1.5, 0.6925 0.8086 1.5, 0.6829 0.7807 1.5, 0.7022 0.7807 1.5, 0.6935 0.8046 1.5, 0.6926 0.8086 1.5, 0.6931 0.8062 1.5
            ]
        }
        coordIndex [
            0,1,2,-1,2,1,3,-1,2,3,4,-1,5,2,6,-1,6,2,4,-1,5,6,7,-1,7,6,8,-1,7,8,9,-1,10,7,11,-1,11,7,9,-1,12,13,14,-1,14,13,10,-1,14,10,11,-1,15,13,16,-1,16,13,12,-1,17,18,19,-1,19,18,15,-1,19,15,16,-1,20,18,21,-1,21,18,17,-1,22,23,24,-1,24,23,20,-1,24,20,21,-1,25,23,26,-1,26,23,22,-1,27,28,29,-1,29,28,25,-1,29,25,26,-1,0,28,1,-1,1,28,27,-1,25,28,0,-1,0,2,25,-1,25,2,5,-1,25,5,23,-1,18,20,15,-1,15,20,23,-1,15,23,13,-1,13,23,5,-1,13,5,10,-1,10,5,7,-1,30,31,32,-1,32,31,33,-1,34,30,35,-1,35,30,32,-1,36,34,37,-1,37,34,35,-1,38,36,39,-1,39,36,37,-1,40,38,41,-1,41,38,39,-1,42,40,43,-1,43,40,41,-1,44,42,45,-1,45,42,43,-1,46,44,47,-1,47,44,45,-1,48,46,49,-1,49,46,47,-1,50,48,51,-1,51,48,49,-1,52,50,53,-1,53,50,51,-1,31,52,33,-1,33,52,53,-1,50,52,31,-1,31,30,50,-1,50,30,34,-1,50,34,48,-1,44,46,42,-1,42,46,48,-1,42,48,40,-1,40,48,34,-1,40,34,38,-1,38,34,36,-1,54,55,56,-1,56,55,57,-1,58,59,54,-1,54,59,60,-1,54,60,55,-1,55,60,61,-1,58,62,59,-1,59,62,63,-1,59,63,64,-1,64,63,65,-1,64,65,66,-1,66,67,64,-1,64,67,56,-1,64,56,68,-1,68,56,57,-1,68,57,69,-1,59,64,70,-1,70,64,71,-1,72,60,73,-1,73,60,59,-1,73,59,70,-1,61,60,74,-1,74,60,72,-1,55,61,75,-1,75,61,74,-1,76,57,77,-1,77,57,55,-1,77,55,75,-1,69,57,78,-1,78,57,76,-1,68,69,79,-1,79,69,78,-1,64,68,71,-1,71,68,79,-1,58,80,81,-1,58,81,62,-1,62,81,82,-1,62,82,63,-1,58,54,80,-1,80,54,83,-1,54,56,83,-1,83,56,84,-1,56,67,84,-1,84,67,85,-1,65,86,87,-1,65,87,66,-1,66,87,85,-1,66,85,67,-1,65,63,86,-1,86,63,82,-1,
        ]
    }
}
Shape{
    appearance Appearance {
        material  Material 	{
            diffuseColor 0.6666666666666666 0.6666666666666666 0.6666666666666666
            specularColor 0.4666666666666667 0.4666666666666667 0.4666666666666667
            ambientIntensity 0.6667
            transparency 0.0
            shininess 0.5
        }
    }
    geometry IndexedFaceSet {
        ccw TRUE
        solid FALSE
        coord DEF co Coordinate {
            point [
                0.6926 0.8086 1.5, 0.6925 0.8086 1.5, 0.6931 0.8062 1.5, 0.692 0.8063 1.5, 0.6935 0.8046 1.5, 0.6915 0.8046 1.5, 0.7022 0.7807 1.5, 0.6829 0.7807 1.5
            ]
        }
        coordIndex [
            0,1,2,-1,2,1,3,-1,2,3,4,-1,4,3,5,-1,4,5,6,-1,6,5,7,-1,
        ]
    }
}
Shape{
    appearance Appearance {
        material  Material 	{
            diffuseColor 0.0 0.0 0.0
            specularColor 0.0 0.0 0.0
            ambientIntensity 0.0
            transparency 0.0
            shininess 0.5
        }
    }
    geometry IndexedFaceSet {
        ccw TRUE
        solid FALSE
        coord DEF co Coordinate {
            point [
                0.5824 0.765 1.5, 0.5824 0.765 1.5039, 0.598 0.765 1.5, 0.6059 0.765 1.5039, 0.6059 0.765 1.5, 0.5824 0.7843 1.5039, 0.5824 0.7843 1.5, 0.603 0.7843 1.5039, 0.598 0.7843 1.5, 0.603 0.7843 1.5, 0.603 0.7909 1.5039, 0.603 0.7909 1.5, 0.5824 0.7909 1.5, 0.5824 0.7909 1.5039, 0.598 0.7909 1.5, 0.5824 0.8093 1.5039, 0.5824 0.8093 1.5, 0.6046 0.8093 1.5039, 0.598 0.8093 1.5, 0.6046 0.8093 1.5, 0.6046 0.816 1.5039, 0.6046 0.816 1.5, 0.575 0.816 1.5, 0.575 0.816 1.5039, 0.598 0.816 1.5, 0.575 0.7584 1.5039, 0.575 0.7584 1.5, 0.6059 0.7584 1.5039, 0.598 0.7584 1.5, 0.6059 0.7584 1.5, 0.4952 0.765 1.5039, 0.5181 0.765 1.5039, 0.4952 0.765 1.5, 0.5181 0.765 1.5, 0.4952 0.816 1.5039, 0.4952 0.816 1.5, 0.4877 0.816 1.5039, 0.4877 0.816 1.5, 0.4877 0.7584 1.5039, 0.4877 0.7584 1.5, 0.5181 0.7584 1.5039, 0.5181 0.7584 1.5
            ]
        }
        coordIndex [
            0,1,2,-1,2,1,3,-1,2,3,4,-1,5,1,6,-1,6,1,0,-1,5,6,7,-1,7,6,8,-1,7,8,9,-1,10,7,11,-1,11,7,9,-1,12,13,14,-1,14,13,10,-1,14,10,11,-1,15,13,16,-1,16,13,12,-1,15,16,17,-1,17,16,18,-1,17,18,19,-1,20,17,21,-1,21,17,19,-1,22,23,24,-1,24,23,20,-1,24,20,21,-1,25,23,26,-1,26,23,22,-1,25,26,27,-1,27,26,28,-1,27,28,29,-1,3,27,4,-1,4,27,29,-1,25,27,3,-1,3,1,25,-1,25,1,5,-1,25,5,23,-1,17,20,15,-1,15,20,23,-1,15,23,13,-1,13,23,5,-1,13,5,10,-1,10,5,7,-1,30,31,32,-1,32,31,33,-1,34,30,35,-1,35,30,32,-1,36,34,37,-1,37,34,35,-1,38,36,39,-1,39,36,37,-1,40,38,41,-1,41,38,39,-1,31,40,33,-1,33,40,41,-1,34,36,30,-1,30,36,38,-1,30,38,31,-1,31,38,40,-1,
        ]
    }
}