#VRML V2.0 utf8
# 3D model generated by easyeda2kicad.py (https://github.com/uPesy/easyeda2kicad.py)

Shape{
    appearance Appearance {
        material  Material 	{
            diffuseColor 0.7019607843137254 0.7019607843137254 0.7019607843137254
            specularColor 0.050980392156862744 0.050980392156862744 0.050980392156862744
            ambientIntensity 1.0
            transparency 0.0
            shininess 0.5
        }
    }
    geometry IndexedFaceSet {
        ccw TRUE
        solid FALSE
        coord DEF co Coordinate {
            point [
                -3.0909 -0.0984 2.3622, -3.1303 -0.0984 2.3622, -3.0909 -0.6299 2.3622, -3.1303 -0.6693 2.3622, -1.8902 -0.6299 2.3622, -1.8902 -0.6693 2.3622, -2.9335 -0.4724 0.7874, -2.9335 -0.4724 2.2047, -2.6972 -0.4724 0.7874, -1.8902 -0.4724 2.2047, -1.9689 -0.4724 0.7874, -1.8902 -0.4724 0.7874, -3.1303 0.2559 1.8504, -3.1303 0.2559 2.3622, -3.1303 1.1024 2.3622, -3.1303 -0.6693 0.0, -3.1303 -0.0924 1.8045, -3.1303 -0.0747 1.7618, -3.1303 -0.0984 1.8504, -3.1303 -0.0465 1.7251, -3.1303 -0.0098 1.697, -3.1303 -0.3839 0.0, -3.1303 0.0329 1.6793, -3.1303 0.0787 1.6732, -3.1303 1.1024 0.0, -3.1303 0.1246 1.6793, -3.1303 0.1673 1.697, -3.1303 0.204 1.7251, -3.1303 0.2322 1.7618, -3.1303 0.2499 1.8045, 1.8894 -0.6299 2.3622, 1.8894 -0.6693 2.3622, 3.0902 -0.6299 2.3622, 3.1295 -0.6693 2.3622, 3.0902 -0.0984 2.3622, 3.1295 -0.0984 2.3622, 3.0902 0.2559 2.3622, 3.1295 0.2559 2.3622, 3.0902 1.063 2.3622, 3.1295 1.1024 2.3622, -3.0909 1.063 2.3622, -3.0909 0.2559 2.3622, -2.9335 0.9055 2.2047, -2.9335 0.2559 2.2047, -2.9335 0.2559 1.8504, -2.9335 0.2322 1.7618, -2.9335 0.204 1.7251, -2.9335 0.9055 0.7874, -2.9335 -0.0465 1.7251, -2.9335 -0.0747 1.7618, -2.9335 -0.0924 1.8045, -2.9335 -0.0984 1.8504, -2.9335 -0.0984 2.2047, -2.9335 0.2499 1.8045, -2.9335 0.1673 1.697, -2.9335 0.1246 1.6793, -2.9335 -0.3839 0.7874, -2.9335 0.0787 1.6732, -2.9335 0.0329 1.6793, -2.9335 -0.0098 1.697, 2.9327 0.9055 2.2047, 2.9327 0.2559 2.2047
            ]
        }
        coordIndex [
            0,1,2,-1,2,1,3,-1,2,3,4,-1,4,3,5,-1,6,7,8,-1,8,7,9,-1,8,9,10,-1,10,9,11,-1,7,2,9,-1,9,2,4,-1,12,13,14,-1,15,16,17,-1,16,15,18,-1,18,15,3,-1,18,3,1,-1,17,19,15,-1,15,19,20,-1,15,20,21,-1,20,22,21,-1,21,22,23,-1,21,23,24,-1,24,23,25,-1,24,25,26,-1,26,27,24,-1,24,27,28,-1,24,28,14,-1,14,28,29,-1,14,29,12,-1,30,31,32,-1,32,31,33,-1,32,33,34,-1,34,33,35,-1,36,37,38,-1,38,37,39,-1,38,39,40,-1,40,39,14,-1,40,14,41,-1,41,14,13,-1,42,43,44,-1,45,46,47,-1,48,49,6,-1,6,49,50,-1,6,50,7,-1,7,50,51,-1,7,51,52,-1,42,44,47,-1,47,44,53,-1,47,53,45,-1,46,54,47,-1,47,54,55,-1,47,55,56,-1,55,57,56,-1,56,57,58,-1,56,58,6,-1,6,58,59,-1,6,59,48,-1,0,2,52,-1,52,2,7,-1,43,42,41,-1,41,42,40,-1,38,60,36,-1,36,60,61,-1,
        ]
    }
}
Shape{
    appearance Appearance {
        material  Material 	{
            diffuseColor 0.6666666666666666 0.6666666666666666 0.6666666666666666
            specularColor 0.4666666666666667 0.4666666666666667 0.4666666666666667
            ambientIntensity 0.6667
            transparency 0.0
            shininess 0.5
        }
    }
    geometry IndexedFaceSet {
        ccw TRUE
        solid FALSE
        coord DEF co Coordinate {
            point [
                1.476 0.0984 -0.3178, 1.476 0.0984 0.0, 1.6728 0.0984 -0.3178, 1.6728 0.0984 0.0, 1.6728 0.0984 -0.8633, 1.6728 0.0984 -1.0976, 1.476 0.0984 -0.8633, 1.476 0.0984 -1.0976, 1.476 -0.0984 -0.7989, 1.476 -0.0984 -1.0976, 1.6728 -0.0984 -0.7989, 1.6728 -0.0984 -1.0976, 1.6728 -0.0984 -0.3822, 1.6728 -0.0984 0.0, 1.476 -0.0984 -0.3822, 1.476 -0.0984 0.0, -1.4768 0.0984 -1.0976, -1.6736 0.0984 -1.0976, -1.4768 0.0984 -0.8633, -1.6736 0.0984 -0.8633, -1.4768 -0.0984 0.0, -1.6736 -0.0984 0.0, -1.4768 -0.0984 -0.3822, -1.6736 -0.0984 -0.3822
            ]
        }
        coordIndex [
            0,1,2,-1,2,1,3,-1,4,5,6,-1,6,5,7,-1,8,9,10,-1,10,9,11,-1,12,13,14,-1,14,13,15,-1,16,17,18,-1,18,17,19,-1,20,21,22,-1,22,21,23,-1,
        ]
    }
}
Shape{
    appearance Appearance {
        material  Material 	{
            diffuseColor 0.7019607843137254 0.7019607843137254 0.7019607843137254
            specularColor 0.050980392156862744 0.050980392156862744 0.050980392156862744
            ambientIntensity 1.0
            transparency 0.0
            shininess 0.5
        }
    }
    geometry IndexedFaceSet {
        ccw TRUE
        solid FALSE
        coord DEF co Coordinate {
            point [
                3.1295 -0.3839 0.0, 3.1295 0.0329 1.6793, 3.1295 -0.6693 0.0, 3.1295 -0.0098 1.697, 3.1295 -0.0465 1.7251, 3.1295 0.204 1.7251, 3.1295 0.1673 1.697, 3.1295 1.1024 0.0, 3.1295 0.1246 1.6793, 3.1295 0.0787 1.6732, 3.1295 0.2559 2.3622, 3.1295 0.2559 1.8504, 3.1295 1.1024 2.3622, 3.1295 0.2499 1.8045, 3.1295 0.2322 1.7618, 3.1295 -0.0747 1.7618, 3.1295 -0.0924 1.8045, 3.1295 -0.6693 2.3622, 3.1295 -0.0984 1.8504, 3.1295 -0.0984 2.3622, 2.7949 1.1024 0.0, 1.9681 1.1024 0.0, 1.1807 1.1024 0.0, 0.3933 1.1024 0.0, -3.1303 1.1024 2.3622, -0.3941 1.1024 0.0, -1.1815 1.1024 0.0, -1.9689 1.1024 0.0, -3.1303 1.1024 0.0, -1.8902 -0.6693 0.7874, -1.8902 -0.6693 2.3622, -3.1303 -0.6693 2.3622, 1.8894 -0.6693 2.3622, 1.8894 -0.6693 0.7874, 2.7949 -0.6693 0.0, 1.9681 -0.6693 0.0, 1.1807 -0.6693 0.7874, -3.1303 -0.6693 0.0, -1.9689 -0.6693 0.0, -1.1815 -0.6693 0.7874, -1.1815 -0.6693 0.0, -0.3941 -0.6693 0.7874, -0.3941 -0.6693 0.0, 0.3933 -0.6693 0.7874, 0.3933 -0.6693 0.0, 1.1807 -0.6693 0.0, -3.1303 -0.3839 0.0, -1.9689 -0.3839 0.0, -2.2642 0.0984 0.0, -2.461 0.0984 0.0, -2.461 -0.0984 0.0, -2.2642 -0.0984 0.0, -1.4768 0.0984 0.0, -1.1815 -0.3839 0.0, -1.6736 0.0984 0.0, -1.6736 -0.0984 0.0, -1.4768 -0.0984 0.0, -0.6894 0.0984 0.0, -0.3941 -0.3839 0.0, -0.8862 0.0984 0.0, -0.8862 -0.0984 0.0, -0.6894 -0.0984 0.0, 0.098 0.0984 0.0, 0.3933 -0.3839 0.0, -0.0988 0.0984 0.0, -0.0988 -0.0984 0.0, 0.098 -0.0984 0.0, 0.8854 0.0984 0.0, 1.1807 -0.3839 0.0, 0.6886 0.0984 0.0, 0.6886 -0.0984 0.0, 0.8854 -0.0984 0.0, 1.6728 0.0984 0.0, 1.9681 -0.3839 0.0, 1.476 0.0984 0.0, 1.476 -0.0984 0.0, 1.6728 -0.0984 0.0, 2.4602 -0.0984 0.0, 2.7949 -0.3839 0.0, 2.2634 -0.0984 0.0, 2.2634 0.0984 0.0, 2.4602 0.0984 0.0, 1.8894 -0.4724 0.7874, 1.8894 -0.4724 2.2047, 1.9681 -0.4724 0.7874, 2.9327 -0.4724 2.2047, 2.9327 -0.4724 0.7874, -2.9335 0.9055 0.7874, -2.6972 0.9055 0.7874, -2.9335 0.9055 2.2047, -1.9689 0.9055 0.7874, -1.1815 0.9055 0.7874, -0.3941 0.9055 0.7874, 2.9327 0.9055 2.2047, 0.3933 0.9055 0.7874, 1.1807 0.9055 0.7874, 1.9681 0.9055 0.7874, 2.9327 0.9055 0.7874, 2.9327 0.1673 1.697, 2.9327 0.204 1.7251, 2.9327 -0.0924 1.8045, 2.9327 -0.0747 1.7618, 2.9327 -0.0465 1.7251, 2.9327 -0.0098 1.697, 2.9327 -0.3839 0.7874, 2.9327 0.0329 1.6793, 2.9327 0.0787 1.6732, 2.9327 0.1246 1.6793, 2.9327 -0.0984 1.8504, 2.9327 -0.0984 2.2047, 2.9327 0.2322 1.7618, 2.9327 0.2499 1.8045, 2.9327 0.2559 1.8504, 2.9327 0.2559 2.2047, -1.8902 -0.4724 0.7874, 1.9681 -0.3839 0.7874, 1.1807 -0.3839 0.7874, -1.1815 -0.3839 0.7874, -1.9689 -0.3839 0.7874, -1.9689 -0.4724 0.7874, -2.6972 -0.3839 0.7874, -2.6972 -0.4724 0.7874, -2.9335 -0.3839 0.7874, -2.9335 -0.4724 0.7874, 2.2634 -0.0984 0.7874, 2.4602 -0.0984 0.7874, 2.4602 0.0984 0.7874, 2.2634 0.0984 0.7874, 1.476 -0.0984 0.7874, 1.6728 -0.0984 0.7874, 1.6728 0.0984 0.7874, 1.476 0.0984 0.7874, 0.6886 -0.0984 0.7874, 0.3933 -0.3839 0.7874, 0.8854 -0.0984 0.7874, 0.8854 0.0984 0.7874, 0.6886 0.0984 0.7874, -0.0988 -0.0984 0.7874, -0.3941 -0.3839 0.7874, 0.098 -0.0984 0.7874, 0.098 0.0984 0.7874, -0.0988 0.0984 0.7874, -0.8862 -0.0984 0.7874, -0.6894 -0.0984 0.7874, -0.6894 0.0984 0.7874, -0.8862 0.0984 0.7874, -1.6736 -0.0984 0.7874, -1.4768 -0.0984 0.7874, -1.4768 0.0984 0.7874, -1.6736 0.0984 0.7874, -2.461 -0.0984 0.7874, -2.461 0.0984 0.7874, -2.2642 -0.0984 0.7874, -2.2642 0.0984 0.7874, -3.0909 1.063 2.3622, 3.0902 1.063 2.3622, 3.0902 -0.6299 2.3622, 3.0902 -0.0984 2.3622, 1.8894 -0.6299 2.3622
            ]
        }
        coordIndex [
            0,1,2,-1,2,1,3,-1,2,3,4,-1,5,6,7,-1,7,6,8,-1,7,8,0,-1,0,8,9,-1,0,9,1,-1,10,11,12,-1,12,11,13,-1,12,13,7,-1,7,13,14,-1,7,14,5,-1,4,15,2,-1,2,15,16,-1,2,16,17,-1,17,16,18,-1,17,18,19,-1,7,20,12,-1,12,20,21,-1,21,22,12,-1,12,22,23,-1,12,23,24,-1,24,23,25,-1,25,26,24,-1,24,26,27,-1,24,27,28,-1,29,30,31,-1,17,32,33,-1,2,17,34,-1,34,17,33,-1,34,33,35,-1,35,33,36,-1,31,37,29,-1,29,37,38,-1,29,38,39,-1,39,38,40,-1,39,40,41,-1,41,40,42,-1,41,42,43,-1,43,42,44,-1,43,44,36,-1,36,44,45,-1,36,45,35,-1,37,46,47,-1,48,27,47,-1,27,48,28,-1,28,48,49,-1,28,49,46,-1,46,49,50,-1,46,50,47,-1,47,50,51,-1,47,51,48,-1,52,26,53,-1,26,52,27,-1,27,52,54,-1,27,54,47,-1,47,54,55,-1,47,55,53,-1,53,55,56,-1,53,56,52,-1,57,25,58,-1,25,57,26,-1,26,57,59,-1,26,59,53,-1,53,59,60,-1,53,60,58,-1,58,60,61,-1,58,61,57,-1,62,23,63,-1,23,62,25,-1,25,62,64,-1,25,64,58,-1,58,64,65,-1,58,65,63,-1,63,65,66,-1,63,66,62,-1,67,22,68,-1,22,67,23,-1,23,67,69,-1,23,69,63,-1,63,69,70,-1,63,70,68,-1,68,70,71,-1,68,71,67,-1,72,21,73,-1,21,72,22,-1,22,72,74,-1,22,74,68,-1,68,74,75,-1,68,75,73,-1,73,75,76,-1,73,76,72,-1,77,78,79,-1,79,78,73,-1,79,73,80,-1,80,73,21,-1,80,21,81,-1,81,21,20,-1,81,20,77,-1,77,20,78,-1,78,20,7,-1,78,7,0,-1,37,47,38,-1,38,47,53,-1,38,53,40,-1,40,53,58,-1,40,58,42,-1,42,58,63,-1,42,63,44,-1,44,63,68,-1,44,68,45,-1,45,68,73,-1,45,73,35,-1,35,73,78,-1,35,78,34,-1,34,78,0,-1,34,0,2,-1,82,83,84,-1,84,83,85,-1,84,85,86,-1,87,88,89,-1,89,88,90,-1,90,91,89,-1,89,91,92,-1,89,92,93,-1,93,92,94,-1,94,95,93,-1,93,95,96,-1,93,96,97,-1,98,99,97,-1,86,100,101,-1,101,102,86,-1,86,102,103,-1,86,103,104,-1,103,105,104,-1,104,105,106,-1,104,106,97,-1,97,106,107,-1,97,107,98,-1,100,86,108,-1,108,86,85,-1,108,85,109,-1,99,110,97,-1,97,110,111,-1,97,111,93,-1,93,111,112,-1,93,112,113,-1,114,29,39,-1,86,104,115,-1,116,82,115,-1,115,82,84,-1,115,84,86,-1,114,117,118,-1,114,118,119,-1,119,118,120,-1,119,120,121,-1,121,120,122,-1,121,122,123,-1,124,115,125,-1,125,115,104,-1,125,104,126,-1,126,104,97,-1,126,97,127,-1,127,97,96,-1,127,96,124,-1,124,96,115,-1,128,116,129,-1,129,116,115,-1,129,115,130,-1,130,115,96,-1,130,96,131,-1,131,96,95,-1,131,95,128,-1,128,95,116,-1,132,133,134,-1,134,133,116,-1,134,116,135,-1,135,116,95,-1,135,95,136,-1,136,95,94,-1,136,94,132,-1,132,94,133,-1,137,138,139,-1,139,138,133,-1,139,133,140,-1,140,133,94,-1,140,94,141,-1,141,94,92,-1,141,92,137,-1,137,92,138,-1,142,117,143,-1,143,117,138,-1,143,138,144,-1,144,138,92,-1,144,92,145,-1,145,92,91,-1,145,91,142,-1,142,91,117,-1,146,118,147,-1,147,118,117,-1,147,117,148,-1,148,117,91,-1,148,91,149,-1,149,91,90,-1,149,90,146,-1,146,90,118,-1,120,150,151,-1,150,120,152,-1,152,120,118,-1,152,118,153,-1,153,118,90,-1,153,90,151,-1,151,90,88,-1,151,88,120,-1,120,88,87,-1,120,87,122,-1,114,39,117,-1,117,39,41,-1,117,41,138,-1,138,41,43,-1,138,43,133,-1,133,43,36,-1,133,36,116,-1,116,36,33,-1,116,33,82,-1,154,89,155,-1,155,89,93,-1,85,156,109,-1,109,156,157,-1,156,85,158,-1,158,85,83,-1,
        ]
    }
}
Shape{
    appearance Appearance {
        material  Material 	{
            diffuseColor 0.6666666666666666 0.6666666666666666 0.6666666666666666
            specularColor 0.4666666666666667 0.4666666666666667 0.4666666666666667
            ambientIntensity 0.6667
            transparency 0.0
            shininess 0.5
        }
    }
    geometry IndexedFaceSet {
        ccw TRUE
        solid FALSE
        coord DEF co Coordinate {
            point [
                -2.3232 -0.0394 2.0866, -2.3232 0.0394 2.0866, -2.402 -0.0394 2.0866, -2.402 0.0394 2.0866, -2.2642 -0.0984 1.9244, -2.2642 -0.0984 0.7874, -2.2642 0.0984 1.9244, -2.2642 0.0984 0.7874, -2.461 -0.0984 1.9244, -2.461 -0.0984 0.7874, -2.461 0.0984 1.9244, -2.461 0.0984 0.7874, -2.461 0.0984 -1.0976, -2.461 0.0984 0.0, -2.2642 0.0984 -1.0976, -2.2642 0.0984 0.0, -2.461 -0.0984 -1.0976, -2.461 -0.0984 0.0, -2.2642 -0.0984 -1.0976, -2.2642 -0.0984 0.0, -2.3232 0.0394 -1.2598, -2.3232 -0.0394 -1.2598, -2.402 0.0394 -1.2598, -2.402 -0.0394 -1.2598, -1.5358 -0.0394 2.0866, -1.5358 0.0394 2.0866, -1.6146 -0.0394 2.0866, -1.6146 0.0394 2.0866, -1.4768 -0.0984 1.9244, -1.4768 -0.0984 0.7874, -1.4768 0.0984 1.9244, -1.4768 0.0984 0.7874, -1.6736 -0.0984 1.9244, -1.6736 -0.0984 0.7874, -1.6736 0.0984 1.9244, -1.6736 0.0984 0.7874, -1.6736 0.0984 0.0, -1.4768 0.0984 0.0, -1.6736 0.0984 -0.3178, -1.4768 0.0984 -0.3178, -1.6736 0.0984 -0.8633, -1.6736 0.0984 -1.0976, -1.6736 -0.0984 -1.0976, -1.6736 -0.0984 0.0, -1.6736 -0.0984 -0.3822, -1.6736 -0.0197 -0.5905, -1.6736 -0.0288 -0.5154, -1.6736 0.1483 -0.4212, -1.6736 -0.0555 -0.4446, -1.6736 -0.0984 -0.7989, -1.6736 -0.0555 -0.7365, -1.6736 0.1483 -0.7599, -1.6736 -0.0288 -0.6657, -1.6736 0.1739 -0.648, -1.6736 0.1739 -0.5331, -1.4768 -0.0984 -1.0976, -1.4768 -0.0984 -0.7989, -1.4768 -0.0984 0.0, -1.4768 0.0984 -1.0976, -1.4768 0.0984 -0.8633, -1.4768 -0.0555 -0.7365, -1.4768 -0.0288 -0.6657, -1.4768 -0.0984 -0.3822, -1.4768 -0.0555 -0.4446, -1.4768 0.1483 -0.4212, -1.4768 -0.0288 -0.5154, -1.4768 0.1739 -0.5331, -1.4768 -0.0197 -0.5905, -1.4768 0.1739 -0.648, -1.4768 0.1483 -0.7599, -1.5358 0.0394 -1.2598, -1.5358 -0.0394 -1.2598, -1.6146 0.0394 -1.2598, -1.6146 -0.0394 -1.2598, -0.7484 -0.0394 2.0866, -0.7484 0.0394 2.0866, -0.8272 -0.0394 2.0866, -0.8272 0.0394 2.0866, -0.6894 -0.0984 1.9244, -0.6894 -0.0984 0.7874, -0.6894 0.0984 1.9244, -0.6894 0.0984 0.7874, -0.8862 -0.0984 1.9244, -0.8862 -0.0984 0.7874, -0.8862 0.0984 1.9244, -0.8862 0.0984 0.7874, -0.8862 0.0984 -1.0976, -0.8862 0.0984 0.0, -0.6894 0.0984 -1.0976, -0.6894 0.0984 0.0, -0.8862 -0.0984 -1.0976, -0.8862 -0.0984 0.0, -0.6894 -0.0984 -1.0976, -0.6894 -0.0984 0.0, -0.7484 0.0394 -1.2598, -0.7484 -0.0394 -1.2598, -0.8272 0.0394 -1.2598, -0.8272 -0.0394 -1.2598, 0.039 -0.0394 2.0866, 0.039 0.0394 2.0866, -0.0398 -0.0394 2.0866, -0.0398 0.0394 2.0866, 0.098 -0.0984 1.9244, 0.098 -0.0984 0.7874, 0.098 0.0984 1.9244, 0.098 0.0984 0.7874, -0.0988 -0.0984 1.9244, -0.0988 -0.0984 0.7874, -0.0988 0.0984 1.9244, -0.0988 0.0984 0.7874, -0.0988 0.0984 -1.0976, -0.0988 0.0984 0.0, 0.098 0.0984 -1.0976, 0.098 0.0984 0.0, -0.0988 -0.0984 -1.0976, -0.0988 -0.0984 0.0, 0.098 -0.0984 -1.0976, 0.098 -0.0984 0.0, 0.039 0.0394 -1.2598, 0.039 -0.0394 -1.2598, -0.0398 0.0394 -1.2598, -0.0398 -0.0394 -1.2598, 0.8264 -0.0394 2.0866, 0.8264 0.0394 2.0866, 0.7476 -0.0394 2.0866, 0.7476 0.0394 2.0866, 0.8854 -0.0984 1.9244, 0.8854 -0.0984 0.7874, 0.8854 0.0984 1.9244, 0.8854 0.0984 0.7874, 0.6886 -0.0984 1.9244, 0.6886 -0.0984 0.7874, 0.6886 0.0984 1.9244, 0.6886 0.0984 0.7874, 0.6886 0.0984 -1.0976, 0.6886 0.0984 0.0, 0.8854 0.0984 -1.0976, 0.8854 0.0984 0.0, 0.6886 -0.0984 -1.0976, 0.6886 -0.0984 0.0, 0.8854 -0.0984 -1.0976, 0.8854 -0.0984 0.0, 0.8264 0.0394 -1.2598, 0.8264 -0.0394 -1.2598, 0.7476 0.0394 -1.2598, 0.7476 -0.0394 -1.2598, 1.6138 -0.0394 2.0866, 1.6138 0.0394 2.0866, 1.535 -0.0394 2.0866, 1.535 0.0394 2.0866, 1.6728 -0.0984 1.9244, 1.6728 -0.0984 0.7874, 1.6728 0.0984 1.9244, 1.6728 0.0984 0.7874, 1.476 -0.0984 1.9244, 1.476 -0.0984 0.7874, 1.476 0.0984 1.9244, 1.476 0.0984 0.7874, 1.476 0.0984 -0.8633, 1.476 0.0984 -1.0976, 1.476 -0.0984 -1.0976, 1.476 -0.0984 0.0, 1.476 0.0984 0.0, 1.476 -0.0984 -0.3822, 1.476 0.0984 -0.3178, 1.476 -0.0555 -0.4446, 1.476 -0.0984 -0.7989, 1.476 -0.0555 -0.7365, 1.476 0.1483 -0.7599, 1.476 -0.0288 -0.6657, 1.476 0.1739 -0.648, 1.476 -0.0197 -0.5905, 1.476 -0.0288 -0.5154, 1.476 0.1483 -0.4212, 1.476 0.1739 -0.5331, 1.6728 0.0984 -0.3178, 1.6728 0.0984 0.0, 1.6728 -0.0984 0.0, 1.6728 -0.0984 -1.0976, 1.6728 0.0984 -1.0976, 1.6728 -0.0984 -0.7989, 1.6728 0.0984 -0.8633, 1.6728 -0.0555 -0.7365, 1.6728 -0.0288 -0.6657, 1.6728 0.1483 -0.7599, 1.6728 0.1739 -0.648, 1.6728 -0.0197 -0.5905, 1.6728 0.1739 -0.5331, 1.6728 -0.0288 -0.5154, 1.6728 0.1483 -0.4212, 1.6728 -0.0555 -0.4446, 1.6728 -0.0984 -0.3822, 1.6138 0.0394 -1.2598, 1.6138 -0.0394 -1.2598, 1.535 0.0394 -1.2598, 1.535 -0.0394 -1.2598, 2.4012 -0.0394 2.0866, 2.4012 0.0394 2.0866, 2.3224 -0.0394 2.0866, 2.3224 0.0394 2.0866, 2.4602 -0.0984 1.9244, 2.4602 -0.0984 0.7874, 2.4602 0.0984 1.9244, 2.4602 0.0984 0.7874, 2.2634 -0.0984 1.9244, 2.2634 -0.0984 0.7874, 2.2634 0.0984 1.9244, 2.2634 0.0984 0.7874, 2.2634 0.0984 -1.0976, 2.2634 0.0984 0.0, 2.4602 0.0984 -1.0976, 2.4602 0.0984 0.0, 2.2634 -0.0984 -1.0976, 2.2634 -0.0984 0.0, 2.4602 -0.0984 -1.0976, 2.4602 -0.0984 0.0, 2.4012 0.0394 -1.2598, 2.4012 -0.0394 -1.2598, 2.3224 0.0394 -1.2598, 2.3224 -0.0394 -1.2598
            ]
        }
        coordIndex [
            0,1,2,-1,2,1,3,-1,4,5,6,-1,6,5,7,-1,8,9,4,-1,4,9,5,-1,10,11,8,-1,8,11,9,-1,6,7,10,-1,10,7,11,-1,12,13,14,-1,14,13,15,-1,16,17,12,-1,12,17,13,-1,18,19,16,-1,16,19,17,-1,14,15,18,-1,18,15,19,-1,20,21,22,-1,22,21,23,-1,21,18,23,-1,23,18,16,-1,20,14,21,-1,21,14,18,-1,12,22,16,-1,16,22,23,-1,22,12,20,-1,20,12,14,-1,10,3,6,-1,6,3,1,-1,8,2,10,-1,10,2,3,-1,0,4,1,-1,1,4,6,-1,4,0,8,-1,8,0,2,-1,24,25,26,-1,26,25,27,-1,28,29,30,-1,30,29,31,-1,32,33,28,-1,28,33,29,-1,34,35,32,-1,32,35,33,-1,30,31,34,-1,34,31,35,-1,36,37,38,-1,38,37,39,-1,40,41,42,-1,43,36,44,-1,44,36,38,-1,45,46,47,-1,47,46,38,-1,38,46,48,-1,38,48,44,-1,42,49,40,-1,40,49,50,-1,40,50,51,-1,51,50,52,-1,51,52,53,-1,53,52,45,-1,53,45,54,-1,54,45,47,-1,42,55,49,-1,49,55,56,-1,39,37,57,-1,55,58,56,-1,56,58,59,-1,56,59,60,-1,60,59,61,-1,57,62,39,-1,39,62,63,-1,39,63,64,-1,64,63,65,-1,64,65,66,-1,66,65,67,-1,66,67,68,-1,68,67,61,-1,68,61,69,-1,69,61,59,-1,70,71,72,-1,72,71,73,-1,74,75,76,-1,76,75,77,-1,78,79,80,-1,80,79,81,-1,82,83,78,-1,78,83,79,-1,84,85,82,-1,82,85,83,-1,80,81,84,-1,84,81,85,-1,86,87,88,-1,88,87,89,-1,90,91,86,-1,86,91,87,-1,92,93,90,-1,90,93,91,-1,88,89,92,-1,92,89,93,-1,94,95,96,-1,96,95,97,-1,98,99,100,-1,100,99,101,-1,102,103,104,-1,104,103,105,-1,106,107,102,-1,102,107,103,-1,108,109,106,-1,106,109,107,-1,104,105,108,-1,108,105,109,-1,110,111,112,-1,112,111,113,-1,114,115,110,-1,110,115,111,-1,116,117,114,-1,114,117,115,-1,112,113,116,-1,116,113,117,-1,118,119,120,-1,120,119,121,-1,122,123,124,-1,124,123,125,-1,126,127,128,-1,128,127,129,-1,130,131,126,-1,126,131,127,-1,132,133,130,-1,130,133,131,-1,128,129,132,-1,132,129,133,-1,134,135,136,-1,136,135,137,-1,138,139,134,-1,134,139,135,-1,140,141,138,-1,138,141,139,-1,136,137,140,-1,140,137,141,-1,142,143,144,-1,144,143,145,-1,146,147,148,-1,148,147,149,-1,150,151,152,-1,152,151,153,-1,154,155,150,-1,150,155,151,-1,156,157,154,-1,154,157,155,-1,152,153,156,-1,156,153,157,-1,158,159,160,-1,161,162,163,-1,163,162,164,-1,163,164,165,-1,160,166,158,-1,158,166,167,-1,158,167,168,-1,168,167,169,-1,168,169,170,-1,170,169,171,-1,165,164,172,-1,172,164,173,-1,172,173,171,-1,171,173,174,-1,171,174,170,-1,175,176,177,-1,178,179,180,-1,180,179,181,-1,180,181,182,-1,182,181,183,-1,181,184,183,-1,183,184,185,-1,183,185,186,-1,186,185,187,-1,186,187,188,-1,188,187,189,-1,188,189,190,-1,190,189,175,-1,190,175,191,-1,191,175,177,-1,192,193,194,-1,194,193,195,-1,196,197,198,-1,198,197,199,-1,200,201,202,-1,202,201,203,-1,204,205,200,-1,200,205,201,-1,206,207,204,-1,204,207,205,-1,202,203,206,-1,206,203,207,-1,208,209,210,-1,210,209,211,-1,212,213,208,-1,208,213,209,-1,214,215,212,-1,212,215,213,-1,210,211,214,-1,214,211,215,-1,216,217,218,-1,218,217,219,-1,71,55,73,-1,73,55,42,-1,70,58,71,-1,71,58,55,-1,41,72,42,-1,42,72,73,-1,72,41,70,-1,70,41,58,-1,34,27,30,-1,30,27,25,-1,32,26,34,-1,34,26,27,-1,24,28,25,-1,25,28,30,-1,28,24,32,-1,32,24,26,-1,95,92,97,-1,97,92,90,-1,94,88,95,-1,95,88,92,-1,86,96,90,-1,90,96,97,-1,96,86,94,-1,94,86,88,-1,84,77,80,-1,80,77,75,-1,82,76,84,-1,84,76,77,-1,74,78,75,-1,75,78,80,-1,78,74,82,-1,82,74,76,-1,119,116,121,-1,121,116,114,-1,118,112,119,-1,119,112,116,-1,110,120,114,-1,114,120,121,-1,120,110,118,-1,118,110,112,-1,108,101,104,-1,104,101,99,-1,106,100,108,-1,108,100,101,-1,98,102,99,-1,99,102,104,-1,102,98,106,-1,106,98,100,-1,143,140,145,-1,145,140,138,-1,142,136,143,-1,143,136,140,-1,134,144,138,-1,138,144,145,-1,144,134,142,-1,142,134,136,-1,132,125,128,-1,128,125,123,-1,130,124,132,-1,132,124,125,-1,122,126,123,-1,123,126,128,-1,126,122,130,-1,130,122,124,-1,193,178,195,-1,195,178,160,-1,192,179,193,-1,193,179,178,-1,159,194,160,-1,160,194,195,-1,194,159,192,-1,192,159,179,-1,156,149,152,-1,152,149,147,-1,154,148,156,-1,156,148,149,-1,146,150,147,-1,147,150,152,-1,150,146,154,-1,154,146,148,-1,217,214,219,-1,219,214,212,-1,216,210,217,-1,217,210,214,-1,208,218,212,-1,212,218,219,-1,218,208,216,-1,216,208,210,-1,206,199,202,-1,202,199,197,-1,204,198,206,-1,206,198,199,-1,196,200,197,-1,197,200,202,-1,200,196,204,-1,204,196,198,-1,62,44,63,-1,63,44,48,-1,63,48,65,-1,65,48,46,-1,65,46,67,-1,67,46,45,-1,67,45,61,-1,61,45,52,-1,61,52,60,-1,60,52,50,-1,60,50,56,-1,56,50,49,-1,59,40,51,-1,59,51,69,-1,69,51,53,-1,69,53,68,-1,68,53,54,-1,68,54,66,-1,66,54,47,-1,66,47,64,-1,64,47,38,-1,64,38,39,-1,166,180,167,-1,167,180,182,-1,167,182,169,-1,169,182,183,-1,169,183,171,-1,171,183,186,-1,171,186,172,-1,172,186,188,-1,172,188,165,-1,165,188,190,-1,165,190,163,-1,163,190,191,-1,164,175,189,-1,164,189,173,-1,173,189,187,-1,173,187,174,-1,174,187,185,-1,174,185,170,-1,170,185,184,-1,170,184,168,-1,168,184,181,-1,168,181,158,-1,
        ]
    }
}
Shape{
    appearance Appearance {
        material  Material 	{
            diffuseColor 0.7019607843137254 0.7019607843137254 0.7019607843137254
            specularColor 0.050980392156862744 0.050980392156862744 0.050980392156862744
            ambientIntensity 1.0
            transparency 0.0
            shininess 0.5
        }
    }
    geometry IndexedFaceSet {
        ccw TRUE
        solid FALSE
        coord DEF co Coordinate {
            point [
                2.9327 -0.0984 1.8504, 3.1295 -0.0984 1.8504, 2.9327 -0.0924 1.8045, 3.1295 -0.0924 1.8045, 2.9327 -0.0747 1.7618, 3.1295 -0.0747 1.7618, 2.9327 -0.0465 1.7251, 3.1295 -0.0465 1.7251, 2.9327 -0.0098 1.697, 3.1295 -0.0098 1.697, 2.9327 0.0329 1.6793, 3.1295 0.0329 1.6793, 2.9327 0.0787 1.6732, 3.1295 0.0787 1.6732, 2.9327 0.1246 1.6793, 3.1295 0.1246 1.6793, 2.9327 0.1673 1.697, 3.1295 0.1673 1.697, 2.9327 0.204 1.7251, 3.1295 0.204 1.7251, 2.9327 0.2322 1.7618, 3.1295 0.2322 1.7618, 2.9327 0.2499 1.8045, 3.1295 0.2499 1.8045, 2.9327 0.2559 1.8504, 3.1295 0.2559 1.8504, 2.9327 0.2559 2.2047, 3.0902 0.2559 2.3622, 3.1295 0.2559 2.3622, 2.9327 -0.0984 2.2047, 3.0902 -0.0984 2.3622, 3.1295 -0.0984 2.3622, -2.9335 0.2559 1.8504, -3.1303 0.2559 1.8504, -2.9335 0.2499 1.8045, -3.1303 0.2499 1.8045, -2.9335 0.2322 1.7618, -3.1303 0.2322 1.7618, -2.9335 0.204 1.7251, -3.1303 0.204 1.7251, -2.9335 0.1673 1.697, -3.1303 0.1673 1.697, -2.9335 0.1246 1.6793, -3.1303 0.1246 1.6793, -2.9335 0.0787 1.6732, -3.1303 0.0787 1.6732, -2.9335 0.0329 1.6793, -3.1303 0.0329 1.6793, -2.9335 -0.0098 1.697, -3.1303 -0.0098 1.697, -2.9335 -0.0465 1.7251, -3.1303 -0.0465 1.7251, -2.9335 -0.0747 1.7618, -3.1303 -0.0747 1.7618, -2.9335 -0.0924 1.8045, -3.1303 -0.0924 1.8045, -2.9335 -0.0984 1.8504, -3.1303 -0.0984 1.8504, -2.9335 -0.0984 2.2047, -3.0909 -0.0984 2.3622, -3.1303 -0.0984 2.3622, -2.9335 0.2559 2.2047, -3.0909 0.2559 2.3622, -3.1303 0.2559 2.3622, -1.8902 -0.4724 0.7874, -1.8902 -0.4724 2.2047, -1.8902 -0.6693 0.7874, -1.8902 -0.6299 2.3622, -1.8902 -0.6693 2.3622, 1.8894 -0.4724 2.2047, 1.8894 -0.4724 0.7874, 1.8894 -0.6299 2.3622, 1.8894 -0.6693 0.7874, 1.8894 -0.6693 2.3622
            ]
        }
        coordIndex [
            0,1,2,-1,2,1,3,-1,2,3,4,-1,4,3,5,-1,4,5,6,-1,6,5,7,-1,6,7,8,-1,8,7,9,-1,8,9,10,-1,10,9,11,-1,10,11,12,-1,12,11,13,-1,12,13,14,-1,14,13,15,-1,14,15,16,-1,16,15,17,-1,16,17,18,-1,18,17,19,-1,18,19,20,-1,20,19,21,-1,20,21,22,-1,22,21,23,-1,22,23,24,-1,24,23,25,-1,26,24,27,-1,27,24,25,-1,27,25,28,-1,0,29,1,-1,1,29,30,-1,1,30,31,-1,32,33,34,-1,34,33,35,-1,34,35,36,-1,36,35,37,-1,36,37,38,-1,38,37,39,-1,38,39,40,-1,40,39,41,-1,40,41,42,-1,42,41,43,-1,42,43,44,-1,44,43,45,-1,44,45,46,-1,46,45,47,-1,46,47,48,-1,48,47,49,-1,48,49,50,-1,50,49,51,-1,50,51,52,-1,52,51,53,-1,52,53,54,-1,54,53,55,-1,54,55,56,-1,56,55,57,-1,58,56,59,-1,59,56,57,-1,59,57,60,-1,32,61,33,-1,33,61,62,-1,33,62,63,-1,64,65,66,-1,66,65,67,-1,66,67,68,-1,69,70,71,-1,71,70,72,-1,71,72,73,-1,
        ]
    }
}